<svg width="328" height="429" viewBox="0 0 328 429" fill="none" xmlns="http://www.w3.org/2000/svg">
<path d="M0.999989 38.8309L166 32.045" stroke="#FF731D" stroke-width="4.41964"/>
<path d="M6.71484 29.1479L156.785 41.4557" stroke="#FF731D" stroke-width="4.41964"/>
<path d="M2.20764 0.901555V17.7306H36.8268V0.901555H2.20764ZM14.8879 21.6373H1V27.6477H38.0344V21.6373H24.1465V18.9326H14.8879V21.6373ZM11.4662 6.91192H27.5682V11.7202H11.4662V6.91192Z" fill="white"/>
<path d="M68.628 15.9275V18.4819H50.5134V15.9275H41.2548V28.5492H77.8866V15.9275H68.628ZM54.3376 8.11399L55.1829 6.91192H65.0051V1.20207H41.2548V6.91192H45.7231L40.0069 15.0259H49.4668L53.2104 9.70674L56.7529 15.0259H66.2127L61.664 8.11399H54.3376ZM77.8866 0.300518H68.628V15.0259H77.8866V0.300518ZM50.5134 22.5389H68.628V24.1917H50.5134V22.5389Z" fill="white"/>
<path d="M91.5732 24.6425V23.7409H118.141V15.3264H81.5096V19.2332H108.078V20.1347H81.5096V28.5492H118.141V24.6425H91.5732ZM104.857 7.06218C104.857 2.46425 100.631 0 92.5796 0C84.5287 0 80.3019 2.46425 80.3019 7.06218C80.3019 11.6601 84.5287 14.1244 92.5796 14.1244C100.631 14.1244 104.857 11.6601 104.857 7.06218ZM118.141 0.300518H108.883V14.4249H118.141V0.300518ZM92.5796 9.01554C89.3592 9.01554 88.3529 8.2943 88.3529 7.06218C88.3529 5.83005 89.3592 5.10881 92.5796 5.10881C95.8 5.10881 96.8064 5.83005 96.8064 7.06218C96.8064 8.2943 95.8 9.01554 92.5796 9.01554Z" fill="white"/>
<path d="M158.396 0.300518H149.138V5.70984H145.515V1.20207H121.764V7.21244H126.514L120.959 16.829H130.419L133.841 10.9389L136.86 16.829H146.32L142.173 8.71503H135.129L135.974 7.21244H145.112V11.7202H149.138V17.1295H158.396V0.300518ZM159 23.3503C159 19.744 154.814 17.7005 140.684 17.7005C126.555 17.7005 122.368 19.744 122.368 23.3503C122.368 26.9565 126.555 29 140.684 29C154.814 29 159 26.9565 159 23.3503ZM149.741 23.3503C149.741 24.0415 148.816 24.4922 140.684 24.4922C132.553 24.4922 131.627 24.0415 131.627 23.3503C131.627 22.6591 132.553 22.2083 140.684 22.2083C148.816 22.2083 149.741 22.6591 149.741 23.3503Z" fill="white"/>
<circle cx="91" cy="192" r="89.5" stroke="white"/>
<circle cx="91" cy="339" r="89.5" stroke="white"/>
<circle cx="238" cy="192" r="89.5" stroke="white"/>
<circle cx="238" cy="339" r="89.5" stroke="white"/>
<rect x="40" y="231" width="102" height="74" fill="black"/>
<rect x="40" y="231" width="102" height="74" fill="black"/>
<rect x="121" y="141" width="102" height="102" fill="black"/>
<rect x="187" y="217" width="102" height="102" fill="black"/>
<rect x="110" y="288" width="102" height="102" fill="black"/>
<rect x="110" y="222" width="102" height="102" fill="black"/>
<path d="M61.3711 147.047C61.3776 148.193 61.5371 149.286 61.8496 150.328C62.1621 151.37 62.6406 152.294 63.2852 153.102C63.9362 153.902 64.737 154.508 65.6875 154.918L64.1641 156.91C63.2005 156.441 62.3802 155.787 61.7031 154.947C61.0326 154.101 60.5052 153.111 60.1211 151.979C59.724 153.189 59.1771 154.247 58.4805 155.152C57.7839 156.051 56.944 156.741 55.9609 157.223L54.3984 155.191C55.375 154.749 56.1953 154.104 56.8594 153.258C57.5299 152.411 58.028 151.454 58.3535 150.387C58.679 149.312 58.8451 148.199 58.8516 147.047V144.391H61.3711V147.047ZM63.6953 148.609H67.1914V143.023H69.6523V160.836H67.1914V150.621H63.6953V148.609ZM88.1875 155.406H84.4375V160.797H81.918V155.406H78.207V160.797H75.7266V155.406H71.918V153.453H88.1875V155.406ZM73.793 143.551H86.3125V148.727H76.3711V150.172H86.7227V152.164H73.8516V146.91H83.7539V145.582H73.793V143.551ZM108.812 152.75H106.332V149.039H103.52V147.008H106.332V143.023H108.812V152.75ZM93.7344 151.109C94.6328 150.81 95.3945 150.39 96.0195 149.85C96.6445 149.303 97.1198 148.688 97.4453 148.004C97.7708 147.32 97.9564 146.604 98.002 145.855H94.4375V143.824H104.086V145.855H100.561C100.6 146.539 100.772 147.203 101.078 147.848C101.391 148.486 101.846 149.062 102.445 149.576C103.044 150.09 103.773 150.491 104.633 150.777L103.402 152.691C102.445 152.379 101.622 151.92 100.932 151.314C100.248 150.709 99.7077 149.996 99.3105 149.176C98.9004 150.094 98.334 150.888 97.6113 151.559C96.8952 152.229 96.026 152.73 95.0039 153.062L93.7344 151.109ZM96.957 153.434H99.418V155.113H106.332V153.434H108.812V160.602H96.957V153.434ZM106.332 158.609V157.027H99.418V158.609H106.332ZM120.551 144.41C120.544 145.133 120.782 145.842 121.264 146.539C121.752 147.229 122.465 147.828 123.402 148.336C124.34 148.837 125.46 149.169 126.762 149.332L125.785 151.344C124.262 151.122 122.937 150.68 121.811 150.016C120.691 149.345 119.835 148.518 119.242 147.535C118.643 148.518 117.784 149.345 116.664 150.016C115.551 150.68 114.242 151.122 112.738 151.344L111.742 149.332C113.031 149.169 114.141 148.837 115.072 148.336C116.01 147.828 116.719 147.229 117.201 146.539C117.683 145.842 117.927 145.133 117.934 144.41V143.551H120.551V144.41ZM111.117 152.691H127.328V154.723H120.414V160.797H117.953V154.723H111.117V152.691Z" fill="white"/>
<path d="M190.742 145.816H194.062V143.043H196.543V155.973H194.062V151.617H190.742V153.121H182.305V144.469H190.742V145.816ZM184.707 154.742H187.227V158.492H196.914V160.484H184.707V154.742ZM188.301 151.188V146.441H184.785V151.188H188.301ZM194.062 149.645V147.828H190.742V149.645H194.062ZM213.828 152.75H211.348V149.039H208.535V147.008H211.348V143.023H213.828V152.75ZM198.75 151.109C199.648 150.81 200.41 150.39 201.035 149.85C201.66 149.303 202.135 148.688 202.461 148.004C202.786 147.32 202.972 146.604 203.018 145.855H199.453V143.824H209.102V145.855H205.576C205.615 146.539 205.788 147.203 206.094 147.848C206.406 148.486 206.862 149.062 207.461 149.576C208.06 150.09 208.789 150.491 209.648 150.777L208.418 152.691C207.461 152.379 206.637 151.92 205.947 151.314C205.264 150.709 204.723 149.996 204.326 149.176C203.916 150.094 203.35 150.888 202.627 151.559C201.911 152.229 201.042 152.73 200.02 153.062L198.75 151.109ZM201.973 153.434H204.434V155.113H211.348V153.434H213.828V160.602H201.973V153.434ZM211.348 158.609V157.027H204.434V158.609H211.348ZM225.801 143.551C226.693 143.551 227.5 143.723 228.223 144.068C228.945 144.413 229.512 144.895 229.922 145.514C230.339 146.132 230.547 146.832 230.547 147.613C230.547 148.388 230.339 149.081 229.922 149.693C229.512 150.305 228.945 150.787 228.223 151.139C227.5 151.484 226.693 151.656 225.801 151.656C224.896 151.656 224.079 151.484 223.35 151.139C222.62 150.787 222.048 150.305 221.631 149.693C221.221 149.081 221.016 148.388 221.016 147.613C221.016 146.832 221.221 146.132 221.631 145.514C222.048 144.895 222.62 144.413 223.35 144.068C224.079 143.723 224.896 143.551 225.801 143.551ZM223.438 147.613C223.431 148.03 223.529 148.391 223.73 148.697C223.932 148.997 224.212 149.228 224.57 149.391C224.928 149.553 225.339 149.638 225.801 149.645C226.25 149.638 226.65 149.553 227.002 149.391C227.36 149.228 227.64 148.997 227.842 148.697C228.044 148.391 228.145 148.03 228.145 147.613C228.145 147.197 228.044 146.835 227.842 146.529C227.64 146.223 227.36 145.989 227.002 145.826C226.65 145.663 226.25 145.582 225.801 145.582C225.345 145.582 224.935 145.663 224.57 145.826C224.212 145.989 223.932 146.223 223.73 146.529C223.529 146.835 223.431 147.197 223.438 147.613ZM223.691 152.672H235.625V157.496H226.172V158.648H236.113V160.602H223.73V155.68H233.145V154.586H223.691V152.672ZM233.125 143.023H235.625V151.93H233.125V143.023ZM253.008 153.57H250.527V149.371H247.754V147.359H250.527V143.023H253.008V153.57ZM237.91 151.617C238.841 151.305 239.626 150.859 240.264 150.279C240.902 149.7 241.38 149.049 241.699 148.326C242.018 147.604 242.188 146.858 242.207 146.09H238.633V144.098H248.281V146.09H244.746C244.766 146.806 244.925 147.496 245.225 148.16C245.524 148.818 245.977 149.41 246.582 149.938C247.194 150.465 247.943 150.875 248.828 151.168L247.598 153.121C246.647 152.815 245.827 152.359 245.137 151.754C244.453 151.142 243.913 150.426 243.516 149.605C243.112 150.536 242.549 151.347 241.826 152.037C241.104 152.721 240.228 153.238 239.199 153.59L237.91 151.617ZM240.82 157.398C240.82 156.689 241.064 156.077 241.553 155.562C242.048 155.042 242.754 154.645 243.672 154.371C244.59 154.098 245.677 153.961 246.934 153.961C248.197 153.961 249.287 154.098 250.205 154.371C251.123 154.645 251.829 155.038 252.324 155.553C252.819 156.067 253.066 156.682 253.066 157.398C253.066 158.115 252.819 158.727 252.324 159.234C251.829 159.749 251.123 160.139 250.205 160.406C249.287 160.68 248.197 160.816 246.934 160.816C245.677 160.816 244.59 160.68 243.672 160.406C242.754 160.139 242.048 159.749 241.553 159.234C241.064 158.72 240.82 158.108 240.82 157.398ZM243.301 157.398C243.301 157.9 243.61 158.281 244.229 158.541C244.847 158.795 245.749 158.922 246.934 158.922C248.125 158.922 249.03 158.795 249.648 158.541C250.267 158.287 250.579 157.906 250.586 157.398C250.579 156.897 250.27 156.52 249.658 156.266C249.053 156.005 248.167 155.875 247.002 155.875C244.535 155.875 243.301 156.383 243.301 157.398ZM274.023 148.121H276.426V150.191H274.023V155.973H271.523V143.023H274.023V148.121ZM260.039 148.688C260.039 147.822 260.254 147.047 260.684 146.363C261.113 145.673 261.699 145.136 262.441 144.752C263.19 144.368 264.017 144.176 264.922 144.176C265.82 144.176 266.637 144.368 267.373 144.752C268.115 145.136 268.698 145.673 269.121 146.363C269.551 147.047 269.766 147.822 269.766 148.688C269.766 149.54 269.551 150.312 269.121 151.002C268.698 151.686 268.115 152.223 267.373 152.613C266.637 153.004 265.82 153.199 264.922 153.199C264.017 153.199 263.19 153.004 262.441 152.613C261.699 152.223 261.113 151.686 260.684 151.002C260.254 150.312 260.039 149.54 260.039 148.688ZM262.5 154.605H264.98V158.492H274.668V160.484H262.5V154.605ZM262.5 148.688C262.493 149.156 262.594 149.57 262.803 149.928C263.018 150.279 263.311 150.553 263.682 150.748C264.053 150.937 264.466 151.031 264.922 151.031C265.378 151.031 265.788 150.937 266.152 150.748C266.523 150.553 266.813 150.279 267.021 149.928C267.236 149.57 267.344 149.156 267.344 148.688C267.344 148.206 267.236 147.789 267.021 147.438C266.813 147.079 266.523 146.806 266.152 146.617C265.788 146.428 265.378 146.337 264.922 146.344C264.466 146.337 264.053 146.428 263.682 146.617C263.311 146.806 263.018 147.079 262.803 147.438C262.594 147.789 262.493 148.206 262.5 148.688ZM292.539 160.797H290.137V151.91H288.477V159.938H286.133V143.316H288.477V149.898H290.137V143.023H292.539V160.797ZM277.93 144.996H280.43V154.283C282.096 154.238 283.665 154.072 285.137 153.785L285.391 155.934C283.288 156.298 281.204 156.474 279.141 156.461H277.93V144.996Z" fill="white"/>
<path d="M82.9219 292.816H86.2422V290.043H88.7227V302.973H86.2422V298.617H82.9219V300.121H74.4844V291.469H82.9219V292.816ZM76.8867 301.742H79.4062V305.492H89.0938V307.484H76.8867V301.742ZM80.4805 298.188V293.441H76.9648V298.188H80.4805ZM86.2422 296.645V294.828H82.9219V296.645H86.2422ZM106.008 299.75H103.527V296.039H100.715V294.008H103.527V290.023H106.008V299.75ZM90.9297 298.109C91.8281 297.81 92.5898 297.39 93.2148 296.85C93.8398 296.303 94.3151 295.688 94.6406 295.004C94.9661 294.32 95.1517 293.604 95.1973 292.855H91.6328V290.824H101.281V292.855H97.7559C97.7949 293.539 97.9674 294.203 98.2734 294.848C98.5859 295.486 99.0417 296.062 99.6406 296.576C100.24 297.09 100.969 297.491 101.828 297.777L100.598 299.691C99.6406 299.379 98.8171 298.92 98.127 298.314C97.4434 297.709 96.903 296.996 96.5059 296.176C96.0957 297.094 95.5293 297.888 94.8066 298.559C94.0905 299.229 93.2214 299.73 92.1992 300.062L90.9297 298.109ZM94.1523 300.434H96.6133V302.113H103.527V300.434H106.008V307.602H94.1523V300.434ZM103.527 305.609V304.027H96.6133V305.609H103.527Z" fill="white"/>
<path d="M212.781 302.309C214.363 302.211 215.802 302.068 217.098 301.879L217.293 303.695C215.555 304.027 213.784 304.242 211.98 304.34C210.184 304.438 208.198 304.49 206.023 304.496L205.73 302.484C207.449 302.484 208.973 302.465 210.301 302.426V299.633H212.781V302.309ZM206.082 298.305C207.371 297.96 208.364 297.416 209.061 296.674C209.764 295.925 210.158 295.076 210.242 294.125H206.648V292.113H210.301V290.18H212.781V292.113H216.453V294.125H212.82C212.879 294.717 213.071 295.277 213.396 295.805C213.722 296.326 214.188 296.788 214.793 297.191C215.398 297.595 216.134 297.901 217 298.109L215.867 300.043C214.852 299.789 213.979 299.392 213.25 298.852C212.527 298.305 211.958 297.65 211.541 296.889C211.144 297.689 210.584 298.373 209.861 298.939C209.145 299.506 208.276 299.919 207.254 300.18L206.082 298.305ZM218.113 290.023H220.594V307.836H218.113V290.023ZM232.254 298.52H239.148V300.531H222.938V298.52H229.793V296.391H232.254V298.52ZM223.641 295.453C224.702 295.355 225.623 295.173 226.404 294.906C227.192 294.633 227.817 294.311 228.279 293.939C228.748 293.562 229.061 293.161 229.217 292.738H224.422V290.785H237.684V292.738H232.85C232.999 293.161 233.309 293.562 233.777 293.939C234.246 294.311 234.874 294.633 235.662 294.906C236.45 295.173 237.378 295.355 238.445 295.453L237.566 297.406C235.926 297.243 234.546 296.876 233.426 296.303C232.306 295.723 231.505 294.994 231.023 294.115C230.542 294.994 229.744 295.723 228.631 296.303C227.524 296.876 226.154 297.243 224.52 297.406L223.641 295.453ZM224.793 304.652C224.793 303.982 225.04 303.412 225.535 302.943C226.03 302.475 226.743 302.12 227.674 301.879C228.611 301.632 229.728 301.508 231.023 301.508C232.312 301.508 233.419 301.632 234.344 301.879C235.268 302.12 235.975 302.475 236.463 302.943C236.958 303.412 237.208 303.982 237.215 304.652C237.208 305.323 236.958 305.893 236.463 306.361C235.975 306.837 235.268 307.195 234.344 307.436C233.419 307.676 232.312 307.797 231.023 307.797C229.728 307.797 228.611 307.676 227.674 307.436C226.743 307.195 226.03 306.837 225.535 306.361C225.04 305.893 224.793 305.323 224.793 304.652ZM227.332 304.652C227.326 305.089 227.628 305.414 228.24 305.629C228.852 305.837 229.78 305.941 231.023 305.941C233.478 305.941 234.708 305.512 234.715 304.652C234.708 303.819 233.478 303.402 231.023 303.402C229.773 303.402 228.842 303.507 228.23 303.715C227.625 303.917 227.326 304.229 227.332 304.652ZM247.84 292.934H251.473V290.824H253.973V298.578H245.359V290.824H247.84V292.934ZM247.137 299.73H258.934V304.555H249.617V305.707H259.441V307.68H247.176V302.777H256.453V301.664H247.137V299.73ZM251.473 296.625V294.809H247.84V296.625H251.473ZM256.434 290.023H258.934V293.48H261.336V295.492H258.934V299.066H256.434V290.023ZM278.387 305.824H262.117V303.832H266.16V300.453H263.465V298.441H265.848V293.441H263.387V291.449H277.02V293.441H274.52V298.441H276.941V300.453H274.266V303.832H278.387V305.824ZM272.059 298.441V293.441H268.348V298.441H272.059ZM271.766 303.832V300.453H268.66V303.832H271.766Z" fill="white"/>
<path d="M29.0928 197.906L32.5244 194.447C32.9391 194.019 33.2559 193.673 33.4746 193.408C33.6934 193.139 33.8597 192.88 33.9736 192.629C34.0921 192.374 34.1514 192.105 34.1514 191.822C34.1514 191.503 34.0716 191.223 33.9121 190.981C33.7526 190.74 33.5339 190.553 33.2559 190.421C32.9779 190.289 32.6657 190.223 32.3193 190.223C31.9548 190.223 31.6357 190.296 31.3623 190.441C31.0934 190.587 30.8838 190.792 30.7334 191.057C30.5876 191.316 30.5146 191.622 30.5146 191.973H29.0928C29.0882 191.38 29.2249 190.856 29.5029 190.4C29.7809 189.945 30.1683 189.591 30.665 189.341C31.1618 189.09 31.7223 188.965 32.3467 188.965C32.971 188.965 33.527 189.088 34.0146 189.334C34.5068 189.576 34.8896 189.91 35.1631 190.339C35.4411 190.767 35.5824 191.248 35.5869 191.781C35.5824 192.16 35.5094 192.524 35.3682 192.875C35.2269 193.221 34.9854 193.609 34.6436 194.037C34.3018 194.461 33.8187 194.98 33.1943 195.596L31.1846 197.633V197.715H35.751V199H29.0928V197.906ZM40.8643 199.137C40.1032 199.137 39.4492 198.938 38.9023 198.542C38.36 198.141 37.9453 197.56 37.6582 196.799C37.3711 196.038 37.2275 195.122 37.2275 194.051C37.2275 192.984 37.3711 192.071 37.6582 191.31C37.9499 190.549 38.3669 189.967 38.9092 189.566C39.4561 189.165 40.1077 188.965 40.8643 188.965C41.6162 188.965 42.2633 189.165 42.8057 189.566C43.3525 189.967 43.7718 190.549 44.0635 191.31C44.3551 192.071 44.501 192.984 44.501 194.051C44.501 195.122 44.3551 196.04 44.0635 196.806C43.7764 197.567 43.3617 198.146 42.8193 198.542C42.277 198.938 41.6253 199.137 40.8643 199.137ZM38.7314 194.085C38.7314 194.892 38.8158 195.575 38.9844 196.136C39.153 196.696 39.3968 197.12 39.7158 197.407C40.0348 197.694 40.4176 197.838 40.8643 197.838C41.3109 197.838 41.6937 197.694 42.0127 197.407C42.3317 197.116 42.5755 196.687 42.7441 196.122C42.9128 195.557 42.9971 194.867 42.9971 194.051C42.9971 193.24 42.9105 192.549 42.7373 191.979C42.5687 191.41 42.3249 190.979 42.0059 190.688C41.6868 190.391 41.3063 190.241 40.8643 190.236C40.4176 190.236 40.0348 190.387 39.7158 190.688C39.3968 190.984 39.153 191.421 38.9844 192C38.8158 192.574 38.7314 193.269 38.7314 194.085ZM46.0596 197.906L49.4912 194.447C49.9059 194.019 50.2227 193.673 50.4414 193.408C50.6602 193.139 50.8265 192.88 50.9404 192.629C51.0589 192.374 51.1182 192.105 51.1182 191.822C51.1182 191.503 51.0384 191.223 50.8789 190.981C50.7194 190.74 50.5007 190.553 50.2227 190.421C49.9447 190.289 49.6325 190.223 49.2861 190.223C48.9215 190.223 48.6025 190.296 48.3291 190.441C48.0602 190.587 47.8506 190.792 47.7002 191.057C47.5544 191.316 47.4814 191.622 47.4814 191.973H46.0596C46.055 191.38 46.1917 190.856 46.4697 190.4C46.7477 189.945 47.1351 189.591 47.6318 189.341C48.1286 189.09 48.6891 188.965 49.3135 188.965C49.9378 188.965 50.4938 189.088 50.9814 189.334C51.4736 189.576 51.8564 189.91 52.1299 190.339C52.4079 190.767 52.5492 191.248 52.5537 191.781C52.5492 192.16 52.4762 192.524 52.335 192.875C52.1937 193.221 51.9521 193.609 51.6104 194.037C51.2686 194.461 50.7855 194.98 50.1611 195.596L48.1514 197.633V197.715H52.7178V199H46.0596V197.906ZM57.8994 199.137C57.2249 199.137 56.6188 199.023 56.0811 198.795C55.5479 198.567 55.1263 198.248 54.8164 197.838C54.5111 197.423 54.3493 196.949 54.3311 196.416H55.8623C55.8805 196.699 55.9785 196.949 56.1562 197.168C56.3385 197.382 56.5801 197.549 56.8809 197.667C57.1816 197.781 57.5166 197.838 57.8857 197.838C58.2822 197.838 58.6354 197.772 58.9453 197.64C59.2598 197.503 59.5059 197.312 59.6836 197.065C59.8613 196.819 59.9502 196.539 59.9502 196.225C59.9502 195.896 59.8613 195.607 59.6836 195.356C59.5104 195.101 59.2552 194.903 58.918 194.762C58.5807 194.616 58.182 194.543 57.7217 194.543H56.874V193.312H57.7217C58.0954 193.312 58.4258 193.249 58.7129 193.121C59.0046 192.989 59.2301 192.804 59.3896 192.567C59.5537 192.33 59.6357 192.055 59.6357 191.74C59.6357 191.439 59.5651 191.175 59.4238 190.947C59.2826 190.719 59.082 190.542 58.8223 190.414C58.5625 190.286 58.2594 190.223 57.9131 190.223C57.5804 190.223 57.2682 190.282 56.9766 190.4C56.6895 190.519 56.457 190.69 56.2793 190.913C56.1016 191.132 56.0081 191.385 55.999 191.672H54.5498C54.5635 191.148 54.7207 190.681 55.0215 190.271C55.3268 189.856 55.7347 189.535 56.2451 189.307C56.7555 189.079 57.3161 188.965 57.9268 188.965C58.5602 188.965 59.1162 189.086 59.5947 189.327C60.0732 189.569 60.4424 189.897 60.7021 190.312C60.9619 190.722 61.0895 191.171 61.085 191.658C61.0895 192.214 60.9346 192.686 60.6201 193.073C60.3057 193.461 59.8773 193.723 59.335 193.859V193.928C59.7816 193.992 60.1644 194.131 60.4834 194.345C60.807 194.554 61.0508 194.826 61.2148 195.158C61.3835 195.491 61.4678 195.865 61.4678 196.279C61.4678 196.822 61.3128 197.312 61.0029 197.749C60.6976 198.182 60.2715 198.521 59.7246 198.768C59.1823 199.014 58.5739 199.137 57.8994 199.137ZM72.9111 196.977H71.6123V192.807H68.249V191.768H71.6123V190.482H68.249V189.443H71.6123V187.926H72.9111V196.977ZM63.4229 188.773H64.708V194.133C65.5967 194.128 66.4329 194.096 67.2168 194.037C68.0007 193.973 68.805 193.864 69.6299 193.709L69.7666 194.775C68.8688 194.944 67.9984 195.06 67.1553 195.124C66.3167 195.183 65.387 195.217 64.3662 195.227H63.4229V188.773ZM64.9268 196.184H66.2393V198.85H73.2256V199.902H64.9268V196.184ZM78.6396 197.906L82.0713 194.447C82.486 194.019 82.8027 193.673 83.0215 193.408C83.2402 193.139 83.4066 192.88 83.5205 192.629C83.639 192.374 83.6982 192.105 83.6982 191.822C83.6982 191.503 83.6185 191.223 83.459 190.981C83.2995 190.74 83.0807 190.553 82.8027 190.421C82.5247 190.289 82.2126 190.223 81.8662 190.223C81.5016 190.223 81.1826 190.296 80.9092 190.441C80.6403 190.587 80.4307 190.792 80.2803 191.057C80.1344 191.316 80.0615 191.622 80.0615 191.973H78.6396C78.6351 191.38 78.7718 190.856 79.0498 190.4C79.3278 189.945 79.7152 189.591 80.2119 189.341C80.7087 189.09 81.2692 188.965 81.8936 188.965C82.5179 188.965 83.0739 189.088 83.5615 189.334C84.0537 189.576 84.4365 189.91 84.71 190.339C84.988 190.767 85.1292 191.248 85.1338 191.781C85.1292 192.16 85.0563 192.524 84.915 192.875C84.7738 193.221 84.5322 193.609 84.1904 194.037C83.8486 194.461 83.3656 194.98 82.7412 195.596L80.7314 197.633V197.715H85.2979V199H78.6396V197.906ZM96.7275 195.104H95.4287V194.516H93.0361V193.695H95.4287V187.926H96.7275V195.104ZM87.0957 192.438C88.4811 192.438 89.7891 192.417 91.0195 192.376C92.2546 192.335 93.4235 192.255 94.5264 192.137L94.5947 192.971C93.583 193.117 92.4072 193.224 91.0674 193.292V195.131H89.7822V193.34C88.9391 193.363 88.2054 193.374 87.5811 193.374L86.665 193.367L86.5146 192.438H87.0957ZM87.4307 189.977C87.4307 189.607 87.556 189.284 87.8066 189.006C88.0573 188.728 88.4128 188.514 88.873 188.363C89.3379 188.208 89.8779 188.131 90.4932 188.131C91.0947 188.131 91.6257 188.208 92.0859 188.363C92.5508 188.514 92.9108 188.728 93.166 189.006C93.4212 189.284 93.5511 189.607 93.5557 189.977C93.5511 190.35 93.4212 190.676 93.166 190.954C92.9108 191.228 92.5531 191.439 92.0928 191.59C91.6325 191.736 91.0993 191.809 90.4932 191.809C89.8779 191.809 89.3379 191.736 88.873 191.59C88.4128 191.439 88.0573 191.228 87.8066 190.954C87.556 190.676 87.4307 190.35 87.4307 189.977ZM88.3467 195.514H96.7275V198.152H89.6729V199.096H97.0967V200.039H88.4014V197.291H95.4424V196.416H88.3467V195.514ZM88.6475 189.977C88.6475 190.168 88.7227 190.337 88.873 190.482C89.0234 190.624 89.2376 190.735 89.5156 190.817C89.7936 190.895 90.1195 190.934 90.4932 190.934C90.8623 190.934 91.1836 190.895 91.457 190.817C91.735 190.735 91.9492 190.624 92.0996 190.482C92.25 190.337 92.3252 190.168 92.3252 189.977C92.3252 189.781 92.25 189.61 92.0996 189.464C91.9492 189.318 91.735 189.206 91.457 189.129C91.1836 189.047 90.8623 189.006 90.4932 189.006C90.1195 189.006 89.7936 189.047 89.5156 189.129C89.2376 189.206 89.0234 189.318 88.873 189.464C88.7227 189.61 88.6475 189.781 88.6475 189.977ZM102.483 197.906L105.915 194.447C106.33 194.019 106.646 193.673 106.865 193.408C107.084 193.139 107.25 192.88 107.364 192.629C107.483 192.374 107.542 192.105 107.542 191.822C107.542 191.503 107.462 191.223 107.303 190.981C107.143 190.74 106.924 190.553 106.646 190.421C106.368 190.289 106.056 190.223 105.71 190.223C105.345 190.223 105.026 190.296 104.753 190.441C104.484 190.587 104.274 190.792 104.124 191.057C103.978 191.316 103.905 191.622 103.905 191.973H102.483C102.479 191.38 102.616 190.856 102.894 190.4C103.172 189.945 103.559 189.591 104.056 189.341C104.552 189.09 105.113 188.965 105.737 188.965C106.362 188.965 106.918 189.088 107.405 189.334C107.897 189.576 108.28 189.91 108.554 190.339C108.832 190.767 108.973 191.248 108.978 191.781C108.973 192.16 108.9 192.524 108.759 192.875C108.618 193.221 108.376 193.609 108.034 194.037C107.692 194.461 107.209 194.98 106.585 195.596L104.575 197.633V197.715H109.142V199H102.483V197.906ZM114.255 199.137C113.494 199.137 112.84 198.938 112.293 198.542C111.751 198.141 111.336 197.56 111.049 196.799C110.762 196.038 110.618 195.122 110.618 194.051C110.618 192.984 110.762 192.071 111.049 191.31C111.34 190.549 111.757 189.967 112.3 189.566C112.847 189.165 113.498 188.965 114.255 188.965C115.007 188.965 115.654 189.165 116.196 189.566C116.743 189.967 117.162 190.549 117.454 191.31C117.746 192.071 117.892 192.984 117.892 194.051C117.892 195.122 117.746 196.04 117.454 196.806C117.167 197.567 116.752 198.146 116.21 198.542C115.668 198.938 115.016 199.137 114.255 199.137ZM112.122 194.085C112.122 194.892 112.206 195.575 112.375 196.136C112.544 196.696 112.787 197.12 113.106 197.407C113.425 197.694 113.808 197.838 114.255 197.838C114.701 197.838 115.084 197.694 115.403 197.407C115.722 197.116 115.966 196.687 116.135 196.122C116.303 195.557 116.388 194.867 116.388 194.051C116.388 193.24 116.301 192.549 116.128 191.979C115.959 191.41 115.715 190.979 115.396 190.688C115.077 190.391 114.697 190.241 114.255 190.236C113.808 190.236 113.425 190.387 113.106 190.688C112.787 190.984 112.544 191.421 112.375 192C112.206 192.574 112.122 193.269 112.122 194.085ZM122.499 188.322C123.11 188.327 123.659 188.448 124.146 188.685C124.634 188.917 125.017 189.241 125.295 189.655C125.573 190.07 125.712 190.542 125.712 191.07C125.712 191.599 125.573 192.071 125.295 192.485C125.017 192.9 124.634 193.224 124.146 193.456C123.659 193.688 123.11 193.805 122.499 193.805C121.884 193.805 121.33 193.688 120.838 193.456C120.35 193.224 119.967 192.9 119.689 192.485C119.411 192.071 119.272 191.599 119.272 191.07C119.272 190.542 119.411 190.07 119.689 189.655C119.967 189.241 120.35 188.917 120.838 188.685C121.33 188.448 121.884 188.327 122.499 188.322ZM120.544 191.07C120.544 191.403 120.626 191.697 120.79 191.952C120.959 192.203 121.191 192.399 121.487 192.54C121.788 192.681 122.125 192.752 122.499 192.752C122.873 192.752 123.208 192.681 123.504 192.54C123.8 192.399 124.033 192.203 124.201 191.952C124.37 191.697 124.454 191.403 124.454 191.07C124.454 190.742 124.37 190.453 124.201 190.202C124.033 189.947 123.798 189.751 123.497 189.614C123.201 189.478 122.868 189.411 122.499 189.416C122.125 189.411 121.788 189.478 121.487 189.614C121.191 189.751 120.959 189.947 120.79 190.202C120.626 190.453 120.544 190.742 120.544 191.07ZM121.132 194.707H129.185V197.797H122.431V198.973H129.595V200.012H121.173V196.826H127.899V195.746H121.132V194.707ZM127.886 187.912H129.185V194.146H127.886V187.912ZM131.864 195.227C131.869 193.964 132.042 192.793 132.384 191.713C132.73 190.628 133.231 189.617 133.888 188.678H135.228C134.909 189.138 134.608 189.73 134.325 190.455C134.043 191.175 133.815 191.954 133.642 192.793C133.468 193.632 133.382 194.443 133.382 195.227C133.382 196.01 133.468 196.824 133.642 197.667C133.815 198.506 134.043 199.287 134.325 200.012C134.608 200.736 134.909 201.329 135.228 201.789H133.888C133.231 200.846 132.73 199.832 132.384 198.747C132.042 197.662 131.869 196.489 131.864 195.227ZM146.315 195.104H145.017V194.516H142.624V193.695H145.017V187.926H146.315V195.104ZM136.684 192.438C138.069 192.438 139.377 192.417 140.607 192.376C141.842 192.335 143.011 192.255 144.114 192.137L144.183 192.971C143.171 193.117 141.995 193.224 140.655 193.292V195.131H139.37V193.34C138.527 193.363 137.793 193.374 137.169 193.374L136.253 193.367L136.103 192.438H136.684ZM137.019 189.977C137.019 189.607 137.144 189.284 137.395 189.006C137.645 188.728 138.001 188.514 138.461 188.363C138.926 188.208 139.466 188.131 140.081 188.131C140.683 188.131 141.214 188.208 141.674 188.363C142.139 188.514 142.499 188.728 142.754 189.006C143.009 189.284 143.139 189.607 143.144 189.977C143.139 190.35 143.009 190.676 142.754 190.954C142.499 191.228 142.141 191.439 141.681 191.59C141.22 191.736 140.687 191.809 140.081 191.809C139.466 191.809 138.926 191.736 138.461 191.59C138.001 191.439 137.645 191.228 137.395 190.954C137.144 190.676 137.019 190.35 137.019 189.977ZM137.935 195.514H146.315V198.152H139.261V199.096H146.685V200.039H137.989V197.291H145.03V196.416H137.935V195.514ZM138.235 189.977C138.235 190.168 138.311 190.337 138.461 190.482C138.611 190.624 138.826 190.735 139.104 190.817C139.382 190.895 139.707 190.934 140.081 190.934C140.45 190.934 140.771 190.895 141.045 190.817C141.323 190.735 141.537 190.624 141.688 190.482C141.838 190.337 141.913 190.168 141.913 189.977C141.913 189.781 141.838 189.61 141.688 189.464C141.537 189.318 141.323 189.206 141.045 189.129C140.771 189.047 140.45 189.006 140.081 189.006C139.707 189.006 139.382 189.047 139.104 189.129C138.826 189.206 138.611 189.318 138.461 189.464C138.311 189.61 138.235 189.781 138.235 189.977ZM151.593 195.227C151.588 196.489 151.413 197.662 151.066 198.747C150.725 199.832 150.226 200.846 149.569 201.789H148.229C148.549 201.329 148.849 200.736 149.132 200.012C149.414 199.287 149.642 198.506 149.815 197.667C149.989 196.824 150.075 196.01 150.075 195.227C150.075 194.443 149.989 193.632 149.815 192.793C149.642 191.954 149.414 191.175 149.132 190.455C148.849 189.73 148.549 189.138 148.229 188.678H149.569C150.226 189.617 150.725 190.628 151.066 191.713C151.413 192.793 151.588 193.964 151.593 195.227ZM27.4043 211.83C27.8646 211.32 28.4069 211.064 29.0312 211.064C29.2728 211.064 29.5052 211.099 29.7285 211.167C29.9518 211.231 30.2344 211.329 30.5762 211.461C30.9043 211.589 31.1777 211.684 31.3965 211.748C31.6198 211.812 31.8477 211.844 32.0801 211.844C32.39 211.844 32.6794 211.775 32.9482 211.639C33.2217 211.497 33.4655 211.292 33.6797 211.023V212.336C33.2194 212.846 32.6771 213.102 32.0527 213.102C31.8158 213.102 31.5856 213.07 31.3623 213.006C31.1436 212.942 30.8587 212.844 30.5078 212.712C30.1842 212.584 29.9085 212.489 29.6807 212.425C29.4528 212.356 29.2227 212.322 28.9902 212.322C28.6849 212.322 28.3978 212.393 28.1289 212.534C27.86 212.671 27.6185 212.874 27.4043 213.143V211.83ZM39.2852 214.906L42.7168 211.447C43.1315 211.019 43.4482 210.673 43.667 210.408C43.8857 210.139 44.0521 209.88 44.166 209.629C44.2845 209.374 44.3438 209.105 44.3438 208.822C44.3438 208.503 44.264 208.223 44.1045 207.981C43.945 207.74 43.7262 207.553 43.4482 207.421C43.1702 207.289 42.8581 207.223 42.5117 207.223C42.1471 207.223 41.8281 207.296 41.5547 207.441C41.2858 207.587 41.0762 207.792 40.9258 208.057C40.7799 208.316 40.707 208.622 40.707 208.973H39.2852C39.2806 208.38 39.4173 207.856 39.6953 207.4C39.9733 206.945 40.3607 206.591 40.8574 206.341C41.3542 206.09 41.9147 205.965 42.5391 205.965C43.1634 205.965 43.7194 206.088 44.207 206.334C44.6992 206.576 45.082 206.91 45.3555 207.339C45.6335 207.767 45.7747 208.248 45.7793 208.781C45.7747 209.16 45.7018 209.524 45.5605 209.875C45.4193 210.221 45.1777 210.609 44.8359 211.037C44.4941 211.461 44.0111 211.98 43.3867 212.596L41.377 214.633V214.715H45.9434V216H39.2852V214.906ZM51.0566 216.137C50.2956 216.137 49.6416 215.938 49.0947 215.542C48.5524 215.141 48.1377 214.56 47.8506 213.799C47.5635 213.038 47.4199 212.122 47.4199 211.051C47.4199 209.984 47.5635 209.071 47.8506 208.31C48.1423 207.549 48.5592 206.967 49.1016 206.566C49.6484 206.165 50.3001 205.965 51.0566 205.965C51.8086 205.965 52.4557 206.165 52.998 206.566C53.5449 206.967 53.9642 207.549 54.2559 208.31C54.5475 209.071 54.6934 209.984 54.6934 211.051C54.6934 212.122 54.5475 213.04 54.2559 213.806C53.9688 214.567 53.554 215.146 53.0117 215.542C52.4694 215.938 51.8177 216.137 51.0566 216.137ZM48.9238 211.085C48.9238 211.892 49.0081 212.575 49.1768 213.136C49.3454 213.696 49.5892 214.12 49.9082 214.407C50.2272 214.694 50.61 214.838 51.0566 214.838C51.5033 214.838 51.8861 214.694 52.2051 214.407C52.5241 214.116 52.7679 213.687 52.9365 213.122C53.1051 212.557 53.1895 211.867 53.1895 211.051C53.1895 210.24 53.1029 209.549 52.9297 208.979C52.7611 208.41 52.5173 207.979 52.1982 207.688C51.8792 207.391 51.4987 207.241 51.0566 207.236C50.61 207.236 50.2272 207.387 49.9082 207.688C49.5892 207.984 49.3454 208.421 49.1768 209C49.0081 209.574 48.9238 210.269 48.9238 211.085ZM56.252 214.906L59.6836 211.447C60.0983 211.019 60.415 210.673 60.6338 210.408C60.8525 210.139 61.0189 209.88 61.1328 209.629C61.2513 209.374 61.3105 209.105 61.3105 208.822C61.3105 208.503 61.2308 208.223 61.0713 207.981C60.9118 207.74 60.693 207.553 60.415 207.421C60.137 207.289 59.8249 207.223 59.4785 207.223C59.1139 207.223 58.7949 207.296 58.5215 207.441C58.2526 207.587 58.043 207.792 57.8926 208.057C57.7467 208.316 57.6738 208.622 57.6738 208.973H56.252C56.2474 208.38 56.3841 207.856 56.6621 207.4C56.9401 206.945 57.3275 206.591 57.8242 206.341C58.321 206.09 58.8815 205.965 59.5059 205.965C60.1302 205.965 60.6862 206.088 61.1738 206.334C61.666 206.576 62.0488 206.91 62.3223 207.339C62.6003 207.767 62.7415 208.248 62.7461 208.781C62.7415 209.16 62.6686 209.524 62.5273 209.875C62.3861 210.221 62.1445 210.609 61.8027 211.037C61.4609 211.461 60.9779 211.98 60.3535 212.596L58.3438 214.633V214.715H62.9102V216H56.252V214.906ZM68.0918 216.137C67.4173 216.137 66.8112 216.023 66.2734 215.795C65.7402 215.567 65.3187 215.248 65.0088 214.838C64.7035 214.423 64.5417 213.949 64.5234 213.416H66.0547C66.0729 213.699 66.1709 213.949 66.3486 214.168C66.5309 214.382 66.7725 214.549 67.0732 214.667C67.374 214.781 67.709 214.838 68.0781 214.838C68.4746 214.838 68.8278 214.772 69.1377 214.64C69.4521 214.503 69.6982 214.312 69.876 214.065C70.0537 213.819 70.1426 213.539 70.1426 213.225C70.1426 212.896 70.0537 212.607 69.876 212.356C69.7028 212.101 69.4476 211.903 69.1104 211.762C68.7731 211.616 68.3743 211.543 67.9141 211.543H67.0664V210.312H67.9141C68.2878 210.312 68.6182 210.249 68.9053 210.121C69.1969 209.989 69.4225 209.804 69.582 209.567C69.7461 209.33 69.8281 209.055 69.8281 208.74C69.8281 208.439 69.7575 208.175 69.6162 207.947C69.4749 207.719 69.2744 207.542 69.0146 207.414C68.7549 207.286 68.4518 207.223 68.1055 207.223C67.7728 207.223 67.4606 207.282 67.1689 207.4C66.8818 207.519 66.6494 207.69 66.4717 207.913C66.2939 208.132 66.2005 208.385 66.1914 208.672H64.7422C64.7559 208.148 64.9131 207.681 65.2139 207.271C65.5192 206.856 65.9271 206.535 66.4375 206.307C66.9479 206.079 67.5085 205.965 68.1191 205.965C68.7526 205.965 69.3086 206.086 69.7871 206.327C70.2656 206.569 70.6348 206.897 70.8945 207.312C71.1543 207.722 71.2819 208.171 71.2773 208.658C71.2819 209.214 71.127 209.686 70.8125 210.073C70.498 210.461 70.0697 210.723 69.5273 210.859V210.928C69.974 210.992 70.3568 211.131 70.6758 211.345C70.9993 211.554 71.2432 211.826 71.4072 212.158C71.5758 212.491 71.6602 212.865 71.6602 213.279C71.6602 213.822 71.5052 214.312 71.1953 214.749C70.89 215.182 70.4639 215.521 69.917 215.768C69.3747 216.014 68.7663 216.137 68.0918 216.137ZM83.1035 213.977H81.8047V209.807H78.4414V208.768H81.8047V207.482H78.4414V206.443H81.8047V204.926H83.1035V213.977ZM73.6152 205.773H74.9004V211.133C75.7891 211.128 76.6253 211.096 77.4092 211.037C78.193 210.973 78.9974 210.864 79.8223 210.709L79.959 211.775C79.0612 211.944 78.1908 212.06 77.3477 212.124C76.5091 212.183 75.5794 212.217 74.5586 212.227H73.6152V205.773ZM75.1191 213.184H76.4316V215.85H83.418V216.902H75.1191V213.184ZM92.3457 216.137C91.6712 216.137 91.0651 216.023 90.5273 215.795C89.9941 215.567 89.5726 215.248 89.2627 214.838C88.9574 214.423 88.7956 213.949 88.7773 213.416H90.3086C90.3268 213.699 90.4248 213.949 90.6025 214.168C90.7848 214.382 91.0264 214.549 91.3271 214.667C91.6279 214.781 91.9629 214.838 92.332 214.838C92.7285 214.838 93.0817 214.772 93.3916 214.64C93.7061 214.503 93.9521 214.312 94.1299 214.065C94.3076 213.819 94.3965 213.539 94.3965 213.225C94.3965 212.896 94.3076 212.607 94.1299 212.356C93.9567 212.101 93.7015 211.903 93.3643 211.762C93.027 211.616 92.6283 211.543 92.168 211.543H91.3203V210.312H92.168C92.5417 210.312 92.8721 210.249 93.1592 210.121C93.4508 209.989 93.6764 209.804 93.8359 209.567C94 209.33 94.082 209.055 94.082 208.74C94.082 208.439 94.0114 208.175 93.8701 207.947C93.7288 207.719 93.5283 207.542 93.2686 207.414C93.0088 207.286 92.7057 207.223 92.3594 207.223C92.0267 207.223 91.7145 207.282 91.4229 207.4C91.1357 207.519 90.9033 207.69 90.7256 207.913C90.5479 208.132 90.4544 208.385 90.4453 208.672H88.9961C89.0098 208.148 89.167 207.681 89.4678 207.271C89.7731 206.856 90.181 206.535 90.6914 206.307C91.2018 206.079 91.7624 205.965 92.373 205.965C93.0065 205.965 93.5625 206.086 94.041 206.327C94.5195 206.569 94.8887 206.897 95.1484 207.312C95.4082 207.722 95.5358 208.171 95.5312 208.658C95.5358 209.214 95.3809 209.686 95.0664 210.073C94.752 210.461 94.3236 210.723 93.7812 210.859V210.928C94.2279 210.992 94.6107 211.131 94.9297 211.345C95.2533 211.554 95.4971 211.826 95.6611 212.158C95.8298 212.491 95.9141 212.865 95.9141 213.279C95.9141 213.822 95.7591 214.312 95.4492 214.749C95.1439 215.182 94.7178 215.521 94.1709 215.768C93.6286 216.014 93.0202 216.137 92.3457 216.137ZM107.33 212.104H106.031V211.516H103.639V210.695H106.031V204.926H107.33V212.104ZM97.6982 209.438C99.0837 209.438 100.392 209.417 101.622 209.376C102.857 209.335 104.026 209.255 105.129 209.137L105.197 209.971C104.186 210.117 103.01 210.224 101.67 210.292V212.131H100.385V210.34C99.5417 210.363 98.8079 210.374 98.1836 210.374L97.2676 210.367L97.1172 209.438H97.6982ZM98.0332 206.977C98.0332 206.607 98.1585 206.284 98.4092 206.006C98.6598 205.728 99.0153 205.514 99.4756 205.363C99.9404 205.208 100.48 205.131 101.096 205.131C101.697 205.131 102.228 205.208 102.688 205.363C103.153 205.514 103.513 205.728 103.769 206.006C104.024 206.284 104.154 206.607 104.158 206.977C104.154 207.35 104.024 207.676 103.769 207.954C103.513 208.228 103.156 208.439 102.695 208.59C102.235 208.736 101.702 208.809 101.096 208.809C100.48 208.809 99.9404 208.736 99.4756 208.59C99.0153 208.439 98.6598 208.228 98.4092 207.954C98.1585 207.676 98.0332 207.35 98.0332 206.977ZM98.9492 212.514H107.33V215.152H100.275V216.096H107.699V217.039H99.0039V214.291H106.045V213.416H98.9492V212.514ZM99.25 206.977C99.25 207.168 99.3252 207.337 99.4756 207.482C99.626 207.624 99.8402 207.735 100.118 207.817C100.396 207.895 100.722 207.934 101.096 207.934C101.465 207.934 101.786 207.895 102.06 207.817C102.338 207.735 102.552 207.624 102.702 207.482C102.853 207.337 102.928 207.168 102.928 206.977C102.928 206.781 102.853 206.61 102.702 206.464C102.552 206.318 102.338 206.206 102.06 206.129C101.786 206.047 101.465 206.006 101.096 206.006C100.722 206.006 100.396 206.047 100.118 206.129C99.8402 206.206 99.626 206.318 99.4756 206.464C99.3252 206.61 99.25 206.781 99.25 206.977ZM116.449 216.137C115.834 216.137 115.276 216.021 114.774 215.788C114.273 215.556 113.874 215.232 113.578 214.817C113.282 214.403 113.122 213.936 113.1 213.416H114.562C114.59 213.694 114.69 213.945 114.863 214.168C115.036 214.387 115.262 214.56 115.54 214.688C115.818 214.815 116.121 214.879 116.449 214.879C116.846 214.879 117.199 214.79 117.509 214.612C117.823 214.435 118.069 214.191 118.247 213.881C118.425 213.566 118.514 213.215 118.514 212.828C118.514 212.432 118.423 212.076 118.24 211.762C118.058 211.443 117.805 211.194 117.481 211.017C117.158 210.834 116.791 210.741 116.381 210.736C115.542 210.736 114.964 211.028 114.645 211.611H113.223L113.865 206.102H119.471V207.387H115.109L114.781 210.162H114.877C115.087 209.962 115.355 209.802 115.684 209.684C116.016 209.561 116.367 209.497 116.736 209.492C117.352 209.492 117.905 209.636 118.397 209.923C118.89 210.205 119.275 210.597 119.553 211.099C119.835 211.595 119.977 212.158 119.977 212.787C119.977 213.43 119.826 214.006 119.525 214.517C119.225 215.022 118.805 215.419 118.268 215.706C117.734 215.993 117.128 216.137 116.449 216.137ZM124.625 205.322C125.236 205.327 125.785 205.448 126.272 205.685C126.76 205.917 127.143 206.241 127.421 206.655C127.699 207.07 127.838 207.542 127.838 208.07C127.838 208.599 127.699 209.071 127.421 209.485C127.143 209.9 126.76 210.224 126.272 210.456C125.785 210.688 125.236 210.805 124.625 210.805C124.01 210.805 123.456 210.688 122.964 210.456C122.476 210.224 122.093 209.9 121.815 209.485C121.537 209.071 121.398 208.599 121.398 208.07C121.398 207.542 121.537 207.07 121.815 206.655C122.093 206.241 122.476 205.917 122.964 205.685C123.456 205.448 124.01 205.327 124.625 205.322ZM122.67 208.07C122.67 208.403 122.752 208.697 122.916 208.952C123.085 209.203 123.317 209.399 123.613 209.54C123.914 209.681 124.251 209.752 124.625 209.752C124.999 209.752 125.334 209.681 125.63 209.54C125.926 209.399 126.159 209.203 126.327 208.952C126.496 208.697 126.58 208.403 126.58 208.07C126.58 207.742 126.496 207.453 126.327 207.202C126.159 206.947 125.924 206.751 125.623 206.614C125.327 206.478 124.994 206.411 124.625 206.416C124.251 206.411 123.914 206.478 123.613 206.614C123.317 206.751 123.085 206.947 122.916 207.202C122.752 207.453 122.67 207.742 122.67 208.07ZM123.258 211.707H131.311V214.797H124.557V215.973H131.721V217.012H123.299V213.826H130.025V212.746H123.258V211.707ZM130.012 204.912H131.311V211.146H130.012V204.912ZM133.99 212.227C133.995 210.964 134.168 209.793 134.51 208.713C134.856 207.628 135.357 206.617 136.014 205.678H137.354C137.035 206.138 136.734 206.73 136.451 207.455C136.169 208.175 135.941 208.954 135.768 209.793C135.594 210.632 135.508 211.443 135.508 212.227C135.508 213.01 135.594 213.824 135.768 214.667C135.941 215.506 136.169 216.287 136.451 217.012C136.734 217.736 137.035 218.329 137.354 218.789H136.014C135.357 217.846 134.856 216.832 134.51 215.747C134.168 214.662 133.995 213.489 133.99 212.227ZM141.729 205.322C142.339 205.327 142.888 205.448 143.376 205.685C143.864 205.917 144.246 206.241 144.524 206.655C144.802 207.07 144.941 207.542 144.941 208.07C144.941 208.599 144.802 209.071 144.524 209.485C144.246 209.9 143.864 210.224 143.376 210.456C142.888 210.688 142.339 210.805 141.729 210.805C141.113 210.805 140.56 210.688 140.067 210.456C139.58 210.224 139.197 209.9 138.919 209.485C138.641 209.071 138.502 208.599 138.502 208.07C138.502 207.542 138.641 207.07 138.919 206.655C139.197 206.241 139.58 205.917 140.067 205.685C140.56 205.448 141.113 205.327 141.729 205.322ZM139.773 208.07C139.773 208.403 139.855 208.697 140.02 208.952C140.188 209.203 140.421 209.399 140.717 209.54C141.018 209.681 141.355 209.752 141.729 209.752C142.102 209.752 142.437 209.681 142.733 209.54C143.03 209.399 143.262 209.203 143.431 208.952C143.599 208.697 143.684 208.403 143.684 208.07C143.684 207.742 143.599 207.453 143.431 207.202C143.262 206.947 143.027 206.751 142.727 206.614C142.43 206.478 142.098 206.411 141.729 206.416C141.355 206.411 141.018 206.478 140.717 206.614C140.421 206.751 140.188 206.947 140.02 207.202C139.855 207.453 139.773 207.742 139.773 208.07ZM140.361 211.707H148.414V214.797H141.66V215.973H148.824V217.012H140.402V213.826H147.129V212.746H140.361V211.707ZM147.115 204.912H148.414V211.146H147.115V204.912ZM153.719 212.227C153.714 213.489 153.539 214.662 153.192 215.747C152.851 216.832 152.352 217.846 151.695 218.789H150.355C150.674 218.329 150.975 217.736 151.258 217.012C151.54 216.287 151.768 215.506 151.941 214.667C152.115 213.824 152.201 213.01 152.201 212.227C152.201 211.443 152.115 210.632 151.941 209.793C151.768 208.954 151.54 208.175 151.258 207.455C150.975 206.73 150.674 206.138 150.355 205.678H151.695C152.352 206.617 152.851 207.628 153.192 208.713C153.539 209.793 153.714 210.964 153.719 212.227Z" fill="white"/>
<path d="M175.875 203.906L179.307 200.447C179.721 200.019 180.038 199.673 180.257 199.408C180.476 199.139 180.642 198.88 180.756 198.629C180.874 198.374 180.934 198.105 180.934 197.822C180.934 197.503 180.854 197.223 180.694 196.981C180.535 196.74 180.316 196.553 180.038 196.421C179.76 196.289 179.448 196.223 179.102 196.223C178.737 196.223 178.418 196.296 178.145 196.441C177.876 196.587 177.666 196.792 177.516 197.057C177.37 197.316 177.297 197.622 177.297 197.973H175.875C175.87 197.38 176.007 196.856 176.285 196.4C176.563 195.945 176.951 195.591 177.447 195.341C177.944 195.09 178.505 194.965 179.129 194.965C179.753 194.965 180.309 195.088 180.797 195.334C181.289 195.576 181.672 195.91 181.945 196.339C182.223 196.767 182.365 197.248 182.369 197.781C182.365 198.16 182.292 198.524 182.15 198.875C182.009 199.221 181.768 199.609 181.426 200.037C181.084 200.461 180.601 200.98 179.977 201.596L177.967 203.633V203.715H182.533V205H175.875V203.906ZM187.646 205.137C186.885 205.137 186.231 204.938 185.685 204.542C185.142 204.141 184.728 203.56 184.44 202.799C184.153 202.038 184.01 201.122 184.01 200.051C184.01 198.984 184.153 198.071 184.44 197.31C184.732 196.549 185.149 195.967 185.691 195.566C186.238 195.165 186.89 194.965 187.646 194.965C188.398 194.965 189.046 195.165 189.588 195.566C190.135 195.967 190.554 196.549 190.846 197.31C191.137 198.071 191.283 198.984 191.283 200.051C191.283 201.122 191.137 202.04 190.846 202.806C190.559 203.567 190.144 204.146 189.602 204.542C189.059 204.938 188.408 205.137 187.646 205.137ZM185.514 200.085C185.514 200.892 185.598 201.575 185.767 202.136C185.935 202.696 186.179 203.12 186.498 203.407C186.817 203.694 187.2 203.838 187.646 203.838C188.093 203.838 188.476 203.694 188.795 203.407C189.114 203.116 189.358 202.687 189.526 202.122C189.695 201.557 189.779 200.867 189.779 200.051C189.779 199.24 189.693 198.549 189.52 197.979C189.351 197.41 189.107 196.979 188.788 196.688C188.469 196.391 188.089 196.241 187.646 196.236C187.2 196.236 186.817 196.387 186.498 196.688C186.179 196.984 185.935 197.421 185.767 198C185.598 198.574 185.514 199.269 185.514 200.085ZM192.842 203.906L196.273 200.447C196.688 200.019 197.005 199.673 197.224 199.408C197.442 199.139 197.609 198.88 197.723 198.629C197.841 198.374 197.9 198.105 197.9 197.822C197.9 197.503 197.821 197.223 197.661 196.981C197.502 196.74 197.283 196.553 197.005 196.421C196.727 196.289 196.415 196.223 196.068 196.223C195.704 196.223 195.385 196.296 195.111 196.441C194.842 196.587 194.633 196.792 194.482 197.057C194.337 197.316 194.264 197.622 194.264 197.973H192.842C192.837 197.38 192.974 196.856 193.252 196.4C193.53 195.945 193.917 195.591 194.414 195.341C194.911 195.09 195.471 194.965 196.096 194.965C196.72 194.965 197.276 195.088 197.764 195.334C198.256 195.576 198.639 195.91 198.912 196.339C199.19 196.767 199.331 197.248 199.336 197.781C199.331 198.16 199.258 198.524 199.117 198.875C198.976 199.221 198.734 199.609 198.393 200.037C198.051 200.461 197.568 200.98 196.943 201.596L194.934 203.633V203.715H199.5V205H192.842V203.906ZM204.682 205.137C204.007 205.137 203.401 205.023 202.863 204.795C202.33 204.567 201.909 204.248 201.599 203.838C201.293 203.423 201.132 202.949 201.113 202.416H202.645C202.663 202.699 202.761 202.949 202.938 203.168C203.121 203.382 203.362 203.549 203.663 203.667C203.964 203.781 204.299 203.838 204.668 203.838C205.064 203.838 205.418 203.772 205.728 203.64C206.042 203.503 206.288 203.312 206.466 203.065C206.644 202.819 206.732 202.539 206.732 202.225C206.732 201.896 206.644 201.607 206.466 201.356C206.293 201.101 206.037 200.903 205.7 200.762C205.363 200.616 204.964 200.543 204.504 200.543H203.656V199.312H204.504C204.878 199.312 205.208 199.249 205.495 199.121C205.787 198.989 206.012 198.804 206.172 198.567C206.336 198.33 206.418 198.055 206.418 197.74C206.418 197.439 206.347 197.175 206.206 196.947C206.065 196.719 205.864 196.542 205.604 196.414C205.345 196.286 205.042 196.223 204.695 196.223C204.363 196.223 204.05 196.282 203.759 196.4C203.472 196.519 203.239 196.69 203.062 196.913C202.884 197.132 202.79 197.385 202.781 197.672H201.332C201.346 197.148 201.503 196.681 201.804 196.271C202.109 195.856 202.517 195.535 203.027 195.307C203.538 195.079 204.098 194.965 204.709 194.965C205.342 194.965 205.898 195.086 206.377 195.327C206.855 195.569 207.225 195.897 207.484 196.312C207.744 196.722 207.872 197.171 207.867 197.658C207.872 198.214 207.717 198.686 207.402 199.073C207.088 199.461 206.66 199.723 206.117 199.859V199.928C206.564 199.992 206.947 200.131 207.266 200.345C207.589 200.554 207.833 200.826 207.997 201.158C208.166 201.491 208.25 201.865 208.25 202.279C208.25 202.822 208.095 203.312 207.785 203.749C207.48 204.182 207.054 204.521 206.507 204.768C205.965 205.014 205.356 205.137 204.682 205.137ZM219.693 202.977H218.395V198.807H215.031V197.768H218.395V196.482H215.031V195.443H218.395V193.926H219.693V202.977ZM210.205 194.773H211.49V200.133C212.379 200.128 213.215 200.096 213.999 200.037C214.783 199.973 215.587 199.864 216.412 199.709L216.549 200.775C215.651 200.944 214.781 201.06 213.938 201.124C213.099 201.183 212.169 201.217 211.148 201.227H210.205V194.773ZM211.709 202.184H213.021V204.85H220.008V205.902H211.709V202.184ZM228.867 205.137C228.106 205.137 227.452 204.938 226.905 204.542C226.363 204.141 225.948 203.56 225.661 202.799C225.374 202.038 225.23 201.122 225.23 200.051C225.23 198.984 225.374 198.071 225.661 197.31C225.953 196.549 226.37 195.967 226.912 195.566C227.459 195.165 228.111 194.965 228.867 194.965C229.619 194.965 230.266 195.165 230.809 195.566C231.355 195.967 231.775 196.549 232.066 197.31C232.358 198.071 232.504 198.984 232.504 200.051C232.504 201.122 232.358 202.04 232.066 202.806C231.779 203.567 231.365 204.146 230.822 204.542C230.28 204.938 229.628 205.137 228.867 205.137ZM226.734 200.085C226.734 200.892 226.819 201.575 226.987 202.136C227.156 202.696 227.4 203.12 227.719 203.407C228.038 203.694 228.421 203.838 228.867 203.838C229.314 203.838 229.697 203.694 230.016 203.407C230.335 203.116 230.578 202.687 230.747 202.122C230.916 201.557 231 200.867 231 200.051C231 199.24 230.913 198.549 230.74 197.979C230.572 197.41 230.328 196.979 230.009 196.688C229.69 196.391 229.309 196.241 228.867 196.236C228.421 196.236 228.038 196.387 227.719 196.688C227.4 196.984 227.156 197.421 226.987 198C226.819 198.574 226.734 199.269 226.734 200.085ZM237.576 205.137C236.902 205.137 236.296 205.023 235.758 204.795C235.225 204.567 234.803 204.248 234.493 203.838C234.188 203.423 234.026 202.949 234.008 202.416H235.539C235.557 202.699 235.655 202.949 235.833 203.168C236.015 203.382 236.257 203.549 236.558 203.667C236.858 203.781 237.193 203.838 237.562 203.838C237.959 203.838 238.312 203.772 238.622 203.64C238.937 203.503 239.183 203.312 239.36 203.065C239.538 202.819 239.627 202.539 239.627 202.225C239.627 201.896 239.538 201.607 239.36 201.356C239.187 201.101 238.932 200.903 238.595 200.762C238.257 200.616 237.859 200.543 237.398 200.543H236.551V199.312H237.398C237.772 199.312 238.103 199.249 238.39 199.121C238.681 198.989 238.907 198.804 239.066 198.567C239.23 198.33 239.312 198.055 239.312 197.74C239.312 197.439 239.242 197.175 239.101 196.947C238.959 196.719 238.759 196.542 238.499 196.414C238.239 196.286 237.936 196.223 237.59 196.223C237.257 196.223 236.945 196.282 236.653 196.4C236.366 196.519 236.134 196.69 235.956 196.913C235.778 197.132 235.685 197.385 235.676 197.672H234.227C234.24 197.148 234.397 196.681 234.698 196.271C235.004 195.856 235.411 195.535 235.922 195.307C236.432 195.079 236.993 194.965 237.604 194.965C238.237 194.965 238.793 195.086 239.271 195.327C239.75 195.569 240.119 195.897 240.379 196.312C240.639 196.722 240.766 197.171 240.762 197.658C240.766 198.214 240.611 198.686 240.297 199.073C239.982 199.461 239.554 199.723 239.012 199.859V199.928C239.458 199.992 239.841 200.131 240.16 200.345C240.484 200.554 240.728 200.826 240.892 201.158C241.06 201.491 241.145 201.865 241.145 202.279C241.145 202.822 240.99 203.312 240.68 203.749C240.374 204.182 239.948 204.521 239.401 204.768C238.859 205.014 238.251 205.137 237.576 205.137ZM252.561 201.104H251.262V200.516H248.869V199.695H251.262V193.926H252.561V201.104ZM242.929 198.438C244.314 198.438 245.622 198.417 246.853 198.376C248.088 198.335 249.257 198.255 250.359 198.137L250.428 198.971C249.416 199.117 248.24 199.224 246.9 199.292V201.131H245.615V199.34C244.772 199.363 244.038 199.374 243.414 199.374L242.498 199.367L242.348 198.438H242.929ZM243.264 195.977C243.264 195.607 243.389 195.284 243.64 195.006C243.89 194.728 244.246 194.514 244.706 194.363C245.171 194.208 245.711 194.131 246.326 194.131C246.928 194.131 247.459 194.208 247.919 194.363C248.384 194.514 248.744 194.728 248.999 195.006C249.254 195.284 249.384 195.607 249.389 195.977C249.384 196.35 249.254 196.676 248.999 196.954C248.744 197.228 248.386 197.439 247.926 197.59C247.465 197.736 246.932 197.809 246.326 197.809C245.711 197.809 245.171 197.736 244.706 197.59C244.246 197.439 243.89 197.228 243.64 196.954C243.389 196.676 243.264 196.35 243.264 195.977ZM244.18 201.514H252.561V204.152H245.506V205.096H252.93V206.039H244.234V203.291H251.275V202.416H244.18V201.514ZM244.48 195.977C244.48 196.168 244.556 196.337 244.706 196.482C244.856 196.624 245.071 196.735 245.349 196.817C245.627 196.895 245.952 196.934 246.326 196.934C246.695 196.934 247.017 196.895 247.29 196.817C247.568 196.735 247.782 196.624 247.933 196.482C248.083 196.337 248.158 196.168 248.158 195.977C248.158 195.781 248.083 195.61 247.933 195.464C247.782 195.318 247.568 195.206 247.29 195.129C247.017 195.047 246.695 195.006 246.326 195.006C245.952 195.006 245.627 195.047 245.349 195.129C245.071 195.206 244.856 195.318 244.706 195.464C244.556 195.61 244.48 195.781 244.48 195.977ZM261.926 205.137C261.256 205.137 260.638 204.989 260.073 204.692C259.508 204.392 259.046 203.888 258.686 203.182C258.33 202.471 258.152 201.536 258.152 200.379C258.152 199.244 258.31 198.271 258.624 197.46C258.938 196.644 259.385 196.024 259.964 195.601C260.547 195.177 261.233 194.965 262.021 194.965C262.618 194.965 263.154 195.081 263.628 195.313C264.102 195.541 264.487 195.86 264.783 196.271C265.079 196.681 265.266 197.148 265.344 197.672H263.854C263.749 197.253 263.537 196.918 263.218 196.667C262.903 196.412 262.505 196.282 262.021 196.277C261.516 196.277 261.08 196.421 260.716 196.708C260.356 196.991 260.08 197.398 259.889 197.932C259.697 198.465 259.602 199.103 259.602 199.846H259.711C259.98 199.426 260.335 199.101 260.777 198.868C261.224 198.631 261.716 198.51 262.254 198.506C262.837 198.506 263.373 198.647 263.86 198.93C264.348 199.208 264.733 199.595 265.016 200.092C265.298 200.584 265.439 201.14 265.439 201.76C265.439 202.393 265.291 202.967 264.995 203.482C264.703 203.997 264.291 204.403 263.758 204.699C263.225 204.991 262.614 205.137 261.926 205.137ZM259.779 201.801C259.779 202.165 259.87 202.507 260.053 202.826C260.24 203.145 260.493 203.4 260.812 203.592C261.131 203.783 261.488 203.879 261.885 203.879C262.277 203.879 262.632 203.785 262.951 203.599C263.27 203.407 263.521 203.154 263.703 202.84C263.885 202.521 263.977 202.17 263.977 201.787C263.977 201.413 263.888 201.069 263.71 200.755C263.532 200.44 263.286 200.192 262.972 200.01C262.662 199.827 262.313 199.736 261.926 199.736C261.534 199.736 261.174 199.832 260.846 200.023C260.518 200.21 260.258 200.463 260.066 200.782C259.88 201.097 259.784 201.436 259.779 201.801ZM270.088 194.322C270.699 194.327 271.248 194.448 271.735 194.685C272.223 194.917 272.606 195.241 272.884 195.655C273.162 196.07 273.301 196.542 273.301 197.07C273.301 197.599 273.162 198.071 272.884 198.485C272.606 198.9 272.223 199.224 271.735 199.456C271.248 199.688 270.699 199.805 270.088 199.805C269.473 199.805 268.919 199.688 268.427 199.456C267.939 199.224 267.556 198.9 267.278 198.485C267 198.071 266.861 197.599 266.861 197.07C266.861 196.542 267 196.07 267.278 195.655C267.556 195.241 267.939 194.917 268.427 194.685C268.919 194.448 269.473 194.327 270.088 194.322ZM268.133 197.07C268.133 197.403 268.215 197.697 268.379 197.952C268.548 198.203 268.78 198.399 269.076 198.54C269.377 198.681 269.714 198.752 270.088 198.752C270.462 198.752 270.797 198.681 271.093 198.54C271.389 198.399 271.621 198.203 271.79 197.952C271.959 197.697 272.043 197.403 272.043 197.07C272.043 196.742 271.959 196.453 271.79 196.202C271.621 195.947 271.387 195.751 271.086 195.614C270.79 195.478 270.457 195.411 270.088 195.416C269.714 195.411 269.377 195.478 269.076 195.614C268.78 195.751 268.548 195.947 268.379 196.202C268.215 196.453 268.133 196.742 268.133 197.07ZM268.721 200.707H276.773V203.797H270.02V204.973H277.184V206.012H268.762V202.826H275.488V201.746H268.721V200.707ZM275.475 193.912H276.773V200.146H275.475V193.912ZM279.453 201.227C279.458 199.964 279.631 198.793 279.973 197.713C280.319 196.628 280.82 195.617 281.477 194.678H282.816C282.497 195.138 282.197 195.73 281.914 196.455C281.632 197.175 281.404 197.954 281.23 198.793C281.057 199.632 280.971 200.443 280.971 201.227C280.971 202.01 281.057 202.824 281.23 203.667C281.404 204.506 281.632 205.287 281.914 206.012C282.197 206.736 282.497 207.329 282.816 207.789H281.477C280.82 206.846 280.319 205.832 279.973 204.747C279.631 203.662 279.458 202.489 279.453 201.227ZM293.904 201.104H292.605V200.516H290.213V199.695H292.605V193.926H293.904V201.104ZM284.272 198.438C285.658 198.438 286.966 198.417 288.196 198.376C289.431 198.335 290.6 198.255 291.703 198.137L291.771 198.971C290.76 199.117 289.584 199.224 288.244 199.292V201.131H286.959V199.34C286.116 199.363 285.382 199.374 284.758 199.374L283.842 199.367L283.691 198.438H284.272ZM284.607 195.977C284.607 195.607 284.733 195.284 284.983 195.006C285.234 194.728 285.59 194.514 286.05 194.363C286.515 194.208 287.055 194.131 287.67 194.131C288.271 194.131 288.802 194.208 289.263 194.363C289.728 194.514 290.088 194.728 290.343 195.006C290.598 195.284 290.728 195.607 290.732 195.977C290.728 196.35 290.598 196.676 290.343 196.954C290.088 197.228 289.73 197.439 289.27 197.59C288.809 197.736 288.276 197.809 287.67 197.809C287.055 197.809 286.515 197.736 286.05 197.59C285.59 197.439 285.234 197.228 284.983 196.954C284.733 196.676 284.607 196.35 284.607 195.977ZM285.523 201.514H293.904V204.152H286.85V205.096H294.273V206.039H285.578V203.291H292.619V202.416H285.523V201.514ZM285.824 195.977C285.824 196.168 285.899 196.337 286.05 196.482C286.2 196.624 286.414 196.735 286.692 196.817C286.97 196.895 287.296 196.934 287.67 196.934C288.039 196.934 288.36 196.895 288.634 196.817C288.912 196.735 289.126 196.624 289.276 196.482C289.427 196.337 289.502 196.168 289.502 195.977C289.502 195.781 289.427 195.61 289.276 195.464C289.126 195.318 288.912 195.206 288.634 195.129C288.36 195.047 288.039 195.006 287.67 195.006C287.296 195.006 286.97 195.047 286.692 195.129C286.414 195.206 286.2 195.318 286.05 195.464C285.899 195.61 285.824 195.781 285.824 195.977ZM299.182 201.227C299.177 202.489 299.002 203.662 298.655 204.747C298.313 205.832 297.814 206.846 297.158 207.789H295.818C296.137 207.329 296.438 206.736 296.721 206.012C297.003 205.287 297.231 204.506 297.404 203.667C297.577 202.824 297.664 202.01 297.664 201.227C297.664 200.443 297.577 199.632 297.404 198.793C297.231 197.954 297.003 197.175 296.721 196.455C296.438 195.73 296.137 195.138 295.818 194.678H297.158C297.814 195.617 298.313 196.628 298.655 197.713C299.002 198.793 299.177 199.964 299.182 201.227Z" fill="white"/>
<path d="M31.3008 344.906L34.7324 341.447C35.1471 341.019 35.4639 340.673 35.6826 340.408C35.9014 340.139 36.0677 339.88 36.1816 339.629C36.3001 339.374 36.3594 339.105 36.3594 338.822C36.3594 338.503 36.2796 338.223 36.1201 337.981C35.9606 337.74 35.7419 337.553 35.4639 337.421C35.1859 337.289 34.8737 337.223 34.5273 337.223C34.1628 337.223 33.8438 337.296 33.5703 337.441C33.3014 337.587 33.0918 337.792 32.9414 338.057C32.7956 338.316 32.7227 338.622 32.7227 338.973H31.3008C31.2962 338.38 31.4329 337.856 31.7109 337.4C31.9889 336.945 32.3763 336.591 32.873 336.341C33.3698 336.09 33.9303 335.965 34.5547 335.965C35.179 335.965 35.735 336.088 36.2227 336.334C36.7148 336.576 37.0977 336.91 37.3711 337.339C37.6491 337.767 37.7904 338.248 37.7949 338.781C37.7904 339.16 37.7174 339.524 37.5762 339.875C37.4349 340.221 37.1934 340.609 36.8516 341.037C36.5098 341.461 36.0267 341.98 35.4023 342.596L33.3926 344.633V344.715H37.959V346H31.3008V344.906ZM43.0723 346.137C42.3112 346.137 41.6572 345.938 41.1104 345.542C40.568 345.141 40.1533 344.56 39.8662 343.799C39.5791 343.038 39.4355 342.122 39.4355 341.051C39.4355 339.984 39.5791 339.071 39.8662 338.31C40.1579 337.549 40.5749 336.967 41.1172 336.566C41.6641 336.165 42.3158 335.965 43.0723 335.965C43.8242 335.965 44.4714 336.165 45.0137 336.566C45.5605 336.967 45.9798 337.549 46.2715 338.31C46.5632 339.071 46.709 339.984 46.709 341.051C46.709 342.122 46.5632 343.04 46.2715 343.806C45.9844 344.567 45.5697 345.146 45.0273 345.542C44.485 345.938 43.8333 346.137 43.0723 346.137ZM40.9395 341.085C40.9395 341.892 41.0238 342.575 41.1924 343.136C41.361 343.696 41.6048 344.12 41.9238 344.407C42.2428 344.694 42.6257 344.838 43.0723 344.838C43.5189 344.838 43.9017 344.694 44.2207 344.407C44.5397 344.116 44.7835 343.687 44.9521 343.122C45.1208 342.557 45.2051 341.867 45.2051 341.051C45.2051 340.24 45.1185 339.549 44.9453 338.979C44.7767 338.41 44.5329 337.979 44.2139 337.688C43.8949 337.391 43.5143 337.241 43.0723 337.236C42.6257 337.236 42.2428 337.387 41.9238 337.688C41.6048 337.984 41.361 338.421 41.1924 339C41.0238 339.574 40.9395 340.269 40.9395 341.085ZM48.2676 344.906L51.6992 341.447C52.1139 341.019 52.4307 340.673 52.6494 340.408C52.8682 340.139 53.0345 339.88 53.1484 339.629C53.2669 339.374 53.3262 339.105 53.3262 338.822C53.3262 338.503 53.2464 338.223 53.0869 337.981C52.9274 337.74 52.7087 337.553 52.4307 337.421C52.1527 337.289 51.8405 337.223 51.4941 337.223C51.1296 337.223 50.8105 337.296 50.5371 337.441C50.2682 337.587 50.0586 337.792 49.9082 338.057C49.7624 338.316 49.6895 338.622 49.6895 338.973H48.2676C48.263 338.38 48.3997 337.856 48.6777 337.4C48.9557 336.945 49.3431 336.591 49.8398 336.341C50.3366 336.09 50.8971 335.965 51.5215 335.965C52.1458 335.965 52.7018 336.088 53.1895 336.334C53.6816 336.576 54.0645 336.91 54.3379 337.339C54.6159 337.767 54.7572 338.248 54.7617 338.781C54.7572 339.16 54.6842 339.524 54.543 339.875C54.4017 340.221 54.1602 340.609 53.8184 341.037C53.4766 341.461 52.9935 341.98 52.3691 342.596L50.3594 344.633V344.715H54.9258V346H48.2676V344.906ZM60.1074 346.137C59.4329 346.137 58.8268 346.023 58.2891 345.795C57.7559 345.567 57.3343 345.248 57.0244 344.838C56.7191 344.423 56.5573 343.949 56.5391 343.416H58.0703C58.0885 343.699 58.1865 343.949 58.3643 344.168C58.5465 344.382 58.7881 344.549 59.0889 344.667C59.3896 344.781 59.7246 344.838 60.0938 344.838C60.4902 344.838 60.8434 344.772 61.1533 344.64C61.4678 344.503 61.7139 344.312 61.8916 344.065C62.0693 343.819 62.1582 343.539 62.1582 343.225C62.1582 342.896 62.0693 342.607 61.8916 342.356C61.7184 342.101 61.4632 341.903 61.126 341.762C60.7887 341.616 60.39 341.543 59.9297 341.543H59.082V340.312H59.9297C60.3034 340.312 60.6338 340.249 60.9209 340.121C61.2126 339.989 61.4382 339.804 61.5977 339.567C61.7617 339.33 61.8438 339.055 61.8438 338.74C61.8438 338.439 61.7731 338.175 61.6318 337.947C61.4906 337.719 61.29 337.542 61.0303 337.414C60.7705 337.286 60.4674 337.223 60.1211 337.223C59.7884 337.223 59.4762 337.282 59.1846 337.4C58.8975 337.519 58.665 337.69 58.4873 337.913C58.3096 338.132 58.2161 338.385 58.207 338.672H56.7578C56.7715 338.148 56.9287 337.681 57.2295 337.271C57.5348 336.856 57.9427 336.535 58.4531 336.307C58.9635 336.079 59.5241 335.965 60.1348 335.965C60.7682 335.965 61.3242 336.086 61.8027 336.327C62.2812 336.569 62.6504 336.897 62.9102 337.312C63.1699 337.722 63.2975 338.171 63.293 338.658C63.2975 339.214 63.1426 339.686 62.8281 340.073C62.5137 340.461 62.0853 340.723 61.543 340.859V340.928C61.9896 340.992 62.3724 341.131 62.6914 341.345C63.015 341.554 63.2588 341.826 63.4229 342.158C63.5915 342.491 63.6758 342.865 63.6758 343.279C63.6758 343.822 63.5208 344.312 63.2109 344.749C62.9056 345.182 62.4795 345.521 61.9326 345.768C61.3903 346.014 60.7819 346.137 60.1074 346.137ZM75.1191 343.977H73.8203V339.807H70.457V338.768H73.8203V337.482H70.457V336.443H73.8203V334.926H75.1191V343.977ZM65.6309 335.773H66.916V341.133C67.8047 341.128 68.641 341.096 69.4248 341.037C70.2087 340.973 71.013 340.864 71.8379 340.709L71.9746 341.775C71.0768 341.944 70.2064 342.06 69.3633 342.124C68.5247 342.183 67.5951 342.217 66.5742 342.227H65.6309V335.773ZM67.1348 343.184H68.4473V345.85H75.4336V346.902H67.1348V343.184ZM84.3613 346.137C83.6868 346.137 83.0807 346.023 82.543 345.795C82.0098 345.567 81.5882 345.248 81.2783 344.838C80.973 344.423 80.8112 343.949 80.793 343.416H82.3242C82.3424 343.699 82.4404 343.949 82.6182 344.168C82.8005 344.382 83.042 344.549 83.3428 344.667C83.6436 344.781 83.9785 344.838 84.3477 344.838C84.7441 344.838 85.0973 344.772 85.4072 344.64C85.7217 344.503 85.9678 344.312 86.1455 344.065C86.3232 343.819 86.4121 343.539 86.4121 343.225C86.4121 342.896 86.3232 342.607 86.1455 342.356C85.9723 342.101 85.7171 341.903 85.3799 341.762C85.0426 341.616 84.6439 341.543 84.1836 341.543H83.3359V340.312H84.1836C84.5573 340.312 84.8877 340.249 85.1748 340.121C85.4665 339.989 85.6921 339.804 85.8516 339.567C86.0156 339.33 86.0977 339.055 86.0977 338.74C86.0977 338.439 86.027 338.175 85.8857 337.947C85.7445 337.719 85.5439 337.542 85.2842 337.414C85.0244 337.286 84.7214 337.223 84.375 337.223C84.0423 337.223 83.7301 337.282 83.4385 337.4C83.1514 337.519 82.9189 337.69 82.7412 337.913C82.5635 338.132 82.4701 338.385 82.4609 338.672H81.0117C81.0254 338.148 81.1826 337.681 81.4834 337.271C81.7887 336.856 82.1966 336.535 82.707 336.307C83.2174 336.079 83.778 335.965 84.3887 335.965C85.0221 335.965 85.5781 336.086 86.0566 336.327C86.5352 336.569 86.9043 336.897 87.1641 337.312C87.4238 337.722 87.5514 338.171 87.5469 338.658C87.5514 339.214 87.3965 339.686 87.082 340.073C86.7676 340.461 86.3392 340.723 85.7969 340.859V340.928C86.2435 340.992 86.6263 341.131 86.9453 341.345C87.2689 341.554 87.5127 341.826 87.6768 342.158C87.8454 342.491 87.9297 342.865 87.9297 343.279C87.9297 343.822 87.7747 344.312 87.4648 344.749C87.1595 345.182 86.7334 345.521 86.1865 345.768C85.6442 346.014 85.0358 346.137 84.3613 346.137ZM99.3457 342.104H98.0469V341.516H95.6543V340.695H98.0469V334.926H99.3457V342.104ZM89.7139 339.438C91.0993 339.438 92.4072 339.417 93.6377 339.376C94.8727 339.335 96.0417 339.255 97.1445 339.137L97.2129 339.971C96.2012 340.117 95.0254 340.224 93.6855 340.292V342.131H92.4004V340.34C91.5573 340.363 90.8236 340.374 90.1992 340.374L89.2832 340.367L89.1328 339.438H89.7139ZM90.0488 336.977C90.0488 336.607 90.1742 336.284 90.4248 336.006C90.6755 335.728 91.0309 335.514 91.4912 335.363C91.9561 335.208 92.4961 335.131 93.1113 335.131C93.7129 335.131 94.2438 335.208 94.7041 335.363C95.1689 335.514 95.529 335.728 95.7842 336.006C96.0394 336.284 96.1693 336.607 96.1738 336.977C96.1693 337.35 96.0394 337.676 95.7842 337.954C95.529 338.228 95.1712 338.439 94.7109 338.59C94.2507 338.736 93.7174 338.809 93.1113 338.809C92.4961 338.809 91.9561 338.736 91.4912 338.59C91.0309 338.439 90.6755 338.228 90.4248 337.954C90.1742 337.676 90.0488 337.35 90.0488 336.977ZM90.9648 342.514H99.3457V345.152H92.291V346.096H99.7148V347.039H91.0195V344.291H98.0605V343.416H90.9648V342.514ZM91.2656 336.977C91.2656 337.168 91.3408 337.337 91.4912 337.482C91.6416 337.624 91.8558 337.735 92.1338 337.817C92.4118 337.895 92.7376 337.934 93.1113 337.934C93.4805 337.934 93.8018 337.895 94.0752 337.817C94.3532 337.735 94.5674 337.624 94.7178 337.482C94.8682 337.337 94.9434 337.168 94.9434 336.977C94.9434 336.781 94.8682 336.61 94.7178 336.464C94.5674 336.318 94.3532 336.206 94.0752 336.129C93.8018 336.047 93.4805 336.006 93.1113 336.006C92.7376 336.006 92.4118 336.047 92.1338 336.129C91.8558 336.206 91.6416 336.318 91.4912 336.464C91.3408 336.61 91.2656 336.781 91.2656 336.977ZM108.711 346.137C108.041 346.137 107.424 345.989 106.858 345.692C106.293 345.392 105.831 344.888 105.471 344.182C105.115 343.471 104.938 342.536 104.938 341.379C104.938 340.244 105.095 339.271 105.409 338.46C105.724 337.644 106.17 337.024 106.749 336.601C107.332 336.177 108.018 335.965 108.807 335.965C109.404 335.965 109.939 336.081 110.413 336.313C110.887 336.541 111.272 336.86 111.568 337.271C111.865 337.681 112.051 338.148 112.129 338.672H110.639C110.534 338.253 110.322 337.918 110.003 337.667C109.688 337.412 109.29 337.282 108.807 337.277C108.301 337.277 107.866 337.421 107.501 337.708C107.141 337.991 106.865 338.398 106.674 338.932C106.482 339.465 106.387 340.103 106.387 340.846H106.496C106.765 340.426 107.12 340.101 107.562 339.868C108.009 339.631 108.501 339.51 109.039 339.506C109.622 339.506 110.158 339.647 110.646 339.93C111.133 340.208 111.518 340.595 111.801 341.092C112.083 341.584 112.225 342.14 112.225 342.76C112.225 343.393 112.076 343.967 111.78 344.482C111.489 344.997 111.076 345.403 110.543 345.699C110.01 345.991 109.399 346.137 108.711 346.137ZM106.564 342.801C106.564 343.165 106.656 343.507 106.838 343.826C107.025 344.145 107.278 344.4 107.597 344.592C107.916 344.783 108.273 344.879 108.67 344.879C109.062 344.879 109.417 344.785 109.736 344.599C110.055 344.407 110.306 344.154 110.488 343.84C110.671 343.521 110.762 343.17 110.762 342.787C110.762 342.413 110.673 342.069 110.495 341.755C110.317 341.44 110.071 341.192 109.757 341.01C109.447 340.827 109.098 340.736 108.711 340.736C108.319 340.736 107.959 340.832 107.631 341.023C107.303 341.21 107.043 341.463 106.852 341.782C106.665 342.097 106.569 342.436 106.564 342.801ZM116.873 335.322C117.484 335.327 118.033 335.448 118.521 335.685C119.008 335.917 119.391 336.241 119.669 336.655C119.947 337.07 120.086 337.542 120.086 338.07C120.086 338.599 119.947 339.071 119.669 339.485C119.391 339.9 119.008 340.224 118.521 340.456C118.033 340.688 117.484 340.805 116.873 340.805C116.258 340.805 115.704 340.688 115.212 340.456C114.724 340.224 114.341 339.9 114.063 339.485C113.785 339.071 113.646 338.599 113.646 338.07C113.646 337.542 113.785 337.07 114.063 336.655C114.341 336.241 114.724 335.917 115.212 335.685C115.704 335.448 116.258 335.327 116.873 335.322ZM114.918 338.07C114.918 338.403 115 338.697 115.164 338.952C115.333 339.203 115.565 339.399 115.861 339.54C116.162 339.681 116.499 339.752 116.873 339.752C117.247 339.752 117.582 339.681 117.878 339.54C118.174 339.399 118.407 339.203 118.575 338.952C118.744 338.697 118.828 338.403 118.828 338.07C118.828 337.742 118.744 337.453 118.575 337.202C118.407 336.947 118.172 336.751 117.871 336.614C117.575 336.478 117.242 336.411 116.873 336.416C116.499 336.411 116.162 336.478 115.861 336.614C115.565 336.751 115.333 336.947 115.164 337.202C115 337.453 114.918 337.742 114.918 338.07ZM115.506 341.707H123.559V344.797H116.805V345.973H123.969V347.012H115.547V343.826H122.273V342.746H115.506V341.707ZM122.26 334.912H123.559V341.146H122.26V334.912ZM129.656 342.227C129.661 340.964 129.834 339.793 130.176 338.713C130.522 337.628 131.023 336.617 131.68 335.678H133.02C132.701 336.138 132.4 336.73 132.117 337.455C131.835 338.175 131.607 338.954 131.434 339.793C131.26 340.632 131.174 341.443 131.174 342.227C131.174 343.01 131.26 343.824 131.434 344.667C131.607 345.506 131.835 346.287 132.117 347.012C132.4 347.736 132.701 348.329 133.02 348.789H131.68C131.023 347.846 130.522 346.832 130.176 345.747C129.834 344.662 129.661 343.489 129.656 342.227ZM144.107 342.104H142.809V341.516H140.416V340.695H142.809V334.926H144.107V342.104ZM134.476 339.438C135.861 339.438 137.169 339.417 138.399 339.376C139.634 339.335 140.803 339.255 141.906 339.137L141.975 339.971C140.963 340.117 139.787 340.224 138.447 340.292V342.131H137.162V340.34C136.319 340.363 135.585 340.374 134.961 340.374L134.045 340.367L133.895 339.438H134.476ZM134.811 336.977C134.811 336.607 134.936 336.284 135.187 336.006C135.437 335.728 135.793 335.514 136.253 335.363C136.718 335.208 137.258 335.131 137.873 335.131C138.475 335.131 139.006 335.208 139.466 335.363C139.931 335.514 140.291 335.728 140.546 336.006C140.801 336.284 140.931 336.607 140.936 336.977C140.931 337.35 140.801 337.676 140.546 337.954C140.291 338.228 139.933 338.439 139.473 338.59C139.012 338.736 138.479 338.809 137.873 338.809C137.258 338.809 136.718 338.736 136.253 338.59C135.793 338.439 135.437 338.228 135.187 337.954C134.936 337.676 134.811 337.35 134.811 336.977ZM135.727 342.514H144.107V345.152H137.053V346.096H144.477V347.039H135.781V344.291H142.822V343.416H135.727V342.514ZM136.027 336.977C136.027 337.168 136.103 337.337 136.253 337.482C136.403 337.624 136.618 337.735 136.896 337.817C137.174 337.895 137.499 337.934 137.873 337.934C138.242 337.934 138.563 337.895 138.837 337.817C139.115 337.735 139.329 337.624 139.479 337.482C139.63 337.337 139.705 337.168 139.705 336.977C139.705 336.781 139.63 336.61 139.479 336.464C139.329 336.318 139.115 336.206 138.837 336.129C138.563 336.047 138.242 336.006 137.873 336.006C137.499 336.006 137.174 336.047 136.896 336.129C136.618 336.206 136.403 336.318 136.253 336.464C136.103 336.61 136.027 336.781 136.027 336.977ZM149.385 342.227C149.38 343.489 149.205 344.662 148.858 345.747C148.517 346.832 148.018 347.846 147.361 348.789H146.021C146.34 348.329 146.641 347.736 146.924 347.012C147.206 346.287 147.434 345.506 147.607 344.667C147.781 343.824 147.867 343.01 147.867 342.227C147.867 341.443 147.781 340.632 147.607 339.793C147.434 338.954 147.206 338.175 146.924 337.455C146.641 336.73 146.34 336.138 146.021 335.678H147.361C148.018 336.617 148.517 337.628 148.858 338.713C149.205 339.793 149.38 340.964 149.385 342.227ZM22.4824 358.83C22.9427 358.32 23.485 358.064 24.1094 358.064C24.3509 358.064 24.5833 358.099 24.8066 358.167C25.0299 358.231 25.3125 358.329 25.6543 358.461C25.9824 358.589 26.2559 358.684 26.4746 358.748C26.6979 358.812 26.9258 358.844 27.1582 358.844C27.4681 358.844 27.7575 358.775 28.0264 358.639C28.2998 358.497 28.5436 358.292 28.7578 358.023V359.336C28.2975 359.846 27.7552 360.102 27.1309 360.102C26.8939 360.102 26.6637 360.07 26.4404 360.006C26.2217 359.942 25.9368 359.844 25.5859 359.712C25.2624 359.584 24.9867 359.489 24.7588 359.425C24.5309 359.356 24.3008 359.322 24.0684 359.322C23.763 359.322 23.4759 359.393 23.207 359.534C22.9382 359.671 22.6966 359.874 22.4824 360.143V358.83ZM34.3633 361.906L37.7949 358.447C38.2096 358.019 38.5264 357.673 38.7451 357.408C38.9639 357.139 39.1302 356.88 39.2441 356.629C39.3626 356.374 39.4219 356.105 39.4219 355.822C39.4219 355.503 39.3421 355.223 39.1826 354.981C39.0231 354.74 38.8044 354.553 38.5264 354.421C38.2484 354.289 37.9362 354.223 37.5898 354.223C37.2253 354.223 36.9062 354.296 36.6328 354.441C36.3639 354.587 36.1543 354.792 36.0039 355.057C35.8581 355.316 35.7852 355.622 35.7852 355.973H34.3633C34.3587 355.38 34.4954 354.856 34.7734 354.4C35.0514 353.945 35.4388 353.591 35.9355 353.341C36.4323 353.09 36.9928 352.965 37.6172 352.965C38.2415 352.965 38.7975 353.088 39.2852 353.334C39.7773 353.576 40.1602 353.91 40.4336 354.339C40.7116 354.767 40.8529 355.248 40.8574 355.781C40.8529 356.16 40.7799 356.524 40.6387 356.875C40.4974 357.221 40.2559 357.609 39.9141 358.037C39.5723 358.461 39.0892 358.98 38.4648 359.596L36.4551 361.633V361.715H41.0215V363H34.3633V361.906ZM46.1348 363.137C45.3737 363.137 44.7197 362.938 44.1729 362.542C43.6305 362.141 43.2158 361.56 42.9287 360.799C42.6416 360.038 42.498 359.122 42.498 358.051C42.498 356.984 42.6416 356.071 42.9287 355.31C43.2204 354.549 43.6374 353.967 44.1797 353.566C44.7266 353.165 45.3783 352.965 46.1348 352.965C46.8867 352.965 47.5339 353.165 48.0762 353.566C48.623 353.967 49.0423 354.549 49.334 355.31C49.6257 356.071 49.7715 356.984 49.7715 358.051C49.7715 359.122 49.6257 360.04 49.334 360.806C49.0469 361.567 48.6322 362.146 48.0898 362.542C47.5475 362.938 46.8958 363.137 46.1348 363.137ZM44.002 358.085C44.002 358.892 44.0863 359.575 44.2549 360.136C44.4235 360.696 44.6673 361.12 44.9863 361.407C45.3053 361.694 45.6882 361.838 46.1348 361.838C46.5814 361.838 46.9642 361.694 47.2832 361.407C47.6022 361.116 47.846 360.687 48.0146 360.122C48.1833 359.557 48.2676 358.867 48.2676 358.051C48.2676 357.24 48.181 356.549 48.0078 355.979C47.8392 355.41 47.5954 354.979 47.2764 354.688C46.9574 354.391 46.5768 354.241 46.1348 354.236C45.6882 354.236 45.3053 354.387 44.9863 354.688C44.6673 354.984 44.4235 355.421 44.2549 356C44.0863 356.574 44.002 357.269 44.002 358.085ZM51.3301 361.906L54.7617 358.447C55.1764 358.019 55.4932 357.673 55.7119 357.408C55.9307 357.139 56.097 356.88 56.2109 356.629C56.3294 356.374 56.3887 356.105 56.3887 355.822C56.3887 355.503 56.3089 355.223 56.1494 354.981C55.9899 354.74 55.7712 354.553 55.4932 354.421C55.2152 354.289 54.903 354.223 54.5566 354.223C54.1921 354.223 53.873 354.296 53.5996 354.441C53.3307 354.587 53.1211 354.792 52.9707 355.057C52.8249 355.316 52.752 355.622 52.752 355.973H51.3301C51.3255 355.38 51.4622 354.856 51.7402 354.4C52.0182 353.945 52.4056 353.591 52.9023 353.341C53.3991 353.09 53.9596 352.965 54.584 352.965C55.2083 352.965 55.7643 353.088 56.252 353.334C56.7441 353.576 57.127 353.91 57.4004 354.339C57.6784 354.767 57.8197 355.248 57.8242 355.781C57.8197 356.16 57.7467 356.524 57.6055 356.875C57.4642 357.221 57.2227 357.609 56.8809 358.037C56.5391 358.461 56.056 358.98 55.4316 359.596L53.4219 361.633V361.715H57.9883V363H51.3301V361.906ZM63.1699 363.137C62.4954 363.137 61.8893 363.023 61.3516 362.795C60.8184 362.567 60.3968 362.248 60.0869 361.838C59.7816 361.423 59.6198 360.949 59.6016 360.416H61.1328C61.151 360.699 61.249 360.949 61.4268 361.168C61.609 361.382 61.8506 361.549 62.1514 361.667C62.4521 361.781 62.7871 361.838 63.1562 361.838C63.5527 361.838 63.9059 361.772 64.2158 361.64C64.5303 361.503 64.7764 361.312 64.9541 361.065C65.1318 360.819 65.2207 360.539 65.2207 360.225C65.2207 359.896 65.1318 359.607 64.9541 359.356C64.7809 359.101 64.5257 358.903 64.1885 358.762C63.8512 358.616 63.4525 358.543 62.9922 358.543H62.1445V357.312H62.9922C63.3659 357.312 63.6963 357.249 63.9834 357.121C64.2751 356.989 64.5007 356.804 64.6602 356.567C64.8242 356.33 64.9062 356.055 64.9062 355.74C64.9062 355.439 64.8356 355.175 64.6943 354.947C64.5531 354.719 64.3525 354.542 64.0928 354.414C63.833 354.286 63.5299 354.223 63.1836 354.223C62.8509 354.223 62.5387 354.282 62.2471 354.4C61.96 354.519 61.7275 354.69 61.5498 354.913C61.3721 355.132 61.2786 355.385 61.2695 355.672H59.8203C59.834 355.148 59.9912 354.681 60.292 354.271C60.5973 353.856 61.0052 353.535 61.5156 353.307C62.026 353.079 62.5866 352.965 63.1973 352.965C63.8307 352.965 64.3867 353.086 64.8652 353.327C65.3438 353.569 65.7129 353.897 65.9727 354.312C66.2324 354.722 66.36 355.171 66.3555 355.658C66.36 356.214 66.2051 356.686 65.8906 357.073C65.5762 357.461 65.1478 357.723 64.6055 357.859V357.928C65.0521 357.992 65.4349 358.131 65.7539 358.345C66.0775 358.554 66.3213 358.826 66.4854 359.158C66.654 359.491 66.7383 359.865 66.7383 360.279C66.7383 360.822 66.5833 361.312 66.2734 361.749C65.9681 362.182 65.542 362.521 64.9951 362.768C64.4528 363.014 63.8444 363.137 63.1699 363.137ZM78.1816 360.977H76.8828V356.807H73.5195V355.768H76.8828V354.482H73.5195V353.443H76.8828V351.926H78.1816V360.977ZM68.6934 352.773H69.9785V358.133C70.8672 358.128 71.7035 358.096 72.4873 358.037C73.2712 357.973 74.0755 357.864 74.9004 357.709L75.0371 358.775C74.1393 358.944 73.2689 359.06 72.4258 359.124C71.5872 359.183 70.6576 359.217 69.6367 359.227H68.6934V352.773ZM70.1973 360.184H71.5098V362.85H78.4961V363.902H70.1973V360.184ZM87.4238 363.137C86.7493 363.137 86.1432 363.023 85.6055 362.795C85.0723 362.567 84.6507 362.248 84.3408 361.838C84.0355 361.423 83.8737 360.949 83.8555 360.416H85.3867C85.4049 360.699 85.5029 360.949 85.6807 361.168C85.863 361.382 86.1045 361.549 86.4053 361.667C86.7061 361.781 87.041 361.838 87.4102 361.838C87.8066 361.838 88.1598 361.772 88.4697 361.64C88.7842 361.503 89.0303 361.312 89.208 361.065C89.3857 360.819 89.4746 360.539 89.4746 360.225C89.4746 359.896 89.3857 359.607 89.208 359.356C89.0348 359.101 88.7796 358.903 88.4424 358.762C88.1051 358.616 87.7064 358.543 87.2461 358.543H86.3984V357.312H87.2461C87.6198 357.312 87.9502 357.249 88.2373 357.121C88.529 356.989 88.7546 356.804 88.9141 356.567C89.0781 356.33 89.1602 356.055 89.1602 355.74C89.1602 355.439 89.0895 355.175 88.9482 354.947C88.807 354.719 88.6064 354.542 88.3467 354.414C88.0869 354.286 87.7839 354.223 87.4375 354.223C87.1048 354.223 86.7926 354.282 86.501 354.4C86.2139 354.519 85.9814 354.69 85.8037 354.913C85.626 355.132 85.5326 355.385 85.5234 355.672H84.0742C84.0879 355.148 84.2451 354.681 84.5459 354.271C84.8512 353.856 85.2591 353.535 85.7695 353.307C86.2799 353.079 86.8405 352.965 87.4512 352.965C88.0846 352.965 88.6406 353.086 89.1191 353.327C89.5977 353.569 89.9668 353.897 90.2266 354.312C90.4863 354.722 90.6139 355.171 90.6094 355.658C90.6139 356.214 90.459 356.686 90.1445 357.073C89.8301 357.461 89.4017 357.723 88.8594 357.859V357.928C89.306 357.992 89.6888 358.131 90.0078 358.345C90.3314 358.554 90.5752 358.826 90.7393 359.158C90.9079 359.491 90.9922 359.865 90.9922 360.279C90.9922 360.822 90.8372 361.312 90.5273 361.749C90.222 362.182 89.7959 362.521 89.249 362.768C88.7067 363.014 88.0983 363.137 87.4238 363.137ZM102.408 359.104H101.109V358.516H98.7168V357.695H101.109V351.926H102.408V359.104ZM92.7764 356.438C94.1618 356.438 95.4697 356.417 96.7002 356.376C97.9352 356.335 99.1042 356.255 100.207 356.137L100.275 356.971C99.2637 357.117 98.0879 357.224 96.748 357.292V359.131H95.4629V357.34C94.6198 357.363 93.8861 357.374 93.2617 357.374L92.3457 357.367L92.1953 356.438H92.7764ZM93.1113 353.977C93.1113 353.607 93.2367 353.284 93.4873 353.006C93.738 352.728 94.0934 352.514 94.5537 352.363C95.0186 352.208 95.5586 352.131 96.1738 352.131C96.7754 352.131 97.3063 352.208 97.7666 352.363C98.2314 352.514 98.5915 352.728 98.8467 353.006C99.1019 353.284 99.2318 353.607 99.2363 353.977C99.2318 354.35 99.1019 354.676 98.8467 354.954C98.5915 355.228 98.2337 355.439 97.7734 355.59C97.3132 355.736 96.7799 355.809 96.1738 355.809C95.5586 355.809 95.0186 355.736 94.5537 355.59C94.0934 355.439 93.738 355.228 93.4873 354.954C93.2367 354.676 93.1113 354.35 93.1113 353.977ZM94.0273 359.514H102.408V362.152H95.3535V363.096H102.777V364.039H94.082V361.291H101.123V360.416H94.0273V359.514ZM94.3281 353.977C94.3281 354.168 94.4033 354.337 94.5537 354.482C94.7041 354.624 94.9183 354.735 95.1963 354.817C95.4743 354.895 95.8001 354.934 96.1738 354.934C96.543 354.934 96.8643 354.895 97.1377 354.817C97.4157 354.735 97.6299 354.624 97.7803 354.482C97.9307 354.337 98.0059 354.168 98.0059 353.977C98.0059 353.781 97.9307 353.61 97.7803 353.464C97.6299 353.318 97.4157 353.206 97.1377 353.129C96.8643 353.047 96.543 353.006 96.1738 353.006C95.8001 353.006 95.4743 353.047 95.1963 353.129C94.9183 353.206 94.7041 353.318 94.5537 353.464C94.4033 353.61 94.3281 353.781 94.3281 353.977ZM111.924 363H110.406V354.605H110.352L107.986 356.15V354.715L110.447 353.102H111.924V363ZM117.885 363.137C117.124 363.137 116.47 362.938 115.923 362.542C115.381 362.141 114.966 361.56 114.679 360.799C114.392 360.038 114.248 359.122 114.248 358.051C114.248 356.984 114.392 356.071 114.679 355.31C114.97 354.549 115.387 353.967 115.93 353.566C116.477 353.165 117.128 352.965 117.885 352.965C118.637 352.965 119.284 353.165 119.826 353.566C120.373 353.967 120.792 354.549 121.084 355.31C121.376 356.071 121.521 356.984 121.521 358.051C121.521 359.122 121.376 360.04 121.084 360.806C120.797 361.567 120.382 362.146 119.84 362.542C119.298 362.938 118.646 363.137 117.885 363.137ZM115.752 358.085C115.752 358.892 115.836 359.575 116.005 360.136C116.174 360.696 116.417 361.12 116.736 361.407C117.055 361.694 117.438 361.838 117.885 361.838C118.331 361.838 118.714 361.694 119.033 361.407C119.352 361.116 119.596 360.687 119.765 360.122C119.933 359.557 120.018 358.867 120.018 358.051C120.018 357.24 119.931 356.549 119.758 355.979C119.589 355.41 119.345 354.979 119.026 354.688C118.707 354.391 118.327 354.241 117.885 354.236C117.438 354.236 117.055 354.387 116.736 354.688C116.417 354.984 116.174 355.421 116.005 356C115.836 356.574 115.752 357.269 115.752 358.085ZM126.129 352.322C126.74 352.327 127.289 352.448 127.776 352.685C128.264 352.917 128.647 353.241 128.925 353.655C129.203 354.07 129.342 354.542 129.342 355.07C129.342 355.599 129.203 356.071 128.925 356.485C128.647 356.9 128.264 357.224 127.776 357.456C127.289 357.688 126.74 357.805 126.129 357.805C125.514 357.805 124.96 357.688 124.468 357.456C123.98 357.224 123.597 356.9 123.319 356.485C123.041 356.071 122.902 355.599 122.902 355.07C122.902 354.542 123.041 354.07 123.319 353.655C123.597 353.241 123.98 352.917 124.468 352.685C124.96 352.448 125.514 352.327 126.129 352.322ZM124.174 355.07C124.174 355.403 124.256 355.697 124.42 355.952C124.589 356.203 124.821 356.399 125.117 356.54C125.418 356.681 125.755 356.752 126.129 356.752C126.503 356.752 126.838 356.681 127.134 356.54C127.43 356.399 127.662 356.203 127.831 355.952C128 355.697 128.084 355.403 128.084 355.07C128.084 354.742 128 354.453 127.831 354.202C127.662 353.947 127.428 353.751 127.127 353.614C126.831 353.478 126.498 353.411 126.129 353.416C125.755 353.411 125.418 353.478 125.117 353.614C124.821 353.751 124.589 353.947 124.42 354.202C124.256 354.453 124.174 354.742 124.174 355.07ZM124.762 358.707H132.814V361.797H126.061V362.973H133.225V364.012H124.803V360.826H131.529V359.746H124.762V358.707ZM131.516 351.912H132.814V358.146H131.516V351.912ZM138.912 359.227C138.917 357.964 139.09 356.793 139.432 355.713C139.778 354.628 140.279 353.617 140.936 352.678H142.275C141.956 353.138 141.656 353.73 141.373 354.455C141.09 355.175 140.863 355.954 140.689 356.793C140.516 357.632 140.43 358.443 140.43 359.227C140.43 360.01 140.516 360.824 140.689 361.667C140.863 362.506 141.09 363.287 141.373 364.012C141.656 364.736 141.956 365.329 142.275 365.789H140.936C140.279 364.846 139.778 363.832 139.432 362.747C139.09 361.662 138.917 360.489 138.912 359.227ZM152.967 353.457V353.833C152.967 354.366 152.946 354.881 152.905 355.378C152.864 355.875 152.78 356.415 152.652 356.998H154.389V358.064H143.178V356.998H151.34C151.486 356.36 151.579 355.786 151.62 355.275C151.661 354.765 151.682 354.204 151.682 353.594H144.586V352.527H152.967V353.457ZM144.545 359.623H152.98V364.012H144.545V359.623ZM151.695 362.959V360.648H145.816V362.959H151.695ZM158.641 359.227C158.636 360.489 158.461 361.662 158.114 362.747C157.772 363.832 157.273 364.846 156.617 365.789H155.277C155.596 365.329 155.897 364.736 156.18 364.012C156.462 363.287 156.69 362.506 156.863 361.667C157.036 360.824 157.123 360.01 157.123 359.227C157.123 358.443 157.036 357.632 156.863 356.793C156.69 355.954 156.462 355.175 156.18 354.455C155.897 353.73 155.596 353.138 155.277 352.678H156.617C157.273 353.617 157.772 354.628 158.114 355.713C158.461 356.793 158.636 357.964 158.641 359.227Z" fill="white"/>
<path d="M184.875 344.906L188.307 341.447C188.721 341.019 189.038 340.673 189.257 340.408C189.476 340.139 189.642 339.88 189.756 339.629C189.874 339.374 189.934 339.105 189.934 338.822C189.934 338.503 189.854 338.223 189.694 337.981C189.535 337.74 189.316 337.553 189.038 337.421C188.76 337.289 188.448 337.223 188.102 337.223C187.737 337.223 187.418 337.296 187.145 337.441C186.876 337.587 186.666 337.792 186.516 338.057C186.37 338.316 186.297 338.622 186.297 338.973H184.875C184.87 338.38 185.007 337.856 185.285 337.4C185.563 336.945 185.951 336.591 186.447 336.341C186.944 336.09 187.505 335.965 188.129 335.965C188.753 335.965 189.309 336.088 189.797 336.334C190.289 336.576 190.672 336.91 190.945 337.339C191.223 337.767 191.365 338.248 191.369 338.781C191.365 339.16 191.292 339.524 191.15 339.875C191.009 340.221 190.768 340.609 190.426 341.037C190.084 341.461 189.601 341.98 188.977 342.596L186.967 344.633V344.715H191.533V346H184.875V344.906ZM196.646 346.137C195.885 346.137 195.231 345.938 194.685 345.542C194.142 345.141 193.728 344.56 193.44 343.799C193.153 343.038 193.01 342.122 193.01 341.051C193.01 339.984 193.153 339.071 193.44 338.31C193.732 337.549 194.149 336.967 194.691 336.566C195.238 336.165 195.89 335.965 196.646 335.965C197.398 335.965 198.046 336.165 198.588 336.566C199.135 336.967 199.554 337.549 199.846 338.31C200.137 339.071 200.283 339.984 200.283 341.051C200.283 342.122 200.137 343.04 199.846 343.806C199.559 344.567 199.144 345.146 198.602 345.542C198.059 345.938 197.408 346.137 196.646 346.137ZM194.514 341.085C194.514 341.892 194.598 342.575 194.767 343.136C194.935 343.696 195.179 344.12 195.498 344.407C195.817 344.694 196.2 344.838 196.646 344.838C197.093 344.838 197.476 344.694 197.795 344.407C198.114 344.116 198.358 343.687 198.526 343.122C198.695 342.557 198.779 341.867 198.779 341.051C198.779 340.24 198.693 339.549 198.52 338.979C198.351 338.41 198.107 337.979 197.788 337.688C197.469 337.391 197.089 337.241 196.646 337.236C196.2 337.236 195.817 337.387 195.498 337.688C195.179 337.984 194.935 338.421 194.767 339C194.598 339.574 194.514 340.269 194.514 341.085ZM201.842 344.906L205.273 341.447C205.688 341.019 206.005 340.673 206.224 340.408C206.442 340.139 206.609 339.88 206.723 339.629C206.841 339.374 206.9 339.105 206.9 338.822C206.9 338.503 206.821 338.223 206.661 337.981C206.502 337.74 206.283 337.553 206.005 337.421C205.727 337.289 205.415 337.223 205.068 337.223C204.704 337.223 204.385 337.296 204.111 337.441C203.842 337.587 203.633 337.792 203.482 338.057C203.337 338.316 203.264 338.622 203.264 338.973H201.842C201.837 338.38 201.974 337.856 202.252 337.4C202.53 336.945 202.917 336.591 203.414 336.341C203.911 336.09 204.471 335.965 205.096 335.965C205.72 335.965 206.276 336.088 206.764 336.334C207.256 336.576 207.639 336.91 207.912 337.339C208.19 337.767 208.331 338.248 208.336 338.781C208.331 339.16 208.258 339.524 208.117 339.875C207.976 340.221 207.734 340.609 207.393 341.037C207.051 341.461 206.568 341.98 205.943 342.596L203.934 344.633V344.715H208.5V346H201.842V344.906ZM213.682 346.137C213.007 346.137 212.401 346.023 211.863 345.795C211.33 345.567 210.909 345.248 210.599 344.838C210.293 344.423 210.132 343.949 210.113 343.416H211.645C211.663 343.699 211.761 343.949 211.938 344.168C212.121 344.382 212.362 344.549 212.663 344.667C212.964 344.781 213.299 344.838 213.668 344.838C214.064 344.838 214.418 344.772 214.728 344.64C215.042 344.503 215.288 344.312 215.466 344.065C215.644 343.819 215.732 343.539 215.732 343.225C215.732 342.896 215.644 342.607 215.466 342.356C215.293 342.101 215.037 341.903 214.7 341.762C214.363 341.616 213.964 341.543 213.504 341.543H212.656V340.312H213.504C213.878 340.312 214.208 340.249 214.495 340.121C214.787 339.989 215.012 339.804 215.172 339.567C215.336 339.33 215.418 339.055 215.418 338.74C215.418 338.439 215.347 338.175 215.206 337.947C215.065 337.719 214.864 337.542 214.604 337.414C214.345 337.286 214.042 337.223 213.695 337.223C213.363 337.223 213.05 337.282 212.759 337.4C212.472 337.519 212.239 337.69 212.062 337.913C211.884 338.132 211.79 338.385 211.781 338.672H210.332C210.346 338.148 210.503 337.681 210.804 337.271C211.109 336.856 211.517 336.535 212.027 336.307C212.538 336.079 213.098 335.965 213.709 335.965C214.342 335.965 214.898 336.086 215.377 336.327C215.855 336.569 216.225 336.897 216.484 337.312C216.744 337.722 216.872 338.171 216.867 338.658C216.872 339.214 216.717 339.686 216.402 340.073C216.088 340.461 215.66 340.723 215.117 340.859V340.928C215.564 340.992 215.947 341.131 216.266 341.345C216.589 341.554 216.833 341.826 216.997 342.158C217.166 342.491 217.25 342.865 217.25 343.279C217.25 343.822 217.095 344.312 216.785 344.749C216.48 345.182 216.054 345.521 215.507 345.768C214.965 346.014 214.356 346.137 213.682 346.137ZM219.574 346.096C219.401 346.096 219.239 346.052 219.089 345.966C218.943 345.879 218.825 345.763 218.733 345.617C218.647 345.471 218.604 345.312 218.604 345.139C218.604 344.961 218.647 344.797 218.733 344.646C218.82 344.496 218.936 344.378 219.082 344.291C219.232 344.2 219.396 344.154 219.574 344.154C219.747 344.154 219.907 344.198 220.053 344.284C220.203 344.371 220.322 344.489 220.408 344.64C220.499 344.79 220.545 344.952 220.545 345.125C220.545 345.298 220.499 345.46 220.408 345.61C220.322 345.756 220.203 345.875 220.053 345.966C219.907 346.052 219.747 346.096 219.574 346.096ZM228.994 346.137C228.233 346.137 227.579 345.938 227.032 345.542C226.49 345.141 226.075 344.56 225.788 343.799C225.501 343.038 225.357 342.122 225.357 341.051C225.357 339.984 225.501 339.071 225.788 338.31C226.08 337.549 226.497 336.967 227.039 336.566C227.586 336.165 228.238 335.965 228.994 335.965C229.746 335.965 230.393 336.165 230.936 336.566C231.482 336.967 231.902 337.549 232.193 338.31C232.485 339.071 232.631 339.984 232.631 341.051C232.631 342.122 232.485 343.04 232.193 343.806C231.906 344.567 231.492 345.146 230.949 345.542C230.407 345.938 229.755 346.137 228.994 346.137ZM226.861 341.085C226.861 341.892 226.946 342.575 227.114 343.136C227.283 343.696 227.527 344.12 227.846 344.407C228.165 344.694 228.548 344.838 228.994 344.838C229.441 344.838 229.824 344.694 230.143 344.407C230.462 344.116 230.705 343.687 230.874 343.122C231.043 342.557 231.127 341.867 231.127 341.051C231.127 340.24 231.04 339.549 230.867 338.979C230.699 338.41 230.455 337.979 230.136 337.688C229.817 337.391 229.436 337.241 228.994 337.236C228.548 337.236 228.165 337.387 227.846 337.688C227.527 337.984 227.283 338.421 227.114 339C226.946 339.574 226.861 340.269 226.861 341.085ZM237.703 346.137C237.029 346.137 236.423 346.023 235.885 345.795C235.352 345.567 234.93 345.248 234.62 344.838C234.315 344.423 234.153 343.949 234.135 343.416H235.666C235.684 343.699 235.782 343.949 235.96 344.168C236.142 344.382 236.384 344.549 236.685 344.667C236.985 344.781 237.32 344.838 237.689 344.838C238.086 344.838 238.439 344.772 238.749 344.64C239.063 344.503 239.31 344.312 239.487 344.065C239.665 343.819 239.754 343.539 239.754 343.225C239.754 342.896 239.665 342.607 239.487 342.356C239.314 342.101 239.059 341.903 238.722 341.762C238.384 341.616 237.986 341.543 237.525 341.543H236.678V340.312H237.525C237.899 340.312 238.229 340.249 238.517 340.121C238.808 339.989 239.034 339.804 239.193 339.567C239.357 339.33 239.439 339.055 239.439 338.74C239.439 338.439 239.369 338.175 239.228 337.947C239.086 337.719 238.886 337.542 238.626 337.414C238.366 337.286 238.063 337.223 237.717 337.223C237.384 337.223 237.072 337.282 236.78 337.4C236.493 337.519 236.261 337.69 236.083 337.913C235.905 338.132 235.812 338.385 235.803 338.672H234.354C234.367 338.148 234.524 337.681 234.825 337.271C235.131 336.856 235.538 336.535 236.049 336.307C236.559 336.079 237.12 335.965 237.73 335.965C238.364 335.965 238.92 336.086 239.398 336.327C239.877 336.569 240.246 336.897 240.506 337.312C240.766 337.722 240.893 338.171 240.889 338.658C240.893 339.214 240.738 339.686 240.424 340.073C240.109 340.461 239.681 340.723 239.139 340.859V340.928C239.585 340.992 239.968 341.131 240.287 341.345C240.611 341.554 240.854 341.826 241.019 342.158C241.187 342.491 241.271 342.865 241.271 343.279C241.271 343.822 241.117 344.312 240.807 344.749C240.501 345.182 240.075 345.521 239.528 345.768C238.986 346.014 238.378 346.137 237.703 346.137ZM243.596 346.096C243.423 346.096 243.261 346.052 243.11 345.966C242.965 345.879 242.846 345.763 242.755 345.617C242.668 345.471 242.625 345.312 242.625 345.139C242.625 344.961 242.668 344.797 242.755 344.646C242.841 344.496 242.958 344.378 243.104 344.291C243.254 344.2 243.418 344.154 243.596 344.154C243.769 344.154 243.928 344.198 244.074 344.284C244.225 344.371 244.343 344.489 244.43 344.64C244.521 344.79 244.566 344.952 244.566 345.125C244.566 345.298 244.521 345.46 244.43 345.61C244.343 345.756 244.225 345.875 244.074 345.966C243.928 346.052 243.769 346.096 243.596 346.096ZM253.33 346H251.812V337.605H251.758L249.393 339.15V337.715L251.854 336.102H253.33V346ZM259.359 346.137C258.685 346.137 258.079 346.023 257.541 345.795C257.008 345.567 256.586 345.248 256.276 344.838C255.971 344.423 255.809 343.949 255.791 343.416H257.322C257.34 343.699 257.438 343.949 257.616 344.168C257.799 344.382 258.04 344.549 258.341 344.667C258.642 344.781 258.977 344.838 259.346 344.838C259.742 344.838 260.095 344.772 260.405 344.64C260.72 344.503 260.966 344.312 261.144 344.065C261.321 343.819 261.41 343.539 261.41 343.225C261.41 342.896 261.321 342.607 261.144 342.356C260.97 342.101 260.715 341.903 260.378 341.762C260.041 341.616 259.642 341.543 259.182 341.543H258.334V340.312H259.182C259.555 340.312 259.886 340.249 260.173 340.121C260.465 339.989 260.69 339.804 260.85 339.567C261.014 339.33 261.096 339.055 261.096 338.74C261.096 338.439 261.025 338.175 260.884 337.947C260.743 337.719 260.542 337.542 260.282 337.414C260.022 337.286 259.719 337.223 259.373 337.223C259.04 337.223 258.728 337.282 258.437 337.4C258.149 337.519 257.917 337.69 257.739 337.913C257.562 338.132 257.468 338.385 257.459 338.672H256.01C256.023 338.148 256.181 337.681 256.481 337.271C256.787 336.856 257.195 336.535 257.705 336.307C258.215 336.079 258.776 335.965 259.387 335.965C260.02 335.965 260.576 336.086 261.055 336.327C261.533 336.569 261.902 336.897 262.162 337.312C262.422 337.722 262.549 338.171 262.545 338.658C262.549 339.214 262.395 339.686 262.08 340.073C261.766 340.461 261.337 340.723 260.795 340.859V340.928C261.242 340.992 261.624 341.131 261.943 341.345C262.267 341.554 262.511 341.826 262.675 342.158C262.843 342.491 262.928 342.865 262.928 343.279C262.928 343.822 262.773 344.312 262.463 344.749C262.158 345.182 261.731 345.521 261.185 345.768C260.642 346.014 260.034 346.137 259.359 346.137ZM265.252 346.096C265.079 346.096 264.917 346.052 264.767 345.966C264.621 345.879 264.502 345.763 264.411 345.617C264.325 345.471 264.281 345.312 264.281 345.139C264.281 344.961 264.325 344.797 264.411 344.646C264.498 344.496 264.614 344.378 264.76 344.291C264.91 344.2 265.074 344.154 265.252 344.154C265.425 344.154 265.585 344.198 265.73 344.284C265.881 344.371 265.999 344.489 266.086 344.64C266.177 344.79 266.223 344.952 266.223 345.125C266.223 345.298 266.177 345.46 266.086 345.61C265.999 345.756 265.881 345.875 265.73 345.966C265.585 346.052 265.425 346.096 265.252 346.096ZM271.541 342.227C271.546 340.964 271.719 339.793 272.061 338.713C272.407 337.628 272.908 336.617 273.564 335.678H274.904C274.585 336.138 274.285 336.73 274.002 337.455C273.719 338.175 273.492 338.954 273.318 339.793C273.145 340.632 273.059 341.443 273.059 342.227C273.059 343.01 273.145 343.824 273.318 344.667C273.492 345.506 273.719 346.287 274.002 347.012C274.285 347.736 274.585 348.329 274.904 348.789H273.564C272.908 347.846 272.407 346.832 272.061 345.747C271.719 344.662 271.546 343.489 271.541 342.227ZM285.992 342.104H284.693V341.516H282.301V340.695H284.693V334.926H285.992V342.104ZM276.36 339.438C277.746 339.438 279.054 339.417 280.284 339.376C281.519 339.335 282.688 339.255 283.791 339.137L283.859 339.971C282.848 340.117 281.672 340.224 280.332 340.292V342.131H279.047V340.34C278.204 340.363 277.47 340.374 276.846 340.374L275.93 340.367L275.779 339.438H276.36ZM276.695 336.977C276.695 336.607 276.821 336.284 277.071 336.006C277.322 335.728 277.677 335.514 278.138 335.363C278.603 335.208 279.143 335.131 279.758 335.131C280.359 335.131 280.89 335.208 281.351 335.363C281.815 335.514 282.175 335.728 282.431 336.006C282.686 336.284 282.816 336.607 282.82 336.977C282.816 337.35 282.686 337.676 282.431 337.954C282.175 338.228 281.818 338.439 281.357 338.59C280.897 338.736 280.364 338.809 279.758 338.809C279.143 338.809 278.603 338.736 278.138 338.59C277.677 338.439 277.322 338.228 277.071 337.954C276.821 337.676 276.695 337.35 276.695 336.977ZM277.611 342.514H285.992V345.152H278.938V346.096H286.361V347.039H277.666V344.291H284.707V343.416H277.611V342.514ZM277.912 336.977C277.912 337.168 277.987 337.337 278.138 337.482C278.288 337.624 278.502 337.735 278.78 337.817C279.058 337.895 279.384 337.934 279.758 337.934C280.127 337.934 280.448 337.895 280.722 337.817C281 337.735 281.214 337.624 281.364 337.482C281.515 337.337 281.59 337.168 281.59 336.977C281.59 336.781 281.515 336.61 281.364 336.464C281.214 336.318 281 336.206 280.722 336.129C280.448 336.047 280.127 336.006 279.758 336.006C279.384 336.006 279.058 336.047 278.78 336.129C278.502 336.206 278.288 336.318 278.138 336.464C277.987 336.61 277.912 336.781 277.912 336.977ZM291.27 342.227C291.265 343.489 291.09 344.662 290.743 345.747C290.401 346.832 289.902 347.846 289.246 348.789H287.906C288.225 348.329 288.526 347.736 288.809 347.012C289.091 346.287 289.319 345.506 289.492 344.667C289.665 343.824 289.752 343.01 289.752 342.227C289.752 341.443 289.665 340.632 289.492 339.793C289.319 338.954 289.091 338.175 288.809 337.455C288.526 336.73 288.225 336.138 287.906 335.678H289.246C289.902 336.617 290.401 337.628 290.743 338.713C291.09 339.793 291.265 340.964 291.27 342.227Z" fill="white"/>
<path d="M146 248.5H184L146 286.5H184" stroke="url(#paint0_linear_127_1052)"/>
<path d="M181 283L184.5 286.5L181 290" stroke="#FF731D"/>
<defs>
<linearGradient id="paint0_linear_127_1052" x1="184" y1="284.373" x2="146" y2="284.373" gradientUnits="userSpaceOnUse">
<stop offset="0.3125" stop-color="#FF731D"/>
<stop offset="1" stop-color="white"/>
</linearGradient>
</defs>
</svg>
