<svg width="328" height="990" viewBox="0 0 328 990" fill="none" xmlns="http://www.w3.org/2000/svg">
<path d="M18.1959 13.1496L29 3.38824L18.1959 7.65517V0.758621L14.2261 8.26891L10.1546 0V9.47899L1 8.26891L7.51546 13.1496L3.04017 18.1379L10.1546 16.1379L8.17584 22.2759L13.1005 18.1379L15.5567 24V16.9412L20.1356 19.6437L17.6733 14.8966L29 16.9412L18.1959 13.1496Z" fill="#FF731D"/>
<path d="M15.9557 41.9942L17.2824 38.1611H25.5242V32.264H1.80407V38.1611H7.83461L1 58.2113H10.4478L13.8651 48.1567L16.8804 58.2113H26.3282L21.5038 41.9942H15.9557ZM38.3893 31.3794H29.1425V58.2113H38.3893V31.3794Z" fill="white"/>
<path d="M78.5929 31.3794H69.3461V34.9177H66.2102C64.8433 32.8832 61.3858 31.3794 54.2697 31.3794C44.4601 31.3794 41.6056 34.21 41.6056 37.4239C41.6056 40.6379 44.4601 43.4685 54.2697 43.4685C61.3858 43.4685 64.8433 41.9942 66.2102 39.9302H69.3461V51.1348H78.5929V31.3794ZM59.0942 49.6605H67.3359V44.6479H41.2036V49.6605H50.2494V50.8399H42.4097V59.0959H78.5929V54.0833H51.6565V52.3142H59.0942V49.6605ZM59.6972 37.4239C59.6972 38.279 58.8127 38.7508 54.2697 38.7508C49.7267 38.7508 48.8422 38.279 48.8422 37.4239C48.8422 36.5689 49.7267 36.0971 54.2697 36.0971C58.8127 36.0971 59.6972 36.5689 59.6972 37.4239Z" fill="white"/>
<path d="M97.4885 32.264V34.7702H90.6539V32.264H82.2112V47.8913L105.931 46.4171V32.264H97.4885ZM117.791 53.9949C117.791 50.4566 113.007 48.4516 100.303 48.4516C87.5985 48.4516 82.8143 50.4566 82.8143 53.9949C82.8143 57.5331 87.5985 59.5381 100.303 59.5381C113.007 59.5381 117.791 57.5331 117.791 53.9949ZM117.188 36.5394V31.3794H107.941V47.8913H117.188V42.7314H120.405V36.5394H117.188ZM108.545 53.9949C108.545 54.673 107.62 55.1153 100.303 55.1153C92.9858 55.1153 92.0611 54.673 92.0611 53.9949C92.0611 53.3167 92.9858 52.8744 100.303 52.8744C107.62 52.8744 108.545 53.3167 108.545 53.9949ZM90.6539 39.7828H97.4885V41.9352L90.6539 42.348V39.7828Z" fill="white"/>
<path d="M159 31.3794H149.753V35.8022H146.135V32.264H137.692V34.6228H130.857V32.264H122.415V45.8273L146.135 44.6479V41.4045H149.753V45.8273H159V31.3794ZM149.753 46.7119V49.2182H131.662V46.7119H122.415V59.0959H159V46.7119H149.753ZM131.662 53.1987H149.753V54.8204H131.662V53.1987ZM130.857 38.7508H137.692V40.6674L130.857 40.9917V38.7508Z" fill="white"/>
<rect x="1.43026" y="115.43" width="326.139" height="264.139" rx="19.5697" stroke="white" stroke-width="0.860526"/>
<path d="M36.9375 262.094C36.0625 262.094 35.3438 261.375 35.3438 260.484C35.3438 259.609 36.0625 258.891 36.9375 258.891C37.8281 258.891 38.5469 259.609 38.5469 260.484C38.5469 261.375 37.8281 262.094 36.9375 262.094ZM54.0625 253.688V265H52.6406V255.156H52.5781L49.8281 256.984V255.562L52.6406 253.688H54.0625ZM61.2031 256.906C61.2031 259.125 62.6562 261.406 64.6719 262.375L63.9531 263.328C62.4219 262.578 61.2109 261.062 60.6406 259.266C60.0312 261.195 58.7422 262.812 57.1562 263.578L56.4531 262.625C58.4844 261.672 60 259.297 60.0156 256.906V255.797H56.8281V254.797H60V252.641H61.2344V254.797H64.3594V255.797H61.2031V256.906ZM67.3281 252.375V258.078H69.6562V259.125H67.3281V266.266H66.1094V252.375H67.3281ZM79.3125 256.109C79.3125 258.625 80.9219 261.156 82.9375 262.078L82.2031 263.078C80.625 262.266 79.3203 260.602 78.7031 258.625C78.0859 260.703 76.7812 262.484 75.2031 263.328L74.4062 262.344C76.4375 261.344 78.0625 258.672 78.0625 256.109V253.578H79.3125V256.109ZM85.9375 252.375V266.297H84.7188V258.125H81.4219V257.125H84.7188V252.375H85.9375ZM100.953 260.672V261.656H97.6094V266.266H96.3906V261.656H92.7969V266.266H91.5625V261.656H88.2344V260.672H100.953ZM99.4062 252.922V256.484H91.0312V258.219H99.7031V259.234H89.7969V255.531H98.1562V253.938H89.7656V252.922H99.4062ZM103.547 265.094C103 265.094 102.531 264.641 102.547 264.078C102.531 263.531 103 263.078 103.547 263.078C104.094 263.078 104.547 263.531 104.547 264.078C104.547 264.641 104.094 265.094 103.547 265.094ZM103.547 258.812C103 258.812 102.531 258.359 102.547 257.797C102.531 257.25 103 256.797 103.547 256.797C104.094 256.797 104.547 257.25 104.547 257.797C104.547 258.359 104.094 258.812 103.547 258.812ZM114.656 253.688V265H113.234V255.156H113.172L110.422 256.984V255.562L113.234 253.688H114.656ZM121.375 265.156C118.859 265.156 117.422 263.047 117.422 259.344C117.422 255.672 118.891 253.531 121.375 253.531C123.859 253.531 125.328 255.672 125.328 259.344C125.328 263.047 123.875 265.156 121.375 265.156ZM121.375 263.906C123 263.906 123.953 262.266 123.953 259.344C123.953 256.422 123 254.75 121.375 254.75C119.75 254.75 118.781 256.422 118.781 259.344C118.781 262.266 119.734 263.906 121.375 263.906ZM138.156 252.391V260.578H136.922V259.812H134.109V259H136.922V252.391H138.156ZM126.656 257.625C129.344 257.641 132.781 257.609 135.781 257.281L135.859 258.078C134.5 258.273 133.086 258.391 131.703 258.453V260.625H130.5V258.5C129.188 258.547 127.93 258.555 126.797 258.547L126.656 257.625ZM138.156 261.078V263.953H130.047V265.203H138.609V266.109H128.844V263.094H136.938V261.969H128.781V261.078H138.156ZM131.188 252.656C133.25 252.656 134.625 253.469 134.641 254.75C134.625 256.047 133.25 256.828 131.188 256.828C129.094 256.828 127.734 256.047 127.734 254.75C127.734 253.469 129.094 252.656 131.188 252.656ZM131.188 253.516C129.781 253.516 128.875 254 128.891 254.75C128.875 255.484 129.781 255.984 131.188 255.984C132.578 255.984 133.484 255.484 133.484 254.75C133.484 254 132.578 253.516 131.188 253.516ZM148.953 265.156C146.703 265.156 145.094 263.953 145.016 262.156H146.438C146.516 263.234 147.594 263.906 148.938 263.906C150.422 263.906 151.516 263.094 151.516 261.922C151.516 260.688 150.531 259.812 148.766 259.812H147.844V258.578H148.766C150.141 258.578 151.094 257.812 151.094 256.641C151.094 255.516 150.266 254.75 148.984 254.75C147.781 254.75 146.672 255.422 146.609 256.531H145.25C145.328 254.734 146.984 253.531 149 253.531C151.156 253.531 152.469 254.938 152.453 256.562C152.469 257.844 151.719 258.797 150.531 259.125V259.203C152 259.438 152.906 260.484 152.891 261.922C152.906 263.781 151.203 265.156 148.953 265.156ZM158.625 265.156C156.109 265.156 154.672 263.047 154.672 259.344C154.672 255.672 156.141 253.531 158.625 253.531C161.109 253.531 162.578 255.672 162.578 259.344C162.578 263.047 161.125 265.156 158.625 265.156ZM158.625 263.906C160.25 263.906 161.203 262.266 161.203 259.344C161.203 256.422 160.25 254.75 158.625 254.75C157 254.75 156.031 256.422 156.031 259.344C156.031 262.266 156.984 263.906 158.625 263.906ZM167.891 252.891C169.969 252.906 171.484 254.156 171.484 255.969C171.484 257.781 169.969 259.031 167.891 259.031C165.781 259.031 164.281 257.781 164.281 255.969C164.281 254.156 165.781 252.906 167.891 252.891ZM167.891 253.922C166.5 253.922 165.469 254.766 165.484 255.969C165.469 257.188 166.5 258.031 167.891 258.031C169.266 258.031 170.297 257.188 170.297 255.969C170.297 254.766 169.266 253.922 167.891 253.922ZM175.422 252.375V259.516H174.203V252.375H175.422ZM175.422 260.188V263.531H167.625V265.094H175.922V266.078H166.422V262.609H174.203V261.172H166.391V260.188H175.422ZM182.75 260.359C183.25 259.781 183.875 259.469 184.562 259.469C185.75 259.469 186.828 260.375 187.969 260.375C188.672 260.375 189.281 260.031 189.75 259.391V260.688C189.234 261.281 188.625 261.578 187.938 261.578C186.75 261.578 185.672 260.672 184.516 260.672C183.828 260.672 183.219 261.016 182.75 261.656V260.359ZM200.344 253.688V265H198.922V255.156H198.859L196.109 256.984V255.562L198.922 253.688H200.344ZM207.359 253.688V265H205.938V255.156H205.875L203.125 256.984V255.562L205.938 253.688H207.359ZM221.328 252.391V260.578H220.094V259.812H217.281V259H220.094V252.391H221.328ZM209.828 257.625C212.516 257.641 215.953 257.609 218.953 257.281L219.031 258.078C217.672 258.273 216.258 258.391 214.875 258.453V260.625H213.672V258.5C212.359 258.547 211.102 258.555 209.969 258.547L209.828 257.625ZM221.328 261.078V263.953H213.219V265.203H221.781V266.109H212.016V263.094H220.109V261.969H211.953V261.078H221.328ZM214.359 252.656C216.422 252.656 217.797 253.469 217.812 254.75C217.797 256.047 216.422 256.828 214.359 256.828C212.266 256.828 210.906 256.047 210.906 254.75C210.906 253.469 212.266 252.656 214.359 252.656ZM214.359 253.516C212.953 253.516 212.047 254 212.062 254.75C212.047 255.484 212.953 255.984 214.359 255.984C215.75 255.984 216.656 255.484 216.656 254.75C216.656 254 215.75 253.516 214.359 253.516ZM232.219 253.688V265H230.797V255.156H230.734L227.984 256.984V255.562L230.797 253.688H232.219ZM239.234 253.688V265H237.812V255.156H237.75L235 256.984V255.562L237.812 253.688H239.234ZM245.688 252.891C247.766 252.906 249.281 254.156 249.281 255.969C249.281 257.781 247.766 259.031 245.688 259.031C243.578 259.031 242.078 257.781 242.078 255.969C242.078 254.156 243.578 252.906 245.688 252.891ZM245.688 253.922C244.297 253.922 243.266 254.766 243.281 255.969C243.266 257.188 244.297 258.031 245.688 258.031C247.062 258.031 248.094 257.188 248.094 255.969C248.094 254.766 247.062 253.922 245.688 253.922ZM253.219 252.375V259.516H252V252.375H253.219ZM253.219 260.188V263.531H245.422V265.094H253.719V266.078H244.219V262.609H252V261.172H244.188V260.188H253.219ZM36.9375 284.094C36.0625 284.094 35.3438 283.375 35.3438 282.484C35.3438 281.609 36.0625 280.891 36.9375 280.891C37.8281 280.891 38.5469 281.609 38.5469 282.484C38.5469 283.375 37.8281 284.094 36.9375 284.094ZM56.5938 275.594V276.828H59.8438V274.391H61.0781V284.531H59.8438V280.828H56.5938V282.078H50.2188V275.594H56.5938ZM51.4375 276.609V281.094H55.3906V276.609H51.4375ZM61.3906 286.938V287.969H52.0938V283.625H53.3281V286.938H61.3906ZM56.5938 279.812H59.8438V277.859H56.5938V279.812ZM74.8906 274.375V281.922H73.6719V278.781H70.8594V277.75H73.6719V274.375H74.8906ZM67.1875 282.594V284.328H73.6719V282.594H74.8906V288.078H65.9531V282.594H67.1875ZM67.1875 287.078H73.6719V285.312H67.1875V287.078ZM68.2188 276.641C68.2188 278.422 69.6094 280.172 71.6406 280.875L71 281.828C69.4297 281.258 68.2188 280.094 67.625 278.656C67.0234 280.266 65.7422 281.555 64.0938 282.156L63.4531 281.188C65.5 280.453 66.9844 278.609 66.9844 276.641V276.234H63.8438V275.219H71.3281V276.234H68.2188V276.641ZM93.1094 274.375V288.266H91.9375V280.984H89.8906V287.547H88.7656V274.688H89.8906V279.969H91.9375V274.375H93.1094ZM86.9531 276.078V277.094H82.9688V283.781C84.8828 283.773 86.2109 283.703 87.75 283.391L87.8594 284.422C86.1875 284.766 84.7656 284.828 82.6406 284.828H81.75V276.078H86.9531ZM99.7031 276.625C99.7031 278.516 101.141 280.25 103.156 280.938L102.484 281.906C100.945 281.344 99.7344 280.195 99.125 278.75C98.5312 280.383 97.2969 281.672 95.6719 282.297L95.0156 281.312C97.0938 280.531 98.4844 278.672 98.5 276.531V275.094H99.7031V276.625ZM105.922 274.375V278H108.016V279.031H105.922V282.828H104.703V274.375H105.922ZM101.469 283.188C104.328 283.188 106.047 284.109 106.047 285.703C106.047 287.328 104.328 288.234 101.469 288.234C98.6094 288.234 96.8594 287.328 96.8594 285.703C96.8594 284.109 98.6094 283.188 101.469 283.188ZM101.469 284.172C99.375 284.172 98.0781 284.75 98.0938 285.703C98.0781 286.688 99.375 287.25 101.469 287.266C103.578 287.25 104.859 286.688 104.859 285.703C104.859 284.75 103.578 284.172 101.469 284.172ZM113.594 278.641C113.578 280.875 115.188 283.328 117.203 284.281L116.5 285.25C114.938 284.492 113.617 282.836 113 280.953C112.359 283 110.961 284.797 109.406 285.594L108.656 284.625C110.656 283.656 112.375 281.016 112.391 278.641V276.828H109.156V275.812H116.719V276.828H113.594V278.641ZM119.641 274.375V280H121.969V281.047H119.641V288.266H118.422V274.375H119.641ZM133.016 283.156C136 283.156 137.891 284.094 137.891 285.703C137.891 287.297 136 288.234 133.016 288.234C130.047 288.234 128.156 287.297 128.156 285.703C128.156 284.094 130.047 283.156 133.016 283.156ZM133.016 284.094C130.797 284.109 129.359 284.719 129.375 285.703C129.359 286.672 130.797 287.266 133.016 287.266C135.234 287.266 136.656 286.672 136.672 285.703C136.656 284.719 135.234 284.109 133.016 284.094ZM137.781 275.094V276.266C137.781 277.391 137.781 278.516 137.391 279.953L136.188 279.812C136.562 278.375 136.562 277.359 136.562 276.266V276.094H128.25V275.094H137.781ZM139.391 280.859V281.859H126.75V280.859H131.984V278.172H133.188V280.859H139.391ZM145.531 278.641C145.531 281 147.25 283.391 149.297 284.281L148.609 285.25C146.984 284.508 145.578 282.906 144.938 280.984C144.281 283.023 142.883 284.797 141.297 285.594L140.562 284.625C142.547 283.672 144.281 281.047 144.297 278.641V276.828H141.016V275.812H148.844V276.828H145.531V278.641ZM152.016 274.375V288.266H150.781V274.375H152.016ZM159.875 287.094C159.328 287.094 158.859 286.641 158.875 286.078C158.859 285.531 159.328 285.078 159.875 285.078C160.422 285.078 160.875 285.531 160.875 286.078C160.875 286.641 160.422 287.094 159.875 287.094ZM159.875 280.812C159.328 280.812 158.859 280.359 158.875 279.797C158.859 279.25 159.328 278.797 159.875 278.797C160.422 278.797 160.875 279.25 160.875 279.797C160.875 280.359 160.422 280.812 159.875 280.812ZM170.984 275.688V287H169.562V277.156H169.5L166.75 278.984V277.562L169.562 275.688H170.984ZM178 275.688V287H176.578V277.156H176.516L173.766 278.984V277.562L176.578 275.688H178ZM191.969 274.391V282.578H190.734V281.812H187.922V281H190.734V274.391H191.969ZM180.469 279.625C183.156 279.641 186.594 279.609 189.594 279.281L189.672 280.078C188.312 280.273 186.898 280.391 185.516 280.453V282.625H184.312V280.5C183 280.547 181.742 280.555 180.609 280.547L180.469 279.625ZM191.969 283.078V285.953H183.859V287.203H192.422V288.109H182.656V285.094H190.75V283.969H182.594V283.078H191.969ZM185 274.656C187.062 274.656 188.438 275.469 188.453 276.75C188.438 278.047 187.062 278.828 185 278.828C182.906 278.828 181.547 278.047 181.547 276.75C181.547 275.469 182.906 274.656 185 274.656ZM185 275.516C183.594 275.516 182.688 276 182.703 276.75C182.688 277.484 183.594 277.984 185 277.984C186.391 277.984 187.297 277.484 187.297 276.75C187.297 276 186.391 275.516 185 275.516ZM202.859 275.688V287H201.438V277.156H201.375L198.625 278.984V277.562L201.438 275.688H202.859ZM205.875 287L205.859 285.969L209.719 281.906C211.062 280.484 211.703 279.719 211.703 278.672C211.703 277.516 210.719 276.75 209.453 276.75C208.109 276.75 207.25 277.609 207.25 278.875H205.922C205.906 276.875 207.453 275.531 209.5 275.531C211.547 275.531 213.016 276.906 213.016 278.672C213.016 279.938 212.422 280.922 210.422 282.984L207.828 285.656V285.75H213.219V287H205.875ZM218.703 274.891C220.781 274.906 222.297 276.156 222.297 277.969C222.297 279.781 220.781 281.031 218.703 281.031C216.594 281.031 215.094 279.781 215.094 277.969C215.094 276.156 216.594 274.906 218.703 274.891ZM218.703 275.922C217.312 275.922 216.281 276.766 216.297 277.969C216.281 279.188 217.312 280.031 218.703 280.031C220.078 280.031 221.109 279.188 221.109 277.969C221.109 276.766 220.078 275.922 218.703 275.922ZM226.234 274.375V281.516H225.016V274.375H226.234ZM226.234 282.188V285.531H218.438V287.094H226.734V288.078H217.234V284.609H225.016V283.172H217.203V282.188H226.234ZM36.9375 306.094C36.0625 306.094 35.3438 305.375 35.3438 304.484C35.3438 303.609 36.0625 302.891 36.9375 302.891C37.8281 302.891 38.5469 303.609 38.5469 304.484C38.5469 305.375 37.8281 306.094 36.9375 306.094ZM50.0625 309L50.0469 307.969L53.9062 303.906C55.25 302.484 55.8906 301.719 55.8906 300.672C55.8906 299.516 54.9062 298.75 53.6406 298.75C52.2969 298.75 51.4375 299.609 51.4375 300.875H50.1094C50.0938 298.875 51.6406 297.531 53.6875 297.531C55.7344 297.531 57.2031 298.906 57.2031 300.672C57.2031 301.938 56.6094 302.922 54.6094 304.984L52.0156 307.656V307.75H57.4062V309H50.0625ZM63.5781 300.906C63.5781 303.125 65.0312 305.406 67.0469 306.375L66.3281 307.328C64.7969 306.578 63.5859 305.062 63.0156 303.266C62.4062 305.195 61.1172 306.812 59.5312 307.578L58.8281 306.625C60.8594 305.672 62.375 303.297 62.3906 300.906V299.797H59.2031V298.797H62.375V296.641H63.6094V298.797H66.7344V299.797H63.5781V300.906ZM69.7031 296.375V302.078H72.0312V303.125H69.7031V310.266H68.4844V296.375H69.7031ZM83.8281 297.594V298.828H87.0781V296.391H88.3125V306.531H87.0781V302.828H83.8281V304.078H77.4531V297.594H83.8281ZM78.6719 298.609V303.094H82.625V298.609H78.6719ZM88.625 308.938V309.969H79.3281V305.625H80.5625V308.938H88.625ZM83.8281 301.812H87.0781V299.859H83.8281V301.812ZM102.125 296.375V303.922H100.906V300.781H98.0938V299.75H100.906V296.375H102.125ZM94.4219 304.594V306.328H100.906V304.594H102.125V310.078H93.1875V304.594H94.4219ZM94.4219 309.078H100.906V307.312H94.4219V309.078ZM95.4531 298.641C95.4531 300.422 96.8438 302.172 98.875 302.875L98.2344 303.828C96.6641 303.258 95.4531 302.094 94.8594 300.656C94.2578 302.266 92.9766 303.555 91.3281 304.156L90.6875 303.188C92.7344 302.453 94.2188 300.609 94.2188 298.641V298.234H91.0781V297.219H98.5625V298.234H95.4531V298.641ZM105.922 309.094C105.375 309.094 104.906 308.641 104.922 308.078C104.906 307.531 105.375 307.078 105.922 307.078C106.469 307.078 106.922 307.531 106.922 308.078C106.922 308.641 106.469 309.094 105.922 309.094ZM105.922 302.812C105.375 302.812 104.906 302.359 104.922 301.797C104.906 301.25 105.375 300.797 105.922 300.797C106.469 300.797 106.922 301.25 106.922 301.797C106.922 302.359 106.469 302.812 105.922 302.812ZM117.031 297.688V309H115.609V299.156H115.547L112.797 300.984V299.562L115.609 297.688H117.031ZM124.047 297.688V309H122.625V299.156H122.562L119.812 300.984V299.562L122.625 297.688H124.047ZM138.016 296.391V304.578H136.781V303.812H133.969V303H136.781V296.391H138.016ZM126.516 301.625C129.203 301.641 132.641 301.609 135.641 301.281L135.719 302.078C134.359 302.273 132.945 302.391 131.562 302.453V304.625H130.359V302.5C129.047 302.547 127.789 302.555 126.656 302.547L126.516 301.625ZM138.016 305.078V307.953H129.906V309.203H138.469V310.109H128.703V307.094H136.797V305.969H128.641V305.078H138.016ZM131.047 296.656C133.109 296.656 134.484 297.469 134.5 298.75C134.484 300.047 133.109 300.828 131.047 300.828C128.953 300.828 127.594 300.047 127.594 298.75C127.594 297.469 128.953 296.656 131.047 296.656ZM131.047 297.516C129.641 297.516 128.734 298 128.75 298.75C128.734 299.484 129.641 299.984 131.047 299.984C132.438 299.984 133.344 299.484 133.344 298.75C133.344 298 132.438 297.516 131.047 297.516ZM148.906 297.688V309H147.484V299.156H147.422L144.672 300.984V299.562L147.484 297.688H148.906ZM155.828 309.156C153.578 309.156 151.969 307.953 151.891 306.156H153.312C153.391 307.234 154.469 307.906 155.812 307.906C157.297 307.906 158.391 307.094 158.391 305.922C158.391 304.688 157.406 303.812 155.641 303.812H154.719V302.578H155.641C157.016 302.578 157.969 301.812 157.969 300.641C157.969 299.516 157.141 298.75 155.859 298.75C154.656 298.75 153.547 299.422 153.484 300.531H152.125C152.203 298.734 153.859 297.531 155.875 297.531C158.031 297.531 159.344 298.938 159.328 300.562C159.344 301.844 158.594 302.797 157.406 303.125V303.203C158.875 303.438 159.781 304.484 159.766 305.922C159.781 307.781 158.078 309.156 155.828 309.156ZM165.234 296.891C167.312 296.906 168.828 298.156 168.828 299.969C168.828 301.781 167.312 303.031 165.234 303.031C163.125 303.031 161.625 301.781 161.625 299.969C161.625 298.156 163.125 296.906 165.234 296.891ZM165.234 297.922C163.844 297.922 162.812 298.766 162.828 299.969C162.812 301.188 163.844 302.031 165.234 302.031C166.609 302.031 167.641 301.188 167.641 299.969C167.641 298.766 166.609 297.922 165.234 297.922ZM172.766 296.375V303.516H171.547V296.375H172.766ZM172.766 304.188V307.531H164.969V309.094H173.266V310.078H163.766V306.609H171.547V305.172H163.734V304.188H172.766ZM180.094 304.359C180.594 303.781 181.219 303.469 181.906 303.469C183.094 303.469 184.172 304.375 185.312 304.375C186.016 304.375 186.625 304.031 187.094 303.391V304.688C186.578 305.281 185.969 305.578 185.281 305.578C184.094 305.578 183.016 304.672 181.859 304.672C181.172 304.672 180.562 305.016 180.094 305.656V304.359ZM197.688 297.688V309H196.266V299.156H196.203L193.453 300.984V299.562L196.266 297.688H197.688ZM204.703 297.688V309H203.281V299.156H203.219L200.469 300.984V299.562L203.281 297.688H204.703ZM218.672 296.391V304.578H217.438V303.812H214.625V303H217.438V296.391H218.672ZM207.172 301.625C209.859 301.641 213.297 301.609 216.297 301.281L216.375 302.078C215.016 302.273 213.602 302.391 212.219 302.453V304.625H211.016V302.5C209.703 302.547 208.445 302.555 207.312 302.547L207.172 301.625ZM218.672 305.078V307.953H210.562V309.203H219.125V310.109H209.359V307.094H217.453V305.969H209.297V305.078H218.672ZM211.703 296.656C213.766 296.656 215.141 297.469 215.156 298.75C215.141 300.047 213.766 300.828 211.703 300.828C209.609 300.828 208.25 300.047 208.25 298.75C208.25 297.469 209.609 296.656 211.703 296.656ZM211.703 297.516C210.297 297.516 209.391 298 209.406 298.75C209.391 299.484 210.297 299.984 211.703 299.984C213.094 299.984 214 299.484 214 298.75C214 298 213.094 297.516 211.703 297.516ZM229.562 297.688V309H228.141V299.156H228.078L225.328 300.984V299.562L228.141 297.688H229.562ZM232.938 309L238.125 299.016V298.938H232.141V297.688H239.578V299L234.406 309H232.938ZM244.844 296.891C246.922 296.906 248.438 298.156 248.438 299.969C248.438 301.781 246.922 303.031 244.844 303.031C242.734 303.031 241.234 301.781 241.234 299.969C241.234 298.156 242.734 296.906 244.844 296.891ZM244.844 297.922C243.453 297.922 242.422 298.766 242.438 299.969C242.422 301.188 243.453 302.031 244.844 302.031C246.219 302.031 247.25 301.188 247.25 299.969C247.25 298.766 246.219 297.922 244.844 297.922ZM252.375 296.375V303.516H251.156V296.375H252.375ZM252.375 304.188V307.531H244.578V309.094H252.875V310.078H243.375V306.609H251.156V305.172H243.344V304.188H252.375ZM36.9375 328.094C36.0625 328.094 35.3438 327.375 35.3438 326.484C35.3438 325.609 36.0625 324.891 36.9375 324.891C37.8281 324.891 38.5469 325.609 38.5469 326.484C38.5469 327.375 37.8281 328.094 36.9375 328.094ZM60.4219 318.375V321.938H62.5156V322.984H60.4219V326.453H59.2031V318.375H60.4219ZM52.8594 327.062V328.547H59.2031V327.062H60.4219V332.078H51.6406V327.062H52.8594ZM52.8594 331.094H59.2031V329.516H52.8594V331.094ZM57.875 319.812V320.828H49.5938V319.812H53.125V318.25H54.3438V319.812H57.875ZM53.7344 321.469C55.7344 321.469 57.0625 322.422 57.0781 323.906C57.0625 325.391 55.7344 326.344 53.7344 326.344C51.7188 326.344 50.375 325.391 50.3906 323.906C50.375 322.422 51.7188 321.469 53.7344 321.469ZM53.7344 322.422C52.4219 322.406 51.5469 323.016 51.5625 323.906C51.5469 324.812 52.4219 325.406 53.7344 325.406C55.0312 325.406 55.9062 324.812 55.9219 323.906C55.9062 323.016 55.0312 322.406 53.7344 322.422ZM70.7188 319.328C70.7188 319.867 70.6562 320.383 70.5469 320.875H73.6719V318.391H74.9062V326.672H73.6719V324.828H69.9844V323.812H73.6719V321.891H70.2188C69.2734 324.078 67.1016 325.656 64.0938 326.484L63.6094 325.5C67 324.562 69.1484 322.695 69.4062 320.328H64.3125V319.328H70.7188ZM74.9062 327.281V332.25H73.6719V328.266H65.5625V327.281H74.9062ZM81.9219 322.641C81.9062 324.875 83.5156 327.328 85.5312 328.281L84.8281 329.25C83.2656 328.492 81.9453 326.836 81.3281 324.953C80.6875 327 79.2891 328.797 77.7344 329.594L76.9844 328.625C78.9844 327.656 80.7031 325.016 80.7188 322.641V320.828H77.4844V319.812H85.0469V320.828H81.9219V322.641ZM87.9688 318.375V324H90.2969V325.047H87.9688V332.266H86.75V318.375H87.9688ZM96.8594 318.969V320.969H100.906V318.969H102.125V325.016H95.6562V318.969H96.8594ZM96.8594 324.016H100.906V321.922H96.8594V324.016ZM105.922 318.375V321.391H108.016V322.422H105.922V325.562H104.703V318.375H105.922ZM105.922 326.219V329.578H98.2969V331.109H106.438V332.109H97.0938V328.641H104.703V327.203H97.0625V326.219H105.922ZM121.609 329.547V330.562H108.891V329.547H112.438V326.234H110.047V325.219H112.219V320.688H110.016V319.672H120.391V320.688H118.188V325.219H120.359V326.234H117.969V329.547H121.609ZM113.438 325.219H116.984V320.688H113.438V325.219ZM113.672 329.547H116.75V326.234H113.672V329.547ZM124.188 331.094C123.641 331.094 123.172 330.641 123.188 330.078C123.172 329.531 123.641 329.078 124.188 329.078C124.734 329.078 125.188 329.531 125.188 330.078C125.188 330.641 124.734 331.094 124.188 331.094ZM124.188 324.812C123.641 324.812 123.172 324.359 123.188 323.797C123.172 323.25 123.641 322.797 124.188 322.797C124.734 322.797 125.188 323.25 125.188 323.797C125.188 324.359 124.734 324.812 124.188 324.812ZM135.297 319.688V331H133.875V321.156H133.812L131.062 322.984V321.562L133.875 319.688H135.297ZM142.312 319.688V331H140.891V321.156H140.828L138.078 322.984V321.562L140.891 319.688H142.312ZM156.281 318.391V326.578H155.047V325.812H152.234V325H155.047V318.391H156.281ZM144.781 323.625C147.469 323.641 150.906 323.609 153.906 323.281L153.984 324.078C152.625 324.273 151.211 324.391 149.828 324.453V326.625H148.625V324.5C147.312 324.547 146.055 324.555 144.922 324.547L144.781 323.625ZM156.281 327.078V329.953H148.172V331.203H156.734V332.109H146.969V329.094H155.062V327.969H146.906V327.078H156.281ZM149.312 318.656C151.375 318.656 152.75 319.469 152.766 320.75C152.75 322.047 151.375 322.828 149.312 322.828C147.219 322.828 145.859 322.047 145.859 320.75C145.859 319.469 147.219 318.656 149.312 318.656ZM149.312 319.516C147.906 319.516 147 320 147.016 320.75C147 321.484 147.906 321.984 149.312 321.984C150.703 321.984 151.609 321.484 151.609 320.75C151.609 320 150.703 319.516 149.312 319.516ZM167.172 319.688V331H165.75V321.156H165.688L162.938 322.984V321.562L165.75 319.688H167.172ZM173.953 319.531C175.906 319.547 178.062 320.719 178.062 324.891C178.062 328.906 176.422 331.156 173.766 331.156C171.781 331.156 170.375 329.938 170.094 328.141H171.484C171.734 329.156 172.5 329.906 173.766 329.906C175.609 329.906 176.734 328.312 176.75 325.562H176.594C175.938 326.5 174.906 327.062 173.703 327.062C171.672 327.062 170 325.516 170 323.328C170 321.219 171.547 319.516 173.953 319.531ZM173.953 320.766C172.469 320.766 171.359 321.922 171.375 323.312C171.375 324.719 172.422 325.828 173.906 325.828C175.375 325.828 176.531 324.609 176.531 323.281C176.531 321.984 175.453 320.766 173.953 320.766ZM183.438 318.891C185.516 318.906 187.031 320.156 187.031 321.969C187.031 323.781 185.516 325.031 183.438 325.031C181.328 325.031 179.828 323.781 179.828 321.969C179.828 320.156 181.328 318.906 183.438 318.891ZM183.438 319.922C182.047 319.922 181.016 320.766 181.031 321.969C181.016 323.188 182.047 324.031 183.438 324.031C184.812 324.031 185.844 323.188 185.844 321.969C185.844 320.766 184.812 319.922 183.438 319.922ZM190.969 318.375V325.516H189.75V318.375H190.969ZM190.969 326.188V329.531H183.172V331.094H191.469V332.078H181.969V328.609H189.75V327.172H181.938V326.188H190.969ZM36.9375 350.094C36.0625 350.094 35.3438 349.375 35.3438 348.484C35.3438 347.609 36.0625 346.891 36.9375 346.891C37.8281 346.891 38.5469 347.609 38.5469 348.484C38.5469 349.375 37.8281 350.094 36.9375 350.094ZM60.4219 340.375V343.938H62.5156V344.984H60.4219V348.453H59.2031V340.375H60.4219ZM52.8594 349.062V350.547H59.2031V349.062H60.4219V354.078H51.6406V349.062H52.8594ZM52.8594 353.094H59.2031V351.516H52.8594V353.094ZM57.875 341.812V342.828H49.5938V341.812H53.125V340.25H54.3438V341.812H57.875ZM53.7344 343.469C55.7344 343.469 57.0625 344.422 57.0781 345.906C57.0625 347.391 55.7344 348.344 53.7344 348.344C51.7188 348.344 50.375 347.391 50.3906 345.906C50.375 344.422 51.7188 343.469 53.7344 343.469ZM53.7344 344.422C52.4219 344.406 51.5469 345.016 51.5625 345.906C51.5469 346.812 52.4219 347.406 53.7344 347.406C55.0312 347.406 55.9062 346.812 55.9219 345.906C55.9062 345.016 55.0312 344.406 53.7344 344.422ZM70.7188 341.328C70.7188 341.867 70.6562 342.383 70.5469 342.875H73.6719V340.391H74.9062V348.672H73.6719V346.828H69.9844V345.812H73.6719V343.891H70.2188C69.2734 346.078 67.1016 347.656 64.0938 348.484L63.6094 347.5C67 346.562 69.1484 344.695 69.4062 342.328H64.3125V341.328H70.7188ZM74.9062 349.281V354.25H73.6719V350.266H65.5625V349.281H74.9062ZM81.9219 344.641C81.9062 346.875 83.5156 349.328 85.5312 350.281L84.8281 351.25C83.2656 350.492 81.9453 348.836 81.3281 346.953C80.6875 349 79.2891 350.797 77.7344 351.594L76.9844 350.625C78.9844 349.656 80.7031 347.016 80.7188 344.641V342.828H77.4844V341.812H85.0469V342.828H81.9219V344.641ZM87.9688 340.375V346H90.2969V347.047H87.9688V354.266H86.75V340.375H87.9688ZM106.578 340.375V348.656H105.344V345.016H102.547V344H105.344V340.375H106.578ZM101.969 349.094C104.859 349.094 106.625 350.031 106.625 351.672C106.625 353.312 104.859 354.25 101.969 354.266C99.0781 354.25 97.3125 353.312 97.3125 351.672C97.3125 350.031 99.0781 349.094 101.969 349.094ZM101.969 350.047C99.8438 350.047 98.5156 350.656 98.5312 351.672C98.5156 352.672 99.8438 353.281 101.969 353.281C104.094 353.281 105.406 352.672 105.406 351.672C105.406 350.656 104.094 350.047 101.969 350.047ZM99.8906 342.922C99.8906 344.734 101.281 346.453 103.312 347.156L102.672 348.141C101.109 347.578 99.8984 346.414 99.3125 344.969C98.7031 346.602 97.4141 347.906 95.7656 348.531L95.125 347.547C97.1875 346.797 98.6562 344.922 98.6562 342.938V342.422H95.5156V341.391H103V342.422H99.8906V342.922ZM121.609 351.453V352.484H108.891V351.453H114.609V348.062H110.391V341.547H120.031V348.062H115.812V351.453H121.609ZM111.594 342.531V347.078H118.844V342.531H111.594ZM130.672 340.891C132.75 340.906 134.266 342.156 134.266 343.969C134.266 345.781 132.75 347.031 130.672 347.031C128.562 347.031 127.062 345.781 127.062 343.969C127.062 342.156 128.562 340.906 130.672 340.891ZM130.672 341.922C129.281 341.922 128.25 342.766 128.266 343.969C128.25 345.188 129.281 346.031 130.672 346.031C132.047 346.031 133.078 345.188 133.078 343.969C133.078 342.766 132.047 341.922 130.672 341.922ZM138.203 340.375V347.516H136.984V340.375H138.203ZM138.203 348.188V351.531H130.406V353.094H138.703V354.078H129.203V350.609H136.984V349.172H129.172V348.188H138.203ZM152.078 340.375V348.656H150.844V345.016H148.047V344H150.844V340.375H152.078ZM147.469 349.094C150.359 349.094 152.125 350.031 152.125 351.672C152.125 353.312 150.359 354.25 147.469 354.266C144.578 354.25 142.812 353.312 142.812 351.672C142.812 350.031 144.578 349.094 147.469 349.094ZM147.469 350.047C145.344 350.047 144.016 350.656 144.031 351.672C144.016 352.672 145.344 353.281 147.469 353.281C149.594 353.281 150.906 352.672 150.906 351.672C150.906 350.656 149.594 350.047 147.469 350.047ZM145.391 342.922C145.391 344.734 146.781 346.453 148.812 347.156L148.172 348.141C146.609 347.578 145.398 346.414 144.812 344.969C144.203 346.602 142.914 347.906 141.266 348.531L140.625 347.547C142.688 346.797 144.156 344.922 144.156 342.938V342.422H141.016V341.391H148.5V342.422H145.391V342.922ZM159.875 353.094C159.328 353.094 158.859 352.641 158.875 352.078C158.859 351.531 159.328 351.078 159.875 351.078C160.422 351.078 160.875 351.531 160.875 352.078C160.875 352.641 160.422 353.094 159.875 353.094ZM159.875 346.812C159.328 346.812 158.859 346.359 158.875 345.797C158.859 345.25 159.328 344.797 159.875 344.797C160.422 344.797 160.875 345.25 160.875 345.797C160.875 346.359 160.422 346.812 159.875 346.812ZM170.984 341.688V353H169.562V343.156H169.5L166.75 344.984V343.562L169.562 341.688H170.984ZM178 341.688V353H176.578V343.156H176.516L173.766 344.984V343.562L176.578 341.688H178ZM191.969 340.391V348.578H190.734V347.812H187.922V347H190.734V340.391H191.969ZM180.469 345.625C183.156 345.641 186.594 345.609 189.594 345.281L189.672 346.078C188.312 346.273 186.898 346.391 185.516 346.453V348.625H184.312V346.5C183 346.547 181.742 346.555 180.609 346.547L180.469 345.625ZM191.969 349.078V351.953H183.859V353.203H192.422V354.109H182.656V351.094H190.75V349.969H182.594V349.078H191.969ZM185 340.656C187.062 340.656 188.438 341.469 188.453 342.75C188.438 344.047 187.062 344.828 185 344.828C182.906 344.828 181.547 344.047 181.547 342.75C181.547 341.469 182.906 340.656 185 340.656ZM185 341.516C183.594 341.516 182.688 342 182.703 342.75C182.688 343.484 183.594 343.984 185 343.984C186.391 343.984 187.297 343.484 187.297 342.75C187.297 342 186.391 341.516 185 341.516ZM198.859 353L198.844 351.969L202.703 347.906C204.047 346.484 204.688 345.719 204.688 344.672C204.688 343.516 203.703 342.75 202.438 342.75C201.094 342.75 200.234 343.609 200.234 344.875H198.906C198.891 342.875 200.438 341.531 202.484 341.531C204.531 341.531 206 342.906 206 344.672C206 345.938 205.406 346.922 203.406 348.984L200.812 351.656V351.75H206.203V353H198.859ZM212.156 353.156C209.906 353.156 208.297 351.953 208.219 350.156H209.641C209.719 351.234 210.797 351.906 212.141 351.906C213.625 351.906 214.719 351.094 214.719 349.922C214.719 348.688 213.734 347.812 211.969 347.812H211.047V346.578H211.969C213.344 346.578 214.297 345.812 214.297 344.641C214.297 343.516 213.469 342.75 212.188 342.75C210.984 342.75 209.875 343.422 209.812 344.531H208.453C208.531 342.734 210.188 341.531 212.203 341.531C214.359 341.531 215.672 342.938 215.656 344.562C215.672 345.844 214.922 346.797 213.734 347.125V347.203C215.203 347.438 216.109 348.484 216.094 349.922C216.109 351.781 214.406 353.156 212.156 353.156ZM221.562 340.891C223.641 340.906 225.156 342.156 225.156 343.969C225.156 345.781 223.641 347.031 221.562 347.031C219.453 347.031 217.953 345.781 217.953 343.969C217.953 342.156 219.453 340.906 221.562 340.891ZM221.562 341.922C220.172 341.922 219.141 342.766 219.156 343.969C219.141 345.188 220.172 346.031 221.562 346.031C222.938 346.031 223.969 345.188 223.969 343.969C223.969 342.766 222.938 341.922 221.562 341.922ZM229.094 340.375V347.516H227.875V340.375H229.094ZM229.094 348.188V351.531H221.297V353.094H229.594V354.078H220.094V350.609H227.875V349.172H220.062V348.188H229.094Z" fill="white"/>
<path d="M45.1562 164.672H25.6328V162.211H33.8594V157.852H27.6953V147.398H42.9766V157.852H36.8359V162.211H45.1562V164.672ZM40.0234 155.508V149.789H30.6484V155.508H40.0234ZM58.9844 149.391H54.707C54.7539 150.172 54.9727 150.918 55.3633 151.629C55.7539 152.34 56.3242 152.973 57.0742 153.527C57.8242 154.082 58.7344 154.508 59.8047 154.805L58.3047 157.125C57.1172 156.781 56.0938 156.266 55.2344 155.578C54.375 154.883 53.6953 154.059 53.1953 153.105C52.7031 154.145 52.0117 155.043 51.1211 155.801C50.2383 156.559 49.1797 157.125 47.9453 157.5L46.4453 155.156C47.5391 154.844 48.4648 154.391 49.2227 153.797C49.9883 153.203 50.5703 152.527 50.9688 151.77C51.3672 151.012 51.5898 150.219 51.6367 149.391H47.2656V147H58.9844V149.391ZM49.9609 158.297H52.9141V160.289H61.2578V158.297H64.2344V166.922H49.9609V158.297ZM61.2578 164.531V162.609H52.9141V164.531H61.2578ZM61.2344 145.828H64.2344V157.406H61.2344V145.828Z" fill="white"/>
<path d="M280.562 167.156H277.539V145.828H280.562V167.156ZM262.703 161.109C264.523 160.25 266.023 159.293 267.203 158.238C268.391 157.184 269.297 156.016 269.922 154.734C270.555 153.445 270.953 152 271.117 150.398H263.852V148.055H274.164C274.156 150.336 273.848 152.41 273.238 154.277C272.629 156.145 271.594 157.859 270.133 159.422C268.68 160.984 266.727 162.344 264.273 163.5L262.703 161.109ZM300.297 151.805H303.18V154.266H300.297V161.109H297.273V145.828H300.297V151.805ZM283.234 156.656C285.594 156 287.449 155.086 288.801 153.914C290.16 152.734 290.957 151.383 291.191 149.859H284.172V147.422H294.484C294.484 149.328 294.094 151.047 293.312 152.578C292.539 154.102 291.406 155.406 289.914 156.492C288.422 157.578 286.609 158.422 284.477 159.023L283.234 156.656ZM286.422 159.539H289.445V164.391H301.023V166.781H286.422V159.539Z" fill="white"/>
<line x1="85" y1="157.57" x2="245" y2="157.57" stroke="url(#paint0_linear_864_44)" stroke-width="0.860526"/>
<rect x="1.43026" y="420.43" width="326.139" height="264.139" rx="19.5697" stroke="white" stroke-width="0.860526"/>
<path d="M270.906 456.641C270.898 457.82 271.098 458.98 271.504 460.121C271.91 461.254 272.516 462.277 273.32 463.191C274.125 464.098 275.102 464.789 276.25 465.266L274.633 467.609C273.414 467.094 272.367 466.34 271.492 465.348C270.617 464.348 269.93 463.18 269.43 461.844C268.93 463.289 268.234 464.562 267.344 465.664C266.461 466.758 265.406 467.586 264.18 468.148L262.469 465.781C263.609 465.273 264.582 464.535 265.387 463.566C266.199 462.598 266.809 461.512 267.215 460.309C267.629 459.098 267.836 457.875 267.836 456.641V455.328H263.312V452.891H275.359V455.328H270.906V456.641ZM277.469 450.828H280.492V472.156H277.469V450.828ZM301.445 466.953H298.445V465.266H294.367V463.227H298.445V450.852H301.445V466.953ZM283.305 460.297C285.984 460.281 288.438 460.234 290.664 460.156C292.891 460.07 295 459.906 296.992 459.664L297.156 461.797C295.531 462.07 293.812 462.273 292 462.406V466.461H289V469.391H301.914V471.781H286.023V465.406H289V462.582C287.516 462.637 285.734 462.664 283.656 462.664L283.305 460.297ZM284.875 455.398C284.875 454.648 285.102 453.984 285.555 453.406C286.008 452.828 286.641 452.379 287.453 452.059C288.266 451.738 289.195 451.578 290.242 451.578C291.266 451.578 292.18 451.738 292.984 452.059C293.789 452.379 294.418 452.828 294.871 453.406C295.332 453.984 295.562 454.648 295.562 455.398C295.562 456.148 295.332 456.809 294.871 457.379C294.418 457.949 293.789 458.387 292.984 458.691C292.18 458.996 291.266 459.148 290.242 459.148C289.188 459.148 288.254 458.996 287.441 458.691C286.637 458.387 286.008 457.949 285.555 457.379C285.102 456.809 284.875 456.148 284.875 455.398ZM287.711 455.398C287.703 455.906 287.93 456.301 288.391 456.582C288.859 456.855 289.492 456.992 290.289 456.992C291.008 456.992 291.59 456.852 292.035 456.57C292.488 456.289 292.719 455.898 292.727 455.398C292.719 454.883 292.484 454.48 292.023 454.191C291.57 453.902 290.977 453.758 290.242 453.758C289.469 453.758 288.852 453.902 288.391 454.191C287.93 454.48 287.703 454.883 287.711 455.398Z" fill="white"/>
<path d="M33.5078 456.641C33.5 457.758 33.6953 458.879 34.0938 460.004C34.4922 461.129 35.082 462.156 35.8633 463.086C36.6523 464.016 37.6094 464.742 38.7344 465.266L37.0703 467.609C35.9219 467.078 34.9219 466.309 34.0703 465.301C33.2188 464.285 32.543 463.113 32.043 461.785C31.5508 463.238 30.8633 464.523 29.9805 465.641C29.1055 466.75 28.0703 467.586 26.875 468.148L25.1406 465.781C26.2812 465.25 27.2539 464.496 28.0586 463.52C28.8633 462.543 29.4688 461.457 29.875 460.262C30.2891 459.059 30.5 457.852 30.5078 456.641V455.328H25.9844V452.891H37.7969V455.328H33.5078V456.641ZM39.4609 450.828H42.4609V458.961H45.6016V461.469H42.4609V472.156H39.4609V450.828ZM57.7891 452.164C57.7891 452.93 57.7266 453.641 57.6016 454.297H61.375V450.852H64.3516V463.508H61.375V461.188H56.5234V458.797H61.375V456.641H56.9102C56.1992 458.289 55.0664 459.691 53.5117 460.848C51.9648 461.996 50.0391 462.875 47.7344 463.484L46.6094 461.094C48.9688 460.492 50.8242 459.625 52.1758 458.492C53.5352 457.352 54.3359 456.047 54.5781 454.578H47.8281V452.164H57.7891ZM49.7031 464.375H64.3516V472.109H61.375V466.719H49.7031V464.375Z" fill="white"/>
<path d="M36.9375 554.094C36.0625 554.094 35.3438 553.375 35.3438 552.484C35.3438 551.609 36.0625 550.891 36.9375 550.891C37.8281 550.891 38.5469 551.609 38.5469 552.484C38.5469 553.375 37.8281 554.094 36.9375 554.094ZM54.5625 546.672C54.5625 548.484 56.0781 550.094 58.1406 550.719L57.5156 551.688C55.8906 551.172 54.5859 550.055 53.9531 548.625C53.3438 550.156 52.0312 551.352 50.375 551.922L49.7344 550.953C51.8281 550.297 53.3281 548.578 53.3281 546.672V546.312H50.0781V545.312H57.7656V546.312H54.5625V546.672ZM61.0312 544.375V551.891H59.8125V544.375H61.0312ZM53.25 552.578V554.266H59.8125V552.578H61.0312V558.078H52.0312V552.578H53.25ZM53.25 557.078H59.8125V555.25H53.25V557.078ZM76.0469 550.875V551.891H70.3125V553.375C72.9375 553.484 74.4844 554.344 74.5 555.812C74.4844 557.359 72.7031 558.234 69.7188 558.234C66.7031 558.234 64.9219 557.359 64.9219 555.812C64.9219 554.344 66.4609 553.484 69.1094 553.375V551.891H63.3906V550.875H76.0469ZM69.7188 554.312C67.4844 554.328 66.1562 554.875 66.1719 555.812C66.1562 556.734 67.4844 557.281 69.7188 557.281C71.9219 557.281 73.2656 556.734 73.2656 555.812C73.2656 554.875 71.9219 554.328 69.7188 554.312ZM74.9219 545.031V546.031H70.5156C70.5938 547.594 72.8906 548.805 75.3438 549.062L74.8906 550.031C72.6172 549.758 70.4844 548.742 69.7188 547.188C68.9609 548.742 66.8359 549.758 64.5469 550.031L64.1094 549.062C66.5156 548.805 68.8281 547.594 68.9219 546.031H64.5469V545.031H74.9219ZM88.6719 544.375V558.297H87.4375V544.375H88.6719ZM81.2812 545.453C83.3438 545.469 84.8281 547.344 84.8281 550.297C84.8281 553.25 83.3438 555.125 81.2812 555.125C79.2031 555.125 77.7344 553.25 77.7344 550.297C77.7344 547.344 79.2031 545.469 81.2812 545.453ZM81.2812 546.547C79.8906 546.562 78.9219 548.031 78.9219 550.297C78.9219 552.562 79.8906 554.031 81.2812 554.031C82.6719 554.031 83.6406 552.562 83.6406 550.297C83.6406 548.031 82.6719 546.562 81.2812 546.547ZM98.0156 545.672C98.0156 547.625 100.578 549.328 103.078 549.672L102.578 550.672C100.422 550.312 98.2891 549.117 97.3906 547.406C96.5 549.125 94.3594 550.312 92.2031 550.672L91.7031 549.672C94.2031 549.328 96.75 547.656 96.75 545.672V544.875H98.0156V545.672ZM103.703 552.203V553.234H97.9531V558.266H96.75V553.234H91.0469V552.203H103.703ZM117.578 550.828V551.797H104.859V550.828H117.578ZM115.984 552.906V555.859H107.641V557.188H116.438V558.078H106.406V555.016H114.766V553.828H106.391V552.906H115.984ZM115.938 544.797V547.672H107.734V548.891H116.188V549.781H106.516V546.828H114.703V545.688H106.469V544.797H115.938ZM127.297 545.062C129.375 545.047 130.859 546.188 130.859 547.891C130.859 549.578 129.375 550.75 127.297 550.734C125.219 550.75 123.734 549.578 123.734 547.891C123.734 546.188 125.219 545.047 127.297 545.062ZM127.297 546.062C125.906 546.047 124.922 546.812 124.938 547.891C124.922 548.984 125.906 549.734 127.297 549.719C128.703 549.734 129.688 548.984 129.688 547.891C129.688 546.812 128.703 546.047 127.297 546.062ZM134.172 544.391V558.281H132.969V544.391H134.172ZM122.688 551.922C125.297 551.922 128.859 551.875 131.953 551.422L132.031 552.344C130.703 552.586 129.32 552.734 127.984 552.812V557.844H126.766V552.891C125.352 552.953 124.016 552.961 122.859 552.969L122.688 551.922ZM147.406 544.391V548.969H149.5V550H147.406V554.797H146.188V544.391H147.406ZM144.859 546.094V547.094H136.578V546.094H140.109V544.391H141.328V546.094H144.859ZM140.719 547.859C142.703 547.859 144.047 548.875 144.062 550.453C144.047 552.016 142.703 553.016 140.719 553.016C138.719 553.016 137.359 552.016 137.375 550.453C137.359 548.875 138.719 547.859 140.719 547.859ZM140.719 548.828C139.406 548.828 138.531 549.469 138.547 550.453C138.531 551.438 139.406 552.062 140.719 552.047C142.016 552.062 142.891 551.438 142.906 550.453C142.891 549.469 142.016 548.828 140.719 548.828ZM148.047 556.938V557.969H138.719V553.969H139.922V556.938H148.047ZM161.438 545.891C161.438 546.68 161.367 547.453 161.219 548.203H164.672V544.359H165.891V558.266H164.672V552.922H160.75V551.906H164.672V549.203H160.969C160.164 551.781 158.328 554.047 155.047 555.641L154.406 554.641C158.109 552.852 159.945 550.172 160.203 546.891H155.016V545.891H161.438ZM174.547 544.547C177.641 544.547 179.453 545.406 179.453 546.953C179.453 548.516 177.641 549.359 174.547 549.375C171.453 549.359 169.625 548.516 169.625 546.953C169.625 545.406 171.453 544.547 174.547 544.547ZM174.547 545.484C172.234 545.5 170.891 546.031 170.906 546.953C170.891 547.906 172.234 548.422 174.547 548.438C176.844 548.422 178.203 547.906 178.203 546.953C178.203 546.031 176.844 545.5 174.547 545.484ZM180.875 550.297V551.281H175.141V552.594H179.25V555.703H171V557.141H179.672V558.109H169.781V554.797H178.047V553.531H169.75V552.594H173.922V551.281H168.219V550.297H180.875ZM188.453 553.109C191.312 553.109 193.031 554.047 193.031 555.672C193.031 557.312 191.312 558.25 188.453 558.266C185.594 558.25 183.844 557.312 183.844 555.672C183.844 554.047 185.594 553.109 188.453 553.109ZM188.453 554.078C186.359 554.094 185.062 554.672 185.078 555.672C185.062 556.672 186.359 557.266 188.453 557.266C190.562 557.266 191.844 556.672 191.844 555.672C191.844 554.672 190.562 554.094 188.453 554.078ZM192.906 544.375V547.875H195V548.922H192.906V552.734H191.688V544.375H192.906ZM183.844 545.25V547.375H187.891V545.25H189.109V551.656H182.641V545.25H183.844ZM183.844 550.656H187.891V548.344H183.844V550.656ZM204.188 545.875V546.875H195.906V545.875H199.438V544.312H200.656V545.875H204.188ZM200.047 547.594C202.047 547.609 203.375 548.578 203.391 550.109C203.375 551.625 202.047 552.609 200.047 552.609C198.047 552.609 196.688 551.625 196.703 550.109C196.688 548.578 198.047 547.609 200.047 547.594ZM200.047 548.547C198.734 548.562 197.859 549.172 197.875 550.109C197.859 551.031 198.734 551.625 200.047 551.625C201.344 551.625 202.219 551.031 202.234 550.109C202.219 549.172 201.344 548.562 200.047 548.547ZM206.734 544.375V548.234H208.828V549.266H206.734V553.062H205.516V544.375H206.734ZM206.734 553.828V558.266H205.516V554.828H197.641V553.828H206.734ZM224.578 544.375V547.938H226.672V548.984H224.578V552.453H223.359V544.375H224.578ZM217.016 553.062V554.547H223.359V553.062H224.578V558.078H215.797V553.062H217.016ZM217.016 557.094H223.359V555.516H217.016V557.094ZM222.031 545.812V546.828H213.75V545.812H217.281V544.25H218.5V545.812H222.031ZM217.891 547.469C219.891 547.469 221.219 548.422 221.234 549.906C221.219 551.391 219.891 552.344 217.891 552.344C215.875 552.344 214.531 551.391 214.547 549.906C214.531 548.422 215.875 547.469 217.891 547.469ZM217.891 548.422C216.578 548.406 215.703 549.016 215.719 549.906C215.703 550.812 216.578 551.406 217.891 551.406C219.188 551.406 220.062 550.812 220.078 549.906C220.062 549.016 219.188 548.406 217.891 548.422ZM234.516 545.219C234.516 546.984 237.047 548.531 239.484 548.891L239 549.844C236.867 549.5 234.766 548.391 233.891 546.812C233 548.406 230.883 549.5 228.75 549.844L228.281 548.891C230.734 548.531 233.25 547.016 233.25 545.219V544.562H234.516V545.219ZM240.203 550.953V551.969H234.469V553.75H238.641V558.266H237.406V554.75H228.953V553.75H233.266V551.969H227.547V550.953H240.203ZM252.828 544.375V558.297H251.594V544.375H252.828ZM245.438 545.453C247.5 545.469 248.984 547.344 248.984 550.297C248.984 553.25 247.5 555.125 245.438 555.125C243.359 555.125 241.891 553.25 241.891 550.297C241.891 547.344 243.359 545.469 245.438 545.453ZM245.438 546.547C244.047 546.562 243.078 548.031 243.078 550.297C243.078 552.562 244.047 554.031 245.438 554.031C246.828 554.031 247.797 552.562 247.797 550.297C247.797 548.031 246.828 546.562 245.438 546.547ZM60.4062 566.375V572.031H62.6562V573.062H60.4062V580.266H59.1875V566.375H60.4062ZM56.8125 567.875C56.8125 571.812 54.9688 575.391 50.4375 577.625L49.75 576.656C53.3438 574.867 55.2969 572.195 55.5781 568.906H50.3906V567.875H56.8125ZM74.7031 570.266V571.281H65.2188V566.656H66.4375V570.266H74.7031ZM76.1562 572.906V573.922H63.4844V572.906H76.1562ZM69.8125 575.172C72.7969 575.172 74.5781 576.078 74.5938 577.688C74.5781 579.297 72.7969 580.203 69.8125 580.203C66.8125 580.203 65.0156 579.297 65.0156 577.688C65.0156 576.078 66.8125 575.172 69.8125 575.172ZM69.8125 576.141C67.5781 576.156 66.25 576.703 66.2656 577.688C66.25 578.656 67.5781 579.25 69.8125 579.25C72.0156 579.25 73.3594 578.656 73.3594 577.688C73.3594 576.703 72.0156 576.156 69.8125 576.141ZM88.1719 566.391V570.969H90.2656V572H88.1719V576.797H86.9531V566.391H88.1719ZM85.625 568.094V569.094H77.3438V568.094H80.875V566.391H82.0938V568.094H85.625ZM81.4844 569.859C83.4688 569.859 84.8125 570.875 84.8281 572.453C84.8125 574.016 83.4688 575.016 81.4844 575.016C79.4844 575.016 78.125 574.016 78.1406 572.453C78.125 570.875 79.4844 569.859 81.4844 569.859ZM81.4844 570.828C80.1719 570.828 79.2969 571.469 79.3125 572.453C79.2969 573.438 80.1719 574.062 81.4844 574.047C82.7812 574.062 83.6562 573.438 83.6719 572.453C83.6562 571.469 82.7812 570.828 81.4844 570.828ZM88.8125 578.938V579.969H79.4844V575.969H80.6875V578.938H88.8125ZM99.8125 570.109C99.8125 572.562 101.438 575.078 103.406 576.047L102.656 577.031C101.125 576.227 99.8438 574.586 99.2344 572.656C98.6094 574.711 97.2969 576.461 95.7344 577.297L94.9531 576.312C96.9844 575.312 98.5938 572.641 98.6094 570.109V567.578H99.8125V570.109ZM105.906 566.375V572.016H108.234V573.078H105.906V580.266H104.688V566.375H105.906ZM119.844 566.391V569.953H121.953V571H119.844V574.672H118.625V566.391H119.844ZM119.844 575.359V580.078H111.047V575.359H119.844ZM112.25 576.312V579.078H118.656V576.312H112.25ZM115.875 567.141V570.938H110.812V572.906C113.281 572.906 115.07 572.836 117.234 572.484L117.359 573.469C115.125 573.859 113.266 573.938 110.688 573.938H109.609V569.984H114.672V568.156H109.578V567.141H115.875ZM36.9375 598.094C36.0625 598.094 35.3438 597.375 35.3438 596.484C35.3438 595.609 36.0625 594.891 36.9375 594.891C37.8281 594.891 38.5469 595.609 38.5469 596.484C38.5469 597.375 37.8281 598.094 36.9375 598.094ZM53.2812 589.453C55.3281 589.469 56.7812 591.344 56.7969 594.297C56.7812 597.25 55.3281 599.125 53.2812 599.125C51.2188 599.125 49.7812 597.25 49.7812 594.297C49.7812 591.344 51.2188 589.469 53.2812 589.453ZM53.2812 590.547C51.9062 590.562 50.9375 592.031 50.9375 594.297C50.9375 596.562 51.9062 598.031 53.2812 598.031C54.6719 598.031 55.6094 596.562 55.6094 594.297C55.6094 592.031 54.6719 590.562 53.2812 590.547ZM60.3125 588.375V593.922H62.6406V594.984H60.3125V602.266H59.0938V588.375H60.3125ZM74.8438 588.375V602.297H73.6094V588.375H74.8438ZM67.4531 589.453C69.5156 589.469 71 591.344 71 594.297C71 597.25 69.5156 599.125 67.4531 599.125C65.375 599.125 63.9062 597.25 63.9062 594.297C63.9062 591.344 65.375 589.469 67.4531 589.453ZM67.4531 590.547C66.0625 590.562 65.0938 592.031 65.0938 594.297C65.0938 596.562 66.0625 598.031 67.4531 598.031C68.8438 598.031 69.8125 596.562 69.8125 594.297C69.8125 592.031 68.8438 590.562 67.4531 590.547ZM88.6719 588.375V602.297H87.4375V588.375H88.6719ZM84.7344 589.703V590.734H79.3594V597.781C82.0625 597.781 83.8438 597.695 85.9219 597.328L86.0469 598.359C83.8906 598.75 82.0625 598.828 79.25 598.844H78.125V589.703H84.7344ZM94.7812 589.453C96.6719 589.469 98.0312 591.086 98.2344 593.688H101.344V588.375H102.562V602.297H101.344V594.703H98.25C98.1016 597.422 96.7188 599.125 94.7812 599.125C92.7344 599.125 91.2969 597.25 91.2969 594.297C91.2969 591.344 92.7344 589.469 94.7812 589.453ZM94.7812 590.547C93.4062 590.562 92.4688 592.031 92.4688 594.297C92.4688 596.562 93.4062 598.031 94.7812 598.031C96.1406 598.031 97.0938 596.562 97.0938 594.297C97.0938 592.031 96.1406 590.562 94.7812 590.547ZM117.578 594.828V595.797H104.859V594.828H117.578ZM115.984 596.906V599.859H107.641V601.188H116.438V602.078H106.406V599.016H114.766V597.828H106.391V596.906H115.984ZM115.938 588.797V591.672H107.734V592.891H116.188V593.781H106.516V590.828H114.703V589.688H106.469V588.797H115.938ZM134.172 588.375V595.578H132.969V588.375H134.172ZM134.188 596.281V599.609H126.391V601.109H134.688V602.109H125.188V598.656H132.969V597.266H125.156V596.281H134.188ZM127.641 589.844C127.625 591.812 129.125 593.547 131.188 594.219L130.578 595.172C128.953 594.617 127.656 593.453 127.031 591.953C126.406 593.57 125.102 594.844 123.453 595.438L122.812 594.469C124.906 593.734 126.391 591.891 126.391 589.844V588.781H127.641V589.844ZM148.062 588.391V598.984H146.828V596H144.422V595H146.828V593.109H144.422V592.094H146.828V588.391H148.062ZM144.422 590.094V591.094H136.562V590.094H139.938V588.375H141.156V590.094H144.422ZM140.531 591.859C142.391 591.859 143.703 592.922 143.703 594.516C143.703 596.094 142.391 597.172 140.531 597.172C138.672 597.172 137.375 596.094 137.391 594.516C137.375 592.922 138.672 591.859 140.531 591.859ZM140.531 592.828C139.344 592.844 138.531 593.516 138.531 594.516C138.531 595.516 139.344 596.188 140.531 596.188C141.719 596.188 142.531 595.516 142.547 594.516C142.531 593.516 141.719 592.844 140.531 592.828ZM148.375 600.938V601.969H139.078V598.047H140.312V600.938H148.375ZM155.312 592.109C155.297 594.641 157.031 597.203 159.078 598.125L158.328 599.094C156.75 598.32 155.383 596.688 154.719 594.703C154.07 596.805 152.703 598.555 151.078 599.375L150.297 598.344C152.359 597.391 154.078 594.75 154.094 592.109V589.578H155.312V592.109ZM161.828 588.375V602.297H160.594V588.375H161.828ZM171.656 589.828C171.641 593.844 170.188 597.547 165.172 600L164.484 599.016C167.086 597.766 168.695 596.164 169.578 594.281L164.75 594.75L164.547 593.656L169.969 593.297C170.219 592.523 170.367 591.703 170.422 590.844H165.25V589.828H171.656ZM175.688 588.375V602.266H174.453V588.375H175.688ZM189.531 588.375V602.297H188.312V596.375H185.422V595.344H188.312V592.578H185.531V591.547H188.312V588.375H189.531ZM184.625 589.641V594.578H179.781V598C181.867 597.992 183.594 597.914 185.703 597.594L185.812 598.625C183.594 598.969 181.812 599.047 179.594 599.047H178.562V593.578H183.422V590.656H178.516V589.641H184.625ZM203.094 592.594V593.578H193.578V588.891H194.797V592.594H203.094ZM204.562 595.469V596.469H191.844V595.469H204.562ZM203.172 600.906V601.922H193.5V597.891H194.719V600.906H203.172ZM53.4844 610.875C54.7031 610.875 55.7344 611.328 56.375 612.078H59.9375V610.375H61.1562V617.516H59.9375V615.922H56.4219C55.7734 616.703 54.7266 617.172 53.4844 617.172C51.3906 617.172 49.875 615.891 49.875 614.016C49.875 612.156 51.3906 610.875 53.4844 610.875ZM53.4844 611.891C52.0625 611.875 51.0469 612.766 51.0469 614.016C51.0469 615.281 52.0625 616.172 53.4844 616.188C54.8594 616.172 55.8906 615.281 55.8906 614.016C55.8906 612.766 54.8594 611.875 53.4844 611.891ZM61.1562 618.219V621.547H53.4062V623.094H61.6875V624.078H52.1875V620.609H59.9375V619.203H52.1562V618.219H61.1562ZM56.9375 613.062C57.0234 613.359 57.0781 613.68 57.0781 614.016C57.0781 614.344 57.0234 614.648 56.9375 614.938H59.9375V613.062H56.9375ZM75 610.375V618.656H73.7656V615.016H70.9688V614H73.7656V610.375H75ZM70.3906 619.094C73.2812 619.094 75.0469 620.031 75.0469 621.672C75.0469 623.312 73.2812 624.25 70.3906 624.266C67.5 624.25 65.7344 623.312 65.7344 621.672C65.7344 620.031 67.5 619.094 70.3906 619.094ZM70.3906 620.047C68.2656 620.047 66.9375 620.656 66.9531 621.672C66.9375 622.672 68.2656 623.281 70.3906 623.281C72.5156 623.281 73.8281 622.672 73.8281 621.672C73.8281 620.656 72.5156 620.047 70.3906 620.047ZM68.3125 612.922C68.3125 614.734 69.7031 616.453 71.7344 617.156L71.0938 618.141C69.5312 617.578 68.3203 616.414 67.7344 614.969C67.125 616.602 65.8359 617.906 64.1875 618.531L63.5469 617.547C65.6094 616.797 67.0781 614.922 67.0781 612.938V612.422H63.9375V611.391H71.4219V612.422H68.3125V612.922ZM83.6406 610.625C86.7344 610.625 88.5469 611.469 88.5469 613.016C88.5469 614.594 86.7344 615.438 83.6406 615.453C80.5469 615.438 78.7188 614.594 78.7188 613.016C78.7188 611.469 80.5469 610.625 83.6406 610.625ZM83.6406 611.547C81.3281 611.547 79.9844 612.109 80 613.016C79.9844 613.984 81.3281 614.516 83.6406 614.516C85.9375 614.516 87.2969 613.984 87.2969 613.016C87.2969 612.109 85.9375 611.547 83.6406 611.547ZM89.9688 616.391V617.391H77.3125V616.391H89.9688ZM88.3438 618.594V621.703H80.0938V623.141H88.7656V624.109H78.875V620.797H87.1406V619.531H78.8438V618.594H88.3438ZM105.906 610.375V616.031H108.156V617.062H105.906V624.266H104.688V610.375H105.906ZM102.312 611.875C102.312 615.812 100.469 619.391 95.9375 621.625L95.25 620.656C98.8438 618.867 100.797 616.195 101.078 612.906H95.8906V611.875H102.312ZM113.984 613.359C113.984 615.234 115.469 616.922 117.547 617.578L116.922 618.562C115.305 618.016 114.016 616.875 113.391 615.406C112.781 616.992 111.477 618.242 109.828 618.844L109.188 617.859C111.266 617.125 112.75 615.328 112.75 613.359V612.547H109.5V611.547H117.188V612.547H113.984V613.359ZM120.453 610.391V620.578H119.234V610.391H120.453ZM120.891 622.938V623.969H111.484V619.609H112.703V622.938H120.891ZM138.703 610.375V624.266H137.531V616.984H135.484V623.547H134.359V610.688H135.484V615.969H137.531V610.375H138.703ZM132.547 612.078V613.094H128.562V619.781C130.477 619.773 131.805 619.703 133.344 619.391L133.453 620.422C131.781 620.766 130.359 620.828 128.234 620.828H127.344V612.078H132.547ZM148.969 611.875V612.875H140.688V611.875H144.219V610.312H145.438V611.875H148.969ZM144.828 613.594C146.828 613.609 148.156 614.578 148.172 616.109C148.156 617.625 146.828 618.609 144.828 618.609C142.828 618.609 141.469 617.625 141.484 616.109C141.469 614.578 142.828 613.609 144.828 613.594ZM144.828 614.547C143.516 614.562 142.641 615.172 142.656 616.109C142.641 617.031 143.516 617.625 144.828 617.625C146.125 617.625 147 617.031 147.016 616.109C147 615.172 146.125 614.562 144.828 614.547ZM151.516 610.375V614.234H153.609V615.266H151.516V619.062H150.297V610.375H151.516ZM151.516 619.828V624.266H150.297V620.828H142.422V619.828H151.516ZM158.625 613.141C158.625 614.672 159.703 616.234 161.484 616.906L160.844 617.844C159.508 617.328 158.547 616.336 158.047 615.141C157.531 616.469 156.539 617.648 155.172 618.234L154.5 617.281C156.328 616.484 157.453 614.688 157.453 613.141V611.25H158.625V613.141ZM166.281 610.391V618.969H165.109V615.141H163.266V618.531H162.109V610.656H163.266V614.125H165.109V610.391H166.281ZM161.688 619.281C164.562 619.281 166.359 620.188 166.359 621.766C166.359 623.328 164.562 624.234 161.688 624.234C158.797 624.234 157.016 623.328 157.031 621.766C157.016 620.188 158.797 619.281 161.688 619.281ZM161.688 620.219C159.562 620.219 158.234 620.797 158.25 621.766C158.234 622.719 159.562 623.281 161.688 623.281C163.797 623.281 165.125 622.719 165.141 621.766C165.125 620.797 163.797 620.219 161.688 620.219ZM36.9375 642.094C36.0625 642.094 35.3438 641.375 35.3438 640.484C35.3438 639.609 36.0625 638.891 36.9375 638.891C37.8281 638.891 38.5469 639.609 38.5469 640.484C38.5469 641.375 37.8281 642.094 36.9375 642.094ZM50.0625 645L50.0469 643.969L53.9062 639.906C55.25 638.484 55.8906 637.719 55.8906 636.672C55.8906 635.516 54.9062 634.75 53.6406 634.75C52.2969 634.75 51.4375 635.609 51.4375 636.875H50.1094C50.0938 634.875 51.6406 633.531 53.6875 633.531C55.7344 633.531 57.2031 634.906 57.2031 636.672C57.2031 637.938 56.6094 638.922 54.6094 640.984L52.0156 643.656V643.75H57.4062V645H50.0625ZM59.1719 642.688V641.531L64.2656 633.688H66V641.453H67.5781V642.688H66V645H64.6562V642.688H59.1719ZM60.6875 641.453H64.6562V635.469H64.5156L60.6875 641.359V641.453ZM80.4531 632.391V642.672H79.2188V637.859H75.2188V636.875H79.2188V635.203H75.2188V634.219H79.2188V632.391H80.4531ZM80.8281 644.938V645.969H71.5V641.797H72.7344V644.938H80.8281ZM71 633.391V639.562C72.9141 639.555 74.7578 639.453 76.875 639.062L77 640.078C74.7344 640.5 72.8438 640.594 70.8125 640.609H69.7656V633.391H71ZM93.9844 638.891V639.891H89.6875V643.484H95.4844V644.516H82.7656V643.484H88.4844V639.891H84.3906V633.516H93.8438V634.516H85.625V638.891H93.9844ZM112.094 632.375V646.266H110.859V632.375H112.094ZM107.984 633.891C107.969 637.891 106.109 641.422 101.453 643.656L100.781 642.656C104.539 640.875 106.453 638.211 106.734 634.891H101.422V633.891H107.984ZM121.562 634.109C121.547 635.812 123.891 637.203 126.344 637.547L125.859 638.516C123.617 638.195 121.523 637.07 120.766 635.438C120.016 637.07 117.93 638.195 115.672 638.516L115.219 637.547C117.672 637.203 119.969 635.812 119.969 634.109V634.078H115.594V633.078H125.969V634.078H121.562V634.109ZM127.141 639.531V640.547H121.484V643.391H120.266V640.547H114.422V639.531H127.141ZM125.719 644.938V645.969H116.047V642H117.281V644.938H125.719ZM144.219 632.375V646.266H143.031V639.047H141.141V645.562H139.969V632.672H141.141V638H143.031V632.375H144.219ZM136.391 636.172C136.391 638.719 137.438 640.953 139.422 641.969L138.688 642.922C137.281 642.156 136.32 640.781 135.828 639.078C135.352 641.016 134.375 642.531 132.906 643.391L132.141 642.453C134.141 641.359 135.203 638.984 135.203 636.172V635.062H132.469V634.031H138.969V635.062H136.391V636.172ZM154.422 633.875V634.875H146.141V633.875H149.672V632.312H150.891V633.875H154.422ZM150.281 635.594C152.281 635.609 153.609 636.578 153.625 638.109C153.609 639.625 152.281 640.609 150.281 640.609C148.281 640.609 146.922 639.625 146.938 638.109C146.922 636.578 148.281 635.609 150.281 635.594ZM150.281 636.547C148.969 636.562 148.094 637.172 148.109 638.109C148.094 639.031 148.969 639.625 150.281 639.625C151.578 639.625 152.453 639.031 152.469 638.109C152.453 637.172 151.578 636.562 150.281 636.547ZM156.969 632.375V636.234H159.062V637.266H156.969V641.062H155.75V632.375H156.969ZM156.969 641.828V646.266H155.75V642.828H147.875V641.828H156.969ZM164.078 635.141C164.078 636.672 165.156 638.234 166.938 638.906L166.297 639.844C164.961 639.328 164 638.336 163.5 637.141C162.984 638.469 161.992 639.648 160.625 640.234L159.953 639.281C161.781 638.484 162.906 636.688 162.906 635.141V633.25H164.078V635.141ZM171.734 632.391V640.969H170.562V637.141H168.719V640.531H167.562V632.656H168.719V636.125H170.562V632.391H171.734ZM167.141 641.281C170.016 641.281 171.812 642.188 171.812 643.766C171.812 645.328 170.016 646.234 167.141 646.234C164.25 646.234 162.469 645.328 162.484 643.766C162.469 642.188 164.25 641.281 167.141 641.281ZM167.141 642.219C165.016 642.219 163.688 642.797 163.703 643.766C163.688 644.719 165.016 645.281 167.141 645.281C169.25 645.281 170.578 644.719 170.594 643.766C170.578 642.797 169.25 642.219 167.141 642.219ZM185.031 633.281V638.938H178.516V633.281H185.031ZM179.719 634.281V637.969H183.828V634.281H179.719ZM189.234 632.375V640.359H188.031V632.375H189.234ZM185.469 642.266C185.469 643.625 187.688 644.969 190.078 645.266L189.656 646.219C187.562 645.938 185.656 644.953 184.844 643.656C184 644.977 182.047 645.938 179.953 646.219L179.516 645.266C181.906 645 184.203 643.656 184.203 642.266H180.094V641.312H184.219V639.953H185.438V641.312H189.594V642.266H185.469ZM207.547 633.922V634.922H196.281V633.922H201.344V632.297H202.547V633.922H207.547ZM208.344 641.25V642.266H204.984V646.297H203.766V642.266H200.172V646.297H198.938V642.266H195.625V641.25H208.344ZM201.953 635.719C204.781 635.719 206.484 636.531 206.484 638.016C206.484 639.484 204.781 640.312 201.953 640.312C199.109 640.312 197.406 639.484 197.422 638.016C197.406 636.531 199.109 635.719 201.953 635.719ZM201.953 636.656C199.875 636.672 198.672 637.156 198.688 638.016C198.672 638.875 199.875 639.359 201.953 639.359C204 639.359 205.203 638.875 205.219 638.016C205.203 637.156 204 636.672 201.953 636.656ZM217.766 633.875V634.875H209.484V633.875H213.016V632.312H214.234V633.875H217.766ZM213.625 635.594C215.625 635.609 216.953 636.578 216.969 638.109C216.953 639.625 215.625 640.609 213.625 640.609C211.625 640.609 210.266 639.625 210.281 638.109C210.266 636.578 211.625 635.609 213.625 635.594ZM213.625 636.547C212.312 636.562 211.438 637.172 211.453 638.109C211.438 639.031 212.312 639.625 213.625 639.625C214.922 639.625 215.797 639.031 215.812 638.109C215.797 637.172 214.922 636.562 213.625 636.547ZM220.312 632.375V636.234H222.406V637.266H220.312V641.062H219.094V632.375H220.312ZM220.312 641.828V646.266H219.094V642.828H211.219V641.828H220.312ZM227.422 635.141C227.422 636.672 228.5 638.234 230.281 638.906L229.641 639.844C228.305 639.328 227.344 638.336 226.844 637.141C226.328 638.469 225.336 639.648 223.969 640.234L223.297 639.281C225.125 638.484 226.25 636.688 226.25 635.141V633.25H227.422V635.141ZM235.078 632.391V640.969H233.906V637.141H232.062V640.531H230.906V632.656H232.062V636.125H233.906V632.391H235.078ZM230.484 641.281C233.359 641.281 235.156 642.188 235.156 643.766C235.156 645.328 233.359 646.234 230.484 646.234C227.594 646.234 225.812 645.328 225.828 643.766C225.812 642.188 227.594 641.281 230.484 641.281ZM230.484 642.219C228.359 642.219 227.031 642.797 227.047 643.766C227.031 644.719 228.359 645.281 230.484 645.281C232.594 645.281 233.922 644.719 233.938 643.766C233.922 642.797 232.594 642.219 230.484 642.219ZM239.391 643.953L238.172 648.203H237.016L237.875 643.953H239.391ZM256.734 632.375V642.719H255.5V638.688H253.125V637.656H255.5V636.047H253.125V635.031H255.5V632.375H256.734ZM253.016 633.516V634.516H251.594V639.375C252.242 639.336 252.867 639.289 253.469 639.219L253.531 640.141C250.828 640.562 247.656 640.609 245.406 640.609L245.25 639.562C245.805 639.562 246.406 639.555 247.047 639.547V634.516H245.641V633.516H253.016ZM257.109 644.938V645.969H247.781V641.859H249.016V644.938H257.109ZM248.234 639.516C248.945 639.508 249.68 639.484 250.406 639.453V634.516H248.234V639.516ZM270.516 632.375V639.828H269.297V632.375H270.516ZM262.734 640.531V642.219H269.297V640.531H270.516V646.078H261.516V640.531H262.734ZM262.734 645.078H269.297V643.203H262.734V645.078ZM263.016 633.062C265.125 633.047 266.656 634.344 266.656 636.25C266.656 638.141 265.125 639.438 263.016 639.438C260.906 639.438 259.375 638.141 259.375 636.25C259.375 634.344 260.906 633.047 263.016 633.062ZM263.016 634.094C261.594 634.078 260.562 634.984 260.578 636.25C260.562 637.516 261.594 638.422 263.016 638.422C264.422 638.422 265.453 637.516 265.453 636.25C265.453 634.984 264.422 634.078 263.016 634.094ZM277.016 635.141C277.016 636.672 278.094 638.234 279.875 638.906L279.234 639.844C277.898 639.328 276.938 638.336 276.438 637.141C275.922 638.469 274.93 639.648 273.562 640.234L272.891 639.281C274.719 638.484 275.844 636.688 275.844 635.141V633.25H277.016V635.141ZM284.672 632.391V640.969H283.5V637.141H281.656V640.531H280.5V632.656H281.656V636.125H283.5V632.391H284.672ZM280.078 641.281C282.953 641.281 284.75 642.188 284.75 643.766C284.75 645.328 282.953 646.234 280.078 646.234C277.188 646.234 275.406 645.328 275.422 643.766C275.406 642.188 277.188 641.281 280.078 641.281ZM280.078 642.219C277.953 642.219 276.625 642.797 276.641 643.766C276.625 644.719 277.953 645.281 280.078 645.281C282.188 645.281 283.516 644.719 283.531 643.766C283.516 642.797 282.188 642.219 280.078 642.219ZM50.4219 662.688C50.4375 659.734 51.2344 657.281 52.6719 655.203H53.8594C52.7969 656.75 51.8125 659.906 51.8125 662.688C51.8125 665.469 52.7969 668.641 53.8594 670.188H52.6719C51.2344 668.094 50.4375 665.641 50.4219 662.688ZM61.9375 658.781V660.484H67.6719V661.469H55.0156V660.484H60.7344V658.781H61.9375ZM66.0469 662.625V665.781H57.7969V667.141H66.4688V668.109H56.5781V664.875H64.8438V663.562H56.5469V662.625H66.0469ZM66.5469 654.828V655.828H62.1562C62.2734 657.289 64.5938 658.352 67 658.562L66.5938 659.516C64.2812 659.273 62.1016 658.328 61.3594 656.828C60.6016 658.328 58.4219 659.273 56.1094 659.516L55.6875 658.562C58.0781 658.352 60.3984 657.289 60.5469 655.828H56.1719V654.828H66.5469ZM72.6719 655.031C74.5391 655.016 75.9531 656.102 76.2188 657.703H79.125V654.375H80.3594V661.828H79.125V658.719H76.2344C75.9844 660.359 74.5547 661.453 72.6719 661.453C70.5625 661.453 69.0625 660.141 69.0625 658.234C69.0625 656.344 70.5625 655.016 72.6719 655.031ZM72.6719 656.078C71.25 656.062 70.2344 656.953 70.2344 658.234C70.2344 659.5 71.25 660.422 72.6719 660.422C74.0781 660.422 75.0781 659.5 75.0781 658.234C75.0781 656.953 74.0781 656.062 72.6719 656.078ZM72.6406 662.531V664.297H79.125V662.531H80.3594V668.078H71.4062V662.531H72.6406ZM72.6406 667.078H79.125V665.281H72.6406V667.078ZM87.375 658.641C87.3594 660.875 88.9688 663.328 90.9844 664.281L90.2812 665.25C88.7188 664.492 87.3984 662.836 86.7812 660.953C86.1406 663 84.7422 664.797 83.1875 665.594L82.4375 664.625C84.4375 663.656 86.1562 661.016 86.1719 658.641V656.828H82.9375V655.812H90.5V656.828H87.375V658.641ZM93.4219 654.375V660H95.75V661.047H93.4219V668.266H92.2031V654.375H93.4219ZM98.7812 665.953L97.5625 670.203H96.4062L97.2656 665.953H98.7812ZM111.734 655.641V656.672H106.453V659.547H111.422V660.547H106.453V663.906C108.953 663.906 110.711 663.805 112.797 663.453L112.938 664.469C110.766 664.828 108.938 664.906 106.312 664.922H105.219V655.641H111.734ZM115.359 654.375V659.969H117.688V661.016H115.359V668.266H114.141V654.375H115.359ZM130.312 654.375V668.266H129.141V660.984H127.094V667.547H125.969V654.688H127.094V659.969H129.141V654.375H130.312ZM124.156 656.078V657.094H120.172V663.781C122.086 663.773 123.414 663.703 124.953 663.391L125.062 664.422C123.391 664.766 121.969 664.828 119.844 664.828H118.953V656.078H124.156ZM136.406 657.141C136.406 658.672 137.484 660.234 139.266 660.906L138.625 661.844C137.289 661.328 136.328 660.336 135.828 659.141C135.312 660.469 134.32 661.648 132.953 662.234L132.281 661.281C134.109 660.484 135.234 658.688 135.234 657.141V655.25H136.406V657.141ZM144.062 654.391V662.969H142.891V659.141H141.047V662.531H139.891V654.656H141.047V658.125H142.891V654.391H144.062ZM139.469 663.281C142.344 663.281 144.141 664.188 144.141 665.766C144.141 667.328 142.344 668.234 139.469 668.234C136.578 668.234 134.797 667.328 134.812 665.766C134.797 664.188 136.578 663.281 139.469 663.281ZM139.469 664.219C137.344 664.219 136.016 664.797 136.031 665.766C136.016 666.719 137.344 667.281 139.469 667.281C141.578 667.281 142.906 666.719 142.922 665.766C142.906 664.797 141.578 664.219 139.469 664.219ZM154.844 657.266C154.844 658.969 156.25 660.484 158.297 661.094L157.719 662.062C156.117 661.562 154.867 660.523 154.266 659.188C153.656 660.664 152.367 661.789 150.719 662.328L150.109 661.359C152.172 660.734 153.641 659.125 153.641 657.266V657.016H150.5V656.031H153.641V654.312H154.875V656.031H157.984V657.016H154.844V657.266ZM160.969 654.375V657.906H163.062V658.938H160.969V662.609H159.75V654.375H160.969ZM160.969 663.25V668.078H152.203V663.25H160.969ZM153.406 664.219V667.078H159.75V664.219H153.406ZM167.672 655.453C168.945 655.461 169.977 656.203 170.578 657.484H174.234V654.375H175.453V668.297H174.234V662.906H170.672C170.086 664.312 169.016 665.125 167.672 665.125C165.625 665.125 164.188 663.25 164.188 660.297C164.188 657.344 165.625 655.469 167.672 655.453ZM167.672 656.547C166.297 656.562 165.359 658.031 165.359 660.297C165.359 662.562 166.297 664.031 167.672 664.031C169.031 664.031 169.984 662.562 169.984 660.297C169.984 658.031 169.031 656.562 167.672 656.547ZM170.938 658.516C171.062 659.055 171.141 659.648 171.141 660.297C171.141 660.867 171.078 661.406 170.984 661.891H174.234V658.516H170.938ZM184.688 654.609V655.938H191.562V654.609H192.781V659.172H183.469V654.609H184.688ZM184.688 658.219H191.562V656.875H184.688V658.219ZM194.438 660.328V661.344H188.703V662.703H192.812V665.781H184.562V667.141H193.234V668.109H183.344V664.875H191.609V663.641H183.312V662.703H187.484V661.344H181.781V660.328H194.438ZM206.359 654.375V660.031H208.609V661.062H206.359V668.266H205.141V654.375H206.359ZM202.766 655.875C202.766 659.812 200.922 663.391 196.391 665.625L195.703 664.656C199.297 662.867 201.25 660.195 201.531 656.906H196.344V655.875H202.766ZM212.906 662.688C212.891 665.641 212.094 668.094 210.656 670.188H209.469C210.531 668.641 211.516 665.469 211.516 662.688C211.516 659.906 210.531 656.75 209.469 655.203H210.656C212.094 657.281 212.891 659.734 212.906 662.688Z" fill="white"/>
<line x1="85" y1="462.57" x2="245" y2="462.57" stroke="url(#paint1_linear_864_44)" stroke-width="0.860526"/>
<rect x="1.43026" y="725.43" width="326.139" height="264.139" rx="19.5697" stroke="white" stroke-width="0.860526"/>
<path d="M33.9062 761.641C33.8984 762.82 34.0977 763.98 34.5039 765.121C34.9102 766.254 35.5156 767.277 36.3203 768.191C37.125 769.098 38.1016 769.789 39.25 770.266L37.6328 772.609C36.4141 772.094 35.3672 771.34 34.4922 770.348C33.6172 769.348 32.9297 768.18 32.4297 766.844C31.9297 768.289 31.2344 769.562 30.3438 770.664C29.4609 771.758 28.4062 772.586 27.1797 773.148L25.4688 770.781C26.6094 770.273 27.582 769.535 28.3867 768.566C29.1992 767.598 29.8086 766.512 30.2148 765.309C30.6289 764.098 30.8359 762.875 30.8359 761.641V760.328H26.3125V757.891H38.3594V760.328H33.9062V761.641ZM40.4688 755.828H43.4922V777.156H40.4688V755.828ZM64.4453 771.953H61.4453V770.266H57.3672V768.227H61.4453V755.852H64.4453V771.953ZM46.3047 765.297C48.9844 765.281 51.4375 765.234 53.6641 765.156C55.8906 765.07 58 764.906 59.9922 764.664L60.1562 766.797C58.5312 767.07 56.8125 767.273 55 767.406V771.461H52V774.391H64.9141V776.781H49.0234V770.406H52V767.582C50.5156 767.637 48.7344 767.664 46.6562 767.664L46.3047 765.297ZM47.875 760.398C47.875 759.648 48.1016 758.984 48.5547 758.406C49.0078 757.828 49.6406 757.379 50.4531 757.059C51.2656 756.738 52.1953 756.578 53.2422 756.578C54.2656 756.578 55.1797 756.738 55.9844 757.059C56.7891 757.379 57.418 757.828 57.8711 758.406C58.332 758.984 58.5625 759.648 58.5625 760.398C58.5625 761.148 58.332 761.809 57.8711 762.379C57.418 762.949 56.7891 763.387 55.9844 763.691C55.1797 763.996 54.2656 764.148 53.2422 764.148C52.1875 764.148 51.2539 763.996 50.4414 763.691C49.6367 763.387 49.0078 762.949 48.5547 762.379C48.1016 761.809 47.875 761.148 47.875 760.398ZM50.7109 760.398C50.7031 760.906 50.9297 761.301 51.3906 761.582C51.8594 761.855 52.4922 761.992 53.2891 761.992C54.0078 761.992 54.5898 761.852 55.0352 761.57C55.4883 761.289 55.7188 760.898 55.7266 760.398C55.7188 759.883 55.4844 759.48 55.0234 759.191C54.5703 758.902 53.9766 758.758 53.2422 758.758C52.4688 758.758 51.8516 758.902 51.3906 759.191C50.9297 759.48 50.7031 759.883 50.7109 760.398Z" fill="white"/>
<path d="M272.57 768.883C274.047 768.883 275.324 769.047 276.402 769.375C277.48 769.703 278.309 770.176 278.887 770.793C279.473 771.41 279.766 772.148 279.766 773.008C279.766 773.875 279.473 774.621 278.887 775.246C278.309 775.879 277.48 776.359 276.402 776.688C275.324 777.016 274.047 777.18 272.57 777.18C271.07 777.18 269.77 777.016 268.668 776.688C267.566 776.359 266.723 775.879 266.137 775.246C265.551 774.621 265.258 773.875 265.258 773.008C265.258 772.148 265.551 771.41 266.137 770.793C266.73 770.176 267.574 769.703 268.668 769.375C269.77 769.047 271.07 768.883 272.57 768.883ZM263.266 757.164H266.242V759.859H270.602V757.164H273.602V767.195H263.266V757.164ZM270.602 764.828V762.18H266.242V764.828H270.602ZM268.258 773.008C268.25 773.617 268.613 774.078 269.348 774.391C270.09 774.703 271.164 774.859 272.57 774.859C273.953 774.859 275.004 774.703 275.723 774.391C276.449 774.078 276.812 773.617 276.812 773.008C276.812 771.82 275.398 771.219 272.57 771.203C269.672 771.219 268.234 771.82 268.258 773.008ZM276.555 755.828H279.555V760.773H282.438V763.281H279.555V768.414H276.555V755.828ZM287.289 759.648H291.484V756.906H294.438V760.703H298.375V755.828H301.352V767.5H298.375V763.141H294.438V766.891H284.289V756.906H287.289V759.648ZM287.125 768.391H290.078V770.359H298.375V768.391H301.352V776.875H287.125V768.391ZM291.484 764.5V761.945H287.289V764.5H291.484ZM298.375 774.484V772.656H290.078V774.484H298.375Z" fill="white"/>
<path d="M36.9375 940.094C36.0625 940.094 35.3438 939.375 35.3438 938.484C35.3438 937.609 36.0625 936.891 36.9375 936.891C37.8281 936.891 38.5469 937.609 38.5469 938.484C38.5469 939.375 37.8281 940.094 36.9375 940.094ZM54.0625 931.688V943H52.6406V933.156H52.5781L49.8281 934.984V933.562L52.6406 931.688H54.0625ZM61.2031 934.906C61.2031 937.125 62.6562 939.406 64.6719 940.375L63.9531 941.328C62.4219 940.578 61.2109 939.062 60.6406 937.266C60.0312 939.195 58.7422 940.812 57.1562 941.578L56.4531 940.625C58.4844 939.672 60 937.297 60.0156 934.906V933.797H56.8281V932.797H60V930.641H61.2344V932.797H64.3594V933.797H61.2031V934.906ZM67.3281 930.375V936.078H69.6562V937.125H67.3281V944.266H66.1094V930.375H67.3281ZM79.3906 934.641C79.3906 937 81.1094 939.391 83.1562 940.281L82.4688 941.25C80.8438 940.508 79.4375 938.906 78.7969 936.984C78.1406 939.023 76.7422 940.797 75.1562 941.594L74.4219 940.625C76.4062 939.672 78.1406 937.047 78.1562 934.641V932.828H74.875V931.812H82.7031V932.828H79.3906V934.641ZM85.875 930.375V944.266H84.6406V930.375H85.875ZM99.7031 930.391V940.938H98.4688V939.5H95.5938V938.609H98.4688V930.391H99.7031ZM100.047 942.938V943.969H90.1719V939.906H91.4062V942.938H100.047ZM88.1719 936.828C90.7656 936.812 94.2344 936.797 97.2188 936.422L97.2969 937.312C96.0547 937.508 94.7578 937.633 93.4844 937.703V940.453H92.25V937.766C90.8438 937.828 89.5078 937.836 88.3438 937.828L88.1719 936.828ZM92.7344 930.953C94.7656 930.953 96.1562 931.922 96.1719 933.375C96.1562 934.859 94.7656 935.781 92.7344 935.781C90.6875 935.781 89.2969 934.859 89.2969 933.375C89.2969 931.922 90.6875 930.953 92.7344 930.953ZM92.7344 931.891C91.375 931.875 90.4531 932.484 90.4688 933.375C90.4531 934.281 91.375 934.875 92.7344 934.875C94.0469 934.875 94.9844 934.281 95 933.375C94.9844 932.484 94.0469 931.875 92.7344 931.891ZM106.969 934.109C106.969 936.625 108.578 939.156 110.594 940.078L109.859 941.078C108.281 940.266 106.977 938.602 106.359 936.625C105.742 938.703 104.438 940.484 102.859 941.328L102.062 940.344C104.094 939.344 105.719 936.672 105.719 934.109V931.578H106.969V934.109ZM113.594 930.375V944.297H112.375V936.125H109.078V935.125H112.375V930.375H113.594ZM131.797 930.375V944.266H130.625V930.375H131.797ZM128.984 930.719V943.547H127.828V936.391H125.484V935.391H127.828V930.719H128.984ZM124 934.344C124 936.75 125.078 939.141 127 940.25L126.25 941.156C124.883 940.336 123.914 938.836 123.438 937.062C122.93 938.977 121.922 940.609 120.531 941.484L119.75 940.562C121.688 939.406 122.812 936.875 122.812 934.344V933.031H120.141V932.016H126.547V933.031H124V934.344ZM146.406 936.562V937.516H140.672V938.812H144.781V941.812H136.531V943.172H145.203V944.109H135.312V940.938H143.578V939.734H135.281V938.812H139.469V937.516H133.766V936.562H146.406ZM140.672 930.297V931.594H145.125V932.562H140.766C140.992 933.945 143.164 934.82 145.719 934.984L145.344 935.922C143.023 935.727 140.93 935.008 140.078 933.688C139.227 935.008 137.133 935.727 134.797 935.922L134.438 934.984C136.977 934.82 139.148 933.945 139.391 932.562H135.062V931.594H139.469V930.297H140.672ZM158.844 931.281V936.938H152.328V931.281H158.844ZM153.531 932.281V935.969H157.641V932.281H153.531ZM163.047 930.375V938.359H161.844V930.375H163.047ZM159.281 940.266C159.281 941.625 161.5 942.969 163.891 943.266L163.469 944.219C161.375 943.938 159.469 942.953 158.656 941.656C157.812 942.977 155.859 943.938 153.766 944.219L153.328 943.266C155.719 943 158.016 941.656 158.016 940.266H153.906V939.312H158.031V937.953H159.25V939.312H163.406V940.266H159.281ZM174.328 934.109C174.328 936.625 175.938 939.156 177.953 940.078L177.219 941.078C175.641 940.266 174.336 938.602 173.719 936.625C173.102 938.703 171.797 940.484 170.219 941.328L169.422 940.344C171.453 939.344 173.078 936.672 173.078 934.109V931.578H174.328V934.109ZM180.953 930.375V944.297H179.734V936.125H176.438V935.125H179.734V930.375H180.953ZM195.969 938.672V939.656H192.625V944.266H191.406V939.656H187.812V944.266H186.578V939.656H183.25V938.672H195.969ZM194.422 930.922V934.484H186.047V936.219H194.719V937.234H184.812V933.531H193.172V931.938H184.781V930.922H194.422ZM212.578 930.391V938.281H211.359V930.391H212.578ZM212.578 939.078V944.078H203.547V939.078H212.578ZM204.75 940.078V943.078H211.375V940.078H204.75ZM206.031 932.297C206.016 934.266 207.516 936 209.562 936.719L208.938 937.656C207.328 937.102 206.047 935.93 205.422 934.406C204.805 936.031 203.508 937.312 201.844 937.922L201.219 936.953C203.328 936.219 204.781 934.344 204.781 932.297V930.938H206.031V932.297ZM219.594 934.109C219.594 936.562 221.219 939.078 223.188 940.047L222.438 941.031C220.906 940.227 219.625 938.586 219.016 936.656C218.391 938.711 217.078 940.461 215.516 941.297L214.734 940.312C216.766 939.312 218.375 936.641 218.391 934.109V931.578H219.594V934.109ZM225.688 930.375V936.016H228.016V937.078H225.688V944.266H224.469V930.375H225.688ZM36.9375 959.094C36.0625 959.094 35.3438 958.375 35.3438 957.484C35.3438 956.609 36.0625 955.891 36.9375 955.891C37.8281 955.891 38.5469 956.609 38.5469 957.484C38.5469 958.375 37.8281 959.094 36.9375 959.094ZM50.0625 962L50.0469 960.969L53.9062 956.906C55.25 955.484 55.8906 954.719 55.8906 953.672C55.8906 952.516 54.9062 951.75 53.6406 951.75C52.2969 951.75 51.4375 952.609 51.4375 953.875H50.1094C50.0938 951.875 51.6406 950.531 53.6875 950.531C55.7344 950.531 57.2031 951.906 57.2031 953.672C57.2031 954.938 56.6094 955.922 54.6094 957.984L52.0156 960.656V960.75H57.4062V962H50.0625ZM63.5781 953.906C63.5781 956.125 65.0312 958.406 67.0469 959.375L66.3281 960.328C64.7969 959.578 63.5859 958.062 63.0156 956.266C62.4062 958.195 61.1172 959.812 59.5312 960.578L58.8281 959.625C60.8594 958.672 62.375 956.297 62.3906 953.906V952.797H59.2031V951.797H62.375V949.641H63.6094V951.797H66.7344V952.797H63.5781V953.906ZM69.7031 949.375V955.078H72.0312V956.125H69.7031V963.266H68.4844V949.375H69.7031ZM83.8281 950.594V951.828H87.0781V949.391H88.3125V959.531H87.0781V955.828H83.8281V957.078H77.4531V950.594H83.8281ZM78.6719 951.609V956.094H82.625V951.609H78.6719ZM88.625 961.938V962.969H79.3281V958.625H80.5625V961.938H88.625ZM83.8281 954.812H87.0781V952.859H83.8281V954.812ZM102.125 949.375V956.922H100.906V953.781H98.0938V952.75H100.906V949.375H102.125ZM94.4219 957.594V959.328H100.906V957.594H102.125V963.078H93.1875V957.594H94.4219ZM94.4219 962.078H100.906V960.312H94.4219V962.078ZM95.4531 951.641C95.4531 953.422 96.8438 955.172 98.875 955.875L98.2344 956.828C96.6641 956.258 95.4531 955.094 94.8594 953.656C94.2578 955.266 92.9766 956.555 91.3281 957.156L90.6875 956.188C92.7344 955.453 94.2188 953.609 94.2188 951.641V951.234H91.0781V950.219H98.5625V951.234H95.4531V951.641ZM120.391 950.969V951.984H109.125V950.969H114.188V949.297H115.391V950.969H120.391ZM121.188 958.375V959.391H115.391V963.297H114.188V959.391H108.469V958.375H121.188ZM114.797 952.781C117.625 952.781 119.328 953.609 119.328 955.109C119.328 956.578 117.625 957.406 114.797 957.422C111.953 957.406 110.25 956.578 110.266 955.109C110.25 953.609 111.953 952.781 114.797 952.781ZM114.797 953.719C112.719 953.719 111.516 954.234 111.531 955.109C111.516 955.969 112.719 956.469 114.797 956.469C116.844 956.469 118.047 955.969 118.062 955.109C118.047 954.234 116.844 953.719 114.797 953.719ZM131.578 956.703V959.25C132.914 959.195 134.281 959.078 135.562 958.891L135.656 959.797C132.484 960.375 129.062 960.391 126.562 960.391L126.391 959.375C127.555 959.367 128.93 959.359 130.375 959.312V956.703H131.578ZM134.844 951.203V952.219H131.578C131.609 954.016 133.102 955.477 135.156 956.062L134.578 957.031C132.906 956.531 131.602 955.461 130.984 954.047C130.375 955.539 129.078 956.648 127.406 957.156L126.812 956.219C128.867 955.617 130.312 954.094 130.344 952.219H127.156V951.203H130.375V949.484H131.578V951.203H134.844ZM137.703 949.375V963.297H136.484V949.375H137.703ZM147.062 954.312V956.297H152.797V957.312H140.141V956.297H145.859V954.312H147.062ZM146.469 958.453C149.453 958.453 151.234 959.297 151.25 960.844C151.234 962.391 149.453 963.234 146.469 963.234C143.453 963.234 141.672 962.391 141.672 960.844C141.672 959.297 143.453 958.453 146.469 958.453ZM146.469 959.422C144.219 959.422 142.906 959.938 142.922 960.844C142.906 961.75 144.219 962.281 146.469 962.281C148.688 962.281 150.016 961.75 150.016 960.844C150.016 959.938 148.688 959.422 146.469 959.422ZM151.672 950.031V951.031H147.266C147.344 952.578 149.672 953.773 152.094 954.031L151.641 955C149.367 954.727 147.234 953.734 146.469 952.188C145.711 953.734 143.586 954.727 141.297 955L140.844 954.031C143.266 953.773 145.578 952.594 145.672 951.031H141.297V950.031H151.672ZM168.844 949.375V952.938H170.938V953.984H168.844V957.453H167.625V949.375H168.844ZM161.281 958.062V959.547H167.625V958.062H168.844V963.078H160.062V958.062H161.281ZM161.281 962.094H167.625V960.516H161.281V962.094ZM166.297 950.812V951.828H158.016V950.812H161.547V949.25H162.766V950.812H166.297ZM162.156 952.469C164.156 952.469 165.484 953.422 165.5 954.906C165.484 956.391 164.156 957.344 162.156 957.344C160.141 957.344 158.797 956.391 158.812 954.906C158.797 953.422 160.141 952.469 162.156 952.469ZM162.156 953.422C160.844 953.406 159.969 954.016 159.984 954.906C159.969 955.812 160.844 956.406 162.156 956.406C163.453 956.406 164.328 955.812 164.344 954.906C164.328 954.016 163.453 953.406 162.156 953.422ZM179.141 950.328C179.141 950.867 179.078 951.383 178.969 951.875H182.094V949.391H183.328V957.672H182.094V955.828H178.406V954.812H182.094V952.891H178.641C177.695 955.078 175.523 956.656 172.516 957.484L172.031 956.5C175.422 955.562 177.57 953.695 177.828 951.328H172.734V950.328H179.141ZM183.328 958.281V963.25H182.094V959.266H173.984V958.281H183.328Z" fill="white"/>
<line x1="85" y1="767.57" x2="245" y2="767.57" stroke="url(#paint2_linear_864_44)" stroke-width="0.860526"/>
<path d="M0.999722 71.0952L165 64.3504" stroke="#FF731D" stroke-width="4.25974"/>
<path d="M6.82061 75.6688L155.842 73.7041" stroke="#FF731D" stroke-width="4.25974"/>
<defs>
<linearGradient id="paint0_linear_864_44" x1="245" y1="158.944" x2="85" y2="158.944" gradientUnits="userSpaceOnUse">
<stop offset="0.3125" stop-color="#FF731D"/>
<stop offset="1" stop-color="white"/>
</linearGradient>
<linearGradient id="paint1_linear_864_44" x1="245" y1="463.944" x2="85" y2="463.944" gradientUnits="userSpaceOnUse">
<stop offset="0.3125" stop-color="#FF731D"/>
<stop offset="1" stop-color="white"/>
</linearGradient>
<linearGradient id="paint2_linear_864_44" x1="245" y1="768.944" x2="85" y2="768.944" gradientUnits="userSpaceOnUse">
<stop offset="0.3125" stop-color="#FF731D"/>
<stop offset="1" stop-color="white"/>
</linearGradient>
</defs>
</svg>
