<svg width="328" height="990" viewBox="0 0 328 990" fill="none" xmlns="http://www.w3.org/2000/svg">
<path d="M18.1959 13.1496L29 3.38824L18.1959 7.65517V0.758621L14.2261 8.26891L10.1546 0V9.47899L1 8.26891L7.51546 13.1496L3.04017 18.1379L10.1546 16.1379L8.17584 22.2759L13.1005 18.1379L15.5567 24V16.9412L20.1356 19.6437L17.6733 14.8966L29 16.9412L18.1959 13.1496Z" fill="#FF731D"/>
<path d="M15.9557 41.9947L17.2824 38.1616H25.5242V32.2645H1.80407V38.1616H7.83461L1 58.2118H10.4478L13.8651 48.1572L16.8804 58.2118H26.3282L21.5038 41.9947H15.9557ZM38.3893 31.3799H29.1425V58.2118H38.3893V31.3799Z" fill="white"/>
<path d="M78.5929 31.3799H69.3461V34.9182H66.2102C64.8433 32.8836 61.3858 31.3799 54.2697 31.3799C44.4601 31.3799 41.6056 34.2105 41.6056 37.4244C41.6056 40.6384 44.4601 43.469 54.2697 43.469C61.3858 43.469 64.8433 41.9947 66.2102 39.9307H69.3461V51.1352H78.5929V31.3799ZM59.0942 49.661H67.3359V44.6484H41.2036V49.661H50.2494V50.8404H42.4097V59.0964H78.5929V54.0838H51.6565V52.3147H59.0942V49.661ZM59.6972 37.4244C59.6972 38.2795 58.8127 38.7513 54.2697 38.7513C49.7267 38.7513 48.8422 38.2795 48.8422 37.4244C48.8422 36.5693 49.7267 36.0976 54.2697 36.0976C58.8127 36.0976 59.6972 36.5693 59.6972 37.4244Z" fill="white"/>
<path d="M97.4885 32.2645V34.7707H90.6539V32.2645H82.2112V47.8918L105.931 46.4175V32.2645H97.4885ZM117.791 53.9953C117.791 50.4571 113.007 48.452 100.303 48.452C87.5985 48.452 82.8143 50.4571 82.8143 53.9953C82.8143 57.5336 87.5985 59.5386 100.303 59.5386C113.007 59.5386 117.791 57.5336 117.791 53.9953ZM117.188 36.5399V31.3799H107.941V47.8918H117.188V42.7318H120.405V36.5399H117.188ZM108.545 53.9953C108.545 54.6735 107.62 55.1158 100.303 55.1158C92.9858 55.1158 92.0611 54.6735 92.0611 53.9953C92.0611 53.3172 92.9858 52.8749 100.303 52.8749C107.62 52.8749 108.545 53.3172 108.545 53.9953ZM90.6539 39.7833H97.4885V41.9357L90.6539 42.3485V39.7833Z" fill="white"/>
<path d="M159 31.3799H149.753V35.8027H146.135V32.2645H137.692V34.6233H130.857V32.2645H122.415V45.8278L146.135 44.6484V41.405H149.753V45.8278H159V31.3799ZM149.753 46.7124V49.2187H131.662V46.7124H122.415V59.0964H159V46.7124H149.753ZM131.662 53.1992H149.753V54.8209H131.662V53.1992ZM130.857 38.7513H137.692V40.6678L130.857 40.9922V38.7513Z" fill="white"/>
<rect x="1.43026" y="115.43" width="326.139" height="264.139" rx="19.5697" stroke="white" stroke-width="0.860526"/>
<path d="M36.9375 304.094C36.0625 304.094 35.3438 303.375 35.3438 302.484C35.3438 301.609 36.0625 300.891 36.9375 300.891C37.8281 300.891 38.5469 301.609 38.5469 302.484C38.5469 303.375 37.8281 304.094 36.9375 304.094ZM54.0625 295.688V307H52.6406V297.156H52.5781L49.8281 298.984V297.562L52.6406 295.688H54.0625ZM61.2031 298.906C61.2109 301.133 62.6562 303.406 64.6719 304.375L63.9531 305.328C62.4219 304.578 61.2109 303.055 60.6328 301.266C60.0234 303.203 58.7344 304.812 57.1562 305.578L56.4531 304.625C58.4922 303.672 60.0078 301.297 60.0156 298.906V297.797H56.8281V296.797H60V294.641H61.2344V296.797H64.3594V297.797H61.2031V298.906ZM66.1094 308.266V294.375H67.3281V300.078H69.6562V301.125H67.3281V308.266H66.1094ZM79.3125 298.109C79.3047 300.625 80.9219 303.156 82.9375 304.078L82.2031 305.078C80.625 304.266 79.3203 302.609 78.7031 300.633C78.0859 302.711 76.7812 304.492 75.2031 305.328L74.4062 304.344C76.4453 303.344 78.0547 300.672 78.0625 298.109V295.578H79.3125V298.109ZM81.4219 300.125V299.125H84.7188V294.375H85.9375V308.297H84.7188V300.125H81.4219ZM100.953 302.672V303.656H97.6094V308.266H96.3906V303.656H92.7969V308.266H91.5625V303.656H88.2344V302.672H100.953ZM89.7656 295.938V294.922H99.4062V298.484H91.0312V300.219H99.7031V301.234H89.7969V297.531H98.1562V295.938H89.7656ZM103.547 307.094C103 307.086 102.531 306.633 102.547 306.078C102.531 305.531 103 305.078 103.547 305.078C104.102 305.078 104.555 305.531 104.547 306.078C104.555 306.633 104.102 307.086 103.547 307.094ZM102.547 299.797C102.531 299.25 103 298.797 103.547 298.797C104.102 298.797 104.555 299.25 104.547 299.797C104.555 300.352 104.102 300.805 103.547 300.812C103 300.805 102.531 300.352 102.547 299.797ZM114.656 295.688V307H113.234V297.156H113.172L110.422 298.984V297.562L113.234 295.688H114.656ZM121.375 307.156C118.867 307.156 117.414 305.047 117.422 301.344C117.414 297.672 118.883 295.531 121.375 295.531C123.859 295.531 125.328 297.672 125.328 301.344C125.328 305.047 123.883 307.156 121.375 307.156ZM118.781 301.344C118.789 304.273 119.734 305.906 121.375 305.906C123.008 305.906 123.961 304.273 123.953 301.344C123.961 298.414 123 296.758 121.375 296.75C119.75 296.758 118.789 298.414 118.781 301.344ZM138.156 294.391V302.578H136.922V301.812H134.109V301H136.922V294.391H138.156ZM126.656 299.625C129.344 299.641 132.781 299.609 135.781 299.281L135.859 300.078C134.5 300.273 133.086 300.391 131.703 300.453V302.625H130.5V300.5C129.188 300.547 127.922 300.547 126.797 300.547L126.656 299.625ZM127.734 296.75C127.734 295.461 129.094 294.656 131.188 294.656C133.258 294.656 134.625 295.461 134.641 296.75C134.625 298.047 133.258 298.82 131.188 298.828C129.094 298.82 127.734 298.047 127.734 296.75ZM128.781 303.969V303.078H138.156V305.953H130.047V307.203H138.609V308.109H128.844V305.094H136.938V303.969H128.781ZM128.891 296.75C128.883 297.484 129.789 297.984 131.188 297.984C132.57 297.984 133.477 297.484 133.484 296.75C133.477 296.008 132.57 295.508 131.188 295.516C129.789 295.508 128.883 296.008 128.891 296.75ZM145.047 307L145.031 305.969L148.891 301.906C150.227 300.484 150.867 299.719 150.875 298.672C150.867 297.508 149.898 296.758 148.625 296.75C147.273 296.758 146.43 297.609 146.422 298.875H145.094C145.078 296.875 146.625 295.531 148.672 295.531C150.727 295.531 152.18 296.914 152.188 298.672C152.18 299.938 151.594 300.922 149.594 302.984L147 305.656V305.75H152.391V307H145.047ZM154.438 307L154.422 305.969L158.281 301.906C159.617 300.484 160.258 299.719 160.266 298.672C160.258 297.508 159.289 296.758 158.016 296.75C156.664 296.758 155.82 297.609 155.812 298.875H154.484C154.469 296.875 156.016 295.531 158.062 295.531C160.117 295.531 161.57 296.914 161.578 298.672C161.57 299.938 160.984 300.922 158.984 302.984L156.391 305.656V305.75H161.781V307H154.438ZM167.266 294.891C169.344 294.898 170.852 296.164 170.859 297.969C170.852 299.781 169.344 301.031 167.266 301.031C165.164 301.031 163.648 299.781 163.656 297.969C163.648 296.164 165.164 294.898 167.266 294.891ZM164.859 297.969C164.844 299.188 165.867 300.031 167.266 300.031C168.641 300.031 169.672 299.188 169.672 297.969C169.672 296.766 168.641 295.914 167.266 295.922C165.867 295.914 164.844 296.766 164.859 297.969ZM165.766 303.172V302.188H174.797V305.531H167V307.094H175.297V308.078H165.797V304.609H173.578V303.172H165.766ZM173.578 301.516V294.375H174.797V301.516H173.578ZM182.125 302.359C182.633 301.773 183.25 301.477 183.938 301.469C185.125 301.477 186.203 302.367 187.344 302.375C188.047 302.367 188.656 302.039 189.125 301.391V302.688C188.609 303.273 188 303.578 187.312 303.578C186.125 303.578 185.039 302.68 183.891 302.672C183.203 302.68 182.602 303.008 182.125 303.656V302.359ZM199.719 295.688V307H198.297V297.156H198.234L195.484 298.984V297.562L198.297 295.688H199.719ZM206.734 295.688V307H205.312V297.156H205.25L202.5 298.984V297.562L205.312 295.688H206.734ZM220.703 294.391V302.578H219.469V301.812H216.656V301H219.469V294.391H220.703ZM209.203 299.625C211.891 299.641 215.328 299.609 218.328 299.281L218.406 300.078C217.047 300.273 215.633 300.391 214.25 300.453V302.625H213.047V300.5C211.734 300.547 210.469 300.547 209.344 300.547L209.203 299.625ZM210.281 296.75C210.281 295.461 211.641 294.656 213.734 294.656C215.805 294.656 217.172 295.461 217.188 296.75C217.172 298.047 215.805 298.82 213.734 298.828C211.641 298.82 210.281 298.047 210.281 296.75ZM211.328 303.969V303.078H220.703V305.953H212.594V307.203H221.156V308.109H211.391V305.094H219.484V303.969H211.328ZM211.438 296.75C211.43 297.484 212.336 297.984 213.734 297.984C215.117 297.984 216.023 297.484 216.031 296.75C216.023 296.008 215.117 295.508 213.734 295.516C212.336 295.508 211.43 296.008 211.438 296.75ZM231.297 307.156C228.789 307.156 227.336 305.047 227.344 301.344C227.336 297.672 228.805 295.531 231.297 295.531C233.781 295.531 235.25 297.672 235.25 301.344C235.25 305.047 233.805 307.156 231.297 307.156ZM228.703 301.344C228.711 304.273 229.656 305.906 231.297 305.906C232.93 305.906 233.883 304.273 233.875 301.344C233.883 298.414 232.922 296.758 231.297 296.75C229.672 296.758 228.711 298.414 228.703 301.344ZM240.906 307.156C238.523 307.156 236.883 305.836 236.891 304C236.883 302.539 237.898 301.328 239.188 301.125V301.062C238.062 300.805 237.32 299.766 237.328 298.531C237.32 296.805 238.836 295.531 240.906 295.531C242.969 295.531 244.484 296.805 244.5 298.531C244.484 299.766 243.734 300.805 242.625 301.062V301.125C243.906 301.328 244.922 302.539 244.938 304C244.922 305.836 243.266 307.156 240.906 307.156ZM238.297 303.922C238.273 305.109 239.281 305.914 240.906 305.922C242.523 305.914 243.531 305.109 243.531 303.922C243.531 302.672 242.43 301.75 240.906 301.75C239.391 301.75 238.273 302.672 238.297 303.922ZM238.688 298.641C238.695 299.781 239.609 300.555 240.906 300.562C242.195 300.555 243.125 299.781 243.125 298.641C243.125 297.508 242.227 296.742 240.906 296.75C239.562 296.742 238.695 297.508 238.688 298.641ZM250.266 294.891C252.344 294.898 253.852 296.164 253.859 297.969C253.852 299.781 252.344 301.031 250.266 301.031C248.164 301.031 246.648 299.781 246.656 297.969C246.648 296.164 248.164 294.898 250.266 294.891ZM247.859 297.969C247.844 299.188 248.867 300.031 250.266 300.031C251.641 300.031 252.672 299.188 252.672 297.969C252.672 296.766 251.641 295.914 250.266 295.922C248.867 295.914 247.844 296.766 247.859 297.969ZM248.766 303.172V302.188H257.797V305.531H250V307.094H258.297V308.078H248.797V304.609H256.578V303.172H248.766ZM256.578 301.516V294.375H257.797V301.516H256.578ZM36.9375 326.094C36.0625 326.094 35.3438 325.375 35.3438 324.484C35.3438 323.609 36.0625 322.891 36.9375 322.891C37.8281 322.891 38.5469 323.609 38.5469 324.484C38.5469 325.375 37.8281 326.094 36.9375 326.094ZM50.0625 329L50.0469 327.969L53.9062 323.906C55.2422 322.484 55.8828 321.719 55.8906 320.672C55.8828 319.508 54.9141 318.758 53.6406 318.75C52.2891 318.758 51.4453 319.609 51.4375 320.875H50.1094C50.0938 318.875 51.6406 317.531 53.6875 317.531C55.7422 317.531 57.1953 318.914 57.2031 320.672C57.1953 321.938 56.6094 322.922 54.6094 324.984L52.0156 327.656V327.75H57.4062V329H50.0625ZM63.5781 320.906C63.5859 323.133 65.0312 325.406 67.0469 326.375L66.3281 327.328C64.7969 326.578 63.5859 325.055 63.0078 323.266C62.3984 325.203 61.1094 326.812 59.5312 327.578L58.8281 326.625C60.8672 325.672 62.3828 323.297 62.3906 320.906V319.797H59.2031V318.797H62.375V316.641H63.6094V318.797H66.7344V319.797H63.5781V320.906ZM68.4844 330.266V316.375H69.7031V322.078H72.0312V323.125H69.7031V330.266H68.4844ZM83.8281 317.594V318.828H87.0781V316.391H88.3125V326.531H87.0781V322.828H83.8281V324.078H77.4531V317.594H83.8281ZM78.6719 323.094H82.625V318.609H78.6719V323.094ZM79.3281 329.969V325.625H80.5625V328.938H88.625V329.969H79.3281ZM83.8281 321.812H87.0781V319.859H83.8281V321.812ZM102.125 316.375V323.922H100.906V320.781H98.0938V319.75H100.906V316.375H102.125ZM90.6875 323.188C92.7344 322.445 94.2188 320.609 94.2188 318.641V318.234H91.0781V317.219H98.5625V318.234H95.4531V318.641C95.4531 320.422 96.8438 322.172 98.875 322.875L98.2344 323.828C96.6719 323.258 95.4609 322.094 94.8594 320.672C94.2656 322.266 92.9766 323.555 91.3281 324.156L90.6875 323.188ZM93.1875 330.078V324.594H94.4219V326.328H100.906V324.594H102.125V330.078H93.1875ZM94.4219 329.078H100.906V327.312H94.4219V329.078ZM105.922 329.094C105.375 329.086 104.906 328.633 104.922 328.078C104.906 327.531 105.375 327.078 105.922 327.078C106.477 327.078 106.93 327.531 106.922 328.078C106.93 328.633 106.477 329.086 105.922 329.094ZM104.922 321.797C104.906 321.25 105.375 320.797 105.922 320.797C106.477 320.797 106.93 321.25 106.922 321.797C106.93 322.352 106.477 322.805 105.922 322.812C105.375 322.805 104.906 322.352 104.922 321.797ZM117.031 317.688V329H115.609V319.156H115.547L112.797 320.984V319.562L115.609 317.688H117.031ZM124.047 317.688V329H122.625V319.156H122.562L119.812 320.984V319.562L122.625 317.688H124.047ZM138.016 316.391V324.578H136.781V323.812H133.969V323H136.781V316.391H138.016ZM126.516 321.625C129.203 321.641 132.641 321.609 135.641 321.281L135.719 322.078C134.359 322.273 132.945 322.391 131.562 322.453V324.625H130.359V322.5C129.047 322.547 127.781 322.547 126.656 322.547L126.516 321.625ZM127.594 318.75C127.594 317.461 128.953 316.656 131.047 316.656C133.117 316.656 134.484 317.461 134.5 318.75C134.484 320.047 133.117 320.82 131.047 320.828C128.953 320.82 127.594 320.047 127.594 318.75ZM128.641 325.969V325.078H138.016V327.953H129.906V329.203H138.469V330.109H128.703V327.094H136.797V325.969H128.641ZM128.75 318.75C128.742 319.484 129.648 319.984 131.047 319.984C132.43 319.984 133.336 319.484 133.344 318.75C133.336 318.008 132.43 317.508 131.047 317.516C129.648 317.508 128.742 318.008 128.75 318.75ZM148.906 317.688V329H147.484V319.156H147.422L144.672 320.984V319.562L147.484 317.688H148.906ZM155.922 317.688V329H154.5V319.156H154.438L151.688 320.984V319.562L154.5 317.688H155.922ZM162.375 316.891C164.453 316.898 165.961 318.164 165.969 319.969C165.961 321.781 164.453 323.031 162.375 323.031C160.273 323.031 158.758 321.781 158.766 319.969C158.758 318.164 160.273 316.898 162.375 316.891ZM159.969 319.969C159.953 321.188 160.977 322.031 162.375 322.031C163.75 322.031 164.781 321.188 164.781 319.969C164.781 318.766 163.75 317.914 162.375 317.922C160.977 317.914 159.953 318.766 159.969 319.969ZM160.875 325.172V324.188H169.906V327.531H162.109V329.094H170.406V330.078H160.906V326.609H168.688V325.172H160.875ZM168.688 323.516V316.375H169.906V323.516H168.688ZM177.234 324.359C177.742 323.773 178.359 323.477 179.047 323.469C180.234 323.477 181.312 324.367 182.453 324.375C183.156 324.367 183.766 324.039 184.234 323.391V324.688C183.719 325.273 183.109 325.578 182.422 325.578C181.234 325.578 180.148 324.68 179 324.672C178.312 324.68 177.711 325.008 177.234 325.656V324.359ZM194.828 317.688V329H193.406V319.156H193.344L190.594 320.984V319.562L193.406 317.688H194.828ZM201.844 317.688V329H200.422V319.156H200.359L197.609 320.984V319.562L200.422 317.688H201.844ZM215.812 316.391V324.578H214.578V323.812H211.766V323H214.578V316.391H215.812ZM204.312 321.625C207 321.641 210.438 321.609 213.438 321.281L213.516 322.078C212.156 322.273 210.742 322.391 209.359 322.453V324.625H208.156V322.5C206.844 322.547 205.578 322.547 204.453 322.547L204.312 321.625ZM205.391 318.75C205.391 317.461 206.75 316.656 208.844 316.656C210.914 316.656 212.281 317.461 212.297 318.75C212.281 320.047 210.914 320.82 208.844 320.828C206.75 320.82 205.391 320.047 205.391 318.75ZM206.438 325.969V325.078H215.812V327.953H207.703V329.203H216.266V330.109H206.5V327.094H214.594V325.969H206.438ZM206.547 318.75C206.539 319.484 207.445 319.984 208.844 319.984C210.227 319.984 211.133 319.484 211.141 318.75C211.133 318.008 210.227 317.508 208.844 317.516C207.445 317.508 206.539 318.008 206.547 318.75ZM226.703 317.688V329H225.281V319.156H225.219L222.469 320.984V319.562L225.281 317.688H226.703ZM233.406 329.156C231.367 329.156 229.82 327.898 229.734 326.156H231.094C231.195 327.164 232.18 327.914 233.406 327.922C234.875 327.914 235.938 326.844 235.938 325.422C235.938 323.953 234.836 322.867 233.312 322.859C232.359 322.844 231.617 323.141 231.203 323.875H229.844L230.641 317.688H236.766V318.938H231.812L231.391 322.25H231.5C232.008 321.859 232.766 321.594 233.562 321.594C235.719 321.594 237.305 323.188 237.312 325.391C237.305 327.578 235.664 329.156 233.406 329.156ZM242.703 316.891C244.781 316.898 246.289 318.164 246.297 319.969C246.289 321.781 244.781 323.031 242.703 323.031C240.602 323.031 239.086 321.781 239.094 319.969C239.086 318.164 240.602 316.898 242.703 316.891ZM240.297 319.969C240.281 321.188 241.305 322.031 242.703 322.031C244.078 322.031 245.109 321.188 245.109 319.969C245.109 318.766 244.078 317.914 242.703 317.922C241.305 317.914 240.281 318.766 240.297 319.969ZM241.203 325.172V324.188H250.234V327.531H242.438V329.094H250.734V330.078H241.234V326.609H249.016V325.172H241.203ZM249.016 323.516V316.375H250.234V323.516H249.016ZM36.9375 348.094C36.0625 348.094 35.3438 347.375 35.3438 346.484C35.3438 345.609 36.0625 344.891 36.9375 344.891C37.8281 344.891 38.5469 345.609 38.5469 346.484C38.5469 347.375 37.8281 348.094 36.9375 348.094ZM60.4219 338.375V341.938H62.5156V342.984H60.4219V346.453H59.2031V338.375H60.4219ZM49.5938 340.828V339.812H53.125V338.25H54.3438V339.812H57.875V340.828H49.5938ZM50.3906 343.906C50.3828 342.422 51.7188 341.477 53.7344 341.469C55.7266 341.477 57.0625 342.422 57.0781 343.906C57.0625 345.391 55.7266 346.352 53.7344 346.344C51.7188 346.352 50.3828 345.391 50.3906 343.906ZM51.5625 343.906C51.5547 344.812 52.4219 345.406 53.7344 345.406C55.0312 345.406 55.9062 344.812 55.9219 343.906C55.9062 343.008 55.0312 342.406 53.7344 342.422C52.4219 342.406 51.5547 343.008 51.5625 343.906ZM51.6406 352.078V347.062H52.8594V348.547H59.2031V347.062H60.4219V352.078H51.6406ZM52.8594 351.094H59.2031V349.516H52.8594V351.094ZM70.7188 339.328C70.7188 339.867 70.6562 340.383 70.5469 340.875H73.6719V338.391H74.9062V346.672H73.6719V344.828H69.9844V343.812H73.6719V341.891H70.2109C69.2734 344.078 67.0938 345.664 64.0938 346.484L63.6094 345.5C67 344.562 69.1484 342.703 69.3984 340.328H64.3125V339.328H70.7188ZM65.5625 348.266V347.281H74.9062V352.25H73.6719V348.266H65.5625ZM81.9219 342.641C81.9062 344.867 83.5156 347.32 85.5312 348.281L84.8281 349.25C83.2656 348.484 81.9453 346.844 81.3203 344.961C80.6797 347 79.2891 348.797 77.7344 349.594L76.9844 348.625C78.9844 347.648 80.7031 345.008 80.7188 342.641V340.828H77.4844V339.812H85.0469V340.828H81.9219V342.641ZM86.75 352.266V338.375H87.9688V344H90.2969V345.047H87.9688V352.266H86.75ZM96.8594 338.969V340.969H100.906V338.969H102.125V345.016H95.6562V338.969H96.8594ZM96.8594 344.016H100.906V341.922H96.8594V344.016ZM97.0625 347.203V346.219H105.922V349.578H98.2969V351.109H106.438V352.109H97.0938V348.641H104.703V347.203H97.0625ZM104.703 345.562V338.375H105.922V341.391H108.016V342.422H105.922V345.562H104.703ZM121.609 349.547V350.562H108.891V349.547H112.438V346.234H110.047V345.219H112.219V340.688H110.016V339.672H120.391V340.688H118.188V345.219H120.359V346.234H117.969V349.547H121.609ZM113.438 345.219H116.984V340.688H113.438V345.219ZM113.672 349.547H116.75V346.234H113.672V349.547ZM124.188 351.094C123.641 351.086 123.172 350.633 123.188 350.078C123.172 349.531 123.641 349.078 124.188 349.078C124.742 349.078 125.195 349.531 125.188 350.078C125.195 350.633 124.742 351.086 124.188 351.094ZM123.188 343.797C123.172 343.25 123.641 342.797 124.188 342.797C124.742 342.797 125.195 343.25 125.188 343.797C125.195 344.352 124.742 344.805 124.188 344.812C123.641 344.805 123.172 344.352 123.188 343.797ZM135.297 339.688V351H133.875V341.156H133.812L131.062 342.984V341.562L133.875 339.688H135.297ZM142.312 339.688V351H140.891V341.156H140.828L138.078 342.984V341.562L140.891 339.688H142.312ZM156.281 338.391V346.578H155.047V345.812H152.234V345H155.047V338.391H156.281ZM144.781 343.625C147.469 343.641 150.906 343.609 153.906 343.281L153.984 344.078C152.625 344.273 151.211 344.391 149.828 344.453V346.625H148.625V344.5C147.312 344.547 146.047 344.547 144.922 344.547L144.781 343.625ZM145.859 340.75C145.859 339.461 147.219 338.656 149.312 338.656C151.383 338.656 152.75 339.461 152.766 340.75C152.75 342.047 151.383 342.82 149.312 342.828C147.219 342.82 145.859 342.047 145.859 340.75ZM146.906 347.969V347.078H156.281V349.953H148.172V351.203H156.734V352.109H146.969V349.094H155.062V347.969H146.906ZM147.016 340.75C147.008 341.484 147.914 341.984 149.312 341.984C150.695 341.984 151.602 341.484 151.609 340.75C151.602 340.008 150.695 339.508 149.312 339.516C147.914 339.508 147.008 340.008 147.016 340.75ZM167.172 339.688V351H165.75V341.156H165.688L162.938 342.984V341.562L165.75 339.688H167.172ZM170.547 351L175.734 341.016V340.938H169.75V339.688H177.188V341L172.016 351H170.547ZM182.453 338.891C184.531 338.898 186.039 340.164 186.047 341.969C186.039 343.781 184.531 345.031 182.453 345.031C180.352 345.031 178.836 343.781 178.844 341.969C178.836 340.164 180.352 338.898 182.453 338.891ZM180.047 341.969C180.031 343.188 181.055 344.031 182.453 344.031C183.828 344.031 184.859 343.188 184.859 341.969C184.859 340.766 183.828 339.914 182.453 339.922C181.055 339.914 180.031 340.766 180.047 341.969ZM180.953 347.172V346.188H189.984V349.531H182.188V351.094H190.484V352.078H180.984V348.609H188.766V347.172H180.953ZM188.766 345.516V338.375H189.984V345.516H188.766Z" fill="white"/>
<path d="M45.1562 164.672H25.6328V162.211H33.8594V157.852H27.6953V147.398H42.9766V157.852H36.8359V162.211H45.1562V164.672ZM40.0234 155.508V149.789H30.6484V155.508H40.0234ZM58.9844 149.391H54.707C54.7539 150.172 54.9727 150.918 55.3633 151.629C55.7539 152.34 56.3242 152.973 57.0742 153.527C57.8242 154.082 58.7344 154.508 59.8047 154.805L58.3047 157.125C57.1172 156.781 56.0938 156.266 55.2344 155.578C54.375 154.883 53.6953 154.059 53.1953 153.105C52.7031 154.145 52.0117 155.043 51.1211 155.801C50.2383 156.559 49.1797 157.125 47.9453 157.5L46.4453 155.156C47.5391 154.844 48.4648 154.391 49.2227 153.797C49.9883 153.203 50.5703 152.527 50.9688 151.77C51.3672 151.012 51.5898 150.219 51.6367 149.391H47.2656V147H58.9844V149.391ZM49.9609 158.297H52.9141V160.289H61.2578V158.297H64.2344V166.922H49.9609V158.297ZM61.2578 164.531V162.609H52.9141V164.531H61.2578ZM61.2344 145.828H64.2344V157.406H61.2344V145.828Z" fill="white"/>
<path d="M280.562 167.156H277.539V145.828H280.562V167.156ZM262.703 161.109C264.523 160.25 266.023 159.293 267.203 158.238C268.391 157.184 269.297 156.016 269.922 154.734C270.555 153.445 270.953 152 271.117 150.398H263.852V148.055H274.164C274.156 150.336 273.848 152.41 273.238 154.277C272.629 156.145 271.594 157.859 270.133 159.422C268.68 160.984 266.727 162.344 264.273 163.5L262.703 161.109ZM300.297 151.805H303.18V154.266H300.297V161.109H297.273V145.828H300.297V151.805ZM283.234 156.656C285.594 156 287.449 155.086 288.801 153.914C290.16 152.734 290.957 151.383 291.191 149.859H284.172V147.422H294.484C294.484 149.328 294.094 151.047 293.312 152.578C292.539 154.102 291.406 155.406 289.914 156.492C288.422 157.578 286.609 158.422 284.477 159.023L283.234 156.656ZM286.422 159.539H289.445V164.391H301.023V166.781H286.422V159.539Z" fill="white"/>
<line x1="85" y1="157.57" x2="245" y2="157.57" stroke="url(#paint0_linear_5811_665)" stroke-width="0.860526"/>
<rect x="1.43026" y="420.43" width="326.139" height="264.139" rx="19.5697" stroke="white" stroke-width="0.860526"/>
<path d="M270.906 456.641C270.898 457.82 271.098 458.98 271.504 460.121C271.91 461.254 272.516 462.277 273.32 463.191C274.125 464.098 275.102 464.789 276.25 465.266L274.633 467.609C273.414 467.094 272.367 466.34 271.492 465.348C270.617 464.348 269.93 463.18 269.43 461.844C268.93 463.289 268.234 464.562 267.344 465.664C266.461 466.758 265.406 467.586 264.18 468.148L262.469 465.781C263.609 465.273 264.582 464.535 265.387 463.566C266.199 462.598 266.809 461.512 267.215 460.309C267.629 459.098 267.836 457.875 267.836 456.641V455.328H263.312V452.891H275.359V455.328H270.906V456.641ZM277.469 450.828H280.492V472.156H277.469V450.828ZM301.445 466.953H298.445V465.266H294.367V463.227H298.445V450.852H301.445V466.953ZM283.305 460.297C285.984 460.281 288.438 460.234 290.664 460.156C292.891 460.07 295 459.906 296.992 459.664L297.156 461.797C295.531 462.07 293.812 462.273 292 462.406V466.461H289V469.391H301.914V471.781H286.023V465.406H289V462.582C287.516 462.637 285.734 462.664 283.656 462.664L283.305 460.297ZM284.875 455.398C284.875 454.648 285.102 453.984 285.555 453.406C286.008 452.828 286.641 452.379 287.453 452.059C288.266 451.738 289.195 451.578 290.242 451.578C291.266 451.578 292.18 451.738 292.984 452.059C293.789 452.379 294.418 452.828 294.871 453.406C295.332 453.984 295.562 454.648 295.562 455.398C295.562 456.148 295.332 456.809 294.871 457.379C294.418 457.949 293.789 458.387 292.984 458.691C292.18 458.996 291.266 459.148 290.242 459.148C289.188 459.148 288.254 458.996 287.441 458.691C286.637 458.387 286.008 457.949 285.555 457.379C285.102 456.809 284.875 456.148 284.875 455.398ZM287.711 455.398C287.703 455.906 287.93 456.301 288.391 456.582C288.859 456.855 289.492 456.992 290.289 456.992C291.008 456.992 291.59 456.852 292.035 456.57C292.488 456.289 292.719 455.898 292.727 455.398C292.719 454.883 292.484 454.48 292.023 454.191C291.57 453.902 290.977 453.758 290.242 453.758C289.469 453.758 288.852 453.902 288.391 454.191C287.93 454.48 287.703 454.883 287.711 455.398Z" fill="white"/>
<path d="M33.5078 456.641C33.5 457.758 33.6953 458.879 34.0938 460.004C34.4922 461.129 35.082 462.156 35.8633 463.086C36.6523 464.016 37.6094 464.742 38.7344 465.266L37.0703 467.609C35.9219 467.078 34.9219 466.309 34.0703 465.301C33.2188 464.285 32.543 463.113 32.043 461.785C31.5508 463.238 30.8633 464.523 29.9805 465.641C29.1055 466.75 28.0703 467.586 26.875 468.148L25.1406 465.781C26.2812 465.25 27.2539 464.496 28.0586 463.52C28.8633 462.543 29.4688 461.457 29.875 460.262C30.2891 459.059 30.5 457.852 30.5078 456.641V455.328H25.9844V452.891H37.7969V455.328H33.5078V456.641ZM39.4609 450.828H42.4609V458.961H45.6016V461.469H42.4609V472.156H39.4609V450.828ZM57.7891 452.164C57.7891 452.93 57.7266 453.641 57.6016 454.297H61.375V450.852H64.3516V463.508H61.375V461.188H56.5234V458.797H61.375V456.641H56.9102C56.1992 458.289 55.0664 459.691 53.5117 460.848C51.9648 461.996 50.0391 462.875 47.7344 463.484L46.6094 461.094C48.9688 460.492 50.8242 459.625 52.1758 458.492C53.5352 457.352 54.3359 456.047 54.5781 454.578H47.8281V452.164H57.7891ZM49.7031 464.375H64.3516V472.109H61.375V466.719H49.7031V464.375Z" fill="white"/>
<path d="M36.9375 565.094C36.0625 565.094 35.3438 564.375 35.3438 563.484C35.3438 562.609 36.0625 561.891 36.9375 561.891C37.8281 561.891 38.5469 562.609 38.5469 563.484C38.5469 564.375 37.8281 565.094 36.9375 565.094ZM61.4219 555.375V569.266H60.2188V562H58.2969V568.578H57.125V555.75H58.2969V560.984H60.2188V555.375H61.4219ZM49.5781 565.422C52.8047 563.617 54.1328 561.078 54.3438 558.203H50.1094V557.188H55.5469C55.5312 560.719 54.2891 564.055 50.2969 566.281L49.5781 565.422ZM65.1875 555.969V557.969H69.2344V555.969H70.4531V562.016H63.9844V555.969H65.1875ZM65.1875 561.016H69.2344V558.922H65.1875V561.016ZM65.3906 564.203V563.219H74.25V566.578H66.625V568.109H74.7656V569.109H65.4219V565.641H73.0312V564.203H65.3906ZM73.0312 562.562V555.375H74.25V558.391H76.3438V559.422H74.25V562.562H73.0312ZM81.7656 556.156L78.1094 569.703H76.8906L80.5312 556.156H81.7656ZM87.2969 558.375C87.3047 560.078 88.6953 561.602 90.75 562.203L90.1719 563.188C88.5781 562.695 87.3359 561.656 86.7188 560.32C86.125 561.828 84.8438 562.984 83.2031 563.547L82.5781 562.578C84.6484 561.938 86.0859 560.273 86.0938 558.375V558.094H82.9531V557.078H86.0938V555.312H87.3281V557.078H90.4375V558.094H87.2969V558.375ZM84.3594 566.734C84.3672 565.148 86.1016 564.242 88.9688 564.25C91.8359 564.242 93.5469 565.148 93.5469 566.734C93.5469 568.32 91.8359 569.227 88.9688 569.219C86.1016 569.227 84.3672 568.32 84.3594 566.734ZM85.5938 566.734C85.5781 567.703 86.8594 568.266 88.9688 568.266C91.0703 568.266 92.3516 567.703 92.3594 566.734C92.3516 565.766 91.0703 565.219 88.9688 565.219C86.8594 565.219 85.5781 565.766 85.5938 566.734ZM92.2031 563.906V555.375H93.4219V559H95.5156V560.016H93.4219V563.906H92.2031ZM100.219 556.031C102.078 556.023 103.5 557.109 103.766 558.703H106.672V555.375H107.906V562.828H106.672V559.719H103.773C103.531 561.359 102.102 562.453 100.219 562.453C98.1016 562.453 96.6016 561.141 96.6094 559.234C96.6016 557.352 98.1016 556.023 100.219 556.031ZM97.7812 559.234C97.7812 560.5 98.7891 561.414 100.219 561.422C101.617 561.414 102.625 560.5 102.625 559.234C102.625 557.953 101.617 557.062 100.219 557.078C98.7891 557.062 97.7812 557.953 97.7812 559.234ZM98.9531 569.078V563.531H100.188V565.297H106.672V563.531H107.906V569.078H98.9531ZM100.188 568.078H106.672V566.281H100.188V568.078ZM122.125 555.375V569.266H120.938V555.375H122.125ZM110.391 561.375C110.398 558.422 111.57 556.555 113.375 556.547C115.062 556.555 116.203 558.18 116.359 560.797H118.156V555.672H119.328V568.562H118.156V561.812H116.367C116.25 564.516 115.086 566.211 113.375 566.203C111.57 566.211 110.398 564.328 110.391 561.375ZM111.547 561.375C111.531 563.625 112.25 565.047 113.375 565.031C114.508 565.047 115.227 563.625 115.219 561.375C115.227 559.117 114.508 557.703 113.375 557.703C112.25 557.703 111.531 559.117 111.547 561.375ZM139.281 561.891V562.891H134.984V566.484H140.781V567.516H128.062V566.484H133.781V562.891H129.688V556.516H139.141V557.516H130.922V561.891H139.281ZM153.406 555.391V565.578H152.172V560.25H149.312V559.234H152.172V555.391H153.406ZM141.953 562.797C144 562.078 145.484 560.242 145.484 558.25V557.531H142.344V556.516H149.828V557.531H146.719V558.25C146.719 560.047 148.109 561.789 150.141 562.484L149.5 563.469C147.938 562.898 146.727 561.734 146.125 560.297C145.523 561.906 144.242 563.18 142.594 563.797L141.953 562.797ZM144.484 568.969V564.656H145.719V567.938H153.797V568.969H144.484ZM166.469 555.375V561.109H168.797V562.125H166.469V569.266H165.25V555.375H166.469ZM155.641 558.625V557.609H159.219V555.547H160.438V557.609H163.906V558.625H155.641ZM156.438 562.969C156.43 561.094 157.867 559.781 159.844 559.781C161.805 559.781 163.234 561.094 163.25 562.969C163.234 564.852 161.805 566.156 159.844 566.156C157.867 566.156 156.43 564.852 156.438 562.969ZM157.609 562.969C157.602 564.234 158.547 565.125 159.844 565.109C161.125 565.125 162.062 564.234 162.078 562.969C162.062 561.711 161.125 560.805 159.844 560.812C158.547 560.805 157.602 561.711 157.609 562.969ZM180.688 556.781V558.172C180.672 559.875 180.672 561.781 180.172 564.578L178.922 564.438C179.445 561.781 179.445 559.836 179.453 558.172V557.797H170.891V556.781H180.688ZM169.547 567.297V566.281H174.516V561.312H175.719V566.281H182.203V567.297H169.547ZM198.859 555.391V563.109H197.641V555.391H198.859ZM187.484 561.844C189.578 561.117 191.062 559.281 191.062 557.266V555.906H192.312V557.266C192.297 559.195 193.797 560.914 195.859 561.594L195.266 562.562C193.633 562.008 192.328 560.844 191.703 559.352C191.078 560.953 189.766 562.219 188.109 562.812L187.484 561.844ZM189.484 569.078V568.078H191.562V564.938H189.609V563.938H198.953V564.938H197.031V568.078H199.094V569.078H189.484ZM192.766 568.078H195.812V564.938H192.766V568.078ZM213.875 562.703V563.703H201.219V562.703H213.875ZM202.625 558.625C202.625 556.883 204.531 555.859 207.547 555.875C210.531 555.859 212.445 556.883 212.453 558.625C212.445 560.352 210.531 561.391 207.547 561.391C204.531 561.391 202.625 560.352 202.625 558.625ZM202.859 568.969V564.922H204.094V567.938H212.469V568.969H202.859ZM203.891 558.625C203.883 559.727 205.305 560.391 207.547 560.391C209.773 560.391 211.195 559.727 211.203 558.625C211.195 557.539 209.773 556.859 207.547 556.859C205.305 556.859 203.883 557.539 203.891 558.625ZM230.938 555.375V569.266H229.766V561.984H227.719V568.547H226.594V555.688H227.719V560.969H229.766V555.375H230.938ZM219.578 565.828V557.078H224.781V558.094H220.797V564.781C222.711 564.773 224.031 564.703 225.578 564.391L225.688 565.422C224.016 565.766 222.602 565.82 220.469 565.828H219.578ZM241.203 556.875V557.875H232.922V556.875H236.453V555.312H237.672V556.875H241.203ZM233.719 561.109C233.711 559.578 235.055 558.609 237.062 558.594C239.055 558.609 240.391 559.578 240.406 561.109C240.391 562.617 239.055 563.602 237.062 563.609C235.055 563.602 233.711 562.617 233.719 561.109ZM234.656 565.828V564.828H243.75V569.266H242.531V565.828H234.656ZM234.891 561.109C234.883 562.031 235.75 562.633 237.062 562.625C238.359 562.633 239.234 562.031 239.25 561.109C239.234 560.164 238.359 559.555 237.062 559.547C235.75 559.555 234.883 560.164 234.891 561.109ZM242.531 564.062V555.375H243.75V559.234H245.844V560.266H243.75V564.062H242.531ZM250.859 558.141C250.867 559.68 251.938 561.234 253.719 561.906L253.078 562.844C251.742 562.328 250.781 561.336 250.281 560.141C249.773 561.461 248.773 562.641 247.406 563.234L246.734 562.281C248.562 561.484 249.68 559.688 249.688 558.141V556.25H250.859V558.141ZM249.266 566.766C249.25 565.195 251.031 564.273 253.922 564.281C256.797 564.273 258.586 565.195 258.594 566.766C258.586 568.32 256.797 569.234 253.922 569.234C251.031 569.234 249.25 568.32 249.266 566.766ZM250.484 566.766C250.469 567.711 251.789 568.289 253.922 568.281C256.031 568.289 257.359 567.711 257.375 566.766C257.359 565.805 256.031 565.227 253.922 565.219C251.789 565.227 250.469 565.805 250.484 566.766ZM254.344 563.531V555.656H255.5V559.125H257.344V555.391H258.516V563.969H257.344V560.141H255.5V563.531H254.344ZM36.9375 587.094C36.0625 587.094 35.3438 586.375 35.3438 585.484C35.3438 584.609 36.0625 583.891 36.9375 583.891C37.8281 583.891 38.5469 584.609 38.5469 585.484C38.5469 586.375 37.8281 587.094 36.9375 587.094ZM53.2812 578.453C55.3281 578.461 56.7812 580.344 56.7969 583.297C56.7812 586.258 55.3281 588.133 53.2812 588.125C51.2188 588.133 49.7734 586.258 49.7812 583.297C49.7734 580.344 51.2188 578.461 53.2812 578.453ZM50.9375 583.297C50.9453 585.555 51.9062 587.039 53.2812 587.031C54.6719 587.039 55.6094 585.555 55.6094 583.297C55.6094 581.039 54.6719 579.555 53.2812 579.547C51.9062 579.555 50.9453 581.039 50.9375 583.297ZM59.0938 591.266V577.375H60.3125V582.922H62.6406V583.984H60.3125V591.266H59.0938ZM74.8438 577.375V591.297H73.6094V577.375H74.8438ZM63.9062 583.297C63.9141 580.344 65.3828 578.461 67.4531 578.453C69.5156 578.461 71.0078 580.344 71 583.297C71.0078 586.258 69.5156 588.133 67.4531 588.125C65.3828 588.133 63.9141 586.258 63.9062 583.297ZM65.0938 583.297C65.0938 585.555 66.0625 587.039 67.4531 587.031C68.8516 587.039 69.8125 585.555 69.8125 583.297C69.8125 581.039 68.8516 579.555 67.4531 579.547C66.0625 579.555 65.0938 581.039 65.0938 583.297ZM88.6719 577.375V591.297H87.4375V577.375H88.6719ZM78.125 587.844V578.703H84.7344V579.734H79.3594V586.781C82.0625 586.781 83.8359 586.703 85.9219 586.328L86.0469 587.359C83.8906 587.742 82.0625 587.836 79.25 587.844H78.125ZM94.7812 578.453C96.6719 578.461 98.0391 580.086 98.2266 582.688H101.344V577.375H102.562V591.297H101.344V583.703H98.2422C98.1094 586.43 96.7188 588.133 94.7812 588.125C92.7266 588.133 91.2891 586.258 91.2969 583.297C91.2891 580.344 92.7266 578.461 94.7812 578.453ZM92.4688 583.297C92.4766 585.555 93.4141 587.039 94.7812 587.031C96.1406 587.039 97.0938 585.555 97.0938 583.297C97.0938 581.039 96.1406 579.555 94.7812 579.547C93.4141 579.555 92.4766 581.039 92.4688 583.297ZM117.578 583.828V584.797H104.859V583.828H117.578ZM106.391 586.828V585.906H115.984V588.859H107.641V590.188H116.438V591.078H106.406V588.016H114.766V586.828H106.391ZM106.469 578.688V577.797H115.938V580.672H107.734V581.891H116.188V582.781H106.516V579.828H114.703V578.688H106.469ZM134.172 577.375V584.578H132.969V577.375H134.172ZM122.812 583.469C124.906 582.742 126.391 580.883 126.391 578.844V577.781H127.641V578.844C127.625 580.805 129.125 582.539 131.188 583.219L130.578 584.172C128.945 583.617 127.656 582.453 127.031 580.953C126.406 582.57 125.102 583.844 123.453 584.438L122.812 583.469ZM125.156 586.266V585.281H134.188V588.609H126.391V590.109H134.688V591.109H125.188V587.656H132.969V586.266H125.156ZM148.062 577.391V587.984H146.828V585H144.422V584H146.828V582.109H144.422V581.094H146.828V577.391H148.062ZM136.562 580.094V579.094H139.938V577.375H141.156V579.094H144.422V580.094H136.562ZM137.391 583.516C137.375 581.922 138.672 580.859 140.531 580.859C142.391 580.859 143.695 581.922 143.703 583.516C143.695 585.094 142.391 586.164 140.531 586.172C138.672 586.164 137.375 585.094 137.391 583.516ZM138.531 583.516C138.523 584.516 139.344 585.195 140.531 585.188C141.719 585.195 142.539 584.516 142.547 583.516C142.539 582.516 141.719 581.844 140.531 581.828C139.344 581.844 138.523 582.516 138.531 583.516ZM139.078 590.969V587.047H140.312V589.938H148.375V590.969H139.078ZM155.312 581.109C155.305 583.648 157.031 586.195 159.078 587.125L158.328 588.094C156.742 587.328 155.375 585.68 154.711 583.703C154.07 585.797 152.703 587.555 151.078 588.375L150.297 587.344C152.367 586.398 154.078 583.742 154.094 581.109V578.578H155.312V581.109ZM160.594 591.297V577.375H161.828V591.297H160.594ZM171.656 578.828C171.641 582.836 170.195 586.539 165.172 589L164.484 588.016C167.094 586.766 168.703 585.164 169.578 583.281L164.75 583.75L164.547 582.656L169.969 582.297C170.219 581.523 170.367 580.703 170.43 579.844H165.25V578.828H171.656ZM174.453 591.266V577.375H175.688V591.266H174.453ZM189.531 577.375V591.297H188.312V585.375H185.422V584.344H188.312V581.578H185.531V580.547H188.312V577.375H189.531ZM178.516 579.656V578.641H184.625V583.578H179.781V587C181.867 587 183.594 586.922 185.703 586.594L185.812 587.625C183.594 587.969 181.812 588.047 179.594 588.047H178.562V582.578H183.422V579.656H178.516ZM203.094 581.594V582.578H193.578V577.891H194.797V581.594H203.094ZM191.844 585.469V584.469H204.562V585.469H191.844ZM193.5 590.922V586.891H194.719V589.906H203.172V590.922H193.5ZM53.4844 599.875C54.7109 599.867 55.7422 600.32 56.3828 601.078H59.9375V599.375H61.1562V606.516H59.9375V604.922H56.4141C55.7812 605.711 54.7344 606.18 53.4844 606.172C51.3906 606.18 49.8672 604.898 49.875 603.016C49.8672 601.148 51.3906 599.867 53.4844 599.875ZM51.0469 603.016C51.0469 604.273 52.0625 605.172 53.4844 605.188C54.8594 605.172 55.8906 604.273 55.8906 603.016C55.8906 601.766 54.8594 600.875 53.4844 600.891C52.0625 600.875 51.0469 601.766 51.0469 603.016ZM52.1562 608.203V607.219H61.1562V610.547H53.4062V612.094H61.6875V613.078H52.1875V609.609H59.9375V608.203H52.1562ZM56.9297 602.062C57.0234 602.359 57.0781 602.68 57.0781 603.016C57.0781 603.344 57.0312 603.648 56.9375 603.938H59.9375V602.062H56.9297ZM75 599.375V607.656H73.7656V604.016H70.9688V603H73.7656V599.375H75ZM63.5469 606.547C65.6094 605.805 67.0781 603.922 67.0781 601.938V601.422H63.9375V600.391H71.4219V601.422H68.3125V601.922C68.3125 603.734 69.7031 605.461 71.7344 606.156L71.0938 607.141C69.5391 606.578 68.3281 605.406 67.7266 603.977C67.1328 605.602 65.8438 606.898 64.1875 607.531L63.5469 606.547ZM65.7344 610.672C65.7266 609.039 67.5 608.086 70.3906 608.094C73.2734 608.086 75.0469 609.039 75.0469 610.672C75.0469 612.312 73.2734 613.25 70.3906 613.266C67.5 613.25 65.7266 612.312 65.7344 610.672ZM66.9531 610.672C66.9453 611.68 68.2578 612.289 70.3906 612.281C72.5156 612.289 73.8281 611.68 73.8281 610.672C73.8281 609.656 72.5156 609.047 70.3906 609.047C68.2578 609.047 66.9453 609.656 66.9531 610.672ZM83.6406 599.625C86.7266 599.625 88.5391 600.477 88.5469 602.016C88.5391 603.594 86.7266 604.445 83.6406 604.453C80.5391 604.445 78.7188 603.594 78.7188 602.016C78.7188 600.477 80.5391 599.625 83.6406 599.625ZM77.3125 606.391V605.391H89.9688V606.391H77.3125ZM78.8438 608.531V607.594H88.3438V610.703H80.0938V612.141H88.7656V613.109H78.875V609.797H87.1406V608.531H78.8438ZM80 602.016C79.9844 602.984 81.3359 603.516 83.6406 603.516C85.9453 603.516 87.2891 602.984 87.2969 602.016C87.2891 601.102 85.9453 600.555 83.6406 600.547C81.3359 600.555 79.9844 601.102 80 602.016ZM105.906 599.375V605.031H108.156V606.062H105.906V613.266H104.688V599.375H105.906ZM95.25 609.656C98.8359 607.875 100.789 605.195 101.07 601.906H95.8906V600.875H102.312C102.305 604.805 100.461 608.391 95.9375 610.625L95.25 609.656ZM113.984 602.359C113.992 604.234 115.469 605.922 117.547 606.578L116.922 607.562C115.305 607.008 114.023 605.867 113.391 604.406C112.789 605.984 111.484 607.234 109.828 607.844L109.188 606.859C111.273 606.133 112.742 604.328 112.75 602.359V601.547H109.5V600.547H117.188V601.547H113.984V602.359ZM111.484 612.969V608.609H112.703V611.938H120.891V612.969H111.484ZM119.234 609.578V599.391H120.453V609.578H119.234ZM138.703 599.375V613.266H137.531V605.984H135.484V612.547H134.359V599.688H135.484V604.969H137.531V599.375H138.703ZM127.344 609.828V601.078H132.547V602.094H128.562V608.781C130.477 608.773 131.797 608.703 133.344 608.391L133.453 609.422C131.781 609.766 130.367 609.82 128.234 609.828H127.344ZM148.969 600.875V601.875H140.688V600.875H144.219V599.312H145.438V600.875H148.969ZM141.484 605.109C141.477 603.578 142.82 602.609 144.828 602.594C146.82 602.609 148.156 603.578 148.172 605.109C148.156 606.617 146.82 607.602 144.828 607.609C142.82 607.602 141.477 606.617 141.484 605.109ZM142.422 609.828V608.828H151.516V613.266H150.297V609.828H142.422ZM142.656 605.109C142.648 606.031 143.516 606.633 144.828 606.625C146.125 606.633 147 606.031 147.016 605.109C147 604.164 146.125 603.555 144.828 603.547C143.516 603.555 142.648 604.164 142.656 605.109ZM150.297 608.062V599.375H151.516V603.234H153.609V604.266H151.516V608.062H150.297ZM158.625 602.141C158.633 603.68 159.703 605.234 161.484 605.906L160.844 606.844C159.508 606.328 158.547 605.336 158.047 604.141C157.539 605.461 156.539 606.641 155.172 607.234L154.5 606.281C156.328 605.484 157.445 603.688 157.453 602.141V600.25H158.625V602.141ZM157.031 610.766C157.016 609.195 158.797 608.273 161.688 608.281C164.562 608.273 166.352 609.195 166.359 610.766C166.352 612.32 164.562 613.234 161.688 613.234C158.797 613.234 157.016 612.32 157.031 610.766ZM158.25 610.766C158.234 611.711 159.555 612.289 161.688 612.281C163.797 612.289 165.125 611.711 165.141 610.766C165.125 609.805 163.797 609.227 161.688 609.219C159.555 609.227 158.234 609.805 158.25 610.766ZM162.109 607.531V599.656H163.266V603.125H165.109V599.391H166.281V607.969H165.109V604.141H163.266V607.531H162.109ZM36.9375 631.094C36.0625 631.094 35.3438 630.375 35.3438 629.484C35.3438 628.609 36.0625 627.891 36.9375 627.891C37.8281 627.891 38.5469 628.609 38.5469 629.484C38.5469 630.375 37.8281 631.094 36.9375 631.094ZM50.0625 634L50.0469 632.969L53.9062 628.906C55.2422 627.484 55.8828 626.719 55.8906 625.672C55.8828 624.508 54.9141 623.758 53.6406 623.75C52.2891 623.758 51.4453 624.609 51.4375 625.875H50.1094C50.0938 623.875 51.6406 622.531 53.6875 622.531C55.7422 622.531 57.1953 623.914 57.2031 625.672C57.1953 626.938 56.6094 627.922 54.6094 629.984L52.0156 632.656V632.75H57.4062V634H50.0625ZM63.1406 634.156C61.1016 634.156 59.5547 632.898 59.4688 631.156H60.8281C60.9297 632.164 61.9141 632.914 63.1406 632.922C64.6094 632.914 65.6719 631.844 65.6719 630.422C65.6719 628.953 64.5703 627.867 63.0469 627.859C62.0938 627.844 61.3516 628.141 60.9375 628.875H59.5781L60.375 622.688H66.5V623.938H61.5469L61.125 627.25H61.2344C61.7422 626.859 62.5 626.594 63.2969 626.594C65.4531 626.594 67.0391 628.188 67.0469 630.391C67.0391 632.578 65.3984 634.156 63.1406 634.156ZM80.0156 621.391V631.672H78.7812V626.859H74.7812V625.875H78.7812V624.203H74.7812V623.219H78.7812V621.391H80.0156ZM69.3281 629.609V622.391H70.5625V628.562C72.4766 628.555 74.3203 628.445 76.4375 628.062L76.5625 629.078C74.3047 629.5 72.4141 629.594 70.375 629.609H69.3281ZM71.0625 634.969V630.797H72.2969V633.938H80.3906V634.969H71.0625ZM93.5469 627.891V628.891H89.25V632.484H95.0469V633.516H82.3281V632.484H88.0469V628.891H83.9531V622.516H93.4062V623.516H85.1875V627.891H93.5469ZM111.656 621.375V635.266H110.422V621.375H111.656ZM100.344 631.656C104.102 629.875 106.023 627.211 106.297 623.891H100.984V622.891H107.547C107.531 626.883 105.672 630.422 101.016 632.656L100.344 631.656ZM121.125 623.109C121.117 624.82 123.445 626.211 125.906 626.547L125.422 627.516C123.18 627.188 121.078 626.07 120.328 624.445C119.57 626.07 117.484 627.188 115.234 627.516L114.781 626.547C117.227 626.211 119.539 624.82 119.531 623.109V623.078H115.156V622.078H125.531V623.078H121.125V623.109ZM113.984 629.547V628.531H126.703V629.547H121.047V632.391H119.828V629.547H113.984ZM115.609 634.969V631H116.844V633.938H125.281V634.969H115.609ZM143.781 621.375V635.266H142.594V628.047H140.703V634.562H139.531V621.672H140.703V627H142.594V621.375H143.781ZM131.703 631.453C133.703 630.352 134.773 627.992 134.766 625.172V624.062H132.031V623.031H138.531V624.062H135.953V625.172C135.953 627.711 137.008 629.953 138.984 630.969L138.25 631.922C136.852 631.156 135.883 629.789 135.391 628.094C134.914 630.023 133.93 631.539 132.469 632.391L131.703 631.453ZM153.984 622.875V623.875H145.703V622.875H149.234V621.312H150.453V622.875H153.984ZM146.5 627.109C146.492 625.578 147.836 624.609 149.844 624.594C151.836 624.609 153.172 625.578 153.188 627.109C153.172 628.617 151.836 629.602 149.844 629.609C147.836 629.602 146.492 628.617 146.5 627.109ZM147.438 631.828V630.828H156.531V635.266H155.312V631.828H147.438ZM147.672 627.109C147.664 628.031 148.531 628.633 149.844 628.625C151.141 628.633 152.016 628.031 152.031 627.109C152.016 626.164 151.141 625.555 149.844 625.547C148.531 625.555 147.664 626.164 147.672 627.109ZM155.312 630.062V621.375H156.531V625.234H158.625V626.266H156.531V630.062H155.312ZM163.641 624.141C163.648 625.68 164.719 627.234 166.5 627.906L165.859 628.844C164.523 628.328 163.562 627.336 163.062 626.141C162.555 627.461 161.555 628.641 160.188 629.234L159.516 628.281C161.344 627.484 162.461 625.688 162.469 624.141V622.25H163.641V624.141ZM162.047 632.766C162.031 631.195 163.812 630.273 166.703 630.281C169.578 630.273 171.367 631.195 171.375 632.766C171.367 634.32 169.578 635.234 166.703 635.234C163.812 635.234 162.031 634.32 162.047 632.766ZM163.266 632.766C163.25 633.711 164.57 634.289 166.703 634.281C168.812 634.289 170.141 633.711 170.156 632.766C170.141 631.805 168.812 631.227 166.703 631.219C164.57 631.227 163.25 631.805 163.266 632.766ZM167.125 629.531V621.656H168.281V625.125H170.125V621.391H171.297V629.969H170.125V626.141H168.281V629.531H167.125ZM184.594 622.281V627.938H178.078V622.281H184.594ZM179.078 634.266C181.469 634 183.766 632.648 183.766 631.266H179.656V630.312H183.781V628.953H185V630.312H189.156V631.266H185.031C185.023 632.617 187.258 633.969 189.641 634.266L189.219 635.219C187.133 634.93 185.227 633.945 184.398 632.664C183.562 633.977 181.609 634.93 179.516 635.219L179.078 634.266ZM179.281 626.969H183.391V623.281H179.281V626.969ZM187.594 629.359V621.375H188.797V629.359H187.594ZM207.109 622.922V623.922H195.844V622.922H200.906V621.297H202.109V622.922H207.109ZM195.188 631.266V630.25H207.906V631.266H204.547V635.297H203.328V631.266H199.734V635.297H198.5V631.266H195.188ZM196.984 627.016C196.969 625.539 198.672 624.719 201.516 624.719C204.336 624.719 206.039 625.539 206.047 627.016C206.039 628.484 204.336 629.312 201.516 629.312C198.672 629.312 196.969 628.484 196.984 627.016ZM198.25 627.016C198.234 627.867 199.445 628.367 201.516 628.359C203.562 628.367 204.766 627.867 204.781 627.016C204.766 626.156 203.562 625.672 201.516 625.656C199.445 625.672 198.234 626.156 198.25 627.016ZM217.328 622.875V623.875H209.047V622.875H212.578V621.312H213.797V622.875H217.328ZM209.844 627.109C209.836 625.578 211.18 624.609 213.188 624.594C215.18 624.609 216.516 625.578 216.531 627.109C216.516 628.617 215.18 629.602 213.188 629.609C211.18 629.602 209.836 628.617 209.844 627.109ZM210.781 631.828V630.828H219.875V635.266H218.656V631.828H210.781ZM211.016 627.109C211.008 628.031 211.875 628.633 213.188 628.625C214.484 628.633 215.359 628.031 215.375 627.109C215.359 626.164 214.484 625.555 213.188 625.547C211.875 625.555 211.008 626.164 211.016 627.109ZM218.656 630.062V621.375H219.875V625.234H221.969V626.266H219.875V630.062H218.656ZM226.984 624.141C226.992 625.68 228.062 627.234 229.844 627.906L229.203 628.844C227.867 628.328 226.906 627.336 226.406 626.141C225.898 627.461 224.898 628.641 223.531 629.234L222.859 628.281C224.688 627.484 225.805 625.688 225.812 624.141V622.25H226.984V624.141ZM225.391 632.766C225.375 631.195 227.156 630.273 230.047 630.281C232.922 630.273 234.711 631.195 234.719 632.766C234.711 634.32 232.922 635.234 230.047 635.234C227.156 635.234 225.375 634.32 225.391 632.766ZM226.609 632.766C226.594 633.711 227.914 634.289 230.047 634.281C232.156 634.289 233.484 633.711 233.5 632.766C233.484 631.805 232.156 631.227 230.047 631.219C227.914 631.227 226.594 631.805 226.609 632.766ZM230.469 629.531V621.656H231.625V625.125H233.469V621.391H234.641V629.969H233.469V626.141H231.625V629.531H230.469ZM238.953 632.953L237.734 637.203H236.578L237.438 632.953H238.953ZM256.297 621.375V631.719H255.062V627.688H252.688V626.656H255.062V625.047H252.688V624.031H255.062V621.375H256.297ZM244.812 628.562C245.367 628.562 245.969 628.555 246.609 628.547V623.516H245.203V622.516H252.578V623.516H251.156V628.383C251.797 628.344 252.43 628.289 253.031 628.219L253.094 629.141C250.398 629.555 247.227 629.602 244.969 629.609L244.812 628.562ZM247.344 634.969V630.859H248.578V633.938H256.672V634.969H247.344ZM247.797 628.523C248.508 628.508 249.242 628.484 249.969 628.453V623.516H247.797V628.523ZM270.078 621.375V628.828H268.859V621.375H270.078ZM258.938 625.25C258.93 623.352 260.469 622.047 262.578 622.062C264.688 622.047 266.211 623.352 266.219 625.25C266.211 627.141 264.688 628.445 262.578 628.438C260.469 628.445 258.93 627.141 258.938 625.25ZM260.141 625.25C260.125 626.516 261.148 627.414 262.578 627.422C263.992 627.414 265.016 626.516 265.016 625.25C265.016 623.977 263.992 623.086 262.578 623.094C261.148 623.086 260.125 623.977 260.141 625.25ZM261.078 635.078V629.531H262.297V631.219H268.859V629.531H270.078V635.078H261.078ZM262.297 634.078H268.859V632.203H262.297V634.078ZM276.578 624.141C276.586 625.68 277.656 627.234 279.438 627.906L278.797 628.844C277.461 628.328 276.5 627.336 276 626.141C275.492 627.461 274.492 628.641 273.125 629.234L272.453 628.281C274.281 627.484 275.398 625.688 275.406 624.141V622.25H276.578V624.141ZM274.984 632.766C274.969 631.195 276.75 630.273 279.641 630.281C282.516 630.273 284.305 631.195 284.312 632.766C284.305 634.32 282.516 635.234 279.641 635.234C276.75 635.234 274.969 634.32 274.984 632.766ZM276.203 632.766C276.188 633.711 277.508 634.289 279.641 634.281C281.75 634.289 283.078 633.711 283.094 632.766C283.078 631.805 281.75 631.227 279.641 631.219C277.508 631.227 276.188 631.805 276.203 632.766ZM280.062 629.531V621.656H281.219V625.125H283.062V621.391H284.234V629.969H283.062V626.141H281.219V629.531H280.062ZM50.4219 651.688C50.4375 648.742 51.2344 646.289 52.6719 644.203H53.8594C52.8047 645.742 51.8203 648.906 51.8125 651.688C51.8203 654.477 52.8047 657.633 53.8594 659.188H52.6719C51.2344 657.094 50.4375 654.641 50.4219 651.688ZM61.9375 647.781V649.484H67.6719V650.469H55.0156V649.484H60.7344V647.781H61.9375ZM55.6875 647.562C58.0781 647.344 60.4062 646.289 60.5391 644.828H56.1719V643.828H66.5469V644.828H62.1484C62.2812 646.289 64.5938 647.344 67 647.562L66.5938 648.516C64.2812 648.273 62.1016 647.32 61.3516 645.828C60.6094 647.328 58.4219 648.273 56.1094 648.516L55.6875 647.562ZM56.5469 652.562V651.625H66.0469V654.781H57.7969V656.141H66.4688V657.109H56.5781V653.875H64.8438V652.562H56.5469ZM72.6719 644.031C74.5312 644.023 75.9531 645.109 76.2188 646.703H79.125V643.375H80.3594V650.828H79.125V647.719H76.2266C75.9844 649.359 74.5547 650.453 72.6719 650.453C70.5547 650.453 69.0547 649.141 69.0625 647.234C69.0547 645.352 70.5547 644.023 72.6719 644.031ZM70.2344 647.234C70.2344 648.5 71.2422 649.414 72.6719 649.422C74.0703 649.414 75.0781 648.5 75.0781 647.234C75.0781 645.953 74.0703 645.062 72.6719 645.078C71.2422 645.062 70.2344 645.953 70.2344 647.234ZM71.4062 657.078V651.531H72.6406V653.297H79.125V651.531H80.3594V657.078H71.4062ZM72.6406 656.078H79.125V654.281H72.6406V656.078ZM87.375 647.641C87.3594 649.867 88.9688 652.32 90.9844 653.281L90.2812 654.25C88.7188 653.484 87.3984 651.844 86.7734 649.961C86.1328 652 84.7422 653.797 83.1875 654.594L82.4375 653.625C84.4375 652.648 86.1562 650.008 86.1719 647.641V645.828H82.9375V644.812H90.5V645.828H87.375V647.641ZM92.2031 657.266V643.375H93.4219V649H95.75V650.047H93.4219V657.266H92.2031ZM98.7812 654.953L97.5625 659.203H96.4062L97.2656 654.953H98.7812ZM111.734 644.641V645.672H106.453V648.547H111.422V649.547H106.453V652.906C108.961 652.906 110.719 652.812 112.797 652.453L112.938 653.469C110.766 653.836 108.945 653.914 106.312 653.922H105.219V644.641H111.734ZM114.141 657.266V643.375H115.359V648.969H117.688V650.016H115.359V657.266H114.141ZM130.312 643.375V657.266H129.141V649.984H127.094V656.547H125.969V643.688H127.094V648.969H129.141V643.375H130.312ZM118.953 653.828V645.078H124.156V646.094H120.172V652.781C122.086 652.773 123.406 652.703 124.953 652.391L125.062 653.422C123.391 653.766 121.977 653.82 119.844 653.828H118.953ZM136.406 646.141C136.414 647.68 137.484 649.234 139.266 649.906L138.625 650.844C137.289 650.328 136.328 649.336 135.828 648.141C135.32 649.461 134.32 650.641 132.953 651.234L132.281 650.281C134.109 649.484 135.227 647.688 135.234 646.141V644.25H136.406V646.141ZM134.812 654.766C134.797 653.195 136.578 652.273 139.469 652.281C142.344 652.273 144.133 653.195 144.141 654.766C144.133 656.32 142.344 657.234 139.469 657.234C136.578 657.234 134.797 656.32 134.812 654.766ZM136.031 654.766C136.016 655.711 137.336 656.289 139.469 656.281C141.578 656.289 142.906 655.711 142.922 654.766C142.906 653.805 141.578 653.227 139.469 653.219C137.336 653.227 136.016 653.805 136.031 654.766ZM139.891 651.531V643.656H141.047V647.125H142.891V643.391H144.062V651.969H142.891V648.141H141.047V651.531H139.891ZM154.844 646.266C154.852 647.969 156.242 649.484 158.297 650.094L157.719 651.062C156.117 650.562 154.875 649.523 154.258 648.188C153.656 649.656 152.375 650.797 150.719 651.328L150.109 650.359C152.18 649.734 153.633 648.125 153.641 646.266V646.016H150.5V645.031H153.641V643.312H154.875V645.031H157.984V646.016H154.844V646.266ZM152.203 657.078V652.25H160.969V657.078H152.203ZM153.406 656.078H159.75V653.219H153.406V656.078ZM159.75 651.609V643.375H160.969V646.906H163.062V647.938H160.969V651.609H159.75ZM167.672 644.453C168.945 644.461 169.984 645.203 170.586 646.484H174.234V643.375H175.453V657.297H174.234V651.906H170.672C170.094 653.312 169.016 654.133 167.672 654.125C165.617 654.133 164.18 652.258 164.188 649.297C164.18 646.344 165.617 644.461 167.672 644.453ZM165.359 649.297C165.367 651.555 166.305 653.039 167.672 653.031C169.031 653.039 169.984 651.555 169.984 649.297C169.984 647.039 169.031 645.555 167.672 645.547C166.305 645.555 165.367 647.039 165.359 649.297ZM170.938 647.516C171.07 648.055 171.141 648.648 171.141 649.297C171.141 649.867 171.086 650.406 170.984 650.891H174.234V647.516H170.938ZM184.688 643.609V644.938H191.562V643.609H192.781V648.172H183.469V643.609H184.688ZM181.781 650.344V649.328H194.438V650.344H188.703V651.703H192.812V654.781H184.562V656.141H193.234V657.109H183.344V653.875H191.609V652.641H183.312V651.703H187.484V650.344H181.781ZM184.688 647.219H191.562V645.875H184.688V647.219ZM206.359 643.375V649.031H208.609V650.062H206.359V657.266H205.141V643.375H206.359ZM195.703 653.656C199.289 651.875 201.242 649.195 201.523 645.906H196.344V644.875H202.766C202.758 648.805 200.914 652.391 196.391 654.625L195.703 653.656ZM212.906 651.688C212.891 654.641 212.094 657.094 210.656 659.188H209.469C210.523 657.633 211.508 654.477 211.516 651.688C211.508 648.906 210.523 645.742 209.469 644.203H210.656C212.094 646.289 212.891 648.742 212.906 651.688Z" fill="white"/>
<line x1="85" y1="462.57" x2="245" y2="462.57" stroke="url(#paint1_linear_5811_665)" stroke-width="0.860526"/>
<rect x="1.43026" y="725.43" width="326.139" height="264.139" rx="19.5697" stroke="white" stroke-width="0.860526"/>
<path d="M33.9062 761.641C33.8984 762.82 34.0977 763.98 34.5039 765.121C34.9102 766.254 35.5156 767.277 36.3203 768.191C37.125 769.098 38.1016 769.789 39.25 770.266L37.6328 772.609C36.4141 772.094 35.3672 771.34 34.4922 770.348C33.6172 769.348 32.9297 768.18 32.4297 766.844C31.9297 768.289 31.2344 769.562 30.3438 770.664C29.4609 771.758 28.4062 772.586 27.1797 773.148L25.4688 770.781C26.6094 770.273 27.582 769.535 28.3867 768.566C29.1992 767.598 29.8086 766.512 30.2148 765.309C30.6289 764.098 30.8359 762.875 30.8359 761.641V760.328H26.3125V757.891H38.3594V760.328H33.9062V761.641ZM40.4688 755.828H43.4922V777.156H40.4688V755.828ZM64.4453 771.953H61.4453V770.266H57.3672V768.227H61.4453V755.852H64.4453V771.953ZM46.3047 765.297C48.9844 765.281 51.4375 765.234 53.6641 765.156C55.8906 765.07 58 764.906 59.9922 764.664L60.1562 766.797C58.5312 767.07 56.8125 767.273 55 767.406V771.461H52V774.391H64.9141V776.781H49.0234V770.406H52V767.582C50.5156 767.637 48.7344 767.664 46.6562 767.664L46.3047 765.297ZM47.875 760.398C47.875 759.648 48.1016 758.984 48.5547 758.406C49.0078 757.828 49.6406 757.379 50.4531 757.059C51.2656 756.738 52.1953 756.578 53.2422 756.578C54.2656 756.578 55.1797 756.738 55.9844 757.059C56.7891 757.379 57.418 757.828 57.8711 758.406C58.332 758.984 58.5625 759.648 58.5625 760.398C58.5625 761.148 58.332 761.809 57.8711 762.379C57.418 762.949 56.7891 763.387 55.9844 763.691C55.1797 763.996 54.2656 764.148 53.2422 764.148C52.1875 764.148 51.2539 763.996 50.4414 763.691C49.6367 763.387 49.0078 762.949 48.5547 762.379C48.1016 761.809 47.875 761.148 47.875 760.398ZM50.7109 760.398C50.7031 760.906 50.9297 761.301 51.3906 761.582C51.8594 761.855 52.4922 761.992 53.2891 761.992C54.0078 761.992 54.5898 761.852 55.0352 761.57C55.4883 761.289 55.7188 760.898 55.7266 760.398C55.7188 759.883 55.4844 759.48 55.0234 759.191C54.5703 758.902 53.9766 758.758 53.2422 758.758C52.4688 758.758 51.8516 758.902 51.3906 759.191C50.9297 759.48 50.7031 759.883 50.7109 760.398Z" fill="white"/>
<path d="M272.57 768.883C274.047 768.883 275.324 769.047 276.402 769.375C277.48 769.703 278.309 770.176 278.887 770.793C279.473 771.41 279.766 772.148 279.766 773.008C279.766 773.875 279.473 774.621 278.887 775.246C278.309 775.879 277.48 776.359 276.402 776.688C275.324 777.016 274.047 777.18 272.57 777.18C271.07 777.18 269.77 777.016 268.668 776.688C267.566 776.359 266.723 775.879 266.137 775.246C265.551 774.621 265.258 773.875 265.258 773.008C265.258 772.148 265.551 771.41 266.137 770.793C266.73 770.176 267.574 769.703 268.668 769.375C269.77 769.047 271.07 768.883 272.57 768.883ZM263.266 757.164H266.242V759.859H270.602V757.164H273.602V767.195H263.266V757.164ZM270.602 764.828V762.18H266.242V764.828H270.602ZM268.258 773.008C268.25 773.617 268.613 774.078 269.348 774.391C270.09 774.703 271.164 774.859 272.57 774.859C273.953 774.859 275.004 774.703 275.723 774.391C276.449 774.078 276.812 773.617 276.812 773.008C276.812 771.82 275.398 771.219 272.57 771.203C269.672 771.219 268.234 771.82 268.258 773.008ZM276.555 755.828H279.555V760.773H282.438V763.281H279.555V768.414H276.555V755.828ZM287.289 759.648H291.484V756.906H294.438V760.703H298.375V755.828H301.352V767.5H298.375V763.141H294.438V766.891H284.289V756.906H287.289V759.648ZM287.125 768.391H290.078V770.359H298.375V768.391H301.352V776.875H287.125V768.391ZM291.484 764.5V761.945H287.289V764.5H291.484ZM298.375 774.484V772.656H290.078V774.484H298.375Z" fill="white"/>
<path d="M36.9375 921.094C36.0625 921.094 35.3438 920.375 35.3438 919.484C35.3438 918.609 36.0625 917.891 36.9375 917.891C37.8281 917.891 38.5469 918.609 38.5469 919.484C38.5469 920.375 37.8281 921.094 36.9375 921.094ZM54.0625 912.688V924H52.6406V914.156H52.5781L49.8281 915.984V914.562L52.6406 912.688H54.0625ZM61.2031 915.906C61.2109 918.133 62.6562 920.406 64.6719 921.375L63.9531 922.328C62.4219 921.578 61.2109 920.055 60.6328 918.266C60.0234 920.203 58.7344 921.812 57.1562 922.578L56.4531 921.625C58.4922 920.672 60.0078 918.297 60.0156 915.906V914.797H56.8281V913.797H60V911.641H61.2344V913.797H64.3594V914.797H61.2031V915.906ZM66.1094 925.266V911.375H67.3281V917.078H69.6562V918.125H67.3281V925.266H66.1094ZM79.3125 915.109C79.3047 917.625 80.9219 920.156 82.9375 921.078L82.2031 922.078C80.625 921.266 79.3203 919.609 78.7031 917.633C78.0859 919.711 76.7812 921.492 75.2031 922.328L74.4062 921.344C76.4453 920.344 78.0547 917.672 78.0625 915.109V912.578H79.3125V915.109ZM81.4219 917.125V916.125H84.7188V911.375H85.9375V925.297H84.7188V917.125H81.4219ZM100.953 919.672V920.656H97.6094V925.266H96.3906V920.656H92.7969V925.266H91.5625V920.656H88.2344V919.672H100.953ZM89.7656 912.938V911.922H99.4062V915.484H91.0312V917.219H99.7031V918.234H89.7969V914.531H98.1562V912.938H89.7656ZM36.9375 940.094C36.0625 940.094 35.3438 939.375 35.3438 938.484C35.3438 937.609 36.0625 936.891 36.9375 936.891C37.8281 936.891 38.5469 937.609 38.5469 938.484C38.5469 939.375 37.8281 940.094 36.9375 940.094ZM54.5312 934.641C54.5391 937 56.25 939.398 58.2969 940.281L57.6094 941.25C55.9844 940.516 54.5859 938.914 53.9375 936.992C53.2891 939.031 51.8828 940.797 50.2969 941.594L49.5625 940.625C51.5547 939.672 53.2891 937.047 53.2969 934.641V932.828H50.0156V931.812H57.8438V932.828H54.5312V934.641ZM59.7812 944.266V930.375H61.0156V944.266H59.7812ZM74.8438 930.391V940.938H73.6094V939.5H70.7344V938.609H73.6094V930.391H74.8438ZM63.3125 936.828C65.8984 936.812 69.3828 936.789 72.3594 936.422L72.4375 937.312C71.2031 937.508 69.8984 937.633 68.625 937.711V940.453H67.3906V937.773C65.9844 937.828 64.6484 937.828 63.4844 937.828L63.3125 936.828ZM64.4375 933.375C64.4297 931.914 65.8203 930.953 67.875 930.953C69.9141 930.953 71.3047 931.914 71.3125 933.375C71.3047 934.859 69.9141 935.781 67.875 935.781C65.8203 935.781 64.4297 934.859 64.4375 933.375ZM65.3125 943.969V939.906H66.5469V942.938H75.1875V943.969H65.3125ZM65.6094 933.375C65.5938 934.281 66.5156 934.867 67.875 934.875C69.1953 934.867 70.1328 934.281 70.1406 933.375C70.1328 932.484 69.1953 931.875 67.875 931.891C66.5156 931.875 65.5938 932.484 65.6094 933.375ZM82.1094 934.109C82.1016 936.625 83.7188 939.156 85.7344 940.078L85 941.078C83.4219 940.266 82.1172 938.609 81.5 936.633C80.8828 938.711 79.5781 940.492 78 941.328L77.2031 940.344C79.2422 939.344 80.8516 936.672 80.8594 934.109V931.578H82.1094V934.109ZM84.2188 936.125V935.125H87.5156V930.375H88.7344V944.297H87.5156V936.125H84.2188ZM99.7656 932.953C99.7734 934.805 101.133 936.492 103.188 937.203L102.562 938.156C100.977 937.594 99.7656 936.461 99.1719 935.023C98.5781 936.602 97.3047 937.828 95.6719 938.422L95.0156 937.469C97.0938 936.734 98.5469 934.945 98.5625 932.953V932.359H95.3906V931.359H102.891V932.359H99.7656V932.953ZM96.8281 940.484V939.484H105.922V944.266H104.703V940.484H96.8281ZM104.703 938.75V930.375H105.922V934.047H108.016V935.094H105.922V938.75H104.703ZM113.672 932.562C113.656 934.547 115.07 936.289 117.109 936.984L116.422 937.938C114.891 937.367 113.688 936.234 113.086 934.773C112.492 936.438 111.227 937.727 109.547 938.359L108.875 937.359C111.016 936.609 112.438 934.766 112.453 932.609V931.172H113.672V932.562ZM111.141 941.641C111.133 939.969 112.906 939.008 115.797 939.016C118.68 939.008 120.453 939.969 120.453 941.641C120.453 943.297 118.68 944.234 115.797 944.234C112.906 944.234 111.133 943.297 111.141 941.641ZM112.359 941.641C112.352 942.648 113.664 943.258 115.797 943.25C117.922 943.258 119.234 942.648 119.234 941.641C119.234 940.602 117.922 939.984 115.797 939.984C113.664 939.984 112.352 940.602 112.359 941.641ZM116.078 934.375V933.359H119.172V930.375H120.406V938.609H119.172V934.375H116.078ZM36.9375 959.094C36.0625 959.094 35.3438 958.375 35.3438 957.484C35.3438 956.609 36.0625 955.891 36.9375 955.891C37.8281 955.891 38.5469 956.609 38.5469 957.484C38.5469 958.375 37.8281 959.094 36.9375 959.094ZM50.0625 962L50.0469 960.969L53.9062 956.906C55.2422 955.484 55.8828 954.719 55.8906 953.672C55.8828 952.508 54.9141 951.758 53.6406 951.75C52.2891 951.758 51.4453 952.609 51.4375 953.875H50.1094C50.0938 951.875 51.6406 950.531 53.6875 950.531C55.7422 950.531 57.1953 951.914 57.2031 953.672C57.1953 954.938 56.6094 955.922 54.6094 957.984L52.0156 960.656V960.75H57.4062V962H50.0625ZM63.5781 953.906C63.5859 956.133 65.0312 958.406 67.0469 959.375L66.3281 960.328C64.7969 959.578 63.5859 958.055 63.0078 956.266C62.3984 958.203 61.1094 959.812 59.5312 960.578L58.8281 959.625C60.8672 958.672 62.3828 956.297 62.3906 953.906V952.797H59.2031V951.797H62.375V949.641H63.6094V951.797H66.7344V952.797H63.5781V953.906ZM68.4844 963.266V949.375H69.7031V955.078H72.0312V956.125H69.7031V963.266H68.4844ZM83.8281 950.594V951.828H87.0781V949.391H88.3125V959.531H87.0781V955.828H83.8281V957.078H77.4531V950.594H83.8281ZM78.6719 956.094H82.625V951.609H78.6719V956.094ZM79.3281 962.969V958.625H80.5625V961.938H88.625V962.969H79.3281ZM83.8281 954.812H87.0781V952.859H83.8281V954.812ZM102.125 949.375V956.922H100.906V953.781H98.0938V952.75H100.906V949.375H102.125ZM90.6875 956.188C92.7344 955.445 94.2188 953.609 94.2188 951.641V951.234H91.0781V950.219H98.5625V951.234H95.4531V951.641C95.4531 953.422 96.8438 955.172 98.875 955.875L98.2344 956.828C96.6719 956.258 95.4609 955.094 94.8594 953.672C94.2656 955.266 92.9766 956.555 91.3281 957.156L90.6875 956.188ZM93.1875 963.078V957.594H94.4219V959.328H100.906V957.594H102.125V963.078H93.1875ZM94.4219 962.078H100.906V960.312H94.4219V962.078ZM120.391 950.969V951.984H109.125V950.969H114.188V949.297H115.391V950.969H120.391ZM108.469 959.391V958.375H121.188V959.391H115.391V963.297H114.188V959.391H108.469ZM110.266 955.109C110.25 953.609 111.953 952.781 114.797 952.781C117.617 952.781 119.32 953.609 119.328 955.109C119.32 956.578 117.617 957.406 114.797 957.422C111.953 957.406 110.25 956.578 110.266 955.109ZM111.531 955.109C111.516 955.969 112.727 956.477 114.797 956.469C116.844 956.477 118.047 955.969 118.062 955.109C118.047 954.234 116.844 953.727 114.797 953.719C112.727 953.727 111.516 954.234 111.531 955.109ZM131.578 956.703V959.266C132.922 959.195 134.281 959.086 135.562 958.891L135.656 959.797C132.477 960.375 129.062 960.398 126.562 960.391L126.391 959.375C127.555 959.367 128.93 959.359 130.375 959.312V956.703H131.578ZM126.812 956.219C128.867 955.609 130.312 954.086 130.344 952.219H127.156V951.203H130.375V949.484H131.578V951.203H134.844V952.219H131.578C131.617 954.008 133.102 955.477 135.156 956.062L134.578 957.031C132.914 956.531 131.602 955.461 130.977 954.055C130.375 955.539 129.078 956.648 127.406 957.156L126.812 956.219ZM136.484 963.297V949.375H137.703V963.297H136.484ZM147.062 954.312V956.297H152.797V957.312H140.141V956.297H145.859V954.312H147.062ZM140.844 954.031C143.266 953.773 145.586 952.586 145.672 951.031H141.297V950.031H151.672V951.031H147.266C147.352 952.578 149.672 953.773 152.094 954.031L151.641 955C149.367 954.719 147.234 953.727 146.469 952.188C145.703 953.727 143.586 954.719 141.297 955L140.844 954.031ZM141.672 960.844C141.664 959.305 143.453 958.453 146.469 958.453C149.453 958.453 151.234 959.305 151.25 960.844C151.234 962.391 149.453 963.234 146.469 963.234C143.453 963.234 141.664 962.391 141.672 960.844ZM142.922 960.844C142.906 961.758 144.219 962.289 146.469 962.281C148.695 962.289 150.008 961.758 150.016 960.844C150.008 959.938 148.695 959.414 146.469 959.422C144.219 959.414 142.906 959.938 142.922 960.844ZM168.844 949.375V952.938H170.938V953.984H168.844V957.453H167.625V949.375H168.844ZM158.016 951.828V950.812H161.547V949.25H162.766V950.812H166.297V951.828H158.016ZM158.812 954.906C158.805 953.422 160.141 952.477 162.156 952.469C164.148 952.477 165.484 953.422 165.5 954.906C165.484 956.391 164.148 957.352 162.156 957.344C160.141 957.352 158.805 956.391 158.812 954.906ZM159.984 954.906C159.977 955.812 160.844 956.406 162.156 956.406C163.453 956.406 164.328 955.812 164.344 954.906C164.328 954.008 163.453 953.406 162.156 953.422C160.844 953.406 159.977 954.008 159.984 954.906ZM160.062 963.078V958.062H161.281V959.547H167.625V958.062H168.844V963.078H160.062ZM161.281 962.094H167.625V960.516H161.281V962.094ZM179.141 950.328C179.141 950.867 179.078 951.383 178.969 951.875H182.094V949.391H183.328V957.672H182.094V955.828H178.406V954.812H182.094V952.891H178.633C177.695 955.078 175.516 956.664 172.516 957.484L172.031 956.5C175.422 955.562 177.57 953.703 177.82 951.328H172.734V950.328H179.141ZM173.984 959.266V958.281H183.328V963.25H182.094V959.266H173.984Z" fill="white"/>
<line x1="85" y1="767.57" x2="245" y2="767.57" stroke="url(#paint2_linear_5811_665)" stroke-width="0.860526"/>
<path d="M0.999722 71.0949L165 64.3502" stroke="#FF731D" stroke-width="4.25974"/>
<path d="M6.82061 75.6685L155.842 73.7039" stroke="#FF731D" stroke-width="4.25974"/>
<defs>
<linearGradient id="paint0_linear_5811_665" x1="245" y1="158.944" x2="85" y2="158.944" gradientUnits="userSpaceOnUse">
<stop offset="0.3125" stop-color="#FF731D"/>
<stop offset="1" stop-color="white"/>
</linearGradient>
<linearGradient id="paint1_linear_5811_665" x1="245" y1="463.944" x2="85" y2="463.944" gradientUnits="userSpaceOnUse">
<stop offset="0.3125" stop-color="#FF731D"/>
<stop offset="1" stop-color="white"/>
</linearGradient>
<linearGradient id="paint2_linear_5811_665" x1="245" y1="768.944" x2="85" y2="768.944" gradientUnits="userSpaceOnUse">
<stop offset="0.3125" stop-color="#FF731D"/>
<stop offset="1" stop-color="white"/>
</linearGradient>
</defs>
</svg>
