<svg width="328" height="429" viewBox="0 0 328 429" fill="none" xmlns="http://www.w3.org/2000/svg">
<path d="M0.999989 38.8305L166 32.0447" stroke="#FF731D" stroke-width="4.41964"/>
<path d="M6.71484 29.1475L156.785 41.4552" stroke="#FF731D" stroke-width="4.41964"/>
<path d="M2.20764 0.901555V17.7306H36.8268V0.901555H2.20764ZM14.8879 21.6373H1V27.6477H38.0344V21.6373H24.1465V18.9326H14.8879V21.6373ZM11.4662 6.91192H27.5682V11.7202H11.4662V6.91192Z" fill="white"/>
<path d="M68.628 15.9275V18.4819H50.5134V15.9275H41.2548V28.5492H77.8866V15.9275H68.628ZM54.3376 8.11399L55.1829 6.91192H65.0051V1.20207H41.2548V6.91192H45.7231L40.0069 15.0259H49.4668L53.2104 9.70674L56.7529 15.0259H66.2127L61.664 8.11399H54.3376ZM77.8866 0.300518H68.628V15.0259H77.8866V0.300518ZM50.5134 22.5389H68.628V24.1917H50.5134V22.5389Z" fill="white"/>
<path d="M91.5732 24.6425V23.7409H118.141V15.3264H81.5096V19.2332H108.078V20.1347H81.5096V28.5492H118.141V24.6425H91.5732ZM104.857 7.06218C104.857 2.46425 100.631 0 92.5796 0C84.5287 0 80.3019 2.46425 80.3019 7.06218C80.3019 11.6601 84.5287 14.1244 92.5796 14.1244C100.631 14.1244 104.857 11.6601 104.857 7.06218ZM118.141 0.300518H108.883V14.4249H118.141V0.300518ZM92.5796 9.01554C89.3592 9.01554 88.3529 8.2943 88.3529 7.06218C88.3529 5.83005 89.3592 5.10881 92.5796 5.10881C95.8 5.10881 96.8064 5.83005 96.8064 7.06218C96.8064 8.2943 95.8 9.01554 92.5796 9.01554Z" fill="white"/>
<path d="M158.396 0.300518H149.138V5.70984H145.515V1.20207H121.764V7.21244H126.514L120.959 16.829H130.419L133.841 10.9389L136.86 16.829H146.32L142.173 8.71503H135.129L135.974 7.21244H145.112V11.7202H149.138V17.1295H158.396V0.300518ZM159 23.3503C159 19.744 154.814 17.7005 140.684 17.7005C126.555 17.7005 122.368 19.744 122.368 23.3503C122.368 26.9565 126.555 29 140.684 29C154.814 29 159 26.9565 159 23.3503ZM149.741 23.3503C149.741 24.0415 148.816 24.4922 140.684 24.4922C132.553 24.4922 131.627 24.0415 131.627 23.3503C131.627 22.6591 132.553 22.2083 140.684 22.2083C148.816 22.2083 149.741 22.6591 149.741 23.3503Z" fill="white"/>
<circle cx="91" cy="192" r="89.5" stroke="white"/>
<circle cx="91" cy="339" r="89.5" stroke="white"/>
<circle cx="238" cy="192" r="89.5" stroke="white"/>
<circle cx="238" cy="339" r="89.5" stroke="white"/>
<rect x="40" y="231" width="102" height="74" fill="black"/>
<rect x="40" y="231" width="102" height="74" fill="black"/>
<rect x="121" y="141" width="102" height="102" fill="black"/>
<rect x="187" y="217" width="102" height="102" fill="black"/>
<rect x="110" y="288" width="102" height="102" fill="black"/>
<rect x="110" y="222" width="102" height="102" fill="black"/>
<path d="M55.8711 147.047C55.8776 148.193 56.0371 149.286 56.3496 150.328C56.6621 151.37 57.1406 152.294 57.7852 153.102C58.4362 153.902 59.237 154.508 60.1875 154.918L58.6641 156.91C57.7005 156.441 56.8802 155.787 56.2031 154.947C55.5326 154.101 55.0052 153.111 54.6211 151.979C54.224 153.189 53.6771 154.247 52.9805 155.152C52.2839 156.051 51.444 156.741 50.4609 157.223L48.8984 155.191C49.875 154.749 50.6953 154.104 51.3594 153.258C52.0299 152.411 52.528 151.454 52.8535 150.387C53.179 149.312 53.3451 148.199 53.3516 147.047V144.391H55.8711V147.047ZM58.1953 148.609H61.6914V143.023H64.1523V160.836H61.6914V150.621H58.1953V148.609ZM82.6875 155.406H78.9375V160.797H76.418V155.406H72.707V160.797H70.2266V155.406H66.418V153.453H82.6875V155.406ZM68.293 143.551H80.8125V148.727H70.8711V150.172H81.2227V152.164H68.3516V146.91H78.2539V145.582H68.293V143.551ZM103.312 152.75H100.832V149.039H98.0195V147.008H100.832V143.023H103.312V152.75ZM88.2344 151.109C89.1328 150.81 89.8945 150.39 90.5195 149.85C91.1445 149.303 91.6198 148.688 91.9453 148.004C92.2708 147.32 92.4564 146.604 92.502 145.855H88.9375V143.824H98.5859V145.855H95.0605C95.0996 146.539 95.2721 147.203 95.5781 147.848C95.8906 148.486 96.3464 149.062 96.9453 149.576C97.5443 150.09 98.2734 150.491 99.1328 150.777L97.9023 152.691C96.9453 152.379 96.1217 151.92 95.4316 151.314C94.748 150.709 94.2077 149.996 93.8105 149.176C93.4004 150.094 92.834 150.888 92.1113 151.559C91.3952 152.229 90.526 152.73 89.5039 153.062L88.2344 151.109ZM91.457 153.434H93.918V155.113H100.832V153.434H103.312V160.602H91.457V153.434ZM100.832 158.609V157.027H93.918V158.609H100.832ZM115.051 144.41C115.044 145.133 115.282 145.842 115.764 146.539C116.252 147.229 116.965 147.828 117.902 148.336C118.84 148.837 119.96 149.169 121.262 149.332L120.285 151.344C118.762 151.122 117.437 150.68 116.311 150.016C115.191 149.345 114.335 148.518 113.742 147.535C113.143 148.518 112.284 149.345 111.164 150.016C110.051 150.68 108.742 151.122 107.238 151.344L106.242 149.332C107.531 149.169 108.641 148.837 109.572 148.336C110.51 147.828 111.219 147.229 111.701 146.539C112.183 145.842 112.427 145.133 112.434 144.41V143.551H115.051V144.41ZM105.617 152.691H121.828V154.723H114.914V160.797H112.453V154.723H105.617V152.691Z" fill="white"/>
<path d="M181.742 145.816H185.062V143.043H187.543V155.973H185.062V151.617H181.742V153.121H173.305V144.469H181.742V145.816ZM175.707 154.742H178.227V158.492H187.914V160.484H175.707V154.742ZM179.301 151.188V146.441H175.785V151.188H179.301ZM185.062 149.645V147.828H181.742V149.645H185.062ZM204.828 152.75H202.348V149.039H199.535V147.008H202.348V143.023H204.828V152.75ZM189.75 151.109C190.648 150.81 191.41 150.39 192.035 149.85C192.66 149.303 193.135 148.688 193.461 148.004C193.786 147.32 193.972 146.604 194.018 145.855H190.453V143.824H200.102V145.855H196.576C196.615 146.539 196.788 147.203 197.094 147.848C197.406 148.486 197.862 149.062 198.461 149.576C199.06 150.09 199.789 150.491 200.648 150.777L199.418 152.691C198.461 152.379 197.637 151.92 196.947 151.314C196.264 150.709 195.723 149.996 195.326 149.176C194.916 150.094 194.35 150.888 193.627 151.559C192.911 152.229 192.042 152.73 191.02 153.062L189.75 151.109ZM192.973 153.434H195.434V155.113H202.348V153.434H204.828V160.602H192.973V153.434ZM202.348 158.609V157.027H195.434V158.609H202.348ZM216.801 143.551C217.693 143.551 218.5 143.723 219.223 144.068C219.945 144.413 220.512 144.895 220.922 145.514C221.339 146.132 221.547 146.832 221.547 147.613C221.547 148.388 221.339 149.081 220.922 149.693C220.512 150.305 219.945 150.787 219.223 151.139C218.5 151.484 217.693 151.656 216.801 151.656C215.896 151.656 215.079 151.484 214.35 151.139C213.62 150.787 213.048 150.305 212.631 149.693C212.221 149.081 212.016 148.388 212.016 147.613C212.016 146.832 212.221 146.132 212.631 145.514C213.048 144.895 213.62 144.413 214.35 144.068C215.079 143.723 215.896 143.551 216.801 143.551ZM214.438 147.613C214.431 148.03 214.529 148.391 214.73 148.697C214.932 148.997 215.212 149.228 215.57 149.391C215.928 149.553 216.339 149.638 216.801 149.645C217.25 149.638 217.65 149.553 218.002 149.391C218.36 149.228 218.64 148.997 218.842 148.697C219.044 148.391 219.145 148.03 219.145 147.613C219.145 147.197 219.044 146.835 218.842 146.529C218.64 146.223 218.36 145.989 218.002 145.826C217.65 145.663 217.25 145.582 216.801 145.582C216.345 145.582 215.935 145.663 215.57 145.826C215.212 145.989 214.932 146.223 214.73 146.529C214.529 146.835 214.431 147.197 214.438 147.613ZM214.691 152.672H226.625V157.496H217.172V158.648H227.113V160.602H214.73V155.68H224.145V154.586H214.691V152.672ZM224.125 143.023H226.625V151.93H224.125V143.023ZM244.008 153.57H241.527V149.371H238.754V147.359H241.527V143.023H244.008V153.57ZM228.91 151.617C229.841 151.305 230.626 150.859 231.264 150.279C231.902 149.7 232.38 149.049 232.699 148.326C233.018 147.604 233.188 146.858 233.207 146.09H229.633V144.098H239.281V146.09H235.746C235.766 146.806 235.925 147.496 236.225 148.16C236.524 148.818 236.977 149.41 237.582 149.938C238.194 150.465 238.943 150.875 239.828 151.168L238.598 153.121C237.647 152.815 236.827 152.359 236.137 151.754C235.453 151.142 234.913 150.426 234.516 149.605C234.112 150.536 233.549 151.347 232.826 152.037C232.104 152.721 231.228 153.238 230.199 153.59L228.91 151.617ZM231.82 157.398C231.82 156.689 232.064 156.077 232.553 155.562C233.048 155.042 233.754 154.645 234.672 154.371C235.59 154.098 236.677 153.961 237.934 153.961C239.197 153.961 240.287 154.098 241.205 154.371C242.123 154.645 242.829 155.038 243.324 155.553C243.819 156.067 244.066 156.682 244.066 157.398C244.066 158.115 243.819 158.727 243.324 159.234C242.829 159.749 242.123 160.139 241.205 160.406C240.287 160.68 239.197 160.816 237.934 160.816C236.677 160.816 235.59 160.68 234.672 160.406C233.754 160.139 233.048 159.749 232.553 159.234C232.064 158.72 231.82 158.108 231.82 157.398ZM234.301 157.398C234.301 157.9 234.61 158.281 235.229 158.541C235.847 158.795 236.749 158.922 237.934 158.922C239.125 158.922 240.03 158.795 240.648 158.541C241.267 158.287 241.579 157.906 241.586 157.398C241.579 156.897 241.27 156.52 240.658 156.266C240.053 156.005 239.167 155.875 238.002 155.875C235.535 155.875 234.301 156.383 234.301 157.398ZM265.023 148.121H267.426V150.191H265.023V155.973H262.523V143.023H265.023V148.121ZM251.039 148.688C251.039 147.822 251.254 147.047 251.684 146.363C252.113 145.673 252.699 145.136 253.441 144.752C254.19 144.368 255.017 144.176 255.922 144.176C256.82 144.176 257.637 144.368 258.373 144.752C259.115 145.136 259.698 145.673 260.121 146.363C260.551 147.047 260.766 147.822 260.766 148.688C260.766 149.54 260.551 150.312 260.121 151.002C259.698 151.686 259.115 152.223 258.373 152.613C257.637 153.004 256.82 153.199 255.922 153.199C255.017 153.199 254.19 153.004 253.441 152.613C252.699 152.223 252.113 151.686 251.684 151.002C251.254 150.312 251.039 149.54 251.039 148.688ZM253.5 154.605H255.98V158.492H265.668V160.484H253.5V154.605ZM253.5 148.688C253.493 149.156 253.594 149.57 253.803 149.928C254.018 150.279 254.311 150.553 254.682 150.748C255.053 150.937 255.466 151.031 255.922 151.031C256.378 151.031 256.788 150.937 257.152 150.748C257.523 150.553 257.813 150.279 258.021 149.928C258.236 149.57 258.344 149.156 258.344 148.688C258.344 148.206 258.236 147.789 258.021 147.438C257.813 147.079 257.523 146.806 257.152 146.617C256.788 146.428 256.378 146.337 255.922 146.344C255.466 146.337 255.053 146.428 254.682 146.617C254.311 146.806 254.018 147.079 253.803 147.438C253.594 147.789 253.493 148.206 253.5 148.688ZM283.539 160.797H281.137V151.91H279.477V159.938H277.133V143.316H279.477V149.898H281.137V143.023H283.539V160.797ZM268.93 144.996H271.43V154.283C273.096 154.238 274.665 154.072 276.137 153.785L276.391 155.934C274.288 156.298 272.204 156.474 270.141 156.461H268.93V144.996Z" fill="white"/>
<path d="M80.9219 292.816H84.2422V290.043H86.7227V302.973H84.2422V298.617H80.9219V300.121H72.4844V291.469H80.9219V292.816ZM74.8867 301.742H77.4062V305.492H87.0938V307.484H74.8867V301.742ZM78.4805 298.188V293.441H74.9648V298.188H78.4805ZM84.2422 296.645V294.828H80.9219V296.645H84.2422ZM104.008 299.75H101.527V296.039H98.7148V294.008H101.527V290.023H104.008V299.75ZM88.9297 298.109C89.8281 297.81 90.5898 297.39 91.2148 296.85C91.8398 296.303 92.3151 295.688 92.6406 295.004C92.9661 294.32 93.1517 293.604 93.1973 292.855H89.6328V290.824H99.2812V292.855H95.7559C95.7949 293.539 95.9674 294.203 96.2734 294.848C96.5859 295.486 97.0417 296.062 97.6406 296.576C98.2396 297.09 98.9688 297.491 99.8281 297.777L98.5977 299.691C97.6406 299.379 96.8171 298.92 96.127 298.314C95.4434 297.709 94.903 296.996 94.5059 296.176C94.0957 297.094 93.5293 297.888 92.8066 298.559C92.0905 299.229 91.2214 299.73 90.1992 300.062L88.9297 298.109ZM92.1523 300.434H94.6133V302.113H101.527V300.434H104.008V307.602H92.1523V300.434ZM101.527 305.609V304.027H94.6133V305.609H101.527Z" fill="white"/>
<path d="M207.281 302.309C208.863 302.211 210.302 302.068 211.598 301.879L211.793 303.695C210.055 304.027 208.284 304.242 206.48 304.34C204.684 304.438 202.698 304.49 200.523 304.496L200.23 302.484C201.949 302.484 203.473 302.465 204.801 302.426V299.633H207.281V302.309ZM200.582 298.305C201.871 297.96 202.864 297.416 203.561 296.674C204.264 295.925 204.658 295.076 204.742 294.125H201.148V292.113H204.801V290.18H207.281V292.113H210.953V294.125H207.32C207.379 294.717 207.571 295.277 207.896 295.805C208.222 296.326 208.688 296.788 209.293 297.191C209.898 297.595 210.634 297.901 211.5 298.109L210.367 300.043C209.352 299.789 208.479 299.392 207.75 298.852C207.027 298.305 206.458 297.65 206.041 296.889C205.644 297.689 205.084 298.373 204.361 298.939C203.645 299.506 202.776 299.919 201.754 300.18L200.582 298.305ZM212.613 290.023H215.094V307.836H212.613V290.023ZM226.754 298.52H233.648V300.531H217.438V298.52H224.293V296.391H226.754V298.52ZM218.141 295.453C219.202 295.355 220.123 295.173 220.904 294.906C221.692 294.633 222.317 294.311 222.779 293.939C223.248 293.562 223.561 293.161 223.717 292.738H218.922V290.785H232.184V292.738H227.35C227.499 293.161 227.809 293.562 228.277 293.939C228.746 294.311 229.374 294.633 230.162 294.906C230.95 295.173 231.878 295.355 232.945 295.453L232.066 297.406C230.426 297.243 229.046 296.876 227.926 296.303C226.806 295.723 226.005 294.994 225.523 294.115C225.042 294.994 224.244 295.723 223.131 296.303C222.024 296.876 220.654 297.243 219.02 297.406L218.141 295.453ZM219.293 304.652C219.293 303.982 219.54 303.412 220.035 302.943C220.53 302.475 221.243 302.12 222.174 301.879C223.111 301.632 224.228 301.508 225.523 301.508C226.812 301.508 227.919 301.632 228.844 301.879C229.768 302.12 230.475 302.475 230.963 302.943C231.458 303.412 231.708 303.982 231.715 304.652C231.708 305.323 231.458 305.893 230.963 306.361C230.475 306.837 229.768 307.195 228.844 307.436C227.919 307.676 226.812 307.797 225.523 307.797C224.228 307.797 223.111 307.676 222.174 307.436C221.243 307.195 220.53 306.837 220.035 306.361C219.54 305.893 219.293 305.323 219.293 304.652ZM221.832 304.652C221.826 305.089 222.128 305.414 222.74 305.629C223.352 305.837 224.28 305.941 225.523 305.941C227.978 305.941 229.208 305.512 229.215 304.652C229.208 303.819 227.978 303.402 225.523 303.402C224.273 303.402 223.342 303.507 222.73 303.715C222.125 303.917 221.826 304.229 221.832 304.652ZM242.34 292.934H245.973V290.824H248.473V298.578H239.859V290.824H242.34V292.934ZM241.637 299.73H253.434V304.555H244.117V305.707H253.941V307.68H241.676V302.777H250.953V301.664H241.637V299.73ZM245.973 296.625V294.809H242.34V296.625H245.973ZM250.934 290.023H253.434V293.48H255.836V295.492H253.434V299.066H250.934V290.023ZM272.887 305.824H256.617V303.832H260.66V300.453H257.965V298.441H260.348V293.441H257.887V291.449H271.52V293.441H269.02V298.441H271.441V300.453H268.766V303.832H272.887V305.824ZM266.559 298.441V293.441H262.848V298.441H266.559ZM266.266 303.832V300.453H263.16V303.832H266.266Z" fill="white"/>
<path d="M25.4893 199V197.906L28.9209 194.447C30.0078 193.319 30.5479 192.69 30.5479 191.822C30.5479 190.845 29.7549 190.223 28.7158 190.223C27.6152 190.223 26.918 190.92 26.9111 191.973H25.4893C25.4756 190.161 26.8564 188.965 28.7432 188.965C30.6504 188.965 31.9697 190.175 31.9834 191.781C31.9697 192.889 31.4502 193.771 29.5908 195.596L27.5811 197.633V197.715H32.1475V199H25.4893ZM37.2607 199.137C34.9707 199.137 33.624 197.291 33.624 194.051C33.624 190.831 34.9844 188.965 37.2607 188.965C39.5303 188.965 40.8906 190.831 40.8975 194.051C40.8906 197.291 39.5508 199.137 37.2607 199.137ZM35.1279 194.051C35.1211 196.519 35.9209 197.838 37.2607 197.838C38.5938 197.838 39.3936 196.519 39.3936 194.051C39.3936 191.59 38.5869 190.243 37.2607 190.236C35.9277 190.243 35.1279 191.59 35.1279 194.051ZM42.4561 199V197.906L45.8877 194.447C46.9746 193.319 47.5146 192.69 47.5146 191.822C47.5146 190.845 46.7217 190.223 45.6826 190.223C44.582 190.223 43.8848 190.92 43.8779 191.973H42.4561C42.4424 190.161 43.8232 188.965 45.71 188.965C47.6172 188.965 48.9365 190.175 48.9502 191.781C48.9365 192.889 48.417 193.771 46.5576 195.596L44.5479 197.633V197.715H49.1143V199H42.4561ZM50.3447 197.072V195.855L54.7197 189.102H56.5791V195.801H57.9326V197.072H56.5791V199H55.1572V197.072H50.3447ZM51.9307 195.801H55.1572V190.893H55.0479L51.9307 195.719V195.801ZM69.2393 187.926V196.977H67.9404V192.807H64.5771V191.768H67.9404V190.482H64.5771V189.443H67.9404V187.926H69.2393ZM59.751 195.227V188.773H61.0361V194.133C62.6631 194.126 64.208 194.037 65.958 193.709L66.0947 194.775C64.1533 195.138 62.4922 195.213 60.6943 195.227H59.751ZM61.2549 199.902V196.184H62.5674V198.85H69.5537V199.902H61.2549ZM78.7275 189.102V199H77.21V190.605H77.1553L74.79 192.15V190.715L77.251 189.102H78.7275ZM84.6885 199.137C82.3984 199.137 81.0518 197.291 81.0518 194.051C81.0518 190.831 82.4121 188.965 84.6885 188.965C86.958 188.965 88.3184 190.831 88.3252 194.051C88.3184 197.291 86.9785 199.137 84.6885 199.137ZM82.5557 194.051C82.5488 196.519 83.3486 197.838 84.6885 197.838C86.0215 197.838 86.8213 196.519 86.8213 194.051C86.8213 191.59 86.0146 190.243 84.6885 190.236C83.3555 190.243 82.5557 191.59 82.5557 194.051ZM99.6455 187.926V195.104H98.3467V194.516H95.9541V193.695H98.3467V187.926H99.6455ZM89.4326 192.438C91.8047 192.444 94.7988 192.417 97.4443 192.137L97.5127 192.971C96.3574 193.135 95.1543 193.23 93.9854 193.292V195.131H92.7002V193.34C91.5996 193.374 90.54 193.374 89.583 193.367L89.4326 192.438ZM90.3486 189.977C90.3418 188.855 91.5518 188.131 93.4111 188.131C95.2363 188.131 96.46 188.855 96.4736 189.977C96.46 191.118 95.2363 191.809 93.4111 191.809C91.5518 191.809 90.3418 191.118 90.3486 189.977ZM91.2646 196.416V195.514H99.6455V198.152H92.5908V199.096H100.015V200.039H91.3193V197.291H98.3604V196.416H91.2646ZM91.5654 189.977C91.5586 190.558 92.2832 190.934 93.4111 190.934C94.5254 190.934 95.2432 190.558 95.2432 189.977C95.2432 189.389 94.5254 189.006 93.4111 189.006C92.2832 189.006 91.5586 189.389 91.5654 189.977ZM105.401 199V197.906L108.833 194.447C109.92 193.319 110.46 192.69 110.46 191.822C110.46 190.845 109.667 190.223 108.628 190.223C107.527 190.223 106.83 190.92 106.823 191.973H105.401C105.388 190.161 106.769 188.965 108.655 188.965C110.562 188.965 111.882 190.175 111.896 191.781C111.882 192.889 111.362 193.771 109.503 195.596L107.493 197.633V197.715H112.06V199H105.401ZM113.728 199V197.906L117.159 194.447C118.246 193.319 118.786 192.69 118.786 191.822C118.786 190.845 117.993 190.223 116.954 190.223C115.854 190.223 115.156 190.92 115.149 191.973H113.728C113.714 190.161 115.095 188.965 116.981 188.965C118.889 188.965 120.208 190.175 120.222 191.781C120.208 192.889 119.688 193.771 117.829 195.596L115.819 197.633V197.715H120.386V199H113.728ZM125.103 188.322C126.948 188.336 128.309 189.464 128.315 191.07C128.309 192.684 126.948 193.805 125.103 193.805C123.236 193.805 121.883 192.684 121.876 191.07C121.883 189.464 123.236 188.336 125.103 188.322ZM123.147 191.07C123.141 192.082 123.975 192.752 125.103 192.752C126.224 192.752 127.058 192.082 127.058 191.07C127.058 190.072 126.224 189.402 125.103 189.416C123.975 189.402 123.141 190.072 123.147 191.07ZM123.735 195.746V194.707H131.788V197.797H125.034V198.973H132.198V200.012H123.776V196.826H130.503V195.746H123.735ZM130.489 194.146V187.912H131.788V194.146H130.489ZM134.468 195.227C134.481 192.649 135.213 190.51 136.491 188.678H137.831C136.888 190.031 135.985 192.786 135.985 195.227C135.985 197.674 136.888 200.429 137.831 201.789H136.491C135.213 199.95 134.481 197.811 134.468 195.227ZM148.919 187.926V195.104H147.62V194.516H145.228V193.695H147.62V187.926H148.919ZM138.706 192.438C141.078 192.444 144.072 192.417 146.718 192.137L146.786 192.971C145.631 193.135 144.428 193.23 143.259 193.292V195.131H141.974V193.34C140.873 193.374 139.813 193.374 138.856 193.367L138.706 192.438ZM139.622 189.977C139.615 188.855 140.825 188.131 142.685 188.131C144.51 188.131 145.733 188.855 145.747 189.977C145.733 191.118 144.51 191.809 142.685 191.809C140.825 191.809 139.615 191.118 139.622 189.977ZM140.538 196.416V195.514H148.919V198.152H141.864V199.096H149.288V200.039H140.593V197.291H147.634V196.416H140.538ZM140.839 189.977C140.832 190.558 141.557 190.934 142.685 190.934C143.799 190.934 144.517 190.558 144.517 189.977C144.517 189.389 143.799 189.006 142.685 189.006C141.557 189.006 140.832 189.389 140.839 189.977ZM154.196 195.227C154.183 197.811 153.451 199.95 152.173 201.789H150.833C151.776 200.429 152.679 197.674 152.679 195.227C152.679 192.786 151.776 190.031 150.833 188.678H152.173C153.451 190.51 154.183 192.649 154.196 195.227ZM20.6289 211.83C21.0869 211.324 21.6406 211.064 22.2559 211.064C23.3223 211.064 24.2656 211.844 25.3047 211.844C25.9268 211.844 26.4736 211.563 26.9043 211.023V212.336C26.4463 212.842 25.8926 213.102 25.2773 213.102C24.2109 213.102 23.2607 212.322 22.2148 212.322C21.6064 212.322 21.0596 212.603 20.6289 213.143V211.83ZM32.5098 216V214.906L35.9414 211.447C37.0283 210.319 37.5684 209.69 37.5684 208.822C37.5684 207.845 36.7754 207.223 35.7363 207.223C34.6357 207.223 33.9385 207.92 33.9316 208.973H32.5098C32.4961 207.161 33.877 205.965 35.7637 205.965C37.6709 205.965 38.9902 207.175 39.0039 208.781C38.9902 209.889 38.4707 210.771 36.6113 212.596L34.6016 214.633V214.715H39.168V216H32.5098ZM44.2812 216.137C41.9912 216.137 40.6445 214.291 40.6445 211.051C40.6445 207.831 42.0049 205.965 44.2812 205.965C46.5508 205.965 47.9111 207.831 47.918 211.051C47.9111 214.291 46.5713 216.137 44.2812 216.137ZM42.1484 211.051C42.1416 213.519 42.9414 214.838 44.2812 214.838C45.6143 214.838 46.4141 213.519 46.4141 211.051C46.4141 208.59 45.6074 207.243 44.2812 207.236C42.9482 207.243 42.1484 208.59 42.1484 211.051ZM49.4766 216V214.906L52.9082 211.447C53.9951 210.319 54.5352 209.69 54.5352 208.822C54.5352 207.845 53.7422 207.223 52.7031 207.223C51.6025 207.223 50.9053 207.92 50.8984 208.973H49.4766C49.4629 207.161 50.8438 205.965 52.7305 205.965C54.6377 205.965 55.957 207.175 55.9707 208.781C55.957 209.889 55.4375 210.771 53.5781 212.596L51.5684 214.633V214.715H56.1348V216H49.4766ZM57.3652 214.072V212.855L61.7402 206.102H63.5996V212.801H64.9531V214.072H63.5996V216H62.1777V214.072H57.3652ZM58.9512 212.801H62.1777V207.893H62.0684L58.9512 212.719V212.801ZM76.2598 204.926V213.977H74.9609V209.807H71.5977V208.768H74.9609V207.482H71.5977V206.443H74.9609V204.926H76.2598ZM66.7715 212.227V205.773H68.0566V211.133C69.6836 211.126 71.2285 211.037 72.9785 210.709L73.1152 211.775C71.1738 212.138 69.5127 212.213 67.7148 212.227H66.7715ZM68.2754 216.902V213.184H69.5879V215.85H76.5742V216.902H68.2754ZM85.748 206.102V216H84.2305V207.605H84.1758L81.8105 209.15V207.715L84.2715 206.102H85.748ZM92.0234 206.102V216H90.5059V207.605H90.4512L88.0859 209.15V207.715L90.5469 206.102H92.0234ZM104.301 204.926V212.104H103.002V211.516H100.609V210.695H103.002V204.926H104.301ZM94.0879 209.438C96.46 209.444 99.4541 209.417 102.1 209.137L102.168 209.971C101.013 210.135 99.8096 210.23 98.6406 210.292V212.131H97.3555V210.34C96.2549 210.374 95.1953 210.374 94.2383 210.367L94.0879 209.438ZM95.0039 206.977C94.9971 205.855 96.207 205.131 98.0664 205.131C99.8916 205.131 101.115 205.855 101.129 206.977C101.115 208.118 99.8916 208.809 98.0664 208.809C96.207 208.809 94.9971 208.118 95.0039 206.977ZM95.9199 213.416V212.514H104.301V215.152H97.2461V216.096H104.67V217.039H95.9746V214.291H103.016V213.416H95.9199ZM96.2207 206.977C96.2139 207.558 96.9385 207.934 98.0664 207.934C99.1807 207.934 99.8984 207.558 99.8984 206.977C99.8984 206.389 99.1807 206.006 98.0664 206.006C96.9385 206.006 96.2139 206.389 96.2207 206.977ZM113.502 216.137C111.212 216.137 109.865 214.291 109.865 211.051C109.865 207.831 111.226 205.965 113.502 205.965C115.771 205.965 117.132 207.831 117.139 211.051C117.132 214.291 115.792 216.137 113.502 216.137ZM111.369 211.051C111.362 213.519 112.162 214.838 113.502 214.838C114.835 214.838 115.635 213.519 115.635 211.051C115.635 208.59 114.828 207.243 113.502 207.236C112.169 207.243 111.369 208.59 111.369 211.051ZM122.156 216.137C120.003 216.137 118.506 214.975 118.52 213.361C118.506 212.09 119.415 211.051 120.584 210.873V210.818C119.565 210.586 118.889 209.684 118.889 208.604C118.889 207.079 120.263 205.965 122.156 205.965C124.022 205.965 125.403 207.079 125.41 208.604C125.403 209.684 124.713 210.586 123.715 210.818V210.873C124.87 211.051 125.786 212.09 125.793 213.361C125.786 214.975 124.275 216.137 122.156 216.137ZM120.051 213.252C120.03 214.223 120.851 214.893 122.156 214.893C123.441 214.893 124.262 214.223 124.262 213.252C124.262 212.233 123.373 211.488 122.156 211.488C120.926 211.488 120.03 212.233 120.051 213.252ZM120.352 208.74C120.358 209.663 121.097 210.306 122.156 210.299C123.188 210.306 123.94 209.67 123.934 208.74C123.94 207.817 123.216 207.188 122.156 207.195C121.069 207.188 120.358 207.817 120.352 208.74ZM130.4 205.322C132.246 205.336 133.606 206.464 133.613 208.07C133.606 209.684 132.246 210.805 130.4 210.805C128.534 210.805 127.181 209.684 127.174 208.07C127.181 206.464 128.534 205.336 130.4 205.322ZM128.445 208.07C128.438 209.082 129.272 209.752 130.4 209.752C131.521 209.752 132.355 209.082 132.355 208.07C132.355 207.072 131.521 206.402 130.4 206.416C129.272 206.402 128.438 207.072 128.445 208.07ZM129.033 212.746V211.707H137.086V214.797H130.332V215.973H137.496V217.012H129.074V213.826H135.801V212.746H129.033ZM135.787 211.146V204.912H137.086V211.146H135.787ZM139.766 212.227C139.779 209.649 140.511 207.51 141.789 205.678H143.129C142.186 207.031 141.283 209.786 141.283 212.227C141.283 214.674 142.186 217.429 143.129 218.789H141.789C140.511 216.95 139.779 214.811 139.766 212.227ZM153.82 205.527V206.457C153.827 207.414 153.827 208.521 153.506 209.998H155.242V211.064H144.031V209.998H152.193C152.521 208.569 152.535 207.523 152.535 206.594H145.439V205.527H153.82ZM145.398 217.012V212.623H153.834V217.012H145.398ZM146.67 215.959H152.549V213.648H146.67V215.959ZM159.494 212.227C159.48 214.811 158.749 216.95 157.471 218.789H156.131C157.074 217.429 157.977 214.674 157.977 212.227C157.977 209.786 157.074 207.031 156.131 205.678H157.471C158.749 207.51 159.48 209.649 159.494 212.227Z" fill="white"/>
<path d="M175.875 205V203.906L179.307 200.447C180.394 199.319 180.934 198.69 180.934 197.822C180.934 196.845 180.141 196.223 179.102 196.223C178.001 196.223 177.304 196.92 177.297 197.973H175.875C175.861 196.161 177.242 194.965 179.129 194.965C181.036 194.965 182.355 196.175 182.369 197.781C182.355 198.889 181.836 199.771 179.977 201.596L177.967 203.633V203.715H182.533V205H175.875ZM187.646 205.137C185.356 205.137 184.01 203.291 184.01 200.051C184.01 196.831 185.37 194.965 187.646 194.965C189.916 194.965 191.276 196.831 191.283 200.051C191.276 203.291 189.937 205.137 187.646 205.137ZM185.514 200.051C185.507 202.519 186.307 203.838 187.646 203.838C188.979 203.838 189.779 202.519 189.779 200.051C189.779 197.59 188.973 196.243 187.646 196.236C186.313 196.243 185.514 197.59 185.514 200.051ZM192.842 205V203.906L196.273 200.447C197.36 199.319 197.9 198.69 197.9 197.822C197.9 196.845 197.107 196.223 196.068 196.223C194.968 196.223 194.271 196.92 194.264 197.973H192.842C192.828 196.161 194.209 194.965 196.096 194.965C198.003 194.965 199.322 196.175 199.336 197.781C199.322 198.889 198.803 199.771 196.943 201.596L194.934 203.633V203.715H199.5V205H192.842ZM204.682 205.137C202.631 205.137 201.175 204.036 201.113 202.416H202.645C202.699 203.284 203.561 203.838 204.668 203.838C205.864 203.838 206.732 203.188 206.732 202.225C206.732 201.247 205.919 200.55 204.504 200.543H203.656V199.312H204.504C205.632 199.319 206.418 198.69 206.418 197.74C206.418 196.838 205.741 196.223 204.695 196.223C203.704 196.223 202.815 196.776 202.781 197.672H201.332C201.373 196.059 202.863 194.965 204.709 194.965C206.657 194.965 207.881 196.195 207.867 197.658C207.881 198.786 207.184 199.593 206.117 199.859V199.928C207.471 200.119 208.257 201.028 208.25 202.279C208.257 203.927 206.732 205.137 204.682 205.137ZM219.693 193.926V202.977H218.395V198.807H215.031V197.768H218.395V196.482H215.031V195.443H218.395V193.926H219.693ZM210.205 201.227V194.773H211.49V200.133C213.117 200.126 214.662 200.037 216.412 199.709L216.549 200.775C214.607 201.138 212.946 201.213 211.148 201.227H210.205ZM211.709 205.902V202.184H213.021V204.85H220.008V205.902H211.709ZM229.182 195.102V205H227.664V196.605H227.609L225.244 198.15V196.715L227.705 195.102H229.182ZM235.457 195.102V205H233.939V196.605H233.885L231.52 198.15V196.715L233.98 195.102H235.457ZM247.734 193.926V201.104H246.436V200.516H244.043V199.695H246.436V193.926H247.734ZM237.521 198.438C239.894 198.444 242.888 198.417 245.533 198.137L245.602 198.971C244.446 199.135 243.243 199.23 242.074 199.292V201.131H240.789V199.34C239.688 199.374 238.629 199.374 237.672 199.367L237.521 198.438ZM238.438 195.977C238.431 194.855 239.641 194.131 241.5 194.131C243.325 194.131 244.549 194.855 244.562 195.977C244.549 197.118 243.325 197.809 241.5 197.809C239.641 197.809 238.431 197.118 238.438 195.977ZM239.354 202.416V201.514H247.734V204.152H240.68V205.096H248.104V206.039H239.408V203.291H246.449V202.416H239.354ZM239.654 195.977C239.647 196.558 240.372 196.934 241.5 196.934C242.614 196.934 243.332 196.558 243.332 195.977C243.332 195.389 242.614 195.006 241.5 195.006C240.372 195.006 239.647 195.389 239.654 195.977ZM257.25 195.102V205H255.732V196.605H255.678L253.312 198.15V196.715L255.773 195.102H257.25ZM263.211 205.137C260.921 205.137 259.574 203.291 259.574 200.051C259.574 196.831 260.935 194.965 263.211 194.965C265.48 194.965 266.841 196.831 266.848 200.051C266.841 203.291 265.501 205.137 263.211 205.137ZM261.078 200.051C261.071 202.519 261.871 203.838 263.211 203.838C264.544 203.838 265.344 202.519 265.344 200.051C265.344 197.59 264.537 196.243 263.211 196.236C261.878 196.243 261.078 197.59 261.078 200.051ZM271.455 194.322C273.301 194.336 274.661 195.464 274.668 197.07C274.661 198.684 273.301 199.805 271.455 199.805C269.589 199.805 268.235 198.684 268.229 197.07C268.235 195.464 269.589 194.336 271.455 194.322ZM269.5 197.07C269.493 198.082 270.327 198.752 271.455 198.752C272.576 198.752 273.41 198.082 273.41 197.07C273.41 196.072 272.576 195.402 271.455 195.416C270.327 195.402 269.493 196.072 269.5 197.07ZM270.088 201.746V200.707H278.141V203.797H271.387V204.973H278.551V206.012H270.129V202.826H276.855V201.746H270.088ZM276.842 200.146V193.912H278.141V200.146H276.842ZM280.82 201.227C280.834 198.649 281.565 196.51 282.844 194.678H284.184C283.24 196.031 282.338 198.786 282.338 201.227C282.338 203.674 283.24 206.429 284.184 207.789H282.844C281.565 205.95 280.834 203.811 280.82 201.227ZM288.559 194.322C290.404 194.336 291.765 195.464 291.771 197.07C291.765 198.684 290.404 199.805 288.559 199.805C286.692 199.805 285.339 198.684 285.332 197.07C285.339 195.464 286.692 194.336 288.559 194.322ZM286.604 197.07C286.597 198.082 287.431 198.752 288.559 198.752C289.68 198.752 290.514 198.082 290.514 197.07C290.514 196.072 289.68 195.402 288.559 195.416C287.431 195.402 286.597 196.072 286.604 197.07ZM287.191 201.746V200.707H295.244V203.797H288.49V204.973H295.654V206.012H287.232V202.826H293.959V201.746H287.191ZM293.945 200.146V193.912H295.244V200.146H293.945ZM300.549 201.227C300.535 203.811 299.804 205.95 298.525 207.789H297.186C298.129 206.429 299.031 203.674 299.031 201.227C299.031 198.786 298.129 196.031 297.186 194.678H298.525C299.804 196.51 300.535 198.649 300.549 201.227Z" fill="white"/>
<path d="M27.4795 346V344.906L30.9111 341.447C31.998 340.319 32.5381 339.69 32.5381 338.822C32.5381 337.845 31.7451 337.223 30.7061 337.223C29.6055 337.223 28.9082 337.92 28.9014 338.973H27.4795C27.4658 337.161 28.8467 335.965 30.7334 335.965C32.6406 335.965 33.96 337.175 33.9736 338.781C33.96 339.889 33.4404 340.771 31.5811 342.596L29.5713 344.633V344.715H34.1377V346H27.4795ZM39.251 346.137C36.9609 346.137 35.6143 344.291 35.6143 341.051C35.6143 337.831 36.9746 335.965 39.251 335.965C41.5205 335.965 42.8809 337.831 42.8877 341.051C42.8809 344.291 41.541 346.137 39.251 346.137ZM37.1182 341.051C37.1113 343.519 37.9111 344.838 39.251 344.838C40.584 344.838 41.3838 343.519 41.3838 341.051C41.3838 338.59 40.5771 337.243 39.251 337.236C37.918 337.243 37.1182 338.59 37.1182 341.051ZM44.4463 346V344.906L47.8779 341.447C48.9648 340.319 49.5049 339.69 49.5049 338.822C49.5049 337.845 48.7119 337.223 47.6729 337.223C46.5723 337.223 45.875 337.92 45.8682 338.973H44.4463C44.4326 337.161 45.8135 335.965 47.7002 335.965C49.6074 335.965 50.9268 337.175 50.9404 338.781C50.9268 339.889 50.4072 340.771 48.5479 342.596L46.5381 344.633V344.715H51.1045V346H44.4463ZM56.2861 346.137C54.2354 346.137 52.7793 345.036 52.7178 343.416H54.249C54.3037 344.284 55.165 344.838 56.2725 344.838C57.4688 344.838 58.3369 344.188 58.3369 343.225C58.3369 342.247 57.5234 341.55 56.1084 341.543H55.2607V340.312H56.1084C57.2363 340.319 58.0225 339.69 58.0225 338.74C58.0225 337.838 57.3457 337.223 56.2998 337.223C55.3086 337.223 54.4199 337.776 54.3857 338.672H52.9365C52.9775 337.059 54.4678 335.965 56.3135 335.965C58.2617 335.965 59.4854 337.195 59.4717 338.658C59.4854 339.786 58.7881 340.593 57.7217 340.859V340.928C59.0752 341.119 59.8613 342.028 59.8545 343.279C59.8613 344.927 58.3369 346.137 56.2861 346.137ZM71.2979 334.926V343.977H69.999V339.807H66.6357V338.768H69.999V337.482H66.6357V336.443H69.999V334.926H71.2979ZM61.8096 342.227V335.773H63.0947V341.133C64.7217 341.126 66.2666 341.037 68.0166 340.709L68.1533 341.775C66.2119 342.138 64.5508 342.213 62.7529 342.227H61.8096ZM63.3135 346.902V343.184H64.626V345.85H71.6123V346.902H63.3135ZM80.7861 336.102V346H79.2686V337.605H79.2139L76.8486 339.15V337.715L79.3096 336.102H80.7861ZM87.0615 336.102V346H85.5439V337.605H85.4893L83.124 339.15V337.715L85.585 336.102H87.0615ZM99.3389 334.926V342.104H98.04V341.516H95.6475V340.695H98.04V334.926H99.3389ZM89.126 339.438C91.498 339.444 94.4922 339.417 97.1377 339.137L97.2061 339.971C96.0508 340.135 94.8477 340.23 93.6787 340.292V342.131H92.3936V340.34C91.293 340.374 90.2334 340.374 89.2764 340.367L89.126 339.438ZM90.042 336.977C90.0352 335.855 91.2451 335.131 93.1045 335.131C94.9297 335.131 96.1533 335.855 96.167 336.977C96.1533 338.118 94.9297 338.809 93.1045 338.809C91.2451 338.809 90.0352 338.118 90.042 336.977ZM90.958 343.416V342.514H99.3389V345.152H92.2842V346.096H99.708V347.039H91.0127V344.291H98.0537V343.416H90.958ZM91.2588 336.977C91.252 337.558 91.9766 337.934 93.1045 337.934C94.2188 337.934 94.9365 337.558 94.9365 336.977C94.9365 336.389 94.2188 336.006 93.1045 336.006C91.9766 336.006 91.252 336.389 91.2588 336.977ZM108.854 336.102V346H107.337V337.605H107.282L104.917 339.15V337.715L107.378 336.102H108.854ZM115.13 336.102V346H113.612V337.605H113.558L111.192 339.15V337.715L113.653 336.102H115.13ZM120.694 335.322C122.54 335.336 123.9 336.464 123.907 338.07C123.9 339.684 122.54 340.805 120.694 340.805C118.828 340.805 117.475 339.684 117.468 338.07C117.475 336.464 118.828 335.336 120.694 335.322ZM118.739 338.07C118.732 339.082 119.566 339.752 120.694 339.752C121.815 339.752 122.649 339.082 122.649 338.07C122.649 337.072 121.815 336.402 120.694 336.416C119.566 336.402 118.732 337.072 118.739 338.07ZM119.327 342.746V341.707H127.38V344.797H120.626V345.973H127.79V347.012H119.368V343.826H126.095V342.746H119.327ZM126.081 341.146V334.912H127.38V341.146H126.081ZM133.478 342.227C133.491 339.649 134.223 337.51 135.501 335.678H136.841C135.897 337.031 134.995 339.786 134.995 342.227C134.995 344.674 135.897 347.429 136.841 348.789H135.501C134.223 346.95 133.491 344.811 133.478 342.227ZM147.929 334.926V342.104H146.63V341.516H144.237V340.695H146.63V334.926H147.929ZM137.716 339.438C140.088 339.444 143.082 339.417 145.728 339.137L145.796 339.971C144.641 340.135 143.438 340.23 142.269 340.292V342.131H140.983V340.34C139.883 340.374 138.823 340.374 137.866 340.367L137.716 339.438ZM138.632 336.977C138.625 335.855 139.835 335.131 141.694 335.131C143.52 335.131 144.743 335.855 144.757 336.977C144.743 338.118 143.52 338.809 141.694 338.809C139.835 338.809 138.625 338.118 138.632 336.977ZM139.548 343.416V342.514H147.929V345.152H140.874V346.096H148.298V347.039H139.603V344.291H146.644V343.416H139.548ZM139.849 336.977C139.842 337.558 140.566 337.934 141.694 337.934C142.809 337.934 143.526 337.558 143.526 336.977C143.526 336.389 142.809 336.006 141.694 336.006C140.566 336.006 139.842 336.389 139.849 336.977ZM153.206 342.227C153.192 344.811 152.461 346.95 151.183 348.789H149.843C150.786 347.429 151.688 344.674 151.688 342.227C151.688 339.786 150.786 337.031 149.843 335.678H151.183C152.461 337.51 153.192 339.649 153.206 342.227ZM20.6504 358.83C21.1084 358.324 21.6621 358.064 22.2773 358.064C23.3438 358.064 24.2871 358.844 25.3262 358.844C25.9482 358.844 26.4951 358.563 26.9258 358.023V359.336C26.4678 359.842 25.9141 360.102 25.2988 360.102C24.2324 360.102 23.2822 359.322 22.2363 359.322C21.6279 359.322 21.0811 359.603 20.6504 360.143V358.83ZM32.5312 363V361.906L35.9629 358.447C37.0498 357.319 37.5898 356.69 37.5898 355.822C37.5898 354.845 36.7969 354.223 35.7578 354.223C34.6572 354.223 33.96 354.92 33.9531 355.973H32.5312C32.5176 354.161 33.8984 352.965 35.7852 352.965C37.6924 352.965 39.0117 354.175 39.0254 355.781C39.0117 356.889 38.4922 357.771 36.6328 359.596L34.623 361.633V361.715H39.1895V363H32.5312ZM44.3027 363.137C42.0127 363.137 40.666 361.291 40.666 358.051C40.666 354.831 42.0264 352.965 44.3027 352.965C46.5723 352.965 47.9326 354.831 47.9395 358.051C47.9326 361.291 46.5928 363.137 44.3027 363.137ZM42.1699 358.051C42.1631 360.519 42.9629 361.838 44.3027 361.838C45.6357 361.838 46.4355 360.519 46.4355 358.051C46.4355 355.59 45.6289 354.243 44.3027 354.236C42.9697 354.243 42.1699 355.59 42.1699 358.051ZM49.498 363V361.906L52.9297 358.447C54.0166 357.319 54.5566 356.69 54.5566 355.822C54.5566 354.845 53.7637 354.223 52.7246 354.223C51.624 354.223 50.9268 354.92 50.9199 355.973H49.498C49.4844 354.161 50.8652 352.965 52.752 352.965C54.6592 352.965 55.9785 354.175 55.9922 355.781C55.9785 356.889 55.459 357.771 53.5996 359.596L51.5898 361.633V361.715H56.1562V363H49.498ZM61.3379 363.137C59.2871 363.137 57.8311 362.036 57.7695 360.416H59.3008C59.3555 361.284 60.2168 361.838 61.3242 361.838C62.5205 361.838 63.3887 361.188 63.3887 360.225C63.3887 359.247 62.5752 358.55 61.1602 358.543H60.3125V357.312H61.1602C62.2881 357.319 63.0742 356.69 63.0742 355.74C63.0742 354.838 62.3975 354.223 61.3516 354.223C60.3604 354.223 59.4717 354.776 59.4375 355.672H57.9883C58.0293 354.059 59.5195 352.965 61.3652 352.965C63.3135 352.965 64.5371 354.195 64.5234 355.658C64.5371 356.786 63.8398 357.593 62.7734 357.859V357.928C64.127 358.119 64.9131 359.028 64.9062 360.279C64.9131 361.927 63.3887 363.137 61.3379 363.137ZM76.3496 351.926V360.977H75.0508V356.807H71.6875V355.768H75.0508V354.482H71.6875V353.443H75.0508V351.926H76.3496ZM66.8613 359.227V352.773H68.1465V358.133C69.7734 358.126 71.3184 358.037 73.0684 357.709L73.2051 358.775C71.2637 359.138 69.6025 359.213 67.8047 359.227H66.8613ZM68.3652 363.902V360.184H69.6777V362.85H76.6641V363.902H68.3652ZM85.8379 353.102V363H84.3203V354.605H84.2656L81.9004 356.15V354.715L84.3613 353.102H85.8379ZM92.1133 353.102V363H90.5957V354.605H90.541L88.1758 356.15V354.715L90.6367 353.102H92.1133ZM104.391 351.926V359.104H103.092V358.516H100.699V357.695H103.092V351.926H104.391ZM94.1777 356.438C96.5498 356.444 99.5439 356.417 102.189 356.137L102.258 356.971C101.103 357.135 99.8994 357.23 98.7305 357.292V359.131H97.4453V357.34C96.3447 357.374 95.2852 357.374 94.3281 357.367L94.1777 356.438ZM95.0938 353.977C95.0869 352.855 96.2969 352.131 98.1562 352.131C99.9814 352.131 101.205 352.855 101.219 353.977C101.205 355.118 99.9814 355.809 98.1562 355.809C96.2969 355.809 95.0869 355.118 95.0938 353.977ZM96.0098 360.416V359.514H104.391V362.152H97.3359V363.096H104.76V364.039H96.0645V361.291H103.105V360.416H96.0098ZM96.3105 353.977C96.3037 354.558 97.0283 354.934 98.1562 354.934C99.2705 354.934 99.9883 354.558 99.9883 353.977C99.9883 353.389 99.2705 353.006 98.1562 353.006C97.0283 353.006 96.3037 353.389 96.3105 353.977ZM113.906 353.102V363H112.389V354.605H112.334L109.969 356.15V354.715L112.43 353.102H113.906ZM119.785 363.137C117.912 363.137 116.504 361.995 116.436 360.416H117.898C117.98 361.257 118.787 361.872 119.785 361.879C120.988 361.872 121.85 361.004 121.85 359.828C121.85 358.625 120.961 357.75 119.717 357.736C118.924 357.736 118.315 358.003 117.98 358.611H116.559L117.201 353.102H122.807V354.387H118.445L118.117 357.162H118.213C118.623 356.766 119.32 356.499 120.072 356.492C121.938 356.499 123.312 357.88 123.312 359.787C123.312 361.735 121.85 363.137 119.785 363.137ZM127.961 352.322C129.807 352.336 131.167 353.464 131.174 355.07C131.167 356.684 129.807 357.805 127.961 357.805C126.095 357.805 124.741 356.684 124.734 355.07C124.741 353.464 126.095 352.336 127.961 352.322ZM126.006 355.07C125.999 356.082 126.833 356.752 127.961 356.752C129.082 356.752 129.916 356.082 129.916 355.07C129.916 354.072 129.082 353.402 127.961 353.416C126.833 353.402 125.999 354.072 126.006 355.07ZM126.594 359.746V358.707H134.646V361.797H127.893V362.973H135.057V364.012H126.635V360.826H133.361V359.746H126.594ZM133.348 358.146V351.912H134.646V358.146H133.348ZM140.744 359.227C140.758 356.649 141.489 354.51 142.768 352.678H144.107C143.164 354.031 142.262 356.786 142.262 359.227C142.262 361.674 143.164 364.429 144.107 365.789H142.768C141.489 363.95 140.758 361.811 140.744 359.227ZM154.799 352.527V353.457C154.806 354.414 154.806 355.521 154.484 356.998H156.221V358.064H145.01V356.998H153.172C153.5 355.569 153.514 354.523 153.514 353.594H146.418V352.527H154.799ZM146.377 364.012V359.623H154.812V364.012H146.377ZM147.648 362.959H153.527V360.648H147.648V362.959ZM160.473 359.227C160.459 361.811 159.728 363.95 158.449 365.789H157.109C158.053 364.429 158.955 361.674 158.955 359.227C158.955 356.786 158.053 354.031 157.109 352.678H158.449C159.728 354.51 160.459 356.649 160.473 359.227Z" fill="white"/>
<path d="M178.875 346V344.906L182.307 341.447C183.394 340.319 183.934 339.69 183.934 338.822C183.934 337.845 183.141 337.223 182.102 337.223C181.001 337.223 180.304 337.92 180.297 338.973H178.875C178.861 337.161 180.242 335.965 182.129 335.965C184.036 335.965 185.355 337.175 185.369 338.781C185.355 339.889 184.836 340.771 182.977 342.596L180.967 344.633V344.715H185.533V346H178.875ZM190.646 346.137C188.356 346.137 187.01 344.291 187.01 341.051C187.01 337.831 188.37 335.965 190.646 335.965C192.916 335.965 194.276 337.831 194.283 341.051C194.276 344.291 192.937 346.137 190.646 346.137ZM188.514 341.051C188.507 343.519 189.307 344.838 190.646 344.838C191.979 344.838 192.779 343.519 192.779 341.051C192.779 338.59 191.973 337.243 190.646 337.236C189.313 337.243 188.514 338.59 188.514 341.051ZM195.842 346V344.906L199.273 341.447C200.36 340.319 200.9 339.69 200.9 338.822C200.9 337.845 200.107 337.223 199.068 337.223C197.968 337.223 197.271 337.92 197.264 338.973H195.842C195.828 337.161 197.209 335.965 199.096 335.965C201.003 335.965 202.322 337.175 202.336 338.781C202.322 339.889 201.803 340.771 199.943 342.596L197.934 344.633V344.715H202.5V346H195.842ZM203.73 344.072V342.855L208.105 336.102H209.965V342.801H211.318V344.072H209.965V346H208.543V344.072H203.73ZM205.316 342.801H208.543V337.893H208.434L205.316 342.719V342.801ZM222.625 334.926V343.977H221.326V339.807H217.963V338.768H221.326V337.482H217.963V336.443H221.326V334.926H222.625ZM213.137 342.227V335.773H214.422V341.133C216.049 341.126 217.594 341.037 219.344 340.709L219.48 341.775C217.539 342.138 215.878 342.213 214.08 342.227H213.137ZM214.641 346.902V343.184H215.953V345.85H222.939V346.902H214.641ZM232.113 336.102V346H230.596V337.605H230.541L228.176 339.15V337.715L230.637 336.102H232.113ZM238.389 336.102V346H236.871V337.605H236.816L234.451 339.15V337.715L236.912 336.102H238.389ZM250.666 334.926V342.104H249.367V341.516H246.975V340.695H249.367V334.926H250.666ZM240.453 339.438C242.825 339.444 245.819 339.417 248.465 339.137L248.533 339.971C247.378 340.135 246.175 340.23 245.006 340.292V342.131H243.721V340.34C242.62 340.374 241.561 340.374 240.604 340.367L240.453 339.438ZM241.369 336.977C241.362 335.855 242.572 335.131 244.432 335.131C246.257 335.131 247.48 335.855 247.494 336.977C247.48 338.118 246.257 338.809 244.432 338.809C242.572 338.809 241.362 338.118 241.369 336.977ZM242.285 343.416V342.514H250.666V345.152H243.611V346.096H251.035V347.039H242.34V344.291H249.381V343.416H242.285ZM242.586 336.977C242.579 337.558 243.304 337.934 244.432 337.934C245.546 337.934 246.264 337.558 246.264 336.977C246.264 336.389 245.546 336.006 244.432 336.006C243.304 336.006 242.579 336.389 242.586 336.977ZM260.182 336.102V346H258.664V337.605H258.609L256.244 339.15V337.715L258.705 336.102H260.182ZM263.039 346L267.455 337.469V337.387H262.355V336.102H269.014V337.441L264.611 346H263.039ZM273.58 335.322C275.426 335.336 276.786 336.464 276.793 338.07C276.786 339.684 275.426 340.805 273.58 340.805C271.714 340.805 270.36 339.684 270.354 338.07C270.36 336.464 271.714 335.336 273.58 335.322ZM271.625 338.07C271.618 339.082 272.452 339.752 273.58 339.752C274.701 339.752 275.535 339.082 275.535 338.07C275.535 337.072 274.701 336.402 273.58 336.416C272.452 336.402 271.618 337.072 271.625 338.07ZM272.213 342.746V341.707H280.266V344.797H273.512V345.973H280.676V347.012H272.254V343.826H278.98V342.746H272.213ZM278.967 341.146V334.912H280.266V341.146H278.967ZM282.945 342.227C282.959 339.649 283.69 337.51 284.969 335.678H286.309C285.365 337.031 284.463 339.786 284.463 342.227C284.463 344.674 285.365 347.429 286.309 348.789H284.969C283.69 346.95 282.959 344.811 282.945 342.227ZM297.396 334.926V342.104H296.098V341.516H293.705V340.695H296.098V334.926H297.396ZM287.184 339.438C289.556 339.444 292.55 339.417 295.195 339.137L295.264 339.971C294.108 340.135 292.905 340.23 291.736 340.292V342.131H290.451V340.34C289.351 340.374 288.291 340.374 287.334 340.367L287.184 339.438ZM288.1 336.977C288.093 335.855 289.303 335.131 291.162 335.131C292.987 335.131 294.211 335.855 294.225 336.977C294.211 338.118 292.987 338.809 291.162 338.809C289.303 338.809 288.093 338.118 288.1 336.977ZM289.016 343.416V342.514H297.396V345.152H290.342V346.096H297.766V347.039H289.07V344.291H296.111V343.416H289.016ZM289.316 336.977C289.31 337.558 290.034 337.934 291.162 337.934C292.276 337.934 292.994 337.558 292.994 336.977C292.994 336.389 292.276 336.006 291.162 336.006C290.034 336.006 289.31 336.389 289.316 336.977ZM302.674 342.227C302.66 344.811 301.929 346.95 300.65 348.789H299.311C300.254 347.429 301.156 344.674 301.156 342.227C301.156 339.786 300.254 337.031 299.311 335.678H300.65C301.929 337.51 302.66 339.649 302.674 342.227Z" fill="white"/>
<path d="M146 248.5H184L146 286.5H184" stroke="url(#paint0_linear_5811_689)"/>
<path d="M181 283L184.5 286.5L181 290" stroke="#FF731D"/>
<defs>
<linearGradient id="paint0_linear_5811_689" x1="184" y1="284.373" x2="146" y2="284.373" gradientUnits="userSpaceOnUse">
<stop offset="0.3125" stop-color="#FF731D"/>
<stop offset="1" stop-color="white"/>
</linearGradient>
</defs>
</svg>
