<svg width="328" height="429" viewBox="0 0 328 429" fill="none" xmlns="http://www.w3.org/2000/svg">
<path d="M0.999989 38.8309L166 32.045" stroke="#FF731D" stroke-width="4.41964"/>
<path d="M6.71484 29.1479L156.785 41.4557" stroke="#FF731D" stroke-width="4.41964"/>
<path d="M2.20764 0.901555V17.7306H36.8268V0.901555H2.20764ZM14.8879 21.6373H1V27.6477H38.0344V21.6373H24.1465V18.9326H14.8879V21.6373ZM11.4662 6.91192H27.5682V11.7202H11.4662V6.91192Z" fill="white"/>
<path d="M68.628 15.9275V18.4819H50.5134V15.9275H41.2548V28.5492H77.8866V15.9275H68.628ZM54.3376 8.11399L55.1829 6.91192H65.0051V1.20207H41.2548V6.91192H45.7231L40.0069 15.0259H49.4668L53.2104 9.70674L56.7529 15.0259H66.2127L61.664 8.11399H54.3376ZM77.8866 0.300518H68.628V15.0259H77.8866V0.300518ZM50.5134 22.5389H68.628V24.1917H50.5134V22.5389Z" fill="white"/>
<path d="M91.5732 24.6425V23.7409H118.141V15.3264H81.5096V19.2332H108.078V20.1347H81.5096V28.5492H118.141V24.6425H91.5732ZM104.857 7.06218C104.857 2.46425 100.631 0 92.5796 0C84.5287 0 80.3019 2.46425 80.3019 7.06218C80.3019 11.6601 84.5287 14.1244 92.5796 14.1244C100.631 14.1244 104.857 11.6601 104.857 7.06218ZM118.141 0.300518H108.883V14.4249H118.141V0.300518ZM92.5796 9.01554C89.3592 9.01554 88.3529 8.2943 88.3529 7.06218C88.3529 5.83005 89.3592 5.10881 92.5796 5.10881C95.8 5.10881 96.8064 5.83005 96.8064 7.06218C96.8064 8.2943 95.8 9.01554 92.5796 9.01554Z" fill="white"/>
<path d="M158.396 0.300518H149.138V5.70984H145.515V1.20207H121.764V7.21244H126.514L120.959 16.829H130.419L133.841 10.9389L136.86 16.829H146.32L142.173 8.71503H135.129L135.974 7.21244H145.112V11.7202H149.138V17.1295H158.396V0.300518ZM159 23.3503C159 19.744 154.814 17.7005 140.684 17.7005C126.555 17.7005 122.368 19.744 122.368 23.3503C122.368 26.9565 126.555 29 140.684 29C154.814 29 159 26.9565 159 23.3503ZM149.741 23.3503C149.741 24.0415 148.816 24.4922 140.684 24.4922C132.553 24.4922 131.627 24.0415 131.627 23.3503C131.627 22.6591 132.553 22.2083 140.684 22.2083C148.816 22.2083 149.741 22.6591 149.741 23.3503Z" fill="white"/>
<circle cx="91" cy="192" r="89.5" stroke="white"/>
<circle cx="91" cy="339" r="89.5" stroke="white"/>
<circle cx="238" cy="192" r="89.5" stroke="white"/>
<circle cx="238" cy="339" r="89.5" stroke="white"/>
<rect x="40" y="231" width="102" height="74" fill="black"/>
<rect x="40" y="231" width="102" height="74" fill="black"/>
<rect x="121" y="141" width="102" height="102" fill="black"/>
<rect x="187" y="217" width="102" height="102" fill="black"/>
<rect x="110" y="288" width="102" height="102" fill="black"/>
<rect x="110" y="222" width="102" height="102" fill="black"/>
<path d="M55.8711 147.047C55.8776 148.193 56.0371 149.286 56.3496 150.328C56.6621 151.37 57.1406 152.294 57.7852 153.102C58.4362 153.902 59.237 154.508 60.1875 154.918L58.6641 156.91C57.7005 156.441 56.8802 155.787 56.2031 154.947C55.5326 154.101 55.0052 153.111 54.6211 151.979C54.224 153.189 53.6771 154.247 52.9805 155.152C52.2839 156.051 51.444 156.741 50.4609 157.223L48.8984 155.191C49.875 154.749 50.6953 154.104 51.3594 153.258C52.0299 152.411 52.528 151.454 52.8535 150.387C53.179 149.312 53.3451 148.199 53.3516 147.047V144.391H55.8711V147.047ZM58.1953 148.609H61.6914V143.023H64.1523V160.836H61.6914V150.621H58.1953V148.609ZM82.6875 155.406H78.9375V160.797H76.418V155.406H72.707V160.797H70.2266V155.406H66.418V153.453H82.6875V155.406ZM68.293 143.551H80.8125V148.727H70.8711V150.172H81.2227V152.164H68.3516V146.91H78.2539V145.582H68.293V143.551ZM103.312 152.75H100.832V149.039H98.0195V147.008H100.832V143.023H103.312V152.75ZM88.2344 151.109C89.1328 150.81 89.8945 150.39 90.5195 149.85C91.1445 149.303 91.6198 148.688 91.9453 148.004C92.2708 147.32 92.4564 146.604 92.502 145.855H88.9375V143.824H98.5859V145.855H95.0605C95.0996 146.539 95.2721 147.203 95.5781 147.848C95.8906 148.486 96.3464 149.062 96.9453 149.576C97.5443 150.09 98.2734 150.491 99.1328 150.777L97.9023 152.691C96.9453 152.379 96.1217 151.92 95.4316 151.314C94.748 150.709 94.2077 149.996 93.8105 149.176C93.4004 150.094 92.834 150.888 92.1113 151.559C91.3952 152.229 90.526 152.73 89.5039 153.062L88.2344 151.109ZM91.457 153.434H93.918V155.113H100.832V153.434H103.312V160.602H91.457V153.434ZM100.832 158.609V157.027H93.918V158.609H100.832ZM115.051 144.41C115.044 145.133 115.282 145.842 115.764 146.539C116.252 147.229 116.965 147.828 117.902 148.336C118.84 148.837 119.96 149.169 121.262 149.332L120.285 151.344C118.762 151.122 117.437 150.68 116.311 150.016C115.191 149.345 114.335 148.518 113.742 147.535C113.143 148.518 112.284 149.345 111.164 150.016C110.051 150.68 108.742 151.122 107.238 151.344L106.242 149.332C107.531 149.169 108.641 148.837 109.572 148.336C110.51 147.828 111.219 147.229 111.701 146.539C112.183 145.842 112.427 145.133 112.434 144.41V143.551H115.051V144.41ZM105.617 152.691H121.828V154.723H114.914V160.797H112.453V154.723H105.617V152.691Z" fill="white"/>
<path d="M181.742 145.816H185.062V143.043H187.543V155.973H185.062V151.617H181.742V153.121H173.305V144.469H181.742V145.816ZM175.707 154.742H178.227V158.492H187.914V160.484H175.707V154.742ZM179.301 151.188V146.441H175.785V151.188H179.301ZM185.062 149.645V147.828H181.742V149.645H185.062ZM204.828 152.75H202.348V149.039H199.535V147.008H202.348V143.023H204.828V152.75ZM189.75 151.109C190.648 150.81 191.41 150.39 192.035 149.85C192.66 149.303 193.135 148.688 193.461 148.004C193.786 147.32 193.972 146.604 194.018 145.855H190.453V143.824H200.102V145.855H196.576C196.615 146.539 196.788 147.203 197.094 147.848C197.406 148.486 197.862 149.062 198.461 149.576C199.06 150.09 199.789 150.491 200.648 150.777L199.418 152.691C198.461 152.379 197.637 151.92 196.947 151.314C196.264 150.709 195.723 149.996 195.326 149.176C194.916 150.094 194.35 150.888 193.627 151.559C192.911 152.229 192.042 152.73 191.02 153.062L189.75 151.109ZM192.973 153.434H195.434V155.113H202.348V153.434H204.828V160.602H192.973V153.434ZM202.348 158.609V157.027H195.434V158.609H202.348ZM216.801 143.551C217.693 143.551 218.5 143.723 219.223 144.068C219.945 144.413 220.512 144.895 220.922 145.514C221.339 146.132 221.547 146.832 221.547 147.613C221.547 148.388 221.339 149.081 220.922 149.693C220.512 150.305 219.945 150.787 219.223 151.139C218.5 151.484 217.693 151.656 216.801 151.656C215.896 151.656 215.079 151.484 214.35 151.139C213.62 150.787 213.048 150.305 212.631 149.693C212.221 149.081 212.016 148.388 212.016 147.613C212.016 146.832 212.221 146.132 212.631 145.514C213.048 144.895 213.62 144.413 214.35 144.068C215.079 143.723 215.896 143.551 216.801 143.551ZM214.438 147.613C214.431 148.03 214.529 148.391 214.73 148.697C214.932 148.997 215.212 149.228 215.57 149.391C215.928 149.553 216.339 149.638 216.801 149.645C217.25 149.638 217.65 149.553 218.002 149.391C218.36 149.228 218.64 148.997 218.842 148.697C219.044 148.391 219.145 148.03 219.145 147.613C219.145 147.197 219.044 146.835 218.842 146.529C218.64 146.223 218.36 145.989 218.002 145.826C217.65 145.663 217.25 145.582 216.801 145.582C216.345 145.582 215.935 145.663 215.57 145.826C215.212 145.989 214.932 146.223 214.73 146.529C214.529 146.835 214.431 147.197 214.438 147.613ZM214.691 152.672H226.625V157.496H217.172V158.648H227.113V160.602H214.73V155.68H224.145V154.586H214.691V152.672ZM224.125 143.023H226.625V151.93H224.125V143.023ZM244.008 153.57H241.527V149.371H238.754V147.359H241.527V143.023H244.008V153.57ZM228.91 151.617C229.841 151.305 230.626 150.859 231.264 150.279C231.902 149.7 232.38 149.049 232.699 148.326C233.018 147.604 233.188 146.858 233.207 146.09H229.633V144.098H239.281V146.09H235.746C235.766 146.806 235.925 147.496 236.225 148.16C236.524 148.818 236.977 149.41 237.582 149.938C238.194 150.465 238.943 150.875 239.828 151.168L238.598 153.121C237.647 152.815 236.827 152.359 236.137 151.754C235.453 151.142 234.913 150.426 234.516 149.605C234.112 150.536 233.549 151.347 232.826 152.037C232.104 152.721 231.228 153.238 230.199 153.59L228.91 151.617ZM231.82 157.398C231.82 156.689 232.064 156.077 232.553 155.562C233.048 155.042 233.754 154.645 234.672 154.371C235.59 154.098 236.677 153.961 237.934 153.961C239.197 153.961 240.287 154.098 241.205 154.371C242.123 154.645 242.829 155.038 243.324 155.553C243.819 156.067 244.066 156.682 244.066 157.398C244.066 158.115 243.819 158.727 243.324 159.234C242.829 159.749 242.123 160.139 241.205 160.406C240.287 160.68 239.197 160.816 237.934 160.816C236.677 160.816 235.59 160.68 234.672 160.406C233.754 160.139 233.048 159.749 232.553 159.234C232.064 158.72 231.82 158.108 231.82 157.398ZM234.301 157.398C234.301 157.9 234.61 158.281 235.229 158.541C235.847 158.795 236.749 158.922 237.934 158.922C239.125 158.922 240.03 158.795 240.648 158.541C241.267 158.287 241.579 157.906 241.586 157.398C241.579 156.897 241.27 156.52 240.658 156.266C240.053 156.005 239.167 155.875 238.002 155.875C235.535 155.875 234.301 156.383 234.301 157.398ZM265.023 148.121H267.426V150.191H265.023V155.973H262.523V143.023H265.023V148.121ZM251.039 148.688C251.039 147.822 251.254 147.047 251.684 146.363C252.113 145.673 252.699 145.136 253.441 144.752C254.19 144.368 255.017 144.176 255.922 144.176C256.82 144.176 257.637 144.368 258.373 144.752C259.115 145.136 259.698 145.673 260.121 146.363C260.551 147.047 260.766 147.822 260.766 148.688C260.766 149.54 260.551 150.312 260.121 151.002C259.698 151.686 259.115 152.223 258.373 152.613C257.637 153.004 256.82 153.199 255.922 153.199C255.017 153.199 254.19 153.004 253.441 152.613C252.699 152.223 252.113 151.686 251.684 151.002C251.254 150.312 251.039 149.54 251.039 148.688ZM253.5 154.605H255.98V158.492H265.668V160.484H253.5V154.605ZM253.5 148.688C253.493 149.156 253.594 149.57 253.803 149.928C254.018 150.279 254.311 150.553 254.682 150.748C255.053 150.937 255.466 151.031 255.922 151.031C256.378 151.031 256.788 150.937 257.152 150.748C257.523 150.553 257.813 150.279 258.021 149.928C258.236 149.57 258.344 149.156 258.344 148.688C258.344 148.206 258.236 147.789 258.021 147.438C257.813 147.079 257.523 146.806 257.152 146.617C256.788 146.428 256.378 146.337 255.922 146.344C255.466 146.337 255.053 146.428 254.682 146.617C254.311 146.806 254.018 147.079 253.803 147.438C253.594 147.789 253.493 148.206 253.5 148.688ZM283.539 160.797H281.137V151.91H279.477V159.938H277.133V143.316H279.477V149.898H281.137V143.023H283.539V160.797ZM268.93 144.996H271.43V154.283C273.096 154.238 274.665 154.072 276.137 153.785L276.391 155.934C274.288 156.298 272.204 156.474 270.141 156.461H268.93V144.996Z" fill="white"/>
<path d="M80.9219 292.816H84.2422V290.043H86.7227V302.973H84.2422V298.617H80.9219V300.121H72.4844V291.469H80.9219V292.816ZM74.8867 301.742H77.4062V305.492H87.0938V307.484H74.8867V301.742ZM78.4805 298.188V293.441H74.9648V298.188H78.4805ZM84.2422 296.645V294.828H80.9219V296.645H84.2422ZM104.008 299.75H101.527V296.039H98.7148V294.008H101.527V290.023H104.008V299.75ZM88.9297 298.109C89.8281 297.81 90.5898 297.39 91.2148 296.85C91.8398 296.303 92.3151 295.688 92.6406 295.004C92.9661 294.32 93.1517 293.604 93.1973 292.855H89.6328V290.824H99.2812V292.855H95.7559C95.7949 293.539 95.9674 294.203 96.2734 294.848C96.5859 295.486 97.0417 296.062 97.6406 296.576C98.2396 297.09 98.9688 297.491 99.8281 297.777L98.5977 299.691C97.6406 299.379 96.8171 298.92 96.127 298.314C95.4434 297.709 94.903 296.996 94.5059 296.176C94.0957 297.094 93.5293 297.888 92.8066 298.559C92.0905 299.229 91.2214 299.73 90.1992 300.062L88.9297 298.109ZM92.1523 300.434H94.6133V302.113H101.527V300.434H104.008V307.602H92.1523V300.434ZM101.527 305.609V304.027H94.6133V305.609H101.527Z" fill="white"/>
<path d="M207.281 302.309C208.863 302.211 210.302 302.068 211.598 301.879L211.793 303.695C210.055 304.027 208.284 304.242 206.48 304.34C204.684 304.438 202.698 304.49 200.523 304.496L200.23 302.484C201.949 302.484 203.473 302.465 204.801 302.426V299.633H207.281V302.309ZM200.582 298.305C201.871 297.96 202.864 297.416 203.561 296.674C204.264 295.925 204.658 295.076 204.742 294.125H201.148V292.113H204.801V290.18H207.281V292.113H210.953V294.125H207.32C207.379 294.717 207.571 295.277 207.896 295.805C208.222 296.326 208.688 296.788 209.293 297.191C209.898 297.595 210.634 297.901 211.5 298.109L210.367 300.043C209.352 299.789 208.479 299.392 207.75 298.852C207.027 298.305 206.458 297.65 206.041 296.889C205.644 297.689 205.084 298.373 204.361 298.939C203.645 299.506 202.776 299.919 201.754 300.18L200.582 298.305ZM212.613 290.023H215.094V307.836H212.613V290.023ZM226.754 298.52H233.648V300.531H217.438V298.52H224.293V296.391H226.754V298.52ZM218.141 295.453C219.202 295.355 220.123 295.173 220.904 294.906C221.692 294.633 222.317 294.311 222.779 293.939C223.248 293.562 223.561 293.161 223.717 292.738H218.922V290.785H232.184V292.738H227.35C227.499 293.161 227.809 293.562 228.277 293.939C228.746 294.311 229.374 294.633 230.162 294.906C230.95 295.173 231.878 295.355 232.945 295.453L232.066 297.406C230.426 297.243 229.046 296.876 227.926 296.303C226.806 295.723 226.005 294.994 225.523 294.115C225.042 294.994 224.244 295.723 223.131 296.303C222.024 296.876 220.654 297.243 219.02 297.406L218.141 295.453ZM219.293 304.652C219.293 303.982 219.54 303.412 220.035 302.943C220.53 302.475 221.243 302.12 222.174 301.879C223.111 301.632 224.228 301.508 225.523 301.508C226.812 301.508 227.919 301.632 228.844 301.879C229.768 302.12 230.475 302.475 230.963 302.943C231.458 303.412 231.708 303.982 231.715 304.652C231.708 305.323 231.458 305.893 230.963 306.361C230.475 306.837 229.768 307.195 228.844 307.436C227.919 307.676 226.812 307.797 225.523 307.797C224.228 307.797 223.111 307.676 222.174 307.436C221.243 307.195 220.53 306.837 220.035 306.361C219.54 305.893 219.293 305.323 219.293 304.652ZM221.832 304.652C221.826 305.089 222.128 305.414 222.74 305.629C223.352 305.837 224.28 305.941 225.523 305.941C227.978 305.941 229.208 305.512 229.215 304.652C229.208 303.819 227.978 303.402 225.523 303.402C224.273 303.402 223.342 303.507 222.73 303.715C222.125 303.917 221.826 304.229 221.832 304.652ZM242.34 292.934H245.973V290.824H248.473V298.578H239.859V290.824H242.34V292.934ZM241.637 299.73H253.434V304.555H244.117V305.707H253.941V307.68H241.676V302.777H250.953V301.664H241.637V299.73ZM245.973 296.625V294.809H242.34V296.625H245.973ZM250.934 290.023H253.434V293.48H255.836V295.492H253.434V299.066H250.934V290.023ZM272.887 305.824H256.617V303.832H260.66V300.453H257.965V298.441H260.348V293.441H257.887V291.449H271.52V293.441H269.02V298.441H271.441V300.453H268.766V303.832H272.887V305.824ZM266.559 298.441V293.441H262.848V298.441H266.559ZM266.266 303.832V300.453H263.16V303.832H266.266Z" fill="white"/>
<path d="M25.1063 200V198.908L28.5503 195.436C29.6283 194.316 30.1743 193.686 30.1743 192.832C30.1743 191.852 29.3763 191.222 28.3263 191.236C27.2343 191.222 26.5343 191.922 26.5343 192.972H25.1063C25.1063 191.166 26.4783 189.962 28.3823 189.976C30.2723 189.962 31.6023 191.166 31.6023 192.776C31.6023 193.882 31.0703 194.764 29.2223 196.584L27.2063 198.628V198.712H31.7703V200H25.1063ZM36.8628 200.14C34.5808 200.14 33.2368 198.292 33.2228 195.044C33.2368 191.838 34.5948 189.962 36.8628 189.976C39.1448 189.962 40.5028 191.838 40.5028 195.044C40.5028 198.292 39.1588 200.14 36.8628 200.14ZM34.7348 195.044C34.7348 197.522 35.5328 198.838 36.8628 198.852C38.2068 198.838 39.0048 197.522 38.9908 195.044C39.0048 192.594 38.1928 191.236 36.8628 191.236C35.5468 191.236 34.7348 192.594 34.7348 195.044ZM42.0457 200V198.908L45.4897 195.436C46.5677 194.316 47.1137 193.686 47.1137 192.832C47.1137 191.852 46.3157 191.222 45.2657 191.236C44.1737 191.222 43.4737 191.922 43.4737 192.972H42.0457C42.0457 191.166 43.4177 189.962 45.3217 189.976C47.2117 189.962 48.5417 191.166 48.5417 192.776C48.5417 193.882 48.0097 194.764 46.1617 196.584L44.1457 198.628V198.712H48.7097V200H42.0457ZM53.8862 200.14C51.8282 200.14 50.3722 199.034 50.3022 197.424H51.8422C51.8982 198.278 52.7522 198.838 53.8582 198.852C55.0622 198.838 55.9302 198.18 55.9302 197.228C55.9302 196.248 55.1182 195.548 53.6902 195.548H52.8502V194.316H53.6902C54.8242 194.316 55.6222 193.686 55.6222 192.748C55.6222 191.838 54.9362 191.222 53.8862 191.236C52.8922 191.222 52.0102 191.782 51.9822 192.664H50.5262C50.5682 191.054 52.0522 189.962 53.9142 189.976C55.8462 189.962 57.0782 191.194 57.0782 192.664C57.0782 193.784 56.3782 194.596 55.3142 194.848V194.932C56.6582 195.114 57.4562 196.024 57.4422 197.284C57.4562 198.936 55.9302 200.14 53.8862 200.14ZM68.8946 188.912V197.984H67.6066V193.812H64.2186V192.776H67.6066V191.488H64.2186V190.452H67.6066V188.912H68.8946ZM59.4026 196.22V189.78H60.6906V195.128C62.3146 195.128 63.8686 195.03 65.6186 194.708L65.7586 195.772C63.8126 196.136 62.1466 196.22 60.3266 196.22H59.4026ZM60.9146 200.896V197.172H62.2306V199.86H69.2026V200.896H60.9146ZM78.3641 190.088V200H76.8521V191.6H76.7961L74.4441 193.14V191.712L76.9081 190.088H78.3641ZM84.3315 200.14C82.0495 200.14 80.7055 198.292 80.6915 195.044C80.7055 191.838 82.0635 189.962 84.3315 189.976C86.6135 189.962 87.9715 191.838 87.9715 195.044C87.9715 198.292 86.6275 200.14 84.3315 200.14ZM82.2035 195.044C82.2035 197.522 83.0015 198.838 84.3315 198.852C85.6755 198.838 86.4735 197.522 86.4595 195.044C86.4735 192.594 85.6615 191.236 84.3315 191.236C83.0155 191.236 82.2035 192.594 82.2035 195.044ZM99.2865 188.912V196.108H97.9705V195.52H95.5905V194.708H97.9705V188.912H99.2865ZM89.0665 193.448C91.4465 193.448 94.4425 193.42 97.0745 193.14L97.1585 193.98C95.9965 194.134 94.8065 194.232 93.6305 194.288V196.136H92.3425V194.344C91.2365 194.372 90.1725 194.372 89.2065 194.372L89.0665 193.448ZM89.9905 190.984C89.9765 189.85 91.1945 189.136 93.0425 189.136C94.8765 189.136 96.0945 189.85 96.0945 190.984C96.0945 192.118 94.8765 192.804 93.0425 192.804C91.1945 192.804 89.9765 192.118 89.9905 190.984ZM90.9145 197.424V196.528H99.2865V199.16H92.2305V200.112H99.6505V201.036H90.9425V198.292H97.9985V197.424H90.9145ZM91.1945 190.984C91.1945 191.558 91.9225 191.936 93.0425 191.936C94.1625 191.936 94.8905 191.558 94.8905 190.984C94.8905 190.396 94.1625 190.004 93.0425 190.004C91.9225 190.004 91.1945 190.396 91.1945 190.984ZM108.56 200.14C106.502 200.14 105.046 199.034 104.976 197.424H106.516C106.572 198.278 107.426 198.838 108.532 198.852C109.736 198.838 110.604 198.18 110.604 197.228C110.604 196.248 109.792 195.548 108.364 195.548H107.524V194.316H108.364C109.498 194.316 110.296 193.686 110.296 192.748C110.296 191.838 109.61 191.222 108.56 191.236C107.566 191.222 106.684 191.782 106.656 192.664H105.2C105.242 191.054 106.726 189.962 108.588 189.976C110.52 189.962 111.752 191.194 111.752 192.664C111.752 193.784 111.052 194.596 109.988 194.848V194.932C111.332 195.114 112.13 196.024 112.116 197.284C112.13 198.936 110.604 200.14 108.56 200.14ZM117.212 200.14C114.93 200.14 113.586 198.292 113.572 195.044C113.586 191.838 114.944 189.962 117.212 189.976C119.494 189.962 120.852 191.838 120.852 195.044C120.852 198.292 119.508 200.14 117.212 200.14ZM115.084 195.044C115.084 197.522 115.882 198.838 117.212 198.852C118.556 198.838 119.354 197.522 119.34 195.044C119.354 192.594 118.542 191.236 117.212 191.236C115.896 191.236 115.084 192.594 115.084 195.044ZM125.447 189.332C127.295 189.332 128.653 190.466 128.667 192.076C128.653 193.686 127.295 194.806 125.447 194.792C123.585 194.806 122.227 193.686 122.227 192.076C122.227 190.466 123.585 189.332 125.447 189.332ZM123.487 192.076C123.487 193.084 124.327 193.742 125.447 193.756C126.567 193.742 127.407 193.084 127.407 192.076C127.407 191.082 126.567 190.41 125.447 190.424C124.327 190.41 123.487 191.082 123.487 192.076ZM124.075 196.752V195.716H132.139V198.796H125.391V199.972H132.531V201.008H124.131V197.816H130.851V196.752H124.075ZM130.851 195.156V188.912H132.139V195.156H130.851ZM134.943 195.884C134.943 193.476 135.587 191.446 136.819 189.724H138.163C137.197 191.012 136.455 193.602 136.455 195.884C136.455 198.194 137.197 200.784 138.163 202.072H136.819C135.587 200.336 134.943 198.32 134.943 195.884ZM149.285 188.912V196.108H147.969V195.52H145.589V194.708H147.969V188.912H149.285ZM139.065 193.448C141.445 193.448 144.441 193.42 147.073 193.14L147.157 193.98C145.995 194.134 144.805 194.232 143.629 194.288V196.136H142.341V194.344C141.235 194.372 140.171 194.372 139.205 194.372L139.065 193.448ZM139.989 190.984C139.975 189.85 141.193 189.136 143.041 189.136C144.875 189.136 146.093 189.85 146.093 190.984C146.093 192.118 144.875 192.804 143.041 192.804C141.193 192.804 139.975 192.118 139.989 190.984ZM140.913 197.424V196.528H149.285V199.16H142.229V200.112H149.649V201.036H140.941V198.292H147.997V197.424H140.913ZM141.193 190.984C141.193 191.558 141.921 191.936 143.041 191.936C144.161 191.936 144.889 191.558 144.889 190.984C144.889 190.396 144.161 190.004 143.041 190.004C141.921 190.004 141.193 190.396 141.193 190.984ZM154.44 195.912C154.44 198.32 153.796 200.35 152.564 202.072H151.22C152.186 200.784 152.928 198.194 152.928 195.912C152.928 193.602 152.186 191.012 151.22 189.724H152.564C153.796 191.46 154.44 193.476 154.44 195.912ZM21.4934 214.144C21.4514 212.464 22.3614 211.722 23.4534 211.708C24.1114 211.722 24.5874 211.974 25.3014 212.576C25.7354 212.968 25.9454 213.136 26.3094 213.136C26.8134 213.136 27.1634 212.744 27.1494 211.96H28.3814C28.4234 213.654 27.4854 214.41 26.3934 214.396C25.7494 214.41 25.2594 214.144 24.5734 213.528C24.1114 213.15 23.9154 212.996 23.5654 212.996C23.0754 212.996 22.6974 213.318 22.7254 214.144H21.4934ZM33.6717 217V215.908L37.1157 212.436C38.1937 211.316 38.7397 210.686 38.7397 209.832C38.7397 208.852 37.9417 208.222 36.8917 208.236C35.7997 208.222 35.0997 208.922 35.0997 209.972H33.6717C33.6717 208.166 35.0437 206.962 36.9477 206.976C38.8377 206.962 40.1677 208.166 40.1677 209.776C40.1677 210.882 39.6357 211.764 37.7877 213.584L35.7717 215.628V215.712H40.3357V217H33.6717ZM45.4282 217.14C43.1462 217.14 41.8022 215.292 41.7882 212.044C41.8022 208.838 43.1602 206.962 45.4282 206.976C47.7102 206.962 49.0682 208.838 49.0682 212.044C49.0682 215.292 47.7242 217.14 45.4282 217.14ZM43.3002 212.044C43.3002 214.522 44.0982 215.838 45.4282 215.852C46.7722 215.838 47.5702 214.522 47.5562 212.044C47.5702 209.594 46.7582 208.236 45.4282 208.236C44.1122 208.236 43.3002 209.594 43.3002 212.044ZM50.6112 217V215.908L54.0552 212.436C55.1332 211.316 55.6792 210.686 55.6792 209.832C55.6792 208.852 54.8812 208.222 53.8312 208.236C52.7392 208.222 52.0392 208.922 52.0392 209.972H50.6112C50.6112 208.166 51.9832 206.962 53.8872 206.976C55.7772 206.962 57.1072 208.166 57.1072 209.776C57.1072 210.882 56.5752 211.764 54.7272 213.584L52.7112 215.628V215.712H57.2752V217H50.6112ZM62.4517 217.14C60.3937 217.14 58.9377 216.034 58.8677 214.424H60.4077C60.4637 215.278 61.3177 215.838 62.4237 215.852C63.6277 215.838 64.4957 215.18 64.4957 214.228C64.4957 213.248 63.6837 212.548 62.2557 212.548H61.4157V211.316H62.2557C63.3897 211.316 64.1877 210.686 64.1877 209.748C64.1877 208.838 63.5017 208.222 62.4517 208.236C61.4577 208.222 60.5757 208.782 60.5477 209.664H59.0917C59.1337 208.054 60.6177 206.962 62.4797 206.976C64.4117 206.962 65.6437 208.194 65.6437 209.664C65.6437 210.784 64.9437 211.596 63.8797 211.848V211.932C65.2237 212.114 66.0217 213.024 66.0077 214.284C66.0217 215.936 64.4957 217.14 62.4517 217.14ZM77.46 205.912V214.984H76.172V210.812H72.784V209.776H76.172V208.488H72.784V207.452H76.172V205.912H77.46ZM67.968 213.22V206.78H69.256V212.128C70.88 212.128 72.434 212.03 74.184 211.708L74.324 212.772C72.378 213.136 70.712 213.22 68.892 213.22H67.968ZM69.48 217.896V214.172H70.796V216.86H77.768V217.896H69.48ZM86.9296 207.088V217H85.4176V208.6H85.3616L83.0096 210.14V208.712L85.4736 207.088H86.9296ZM93.205 207.088V217H91.693V208.6H91.637L89.285 210.14V208.712L91.749 207.088H93.205ZM105.5 205.912V213.108H104.184V212.52H101.804V211.708H104.184V205.912H105.5ZM95.2804 210.448C97.6604 210.448 100.656 210.42 103.288 210.14L103.372 210.98C102.21 211.134 101.02 211.232 99.8444 211.288V213.136H98.5564V211.344C97.4504 211.372 96.3864 211.372 95.4204 211.372L95.2804 210.448ZM96.2044 207.984C96.1904 206.85 97.4084 206.136 99.2564 206.136C101.09 206.136 102.308 206.85 102.308 207.984C102.308 209.118 101.09 209.804 99.2564 209.804C97.4084 209.804 96.1904 209.118 96.2044 207.984ZM97.1284 214.424V213.528H105.5V216.16H98.4444V217.112H105.864V218.036H97.1564V215.292H104.212V214.424H97.1284ZM97.4084 207.984C97.4084 208.558 98.1364 208.936 99.2564 208.936C100.376 208.936 101.104 208.558 101.104 207.984C101.104 207.396 100.376 207.004 99.2564 207.004C98.1364 207.004 97.4084 207.396 97.4084 207.984ZM114.998 207.088V217H113.486V208.6H113.43L111.078 210.14V208.712L113.542 207.088H114.998ZM120.965 217.14C118.683 217.14 117.339 215.292 117.325 212.044C117.339 208.838 118.697 206.962 120.965 206.976C123.247 206.962 124.605 208.838 124.605 212.044C124.605 215.292 123.261 217.14 120.965 217.14ZM118.837 212.044C118.837 214.522 119.635 215.838 120.965 215.852C122.309 215.838 123.107 214.522 123.093 212.044C123.107 209.594 122.295 208.236 120.965 208.236C119.649 208.236 118.837 209.594 118.837 212.044ZM129.2 206.332C131.048 206.332 132.406 207.466 132.42 209.076C132.406 210.686 131.048 211.806 129.2 211.792C127.338 211.806 125.98 210.686 125.98 209.076C125.98 207.466 127.338 206.332 129.2 206.332ZM127.24 209.076C127.24 210.084 128.08 210.742 129.2 210.756C130.32 210.742 131.16 210.084 131.16 209.076C131.16 208.082 130.32 207.41 129.2 207.424C128.08 207.41 127.24 208.082 127.24 209.076ZM127.828 213.752V212.716H135.892V215.796H129.144V216.972H136.284V218.008H127.884V214.816H134.604V213.752H127.828ZM134.604 212.156V205.912H135.892V212.156H134.604ZM138.696 212.884C138.696 210.476 139.34 208.446 140.572 206.724H141.916C140.95 208.012 140.208 210.602 140.208 212.884C140.208 215.194 140.95 217.784 141.916 219.072H140.572C139.34 217.336 138.696 215.32 138.696 212.884ZM152.645 206.528V207.452C152.645 208.418 152.645 209.51 152.337 211.008H154.073V212.072H142.845V211.008H151.007C151.343 209.58 151.357 208.53 151.357 207.592H144.245V206.528H152.645ZM144.217 218.008V213.612H152.645V218.008H144.217ZM145.477 216.944H151.357V214.648H145.477V216.944ZM158.193 212.912C158.193 215.32 157.549 217.35 156.317 219.072H154.973C155.939 217.784 156.681 215.194 156.681 212.912C156.681 210.602 155.939 208.012 154.973 206.724H156.317C157.549 208.46 158.193 210.476 158.193 212.912Z" fill="white"/>
<path d="M175.868 206V204.908L179.312 201.436C180.39 200.316 180.936 199.686 180.936 198.832C180.936 197.852 180.138 197.222 179.088 197.236C177.996 197.222 177.296 197.922 177.296 198.972H175.868C175.868 197.166 177.24 195.962 179.144 195.976C181.034 195.962 182.364 197.166 182.364 198.776C182.364 199.882 181.832 200.764 179.984 202.584L177.968 204.628V204.712H182.532V206H175.868ZM187.625 206.14C185.343 206.14 183.999 204.292 183.985 201.044C183.999 197.838 185.357 195.962 187.625 195.976C189.907 195.962 191.265 197.838 191.265 201.044C191.265 204.292 189.921 206.14 187.625 206.14ZM185.497 201.044C185.497 203.522 186.295 204.838 187.625 204.852C188.969 204.838 189.767 203.522 189.753 201.044C189.767 198.594 188.955 197.236 187.625 197.236C186.309 197.236 185.497 198.594 185.497 201.044ZM192.807 206V204.908L196.251 201.436C197.329 200.316 197.875 199.686 197.875 198.832C197.875 197.852 197.077 197.222 196.027 197.236C194.935 197.222 194.235 197.922 194.235 198.972H192.807C192.807 197.166 194.179 195.962 196.083 195.976C197.973 195.962 199.303 197.166 199.303 198.776C199.303 199.882 198.771 200.764 196.923 202.584L194.907 204.628V204.712H199.471V206H192.807ZM204.648 206.14C202.59 206.14 201.134 205.034 201.064 203.424H202.604C202.66 204.278 203.514 204.838 204.62 204.852C205.824 204.838 206.692 204.18 206.692 203.228C206.692 202.248 205.88 201.548 204.452 201.548H203.612V200.316H204.452C205.586 200.316 206.384 199.686 206.384 198.748C206.384 197.838 205.698 197.222 204.648 197.236C203.654 197.222 202.772 197.782 202.744 198.664H201.288C201.33 197.054 202.814 195.962 204.676 195.976C206.608 195.962 207.84 197.194 207.84 198.664C207.84 199.784 207.14 200.596 206.076 200.848V200.932C207.42 201.114 208.218 202.024 208.204 203.284C208.218 204.936 206.692 206.14 204.648 206.14ZM219.656 194.912V203.984H218.368V199.812H214.98V198.776H218.368V197.488H214.98V196.452H218.368V194.912H219.656ZM210.164 202.22V195.78H211.452V201.128C213.076 201.128 214.63 201.03 216.38 200.708L216.52 201.772C214.574 202.136 212.908 202.22 211.088 202.22H210.164ZM211.676 206.896V203.172H212.992V205.86H219.964V206.896H211.676ZM229.126 196.088V206H227.614V197.6H227.558L225.206 199.14V197.712L227.67 196.088H229.126ZM235.401 196.088V206H233.889V197.6H233.833L231.481 199.14V197.712L233.945 196.088H235.401ZM247.697 194.912V202.108H246.381V201.52H244.001V200.708H246.381V194.912H247.697ZM237.477 199.448C239.857 199.448 242.853 199.42 245.485 199.14L245.569 199.98C244.407 200.134 243.217 200.232 242.041 200.288V202.136H240.753V200.344C239.647 200.372 238.583 200.372 237.617 200.372L237.477 199.448ZM238.401 196.984C238.387 195.85 239.605 195.136 241.453 195.136C243.287 195.136 244.505 195.85 244.505 196.984C244.505 198.118 243.287 198.804 241.453 198.804C239.605 198.804 238.387 198.118 238.401 196.984ZM239.325 203.424V202.528H247.697V205.16H240.641V206.112H248.061V207.036H239.353V204.292H246.409V203.424H239.325ZM239.605 196.984C239.605 197.558 240.333 197.936 241.453 197.936C242.573 197.936 243.301 197.558 243.301 196.984C243.301 196.396 242.573 196.004 241.453 196.004C240.333 196.004 239.605 196.396 239.605 196.984ZM257.194 196.088V206H255.682V197.6H255.626L253.274 199.14V197.712L255.738 196.088H257.194ZM259.718 206V204.908L263.162 201.436C264.24 200.316 264.786 199.686 264.786 198.832C264.786 197.852 263.988 197.222 262.938 197.236C261.846 197.222 261.146 197.922 261.146 198.972H259.718C259.718 197.166 261.09 195.962 262.994 195.976C264.884 195.962 266.214 197.166 266.214 198.776C266.214 199.882 265.682 200.764 263.834 202.584L261.818 204.628V204.712H266.382V206H259.718ZM271.082 195.332C272.93 195.332 274.288 196.466 274.302 198.076C274.288 199.686 272.93 200.806 271.082 200.792C269.22 200.806 267.862 199.686 267.862 198.076C267.862 196.466 269.22 195.332 271.082 195.332ZM269.122 198.076C269.122 199.084 269.962 199.742 271.082 199.756C272.202 199.742 273.042 199.084 273.042 198.076C273.042 197.082 272.202 196.41 271.082 196.424C269.962 196.41 269.122 197.082 269.122 198.076ZM269.71 202.752V201.716H277.774V204.796H271.026V205.972H278.166V207.008H269.766V203.816H276.486V202.752H269.71ZM276.486 201.156V194.912H277.774V201.156H276.486ZM280.578 201.884C280.578 199.476 281.222 197.446 282.454 195.724H283.798C282.832 197.012 282.09 199.602 282.09 201.884C282.09 204.194 282.832 206.784 283.798 208.072H282.454C281.222 206.336 280.578 204.32 280.578 201.884ZM288.199 195.332C290.047 195.332 291.405 196.466 291.419 198.076C291.405 199.686 290.047 200.806 288.199 200.792C286.337 200.806 284.979 199.686 284.979 198.076C284.979 196.466 286.337 195.332 288.199 195.332ZM286.239 198.076C286.239 199.084 287.079 199.742 288.199 199.756C289.319 199.742 290.159 199.084 290.159 198.076C290.159 197.082 289.319 196.41 288.199 196.424C287.079 196.41 286.239 197.082 286.239 198.076ZM286.827 202.752V201.716H294.891V204.796H288.143V205.972H295.283V207.008H286.883V203.816H293.603V202.752H286.827ZM293.603 201.156V194.912H294.891V201.156H293.603ZM300.075 201.912C300.075 204.32 299.431 206.35 298.199 208.072H296.855C297.821 206.784 298.563 204.194 298.563 201.912C298.563 199.602 297.821 197.012 296.855 195.724H298.199C299.431 197.46 300.075 199.476 300.075 201.912Z" fill="white"/>
<path d="M25.7489 347V345.908L29.1929 342.436C30.2709 341.316 30.8169 340.686 30.8169 339.832C30.8169 338.852 30.0189 338.222 28.9689 338.236C27.8769 338.222 27.1769 338.922 27.1769 339.972H25.7489C25.7489 338.166 27.1209 336.962 29.0249 336.976C30.9149 336.962 32.2449 338.166 32.2449 339.776C32.2449 340.882 31.7129 341.764 29.8649 343.584L27.8489 345.628V345.712H32.4129V347H25.7489ZM37.5054 347.14C35.2234 347.14 33.8794 345.292 33.8654 342.044C33.8794 338.838 35.2374 336.962 37.5054 336.976C39.7874 336.962 41.1454 338.838 41.1454 342.044C41.1454 345.292 39.8014 347.14 37.5054 347.14ZM35.3774 342.044C35.3774 344.522 36.1754 345.838 37.5054 345.852C38.8494 345.838 39.6474 344.522 39.6334 342.044C39.6474 339.594 38.8354 338.236 37.5054 338.236C36.1894 338.236 35.3774 339.594 35.3774 342.044ZM42.6883 347V345.908L46.1323 342.436C47.2103 341.316 47.7563 340.686 47.7563 339.832C47.7563 338.852 46.9583 338.222 45.9083 338.236C44.8163 338.222 44.1163 338.922 44.1163 339.972H42.6883C42.6883 338.166 44.0603 336.962 45.9643 336.976C47.8543 336.962 49.1843 338.166 49.1843 339.776C49.1843 340.882 48.6523 341.764 46.8043 343.584L44.7883 345.628V345.712H49.3523V347H42.6883ZM54.5288 347.14C52.4708 347.14 51.0148 346.034 50.9448 344.424H52.4848C52.5408 345.278 53.3948 345.838 54.5008 345.852C55.7048 345.838 56.5728 345.18 56.5728 344.228C56.5728 343.248 55.7608 342.548 54.3328 342.548H53.4928V341.316H54.3328C55.4668 341.316 56.2648 340.686 56.2648 339.748C56.2648 338.838 55.5788 338.222 54.5288 338.236C53.5348 338.222 52.6528 338.782 52.6248 339.664H51.1688C51.2108 338.054 52.6948 336.962 54.5568 336.976C56.4888 336.962 57.7208 338.194 57.7208 339.664C57.7208 340.784 57.0208 341.596 55.9568 341.848V341.932C57.3008 342.114 58.0988 343.024 58.0848 344.284C58.0988 345.936 56.5728 347.14 54.5288 347.14ZM69.5371 335.912V344.984H68.2491V340.812H64.8611V339.776H68.2491V338.488H64.8611V337.452H68.2491V335.912H69.5371ZM60.0451 343.22V336.78H61.3331V342.128C62.9571 342.128 64.5111 342.03 66.2611 341.708L66.4011 342.772C64.4551 343.136 62.7891 343.22 60.9691 343.22H60.0451ZM61.5571 347.896V344.172H62.8731V346.86H69.8451V347.896H61.5571ZM79.0067 337.088V347H77.4947V338.6H77.4387L75.0867 340.14V338.712L77.5507 337.088H79.0067ZM85.2821 337.088V347H83.7701V338.6H83.7141L81.3621 340.14V338.712L83.8261 337.088H85.2821ZM97.5775 335.912V343.108H96.2615V342.52H93.8815V341.708H96.2615V335.912H97.5775ZM87.3575 340.448C89.7375 340.448 92.7335 340.42 95.3655 340.14L95.4495 340.98C94.2875 341.134 93.0975 341.232 91.9215 341.288V343.136H90.6335V341.344C89.5275 341.372 88.4635 341.372 87.4975 341.372L87.3575 340.448ZM88.2815 337.984C88.2675 336.85 89.4855 336.136 91.3335 336.136C93.1675 336.136 94.3855 336.85 94.3855 337.984C94.3855 339.118 93.1675 339.804 91.3335 339.804C89.4855 339.804 88.2675 339.118 88.2815 337.984ZM89.2055 344.424V343.528H97.5775V346.16H90.5215V347.112H97.9415V348.036H89.2335V345.292H96.2895V344.424H89.2055ZM89.4855 337.984C89.4855 338.558 90.2135 338.936 91.3335 338.936C92.4535 338.936 93.1815 338.558 93.1815 337.984C93.1815 337.396 92.4535 337.004 91.3335 337.004C90.2135 337.004 89.4855 337.396 89.4855 337.984ZM107.075 337.088V347H105.563V338.6H105.507L103.155 340.14V338.712L105.619 337.088H107.075ZM113.126 347.14C111.068 347.14 109.612 346.034 109.542 344.424H111.082C111.138 345.278 111.992 345.838 113.098 345.852C114.302 345.838 115.17 345.18 115.17 344.228C115.17 343.248 114.358 342.548 112.93 342.548H112.09V341.316H112.93C114.064 341.316 114.862 340.686 114.862 339.748C114.862 338.838 114.176 338.222 113.126 338.236C112.132 338.222 111.25 338.782 111.222 339.664H109.766C109.808 338.054 111.292 336.962 113.154 336.976C115.086 336.962 116.318 338.194 116.318 339.664C116.318 340.784 115.618 341.596 114.554 341.848V341.932C115.898 342.114 116.696 343.024 116.682 344.284C116.696 345.936 115.17 347.14 113.126 347.14ZM121.387 336.332C123.235 336.332 124.593 337.466 124.607 339.076C124.593 340.686 123.235 341.806 121.387 341.792C119.525 341.806 118.167 340.686 118.167 339.076C118.167 337.466 119.525 336.332 121.387 336.332ZM119.427 339.076C119.427 340.084 120.267 340.742 121.387 340.756C122.507 340.742 123.347 340.084 123.347 339.076C123.347 338.082 122.507 337.41 121.387 337.424C120.267 337.41 119.427 338.082 119.427 339.076ZM120.015 343.752V342.716H128.079V345.796H121.331V346.972H128.471V348.008H120.071V344.816H126.791V343.752H120.015ZM126.791 342.156V335.912H128.079V342.156H126.791ZM134.3 342.884C134.3 340.476 134.944 338.446 136.176 336.724H137.52C136.554 338.012 135.812 340.602 135.812 342.884C135.812 345.194 136.554 347.784 137.52 349.072H136.176C134.944 347.336 134.3 345.32 134.3 342.884ZM148.642 335.912V343.108H147.326V342.52H144.946V341.708H147.326V335.912H148.642ZM138.422 340.448C140.802 340.448 143.798 340.42 146.43 340.14L146.514 340.98C145.352 341.134 144.162 341.232 142.986 341.288V343.136H141.698V341.344C140.592 341.372 139.528 341.372 138.562 341.372L138.422 340.448ZM139.346 337.984C139.332 336.85 140.55 336.136 142.398 336.136C144.232 336.136 145.45 336.85 145.45 337.984C145.45 339.118 144.232 339.804 142.398 339.804C140.55 339.804 139.332 339.118 139.346 337.984ZM140.27 344.424V343.528H148.642V346.16H141.586V347.112H149.006V348.036H140.298V345.292H147.354V344.424H140.27ZM140.55 337.984C140.55 338.558 141.278 338.936 142.398 338.936C143.518 338.936 144.246 338.558 144.246 337.984C144.246 337.396 143.518 337.004 142.398 337.004C141.278 337.004 140.55 337.396 140.55 337.984ZM153.798 342.912C153.798 345.32 153.154 347.35 151.922 349.072H150.578C151.544 347.784 152.286 345.194 152.286 342.912C152.286 340.602 151.544 338.012 150.578 336.724H151.922C153.154 338.46 153.798 340.476 153.798 342.912ZM20.1809 361.144C20.1389 359.464 21.0489 358.722 22.1409 358.708C22.7989 358.722 23.2749 358.974 23.9889 359.576C24.4229 359.968 24.6329 360.136 24.9969 360.136C25.5009 360.136 25.8509 359.744 25.8369 358.96H27.0689C27.1109 360.654 26.1729 361.41 25.0809 361.396C24.4369 361.41 23.9469 361.144 23.2609 360.528C22.7989 360.15 22.6029 359.996 22.2529 359.996C21.7629 359.996 21.3849 360.318 21.4129 361.144H20.1809ZM32.3592 364V362.908L35.8032 359.436C36.8812 358.316 37.4272 357.686 37.4272 356.832C37.4272 355.852 36.6292 355.222 35.5792 355.236C34.4872 355.222 33.7872 355.922 33.7872 356.972H32.3592C32.3592 355.166 33.7312 353.962 35.6352 353.976C37.5252 353.962 38.8552 355.166 38.8552 356.776C38.8552 357.882 38.3232 358.764 36.4752 360.584L34.4592 362.628V362.712H39.0232V364H32.3592ZM44.1157 364.14C41.8337 364.14 40.4897 362.292 40.4757 359.044C40.4897 355.838 41.8477 353.962 44.1157 353.976C46.3977 353.962 47.7557 355.838 47.7557 359.044C47.7557 362.292 46.4117 364.14 44.1157 364.14ZM41.9877 359.044C41.9877 361.522 42.7857 362.838 44.1157 362.852C45.4597 362.838 46.2577 361.522 46.2437 359.044C46.2577 356.594 45.4457 355.236 44.1157 355.236C42.7997 355.236 41.9877 356.594 41.9877 359.044ZM49.2987 364V362.908L52.7427 359.436C53.8207 358.316 54.3667 357.686 54.3667 356.832C54.3667 355.852 53.5687 355.222 52.5187 355.236C51.4267 355.222 50.7267 355.922 50.7267 356.972H49.2987C49.2987 355.166 50.6707 353.962 52.5747 353.976C54.4647 353.962 55.7947 355.166 55.7947 356.776C55.7947 357.882 55.2627 358.764 53.4147 360.584L51.3987 362.628V362.712H55.9627V364H49.2987ZM61.1392 364.14C59.0812 364.14 57.6252 363.034 57.5552 361.424H59.0952C59.1512 362.278 60.0052 362.838 61.1112 362.852C62.3152 362.838 63.1832 362.18 63.1832 361.228C63.1832 360.248 62.3712 359.548 60.9432 359.548H60.1032V358.316H60.9432C62.0772 358.316 62.8752 357.686 62.8752 356.748C62.8752 355.838 62.1892 355.222 61.1392 355.236C60.1452 355.222 59.2632 355.782 59.2352 356.664H57.7792C57.8212 355.054 59.3052 353.962 61.1672 353.976C63.0992 353.962 64.3312 355.194 64.3312 356.664C64.3312 357.784 63.6312 358.596 62.5672 358.848V358.932C63.9112 359.114 64.7092 360.024 64.6952 361.284C64.7092 362.936 63.1832 364.14 61.1392 364.14ZM76.1475 352.912V361.984H74.8595V357.812H71.4715V356.776H74.8595V355.488H71.4715V354.452H74.8595V352.912H76.1475ZM66.6555 360.22V353.78H67.9435V359.128C69.5675 359.128 71.1215 359.03 72.8715 358.708L73.0115 359.772C71.0655 360.136 69.3995 360.22 67.5795 360.22H66.6555ZM68.1675 364.896V361.172H69.4835V363.86H76.4555V364.896H68.1675ZM85.6171 354.088V364H84.1051V355.6H84.0491L81.6971 357.14V355.712L84.1611 354.088H85.6171ZM91.8925 354.088V364H90.3805V355.6H90.3245L87.9725 357.14V355.712L90.4365 354.088H91.8925ZM104.188 352.912V360.108H102.872V359.52H100.492V358.708H102.872V352.912H104.188ZM93.9679 357.448C96.3479 357.448 99.3439 357.42 101.976 357.14L102.06 357.98C100.898 358.134 99.7079 358.232 98.5319 358.288V360.136H97.2439V358.344C96.1379 358.372 95.0739 358.372 94.1079 358.372L93.9679 357.448ZM94.8919 354.984C94.8779 353.85 96.0959 353.136 97.9439 353.136C99.7779 353.136 100.996 353.85 100.996 354.984C100.996 356.118 99.7779 356.804 97.9439 356.804C96.0959 356.804 94.8779 356.118 94.8919 354.984ZM95.8159 361.424V360.528H104.188V363.16H97.1319V364.112H104.552V365.036H95.8439V362.292H102.9V361.424H95.8159ZM96.0959 354.984C96.0959 355.558 96.8239 355.936 97.9439 355.936C99.0639 355.936 99.7919 355.558 99.7919 354.984C99.7919 354.396 99.0639 354.004 97.9439 354.004C96.8239 354.004 96.0959 354.396 96.0959 354.984ZM113.685 354.088V364H112.173V355.6H112.117L109.765 357.14V355.712L112.229 354.088H113.685ZM116.545 364L120.969 355.46V355.404H115.873V354.088H122.537V355.432L118.113 364H116.545ZM127.095 353.332C128.943 353.332 130.301 354.466 130.315 356.076C130.301 357.686 128.943 358.806 127.095 358.792C125.233 358.806 123.875 357.686 123.875 356.076C123.875 354.466 125.233 353.332 127.095 353.332ZM125.135 356.076C125.135 357.084 125.975 357.742 127.095 357.756C128.215 357.742 129.055 357.084 129.055 356.076C129.055 355.082 128.215 354.41 127.095 354.424C125.975 354.41 125.135 355.082 125.135 356.076ZM125.723 360.752V359.716H133.787V362.796H127.039V363.972H134.179V365.008H125.779V361.816H132.499V360.752H125.723ZM132.499 359.156V352.912H133.787V359.156H132.499ZM140.008 359.884C140.008 357.476 140.652 355.446 141.884 353.724H143.228C142.262 355.012 141.52 357.602 141.52 359.884C141.52 362.194 142.262 364.784 143.228 366.072H141.884C140.652 364.336 140.008 362.32 140.008 359.884ZM153.958 353.528V354.452C153.958 355.418 153.958 356.51 153.65 358.008H155.386V359.072H144.158V358.008H152.32C152.656 356.58 152.67 355.53 152.67 354.592H145.558V353.528H153.958ZM145.53 365.008V360.612H153.958V365.008H145.53ZM146.79 363.944H152.67V361.648H146.79V363.944ZM159.506 359.912C159.506 362.32 158.862 364.35 157.63 366.072H156.286C157.252 364.784 157.994 362.194 157.994 359.912C157.994 357.602 157.252 355.012 156.286 353.724H157.63C158.862 355.46 159.506 357.476 159.506 359.912Z" fill="white"/>
<path d="M178.868 347V345.908L182.312 342.436C183.39 341.316 183.936 340.686 183.936 339.832C183.936 338.852 183.138 338.222 182.088 338.236C180.996 338.222 180.296 338.922 180.296 339.972H178.868C178.868 338.166 180.24 336.962 182.144 336.976C184.034 336.962 185.364 338.166 185.364 339.776C185.364 340.882 184.832 341.764 182.984 343.584L180.968 345.628V345.712H185.532V347H178.868ZM190.625 347.14C188.343 347.14 186.999 345.292 186.985 342.044C186.999 338.838 188.357 336.962 190.625 336.976C192.907 336.962 194.265 338.838 194.265 342.044C194.265 345.292 192.921 347.14 190.625 347.14ZM188.497 342.044C188.497 344.522 189.295 345.838 190.625 345.852C191.969 345.838 192.767 344.522 192.753 342.044C192.767 339.594 191.955 338.236 190.625 338.236C189.309 338.236 188.497 339.594 188.497 342.044ZM195.807 347V345.908L199.251 342.436C200.329 341.316 200.875 340.686 200.875 339.832C200.875 338.852 200.077 338.222 199.027 338.236C197.935 338.222 197.235 338.922 197.235 339.972H195.807C195.807 338.166 197.179 336.962 199.083 336.976C200.973 336.962 202.303 338.166 202.303 339.776C202.303 340.882 201.771 341.764 199.923 343.584L197.907 345.628V345.712H202.471V347H195.807ZM207.648 347.14C205.59 347.14 204.134 346.034 204.064 344.424H205.604C205.66 345.278 206.514 345.838 207.62 345.852C208.824 345.838 209.692 345.18 209.692 344.228C209.692 343.248 208.88 342.548 207.452 342.548H206.612V341.316H207.452C208.586 341.316 209.384 340.686 209.384 339.748C209.384 338.838 208.698 338.222 207.648 338.236C206.654 338.222 205.772 338.782 205.744 339.664H204.288C204.33 338.054 205.814 336.962 207.676 336.976C209.608 336.962 210.84 338.194 210.84 339.664C210.84 340.784 210.14 341.596 209.076 341.848V341.932C210.42 342.114 211.218 343.024 211.204 344.284C211.218 345.936 209.692 347.14 207.648 347.14ZM222.656 335.912V344.984H221.368V340.812H217.98V339.776H221.368V338.488H217.98V337.452H221.368V335.912H222.656ZM213.164 343.22V336.78H214.452V342.128C216.076 342.128 217.63 342.03 219.38 341.708L219.52 342.772C217.574 343.136 215.908 343.22 214.088 343.22H213.164ZM214.676 347.896V344.172H215.992V346.86H222.964V347.896H214.676ZM232.126 337.088V347H230.614V338.6H230.558L228.206 340.14V338.712L230.67 337.088H232.126ZM238.401 337.088V347H236.889V338.6H236.833L234.481 340.14V338.712L236.945 337.088H238.401ZM250.697 335.912V343.108H249.381V342.52H247.001V341.708H249.381V335.912H250.697ZM240.477 340.448C242.857 340.448 245.853 340.42 248.485 340.14L248.569 340.98C247.407 341.134 246.217 341.232 245.041 341.288V343.136H243.753V341.344C242.647 341.372 241.583 341.372 240.617 341.372L240.477 340.448ZM241.401 337.984C241.387 336.85 242.605 336.136 244.453 336.136C246.287 336.136 247.505 336.85 247.505 337.984C247.505 339.118 246.287 339.804 244.453 339.804C242.605 339.804 241.387 339.118 241.401 337.984ZM242.325 344.424V343.528H250.697V346.16H243.641V347.112H251.061V348.036H242.353V345.292H249.409V344.424H242.325ZM242.605 337.984C242.605 338.558 243.333 338.936 244.453 338.936C245.573 338.936 246.301 338.558 246.301 337.984C246.301 337.396 245.573 337.004 244.453 337.004C243.333 337.004 242.605 337.396 242.605 337.984ZM260.194 337.088V347H258.682V338.6H258.626L256.274 340.14V338.712L258.738 337.088H260.194ZM266.134 336.976C267.954 336.976 269.858 338.068 269.858 341.708C269.858 345.166 268.374 347.14 265.994 347.14C264.174 347.14 262.9 346.006 262.662 344.396H264.146C264.356 345.236 264.986 345.824 265.994 345.824C267.52 345.824 268.416 344.494 268.43 342.212H268.29C267.772 343.066 266.834 343.57 265.77 343.556C263.992 343.57 262.578 342.212 262.578 340.308C262.578 338.432 263.978 336.948 266.134 336.976ZM264.034 340.28C264.048 341.442 264.902 342.338 266.106 342.352C267.296 342.338 268.22 341.372 268.234 340.28C268.22 339.202 267.338 338.222 266.134 338.236C264.93 338.222 264.034 339.16 264.034 340.28ZM274.506 336.332C276.354 336.332 277.712 337.466 277.726 339.076C277.712 340.686 276.354 341.806 274.506 341.792C272.644 341.806 271.286 340.686 271.286 339.076C271.286 337.466 272.644 336.332 274.506 336.332ZM272.546 339.076C272.546 340.084 273.386 340.742 274.506 340.756C275.626 340.742 276.466 340.084 276.466 339.076C276.466 338.082 275.626 337.41 274.506 337.424C273.386 337.41 272.546 338.082 272.546 339.076ZM273.134 343.752V342.716H281.198V345.796H274.45V346.972H281.59V348.008H273.19V344.816H279.91V343.752H273.134ZM279.91 342.156V335.912H281.198V342.156H279.91ZM284.002 342.884C284.002 340.476 284.646 338.446 285.878 336.724H287.222C286.256 338.012 285.514 340.602 285.514 342.884C285.514 345.194 286.256 347.784 287.222 349.072H285.878C284.646 347.336 284.002 345.32 284.002 342.884ZM298.343 335.912V343.108H297.027V342.52H294.647V341.708H297.027V335.912H298.343ZM288.123 340.448C290.503 340.448 293.499 340.42 296.131 340.14L296.215 340.98C295.053 341.134 293.863 341.232 292.687 341.288V343.136H291.399V341.344C290.293 341.372 289.229 341.372 288.263 341.372L288.123 340.448ZM289.047 337.984C289.033 336.85 290.251 336.136 292.099 336.136C293.933 336.136 295.151 336.85 295.151 337.984C295.151 339.118 293.933 339.804 292.099 339.804C290.251 339.804 289.033 339.118 289.047 337.984ZM289.971 344.424V343.528H298.343V346.16H291.287V347.112H298.707V348.036H289.999V345.292H297.055V344.424H289.971ZM290.251 337.984C290.251 338.558 290.979 338.936 292.099 338.936C293.219 338.936 293.947 338.558 293.947 337.984C293.947 337.396 293.219 337.004 292.099 337.004C290.979 337.004 290.251 337.396 290.251 337.984ZM303.499 342.912C303.499 345.32 302.855 347.35 301.623 349.072H300.279C301.245 347.784 301.987 345.194 301.987 342.912C301.987 340.602 301.245 338.012 300.279 336.724H301.623C302.855 338.46 303.499 340.476 303.499 342.912Z" fill="white"/>
<path d="M146 248.5H184L146 286.5H184" stroke="url(#paint0_linear_199_23)"/>
<path d="M181 283L184.5 286.5L181 290" stroke="#FF731D"/>
<defs>
<linearGradient id="paint0_linear_199_23" x1="184" y1="284.373" x2="146" y2="284.373" gradientUnits="userSpaceOnUse">
<stop offset="0.3125" stop-color="#FF731D"/>
<stop offset="1" stop-color="white"/>
</linearGradient>
</defs>
</svg>
