<svg width="328" height="429" viewBox="0 0 328 429" fill="none" xmlns="http://www.w3.org/2000/svg">
<path d="M0.999989 38.831L166 32.0452" stroke="#FF731D" stroke-width="4.41964"/>
<path d="M6.71484 29.1479L156.785 41.4557" stroke="#FF731D" stroke-width="4.41964"/>
<path d="M2.20764 0.901555V17.7306H36.8268V0.901555H2.20764ZM14.8879 21.6373H1V27.6477H38.0344V21.6373H24.1465V18.9326H14.8879V21.6373ZM11.4662 6.91192H27.5682V11.7202H11.4662V6.91192Z" fill="white"/>
<path d="M68.628 15.9275V18.4819H50.5134V15.9275H41.2548V28.5492H77.8866V15.9275H68.628ZM54.3376 8.11399L55.1829 6.91192H65.0051V1.20207H41.2548V6.91192H45.7231L40.0069 15.0259H49.4668L53.2104 9.70674L56.7529 15.0259H66.2127L61.664 8.11399H54.3376ZM77.8866 0.300518H68.628V15.0259H77.8866V0.300518ZM50.5134 22.5389H68.628V24.1917H50.5134V22.5389Z" fill="white"/>
<path d="M91.5732 24.6425V23.7409H118.141V15.3264H81.5096V19.2332H108.078V20.1347H81.5096V28.5492H118.141V24.6425H91.5732ZM104.857 7.06218C104.857 2.46425 100.631 0 92.5796 0C84.5287 0 80.3019 2.46425 80.3019 7.06218C80.3019 11.6601 84.5287 14.1244 92.5796 14.1244C100.631 14.1244 104.857 11.6601 104.857 7.06218ZM118.141 0.300518H108.883V14.4249H118.141V0.300518ZM92.5796 9.01554C89.3592 9.01554 88.3529 8.2943 88.3529 7.06218C88.3529 5.83005 89.3592 5.10881 92.5796 5.10881C95.8 5.10881 96.8064 5.83005 96.8064 7.06218C96.8064 8.2943 95.8 9.01554 92.5796 9.01554Z" fill="white"/>
<path d="M158.396 0.300518H149.138V5.70984H145.515V1.20207H121.764V7.21244H126.514L120.959 16.829H130.419L133.841 10.9389L136.86 16.829H146.32L142.173 8.71503H135.129L135.974 7.21244H145.112V11.7202H149.138V17.1295H158.396V0.300518ZM159 23.3503C159 19.744 154.814 17.7005 140.684 17.7005C126.555 17.7005 122.368 19.744 122.368 23.3503C122.368 26.9565 126.555 29 140.684 29C154.814 29 159 26.9565 159 23.3503ZM149.741 23.3503C149.741 24.0415 148.816 24.4922 140.684 24.4922C132.553 24.4922 131.627 24.0415 131.627 23.3503C131.627 22.6591 132.553 22.2083 140.684 22.2083C148.816 22.2083 149.741 22.6591 149.741 23.3503Z" fill="white"/>
<circle cx="91" cy="192" r="89.5" stroke="white"/>
<circle cx="91" cy="339" r="89.5" stroke="white"/>
<circle cx="238" cy="192" r="89.5" stroke="white"/>
<circle cx="238" cy="339" r="89.5" stroke="white"/>
<rect x="40" y="231" width="102" height="74" fill="black"/>
<rect x="40" y="231" width="102" height="74" fill="black"/>
<rect x="121" y="141" width="102" height="102" fill="black"/>
<rect x="187" y="217" width="102" height="102" fill="black"/>
<rect x="110" y="288" width="102" height="102" fill="black"/>
<rect x="110" y="222" width="102" height="102" fill="black"/>
<path d="M55.8711 147.047C55.8776 148.193 56.0371 149.286 56.3496 150.328C56.6621 151.37 57.1406 152.294 57.7852 153.102C58.4362 153.902 59.237 154.508 60.1875 154.918L58.6641 156.91C57.7005 156.441 56.8802 155.787 56.2031 154.947C55.5326 154.101 55.0052 153.111 54.6211 151.979C54.224 153.189 53.6771 154.247 52.9805 155.152C52.2839 156.051 51.444 156.741 50.4609 157.223L48.8984 155.191C49.875 154.749 50.6953 154.104 51.3594 153.258C52.0299 152.411 52.528 151.454 52.8535 150.387C53.179 149.312 53.3451 148.199 53.3516 147.047V144.391H55.8711V147.047ZM58.1953 148.609H61.6914V143.023H64.1523V160.836H61.6914V150.621H58.1953V148.609ZM82.6875 155.406H78.9375V160.797H76.418V155.406H72.707V160.797H70.2266V155.406H66.418V153.453H82.6875V155.406ZM68.293 143.551H80.8125V148.727H70.8711V150.172H81.2227V152.164H68.3516V146.91H78.2539V145.582H68.293V143.551ZM103.312 152.75H100.832V149.039H98.0195V147.008H100.832V143.023H103.312V152.75ZM88.2344 151.109C89.1328 150.81 89.8945 150.39 90.5195 149.85C91.1445 149.303 91.6198 148.688 91.9453 148.004C92.2708 147.32 92.4564 146.604 92.502 145.855H88.9375V143.824H98.5859V145.855H95.0605C95.0996 146.539 95.2721 147.203 95.5781 147.848C95.8906 148.486 96.3464 149.062 96.9453 149.576C97.5443 150.09 98.2734 150.491 99.1328 150.777L97.9023 152.691C96.9453 152.379 96.1217 151.92 95.4316 151.314C94.748 150.709 94.2077 149.996 93.8105 149.176C93.4004 150.094 92.834 150.888 92.1113 151.559C91.3952 152.229 90.526 152.73 89.5039 153.062L88.2344 151.109ZM91.457 153.434H93.918V155.113H100.832V153.434H103.312V160.602H91.457V153.434ZM100.832 158.609V157.027H93.918V158.609H100.832ZM115.051 144.41C115.044 145.133 115.282 145.842 115.764 146.539C116.252 147.229 116.965 147.828 117.902 148.336C118.84 148.837 119.96 149.169 121.262 149.332L120.285 151.344C118.762 151.122 117.437 150.68 116.311 150.016C115.191 149.345 114.335 148.518 113.742 147.535C113.143 148.518 112.284 149.345 111.164 150.016C110.051 150.68 108.742 151.122 107.238 151.344L106.242 149.332C107.531 149.169 108.641 148.837 109.572 148.336C110.51 147.828 111.219 147.229 111.701 146.539C112.183 145.842 112.427 145.133 112.434 144.41V143.551H115.051V144.41ZM105.617 152.691H121.828V154.723H114.914V160.797H112.453V154.723H105.617V152.691Z" fill="white"/>
<path d="M181.742 145.816H185.062V143.043H187.543V155.973H185.062V151.617H181.742V153.121H173.305V144.469H181.742V145.816ZM175.707 154.742H178.227V158.492H187.914V160.484H175.707V154.742ZM179.301 151.188V146.441H175.785V151.188H179.301ZM185.062 149.645V147.828H181.742V149.645H185.062ZM204.828 152.75H202.348V149.039H199.535V147.008H202.348V143.023H204.828V152.75ZM189.75 151.109C190.648 150.81 191.41 150.39 192.035 149.85C192.66 149.303 193.135 148.688 193.461 148.004C193.786 147.32 193.972 146.604 194.018 145.855H190.453V143.824H200.102V145.855H196.576C196.615 146.539 196.788 147.203 197.094 147.848C197.406 148.486 197.862 149.062 198.461 149.576C199.06 150.09 199.789 150.491 200.648 150.777L199.418 152.691C198.461 152.379 197.637 151.92 196.947 151.314C196.264 150.709 195.723 149.996 195.326 149.176C194.916 150.094 194.35 150.888 193.627 151.559C192.911 152.229 192.042 152.73 191.02 153.062L189.75 151.109ZM192.973 153.434H195.434V155.113H202.348V153.434H204.828V160.602H192.973V153.434ZM202.348 158.609V157.027H195.434V158.609H202.348ZM216.801 143.551C217.693 143.551 218.5 143.723 219.223 144.068C219.945 144.413 220.512 144.895 220.922 145.514C221.339 146.132 221.547 146.832 221.547 147.613C221.547 148.388 221.339 149.081 220.922 149.693C220.512 150.305 219.945 150.787 219.223 151.139C218.5 151.484 217.693 151.656 216.801 151.656C215.896 151.656 215.079 151.484 214.35 151.139C213.62 150.787 213.048 150.305 212.631 149.693C212.221 149.081 212.016 148.388 212.016 147.613C212.016 146.832 212.221 146.132 212.631 145.514C213.048 144.895 213.62 144.413 214.35 144.068C215.079 143.723 215.896 143.551 216.801 143.551ZM214.438 147.613C214.431 148.03 214.529 148.391 214.73 148.697C214.932 148.997 215.212 149.228 215.57 149.391C215.928 149.553 216.339 149.638 216.801 149.645C217.25 149.638 217.65 149.553 218.002 149.391C218.36 149.228 218.64 148.997 218.842 148.697C219.044 148.391 219.145 148.03 219.145 147.613C219.145 147.197 219.044 146.835 218.842 146.529C218.64 146.223 218.36 145.989 218.002 145.826C217.65 145.663 217.25 145.582 216.801 145.582C216.345 145.582 215.935 145.663 215.57 145.826C215.212 145.989 214.932 146.223 214.73 146.529C214.529 146.835 214.431 147.197 214.438 147.613ZM214.691 152.672H226.625V157.496H217.172V158.648H227.113V160.602H214.73V155.68H224.145V154.586H214.691V152.672ZM224.125 143.023H226.625V151.93H224.125V143.023ZM244.008 153.57H241.527V149.371H238.754V147.359H241.527V143.023H244.008V153.57ZM228.91 151.617C229.841 151.305 230.626 150.859 231.264 150.279C231.902 149.7 232.38 149.049 232.699 148.326C233.018 147.604 233.188 146.858 233.207 146.09H229.633V144.098H239.281V146.09H235.746C235.766 146.806 235.925 147.496 236.225 148.16C236.524 148.818 236.977 149.41 237.582 149.938C238.194 150.465 238.943 150.875 239.828 151.168L238.598 153.121C237.647 152.815 236.827 152.359 236.137 151.754C235.453 151.142 234.913 150.426 234.516 149.605C234.112 150.536 233.549 151.347 232.826 152.037C232.104 152.721 231.228 153.238 230.199 153.59L228.91 151.617ZM231.82 157.398C231.82 156.689 232.064 156.077 232.553 155.562C233.048 155.042 233.754 154.645 234.672 154.371C235.59 154.098 236.677 153.961 237.934 153.961C239.197 153.961 240.287 154.098 241.205 154.371C242.123 154.645 242.829 155.038 243.324 155.553C243.819 156.067 244.066 156.682 244.066 157.398C244.066 158.115 243.819 158.727 243.324 159.234C242.829 159.749 242.123 160.139 241.205 160.406C240.287 160.68 239.197 160.816 237.934 160.816C236.677 160.816 235.59 160.68 234.672 160.406C233.754 160.139 233.048 159.749 232.553 159.234C232.064 158.72 231.82 158.108 231.82 157.398ZM234.301 157.398C234.301 157.9 234.61 158.281 235.229 158.541C235.847 158.795 236.749 158.922 237.934 158.922C239.125 158.922 240.03 158.795 240.648 158.541C241.267 158.287 241.579 157.906 241.586 157.398C241.579 156.897 241.27 156.52 240.658 156.266C240.053 156.005 239.167 155.875 238.002 155.875C235.535 155.875 234.301 156.383 234.301 157.398ZM265.023 148.121H267.426V150.191H265.023V155.973H262.523V143.023H265.023V148.121ZM251.039 148.688C251.039 147.822 251.254 147.047 251.684 146.363C252.113 145.673 252.699 145.136 253.441 144.752C254.19 144.368 255.017 144.176 255.922 144.176C256.82 144.176 257.637 144.368 258.373 144.752C259.115 145.136 259.698 145.673 260.121 146.363C260.551 147.047 260.766 147.822 260.766 148.688C260.766 149.54 260.551 150.312 260.121 151.002C259.698 151.686 259.115 152.223 258.373 152.613C257.637 153.004 256.82 153.199 255.922 153.199C255.017 153.199 254.19 153.004 253.441 152.613C252.699 152.223 252.113 151.686 251.684 151.002C251.254 150.312 251.039 149.54 251.039 148.688ZM253.5 154.605H255.98V158.492H265.668V160.484H253.5V154.605ZM253.5 148.688C253.493 149.156 253.594 149.57 253.803 149.928C254.018 150.279 254.311 150.553 254.682 150.748C255.053 150.937 255.466 151.031 255.922 151.031C256.378 151.031 256.788 150.937 257.152 150.748C257.523 150.553 257.813 150.279 258.021 149.928C258.236 149.57 258.344 149.156 258.344 148.688C258.344 148.206 258.236 147.789 258.021 147.438C257.813 147.079 257.523 146.806 257.152 146.617C256.788 146.428 256.378 146.337 255.922 146.344C255.466 146.337 255.053 146.428 254.682 146.617C254.311 146.806 254.018 147.079 253.803 147.438C253.594 147.789 253.493 148.206 253.5 148.688ZM283.539 160.797H281.137V151.91H279.477V159.938H277.133V143.316H279.477V149.898H281.137V143.023H283.539V160.797ZM268.93 144.996H271.43V154.283C273.096 154.238 274.665 154.072 276.137 153.785L276.391 155.934C274.288 156.298 272.204 156.474 270.141 156.461H268.93V144.996Z" fill="white"/>
<path d="M80.9219 292.816H84.2422V290.043H86.7227V302.973H84.2422V298.617H80.9219V300.121H72.4844V291.469H80.9219V292.816ZM74.8867 301.742H77.4062V305.492H87.0938V307.484H74.8867V301.742ZM78.4805 298.188V293.441H74.9648V298.188H78.4805ZM84.2422 296.645V294.828H80.9219V296.645H84.2422ZM104.008 299.75H101.527V296.039H98.7148V294.008H101.527V290.023H104.008V299.75ZM88.9297 298.109C89.8281 297.81 90.5898 297.39 91.2148 296.85C91.8398 296.303 92.3151 295.688 92.6406 295.004C92.9661 294.32 93.1517 293.604 93.1973 292.855H89.6328V290.824H99.2812V292.855H95.7559C95.7949 293.539 95.9674 294.203 96.2734 294.848C96.5859 295.486 97.0417 296.062 97.6406 296.576C98.2396 297.09 98.9688 297.491 99.8281 297.777L98.5977 299.691C97.6406 299.379 96.8171 298.92 96.127 298.314C95.4434 297.709 94.903 296.996 94.5059 296.176C94.0957 297.094 93.5293 297.888 92.8066 298.559C92.0905 299.229 91.2214 299.73 90.1992 300.062L88.9297 298.109ZM92.1523 300.434H94.6133V302.113H101.527V300.434H104.008V307.602H92.1523V300.434ZM101.527 305.609V304.027H94.6133V305.609H101.527Z" fill="white"/>
<path d="M207.281 302.309C208.863 302.211 210.302 302.068 211.598 301.879L211.793 303.695C210.055 304.027 208.284 304.242 206.48 304.34C204.684 304.438 202.698 304.49 200.523 304.496L200.23 302.484C201.949 302.484 203.473 302.465 204.801 302.426V299.633H207.281V302.309ZM200.582 298.305C201.871 297.96 202.864 297.416 203.561 296.674C204.264 295.925 204.658 295.076 204.742 294.125H201.148V292.113H204.801V290.18H207.281V292.113H210.953V294.125H207.32C207.379 294.717 207.571 295.277 207.896 295.805C208.222 296.326 208.688 296.788 209.293 297.191C209.898 297.595 210.634 297.901 211.5 298.109L210.367 300.043C209.352 299.789 208.479 299.392 207.75 298.852C207.027 298.305 206.458 297.65 206.041 296.889C205.644 297.689 205.084 298.373 204.361 298.939C203.645 299.506 202.776 299.919 201.754 300.18L200.582 298.305ZM212.613 290.023H215.094V307.836H212.613V290.023ZM226.754 298.52H233.648V300.531H217.438V298.52H224.293V296.391H226.754V298.52ZM218.141 295.453C219.202 295.355 220.123 295.173 220.904 294.906C221.692 294.633 222.317 294.311 222.779 293.939C223.248 293.562 223.561 293.161 223.717 292.738H218.922V290.785H232.184V292.738H227.35C227.499 293.161 227.809 293.562 228.277 293.939C228.746 294.311 229.374 294.633 230.162 294.906C230.95 295.173 231.878 295.355 232.945 295.453L232.066 297.406C230.426 297.243 229.046 296.876 227.926 296.303C226.806 295.723 226.005 294.994 225.523 294.115C225.042 294.994 224.244 295.723 223.131 296.303C222.024 296.876 220.654 297.243 219.02 297.406L218.141 295.453ZM219.293 304.652C219.293 303.982 219.54 303.412 220.035 302.943C220.53 302.475 221.243 302.12 222.174 301.879C223.111 301.632 224.228 301.508 225.523 301.508C226.812 301.508 227.919 301.632 228.844 301.879C229.768 302.12 230.475 302.475 230.963 302.943C231.458 303.412 231.708 303.982 231.715 304.652C231.708 305.323 231.458 305.893 230.963 306.361C230.475 306.837 229.768 307.195 228.844 307.436C227.919 307.676 226.812 307.797 225.523 307.797C224.228 307.797 223.111 307.676 222.174 307.436C221.243 307.195 220.53 306.837 220.035 306.361C219.54 305.893 219.293 305.323 219.293 304.652ZM221.832 304.652C221.826 305.089 222.128 305.414 222.74 305.629C223.352 305.837 224.28 305.941 225.523 305.941C227.978 305.941 229.208 305.512 229.215 304.652C229.208 303.819 227.978 303.402 225.523 303.402C224.273 303.402 223.342 303.507 222.73 303.715C222.125 303.917 221.826 304.229 221.832 304.652ZM242.34 292.934H245.973V290.824H248.473V298.578H239.859V290.824H242.34V292.934ZM241.637 299.73H253.434V304.555H244.117V305.707H253.941V307.68H241.676V302.777H250.953V301.664H241.637V299.73ZM245.973 296.625V294.809H242.34V296.625H245.973ZM250.934 290.023H253.434V293.48H255.836V295.492H253.434V299.066H250.934V290.023ZM272.887 305.824H256.617V303.832H260.66V300.453H257.965V298.441H260.348V293.441H257.887V291.449H271.52V293.441H269.02V298.441H271.441V300.453H268.766V303.832H272.887V305.824ZM266.559 298.441V293.441H262.848V298.441H266.559ZM266.266 303.832V300.453H263.16V303.832H266.266Z" fill="white"/>
<path d="M26.0088 199L25.9951 198.098L29.3721 194.543C30.5479 193.299 31.1084 192.629 31.1084 191.713C31.1084 190.701 30.2471 190.031 29.1396 190.031C27.9639 190.031 27.2119 190.783 27.2119 191.891H26.0498C26.0361 190.141 27.3896 188.965 29.1807 188.965C30.9717 188.965 32.2568 190.168 32.2568 191.713C32.2568 192.82 31.7373 193.682 29.9873 195.486L27.7178 197.824V197.906H32.4346V199H26.0088ZM37.4658 199.137C35.2646 199.137 34.0068 197.291 34.0068 194.051C34.0068 190.838 35.292 188.965 37.4658 188.965C39.6396 188.965 40.9248 190.838 40.9248 194.051C40.9248 197.291 39.6533 199.137 37.4658 199.137ZM37.4658 198.043C38.8877 198.043 39.7217 196.607 39.7217 194.051C39.7217 191.494 38.8877 190.031 37.4658 190.031C36.0439 190.031 35.1963 191.494 35.1963 194.051C35.1963 196.607 36.0303 198.043 37.4658 198.043ZM42.5654 199L42.5518 198.098L45.9287 194.543C47.1045 193.299 47.665 192.629 47.665 191.713C47.665 190.701 46.8037 190.031 45.6963 190.031C44.5205 190.031 43.7686 190.783 43.7686 191.891H42.6064C42.5928 190.141 43.9463 188.965 45.7373 188.965C47.5283 188.965 48.8135 190.168 48.8135 191.713C48.8135 192.82 48.2939 193.682 46.5439 195.486L44.2744 197.824V197.906H48.9912V199H42.5654ZM54.2002 199.137C52.2314 199.137 50.8232 198.084 50.7549 196.512H51.999C52.0674 197.455 53.0107 198.043 54.1865 198.043C55.4854 198.043 56.4424 197.332 56.4424 196.307C56.4424 195.227 55.5811 194.461 54.0361 194.461H53.2295V193.381H54.0361C55.2393 193.381 56.0732 192.711 56.0732 191.686C56.0732 190.701 55.3486 190.031 54.2275 190.031C53.1748 190.031 52.2041 190.619 52.1494 191.59H50.96C51.0283 190.018 52.4775 188.965 54.2412 188.965C56.1279 188.965 57.2764 190.195 57.2627 191.617C57.2764 192.738 56.6201 193.572 55.5811 193.859V193.928C56.8662 194.133 57.6592 195.049 57.6455 196.307C57.6592 197.934 56.1689 199.137 54.2002 199.137ZM69.0615 187.967V196.963H67.9814V192.752H64.4814V191.891H67.9814V190.428H64.4814V189.566H67.9814V187.967H69.0615ZM69.3896 198.945V199.848H61.2275V196.197H62.3076V198.945H69.3896ZM60.79 188.842V194.242C62.4648 194.235 64.0781 194.146 65.9307 193.805L66.04 194.693C64.0576 195.062 62.4033 195.145 60.626 195.158H59.71V188.842H60.79ZM78.5361 189.102V199H77.292V190.387H77.2373L74.8311 191.986V190.742L77.292 189.102H78.5361ZM84.415 199.137C82.2139 199.137 80.9561 197.291 80.9561 194.051C80.9561 190.838 82.2412 188.965 84.415 188.965C86.5889 188.965 87.874 190.838 87.874 194.051C87.874 197.291 86.6025 199.137 84.415 199.137ZM84.415 198.043C85.8369 198.043 86.6709 196.607 86.6709 194.051C86.6709 191.494 85.8369 190.031 84.415 190.031C82.9932 190.031 82.1455 191.494 82.1455 194.051C82.1455 196.607 82.9795 198.043 84.415 198.043ZM99.0986 187.967V195.131H98.0186V194.461H95.5576V193.75H98.0186V187.967H99.0986ZM89.0361 192.547C91.3877 192.561 94.3955 192.533 97.0205 192.246L97.0889 192.943C95.8994 193.114 94.6621 193.217 93.4521 193.271V195.172H92.3994V193.312C91.251 193.354 90.1504 193.36 89.1592 193.354L89.0361 192.547ZM99.0986 195.568V198.084H92.0029V199.178H99.4951V199.971H90.9502V197.332H98.0322V196.348H90.8955V195.568H99.0986ZM93.001 188.199C94.8057 188.199 96.0088 188.91 96.0225 190.031C96.0088 191.166 94.8057 191.85 93.001 191.85C91.1689 191.85 89.9795 191.166 89.9795 190.031C89.9795 188.91 91.1689 188.199 93.001 188.199ZM93.001 188.951C91.7705 188.951 90.9775 189.375 90.9912 190.031C90.9775 190.674 91.7705 191.111 93.001 191.111C94.2178 191.111 95.0107 190.674 95.0107 190.031C95.0107 189.375 94.2178 188.951 93.001 188.951ZM108.546 199.137C106.577 199.137 105.169 198.084 105.101 196.512H106.345C106.413 197.455 107.356 198.043 108.532 198.043C109.831 198.043 110.788 197.332 110.788 196.307C110.788 195.227 109.927 194.461 108.382 194.461H107.575V193.381H108.382C109.585 193.381 110.419 192.711 110.419 191.686C110.419 190.701 109.694 190.031 108.573 190.031C107.521 190.031 106.55 190.619 106.495 191.59H105.306C105.374 190.018 106.823 188.965 108.587 188.965C110.474 188.965 111.622 190.195 111.608 191.617C111.622 192.738 110.966 193.572 109.927 193.859V193.928C111.212 194.133 112.005 195.049 111.991 196.307C112.005 197.934 110.515 199.137 108.546 199.137ZM117.009 199.137C114.808 199.137 113.55 197.291 113.55 194.051C113.55 190.838 114.835 188.965 117.009 188.965C119.183 188.965 120.468 190.838 120.468 194.051C120.468 197.291 119.196 199.137 117.009 199.137ZM117.009 198.043C118.431 198.043 119.265 196.607 119.265 194.051C119.265 191.494 118.431 190.031 117.009 190.031C115.587 190.031 114.739 191.494 114.739 194.051C114.739 196.607 115.573 198.043 117.009 198.043ZM125.116 188.404C126.935 188.418 128.261 189.512 128.261 191.098C128.261 192.684 126.935 193.777 125.116 193.777C123.271 193.777 121.958 192.684 121.958 191.098C121.958 189.512 123.271 188.418 125.116 188.404ZM125.116 189.307C123.899 189.307 122.997 190.045 123.011 191.098C122.997 192.164 123.899 192.902 125.116 192.902C126.319 192.902 127.222 192.164 127.222 191.098C127.222 190.045 126.319 189.307 125.116 189.307ZM131.706 187.953V194.201H130.64V187.953H131.706ZM131.706 194.789V197.715H124.884V199.082H132.144V199.943H123.831V196.908H130.64V195.65H123.804V194.789H131.706ZM134.522 195.227C134.536 192.643 135.233 190.496 136.491 188.678H137.53C136.601 190.031 135.739 192.793 135.739 195.227C135.739 197.66 136.601 200.436 137.53 201.789H136.491C135.233 199.957 134.536 197.811 134.522 195.227ZM148.563 187.967V195.131H147.483V194.461H145.022V193.75H147.483V187.967H148.563ZM138.501 192.547C140.853 192.561 143.86 192.533 146.485 192.246L146.554 192.943C145.364 193.114 144.127 193.217 142.917 193.271V195.172H141.864V193.312C140.716 193.354 139.615 193.36 138.624 193.354L138.501 192.547ZM148.563 195.568V198.084H141.468V199.178H148.96V199.971H140.415V197.332H147.497V196.348H140.36V195.568H148.563ZM142.466 188.199C144.271 188.199 145.474 188.91 145.487 190.031C145.474 191.166 144.271 191.85 142.466 191.85C140.634 191.85 139.444 191.166 139.444 190.031C139.444 188.91 140.634 188.199 142.466 188.199ZM142.466 188.951C141.235 188.951 140.442 189.375 140.456 190.031C140.442 190.674 141.235 191.111 142.466 191.111C143.683 191.111 144.476 190.674 144.476 190.031C144.476 189.375 143.683 188.951 142.466 188.951ZM153.677 195.227C153.663 197.811 152.966 199.957 151.708 201.789H150.669C151.599 200.436 152.46 197.66 152.46 195.227C152.46 192.793 151.599 190.031 150.669 188.678H151.708C152.966 190.496 153.663 192.643 153.677 195.227ZM23.7119 211.939C24.1494 211.434 24.6963 211.16 25.2979 211.16C26.3369 211.16 27.2803 211.953 28.2783 211.953C28.8936 211.953 29.4268 211.652 29.8369 211.092V212.227C29.3857 212.746 28.8525 213.006 28.251 213.006C27.2119 213.006 26.2686 212.213 25.2568 212.213C24.6553 212.213 24.1221 212.514 23.7119 213.074V211.939ZM35.6064 216L35.5928 215.098L38.9697 211.543C40.1455 210.299 40.7061 209.629 40.7061 208.713C40.7061 207.701 39.8447 207.031 38.7373 207.031C37.5615 207.031 36.8096 207.783 36.8096 208.891H35.6475C35.6338 207.141 36.9873 205.965 38.7783 205.965C40.5693 205.965 41.8545 207.168 41.8545 208.713C41.8545 209.82 41.335 210.682 39.585 212.486L37.3154 214.824V214.906H42.0322V216H35.6064ZM47.0635 216.137C44.8623 216.137 43.6045 214.291 43.6045 211.051C43.6045 207.838 44.8896 205.965 47.0635 205.965C49.2373 205.965 50.5225 207.838 50.5225 211.051C50.5225 214.291 49.251 216.137 47.0635 216.137ZM47.0635 215.043C48.4854 215.043 49.3193 213.607 49.3193 211.051C49.3193 208.494 48.4854 207.031 47.0635 207.031C45.6416 207.031 44.7939 208.494 44.7939 211.051C44.7939 213.607 45.6279 215.043 47.0635 215.043ZM52.1631 216L52.1494 215.098L55.5264 211.543C56.7021 210.299 57.2627 209.629 57.2627 208.713C57.2627 207.701 56.4014 207.031 55.2939 207.031C54.1182 207.031 53.3662 207.783 53.3662 208.891H52.2041C52.1904 207.141 53.5439 205.965 55.335 205.965C57.126 205.965 58.4111 207.168 58.4111 208.713C58.4111 209.82 57.8916 210.682 56.1416 212.486L53.8721 214.824V214.906H58.5889V216H52.1631ZM63.7979 216.137C61.8291 216.137 60.4209 215.084 60.3525 213.512H61.5967C61.665 214.455 62.6084 215.043 63.7842 215.043C65.083 215.043 66.04 214.332 66.04 213.307C66.04 212.227 65.1787 211.461 63.6338 211.461H62.8271V210.381H63.6338C64.8369 210.381 65.6709 209.711 65.6709 208.686C65.6709 207.701 64.9463 207.031 63.8252 207.031C62.7725 207.031 61.8018 207.619 61.7471 208.59H60.5576C60.626 207.018 62.0752 205.965 63.8389 205.965C65.7256 205.965 66.874 207.195 66.8604 208.617C66.874 209.738 66.2178 210.572 65.1787 210.859V210.928C66.4639 211.133 67.2568 212.049 67.2432 213.307C67.2568 214.934 65.7666 216.137 63.7979 216.137ZM78.6592 204.967V213.963H77.5791V209.752H74.0791V208.891H77.5791V207.428H74.0791V206.566H77.5791V204.967H78.6592ZM78.9873 215.945V216.848H70.8252V213.197H71.9053V215.945H78.9873ZM70.3877 205.842V211.242C72.0625 211.235 73.6758 211.146 75.5283 210.805L75.6377 211.693C73.6553 212.062 72.001 212.145 70.2236 212.158H69.3076V205.842H70.3877ZM88.1338 206.102V216H86.8896V207.387H86.835L84.4287 208.986V207.742L86.8896 206.102H88.1338ZM94.2725 206.102V216H93.0283V207.387H92.9736L90.5674 208.986V207.742L93.0283 206.102H94.2725ZM106.495 204.967V212.131H105.415V211.461H102.954V210.75H105.415V204.967H106.495ZM96.4326 209.547C98.7842 209.561 101.792 209.533 104.417 209.246L104.485 209.943C103.296 210.114 102.059 210.217 100.849 210.271V212.172H99.7959V210.312C98.6475 210.354 97.5469 210.36 96.5557 210.354L96.4326 209.547ZM106.495 212.568V215.084H99.3994V216.178H106.892V216.971H98.3467V214.332H105.429V213.348H98.292V212.568H106.495ZM100.397 205.199C102.202 205.199 103.405 205.91 103.419 207.031C103.405 208.166 102.202 208.85 100.397 208.85C98.5654 208.85 97.376 208.166 97.376 207.031C97.376 205.91 98.5654 205.199 100.397 205.199ZM100.397 205.951C99.167 205.951 98.374 206.375 98.3877 207.031C98.374 207.674 99.167 208.111 100.397 208.111C101.614 208.111 102.407 207.674 102.407 207.031C102.407 206.375 101.614 205.951 100.397 205.951ZM116.024 206.102V216H114.78V207.387H114.726L112.319 208.986V207.742L114.78 206.102H116.024ZM122.163 206.102V216H120.919V207.387H120.864L118.458 208.986V207.742L120.919 206.102H122.163ZM127.81 205.404C129.628 205.418 130.954 206.512 130.954 208.098C130.954 209.684 129.628 210.777 127.81 210.777C125.964 210.777 124.651 209.684 124.651 208.098C124.651 206.512 125.964 205.418 127.81 205.404ZM127.81 206.307C126.593 206.307 125.69 207.045 125.704 208.098C125.69 209.164 126.593 209.902 127.81 209.902C129.013 209.902 129.915 209.164 129.915 208.098C129.915 207.045 129.013 206.307 127.81 206.307ZM134.399 204.953V211.201H133.333V204.953H134.399ZM134.399 211.789V214.715H127.577V216.082H134.837V216.943H126.524V213.908H133.333V212.65H126.497V211.789H134.399ZM137.216 212.227C137.229 209.643 137.927 207.496 139.185 205.678H140.224C139.294 207.031 138.433 209.793 138.433 212.227C138.433 214.66 139.294 217.436 140.224 218.789H139.185C137.927 216.957 137.229 214.811 137.216 212.227ZM151.079 211.283V212.158H147.306V214.701H152.364V215.59H141.235V214.701H146.239V212.158H142.671V205.951H150.942V206.84H143.765V208.576H150.683V209.451H143.765V211.283H151.079ZM156.37 212.227C156.356 214.811 155.659 216.957 154.401 218.789H153.362C154.292 217.436 155.153 214.66 155.153 212.227C155.153 209.793 154.292 207.031 153.362 205.678H154.401C155.659 207.496 156.356 209.643 156.37 212.227Z" fill="white"/>
<path d="M175.93 205L175.916 204.098L179.293 200.543C180.469 199.299 181.029 198.629 181.029 197.713C181.029 196.701 180.168 196.031 179.061 196.031C177.885 196.031 177.133 196.783 177.133 197.891H175.971C175.957 196.141 177.311 194.965 179.102 194.965C180.893 194.965 182.178 196.168 182.178 197.713C182.178 198.82 181.658 199.682 179.908 201.486L177.639 203.824V203.906H182.355V205H175.93ZM187.387 205.137C185.186 205.137 183.928 203.291 183.928 200.051C183.928 196.838 185.213 194.965 187.387 194.965C189.561 194.965 190.846 196.838 190.846 200.051C190.846 203.291 189.574 205.137 187.387 205.137ZM187.387 204.043C188.809 204.043 189.643 202.607 189.643 200.051C189.643 197.494 188.809 196.031 187.387 196.031C185.965 196.031 185.117 197.494 185.117 200.051C185.117 202.607 185.951 204.043 187.387 204.043ZM192.486 205L192.473 204.098L195.85 200.543C197.025 199.299 197.586 198.629 197.586 197.713C197.586 196.701 196.725 196.031 195.617 196.031C194.441 196.031 193.689 196.783 193.689 197.891H192.527C192.514 196.141 193.867 194.965 195.658 194.965C197.449 194.965 198.734 196.168 198.734 197.713C198.734 198.82 198.215 199.682 196.465 201.486L194.195 203.824V203.906H198.912V205H192.486ZM204.121 205.137C202.152 205.137 200.744 204.084 200.676 202.512H201.92C201.988 203.455 202.932 204.043 204.107 204.043C205.406 204.043 206.363 203.332 206.363 202.307C206.363 201.227 205.502 200.461 203.957 200.461H203.15V199.381H203.957C205.16 199.381 205.994 198.711 205.994 197.686C205.994 196.701 205.27 196.031 204.148 196.031C203.096 196.031 202.125 196.619 202.07 197.59H200.881C200.949 196.018 202.398 194.965 204.162 194.965C206.049 194.965 207.197 196.195 207.184 197.617C207.197 198.738 206.541 199.572 205.502 199.859V199.928C206.787 200.133 207.58 201.049 207.566 202.307C207.58 203.934 206.09 205.137 204.121 205.137ZM218.982 193.967V202.963H217.902V198.752H214.402V197.891H217.902V196.428H214.402V195.566H217.902V193.967H218.982ZM219.311 204.945V205.848H211.148V202.197H212.229V204.945H219.311ZM210.711 194.842V200.242C212.386 200.235 213.999 200.146 215.852 199.805L215.961 200.693C213.979 201.062 212.324 201.145 210.547 201.158H209.631V194.842H210.711ZM228.457 195.102V205H227.213V196.387H227.158L224.752 197.986V196.742L227.213 195.102H228.457ZM234.596 195.102V205H233.352V196.387H233.297L230.891 197.986V196.742L233.352 195.102H234.596ZM246.818 193.967V201.131H245.738V200.461H243.277V199.75H245.738V193.967H246.818ZM236.756 198.547C239.107 198.561 242.115 198.533 244.74 198.246L244.809 198.943C243.619 199.114 242.382 199.217 241.172 199.271V201.172H240.119V199.312C238.971 199.354 237.87 199.36 236.879 199.354L236.756 198.547ZM246.818 201.568V204.084H239.723V205.178H247.215V205.971H238.67V203.332H245.752V202.348H238.615V201.568H246.818ZM240.721 194.199C242.525 194.199 243.729 194.91 243.742 196.031C243.729 197.166 242.525 197.85 240.721 197.85C238.889 197.85 237.699 197.166 237.699 196.031C237.699 194.91 238.889 194.199 240.721 194.199ZM240.721 194.951C239.49 194.951 238.697 195.375 238.711 196.031C238.697 196.674 239.49 197.111 240.721 197.111C241.938 197.111 242.73 196.674 242.73 196.031C242.73 195.375 241.938 194.951 240.721 194.951ZM256.348 195.102V205H255.104V196.387H255.049L252.643 197.986V196.742L255.104 195.102H256.348ZM258.986 205L258.973 204.098L262.35 200.543C263.525 199.299 264.086 198.629 264.086 197.713C264.086 196.701 263.225 196.031 262.117 196.031C260.941 196.031 260.189 196.783 260.189 197.891H259.027C259.014 196.141 260.367 194.965 262.158 194.965C263.949 194.965 265.234 196.168 265.234 197.713C265.234 198.82 264.715 199.682 262.965 201.486L260.695 203.824V203.906H265.412V205H258.986ZM270.211 194.404C272.029 194.418 273.355 195.512 273.355 197.098C273.355 198.684 272.029 199.777 270.211 199.777C268.365 199.777 267.053 198.684 267.053 197.098C267.053 195.512 268.365 194.418 270.211 194.404ZM270.211 195.307C268.994 195.307 268.092 196.045 268.105 197.098C268.092 198.164 268.994 198.902 270.211 198.902C271.414 198.902 272.316 198.164 272.316 197.098C272.316 196.045 271.414 195.307 270.211 195.307ZM276.801 193.953V200.201H275.734V193.953H276.801ZM276.801 200.789V203.715H269.979V205.082H277.238V205.943H268.926V202.908H275.734V201.65H268.898V200.789H276.801ZM279.617 201.227C279.631 198.643 280.328 196.496 281.586 194.678H282.625C281.695 196.031 280.834 198.793 280.834 201.227C280.834 203.66 281.695 206.436 282.625 207.789H281.586C280.328 205.957 279.631 203.811 279.617 201.227ZM287.082 194.404C288.9 194.418 290.227 195.512 290.227 197.098C290.227 198.684 288.9 199.777 287.082 199.777C285.236 199.777 283.924 198.684 283.924 197.098C283.924 195.512 285.236 194.418 287.082 194.404ZM287.082 195.307C285.865 195.307 284.963 196.045 284.977 197.098C284.963 198.164 285.865 198.902 287.082 198.902C288.285 198.902 289.188 198.164 289.188 197.098C289.188 196.045 288.285 195.307 287.082 195.307ZM293.672 193.953V200.201H292.605V193.953H293.672ZM293.672 200.789V203.715H286.85V205.082H294.109V205.943H285.797V202.908H292.605V201.65H285.77V200.789H293.672ZM298.771 201.227C298.758 203.811 298.061 205.957 296.803 207.789H295.764C296.693 206.436 297.555 203.66 297.555 201.227C297.555 198.793 296.693 196.031 295.764 194.678H296.803C298.061 196.496 298.758 198.643 298.771 201.227Z" fill="white"/>
<path d="M28.71 346L28.6963 345.098L32.0732 341.543C33.249 340.299 33.8096 339.629 33.8096 338.713C33.8096 337.701 32.9482 337.031 31.8408 337.031C30.665 337.031 29.9131 337.783 29.9131 338.891H28.751C28.7373 337.141 30.0908 335.965 31.8818 335.965C33.6729 335.965 34.958 337.168 34.958 338.713C34.958 339.82 34.4385 340.682 32.6885 342.486L30.4189 344.824V344.906H35.1357V346H28.71ZM40.167 346.137C37.9658 346.137 36.708 344.291 36.708 341.051C36.708 337.838 37.9932 335.965 40.167 335.965C42.3408 335.965 43.626 337.838 43.626 341.051C43.626 344.291 42.3545 346.137 40.167 346.137ZM40.167 345.043C41.5889 345.043 42.4229 343.607 42.4229 341.051C42.4229 338.494 41.5889 337.031 40.167 337.031C38.7451 337.031 37.8975 338.494 37.8975 341.051C37.8975 343.607 38.7314 345.043 40.167 345.043ZM45.2666 346L45.2529 345.098L48.6299 341.543C49.8057 340.299 50.3662 339.629 50.3662 338.713C50.3662 337.701 49.5049 337.031 48.3975 337.031C47.2217 337.031 46.4697 337.783 46.4697 338.891H45.3076C45.2939 337.141 46.6475 335.965 48.4385 335.965C50.2295 335.965 51.5146 337.168 51.5146 338.713C51.5146 339.82 50.9951 340.682 49.2451 342.486L46.9756 344.824V344.906H51.6924V346H45.2666ZM56.9014 346.137C54.9326 346.137 53.5244 345.084 53.4561 343.512H54.7002C54.7686 344.455 55.7119 345.043 56.8877 345.043C58.1865 345.043 59.1436 344.332 59.1436 343.307C59.1436 342.227 58.2822 341.461 56.7373 341.461H55.9307V340.381H56.7373C57.9404 340.381 58.7744 339.711 58.7744 338.686C58.7744 337.701 58.0498 337.031 56.9287 337.031C55.876 337.031 54.9053 337.619 54.8506 338.59H53.6611C53.7295 337.018 55.1787 335.965 56.9424 335.965C58.8291 335.965 59.9775 337.195 59.9639 338.617C59.9775 339.738 59.3213 340.572 58.2822 340.859V340.928C59.5674 341.133 60.3604 342.049 60.3467 343.307C60.3604 344.934 58.8701 346.137 56.9014 346.137ZM71.7627 334.967V343.963H70.6826V339.752H67.1826V338.891H70.6826V337.428H67.1826V336.566H70.6826V334.967H71.7627ZM72.0908 345.945V346.848H63.9287V343.197H65.0088V345.945H72.0908ZM63.4912 335.842V341.242C65.166 341.235 66.7793 341.146 68.6318 340.805L68.7412 341.693C66.7588 342.062 65.1045 342.145 63.3271 342.158H62.4111V335.842H63.4912ZM81.2373 336.102V346H79.9932V337.387H79.9385L77.5322 338.986V337.742L79.9932 336.102H81.2373ZM87.376 336.102V346H86.1318V337.387H86.0771L83.6709 338.986V337.742L86.1318 336.102H87.376ZM99.5986 334.967V342.131H98.5186V341.461H96.0576V340.75H98.5186V334.967H99.5986ZM89.5361 339.547C91.8877 339.561 94.8955 339.533 97.5205 339.246L97.5889 339.943C96.3994 340.114 95.1621 340.217 93.9521 340.271V342.172H92.8994V340.312C91.751 340.354 90.6504 340.36 89.6592 340.354L89.5361 339.547ZM99.5986 342.568V345.084H92.5029V346.178H99.9951V346.971H91.4502V344.332H98.5322V343.348H91.3955V342.568H99.5986ZM93.501 335.199C95.3057 335.199 96.5088 335.91 96.5225 337.031C96.5088 338.166 95.3057 338.85 93.501 338.85C91.6689 338.85 90.4795 338.166 90.4795 337.031C90.4795 335.91 91.6689 335.199 93.501 335.199ZM93.501 335.951C92.2705 335.951 91.4775 336.375 91.4912 337.031C91.4775 337.674 92.2705 338.111 93.501 338.111C94.7178 338.111 95.5107 337.674 95.5107 337.031C95.5107 336.375 94.7178 335.951 93.501 335.951ZM109.128 336.102V346H107.884V337.387H107.829L105.423 338.986V337.742L107.884 336.102H109.128ZM115.185 346.137C113.216 346.137 111.808 345.084 111.739 343.512H112.983C113.052 344.455 113.995 345.043 115.171 345.043C116.47 345.043 117.427 344.332 117.427 343.307C117.427 342.227 116.565 341.461 115.021 341.461H114.214V340.381H115.021C116.224 340.381 117.058 339.711 117.058 338.686C117.058 337.701 116.333 337.031 115.212 337.031C114.159 337.031 113.188 337.619 113.134 338.59H111.944C112.013 337.018 113.462 335.965 115.226 335.965C117.112 335.965 118.261 337.195 118.247 338.617C118.261 339.738 117.604 340.572 116.565 340.859V340.928C117.851 341.133 118.644 342.049 118.63 343.307C118.644 344.934 117.153 346.137 115.185 346.137ZM123.415 335.404C125.233 335.418 126.56 336.512 126.56 338.098C126.56 339.684 125.233 340.777 123.415 340.777C121.569 340.777 120.257 339.684 120.257 338.098C120.257 336.512 121.569 335.418 123.415 335.404ZM123.415 336.307C122.198 336.307 121.296 337.045 121.31 338.098C121.296 339.164 122.198 339.902 123.415 339.902C124.618 339.902 125.521 339.164 125.521 338.098C125.521 337.045 124.618 336.307 123.415 336.307ZM130.005 334.953V341.201H128.938V334.953H130.005ZM130.005 341.789V344.715H123.183V346.082H130.442V346.943H122.13V343.908H128.938V342.65H122.103V341.789H130.005ZM132.821 342.227C132.835 339.643 133.532 337.496 134.79 335.678H135.829C134.899 337.031 134.038 339.793 134.038 342.227C134.038 344.66 134.899 347.436 135.829 348.789H134.79C133.532 346.957 132.835 344.811 132.821 342.227ZM146.862 334.967V342.131H145.782V341.461H143.321V340.75H145.782V334.967H146.862ZM136.8 339.547C139.151 339.561 142.159 339.533 144.784 339.246L144.853 339.943C143.663 340.114 142.426 340.217 141.216 340.271V342.172H140.163V340.312C139.015 340.354 137.914 340.36 136.923 340.354L136.8 339.547ZM146.862 342.568V345.084H139.767V346.178H147.259V346.971H138.714V344.332H145.796V343.348H138.659V342.568H146.862ZM140.765 335.199C142.569 335.199 143.772 335.91 143.786 337.031C143.772 338.166 142.569 338.85 140.765 338.85C138.933 338.85 137.743 338.166 137.743 337.031C137.743 335.91 138.933 335.199 140.765 335.199ZM140.765 335.951C139.534 335.951 138.741 336.375 138.755 337.031C138.741 337.674 139.534 338.111 140.765 338.111C141.981 338.111 142.774 337.674 142.774 337.031C142.774 336.375 141.981 335.951 140.765 335.951ZM151.976 342.227C151.962 344.811 151.265 346.957 150.007 348.789H148.968C149.897 347.436 150.759 344.66 150.759 342.227C150.759 339.793 149.897 337.031 148.968 335.678H150.007C151.265 337.496 151.962 339.643 151.976 342.227ZM23.4189 358.939C23.8564 358.434 24.4033 358.16 25.0049 358.16C26.0439 358.16 26.9873 358.953 27.9854 358.953C28.6006 358.953 29.1338 358.652 29.5439 358.092V359.227C29.0928 359.746 28.5596 360.006 27.958 360.006C26.9189 360.006 25.9756 359.213 24.9639 359.213C24.3623 359.213 23.8291 359.514 23.4189 360.074V358.939ZM35.3135 363L35.2998 362.098L38.6768 358.543C39.8525 357.299 40.4131 356.629 40.4131 355.713C40.4131 354.701 39.5518 354.031 38.4443 354.031C37.2686 354.031 36.5166 354.783 36.5166 355.891H35.3545C35.3408 354.141 36.6943 352.965 38.4854 352.965C40.2764 352.965 41.5615 354.168 41.5615 355.713C41.5615 356.82 41.042 357.682 39.292 359.486L37.0225 361.824V361.906H41.7393V363H35.3135ZM46.7705 363.137C44.5693 363.137 43.3115 361.291 43.3115 358.051C43.3115 354.838 44.5967 352.965 46.7705 352.965C48.9443 352.965 50.2295 354.838 50.2295 358.051C50.2295 361.291 48.958 363.137 46.7705 363.137ZM46.7705 362.043C48.1924 362.043 49.0264 360.607 49.0264 358.051C49.0264 355.494 48.1924 354.031 46.7705 354.031C45.3486 354.031 44.501 355.494 44.501 358.051C44.501 360.607 45.335 362.043 46.7705 362.043ZM51.8701 363L51.8564 362.098L55.2334 358.543C56.4092 357.299 56.9697 356.629 56.9697 355.713C56.9697 354.701 56.1084 354.031 55.001 354.031C53.8252 354.031 53.0732 354.783 53.0732 355.891H51.9111C51.8975 354.141 53.251 352.965 55.042 352.965C56.833 352.965 58.1182 354.168 58.1182 355.713C58.1182 356.82 57.5986 357.682 55.8486 359.486L53.5791 361.824V361.906H58.2959V363H51.8701ZM63.5049 363.137C61.5361 363.137 60.1279 362.084 60.0596 360.512H61.3037C61.3721 361.455 62.3154 362.043 63.4912 362.043C64.79 362.043 65.7471 361.332 65.7471 360.307C65.7471 359.227 64.8857 358.461 63.3408 358.461H62.5342V357.381H63.3408C64.5439 357.381 65.3779 356.711 65.3779 355.686C65.3779 354.701 64.6533 354.031 63.5322 354.031C62.4795 354.031 61.5088 354.619 61.4541 355.59H60.2646C60.333 354.018 61.7822 352.965 63.5459 352.965C65.4326 352.965 66.5811 354.195 66.5674 355.617C66.5811 356.738 65.9248 357.572 64.8857 357.859V357.928C66.1709 358.133 66.9639 359.049 66.9502 360.307C66.9639 361.934 65.4736 363.137 63.5049 363.137ZM78.3662 351.967V360.963H77.2861V356.752H73.7861V355.891H77.2861V354.428H73.7861V353.566H77.2861V351.967H78.3662ZM78.6943 362.945V363.848H70.5322V360.197H71.6123V362.945H78.6943ZM70.0947 352.842V358.242C71.7695 358.235 73.3828 358.146 75.2354 357.805L75.3447 358.693C73.3623 359.062 71.708 359.145 69.9307 359.158H69.0146V352.842H70.0947ZM87.8408 353.102V363H86.5967V354.387H86.542L84.1357 355.986V354.742L86.5967 353.102H87.8408ZM93.9795 353.102V363H92.7354V354.387H92.6807L90.2744 355.986V354.742L92.7354 353.102H93.9795ZM106.202 351.967V359.131H105.122V358.461H102.661V357.75H105.122V351.967H106.202ZM96.1396 356.547C98.4912 356.561 101.499 356.533 104.124 356.246L104.192 356.943C103.003 357.114 101.766 357.217 100.556 357.271V359.172H99.5029V357.312C98.3545 357.354 97.2539 357.36 96.2627 357.354L96.1396 356.547ZM106.202 359.568V362.084H99.1064V363.178H106.599V363.971H98.0537V361.332H105.136V360.348H97.999V359.568H106.202ZM100.104 352.199C101.909 352.199 103.112 352.91 103.126 354.031C103.112 355.166 101.909 355.85 100.104 355.85C98.2725 355.85 97.083 355.166 97.083 354.031C97.083 352.91 98.2725 352.199 100.104 352.199ZM100.104 352.951C98.874 352.951 98.0811 353.375 98.0947 354.031C98.0811 354.674 98.874 355.111 100.104 355.111C101.321 355.111 102.114 354.674 102.114 354.031C102.114 353.375 101.321 352.951 100.104 352.951ZM115.731 353.102V363H114.487V354.387H114.433L112.026 355.986V354.742L114.487 353.102H115.731ZM118.685 363L123.224 354.264V354.195H117.987V353.102H124.495V354.25L119.97 363H118.685ZM129.103 352.404C130.921 352.418 132.247 353.512 132.247 355.098C132.247 356.684 130.921 357.777 129.103 357.777C127.257 357.777 125.944 356.684 125.944 355.098C125.944 353.512 127.257 352.418 129.103 352.404ZM129.103 353.307C127.886 353.307 126.983 354.045 126.997 355.098C126.983 356.164 127.886 356.902 129.103 356.902C130.306 356.902 131.208 356.164 131.208 355.098C131.208 354.045 130.306 353.307 129.103 353.307ZM135.692 351.953V358.201H134.626V351.953H135.692ZM135.692 358.789V361.715H128.87V363.082H136.13V363.943H127.817V360.908H134.626V359.65H127.79V358.789H135.692ZM138.509 359.227C138.522 356.643 139.22 354.496 140.478 352.678H141.517C140.587 354.031 139.726 356.793 139.726 359.227C139.726 361.66 140.587 364.436 141.517 365.789H140.478C139.22 363.957 138.522 361.811 138.509 359.227ZM152.194 352.609V353.512C152.194 354.455 152.194 355.562 151.88 357.08H153.657V357.969H142.528V357.08H150.8C151.128 355.556 151.128 354.455 151.128 353.512V353.498H143.937V352.609H152.194ZM152.249 359.65V363.943H143.896V359.65H152.249ZM144.962 360.498V363.068H151.183V360.498H144.962ZM157.663 359.227C157.649 361.811 156.952 363.957 155.694 365.789H154.655C155.585 364.436 156.446 361.66 156.446 359.227C156.446 356.793 155.585 354.031 154.655 352.678H155.694C156.952 354.496 157.649 356.643 157.663 359.227Z" fill="white"/>
<path d="M184.93 346L184.916 345.098L188.293 341.543C189.469 340.299 190.029 339.629 190.029 338.713C190.029 337.701 189.168 337.031 188.061 337.031C186.885 337.031 186.133 337.783 186.133 338.891H184.971C184.957 337.141 186.311 335.965 188.102 335.965C189.893 335.965 191.178 337.168 191.178 338.713C191.178 339.82 190.658 340.682 188.908 342.486L186.639 344.824V344.906H191.355V346H184.93ZM196.387 346.137C194.186 346.137 192.928 344.291 192.928 341.051C192.928 337.838 194.213 335.965 196.387 335.965C198.561 335.965 199.846 337.838 199.846 341.051C199.846 344.291 198.574 346.137 196.387 346.137ZM196.387 345.043C197.809 345.043 198.643 343.607 198.643 341.051C198.643 338.494 197.809 337.031 196.387 337.031C194.965 337.031 194.117 338.494 194.117 341.051C194.117 343.607 194.951 345.043 196.387 345.043ZM201.486 346L201.473 345.098L204.85 341.543C206.025 340.299 206.586 339.629 206.586 338.713C206.586 337.701 205.725 337.031 204.617 337.031C203.441 337.031 202.689 337.783 202.689 338.891H201.527C201.514 337.141 202.867 335.965 204.658 335.965C206.449 335.965 207.734 337.168 207.734 338.713C207.734 339.82 207.215 340.682 205.465 342.486L203.195 344.824V344.906H207.912V346H201.486ZM213.121 346.137C211.152 346.137 209.744 345.084 209.676 343.512H210.92C210.988 344.455 211.932 345.043 213.107 345.043C214.406 345.043 215.363 344.332 215.363 343.307C215.363 342.227 214.502 341.461 212.957 341.461H212.15V340.381H212.957C214.16 340.381 214.994 339.711 214.994 338.686C214.994 337.701 214.27 337.031 213.148 337.031C212.096 337.031 211.125 337.619 211.07 338.59H209.881C209.949 337.018 211.398 335.965 213.162 335.965C215.049 335.965 216.197 337.195 216.184 338.617C216.197 339.738 215.541 340.572 214.502 340.859V340.928C215.787 341.133 216.58 342.049 216.566 343.307C216.58 344.934 215.09 346.137 213.121 346.137ZM227.982 334.967V343.963H226.902V339.752H223.402V338.891H226.902V337.428H223.402V336.566H226.902V334.967H227.982ZM228.311 345.945V346.848H220.148V343.197H221.229V345.945H228.311ZM219.711 335.842V341.242C221.386 341.235 222.999 341.146 224.852 340.805L224.961 341.693C222.979 342.062 221.324 342.145 219.547 342.158H218.631V335.842H219.711ZM237.457 336.102V346H236.213V337.387H236.158L233.752 338.986V337.742L236.213 336.102H237.457ZM243.596 336.102V346H242.352V337.387H242.297L239.891 338.986V337.742L242.352 336.102H243.596ZM255.818 334.967V342.131H254.738V341.461H252.277V340.75H254.738V334.967H255.818ZM245.756 339.547C248.107 339.561 251.115 339.533 253.74 339.246L253.809 339.943C252.619 340.114 251.382 340.217 250.172 340.271V342.172H249.119V340.312C247.971 340.354 246.87 340.36 245.879 340.354L245.756 339.547ZM255.818 342.568V345.084H248.723V346.178H256.215V346.971H247.67V344.332H254.752V343.348H247.615V342.568H255.818ZM249.721 335.199C251.525 335.199 252.729 335.91 252.742 337.031C252.729 338.166 251.525 338.85 249.721 338.85C247.889 338.85 246.699 338.166 246.699 337.031C246.699 335.91 247.889 335.199 249.721 335.199ZM249.721 335.951C248.49 335.951 247.697 336.375 247.711 337.031C247.697 337.674 248.49 338.111 249.721 338.111C250.938 338.111 251.73 337.674 251.73 337.031C251.73 336.375 250.938 335.951 249.721 335.951ZM265.348 336.102V346H264.104V337.387H264.049L261.643 338.986V337.742L264.104 336.102H265.348ZM271.281 335.965C272.99 335.979 274.877 337.004 274.877 340.654C274.877 344.168 273.441 346.137 271.117 346.137C269.381 346.137 268.15 345.07 267.904 343.498H269.121C269.34 344.387 270.01 345.043 271.117 345.043C272.73 345.043 273.715 343.648 273.729 341.242H273.592C273.018 342.062 272.115 342.555 271.062 342.555C269.285 342.555 267.822 341.201 267.822 339.287C267.822 337.441 269.176 335.951 271.281 335.965ZM271.281 337.045C269.982 337.045 269.012 338.057 269.025 339.273C269.025 340.504 269.941 341.475 271.24 341.475C272.525 341.475 273.537 340.408 273.537 339.246C273.537 338.111 272.594 337.045 271.281 337.045ZM279.58 335.404C281.398 335.418 282.725 336.512 282.725 338.098C282.725 339.684 281.398 340.777 279.58 340.777C277.734 340.777 276.422 339.684 276.422 338.098C276.422 336.512 277.734 335.418 279.58 335.404ZM279.58 336.307C278.363 336.307 277.461 337.045 277.475 338.098C277.461 339.164 278.363 339.902 279.58 339.902C280.783 339.902 281.686 339.164 281.686 338.098C281.686 337.045 280.783 336.307 279.58 336.307ZM286.17 334.953V341.201H285.104V334.953H286.17ZM286.17 341.789V344.715H279.348V346.082H286.607V346.943H278.295V343.908H285.104V342.65H278.268V341.789H286.17ZM292.5 342.227C292.514 339.643 293.211 337.496 294.469 335.678H295.508C294.578 337.031 293.717 339.793 293.717 342.227C293.717 344.66 294.578 347.436 295.508 348.789H294.469C293.211 346.957 292.514 344.811 292.5 342.227ZM299.965 335.404C301.783 335.418 303.109 336.512 303.109 338.098C303.109 339.684 301.783 340.777 299.965 340.777C298.119 340.777 296.807 339.684 296.807 338.098C296.807 336.512 298.119 335.418 299.965 335.404ZM299.965 336.307C298.748 336.307 297.846 337.045 297.859 338.098C297.846 339.164 298.748 339.902 299.965 339.902C301.168 339.902 302.07 339.164 302.07 338.098C302.07 337.045 301.168 336.307 299.965 336.307ZM306.555 334.953V341.201H305.488V334.953H306.555ZM306.555 341.789V344.715H299.732V346.082H306.992V346.943H298.68V343.908H305.488V342.65H298.652V341.789H306.555ZM311.654 342.227C311.641 344.811 310.943 346.957 309.686 348.789H308.646C309.576 347.436 310.438 344.66 310.438 342.227C310.438 339.793 309.576 337.031 308.646 335.678H309.686C310.943 337.496 311.641 339.643 311.654 342.227Z" fill="white"/>
<path d="M146 248.5H184L146 286.5H184" stroke="url(#paint0_linear_864_198)"/>
<path d="M181 283L184.5 286.5L181 290" stroke="#FF731D"/>
<defs>
<linearGradient id="paint0_linear_864_198" x1="184" y1="284.373" x2="146" y2="284.373" gradientUnits="userSpaceOnUse">
<stop offset="0.3125" stop-color="#FF731D"/>
<stop offset="1" stop-color="white"/>
</linearGradient>
</defs>
</svg>
