<svg width="36" height="35" viewBox="0 0 36 35" fill="none" xmlns="http://www.w3.org/2000/svg">
<path d="M18.5435 2.87092C14.1162 5.08456 9.45899 8.15126 5.91579 11.6288C4.474 13.0439 3.25471 14.5069 2.35151 16.3133C2.19279 16.6308 1.64688 18.35 2.35151 18.35C7.62912 18.35 12.7754 18.0546 18.0343 17.6372C21.4399 17.3669 24.9041 17.5354 28.3198 17.5354C29.6126 17.5354 31.4094 17.6765 32.5969 17.0828C32.8658 16.9483 34 16.7864 34 16.3925C34 15.807 33.0622 15.1492 32.6988 14.7858C31.9472 14.0343 31.298 13.2018 30.5602 12.4435C29.4752 11.3284 28.321 10.3613 27.3014 9.19609C26.6226 8.42028 25.9189 7.19034 25.061 6.63886C24.2788 6.13603 24.0731 5.1282 23.228 4.65871C22.6314 4.32731 22.2428 3.6096 21.7004 3.18774C20.8986 2.56412 20.117 1.32536 19.3582 2.46357" stroke="#FF731D" stroke-width="3" stroke-linecap="round"/>
<path d="M7.5459 18.9611C7.5459 23.3262 8.6355 27.6831 9.57131 31.8943C9.59456 31.9989 9.91838 32.9762 9.98997 32.4035C10.0659 31.7962 13.3363 31.6824 13.8145 31.634C17.0236 31.3091 20.4107 31.0375 23.636 30.9777C25.4512 30.9441 27.2226 30.7741 29.0447 30.7741C29.2876 30.7741 30.6764 30.9298 30.7533 30.6609C30.9954 29.8136 30.6216 28.7511 30.5722 27.9113C30.4259 25.4229 29.7462 22.8483 29.7462 20.3868C29.7462 19.4354 29.8332 18.437 29.1352 17.739" stroke="#FF731D" stroke-width="3" stroke-linecap="round"/>
</svg>
