<svg width="33" height="28" viewBox="0 0 33 28" fill="none" xmlns="http://www.w3.org/2000/svg">
<path d="M9.66126 18.8653C9.66126 20.2245 9.81627 21.697 9.02714 22.8973C8.61995 23.5167 8.03716 24.3672 7.83048 25.0731C7.77887 25.2493 7.47474 26.227 7.63616 25.9513C8.13486 25.0997 8.99743 24.7381 9.88627 24.2547C11.0277 23.6339 11.8728 23.3542 12.791 22.4582C13.237 22.023 13.1252 22.4702 13.5 22C14.3561 20.9259 15.28 21.021 16.4321 21.021C20.3 21.021 24.1695 20.7491 27.3349 18.3662C29.416 16.7997 31.7976 14.3874 30.7407 11.4997C30.4744 10.772 30.3917 9.93452 30.0043 9.25416C29.5912 8.52852 29.0486 7.91405 28.6236 7.18822C27.4656 5.21076 25.4099 3.63524 23.2847 2.78688C20.1283 1.52687 17.8518 2 14.5 2C11.8653 2 7.69836 4.13476 5.80538 5.75105C4.04175 7.2569 2.169 9.50083 2.11315 11.899C2.07515 13.5302 1.648 14.7016 2.74727 16.0807C4.03884 17.7012 6.56511 18.1467 8.55666 18.1467" stroke="#FF731D" stroke-width="3" stroke-linecap="round"/>
</svg>
