<svg width="34" height="32" viewBox="0 0 34 32" fill="none" xmlns="http://www.w3.org/2000/svg">
<path d="M21.1626 10.241C21.0022 8.79693 17.8173 7.68787 16.6081 7.68787C14.1366 7.68787 12.59 7.6201 10.9346 9.68936C7.93818 13.4348 4.35934 24.0753 11.234 25.9849C17.8209 27.8146 19.1688 15.7148 20.0279 11.7224C20.2488 10.6962 20.3116 7.53651 20.3116 8.58618C20.3116 9.81044 20.5798 11.3305 20.879 12.5104C21.7243 15.8449 23.3468 19.3149 26.3318 21.0206C27.0303 21.4197 28.0243 21.588 28.8219 21.588C29.7232 21.588 29.2378 22.1589 29.1055 22.7542C28.6814 24.6629 27.2903 26.4193 25.9221 27.7658C24.5326 29.1332 19.4965 30.5 17.5 30.5C13.3878 30.5 11.8246 30.1077 8 28.6799C6.12042 27.9782 4.28181 26.0776 3 24.5C1.73261 22.9401 1.86515 21.0388 1.58902 19.0349C1.26256 16.6657 2.12078 11.7531 3.77955 9.61056C5.35833 7.5713 6.48453 4.92914 8.80697 4.00016C12.8962 2.36447 15.6995 2.50006 20.0279 2.50006C24.0179 2.50006 28.4171 5.84748 30.1772 9.61056C31.1571 11.7054 31.588 13.7081 31.6429 16.0405C31.6718 17.2722 32.0675 19.6185 31.375 20.8C29.4929 24.0105 27.6249 27.0089 24.2831 28.6799" stroke="#FF731D" stroke-width="3" stroke-linecap="round"/>
</svg>
