<svg width="1730" height="61" viewBox="0 0 1730 61" fill="none" xmlns="http://www.w3.org/2000/svg">
<path d="M27.5537 49L25.7739 44.8691H12.5464L10.7446 49H0.461426L16.9189 13.1406H21.3794L37.8589 49H27.5537ZM15.5127 37.9917H22.7856L19.1602 29.5981L15.5127 37.9917ZM55.8984 49.791C45.9009 49.791 36.5625 42.4082 36.5625 31.29C36.5625 20.8091 45.0439 12.7451 56.0742 12.7451C60.6445 12.811 65.5444 14.8105 69.1699 18.1064L63.7646 25.0498C61.5894 23.0723 58.7109 21.7759 56.0962 21.7759C50.647 21.7759 46.0986 25.9287 46.0986 31.356C46.0986 36.8491 50.8447 40.8921 55.8984 40.8921C58.8647 40.8921 61.5234 39.4858 63.8086 37.4424L69.1699 44.5835C65.7861 47.6597 61.2817 49.791 55.8984 49.791ZM89.4287 49.791C79.4312 49.791 70.0928 42.4082 70.0928 31.29C70.0928 20.8091 78.5742 12.7451 89.6045 12.7451C94.1748 12.811 99.0747 14.8105 102.7 18.1064L97.2949 25.0498C95.1196 23.0723 92.2412 21.7759 89.6265 21.7759C84.1772 21.7759 79.6289 25.9287 79.6289 31.356C79.6289 36.8491 84.375 40.8921 89.4287 40.8921C92.395 40.8921 95.0537 39.4858 97.3389 37.4424L102.7 44.5835C99.3164 47.6597 94.812 49.791 89.4287 49.791ZM123.047 49.9009C112.039 49.9009 103.623 41.8809 103.623 31.334C103.623 20.6992 112.061 12.6353 123.069 12.6353C134.077 12.6353 142.515 20.6992 142.515 31.334C142.515 41.8809 134.077 49.9009 123.047 49.9009ZM123.069 40.9141C128.694 40.9141 133 36.7173 133 31.2681C133 25.7969 128.694 21.5781 123.069 21.5781C117.444 21.5781 113.137 25.7969 113.137 31.2681C113.137 36.7173 117.444 40.9141 123.069 40.9141ZM181.318 13.2505H185.098V49H175.693V34.9595L166.157 48.4067H166.091L156.533 34.9595V49H147.129V13.2505H150.908L166.113 34.0806L181.318 13.2505ZM191.25 49V13.5801H204.631C211.926 13.5801 218.013 19.0732 218.013 25.9946C218.013 32.8281 212.058 38.563 204.631 38.563H200.654V49H191.25ZM204.631 29.9058C207.158 29.9277 208.938 28.2139 208.938 26.0386C208.938 23.8853 207.136 22.2593 204.631 22.2593H200.654V29.8838L204.631 29.9058ZM231.416 40.167H244.973V49H222.012V13.5801H231.416V40.167ZM248.994 49V13.5801H258.398V49H248.994ZM275.603 49.4834C269.78 49.4834 264.485 46.9126 262.705 43.0015L268.396 37.4204C269.868 39.5957 272.615 40.9141 275.581 40.9141C277.581 40.9141 279.536 40.189 279.536 38.7388C279.536 36.915 275.911 35.311 272.439 33.7729C267.957 31.8394 264.111 28.895 264.111 23.5557C264.111 17.4253 269.934 13.0527 276.658 13.0527C282.063 13.0527 286.282 15.6016 287.666 19.0952L282.239 24.3247C281.184 22.457 278.459 21.644 276.768 21.644C274.834 21.644 273.45 22.6328 273.45 23.8413C273.45 25.4673 275.955 25.9946 279.778 27.5986C285.315 29.9277 288.984 33.3115 288.984 38.541C288.984 45.2866 282.7 49.4834 275.603 49.4834ZM313.22 13.5801H322.603V49H313.22V35.6626H302.695V49H293.291V13.5801H302.695V26.8735H313.22V13.5801ZM362.944 13.2505H366.724V49H357.319V34.9595L347.783 48.4067H347.717L338.159 34.9595V49H328.755V13.2505H332.534L347.739 34.0806L362.944 13.2505ZM395.837 22.3252H382.17V27.269H393.42V35.1133H382.17V40.189H395.837V49H372.876V13.5801H395.837V22.3252ZM422.271 13.5361H431.697V49.3516H428.708L410.493 31.7075V49.022H401.089V13.2285H404.121L422.271 30.8066V13.5361ZM462.129 13.5801V22.3691H453.647V49H444.221V22.3691H435.718V13.5801H462.129ZM477.18 49.4834C471.357 49.4834 466.062 46.9126 464.282 43.0015L469.973 37.4204C471.445 39.5957 474.192 40.9141 477.158 40.9141C479.158 40.9141 481.113 40.189 481.113 38.7388C481.113 36.915 477.488 35.311 474.016 33.7729C469.534 31.8394 465.688 28.895 465.688 23.5557C465.688 17.4253 471.511 13.0527 478.235 13.0527C483.64 13.0527 487.859 15.6016 489.243 19.0952L483.816 24.3247C482.761 22.457 480.037 21.644 478.345 21.644C476.411 21.644 475.027 22.6328 475.027 23.8413C475.027 25.4673 477.532 25.9946 481.355 27.5986C486.892 29.9277 490.562 33.3115 490.562 38.541C490.562 45.2866 484.277 49.4834 477.18 49.4834Z" fill="white"/>
<path d="M524 30.5L1730 30.5001" stroke="#FF731D" stroke-width="2"/>
</svg>
