<svg width="277" height="43" viewBox="0 0 277 43" fill="none" xmlns="http://www.w3.org/2000/svg">
<path d="M8 8.5V0.5H49V8.5H57.5V33.5H49V8.5H8V34H41L48 41.5H8V34H0V8.5H8Z" fill="#FF731D"/>
<path d="M74 9.5V2H107V9.5H94.5V41H86.5V9.5H74Z" fill="#FF731D"/>
<path d="M112.5 41V2H144V10H121.5V17H140V25.5H121.5V32.5H144V41H112.5Z" fill="#FF731D"/>
<path d="M167.5 8.5C173.1 8.5 176.167 11.5 177 13L183.5 7.5C181.667 5 175.9 0 167.5 0C157 0 146.5 8.5 146.5 22C146.5 35.5 158 42.5 167.5 42.5C175.1 42.5 181.333 37.5 183.5 35L177 29.5C175.5 30.8333 171.5 33.5 167.5 33.5C162.5 33.5 155.5 30 155.5 22C155.5 14 160.5 8.5 167.5 8.5Z" fill="#FF731D"/>
<path d="M197 2H189V41H197V25.5H214.5V41H222V2H214.5V17H197V2Z" fill="#FF731D"/>
<path d="M229 27V2H238V27H229Z" fill="#FF731D"/>
<path d="M229 41V32H238V41H229Z" fill="#FF731D"/>
<path d="M243.5 10V2H277V10H265V41H256.5V10H243.5Z" fill="#FF731D"/>
</svg>
