<svg width="1201" height="432" viewBox="0 0 1201 432" fill="none" xmlns="http://www.w3.org/2000/svg">
<path d="M0.999984 54.5561L232 45.0559" stroke="#FF731D" stroke-width="6"/>
<path d="M9 40.9999L219.099 58.2308" stroke="#FF731D" stroke-width="6"/>
<path d="M2.69682 1.27461V25.0674H51.3389V1.27461H2.69682ZM20.5134 30.5907H1V39.0881H53.0357V30.5907H33.5223V26.7668H20.5134V30.5907ZM15.7057 9.77202H38.3299V16.5699H15.7057V9.77202Z" fill="white"/>
<path d="M96.0217 22.5181V26.1295H70.5694V22.5181H57.5605V40.3627H109.031V22.5181H96.0217ZM75.9427 11.4715L77.1304 9.77202H90.9312V1.69948H57.5605V9.77202H63.8387L55.8071 21.2435H69.0989L74.359 13.7233L79.3363 21.2435H92.628L86.2367 11.4715H75.9427ZM109.031 0.42487H96.0217V21.2435H109.031V0.42487ZM70.5694 31.8653H96.0217V34.2021H70.5694V31.8653Z" fill="white"/>
<path d="M128.261 34.8394V33.5648H165.591V21.6684H114.121V27.1917H151.451V28.4663H114.121V40.3627H165.591V34.8394H128.261ZM146.926 9.98446C146.926 3.48394 140.987 0 129.675 0C118.363 0 112.424 3.48394 112.424 9.98446C112.424 16.485 118.363 19.9689 129.675 19.9689C140.987 19.9689 146.926 16.485 146.926 9.98446ZM165.591 0.42487H152.582V20.3938H165.591V0.42487ZM129.675 12.7461C125.15 12.7461 123.736 11.7264 123.736 9.98446C123.736 8.24249 125.15 7.2228 129.675 7.2228C134.2 7.2228 135.614 8.24249 135.614 9.98446C135.614 11.7264 134.2 12.7461 129.675 12.7461Z" fill="white"/>
<path d="M222.152 0.42487H209.143V8.07254H204.052V1.69948H170.682V10.1969H177.356L169.55 23.7927H182.842L187.65 15.4653L191.892 23.7927H205.183L199.358 12.3212H189.46L190.647 10.1969H203.487V16.5699H209.143V24.2176H222.152V0.42487ZM223 33.0124C223 27.914 217.118 25.0249 197.265 25.0249C177.412 25.0249 171.53 27.914 171.53 33.0124C171.53 38.1109 177.412 41 197.265 41C217.118 41 223 38.1109 223 33.0124ZM209.991 33.0124C209.991 33.9896 208.69 34.6269 197.265 34.6269C185.84 34.6269 184.539 33.9896 184.539 33.0124C184.539 32.0352 185.84 31.3979 197.265 31.3979C208.69 31.3979 209.991 32.0352 209.991 33.0124Z" fill="white"/>
<path d="M71.8398 312.711L76.6641 307.633C77.2956 306.956 77.7773 306.412 78.1094 306.002C78.4479 305.585 78.7051 305.185 78.8809 304.801C79.0566 304.417 79.1445 304.013 79.1445 303.59C79.1445 303.115 79.0208 302.698 78.7734 302.34C78.526 301.975 78.1875 301.692 77.7578 301.49C77.3346 301.288 76.8594 301.188 76.332 301.188C75.7786 301.188 75.2936 301.301 74.877 301.529C74.4603 301.751 74.138 302.06 73.9102 302.457C73.6888 302.854 73.5781 303.316 73.5781 303.844H71.918C71.9115 303.023 72.1003 302.298 72.4844 301.666C72.875 301.035 73.4121 300.543 74.0957 300.191C74.7793 299.84 75.5443 299.664 76.3906 299.664C77.2305 299.664 77.9824 299.837 78.6465 300.182C79.3171 300.527 79.8411 300.999 80.2188 301.598C80.5964 302.197 80.7852 302.861 80.7852 303.59C80.7786 304.13 80.6777 304.648 80.4824 305.143C80.2936 305.631 79.9681 306.174 79.5059 306.773C79.0436 307.372 78.3893 308.108 77.543 308.98L74.3008 312.32V312.438H81.0391V314H71.8594L71.8398 312.711ZM88.2266 314.195C87.1849 314.195 86.293 313.912 85.5508 313.346C84.8151 312.779 84.252 311.952 83.8613 310.865C83.4772 309.778 83.2852 308.466 83.2852 306.93C83.2852 305.413 83.4772 304.111 83.8613 303.023C84.252 301.93 84.8184 301.096 85.5605 300.523C86.3027 299.951 87.1914 299.664 88.2266 299.664C89.2552 299.664 90.1406 299.951 90.8828 300.523C91.625 301.096 92.1914 301.93 92.582 303.023C92.9727 304.111 93.168 305.413 93.168 306.93C93.168 308.466 92.9727 309.778 92.582 310.865C92.1979 311.952 91.6348 312.779 90.8926 313.346C90.1569 313.912 89.2682 314.195 88.2266 314.195ZM84.9844 306.93C84.9844 308.141 85.1113 309.173 85.3652 310.025C85.6257 310.878 85.9967 311.526 86.4785 311.969C86.9603 312.411 87.543 312.633 88.2266 312.633C88.9036 312.633 89.4831 312.411 89.9648 311.969C90.4531 311.526 90.821 310.878 91.0684 310.025C91.3223 309.173 91.4492 308.141 91.4492 306.93C91.4492 305.719 91.3223 304.684 91.0684 303.824C90.8145 302.965 90.4466 302.311 89.9648 301.861C89.4831 301.412 88.9036 301.188 88.2266 301.188C87.5495 301.188 86.9701 301.412 86.4883 301.861C86.0065 302.311 85.6354 302.965 85.375 303.824C85.1146 304.684 84.9844 305.719 84.9844 306.93ZM95.4922 312.711L100.316 307.633C100.948 306.956 101.43 306.412 101.762 306.002C102.1 305.585 102.357 305.185 102.533 304.801C102.709 304.417 102.797 304.013 102.797 303.59C102.797 303.115 102.673 302.698 102.426 302.34C102.178 301.975 101.84 301.692 101.41 301.49C100.987 301.288 100.512 301.188 99.9844 301.188C99.431 301.188 98.946 301.301 98.5293 301.529C98.1126 301.751 97.7904 302.06 97.5625 302.457C97.3411 302.854 97.2305 303.316 97.2305 303.844H95.5703C95.5638 303.023 95.7526 302.298 96.1367 301.666C96.5273 301.035 97.0645 300.543 97.748 300.191C98.4316 299.84 99.1966 299.664 100.043 299.664C100.883 299.664 101.635 299.837 102.299 300.182C102.969 300.527 103.493 300.999 103.871 301.598C104.249 302.197 104.438 302.861 104.438 303.59C104.431 304.13 104.33 304.648 104.135 305.143C103.946 305.631 103.62 306.174 103.158 306.773C102.696 307.372 102.042 308.108 101.195 308.98L97.9531 312.32V312.438H104.691V314H95.5117L95.4922 312.711ZM112.133 314.195C111.202 314.195 110.368 314.039 109.633 313.727C108.897 313.414 108.314 312.975 107.885 312.408C107.462 311.835 107.237 311.181 107.211 310.445H108.988C109.021 310.888 109.177 311.275 109.457 311.607C109.737 311.933 110.108 312.187 110.57 312.369C111.033 312.545 111.547 312.633 112.113 312.633C112.732 312.633 113.285 312.529 113.773 312.32C114.262 312.112 114.643 311.819 114.916 311.441C115.196 311.064 115.336 310.634 115.336 310.152C115.329 309.638 115.193 309.182 114.926 308.785C114.659 308.388 114.265 308.079 113.744 307.857C113.23 307.63 112.615 307.516 111.898 307.516H110.746V305.973H111.898C112.465 305.973 112.969 305.872 113.412 305.67C113.855 305.468 114.197 305.185 114.438 304.82C114.685 304.449 114.809 304.026 114.809 303.551C114.809 303.082 114.701 302.672 114.486 302.32C114.271 301.962 113.965 301.686 113.568 301.49C113.171 301.288 112.706 301.188 112.172 301.188C111.664 301.194 111.186 301.288 110.736 301.471C110.294 301.646 109.932 301.904 109.652 302.242C109.379 302.574 109.229 302.965 109.203 303.414H107.504C107.53 302.685 107.755 302.037 108.178 301.471C108.607 300.898 109.174 300.455 109.877 300.143C110.587 299.824 111.358 299.664 112.191 299.664C113.064 299.664 113.826 299.837 114.477 300.182C115.134 300.527 115.639 300.989 115.99 301.568C116.342 302.148 116.514 302.776 116.508 303.453C116.514 304.247 116.303 304.928 115.873 305.494C115.443 306.054 114.854 306.441 114.105 306.656V306.754C114.711 306.845 115.235 307.047 115.678 307.359C116.127 307.665 116.469 308.059 116.703 308.541C116.938 309.016 117.055 309.553 117.055 310.152C117.055 310.914 116.84 311.604 116.41 312.223C115.987 312.835 115.401 313.316 114.652 313.668C113.904 314.02 113.064 314.195 112.133 314.195ZM133.363 311.09H131.82V305.074H126.82V303.844H131.82V301.754H126.82V300.523H131.82V298.238H133.363V311.09ZM120.004 299.488H121.547V307.203C122.842 307.197 124.076 307.148 125.248 307.057C126.426 306.965 127.641 306.806 128.891 306.578L129.047 307.848C127.738 308.095 126.479 308.264 125.268 308.355C124.063 308.447 122.745 308.499 121.312 308.512H120.004V299.488ZM122.172 309.996H123.715V313.922H133.832V315.211H122.172V309.996ZM141.879 312.711L146.703 307.633C147.335 306.956 147.816 306.412 148.148 306.002C148.487 305.585 148.744 305.185 148.92 304.801C149.096 304.417 149.184 304.013 149.184 303.59C149.184 303.115 149.06 302.698 148.812 302.34C148.565 301.975 148.227 301.692 147.797 301.49C147.374 301.288 146.898 301.188 146.371 301.188C145.818 301.188 145.333 301.301 144.916 301.529C144.499 301.751 144.177 302.06 143.949 302.457C143.728 302.854 143.617 303.316 143.617 303.844H141.957C141.951 303.023 142.139 302.298 142.523 301.666C142.914 301.035 143.451 300.543 144.135 300.191C144.818 299.84 145.583 299.664 146.43 299.664C147.27 299.664 148.021 299.837 148.686 300.182C149.356 300.527 149.88 300.999 150.258 301.598C150.635 302.197 150.824 302.861 150.824 303.59C150.818 304.13 150.717 304.648 150.521 305.143C150.333 305.631 150.007 306.174 149.545 306.773C149.083 307.372 148.428 308.108 147.582 308.98L144.34 312.32V312.438H151.078V314H141.898L141.879 312.711ZM167.328 308.473H165.785V307.516H162.27V306.5H165.785V298.238H167.328V308.473ZM154.252 304.781C158.386 304.781 161.755 304.638 164.359 304.352L164.457 305.348C162.875 305.576 161.143 305.732 159.262 305.816V308.531H157.758V305.875C156.664 305.914 155.121 305.934 153.129 305.934L152.953 304.781H154.252ZM154.301 301.188C154.301 300.654 154.477 300.191 154.828 299.801C155.186 299.404 155.691 299.101 156.342 298.893C156.993 298.678 157.751 298.57 158.617 298.57C159.477 298.57 160.229 298.678 160.873 298.893C161.524 299.101 162.029 299.404 162.387 299.801C162.745 300.191 162.927 300.654 162.934 301.188C162.927 301.721 162.745 302.184 162.387 302.574C162.029 302.965 161.524 303.264 160.873 303.473C160.229 303.681 159.477 303.785 158.617 303.785C157.745 303.785 156.983 303.681 156.332 303.473C155.688 303.264 155.186 302.965 154.828 302.574C154.477 302.184 154.301 301.721 154.301 301.188ZM155.609 309.098H167.328V312.691H157.191V314.254H167.895V315.387H155.688V311.617H165.805V310.211H155.609V309.098ZM155.746 301.188C155.746 301.493 155.863 301.764 156.098 301.998C156.332 302.226 156.667 302.405 157.104 302.535C157.54 302.665 158.044 302.73 158.617 302.73C159.184 302.73 159.682 302.665 160.111 302.535C160.548 302.405 160.886 302.226 161.127 301.998C161.368 301.764 161.488 301.493 161.488 301.188C161.488 300.882 161.368 300.615 161.127 300.387C160.893 300.152 160.561 299.97 160.131 299.84C159.708 299.71 159.216 299.645 158.656 299.645C158.07 299.645 157.556 299.71 157.113 299.84C156.677 299.964 156.339 300.143 156.098 300.377C155.863 300.605 155.746 300.875 155.746 301.188ZM175.922 312.711L180.746 307.633C181.378 306.956 181.859 306.412 182.191 306.002C182.53 305.585 182.787 305.185 182.963 304.801C183.139 304.417 183.227 304.013 183.227 303.59C183.227 303.115 183.103 302.698 182.855 302.34C182.608 301.975 182.27 301.692 181.84 301.49C181.417 301.288 180.941 301.188 180.414 301.188C179.861 301.188 179.376 301.301 178.959 301.529C178.542 301.751 178.22 302.06 177.992 302.457C177.771 302.854 177.66 303.316 177.66 303.844H176C175.993 303.023 176.182 302.298 176.566 301.666C176.957 301.035 177.494 300.543 178.178 300.191C178.861 299.84 179.626 299.664 180.473 299.664C181.312 299.664 182.064 299.837 182.729 300.182C183.399 300.527 183.923 300.999 184.301 301.598C184.678 302.197 184.867 302.861 184.867 303.59C184.861 304.13 184.76 304.648 184.564 305.143C184.376 305.631 184.05 306.174 183.588 306.773C183.126 307.372 182.471 308.108 181.625 308.98L178.383 312.32V312.438H185.121V314H175.941L175.922 312.711ZM192.309 314.195C191.267 314.195 190.375 313.912 189.633 313.346C188.897 312.779 188.334 311.952 187.943 310.865C187.559 309.778 187.367 308.466 187.367 306.93C187.367 305.413 187.559 304.111 187.943 303.023C188.334 301.93 188.9 301.096 189.643 300.523C190.385 299.951 191.273 299.664 192.309 299.664C193.337 299.664 194.223 299.951 194.965 300.523C195.707 301.096 196.273 301.93 196.664 303.023C197.055 304.111 197.25 305.413 197.25 306.93C197.25 308.466 197.055 309.778 196.664 310.865C196.28 311.952 195.717 312.779 194.975 313.346C194.239 313.912 193.35 314.195 192.309 314.195ZM189.066 306.93C189.066 308.141 189.193 309.173 189.447 310.025C189.708 310.878 190.079 311.526 190.561 311.969C191.042 312.411 191.625 312.633 192.309 312.633C192.986 312.633 193.565 312.411 194.047 311.969C194.535 311.526 194.903 310.878 195.15 310.025C195.404 309.173 195.531 308.141 195.531 306.93C195.531 305.719 195.404 304.684 195.15 303.824C194.896 302.965 194.529 302.311 194.047 301.861C193.565 301.412 192.986 301.188 192.309 301.188C191.632 301.188 191.052 301.412 190.57 301.861C190.089 302.311 189.717 302.965 189.457 303.824C189.197 304.684 189.066 305.719 189.066 306.93ZM203.891 298.863C204.75 298.863 205.518 299.029 206.195 299.361C206.879 299.687 207.413 300.143 207.797 300.729C208.188 301.308 208.383 301.969 208.383 302.711C208.383 303.453 208.188 304.117 207.797 304.703C207.413 305.283 206.879 305.735 206.195 306.061C205.518 306.38 204.75 306.539 203.891 306.539C203.025 306.539 202.247 306.38 201.557 306.061C200.873 305.735 200.339 305.283 199.955 304.703C199.571 304.117 199.379 303.453 199.379 302.711C199.379 301.969 199.571 301.308 199.955 300.729C200.339 300.143 200.873 299.687 201.557 299.361C202.247 299.029 203.025 298.863 203.891 298.863ZM200.883 302.711C200.876 303.212 201 303.658 201.254 304.049C201.514 304.439 201.872 304.745 202.328 304.967C202.79 305.182 203.311 305.289 203.891 305.289C204.457 305.289 204.968 305.182 205.424 304.967C205.886 304.745 206.247 304.439 206.508 304.049C206.768 303.658 206.898 303.212 206.898 302.711C206.898 302.216 206.768 301.773 206.508 301.383C206.247 300.992 205.886 300.689 205.424 300.475C204.968 300.26 204.457 300.152 203.891 300.152C203.311 300.152 202.79 300.26 202.328 300.475C201.872 300.689 201.514 300.992 201.254 301.383C201 301.773 200.876 302.216 200.883 302.711ZM202.016 307.984H213.305V312.164H203.559V314.117H213.93V315.348H202.055V311.012H211.781V309.215H202.016V307.984ZM211.781 298.219H213.305V307.145H211.781V298.219ZM217.328 308.609C217.348 305.068 218.285 301.949 220.141 299.254H221.625C221.182 299.905 220.766 300.748 220.375 301.783C219.984 302.812 219.669 303.928 219.428 305.133C219.187 306.331 219.066 307.49 219.066 308.609C219.066 309.729 219.187 310.891 219.428 312.096C219.669 313.294 219.984 314.41 220.375 315.445C220.766 316.48 221.182 317.327 221.625 317.984H220.141C219.223 316.65 218.526 315.208 218.051 313.658C217.576 312.109 217.335 310.426 217.328 308.609ZM237.387 308.473H235.844V307.516H232.328V306.5H235.844V298.238H237.387V308.473ZM224.311 304.781C228.445 304.781 231.814 304.638 234.418 304.352L234.516 305.348C232.934 305.576 231.202 305.732 229.32 305.816V308.531H227.816V305.875C226.723 305.914 225.18 305.934 223.188 305.934L223.012 304.781H224.311ZM224.359 301.188C224.359 300.654 224.535 300.191 224.887 299.801C225.245 299.404 225.749 299.101 226.4 298.893C227.051 298.678 227.81 298.57 228.676 298.57C229.535 298.57 230.287 298.678 230.932 298.893C231.583 299.101 232.087 299.404 232.445 299.801C232.803 300.191 232.986 300.654 232.992 301.188C232.986 301.721 232.803 302.184 232.445 302.574C232.087 302.965 231.583 303.264 230.932 303.473C230.287 303.681 229.535 303.785 228.676 303.785C227.803 303.785 227.042 303.681 226.391 303.473C225.746 303.264 225.245 302.965 224.887 302.574C224.535 302.184 224.359 301.721 224.359 301.188ZM225.668 309.098H237.387V312.691H227.25V314.254H237.953V315.387H225.746V311.617H235.863V310.211H225.668V309.098ZM225.805 301.188C225.805 301.493 225.922 301.764 226.156 301.998C226.391 302.226 226.726 302.405 227.162 302.535C227.598 302.665 228.103 302.73 228.676 302.73C229.242 302.73 229.74 302.665 230.17 302.535C230.606 302.405 230.945 302.226 231.186 301.998C231.426 301.764 231.547 301.493 231.547 301.188C231.547 300.882 231.426 300.615 231.186 300.387C230.951 300.152 230.619 299.97 230.189 299.84C229.766 299.71 229.275 299.645 228.715 299.645C228.129 299.645 227.615 299.71 227.172 299.84C226.736 299.964 226.397 300.143 226.156 300.377C225.922 300.605 225.805 300.875 225.805 301.188ZM244.691 308.609C244.685 310.426 244.444 312.109 243.969 313.658C243.493 315.208 242.797 316.65 241.879 317.984H240.395C240.837 317.327 241.254 316.48 241.645 315.445C242.035 314.41 242.351 313.294 242.592 312.096C242.833 310.891 242.953 309.729 242.953 308.609C242.953 307.49 242.833 306.331 242.592 305.133C242.351 303.928 242.035 302.812 241.645 301.783C241.254 300.748 240.837 299.905 240.395 299.254H241.879C243.734 301.949 244.672 305.068 244.691 308.609ZM69.2031 332.199C69.8346 331.47 70.5898 331.099 71.4688 331.086C71.8008 331.092 72.1296 331.145 72.4551 331.242C72.7806 331.333 73.1745 331.473 73.6367 331.662C74.1185 331.851 74.5091 331.991 74.8086 332.082C75.1081 332.173 75.4141 332.219 75.7266 332.219C76.625 332.206 77.3672 331.796 77.9531 330.988V332.609C77.3021 333.352 76.5469 333.723 75.6875 333.723C75.349 333.723 75.0137 333.674 74.6816 333.576C74.3496 333.479 73.9557 333.335 73.5 333.146C73.0117 332.958 72.6178 332.818 72.3184 332.727C72.0254 332.635 71.7227 332.59 71.4102 332.59C70.5312 332.603 69.7956 333.013 69.2031 333.82V332.199ZM86.1758 336.711L91 331.633C91.6315 330.956 92.1133 330.412 92.4453 330.002C92.7839 329.585 93.041 329.185 93.2168 328.801C93.3926 328.417 93.4805 328.013 93.4805 327.59C93.4805 327.115 93.3568 326.698 93.1094 326.34C92.862 325.975 92.5234 325.692 92.0938 325.49C91.6706 325.288 91.1953 325.188 90.668 325.188C90.1146 325.188 89.6296 325.301 89.2129 325.529C88.7962 325.751 88.474 326.06 88.2461 326.457C88.0247 326.854 87.9141 327.316 87.9141 327.844H86.2539C86.2474 327.023 86.4362 326.298 86.8203 325.666C87.2109 325.035 87.748 324.543 88.4316 324.191C89.1152 323.84 89.8802 323.664 90.7266 323.664C91.5664 323.664 92.3184 323.837 92.9824 324.182C93.653 324.527 94.1771 324.999 94.5547 325.598C94.9323 326.197 95.1211 326.861 95.1211 327.59C95.1146 328.13 95.0137 328.648 94.8184 329.143C94.6296 329.631 94.304 330.174 93.8418 330.773C93.3796 331.372 92.7253 332.108 91.8789 332.98L88.6367 336.32V336.438H95.375V338H86.1953L86.1758 336.711ZM102.562 338.195C101.521 338.195 100.629 337.912 99.8867 337.346C99.151 336.779 98.5879 335.952 98.1973 334.865C97.8132 333.778 97.6211 332.466 97.6211 330.93C97.6211 329.413 97.8132 328.111 98.1973 327.023C98.5879 325.93 99.1543 325.096 99.8965 324.523C100.639 323.951 101.527 323.664 102.562 323.664C103.591 323.664 104.477 323.951 105.219 324.523C105.961 325.096 106.527 325.93 106.918 327.023C107.309 328.111 107.504 329.413 107.504 330.93C107.504 332.466 107.309 333.778 106.918 334.865C106.534 335.952 105.971 336.779 105.229 337.346C104.493 337.912 103.604 338.195 102.562 338.195ZM99.3203 330.93C99.3203 332.141 99.4473 333.173 99.7012 334.025C99.9616 334.878 100.333 335.526 100.814 335.969C101.296 336.411 101.879 336.633 102.562 336.633C103.24 336.633 103.819 336.411 104.301 335.969C104.789 335.526 105.157 334.878 105.404 334.025C105.658 333.173 105.785 332.141 105.785 330.93C105.785 329.719 105.658 328.684 105.404 327.824C105.15 326.965 104.783 326.311 104.301 325.861C103.819 325.412 103.24 325.188 102.562 325.188C101.885 325.188 101.306 325.412 100.824 325.861C100.342 326.311 99.9714 326.965 99.7109 327.824C99.4505 328.684 99.3203 329.719 99.3203 330.93ZM109.828 336.711L114.652 331.633C115.284 330.956 115.766 330.412 116.098 330.002C116.436 329.585 116.693 329.185 116.869 328.801C117.045 328.417 117.133 328.013 117.133 327.59C117.133 327.115 117.009 326.698 116.762 326.34C116.514 325.975 116.176 325.692 115.746 325.49C115.323 325.288 114.848 325.188 114.32 325.188C113.767 325.188 113.282 325.301 112.865 325.529C112.449 325.751 112.126 326.06 111.898 326.457C111.677 326.854 111.566 327.316 111.566 327.844H109.906C109.9 327.023 110.089 326.298 110.473 325.666C110.863 325.035 111.4 324.543 112.084 324.191C112.768 323.84 113.533 323.664 114.379 323.664C115.219 323.664 115.971 323.837 116.635 324.182C117.305 324.527 117.829 324.999 118.207 325.598C118.585 326.197 118.773 326.861 118.773 327.59C118.767 328.13 118.666 328.648 118.471 329.143C118.282 329.631 117.956 330.174 117.494 330.773C117.032 331.372 116.378 332.108 115.531 332.98L112.289 336.32V336.438H119.027V338H109.848L109.828 336.711ZM126.469 338.195C125.538 338.195 124.704 338.039 123.969 337.727C123.233 337.414 122.65 336.975 122.221 336.408C121.798 335.835 121.573 335.181 121.547 334.445H123.324C123.357 334.888 123.513 335.275 123.793 335.607C124.073 335.933 124.444 336.187 124.906 336.369C125.368 336.545 125.883 336.633 126.449 336.633C127.068 336.633 127.621 336.529 128.109 336.32C128.598 336.112 128.979 335.819 129.252 335.441C129.532 335.064 129.672 334.634 129.672 334.152C129.665 333.638 129.529 333.182 129.262 332.785C128.995 332.388 128.601 332.079 128.08 331.857C127.566 331.63 126.951 331.516 126.234 331.516H125.082V329.973H126.234C126.801 329.973 127.305 329.872 127.748 329.67C128.191 329.468 128.533 329.185 128.773 328.82C129.021 328.449 129.145 328.026 129.145 327.551C129.145 327.082 129.037 326.672 128.822 326.32C128.607 325.962 128.301 325.686 127.904 325.49C127.507 325.288 127.042 325.188 126.508 325.188C126 325.194 125.521 325.288 125.072 325.471C124.63 325.646 124.268 325.904 123.988 326.242C123.715 326.574 123.565 326.965 123.539 327.414H121.84C121.866 326.685 122.09 326.037 122.514 325.471C122.943 324.898 123.51 324.455 124.213 324.143C124.923 323.824 125.694 323.664 126.527 323.664C127.4 323.664 128.161 323.837 128.812 324.182C129.47 324.527 129.975 324.989 130.326 325.568C130.678 326.148 130.85 326.776 130.844 327.453C130.85 328.247 130.639 328.928 130.209 329.494C129.779 330.054 129.19 330.441 128.441 330.656V330.754C129.047 330.845 129.571 331.047 130.014 331.359C130.463 331.665 130.805 332.059 131.039 332.541C131.273 333.016 131.391 333.553 131.391 334.152C131.391 334.914 131.176 335.604 130.746 336.223C130.323 336.835 129.737 337.316 128.988 337.668C128.24 338.02 127.4 338.195 126.469 338.195ZM147.699 335.09H146.156V329.074H141.156V327.844H146.156V325.754H141.156V324.523H146.156V322.238H147.699V335.09ZM134.34 323.488H135.883V331.203C137.178 331.197 138.412 331.148 139.584 331.057C140.762 330.965 141.977 330.806 143.227 330.578L143.383 331.848C142.074 332.095 140.814 332.264 139.604 332.355C138.399 332.447 137.081 332.499 135.648 332.512H134.34V323.488ZM136.508 333.996H138.051V337.922H148.168V339.211H136.508V333.996ZM161.117 338.195C160.186 338.195 159.353 338.039 158.617 337.727C157.882 337.414 157.299 336.975 156.869 336.408C156.446 335.835 156.221 335.181 156.195 334.445H157.973C158.005 334.888 158.161 335.275 158.441 335.607C158.721 335.933 159.092 336.187 159.555 336.369C160.017 336.545 160.531 336.633 161.098 336.633C161.716 336.633 162.27 336.529 162.758 336.32C163.246 336.112 163.627 335.819 163.9 335.441C164.18 335.064 164.32 334.634 164.32 334.152C164.314 333.638 164.177 333.182 163.91 332.785C163.643 332.388 163.249 332.079 162.729 331.857C162.214 331.63 161.599 331.516 160.883 331.516H159.73V329.973H160.883C161.449 329.973 161.954 329.872 162.396 329.67C162.839 329.468 163.181 329.185 163.422 328.82C163.669 328.449 163.793 328.026 163.793 327.551C163.793 327.082 163.686 326.672 163.471 326.32C163.256 325.962 162.95 325.686 162.553 325.49C162.156 325.288 161.69 325.188 161.156 325.188C160.648 325.194 160.17 325.288 159.721 325.471C159.278 325.646 158.917 325.904 158.637 326.242C158.363 326.574 158.214 326.965 158.188 327.414H156.488C156.514 326.685 156.739 326.037 157.162 325.471C157.592 324.898 158.158 324.455 158.861 324.143C159.571 323.824 160.342 323.664 161.176 323.664C162.048 323.664 162.81 323.837 163.461 324.182C164.118 324.527 164.623 324.989 164.975 325.568C165.326 326.148 165.499 326.776 165.492 327.453C165.499 328.247 165.287 328.928 164.857 329.494C164.428 330.054 163.839 330.441 163.09 330.656V330.754C163.695 330.845 164.219 331.047 164.662 331.359C165.111 331.665 165.453 332.059 165.688 332.541C165.922 333.016 166.039 333.553 166.039 334.152C166.039 334.914 165.824 335.604 165.395 336.223C164.971 336.835 164.385 337.316 163.637 337.668C162.888 338.02 162.048 338.195 161.117 338.195ZM182.27 332.473H180.727V331.516H177.211V330.5H180.727V322.238H182.27V332.473ZM169.193 328.781C173.327 328.781 176.697 328.638 179.301 328.352L179.398 329.348C177.816 329.576 176.085 329.732 174.203 329.816V332.531H172.699V329.875C171.605 329.914 170.062 329.934 168.07 329.934L167.895 328.781H169.193ZM169.242 325.188C169.242 324.654 169.418 324.191 169.77 323.801C170.128 323.404 170.632 323.101 171.283 322.893C171.934 322.678 172.693 322.57 173.559 322.57C174.418 322.57 175.17 322.678 175.814 322.893C176.465 323.101 176.97 323.404 177.328 323.801C177.686 324.191 177.868 324.654 177.875 325.188C177.868 325.721 177.686 326.184 177.328 326.574C176.97 326.965 176.465 327.264 175.814 327.473C175.17 327.681 174.418 327.785 173.559 327.785C172.686 327.785 171.924 327.681 171.273 327.473C170.629 327.264 170.128 326.965 169.77 326.574C169.418 326.184 169.242 325.721 169.242 325.188ZM170.551 333.098H182.27V336.691H172.133V338.254H182.836V339.387H170.629V335.617H180.746V334.211H170.551V333.098ZM170.688 325.188C170.688 325.493 170.805 325.764 171.039 325.998C171.273 326.226 171.609 326.405 172.045 326.535C172.481 326.665 172.986 326.73 173.559 326.73C174.125 326.73 174.623 326.665 175.053 326.535C175.489 326.405 175.827 326.226 176.068 325.998C176.309 325.764 176.43 325.493 176.43 325.188C176.43 324.882 176.309 324.615 176.068 324.387C175.834 324.152 175.502 323.97 175.072 323.84C174.649 323.71 174.158 323.645 173.598 323.645C173.012 323.645 172.497 323.71 172.055 323.84C171.618 323.964 171.28 324.143 171.039 324.377C170.805 324.605 170.688 324.875 170.688 325.188ZM195.492 338.195C194.652 338.195 193.887 338.036 193.197 337.717C192.514 337.391 191.967 336.945 191.557 336.379C191.153 335.806 190.935 335.161 190.902 334.445H192.602C192.641 334.862 192.794 335.236 193.061 335.568C193.327 335.9 193.673 336.164 194.096 336.359C194.525 336.555 194.991 336.652 195.492 336.652C196.098 336.652 196.638 336.516 197.113 336.242C197.595 335.969 197.973 335.594 198.246 335.119C198.52 334.644 198.656 334.113 198.656 333.527C198.656 332.922 198.513 332.378 198.227 331.896C197.947 331.408 197.556 331.024 197.055 330.744C196.56 330.464 196 330.324 195.375 330.324C194.105 330.305 193.227 330.728 192.738 331.594H191.039L192.035 323.859H199.691V325.422H193.5L192.973 329.562H193.109C193.435 329.315 193.822 329.117 194.271 328.967C194.727 328.817 195.199 328.742 195.688 328.742C196.573 328.742 197.37 328.947 198.08 329.357C198.796 329.761 199.356 330.324 199.76 331.047C200.17 331.77 200.375 332.583 200.375 333.488C200.375 334.387 200.163 335.194 199.74 335.91C199.317 336.626 198.734 337.186 197.992 337.59C197.257 337.993 196.423 338.195 195.492 338.195ZM207.113 322.863C207.973 322.863 208.741 323.029 209.418 323.361C210.102 323.687 210.635 324.143 211.02 324.729C211.41 325.308 211.605 325.969 211.605 326.711C211.605 327.453 211.41 328.117 211.02 328.703C210.635 329.283 210.102 329.735 209.418 330.061C208.741 330.38 207.973 330.539 207.113 330.539C206.247 330.539 205.469 330.38 204.779 330.061C204.096 329.735 203.562 329.283 203.178 328.703C202.794 328.117 202.602 327.453 202.602 326.711C202.602 325.969 202.794 325.308 203.178 324.729C203.562 324.143 204.096 323.687 204.779 323.361C205.469 323.029 206.247 322.863 207.113 322.863ZM204.105 326.711C204.099 327.212 204.223 327.658 204.477 328.049C204.737 328.439 205.095 328.745 205.551 328.967C206.013 329.182 206.534 329.289 207.113 329.289C207.68 329.289 208.191 329.182 208.646 328.967C209.109 328.745 209.47 328.439 209.73 328.049C209.991 327.658 210.121 327.212 210.121 326.711C210.121 326.216 209.991 325.773 209.73 325.383C209.47 324.992 209.109 324.689 208.646 324.475C208.191 324.26 207.68 324.152 207.113 324.152C206.534 324.152 206.013 324.26 205.551 324.475C205.095 324.689 204.737 324.992 204.477 325.383C204.223 325.773 204.099 326.216 204.105 326.711ZM205.238 331.984H216.527V336.164H206.781V338.117H217.152V339.348H205.277V335.012H215.004V333.215H205.238V331.984ZM215.004 322.219H216.527V331.145H215.004V322.219ZM220.551 332.609C220.57 329.068 221.508 325.949 223.363 323.254H224.848C224.405 323.905 223.988 324.748 223.598 325.783C223.207 326.812 222.891 327.928 222.65 329.133C222.41 330.331 222.289 331.49 222.289 332.609C222.289 333.729 222.41 334.891 222.65 336.096C222.891 337.294 223.207 338.41 223.598 339.445C223.988 340.48 224.405 341.327 224.848 341.984H223.363C222.445 340.65 221.749 339.208 221.273 337.658C220.798 336.109 220.557 334.426 220.551 332.609ZM231.215 322.863C232.074 322.863 232.842 323.029 233.52 323.361C234.203 323.687 234.737 324.143 235.121 324.729C235.512 325.308 235.707 325.969 235.707 326.711C235.707 327.453 235.512 328.117 235.121 328.703C234.737 329.283 234.203 329.735 233.52 330.061C232.842 330.38 232.074 330.539 231.215 330.539C230.349 330.539 229.571 330.38 228.881 330.061C228.197 329.735 227.663 329.283 227.279 328.703C226.895 328.117 226.703 327.453 226.703 326.711C226.703 325.969 226.895 325.308 227.279 324.729C227.663 324.143 228.197 323.687 228.881 323.361C229.571 323.029 230.349 322.863 231.215 322.863ZM228.207 326.711C228.201 327.212 228.324 327.658 228.578 328.049C228.839 328.439 229.197 328.745 229.652 328.967C230.115 329.182 230.635 329.289 231.215 329.289C231.781 329.289 232.292 329.182 232.748 328.967C233.21 328.745 233.572 328.439 233.832 328.049C234.092 327.658 234.223 327.212 234.223 326.711C234.223 326.216 234.092 325.773 233.832 325.383C233.572 324.992 233.21 324.689 232.748 324.475C232.292 324.26 231.781 324.152 231.215 324.152C230.635 324.152 230.115 324.26 229.652 324.475C229.197 324.689 228.839 324.992 228.578 325.383C228.324 325.773 228.201 326.216 228.207 326.711ZM229.34 331.984H240.629V336.164H230.883V338.117H241.254V339.348H229.379V335.012H239.105V333.215H229.34V331.984ZM239.105 322.219H240.629V331.145H239.105V322.219ZM247.914 332.609C247.908 334.426 247.667 336.109 247.191 337.658C246.716 339.208 246.02 340.65 245.102 341.984H243.617C244.06 341.327 244.477 340.48 244.867 339.445C245.258 338.41 245.574 337.294 245.814 336.096C246.055 334.891 246.176 333.729 246.176 332.609C246.176 331.49 246.055 330.331 245.814 329.133C245.574 327.928 245.258 326.812 244.867 325.783C244.477 324.748 244.06 323.905 243.617 323.254H245.102C246.957 325.949 247.895 329.068 247.914 332.609Z" fill="white"/>
<path d="M365.309 312.711L370.133 307.633C370.764 306.956 371.246 306.412 371.578 306.002C371.917 305.585 372.174 305.185 372.35 304.801C372.525 304.417 372.613 304.013 372.613 303.59C372.613 303.115 372.49 302.698 372.242 302.34C371.995 301.975 371.656 301.692 371.227 301.49C370.803 301.288 370.328 301.188 369.801 301.188C369.247 301.188 368.762 301.301 368.346 301.529C367.929 301.751 367.607 302.06 367.379 302.457C367.158 302.854 367.047 303.316 367.047 303.844H365.387C365.38 303.023 365.569 302.298 365.953 301.666C366.344 301.035 366.881 300.543 367.564 300.191C368.248 299.84 369.013 299.664 369.859 299.664C370.699 299.664 371.451 299.837 372.115 300.182C372.786 300.527 373.31 300.999 373.688 301.598C374.065 302.197 374.254 302.861 374.254 303.59C374.247 304.13 374.146 304.648 373.951 305.143C373.762 305.631 373.437 306.174 372.975 306.773C372.512 307.372 371.858 308.108 371.012 308.98L367.77 312.32V312.438H374.508V314H365.328L365.309 312.711ZM381.695 314.195C380.654 314.195 379.762 313.912 379.02 313.346C378.284 312.779 377.721 311.952 377.33 310.865C376.946 309.778 376.754 308.466 376.754 306.93C376.754 305.413 376.946 304.111 377.33 303.023C377.721 301.93 378.287 301.096 379.029 300.523C379.771 299.951 380.66 299.664 381.695 299.664C382.724 299.664 383.609 299.951 384.352 300.523C385.094 301.096 385.66 301.93 386.051 303.023C386.441 304.111 386.637 305.413 386.637 306.93C386.637 308.466 386.441 309.778 386.051 310.865C385.667 311.952 385.104 312.779 384.361 313.346C383.626 313.912 382.737 314.195 381.695 314.195ZM378.453 306.93C378.453 308.141 378.58 309.173 378.834 310.025C379.094 310.878 379.465 311.526 379.947 311.969C380.429 312.411 381.012 312.633 381.695 312.633C382.372 312.633 382.952 312.411 383.434 311.969C383.922 311.526 384.29 310.878 384.537 310.025C384.791 309.173 384.918 308.141 384.918 306.93C384.918 305.719 384.791 304.684 384.537 303.824C384.283 302.965 383.915 302.311 383.434 301.861C382.952 301.412 382.372 301.188 381.695 301.188C381.018 301.188 380.439 301.412 379.957 301.861C379.475 302.311 379.104 302.965 378.844 303.824C378.583 304.684 378.453 305.719 378.453 306.93ZM388.961 312.711L393.785 307.633C394.417 306.956 394.898 306.412 395.23 306.002C395.569 305.585 395.826 305.185 396.002 304.801C396.178 304.417 396.266 304.013 396.266 303.59C396.266 303.115 396.142 302.698 395.895 302.34C395.647 301.975 395.309 301.692 394.879 301.49C394.456 301.288 393.98 301.188 393.453 301.188C392.9 301.188 392.415 301.301 391.998 301.529C391.581 301.751 391.259 302.06 391.031 302.457C390.81 302.854 390.699 303.316 390.699 303.844H389.039C389.033 303.023 389.221 302.298 389.605 301.666C389.996 301.035 390.533 300.543 391.217 300.191C391.9 299.84 392.665 299.664 393.512 299.664C394.352 299.664 395.104 299.837 395.768 300.182C396.438 300.527 396.962 300.999 397.34 301.598C397.717 302.197 397.906 302.861 397.906 303.59C397.9 304.13 397.799 304.648 397.604 305.143C397.415 305.631 397.089 306.174 396.627 306.773C396.165 307.372 395.51 308.108 394.664 308.98L391.422 312.32V312.438H398.16V314H388.98L388.961 312.711ZM405.602 314.195C404.671 314.195 403.837 314.039 403.102 313.727C402.366 313.414 401.783 312.975 401.354 312.408C400.93 311.835 400.706 311.181 400.68 310.445H402.457C402.49 310.888 402.646 311.275 402.926 311.607C403.206 311.933 403.577 312.187 404.039 312.369C404.501 312.545 405.016 312.633 405.582 312.633C406.201 312.633 406.754 312.529 407.242 312.32C407.73 312.112 408.111 311.819 408.385 311.441C408.665 311.064 408.805 310.634 408.805 310.152C408.798 309.638 408.661 309.182 408.395 308.785C408.128 308.388 407.734 308.079 407.213 307.857C406.699 307.63 406.083 307.516 405.367 307.516H404.215V305.973H405.367C405.934 305.973 406.438 305.872 406.881 305.67C407.324 305.468 407.665 305.185 407.906 304.82C408.154 304.449 408.277 304.026 408.277 303.551C408.277 303.082 408.17 302.672 407.955 302.32C407.74 301.962 407.434 301.686 407.037 301.49C406.64 301.288 406.174 301.188 405.641 301.188C405.133 301.194 404.654 301.288 404.205 301.471C403.762 301.646 403.401 301.904 403.121 302.242C402.848 302.574 402.698 302.965 402.672 303.414H400.973C400.999 302.685 401.223 302.037 401.646 301.471C402.076 300.898 402.643 300.455 403.346 300.143C404.055 299.824 404.827 299.664 405.66 299.664C406.533 299.664 407.294 299.837 407.945 300.182C408.603 300.527 409.107 300.989 409.459 301.568C409.811 302.148 409.983 302.776 409.977 303.453C409.983 304.247 409.771 304.928 409.342 305.494C408.912 306.054 408.323 306.441 407.574 306.656V306.754C408.18 306.845 408.704 307.047 409.146 307.359C409.596 307.665 409.938 308.059 410.172 308.541C410.406 309.016 410.523 309.553 410.523 310.152C410.523 310.914 410.309 311.604 409.879 312.223C409.456 312.835 408.87 313.316 408.121 313.668C407.372 314.02 406.533 314.195 405.602 314.195ZM426.832 311.09H425.289V305.074H420.289V303.844H425.289V301.754H420.289V300.523H425.289V298.238H426.832V311.09ZM413.473 299.488H415.016V307.203C416.311 307.197 417.545 307.148 418.717 307.057C419.895 306.965 421.109 306.806 422.359 306.578L422.516 307.848C421.207 308.095 419.947 308.264 418.736 308.355C417.532 308.447 416.214 308.499 414.781 308.512H413.473V299.488ZM415.641 309.996H417.184V313.922H427.301V315.211H415.641V309.996ZM439.996 314.195C438.954 314.195 438.062 313.912 437.32 313.346C436.585 312.779 436.021 311.952 435.631 310.865C435.247 309.778 435.055 308.466 435.055 306.93C435.055 305.413 435.247 304.111 435.631 303.023C436.021 301.93 436.588 301.096 437.33 300.523C438.072 299.951 438.961 299.664 439.996 299.664C441.025 299.664 441.91 299.951 442.652 300.523C443.395 301.096 443.961 301.93 444.352 303.023C444.742 304.111 444.938 305.413 444.938 306.93C444.938 308.466 444.742 309.778 444.352 310.865C443.967 311.952 443.404 312.779 442.662 313.346C441.926 313.912 441.038 314.195 439.996 314.195ZM436.754 306.93C436.754 308.141 436.881 309.173 437.135 310.025C437.395 310.878 437.766 311.526 438.248 311.969C438.73 312.411 439.312 312.633 439.996 312.633C440.673 312.633 441.253 312.411 441.734 311.969C442.223 311.526 442.59 310.878 442.838 310.025C443.092 309.173 443.219 308.141 443.219 306.93C443.219 305.719 443.092 304.684 442.838 303.824C442.584 302.965 442.216 302.311 441.734 301.861C441.253 301.412 440.673 301.188 439.996 301.188C439.319 301.188 438.74 301.412 438.258 301.861C437.776 302.311 437.405 302.965 437.145 303.824C436.884 304.684 436.754 305.719 436.754 306.93ZM452.164 314.195C451.233 314.195 450.4 314.039 449.664 313.727C448.928 313.414 448.346 312.975 447.916 312.408C447.493 311.835 447.268 311.181 447.242 310.445H449.02C449.052 310.888 449.208 311.275 449.488 311.607C449.768 311.933 450.139 312.187 450.602 312.369C451.064 312.545 451.578 312.633 452.145 312.633C452.763 312.633 453.316 312.529 453.805 312.32C454.293 312.112 454.674 311.819 454.947 311.441C455.227 311.064 455.367 310.634 455.367 310.152C455.361 309.638 455.224 309.182 454.957 308.785C454.69 308.388 454.296 308.079 453.775 307.857C453.261 307.63 452.646 307.516 451.93 307.516H450.777V305.973H451.93C452.496 305.973 453.001 305.872 453.443 305.67C453.886 305.468 454.228 305.185 454.469 304.82C454.716 304.449 454.84 304.026 454.84 303.551C454.84 303.082 454.732 302.672 454.518 302.32C454.303 301.962 453.997 301.686 453.6 301.49C453.202 301.288 452.737 301.188 452.203 301.188C451.695 301.194 451.217 301.288 450.768 301.471C450.325 301.646 449.964 301.904 449.684 302.242C449.41 302.574 449.26 302.965 449.234 303.414H447.535C447.561 302.685 447.786 302.037 448.209 301.471C448.639 300.898 449.205 300.455 449.908 300.143C450.618 299.824 451.389 299.664 452.223 299.664C453.095 299.664 453.857 299.837 454.508 300.182C455.165 300.527 455.67 300.989 456.021 301.568C456.373 302.148 456.546 302.776 456.539 303.453C456.546 304.247 456.334 304.928 455.904 305.494C455.475 306.054 454.885 306.441 454.137 306.656V306.754C454.742 306.845 455.266 307.047 455.709 307.359C456.158 307.665 456.5 308.059 456.734 308.541C456.969 309.016 457.086 309.553 457.086 310.152C457.086 310.914 456.871 311.604 456.441 312.223C456.018 312.835 455.432 313.316 454.684 313.668C453.935 314.02 453.095 314.195 452.164 314.195ZM473.316 308.473H471.773V307.516H468.258V306.5H471.773V298.238H473.316V308.473ZM460.24 304.781C464.374 304.781 467.743 304.638 470.348 304.352L470.445 305.348C468.863 305.576 467.132 305.732 465.25 305.816V308.531H463.746V305.875C462.652 305.914 461.109 305.934 459.117 305.934L458.941 304.781H460.24ZM460.289 301.188C460.289 300.654 460.465 300.191 460.816 299.801C461.174 299.404 461.679 299.101 462.33 298.893C462.981 298.678 463.74 298.57 464.605 298.57C465.465 298.57 466.217 298.678 466.861 298.893C467.512 299.101 468.017 299.404 468.375 299.801C468.733 300.191 468.915 300.654 468.922 301.188C468.915 301.721 468.733 302.184 468.375 302.574C468.017 302.965 467.512 303.264 466.861 303.473C466.217 303.681 465.465 303.785 464.605 303.785C463.733 303.785 462.971 303.681 462.32 303.473C461.676 303.264 461.174 302.965 460.816 302.574C460.465 302.184 460.289 301.721 460.289 301.188ZM461.598 309.098H473.316V312.691H463.18V314.254H473.883V315.387H461.676V311.617H471.793V310.211H461.598V309.098ZM461.734 301.188C461.734 301.493 461.852 301.764 462.086 301.998C462.32 302.226 462.656 302.405 463.092 302.535C463.528 302.665 464.033 302.73 464.605 302.73C465.172 302.73 465.67 302.665 466.1 302.535C466.536 302.405 466.874 302.226 467.115 301.998C467.356 301.764 467.477 301.493 467.477 301.188C467.477 300.882 467.356 300.615 467.115 300.387C466.881 300.152 466.549 299.97 466.119 299.84C465.696 299.71 465.204 299.645 464.645 299.645C464.059 299.645 463.544 299.71 463.102 299.84C462.665 299.964 462.327 300.143 462.086 300.377C461.852 300.605 461.734 300.875 461.734 301.188ZM486.91 314.195C485.992 314.195 485.143 313.99 484.361 313.58C483.587 313.163 482.949 312.457 482.447 311.461C481.946 310.458 481.695 309.13 481.695 307.477C481.695 305.823 481.91 304.413 482.34 303.248C482.776 302.076 483.395 301.188 484.195 300.582C485.003 299.97 485.96 299.664 487.066 299.664C487.88 299.664 488.613 299.824 489.264 300.143C489.915 300.455 490.445 300.895 490.855 301.461C491.272 302.027 491.539 302.678 491.656 303.414H489.918C489.749 302.757 489.42 302.229 488.932 301.832C488.443 301.428 487.822 301.227 487.066 301.227C486.292 301.227 485.624 301.441 485.064 301.871C484.511 302.294 484.088 302.91 483.795 303.717C483.502 304.524 483.355 305.491 483.355 306.617H483.531C483.941 306.025 484.459 305.566 485.084 305.24C485.715 304.908 486.409 304.742 487.164 304.742C487.997 304.742 488.766 304.944 489.469 305.348C490.172 305.751 490.732 306.311 491.148 307.027C491.565 307.737 491.773 308.538 491.773 309.43C491.773 310.315 491.572 311.119 491.168 311.842C490.764 312.564 490.191 313.137 489.449 313.561C488.714 313.984 487.867 314.195 486.91 314.195ZM483.59 309.469C483.59 310.022 483.73 310.543 484.01 311.031C484.296 311.52 484.687 311.913 485.182 312.213C485.683 312.506 486.24 312.652 486.852 312.652C487.451 312.652 487.994 312.509 488.482 312.223C488.971 311.93 489.358 311.539 489.645 311.051C489.931 310.562 490.074 310.029 490.074 309.449C490.074 308.876 489.934 308.349 489.654 307.867C489.381 307.385 489 307.001 488.512 306.715C488.03 306.428 487.49 306.285 486.891 306.285C486.285 306.285 485.732 306.435 485.23 306.734C484.729 307.027 484.332 307.418 484.039 307.906C483.746 308.395 483.596 308.915 483.59 309.469ZM498.492 298.863C499.352 298.863 500.12 299.029 500.797 299.361C501.48 299.687 502.014 300.143 502.398 300.729C502.789 301.308 502.984 301.969 502.984 302.711C502.984 303.453 502.789 304.117 502.398 304.703C502.014 305.283 501.48 305.735 500.797 306.061C500.12 306.38 499.352 306.539 498.492 306.539C497.626 306.539 496.848 306.38 496.158 306.061C495.475 305.735 494.941 305.283 494.557 304.703C494.173 304.117 493.98 303.453 493.98 302.711C493.98 301.969 494.173 301.308 494.557 300.729C494.941 300.143 495.475 299.687 496.158 299.361C496.848 299.029 497.626 298.863 498.492 298.863ZM495.484 302.711C495.478 303.212 495.602 303.658 495.855 304.049C496.116 304.439 496.474 304.745 496.93 304.967C497.392 305.182 497.913 305.289 498.492 305.289C499.059 305.289 499.57 305.182 500.025 304.967C500.488 304.745 500.849 304.439 501.109 304.049C501.37 303.658 501.5 303.212 501.5 302.711C501.5 302.216 501.37 301.773 501.109 301.383C500.849 300.992 500.488 300.689 500.025 300.475C499.57 300.26 499.059 300.152 498.492 300.152C497.913 300.152 497.392 300.26 496.93 300.475C496.474 300.689 496.116 300.992 495.855 301.383C495.602 301.773 495.478 302.216 495.484 302.711ZM496.617 307.984H507.906V312.164H498.16V314.117H508.531V315.348H496.656V311.012H506.383V309.215H496.617V307.984ZM506.383 298.219H507.906V307.145H506.383V298.219ZM511.93 308.609C511.949 305.068 512.887 301.949 514.742 299.254H516.227C515.784 299.905 515.367 300.748 514.977 301.783C514.586 302.812 514.27 303.928 514.029 305.133C513.788 306.331 513.668 307.49 513.668 308.609C513.668 309.729 513.788 310.891 514.029 312.096C514.27 313.294 514.586 314.41 514.977 315.445C515.367 316.48 515.784 317.327 516.227 317.984H514.742C513.824 316.65 513.128 315.208 512.652 313.658C512.177 312.109 511.936 310.426 511.93 308.609ZM531.988 308.473H530.445V307.516H526.93V306.5H530.445V298.238H531.988V308.473ZM518.912 304.781C523.046 304.781 526.415 304.638 529.02 304.352L529.117 305.348C527.535 305.576 525.803 305.732 523.922 305.816V308.531H522.418V305.875C521.324 305.914 519.781 305.934 517.789 305.934L517.613 304.781H518.912ZM518.961 301.188C518.961 300.654 519.137 300.191 519.488 299.801C519.846 299.404 520.351 299.101 521.002 298.893C521.653 298.678 522.411 298.57 523.277 298.57C524.137 298.57 524.889 298.678 525.533 298.893C526.184 299.101 526.689 299.404 527.047 299.801C527.405 300.191 527.587 300.654 527.594 301.188C527.587 301.721 527.405 302.184 527.047 302.574C526.689 302.965 526.184 303.264 525.533 303.473C524.889 303.681 524.137 303.785 523.277 303.785C522.405 303.785 521.643 303.681 520.992 303.473C520.348 303.264 519.846 302.965 519.488 302.574C519.137 302.184 518.961 301.721 518.961 301.188ZM520.27 309.098H531.988V312.691H521.852V314.254H532.555V315.387H520.348V311.617H530.465V310.211H520.27V309.098ZM520.406 301.188C520.406 301.493 520.523 301.764 520.758 301.998C520.992 302.226 521.327 302.405 521.764 302.535C522.2 302.665 522.704 302.73 523.277 302.73C523.844 302.73 524.342 302.665 524.771 302.535C525.208 302.405 525.546 302.226 525.787 301.998C526.028 301.764 526.148 301.493 526.148 301.188C526.148 300.882 526.028 300.615 525.787 300.387C525.553 300.152 525.221 299.97 524.791 299.84C524.368 299.71 523.876 299.645 523.316 299.645C522.73 299.645 522.216 299.71 521.773 299.84C521.337 299.964 520.999 300.143 520.758 300.377C520.523 300.605 520.406 300.875 520.406 301.188ZM539.293 308.609C539.286 310.426 539.046 312.109 538.57 313.658C538.095 315.208 537.398 316.65 536.48 317.984H534.996C535.439 317.327 535.855 316.48 536.246 315.445C536.637 314.41 536.952 313.294 537.193 312.096C537.434 310.891 537.555 309.729 537.555 308.609C537.555 307.49 537.434 306.331 537.193 305.133C536.952 303.928 536.637 302.812 536.246 301.783C535.855 300.748 535.439 299.905 534.996 299.254H536.48C538.336 301.949 539.273 305.068 539.293 308.609Z" fill="white"/>
<path d="M664.721 312.711L669.545 307.633C670.176 306.956 670.658 306.412 670.99 306.002C671.329 305.585 671.586 305.185 671.762 304.801C671.938 304.417 672.025 304.013 672.025 303.59C672.025 303.115 671.902 302.698 671.654 302.34C671.407 301.975 671.068 301.692 670.639 301.49C670.215 301.288 669.74 301.188 669.213 301.188C668.66 301.188 668.174 301.301 667.758 301.529C667.341 301.751 667.019 302.06 666.791 302.457C666.57 302.854 666.459 303.316 666.459 303.844H664.799C664.792 303.023 664.981 302.298 665.365 301.666C665.756 301.035 666.293 300.543 666.977 300.191C667.66 299.84 668.425 299.664 669.271 299.664C670.111 299.664 670.863 299.837 671.527 300.182C672.198 300.527 672.722 300.999 673.1 301.598C673.477 302.197 673.666 302.861 673.666 303.59C673.66 304.13 673.559 304.648 673.363 305.143C673.174 305.631 672.849 306.174 672.387 306.773C671.924 307.372 671.27 308.108 670.424 308.98L667.182 312.32V312.438H673.92V314H664.74L664.721 312.711ZM681.107 314.195C680.066 314.195 679.174 313.912 678.432 313.346C677.696 312.779 677.133 311.952 676.742 310.865C676.358 309.778 676.166 308.466 676.166 306.93C676.166 305.413 676.358 304.111 676.742 303.023C677.133 301.93 677.699 301.096 678.441 300.523C679.184 299.951 680.072 299.664 681.107 299.664C682.136 299.664 683.021 299.951 683.764 300.523C684.506 301.096 685.072 301.93 685.463 303.023C685.854 304.111 686.049 305.413 686.049 306.93C686.049 308.466 685.854 309.778 685.463 310.865C685.079 311.952 684.516 312.779 683.773 313.346C683.038 313.912 682.149 314.195 681.107 314.195ZM677.865 306.93C677.865 308.141 677.992 309.173 678.246 310.025C678.507 310.878 678.878 311.526 679.359 311.969C679.841 312.411 680.424 312.633 681.107 312.633C681.785 312.633 682.364 312.411 682.846 311.969C683.334 311.526 683.702 310.878 683.949 310.025C684.203 309.173 684.33 308.141 684.33 306.93C684.33 305.719 684.203 304.684 683.949 303.824C683.695 302.965 683.327 302.311 682.846 301.861C682.364 301.412 681.785 301.188 681.107 301.188C680.43 301.188 679.851 301.412 679.369 301.861C678.887 302.311 678.516 302.965 678.256 303.824C677.995 304.684 677.865 305.719 677.865 306.93ZM688.373 312.711L693.197 307.633C693.829 306.956 694.311 306.412 694.643 306.002C694.981 305.585 695.238 305.185 695.414 304.801C695.59 304.417 695.678 304.013 695.678 303.59C695.678 303.115 695.554 302.698 695.307 302.34C695.059 301.975 694.721 301.692 694.291 301.49C693.868 301.288 693.393 301.188 692.865 301.188C692.312 301.188 691.827 301.301 691.41 301.529C690.993 301.751 690.671 302.06 690.443 302.457C690.222 302.854 690.111 303.316 690.111 303.844H688.451C688.445 303.023 688.633 302.298 689.018 301.666C689.408 301.035 689.945 300.543 690.629 300.191C691.312 299.84 692.077 299.664 692.924 299.664C693.764 299.664 694.516 299.837 695.18 300.182C695.85 300.527 696.374 300.999 696.752 301.598C697.13 302.197 697.318 302.861 697.318 303.59C697.312 304.13 697.211 304.648 697.016 305.143C696.827 305.631 696.501 306.174 696.039 306.773C695.577 307.372 694.923 308.108 694.076 308.98L690.834 312.32V312.438H697.572V314H688.393L688.373 312.711ZM705.014 314.195C704.083 314.195 703.249 314.039 702.514 313.727C701.778 313.414 701.195 312.975 700.766 312.408C700.342 311.835 700.118 311.181 700.092 310.445H701.869C701.902 310.888 702.058 311.275 702.338 311.607C702.618 311.933 702.989 312.187 703.451 312.369C703.913 312.545 704.428 312.633 704.994 312.633C705.613 312.633 706.166 312.529 706.654 312.32C707.143 312.112 707.523 311.819 707.797 311.441C708.077 311.064 708.217 310.634 708.217 310.152C708.21 309.638 708.074 309.182 707.807 308.785C707.54 308.388 707.146 308.079 706.625 307.857C706.111 307.63 705.495 307.516 704.779 307.516H703.627V305.973H704.779C705.346 305.973 705.85 305.872 706.293 305.67C706.736 305.468 707.077 305.185 707.318 304.82C707.566 304.449 707.689 304.026 707.689 303.551C707.689 303.082 707.582 302.672 707.367 302.32C707.152 301.962 706.846 301.686 706.449 301.49C706.052 301.288 705.587 301.188 705.053 301.188C704.545 301.194 704.066 301.288 703.617 301.471C703.174 301.646 702.813 301.904 702.533 302.242C702.26 302.574 702.11 302.965 702.084 303.414H700.385C700.411 302.685 700.635 302.037 701.059 301.471C701.488 300.898 702.055 300.455 702.758 300.143C703.467 299.824 704.239 299.664 705.072 299.664C705.945 299.664 706.706 299.837 707.357 300.182C708.015 300.527 708.52 300.989 708.871 301.568C709.223 302.148 709.395 302.776 709.389 303.453C709.395 304.247 709.184 304.928 708.754 305.494C708.324 306.054 707.735 306.441 706.986 306.656V306.754C707.592 306.845 708.116 307.047 708.559 307.359C709.008 307.665 709.35 308.059 709.584 308.541C709.818 309.016 709.936 309.553 709.936 310.152C709.936 310.914 709.721 311.604 709.291 312.223C708.868 312.835 708.282 313.316 707.533 313.668C706.785 314.02 705.945 314.195 705.014 314.195ZM726.244 311.09H724.701V305.074H719.701V303.844H724.701V301.754H719.701V300.523H724.701V298.238H726.244V311.09ZM712.885 299.488H714.428V307.203C715.723 307.197 716.957 307.148 718.129 307.057C719.307 306.965 720.521 306.806 721.771 306.578L721.928 307.848C720.619 308.095 719.359 308.264 718.148 308.355C716.944 308.447 715.626 308.499 714.193 308.512H712.885V299.488ZM715.053 309.996H716.596V313.922H726.713V315.211H715.053V309.996ZM739.662 314.195C738.731 314.195 737.898 314.039 737.162 313.727C736.426 313.414 735.844 312.975 735.414 312.408C734.991 311.835 734.766 311.181 734.74 310.445H736.518C736.55 310.888 736.706 311.275 736.986 311.607C737.266 311.933 737.637 312.187 738.1 312.369C738.562 312.545 739.076 312.633 739.643 312.633C740.261 312.633 740.814 312.529 741.303 312.32C741.791 312.112 742.172 311.819 742.445 311.441C742.725 311.064 742.865 310.634 742.865 310.152C742.859 309.638 742.722 309.182 742.455 308.785C742.188 308.388 741.794 308.079 741.273 307.857C740.759 307.63 740.144 307.516 739.428 307.516H738.275V305.973H739.428C739.994 305.973 740.499 305.872 740.941 305.67C741.384 305.468 741.726 305.185 741.967 304.82C742.214 304.449 742.338 304.026 742.338 303.551C742.338 303.082 742.23 302.672 742.016 302.32C741.801 301.962 741.495 301.686 741.098 301.49C740.701 301.288 740.235 301.188 739.701 301.188C739.193 301.194 738.715 301.288 738.266 301.471C737.823 301.646 737.462 301.904 737.182 302.242C736.908 302.574 736.758 302.965 736.732 303.414H735.033C735.059 302.685 735.284 302.037 735.707 301.471C736.137 300.898 736.703 300.455 737.406 300.143C738.116 299.824 738.887 299.664 739.721 299.664C740.593 299.664 741.355 299.837 742.006 300.182C742.663 300.527 743.168 300.989 743.52 301.568C743.871 302.148 744.044 302.776 744.037 303.453C744.044 304.247 743.832 304.928 743.402 305.494C742.973 306.054 742.383 306.441 741.635 306.656V306.754C742.24 306.845 742.764 307.047 743.207 307.359C743.656 307.665 743.998 308.059 744.232 308.541C744.467 309.016 744.584 309.553 744.584 310.152C744.584 310.914 744.369 311.604 743.939 312.223C743.516 312.835 742.93 313.316 742.182 313.668C741.433 314.02 740.593 314.195 739.662 314.195ZM760.814 308.473H759.271V307.516H755.756V306.5H759.271V298.238H760.814V308.473ZM747.738 304.781C751.872 304.781 755.242 304.638 757.846 304.352L757.943 305.348C756.361 305.576 754.63 305.732 752.748 305.816V308.531H751.244V305.875C750.15 305.914 748.607 305.934 746.615 305.934L746.439 304.781H747.738ZM747.787 301.188C747.787 300.654 747.963 300.191 748.314 299.801C748.673 299.404 749.177 299.101 749.828 298.893C750.479 298.678 751.238 298.57 752.104 298.57C752.963 298.57 753.715 298.678 754.359 298.893C755.01 299.101 755.515 299.404 755.873 299.801C756.231 300.191 756.413 300.654 756.42 301.188C756.413 301.721 756.231 302.184 755.873 302.574C755.515 302.965 755.01 303.264 754.359 303.473C753.715 303.681 752.963 303.785 752.104 303.785C751.231 303.785 750.469 303.681 749.818 303.473C749.174 303.264 748.673 302.965 748.314 302.574C747.963 302.184 747.787 301.721 747.787 301.188ZM749.096 309.098H760.814V312.691H750.678V314.254H761.381V315.387H749.174V311.617H759.291V310.211H749.096V309.098ZM749.232 301.188C749.232 301.493 749.35 301.764 749.584 301.998C749.818 302.226 750.154 302.405 750.59 302.535C751.026 302.665 751.531 302.73 752.104 302.73C752.67 302.73 753.168 302.665 753.598 302.535C754.034 302.405 754.372 302.226 754.613 301.998C754.854 301.764 754.975 301.493 754.975 301.188C754.975 300.882 754.854 300.615 754.613 300.387C754.379 300.152 754.047 299.97 753.617 299.84C753.194 299.71 752.702 299.645 752.143 299.645C751.557 299.645 751.042 299.71 750.6 299.84C750.163 299.964 749.825 300.143 749.584 300.377C749.35 300.605 749.232 300.875 749.232 301.188ZM774.408 314.195C773.49 314.195 772.641 313.99 771.859 313.58C771.085 313.163 770.447 312.457 769.945 311.461C769.444 310.458 769.193 309.13 769.193 307.477C769.193 305.823 769.408 304.413 769.838 303.248C770.274 302.076 770.893 301.188 771.693 300.582C772.501 299.97 773.458 299.664 774.564 299.664C775.378 299.664 776.111 299.824 776.762 300.143C777.413 300.455 777.943 300.895 778.354 301.461C778.77 302.027 779.037 302.678 779.154 303.414H777.416C777.247 302.757 776.918 302.229 776.43 301.832C775.941 301.428 775.32 301.227 774.564 301.227C773.79 301.227 773.122 301.441 772.562 301.871C772.009 302.294 771.586 302.91 771.293 303.717C771 304.524 770.854 305.491 770.854 306.617H771.029C771.439 306.025 771.957 305.566 772.582 305.24C773.214 304.908 773.907 304.742 774.662 304.742C775.495 304.742 776.264 304.944 776.967 305.348C777.67 305.751 778.23 306.311 778.646 307.027C779.063 307.737 779.271 308.538 779.271 309.43C779.271 310.315 779.07 311.119 778.666 311.842C778.262 312.564 777.689 313.137 776.947 313.561C776.212 313.984 775.365 314.195 774.408 314.195ZM771.088 309.469C771.088 310.022 771.228 310.543 771.508 311.031C771.794 311.52 772.185 311.913 772.68 312.213C773.181 312.506 773.738 312.652 774.35 312.652C774.949 312.652 775.492 312.509 775.98 312.223C776.469 311.93 776.856 311.539 777.143 311.051C777.429 310.562 777.572 310.029 777.572 309.449C777.572 308.876 777.432 308.349 777.152 307.867C776.879 307.385 776.498 307.001 776.01 306.715C775.528 306.428 774.988 306.285 774.389 306.285C773.783 306.285 773.23 306.435 772.729 306.734C772.227 307.027 771.83 307.418 771.537 307.906C771.244 308.395 771.094 308.915 771.088 309.469ZM785.99 298.863C786.85 298.863 787.618 299.029 788.295 299.361C788.979 299.687 789.512 300.143 789.896 300.729C790.287 301.308 790.482 301.969 790.482 302.711C790.482 303.453 790.287 304.117 789.896 304.703C789.512 305.283 788.979 305.735 788.295 306.061C787.618 306.38 786.85 306.539 785.99 306.539C785.124 306.539 784.346 306.38 783.656 306.061C782.973 305.735 782.439 305.283 782.055 304.703C781.671 304.117 781.479 303.453 781.479 302.711C781.479 301.969 781.671 301.308 782.055 300.729C782.439 300.143 782.973 299.687 783.656 299.361C784.346 299.029 785.124 298.863 785.99 298.863ZM782.982 302.711C782.976 303.212 783.1 303.658 783.354 304.049C783.614 304.439 783.972 304.745 784.428 304.967C784.89 305.182 785.411 305.289 785.99 305.289C786.557 305.289 787.068 305.182 787.523 304.967C787.986 304.745 788.347 304.439 788.607 304.049C788.868 303.658 788.998 303.212 788.998 302.711C788.998 302.216 788.868 301.773 788.607 301.383C788.347 300.992 787.986 300.689 787.523 300.475C787.068 300.26 786.557 300.152 785.99 300.152C785.411 300.152 784.89 300.26 784.428 300.475C783.972 300.689 783.614 300.992 783.354 301.383C783.1 301.773 782.976 302.216 782.982 302.711ZM784.115 307.984H795.404V312.164H785.658V314.117H796.029V315.348H784.154V311.012H793.881V309.215H784.115V307.984ZM793.881 298.219H795.404V307.145H793.881V298.219ZM804.447 308.609C804.467 305.068 805.404 301.949 807.26 299.254H808.744C808.301 299.905 807.885 300.748 807.494 301.783C807.104 302.812 806.788 303.928 806.547 305.133C806.306 306.331 806.186 307.49 806.186 308.609C806.186 309.729 806.306 310.891 806.547 312.096C806.788 313.294 807.104 314.41 807.494 315.445C807.885 316.48 808.301 317.327 808.744 317.984H807.26C806.342 316.65 805.645 315.208 805.17 313.658C804.695 312.109 804.454 310.426 804.447 308.609ZM824.506 308.473H822.963V307.516H819.447V306.5H822.963V298.238H824.506V308.473ZM811.43 304.781C815.564 304.781 818.933 304.638 821.537 304.352L821.635 305.348C820.053 305.576 818.321 305.732 816.439 305.816V308.531H814.936V305.875C813.842 305.914 812.299 305.934 810.307 305.934L810.131 304.781H811.43ZM811.479 301.188C811.479 300.654 811.654 300.191 812.006 299.801C812.364 299.404 812.868 299.101 813.52 298.893C814.171 298.678 814.929 298.57 815.795 298.57C816.654 298.57 817.406 298.678 818.051 298.893C818.702 299.101 819.206 299.404 819.564 299.801C819.923 300.191 820.105 300.654 820.111 301.188C820.105 301.721 819.923 302.184 819.564 302.574C819.206 302.965 818.702 303.264 818.051 303.473C817.406 303.681 816.654 303.785 815.795 303.785C814.923 303.785 814.161 303.681 813.51 303.473C812.865 303.264 812.364 302.965 812.006 302.574C811.654 302.184 811.479 301.721 811.479 301.188ZM812.787 309.098H824.506V312.691H814.369V314.254H825.072V315.387H812.865V311.617H822.982V310.211H812.787V309.098ZM812.924 301.188C812.924 301.493 813.041 301.764 813.275 301.998C813.51 302.226 813.845 302.405 814.281 302.535C814.717 302.665 815.222 302.73 815.795 302.73C816.361 302.73 816.859 302.665 817.289 302.535C817.725 302.405 818.064 302.226 818.305 301.998C818.546 301.764 818.666 301.493 818.666 301.188C818.666 300.882 818.546 300.615 818.305 300.387C818.07 300.152 817.738 299.97 817.309 299.84C816.885 299.71 816.394 299.645 815.834 299.645C815.248 299.645 814.734 299.71 814.291 299.84C813.855 299.964 813.516 300.143 813.275 300.377C813.041 300.605 812.924 300.875 812.924 301.188ZM831.811 308.609C831.804 310.426 831.563 312.109 831.088 313.658C830.613 315.208 829.916 316.65 828.998 317.984H827.514C827.956 317.327 828.373 316.48 828.764 315.445C829.154 314.41 829.47 313.294 829.711 312.096C829.952 310.891 830.072 309.729 830.072 308.609C830.072 307.49 829.952 306.331 829.711 305.133C829.47 303.928 829.154 302.812 828.764 301.783C828.373 300.748 827.956 299.905 827.514 299.254H828.998C830.854 301.949 831.791 305.068 831.811 308.609ZM652.318 332.199C652.95 331.47 653.705 331.099 654.584 331.086C654.916 331.092 655.245 331.145 655.57 331.242C655.896 331.333 656.29 331.473 656.752 331.662C657.234 331.851 657.624 331.991 657.924 332.082C658.223 332.173 658.529 332.219 658.842 332.219C659.74 332.206 660.482 331.796 661.068 330.988V332.609C660.417 333.352 659.662 333.723 658.803 333.723C658.464 333.723 658.129 333.674 657.797 333.576C657.465 333.479 657.071 333.335 656.615 333.146C656.127 332.958 655.733 332.818 655.434 332.727C655.141 332.635 654.838 332.59 654.525 332.59C653.646 332.603 652.911 333.013 652.318 333.82V332.199ZM669.291 336.711L674.115 331.633C674.747 330.956 675.229 330.412 675.561 330.002C675.899 329.585 676.156 329.185 676.332 328.801C676.508 328.417 676.596 328.013 676.596 327.59C676.596 327.115 676.472 326.698 676.225 326.34C675.977 325.975 675.639 325.692 675.209 325.49C674.786 325.288 674.311 325.188 673.783 325.188C673.23 325.188 672.745 325.301 672.328 325.529C671.911 325.751 671.589 326.06 671.361 326.457C671.14 326.854 671.029 327.316 671.029 327.844H669.369C669.363 327.023 669.551 326.298 669.936 325.666C670.326 325.035 670.863 324.543 671.547 324.191C672.23 323.84 672.995 323.664 673.842 323.664C674.682 323.664 675.434 323.837 676.098 324.182C676.768 324.527 677.292 324.999 677.67 325.598C678.048 326.197 678.236 326.861 678.236 327.59C678.23 328.13 678.129 328.648 677.934 329.143C677.745 329.631 677.419 330.174 676.957 330.773C676.495 331.372 675.84 332.108 674.994 332.98L671.752 336.32V336.438H678.49V338H669.311L669.291 336.711ZM685.678 338.195C684.636 338.195 683.744 337.912 683.002 337.346C682.266 336.779 681.703 335.952 681.312 334.865C680.928 333.778 680.736 332.466 680.736 330.93C680.736 329.413 680.928 328.111 681.312 327.023C681.703 325.93 682.27 325.096 683.012 324.523C683.754 323.951 684.643 323.664 685.678 323.664C686.706 323.664 687.592 323.951 688.334 324.523C689.076 325.096 689.643 325.93 690.033 327.023C690.424 328.111 690.619 329.413 690.619 330.93C690.619 332.466 690.424 333.778 690.033 334.865C689.649 335.952 689.086 336.779 688.344 337.346C687.608 337.912 686.719 338.195 685.678 338.195ZM682.436 330.93C682.436 332.141 682.562 333.173 682.816 334.025C683.077 334.878 683.448 335.526 683.93 335.969C684.411 336.411 684.994 336.633 685.678 336.633C686.355 336.633 686.934 336.411 687.416 335.969C687.904 335.526 688.272 334.878 688.52 334.025C688.773 333.173 688.9 332.141 688.9 330.93C688.9 329.719 688.773 328.684 688.52 327.824C688.266 326.965 687.898 326.311 687.416 325.861C686.934 325.412 686.355 325.188 685.678 325.188C685.001 325.188 684.421 325.412 683.939 325.861C683.458 326.311 683.087 326.965 682.826 327.824C682.566 328.684 682.436 329.719 682.436 330.93ZM692.943 336.711L697.768 331.633C698.399 330.956 698.881 330.412 699.213 330.002C699.551 329.585 699.809 329.185 699.984 328.801C700.16 328.417 700.248 328.013 700.248 327.59C700.248 327.115 700.124 326.698 699.877 326.34C699.63 325.975 699.291 325.692 698.861 325.49C698.438 325.288 697.963 325.188 697.436 325.188C696.882 325.188 696.397 325.301 695.98 325.529C695.564 325.751 695.242 326.06 695.014 326.457C694.792 326.854 694.682 327.316 694.682 327.844H693.021C693.015 327.023 693.204 326.298 693.588 325.666C693.979 325.035 694.516 324.543 695.199 324.191C695.883 323.84 696.648 323.664 697.494 323.664C698.334 323.664 699.086 323.837 699.75 324.182C700.421 324.527 700.945 324.999 701.322 325.598C701.7 326.197 701.889 326.861 701.889 327.59C701.882 328.13 701.781 328.648 701.586 329.143C701.397 329.631 701.072 330.174 700.609 330.773C700.147 331.372 699.493 332.108 698.646 332.98L695.404 336.32V336.438H702.143V338H692.963L692.943 336.711ZM709.584 338.195C708.653 338.195 707.82 338.039 707.084 337.727C706.348 337.414 705.766 336.975 705.336 336.408C704.913 335.835 704.688 335.181 704.662 334.445H706.439C706.472 334.888 706.628 335.275 706.908 335.607C707.188 335.933 707.559 336.187 708.021 336.369C708.484 336.545 708.998 336.633 709.564 336.633C710.183 336.633 710.736 336.529 711.225 336.32C711.713 336.112 712.094 335.819 712.367 335.441C712.647 335.064 712.787 334.634 712.787 334.152C712.781 333.638 712.644 333.182 712.377 332.785C712.11 332.388 711.716 332.079 711.195 331.857C710.681 331.63 710.066 331.516 709.35 331.516H708.197V329.973H709.35C709.916 329.973 710.421 329.872 710.863 329.67C711.306 329.468 711.648 329.185 711.889 328.82C712.136 328.449 712.26 328.026 712.26 327.551C712.26 327.082 712.152 326.672 711.938 326.32C711.723 325.962 711.417 325.686 711.02 325.49C710.622 325.288 710.157 325.188 709.623 325.188C709.115 325.194 708.637 325.288 708.188 325.471C707.745 325.646 707.383 325.904 707.104 326.242C706.83 326.574 706.68 326.965 706.654 327.414H704.955C704.981 326.685 705.206 326.037 705.629 325.471C706.059 324.898 706.625 324.455 707.328 324.143C708.038 323.824 708.809 323.664 709.643 323.664C710.515 323.664 711.277 323.837 711.928 324.182C712.585 324.527 713.09 324.989 713.441 325.568C713.793 326.148 713.965 326.776 713.959 327.453C713.965 328.247 713.754 328.928 713.324 329.494C712.895 330.054 712.305 330.441 711.557 330.656V330.754C712.162 330.845 712.686 331.047 713.129 331.359C713.578 331.665 713.92 332.059 714.154 332.541C714.389 333.016 714.506 333.553 714.506 334.152C714.506 334.914 714.291 335.604 713.861 336.223C713.438 336.835 712.852 337.316 712.104 337.668C711.355 338.02 710.515 338.195 709.584 338.195ZM730.814 335.09H729.271V329.074H724.271V327.844H729.271V325.754H724.271V324.523H729.271V322.238H730.814V335.09ZM717.455 323.488H718.998V331.203C720.294 331.197 721.527 331.148 722.699 331.057C723.878 330.965 725.092 330.806 726.342 330.578L726.498 331.848C725.189 332.095 723.93 332.264 722.719 332.355C721.514 332.447 720.196 332.499 718.764 332.512H717.455V323.488ZM719.623 333.996H721.166V337.922H731.283V339.211H719.623V333.996ZM744.232 338.195C743.301 338.195 742.468 338.039 741.732 337.727C740.997 337.414 740.414 336.975 739.984 336.408C739.561 335.835 739.337 335.181 739.311 334.445H741.088C741.12 334.888 741.277 335.275 741.557 335.607C741.837 335.933 742.208 336.187 742.67 336.369C743.132 336.545 743.646 336.633 744.213 336.633C744.831 336.633 745.385 336.529 745.873 336.32C746.361 336.112 746.742 335.819 747.016 335.441C747.296 335.064 747.436 334.634 747.436 334.152C747.429 333.638 747.292 333.182 747.025 332.785C746.758 332.388 746.365 332.079 745.844 331.857C745.329 331.63 744.714 331.516 743.998 331.516H742.846V329.973H743.998C744.564 329.973 745.069 329.872 745.512 329.67C745.954 329.468 746.296 329.185 746.537 328.82C746.785 328.449 746.908 328.026 746.908 327.551C746.908 327.082 746.801 326.672 746.586 326.32C746.371 325.962 746.065 325.686 745.668 325.49C745.271 325.288 744.805 325.188 744.271 325.188C743.764 325.194 743.285 325.288 742.836 325.471C742.393 325.646 742.032 325.904 741.752 326.242C741.479 326.574 741.329 326.965 741.303 327.414H739.604C739.63 326.685 739.854 326.037 740.277 325.471C740.707 324.898 741.273 324.455 741.977 324.143C742.686 323.824 743.458 323.664 744.291 323.664C745.163 323.664 745.925 323.837 746.576 324.182C747.234 324.527 747.738 324.989 748.09 325.568C748.441 326.148 748.614 326.776 748.607 327.453C748.614 328.247 748.402 328.928 747.973 329.494C747.543 330.054 746.954 330.441 746.205 330.656V330.754C746.811 330.845 747.335 331.047 747.777 331.359C748.227 331.665 748.568 332.059 748.803 332.541C749.037 333.016 749.154 333.553 749.154 334.152C749.154 334.914 748.939 335.604 748.51 336.223C748.087 336.835 747.501 337.316 746.752 337.668C746.003 338.02 745.163 338.195 744.232 338.195ZM765.385 332.473H763.842V331.516H760.326V330.5H763.842V322.238H765.385V332.473ZM752.309 328.781C756.443 328.781 759.812 328.638 762.416 328.352L762.514 329.348C760.932 329.576 759.2 329.732 757.318 329.816V332.531H755.814V329.875C754.721 329.914 753.178 329.934 751.186 329.934L751.01 328.781H752.309ZM752.357 325.188C752.357 324.654 752.533 324.191 752.885 323.801C753.243 323.404 753.747 323.101 754.398 322.893C755.049 322.678 755.808 322.57 756.674 322.57C757.533 322.57 758.285 322.678 758.93 322.893C759.581 323.101 760.085 323.404 760.443 323.801C760.801 324.191 760.984 324.654 760.99 325.188C760.984 325.721 760.801 326.184 760.443 326.574C760.085 326.965 759.581 327.264 758.93 327.473C758.285 327.681 757.533 327.785 756.674 327.785C755.801 327.785 755.04 327.681 754.389 327.473C753.744 327.264 753.243 326.965 752.885 326.574C752.533 326.184 752.357 325.721 752.357 325.188ZM753.666 333.098H765.385V336.691H755.248V338.254H765.951V339.387H753.744V335.617H763.861V334.211H753.666V333.098ZM753.803 325.188C753.803 325.493 753.92 325.764 754.154 325.998C754.389 326.226 754.724 326.405 755.16 326.535C755.596 326.665 756.101 326.73 756.674 326.73C757.24 326.73 757.738 326.665 758.168 326.535C758.604 326.405 758.943 326.226 759.184 325.998C759.424 325.764 759.545 325.493 759.545 325.188C759.545 324.882 759.424 324.615 759.184 324.387C758.949 324.152 758.617 323.97 758.188 323.84C757.764 323.71 757.273 323.645 756.713 323.645C756.127 323.645 755.613 323.71 755.17 323.84C754.734 323.964 754.395 324.143 754.154 324.377C753.92 324.605 753.803 324.875 753.803 325.188ZM778.998 338H777.221V325.695H777.143L773.705 327.98V326.203L777.221 323.859H778.998V338ZM787.396 338.195C786.355 338.195 785.463 337.912 784.721 337.346C783.985 336.779 783.422 335.952 783.031 334.865C782.647 333.778 782.455 332.466 782.455 330.93C782.455 329.413 782.647 328.111 783.031 327.023C783.422 325.93 783.988 325.096 784.73 324.523C785.473 323.951 786.361 323.664 787.396 323.664C788.425 323.664 789.311 323.951 790.053 324.523C790.795 325.096 791.361 325.93 791.752 327.023C792.143 328.111 792.338 329.413 792.338 330.93C792.338 332.466 792.143 333.778 791.752 334.865C791.368 335.952 790.805 336.779 790.062 337.346C789.327 337.912 788.438 338.195 787.396 338.195ZM784.154 330.93C784.154 332.141 784.281 333.173 784.535 334.025C784.796 334.878 785.167 335.526 785.648 335.969C786.13 336.411 786.713 336.633 787.396 336.633C788.074 336.633 788.653 336.411 789.135 335.969C789.623 335.526 789.991 334.878 790.238 334.025C790.492 333.173 790.619 332.141 790.619 330.93C790.619 329.719 790.492 328.684 790.238 327.824C789.984 326.965 789.617 326.311 789.135 325.861C788.653 325.412 788.074 325.188 787.396 325.188C786.719 325.188 786.14 325.412 785.658 325.861C785.176 326.311 784.805 326.965 784.545 327.824C784.285 328.684 784.154 329.719 784.154 330.93ZM798.979 322.863C799.838 322.863 800.606 323.029 801.283 323.361C801.967 323.687 802.501 324.143 802.885 324.729C803.275 325.308 803.471 325.969 803.471 326.711C803.471 327.453 803.275 328.117 802.885 328.703C802.501 329.283 801.967 329.735 801.283 330.061C800.606 330.38 799.838 330.539 798.979 330.539C798.113 330.539 797.335 330.38 796.645 330.061C795.961 329.735 795.427 329.283 795.043 328.703C794.659 328.117 794.467 327.453 794.467 326.711C794.467 325.969 794.659 325.308 795.043 324.729C795.427 324.143 795.961 323.687 796.645 323.361C797.335 323.029 798.113 322.863 798.979 322.863ZM795.971 326.711C795.964 327.212 796.088 327.658 796.342 328.049C796.602 328.439 796.96 328.745 797.416 328.967C797.878 329.182 798.399 329.289 798.979 329.289C799.545 329.289 800.056 329.182 800.512 328.967C800.974 328.745 801.335 328.439 801.596 328.049C801.856 327.658 801.986 327.212 801.986 326.711C801.986 326.216 801.856 325.773 801.596 325.383C801.335 324.992 800.974 324.689 800.512 324.475C800.056 324.26 799.545 324.152 798.979 324.152C798.399 324.152 797.878 324.26 797.416 324.475C796.96 324.689 796.602 324.992 796.342 325.383C796.088 325.773 795.964 326.216 795.971 326.711ZM797.104 331.984H808.393V336.164H798.646V338.117H809.018V339.348H797.143V335.012H806.869V333.215H797.104V331.984ZM806.869 322.219H808.393V331.145H806.869V322.219ZM817.436 332.609C817.455 329.068 818.393 325.949 820.248 323.254H821.732C821.29 323.905 820.873 324.748 820.482 325.783C820.092 326.812 819.776 327.928 819.535 329.133C819.294 330.331 819.174 331.49 819.174 332.609C819.174 333.729 819.294 334.891 819.535 336.096C819.776 337.294 820.092 338.41 820.482 339.445C820.873 340.48 821.29 341.327 821.732 341.984H820.248C819.33 340.65 818.633 339.208 818.158 337.658C817.683 336.109 817.442 334.426 817.436 332.609ZM836.986 324.445C836.986 325.383 836.96 326.229 836.908 326.984C836.856 327.733 836.729 328.586 836.527 329.543H839.076V330.812H823.178V329.543H834.984C835.18 328.677 835.307 327.889 835.365 327.18C835.43 326.464 835.463 325.721 835.463 324.953V324.445V324.426H825.189V323.156H836.986V324.445ZM825.131 333.215H837.064V339.348H825.131V333.215ZM835.541 338.098V334.426H826.654V338.098H835.541ZM844.799 332.609C844.792 334.426 844.551 336.109 844.076 337.658C843.601 339.208 842.904 340.65 841.986 341.984H840.502C840.945 341.327 841.361 340.48 841.752 339.445C842.143 338.41 842.458 337.294 842.699 336.096C842.94 334.891 843.061 333.729 843.061 332.609C843.061 331.49 842.94 330.331 842.699 329.133C842.458 327.928 842.143 326.812 841.752 325.783C841.361 324.748 840.945 323.905 840.502 323.254H841.986C843.842 325.949 844.779 329.068 844.799 332.609Z" fill="white"/>
<path d="M967.309 312.711L972.133 307.633C972.764 306.956 973.246 306.412 973.578 306.002C973.917 305.585 974.174 305.185 974.35 304.801C974.525 304.417 974.613 304.013 974.613 303.59C974.613 303.115 974.49 302.698 974.242 302.34C973.995 301.975 973.656 301.692 973.227 301.49C972.803 301.288 972.328 301.188 971.801 301.188C971.247 301.188 970.762 301.301 970.346 301.529C969.929 301.751 969.607 302.06 969.379 302.457C969.158 302.854 969.047 303.316 969.047 303.844H967.387C967.38 303.023 967.569 302.298 967.953 301.666C968.344 301.035 968.881 300.543 969.564 300.191C970.248 299.84 971.013 299.664 971.859 299.664C972.699 299.664 973.451 299.837 974.115 300.182C974.786 300.527 975.31 300.999 975.688 301.598C976.065 302.197 976.254 302.861 976.254 303.59C976.247 304.13 976.146 304.648 975.951 305.143C975.762 305.631 975.437 306.174 974.975 306.773C974.512 307.372 973.858 308.108 973.012 308.98L969.77 312.32V312.438H976.508V314H967.328L967.309 312.711ZM983.695 314.195C982.654 314.195 981.762 313.912 981.02 313.346C980.284 312.779 979.721 311.952 979.33 310.865C978.946 309.778 978.754 308.466 978.754 306.93C978.754 305.413 978.946 304.111 979.33 303.023C979.721 301.93 980.287 301.096 981.029 300.523C981.771 299.951 982.66 299.664 983.695 299.664C984.724 299.664 985.609 299.951 986.352 300.523C987.094 301.096 987.66 301.93 988.051 303.023C988.441 304.111 988.637 305.413 988.637 306.93C988.637 308.466 988.441 309.778 988.051 310.865C987.667 311.952 987.104 312.779 986.361 313.346C985.626 313.912 984.737 314.195 983.695 314.195ZM980.453 306.93C980.453 308.141 980.58 309.173 980.834 310.025C981.094 310.878 981.465 311.526 981.947 311.969C982.429 312.411 983.012 312.633 983.695 312.633C984.372 312.633 984.952 312.411 985.434 311.969C985.922 311.526 986.29 310.878 986.537 310.025C986.791 309.173 986.918 308.141 986.918 306.93C986.918 305.719 986.791 304.684 986.537 303.824C986.283 302.965 985.915 302.311 985.434 301.861C984.952 301.412 984.372 301.188 983.695 301.188C983.018 301.188 982.439 301.412 981.957 301.861C981.475 302.311 981.104 302.965 980.844 303.824C980.583 304.684 980.453 305.719 980.453 306.93ZM990.961 312.711L995.785 307.633C996.417 306.956 996.898 306.412 997.23 306.002C997.569 305.585 997.826 305.185 998.002 304.801C998.178 304.417 998.266 304.013 998.266 303.59C998.266 303.115 998.142 302.698 997.895 302.34C997.647 301.975 997.309 301.692 996.879 301.49C996.456 301.288 995.98 301.188 995.453 301.188C994.9 301.188 994.415 301.301 993.998 301.529C993.581 301.751 993.259 302.06 993.031 302.457C992.81 302.854 992.699 303.316 992.699 303.844H991.039C991.033 303.023 991.221 302.298 991.605 301.666C991.996 301.035 992.533 300.543 993.217 300.191C993.9 299.84 994.665 299.664 995.512 299.664C996.352 299.664 997.104 299.837 997.768 300.182C998.438 300.527 998.962 300.999 999.34 301.598C999.717 302.197 999.906 302.861 999.906 303.59C999.9 304.13 999.799 304.648 999.604 305.143C999.415 305.631 999.089 306.174 998.627 306.773C998.165 307.372 997.51 308.108 996.664 308.98L993.422 312.32V312.438H1000.16V314H990.98L990.961 312.711ZM1007.6 314.195C1006.67 314.195 1005.84 314.039 1005.1 313.727C1004.37 313.414 1003.78 312.975 1003.35 312.408C1002.93 311.835 1002.71 311.181 1002.68 310.445H1004.46C1004.49 310.888 1004.65 311.275 1004.93 311.607C1005.21 311.933 1005.58 312.187 1006.04 312.369C1006.5 312.545 1007.02 312.633 1007.58 312.633C1008.2 312.633 1008.75 312.529 1009.24 312.32C1009.73 312.112 1010.11 311.819 1010.38 311.441C1010.66 311.064 1010.8 310.634 1010.8 310.152C1010.8 309.638 1010.66 309.182 1010.39 308.785C1010.13 308.388 1009.73 308.079 1009.21 307.857C1008.7 307.63 1008.08 307.516 1007.37 307.516H1006.21V305.973H1007.37C1007.93 305.973 1008.44 305.872 1008.88 305.67C1009.32 305.468 1009.67 305.185 1009.91 304.82C1010.15 304.449 1010.28 304.026 1010.28 303.551C1010.28 303.082 1010.17 302.672 1009.96 302.32C1009.74 301.962 1009.43 301.686 1009.04 301.49C1008.64 301.288 1008.17 301.188 1007.64 301.188C1007.13 301.194 1006.65 301.288 1006.21 301.471C1005.76 301.646 1005.4 301.904 1005.12 302.242C1004.85 302.574 1004.7 302.965 1004.67 303.414H1002.97C1003 302.685 1003.22 302.037 1003.65 301.471C1004.08 300.898 1004.64 300.455 1005.35 300.143C1006.06 299.824 1006.83 299.664 1007.66 299.664C1008.53 299.664 1009.29 299.837 1009.95 300.182C1010.6 300.527 1011.11 300.989 1011.46 301.568C1011.81 302.148 1011.98 302.776 1011.98 303.453C1011.98 304.247 1011.77 304.928 1011.34 305.494C1010.91 306.054 1010.32 306.441 1009.57 306.656V306.754C1010.18 306.845 1010.7 307.047 1011.15 307.359C1011.6 307.665 1011.94 308.059 1012.17 308.541C1012.41 309.016 1012.52 309.553 1012.52 310.152C1012.52 310.914 1012.31 311.604 1011.88 312.223C1011.46 312.835 1010.87 313.316 1010.12 313.668C1009.37 314.02 1008.53 314.195 1007.6 314.195ZM1015.82 314.117C1015.6 314.117 1015.38 314.059 1015.19 313.941C1015 313.824 1014.85 313.671 1014.73 313.482C1014.62 313.287 1014.57 313.076 1014.57 312.848C1014.57 312.626 1014.62 312.421 1014.73 312.232C1014.85 312.037 1015 311.884 1015.19 311.773C1015.38 311.656 1015.6 311.598 1015.82 311.598C1016.05 311.598 1016.25 311.653 1016.44 311.764C1016.63 311.874 1016.79 312.024 1016.9 312.213C1017.02 312.402 1017.07 312.607 1017.07 312.828C1017.07 313.18 1016.95 313.482 1016.71 313.736C1016.47 313.984 1016.18 314.111 1015.82 314.117ZM1029.3 314.195C1028.26 314.195 1027.37 313.912 1026.62 313.346C1025.89 312.779 1025.33 311.952 1024.94 310.865C1024.55 309.778 1024.36 308.466 1024.36 306.93C1024.36 305.413 1024.55 304.111 1024.94 303.023C1025.33 301.93 1025.89 301.096 1026.63 300.523C1027.38 299.951 1028.27 299.664 1029.3 299.664C1030.33 299.664 1031.21 299.951 1031.96 300.523C1032.7 301.096 1033.27 301.93 1033.66 303.023C1034.05 304.111 1034.24 305.413 1034.24 306.93C1034.24 308.466 1034.05 309.778 1033.66 310.865C1033.27 311.952 1032.71 312.779 1031.97 313.346C1031.23 313.912 1030.34 314.195 1029.3 314.195ZM1026.06 306.93C1026.06 308.141 1026.19 309.173 1026.44 310.025C1026.7 310.878 1027.07 311.526 1027.55 311.969C1028.03 312.411 1028.62 312.633 1029.3 312.633C1029.98 312.633 1030.56 312.411 1031.04 311.969C1031.53 311.526 1031.9 310.878 1032.14 310.025C1032.4 309.173 1032.52 308.141 1032.52 306.93C1032.52 305.719 1032.4 304.684 1032.14 303.824C1031.89 302.965 1031.52 302.311 1031.04 301.861C1030.56 301.412 1029.98 301.188 1029.3 301.188C1028.62 301.188 1028.04 301.412 1027.56 301.861C1027.08 302.311 1026.71 302.965 1026.45 303.824C1026.19 304.684 1026.06 305.719 1026.06 306.93ZM1041.47 314.195C1040.54 314.195 1039.7 314.039 1038.97 313.727C1038.23 313.414 1037.65 312.975 1037.22 312.408C1036.8 311.835 1036.57 311.181 1036.55 310.445H1038.32C1038.36 310.888 1038.51 311.275 1038.79 311.607C1039.07 311.933 1039.44 312.187 1039.91 312.369C1040.37 312.545 1040.88 312.633 1041.45 312.633C1042.07 312.633 1042.62 312.529 1043.11 312.32C1043.6 312.112 1043.98 311.819 1044.25 311.441C1044.53 311.064 1044.67 310.634 1044.67 310.152C1044.67 309.638 1044.53 309.182 1044.26 308.785C1043.99 308.388 1043.6 308.079 1043.08 307.857C1042.57 307.63 1041.95 307.516 1041.23 307.516H1040.08V305.973H1041.23C1041.8 305.973 1042.31 305.872 1042.75 305.67C1043.19 305.468 1043.53 305.185 1043.77 304.82C1044.02 304.449 1044.14 304.026 1044.14 303.551C1044.14 303.082 1044.04 302.672 1043.82 302.32C1043.61 301.962 1043.3 301.686 1042.9 301.49C1042.51 301.288 1042.04 301.188 1041.51 301.188C1041 301.194 1040.52 301.288 1040.07 301.471C1039.63 301.646 1039.27 301.904 1038.99 302.242C1038.71 302.574 1038.57 302.965 1038.54 303.414H1036.84C1036.87 302.685 1037.09 302.037 1037.51 301.471C1037.94 300.898 1038.51 300.455 1039.21 300.143C1039.92 299.824 1040.69 299.664 1041.53 299.664C1042.4 299.664 1043.16 299.837 1043.81 300.182C1044.47 300.527 1044.97 300.989 1045.33 301.568C1045.68 302.148 1045.85 302.776 1045.84 303.453C1045.85 304.247 1045.64 304.928 1045.21 305.494C1044.78 306.054 1044.19 306.441 1043.44 306.656V306.754C1044.05 306.845 1044.57 307.047 1045.01 307.359C1045.46 307.665 1045.8 308.059 1046.04 308.541C1046.27 309.016 1046.39 309.553 1046.39 310.152C1046.39 310.914 1046.18 311.604 1045.75 312.223C1045.32 312.835 1044.74 313.316 1043.99 313.668C1043.24 314.02 1042.4 314.195 1041.47 314.195ZM1049.69 314.117C1049.46 314.117 1049.25 314.059 1049.06 313.941C1048.87 313.824 1048.71 313.671 1048.6 313.482C1048.49 313.287 1048.43 313.076 1048.44 312.848C1048.43 312.626 1048.49 312.421 1048.6 312.232C1048.71 312.037 1048.87 311.884 1049.06 311.773C1049.25 311.656 1049.46 311.598 1049.69 311.598C1049.91 311.598 1050.12 311.653 1050.31 311.764C1050.5 311.874 1050.65 312.024 1050.77 312.213C1050.88 312.402 1050.94 312.607 1050.94 312.828C1050.94 313.18 1050.82 313.482 1050.58 313.736C1050.34 313.984 1050.04 314.111 1049.69 314.117ZM1063.54 314H1061.76V301.695H1061.68L1058.25 303.98V302.203L1061.76 299.859H1063.54V314ZM1072.19 314.195C1071.26 314.195 1070.43 314.039 1069.69 313.727C1068.96 313.414 1068.37 312.975 1067.94 312.408C1067.52 311.835 1067.3 311.181 1067.27 310.445H1069.05C1069.08 310.888 1069.24 311.275 1069.52 311.607C1069.8 311.933 1070.17 312.187 1070.63 312.369C1071.09 312.545 1071.61 312.633 1072.17 312.633C1072.79 312.633 1073.34 312.529 1073.83 312.32C1074.32 312.112 1074.7 311.819 1074.97 311.441C1075.25 311.064 1075.39 310.634 1075.39 310.152C1075.39 309.638 1075.25 309.182 1074.98 308.785C1074.72 308.388 1074.32 308.079 1073.8 307.857C1073.29 307.63 1072.67 307.516 1071.96 307.516H1070.8V305.973H1071.96C1072.52 305.973 1073.03 305.872 1073.47 305.67C1073.91 305.468 1074.26 305.185 1074.5 304.82C1074.74 304.449 1074.87 304.026 1074.87 303.551C1074.87 303.082 1074.76 302.672 1074.54 302.32C1074.33 301.962 1074.02 301.686 1073.63 301.49C1073.23 301.288 1072.76 301.188 1072.23 301.188C1071.72 301.194 1071.24 301.288 1070.79 301.471C1070.35 301.646 1069.99 301.904 1069.71 302.242C1069.44 302.574 1069.29 302.965 1069.26 303.414H1067.56C1067.59 302.685 1067.81 302.037 1068.24 301.471C1068.67 300.898 1069.23 300.455 1069.94 300.143C1070.65 299.824 1071.42 299.664 1072.25 299.664C1073.12 299.664 1073.88 299.837 1074.54 300.182C1075.19 300.527 1075.7 300.989 1076.05 301.568C1076.4 302.148 1076.57 302.776 1076.57 303.453C1076.57 304.247 1076.36 304.928 1075.93 305.494C1075.5 306.054 1074.91 306.441 1074.16 306.656V306.754C1074.77 306.845 1075.29 307.047 1075.74 307.359C1076.19 307.665 1076.53 308.059 1076.76 308.541C1077 309.016 1077.11 309.553 1077.11 310.152C1077.11 310.914 1076.9 311.604 1076.47 312.223C1076.05 312.835 1075.46 313.316 1074.71 313.668C1073.96 314.02 1073.12 314.195 1072.19 314.195ZM1080.41 314.117C1080.19 314.117 1079.97 314.059 1079.78 313.941C1079.59 313.824 1079.44 313.671 1079.32 313.482C1079.21 313.287 1079.16 313.076 1079.16 312.848C1079.16 312.626 1079.21 312.421 1079.32 312.232C1079.44 312.037 1079.59 311.884 1079.78 311.773C1079.97 311.656 1080.19 311.598 1080.41 311.598C1080.64 311.598 1080.84 311.653 1081.03 311.764C1081.22 311.874 1081.38 312.024 1081.49 312.213C1081.61 312.402 1081.66 312.607 1081.66 312.828C1081.66 313.18 1081.54 313.482 1081.3 313.736C1081.06 313.984 1080.77 314.111 1080.41 314.117ZM1089.71 308.609C1089.73 305.068 1090.67 301.949 1092.52 299.254H1094.01C1093.57 299.905 1093.15 300.748 1092.76 301.783C1092.37 302.812 1092.05 303.928 1091.81 305.133C1091.57 306.331 1091.45 307.49 1091.45 308.609C1091.45 309.729 1091.57 310.891 1091.81 312.096C1092.05 313.294 1092.37 314.41 1092.76 315.445C1093.15 316.48 1093.57 317.327 1094.01 317.984H1092.52C1091.61 316.65 1090.91 315.208 1090.43 313.658C1089.96 312.109 1089.72 310.426 1089.71 308.609ZM1109.77 308.473H1108.23V307.516H1104.71V306.5H1108.23V298.238H1109.77V308.473ZM1096.69 304.781C1100.83 304.781 1104.2 304.638 1106.8 304.352L1106.9 305.348C1105.32 305.576 1103.58 305.732 1101.7 305.816V308.531H1100.2V305.875C1099.11 305.914 1097.56 305.934 1095.57 305.934L1095.39 304.781H1096.69ZM1096.74 301.188C1096.74 300.654 1096.92 300.191 1097.27 299.801C1097.63 299.404 1098.13 299.101 1098.78 298.893C1099.43 298.678 1100.19 298.57 1101.06 298.57C1101.92 298.57 1102.67 298.678 1103.31 298.893C1103.97 299.101 1104.47 299.404 1104.83 299.801C1105.19 300.191 1105.37 300.654 1105.38 301.188C1105.37 301.721 1105.19 302.184 1104.83 302.574C1104.47 302.965 1103.97 303.264 1103.31 303.473C1102.67 303.681 1101.92 303.785 1101.06 303.785C1100.19 303.785 1099.42 303.681 1098.77 303.473C1098.13 303.264 1097.63 302.965 1097.27 302.574C1096.92 302.184 1096.74 301.721 1096.74 301.188ZM1098.05 309.098H1109.77V312.691H1099.63V314.254H1110.34V315.387H1098.13V311.617H1108.25V310.211H1098.05V309.098ZM1098.19 301.188C1098.19 301.493 1098.3 301.764 1098.54 301.998C1098.77 302.226 1099.11 302.405 1099.54 302.535C1099.98 302.665 1100.49 302.73 1101.06 302.73C1101.62 302.73 1102.12 302.665 1102.55 302.535C1102.99 302.405 1103.33 302.226 1103.57 301.998C1103.81 301.764 1103.93 301.493 1103.93 301.188C1103.93 300.882 1103.81 300.615 1103.57 300.387C1103.33 300.152 1103 299.97 1102.57 299.84C1102.15 299.71 1101.66 299.645 1101.1 299.645C1100.51 299.645 1100 299.71 1099.55 299.84C1099.12 299.964 1098.78 300.143 1098.54 300.377C1098.3 300.605 1098.19 300.875 1098.19 301.188ZM1117.07 308.609C1117.07 310.426 1116.83 312.109 1116.35 313.658C1115.88 315.208 1115.18 316.65 1114.26 317.984H1112.78C1113.22 317.327 1113.64 316.48 1114.03 315.445C1114.42 314.41 1114.73 313.294 1114.97 312.096C1115.22 310.891 1115.34 309.729 1115.34 308.609C1115.34 307.49 1115.22 306.331 1114.97 305.133C1114.73 303.928 1114.42 302.812 1114.03 301.783C1113.64 300.748 1113.22 299.905 1112.78 299.254H1114.26C1116.12 301.949 1117.05 305.068 1117.07 308.609Z" fill="white"/>
<path d="M305.249 329C283.12 388.562 225.766 431 158.5 431C72.0674 431 2 360.933 2 274.5C2 188.067 72.0674 118 158.5 118C225.766 118 283.12 160.438 305.249 220H306.316C284.14 159.874 226.327 117 158.5 117C71.5152 117 1 187.515 1 274.5C1 361.485 71.5152 432 158.5 432C226.327 432 284.14 389.126 306.316 329H305.249Z" fill="white"/>
<path d="M600.249 329C578.12 388.562 520.766 431 453.5 431C386.234 431 328.88 388.562 306.751 329H305.684C327.86 389.126 385.673 432 453.5 432C521.327 432 579.14 389.126 601.316 329H600.249Z" fill="white"/>
<path d="M601.316 220C579.14 159.874 521.327 117 453.5 117C385.673 117 327.86 159.874 305.684 220H306.751C328.88 160.438 386.234 118 453.5 118C520.766 118 578.12 160.438 600.249 220H601.316Z" fill="white"/>
<path d="M1200 274.5C1200 360.933 1129.93 431 1043.5 431C976.234 431 918.88 388.562 896.751 329H895.684C917.86 389.126 975.673 432 1043.5 432C1130.48 432 1201 361.485 1201 274.5C1201 187.515 1130.48 117 1043.5 117C975.673 117 917.86 159.874 895.684 220H896.751C918.88 160.438 976.234 118 1043.5 118C1129.93 118 1200 188.067 1200 274.5Z" fill="white"/>
<path d="M895.249 329C873.12 388.562 815.766 431 748.5 431C681.234 431 623.88 388.562 601.751 329H600.684C622.86 389.126 680.673 432 748.5 432C816.327 432 874.14 389.126 896.316 329H895.249Z" fill="white"/>
<path d="M896.316 220C874.14 159.874 816.327 117 748.5 117C680.673 117 622.86 159.874 600.684 220H601.751C623.88 160.438 681.234 118 748.5 118C815.766 118 873.12 160.438 895.249 220H896.316Z" fill="white"/>
<path d="M111.594 220.875C111.604 222.708 111.859 224.458 112.359 226.125C112.859 227.792 113.625 229.271 114.656 230.562C115.698 231.844 116.979 232.812 118.5 233.469L116.062 236.656C114.521 235.906 113.208 234.859 112.125 233.516C111.052 232.161 110.208 230.578 109.594 228.766C108.958 230.703 108.083 232.396 106.969 233.844C105.854 235.281 104.51 236.385 102.938 237.156L100.438 233.906C102 233.198 103.312 232.167 104.375 230.812C105.448 229.458 106.245 227.927 106.766 226.219C107.286 224.5 107.552 222.719 107.562 220.875V216.625H111.594V220.875ZM115.312 223.375H120.906V214.438H124.844V242.938H120.906V226.594H115.312V223.375ZM154.5 234.25H148.5V242.875H144.469V234.25H138.531V242.875H134.562V234.25H128.469V231.125H154.5V234.25ZM131.469 215.281H151.5V223.562H135.594V225.875H152.156V229.062H131.562V220.656H147.406V218.531H131.469V215.281ZM187.5 230H183.531V224.062H179.031V220.812H183.531V214.438H187.5V230ZM163.375 227.375C164.812 226.896 166.031 226.224 167.031 225.359C168.031 224.484 168.792 223.5 169.312 222.406C169.833 221.312 170.13 220.167 170.203 218.969H164.5V215.719H179.938V218.969H174.297C174.359 220.062 174.635 221.125 175.125 222.156C175.625 223.177 176.354 224.099 177.312 224.922C178.271 225.745 179.438 226.385 180.812 226.844L178.844 229.906C177.312 229.406 175.995 228.672 174.891 227.703C173.797 226.734 172.932 225.594 172.297 224.281C171.641 225.75 170.734 227.021 169.578 228.094C168.432 229.167 167.042 229.969 165.406 230.5L163.375 227.375ZM168.531 231.094H172.469V233.781H183.531V231.094H187.5V242.562H168.531V231.094ZM183.531 239.375V236.844H172.469V239.375H183.531ZM206.281 216.656C206.271 217.812 206.651 218.948 207.422 220.062C208.203 221.167 209.344 222.125 210.844 222.938C212.344 223.74 214.135 224.271 216.219 224.531L214.656 227.75C212.219 227.396 210.099 226.688 208.297 225.625C206.505 224.552 205.135 223.229 204.188 221.656C203.229 223.229 201.854 224.552 200.062 225.625C198.281 226.688 196.188 227.396 193.781 227.75L192.188 224.531C194.25 224.271 196.026 223.74 197.516 222.938C199.016 222.125 200.151 221.167 200.922 220.062C201.693 218.948 202.083 217.812 202.094 216.656V215.281H206.281V216.656ZM191.188 229.906H217.125V233.156H206.062V242.875H202.125V233.156H191.188V229.906Z" fill="white"/>
<path d="M378.531 218.906H383.844V214.469H387.812V235.156H383.844V228.188H378.531V230.594H365.031V216.75H378.531V218.906ZM368.875 233.188H372.906V239.188H388.406V242.375H368.875V233.188ZM374.625 227.5V219.906H369V227.5H374.625ZM383.844 225.031V222.125H378.531V225.031H383.844ZM415.469 230H411.5V224.062H407V220.812H411.5V214.438H415.469V230ZM391.344 227.375C392.781 226.896 394 226.224 395 225.359C396 224.484 396.76 223.5 397.281 222.406C397.802 221.312 398.099 220.167 398.172 218.969H392.469V215.719H407.906V218.969H402.266C402.328 220.062 402.604 221.125 403.094 222.156C403.594 223.177 404.323 224.099 405.281 224.922C406.24 225.745 407.406 226.385 408.781 226.844L406.812 229.906C405.281 229.406 403.964 228.672 402.859 227.703C401.766 226.734 400.901 225.594 400.266 224.281C399.609 225.75 398.703 227.021 397.547 228.094C396.401 229.167 395.01 229.969 393.375 230.5L391.344 227.375ZM396.5 231.094H400.438V233.781H411.5V231.094H415.469V242.562H396.5V231.094ZM411.5 239.375V236.844H400.438V239.375H411.5ZM434.625 215.281C436.052 215.281 437.344 215.557 438.5 216.109C439.656 216.661 440.562 217.432 441.219 218.422C441.885 219.411 442.219 220.531 442.219 221.781C442.219 223.021 441.885 224.13 441.219 225.109C440.562 226.089 439.656 226.859 438.5 227.422C437.344 227.974 436.052 228.25 434.625 228.25C433.177 228.25 431.87 227.974 430.703 227.422C429.536 226.859 428.62 226.089 427.953 225.109C427.297 224.13 426.969 223.021 426.969 221.781C426.969 220.531 427.297 219.411 427.953 218.422C428.62 217.432 429.536 216.661 430.703 216.109C431.87 215.557 433.177 215.281 434.625 215.281ZM430.844 221.781C430.833 222.448 430.99 223.026 431.312 223.516C431.635 223.995 432.083 224.365 432.656 224.625C433.229 224.885 433.885 225.021 434.625 225.031C435.344 225.021 435.984 224.885 436.547 224.625C437.12 224.365 437.568 223.995 437.891 223.516C438.214 223.026 438.375 222.448 438.375 221.781C438.375 221.115 438.214 220.536 437.891 220.047C437.568 219.557 437.12 219.182 436.547 218.922C435.984 218.661 435.344 218.531 434.625 218.531C433.896 218.531 433.24 218.661 432.656 218.922C432.083 219.182 431.635 219.557 431.312 220.047C430.99 220.536 430.833 221.115 430.844 221.781ZM431.25 229.875H450.344V237.594H435.219V239.438H451.125V242.562H431.312V234.688H446.375V232.938H431.25V229.875ZM446.344 214.438H450.344V228.688H446.344V214.438ZM478.156 231.312H474.188V224.594H469.75V221.375H474.188V214.438H478.156V231.312ZM454 228.188C455.49 227.688 456.745 226.974 457.766 226.047C458.786 225.12 459.552 224.078 460.062 222.922C460.573 221.766 460.844 220.573 460.875 219.344H455.156V216.156H470.594V219.344H464.938C464.969 220.49 465.224 221.594 465.703 222.656C466.182 223.708 466.906 224.656 467.875 225.5C468.854 226.344 470.052 227 471.469 227.469L469.5 230.594C467.979 230.104 466.667 229.375 465.562 228.406C464.469 227.427 463.604 226.281 462.969 224.969C462.323 226.458 461.422 227.755 460.266 228.859C459.109 229.953 457.708 230.781 456.062 231.344L454 228.188ZM458.656 237.438C458.656 236.302 459.047 235.323 459.828 234.5C460.62 233.667 461.75 233.031 463.219 232.594C464.688 232.156 466.427 231.938 468.438 231.938C470.458 231.938 472.203 232.156 473.672 232.594C475.141 233.031 476.271 233.661 477.062 234.484C477.854 235.307 478.25 236.292 478.25 237.438C478.25 238.583 477.854 239.562 477.062 240.375C476.271 241.198 475.141 241.823 473.672 242.25C472.203 242.688 470.458 242.906 468.438 242.906C466.427 242.906 464.688 242.688 463.219 242.25C461.75 241.823 460.62 241.198 459.828 240.375C459.047 239.552 458.656 238.573 458.656 237.438ZM462.625 237.438C462.625 238.24 463.12 238.849 464.109 239.266C465.099 239.672 466.542 239.875 468.438 239.875C470.344 239.875 471.792 239.672 472.781 239.266C473.771 238.859 474.271 238.25 474.281 237.438C474.271 236.635 473.776 236.031 472.797 235.625C471.828 235.208 470.411 235 468.547 235C464.599 235 462.625 235.812 462.625 237.438ZM511.781 222.594H515.625V225.906H511.781V235.156H507.781V214.438H511.781V222.594ZM489.406 223.5C489.406 222.115 489.75 220.875 490.438 219.781C491.125 218.677 492.062 217.818 493.25 217.203C494.448 216.589 495.771 216.281 497.219 216.281C498.656 216.281 499.964 216.589 501.141 217.203C502.328 217.818 503.26 218.677 503.938 219.781C504.625 220.875 504.969 222.115 504.969 223.5C504.969 224.865 504.625 226.099 503.938 227.203C503.26 228.297 502.328 229.156 501.141 229.781C499.964 230.406 498.656 230.719 497.219 230.719C495.771 230.719 494.448 230.406 493.25 229.781C492.062 229.156 491.125 228.297 490.438 227.203C489.75 226.099 489.406 224.865 489.406 223.5ZM493.344 232.969H497.312V239.188H512.812V242.375H493.344V232.969ZM493.344 223.5C493.333 224.25 493.495 224.911 493.828 225.484C494.172 226.047 494.641 226.484 495.234 226.797C495.828 227.099 496.49 227.25 497.219 227.25C497.948 227.25 498.604 227.099 499.188 226.797C499.781 226.484 500.245 226.047 500.578 225.484C500.922 224.911 501.094 224.25 501.094 223.5C501.094 222.729 500.922 222.062 500.578 221.5C500.245 220.927 499.781 220.49 499.188 220.188C498.604 219.885 497.948 219.74 497.219 219.75C496.49 219.74 495.828 219.885 495.234 220.188C494.641 220.49 494.172 220.927 493.828 221.5C493.495 222.062 493.333 222.729 493.344 223.5ZM541.406 242.875H537.562V228.656H534.906V241.5H531.156V214.906H534.906V225.438H537.562V214.438H541.406V242.875ZM518.031 217.594H522.031V232.453C524.698 232.38 527.208 232.115 529.562 231.656L529.969 235.094C526.604 235.677 523.271 235.958 519.969 235.938H518.031V217.594Z" fill="white"/>
<path d="M736.531 218.906H741.844V214.469H745.812V235.156H741.844V228.188H736.531V230.594H723.031V216.75H736.531V218.906ZM726.875 233.188H730.906V239.188H746.406V242.375H726.875V233.188ZM732.625 227.5V219.906H727V227.5H732.625ZM741.844 225.031V222.125H736.531V225.031H741.844ZM773.469 230H769.5V224.062H765V220.812H769.5V214.438H773.469V230ZM749.344 227.375C750.781 226.896 752 226.224 753 225.359C754 224.484 754.76 223.5 755.281 222.406C755.802 221.312 756.099 220.167 756.172 218.969H750.469V215.719H765.906V218.969H760.266C760.328 220.062 760.604 221.125 761.094 222.156C761.594 223.177 762.323 224.099 763.281 224.922C764.24 225.745 765.406 226.385 766.781 226.844L764.812 229.906C763.281 229.406 761.964 228.672 760.859 227.703C759.766 226.734 758.901 225.594 758.266 224.281C757.609 225.75 756.703 227.021 755.547 228.094C754.401 229.167 753.01 229.969 751.375 230.5L749.344 227.375ZM754.5 231.094H758.438V233.781H769.5V231.094H773.469V242.562H754.5V231.094ZM769.5 239.375V236.844H758.438V239.375H769.5Z" fill="white"/>
<path d="M997.25 234.094C999.781 233.938 1002.08 233.708 1004.16 233.406L1004.47 236.312C1001.69 236.844 998.854 237.188 995.969 237.344C993.094 237.5 989.917 237.583 986.438 237.594L985.969 234.375C988.719 234.375 991.156 234.344 993.281 234.281V229.812H997.25V234.094ZM986.531 227.688C988.594 227.135 990.182 226.266 991.297 225.078C992.422 223.88 993.052 222.521 993.188 221H987.438V217.781H993.281V214.688H997.25V217.781H1003.12V221H997.312C997.406 221.948 997.714 222.844 998.234 223.688C998.755 224.521 999.5 225.26 1000.47 225.906C1001.44 226.552 1002.61 227.042 1004 227.375L1002.19 230.469C1000.56 230.062 999.167 229.427 998 228.562C996.844 227.688 995.932 226.641 995.266 225.422C994.63 226.703 993.734 227.797 992.578 228.703C991.432 229.609 990.042 230.271 988.406 230.688L986.531 227.688ZM1005.78 214.438H1009.75V242.938H1005.78V214.438ZM1028.41 228.031H1039.44V231.25H1013.5V228.031H1024.47V224.625H1028.41V228.031ZM1014.62 223.125C1016.32 222.969 1017.8 222.677 1019.05 222.25C1020.31 221.812 1021.31 221.297 1022.05 220.703C1022.8 220.099 1023.3 219.458 1023.55 218.781H1015.88V215.656H1037.09V218.781H1029.36C1029.6 219.458 1030.09 220.099 1030.84 220.703C1031.59 221.297 1032.6 221.812 1033.86 222.25C1035.12 222.677 1036.6 222.969 1038.31 223.125L1036.91 226.25C1034.28 225.99 1032.07 225.401 1030.28 224.484C1028.49 223.557 1027.21 222.391 1026.44 220.984C1025.67 222.391 1024.39 223.557 1022.61 224.484C1020.84 225.401 1018.65 225.99 1016.03 226.25L1014.62 223.125ZM1016.47 237.844C1016.47 236.771 1016.86 235.859 1017.66 235.109C1018.45 234.359 1019.59 233.792 1021.08 233.406C1022.58 233.01 1024.36 232.812 1026.44 232.812C1028.5 232.812 1030.27 233.01 1031.75 233.406C1033.23 233.792 1034.36 234.359 1035.14 235.109C1035.93 235.859 1036.33 236.771 1036.34 237.844C1036.33 238.917 1035.93 239.828 1035.14 240.578C1034.36 241.339 1033.23 241.911 1031.75 242.297C1030.27 242.682 1028.5 242.875 1026.44 242.875C1024.36 242.875 1022.58 242.682 1021.08 242.297C1019.59 241.911 1018.45 241.339 1017.66 240.578C1016.86 239.828 1016.47 238.917 1016.47 237.844ZM1020.53 237.844C1020.52 238.542 1021.01 239.062 1021.98 239.406C1022.96 239.74 1024.45 239.906 1026.44 239.906C1030.36 239.906 1032.33 239.219 1032.34 237.844C1032.33 236.51 1030.36 235.844 1026.44 235.844C1024.44 235.844 1022.95 236.01 1021.97 236.344C1021 236.667 1020.52 237.167 1020.53 237.844ZM1053.34 219.094H1059.16V215.719H1063.16V228.125H1049.38V215.719H1053.34V219.094ZM1052.22 229.969H1071.09V237.688H1056.19V239.531H1071.91V242.688H1052.28V234.844H1067.12V233.062H1052.22V229.969ZM1059.16 225V222.094H1053.34V225H1059.16ZM1067.09 214.438H1071.09V219.969H1074.94V223.188H1071.09V228.906H1067.09V214.438ZM1102.22 239.719H1076.19V236.531H1082.66V231.125H1078.34V227.906H1082.16V219.906H1078.22V216.719H1100.03V219.906H1096.03V227.906H1099.91V231.125H1095.62V236.531H1102.22V239.719ZM1092.09 227.906V219.906H1086.16V227.906H1092.09ZM1091.62 236.531V231.125H1086.66V236.531H1091.62Z" fill="white"/>
<path d="M1199.71 267.707C1200.1 267.316 1200.1 266.683 1199.71 266.293L1193.34 259.929C1192.95 259.538 1192.32 259.538 1191.93 259.929C1191.54 260.319 1191.54 260.953 1191.93 261.343L1197.59 267L1191.93 272.657C1191.54 273.047 1191.54 273.68 1191.93 274.071C1192.32 274.461 1192.95 274.461 1193.34 274.071L1199.71 267.707ZM2 268L1199 268L1199 266L2 266L2 268Z" fill="url(#paint0_linear_127_198)"/>
<defs>
<linearGradient id="paint0_linear_127_198" x1="1199" y1="267.944" x2="2" y2="267.944" gradientUnits="userSpaceOnUse">
<stop offset="0.3125" stop-color="#FF731D"/>
<stop offset="1" stop-color="white"/>
</linearGradient>
</defs>
</svg>
