<svg width="233" height="103" viewBox="0 0 233 103" fill="none" xmlns="http://www.w3.org/2000/svg">
<path d="M195 5.33333C195.222 5.02304 197.905 9.74669 198.048 10.0952C198.558 11.3427 199.006 12.2373 199.402 13.52C200.17 16.0075 200.994 18.5609 201.031 21.1679C201.053 22.6437 201.19 21.9018 201.6 20.9034C203.142 17.1542 205.532 13.5892 208.248 10.4897C211.199 7.12214 214.636 4.36878 219.085 2.9139C221.689 2.0626 224.276 2 227 2" stroke="#FF731D" stroke-width="3" stroke-linecap="round"/>
<path d="M2.70127 38.8511V62.6809H51.4709V38.8511H2.70127ZM20.5646 68.2128H1V76.7234H53.1721V68.2128H33.6076V64.383H20.5646V68.2128ZM15.7443 47.3617H38.4278V54.1702H15.7443V47.3617Z" fill="white"/>
<path d="M96.2709 60.1277V63.7447H70.7519V60.1277H57.7089V78H109.314V60.1277H96.2709ZM76.1392 49.0638L77.3301 47.3617H91.1671V39.2766H57.7089V47.3617H64.0035L55.9509 58.8511H69.2775L74.5514 51.3191L79.5418 58.8511H92.8684L86.4603 49.0638H76.1392ZM109.314 38H96.2709V58.8511H109.314V38ZM70.7519 69.4894H96.2709V71.8298H70.7519V69.4894Z" fill="white"/>
<path d="M164.889 38.8511H152.413V42.383H128.595V38.8511H116.119V55.4468H164.889V38.8511ZM114.418 57.5745V64.1702H135.684V68.2128H148.727V64.1702H166.59V57.5745H114.418ZM129.162 70.9787V65.8723H116.119V77.5745H164.889V70.9787H129.162ZM128.595 47.7021H152.413V50.1277H128.595V47.7021Z" fill="white"/>
<path d="M171.183 60.1277C171.183 72.1702 175.833 77.1489 187.912 77.1489C199.991 77.1489 204.642 72.1702 204.642 60.1277V55.8723C204.642 43.8298 199.991 38.8511 187.912 38.8511C175.833 38.8511 171.183 43.8298 171.183 55.8723V60.1277ZM220.463 44.1702V38H207.42V76.7234H220.463V69.2766H225V60.3404H220.463V53.1064H225V44.1702H220.463ZM192.166 59.7021C192.166 67.4468 191.031 69.0638 187.912 69.0638C184.793 69.0638 183.659 67.4468 183.659 59.7021V56.2979C183.659 48.5532 184.793 46.9362 187.912 46.9362C191.031 46.9362 192.166 48.5532 192.166 56.2979V59.7021Z" fill="white"/>
<path d="M0.999984 91.5561L232 82.0559" stroke="#FF731D" stroke-width="6"/>
<path d="M36.5002 95.2308L219.099 95.2308" stroke="#FF731D" stroke-width="6"/>
</svg>
