<svg width="1201" height="464" viewBox="0 0 1201 464" fill="none" xmlns="http://www.w3.org/2000/svg">
<path d="M22.1084 16.8738L23.9809 10.7805H35.6132V1.40615H2.13486V10.7805H10.6463L1 42.6531H14.3346L19.1578 26.6699L23.4135 42.6531H36.7481L29.9389 16.8738H22.1084ZM53.771 0H40.7201V42.6531H53.771V0Z" fill="white"/>
<path d="M110.514 0H97.4631V5.62459H93.0371C91.1079 2.39045 86.228 0 76.1845 0C62.3392 0 58.3104 4.49967 58.3104 9.60867C58.3104 14.7177 62.3392 19.2173 76.1845 19.2173C86.228 19.2173 91.1079 16.8738 93.0371 13.5928H97.4631V31.404H110.514V0ZM82.9936 29.0604H94.6259V21.0922H57.743V29.0604H70.5102V30.9352H59.4453V44.0593H110.514V36.0911H72.4962V33.2788H82.9936V29.0604ZM83.8448 9.60867C83.8448 10.9679 82.5964 11.7179 76.1845 11.7179C69.7725 11.7179 68.5242 10.9679 68.5242 9.60867C68.5242 8.2494 69.7725 7.49945 76.1845 7.49945C82.5964 7.49945 83.8448 8.2494 83.8448 9.60867Z" fill="white"/>
<path d="M137.183 1.40615V5.39023H127.537V1.40615H115.621V26.2481L149.099 23.9045V1.40615H137.183ZM165.838 35.9505C165.838 30.3259 159.086 27.1386 141.155 27.1386C123.224 27.1386 116.472 30.3259 116.472 35.9505C116.472 41.5751 123.224 44.7624 141.155 44.7624C159.086 44.7624 165.838 41.5751 165.838 35.9505ZM164.987 8.20253V0H151.936V26.2481H164.987V18.0456H169.527V8.20253H164.987ZM152.788 35.9505C152.788 37.0285 151.482 37.7316 141.155 37.7316C130.828 37.7316 129.523 37.0285 129.523 35.9505C129.523 34.8724 130.828 34.1694 141.155 34.1694C151.482 34.1694 152.788 34.8724 152.788 35.9505ZM127.537 13.3584H137.183V16.78L127.537 17.4362V13.3584Z" fill="white"/>
<path d="M224 0H210.949V7.03074H205.842V1.40615H193.926V5.15587H184.28V1.40615H172.364V22.9671L205.842 21.0922V15.9363H210.949V22.9671H224V0ZM210.949 24.3732V28.3573H185.415V24.3732H172.364V44.0593H224V24.3732H210.949ZM185.415 34.685H210.949V37.2629H185.415V34.685ZM184.28 11.7179H193.926V14.7645L184.28 15.2801V11.7179Z" fill="white"/>
<path d="M1.5 147.737C1.5 136.967 10.2304 128.237 21 128.237H361C371.77 128.237 380.5 136.967 380.5 147.737V444C380.5 454.77 371.77 463.5 361 463.5H21C10.2304 463.5 1.5 454.77 1.5 444V147.737Z" stroke="white"/>
<path d="M39.9219 303.41C38.8281 303.41 37.9297 302.511 37.9297 301.398C37.9297 300.304 38.8281 299.406 39.9219 299.406C41.0352 299.406 41.9336 300.304 41.9336 301.398C41.9336 302.511 41.0352 303.41 39.9219 303.41ZM61.3281 292.902V307.042H59.5508V294.738H59.4727L56.0352 297.023V295.246L59.5508 292.902H61.3281ZM70.2539 296.925C70.2539 299.699 72.0703 302.55 74.5898 303.761L73.6914 304.953C71.7773 304.015 70.2637 302.121 69.5508 299.875C68.7891 302.287 67.1777 304.308 65.1953 305.265L64.3164 304.074C66.8555 302.882 68.75 299.914 68.7695 296.925V295.539H64.7852V294.289H68.75V291.593H70.293V294.289H74.1992V295.539H70.2539V296.925ZM77.9102 291.261V298.39H80.8203V299.699H77.9102V308.625H76.3867V291.261H77.9102ZM92.8906 295.929C92.8906 299.074 94.9023 302.238 97.4219 303.39L96.5039 304.64C94.5312 303.625 92.9004 301.544 92.1289 299.074C91.3574 301.671 89.7266 303.898 87.7539 304.953L86.7578 303.722C89.2969 302.472 91.3281 299.132 91.3281 295.929V292.765H92.8906V295.929ZM101.172 291.261V308.664H99.6484V298.449H95.5273V297.199H99.6484V291.261H101.172ZM119.941 301.632V302.863H115.762V308.625H114.238V302.863H109.746V308.625H108.203V302.863H104.043V301.632H119.941ZM118.008 291.945V296.398H107.539V298.566H118.379V299.835H105.996V295.207H116.445V293.214H105.957V291.945H118.008ZM123.184 307.16C122.5 307.16 121.914 306.593 121.934 305.89C121.914 305.207 122.5 304.64 123.184 304.64C123.867 304.64 124.434 305.207 124.434 305.89C124.434 306.593 123.867 307.16 123.184 307.16ZM123.184 299.308C122.5 299.308 121.914 298.742 121.934 298.039C121.914 297.355 122.5 296.789 123.184 296.789C123.867 296.789 124.434 297.355 124.434 298.039C124.434 298.742 123.867 299.308 123.184 299.308ZM137.07 292.902V307.042H135.293V294.738H135.215L131.777 297.023V295.246L135.293 292.902H137.07ZM145.469 307.238C142.324 307.238 140.527 304.601 140.527 299.972C140.527 295.382 142.363 292.707 145.469 292.707C148.574 292.707 150.41 295.382 150.41 299.972C150.41 304.601 148.594 307.238 145.469 307.238ZM145.469 305.675C147.5 305.675 148.691 303.625 148.691 299.972C148.691 296.32 147.5 294.23 145.469 294.23C143.438 294.23 142.227 296.32 142.227 299.972C142.227 303.625 143.418 305.675 145.469 305.675ZM166.445 291.281V301.515H164.902V300.558H161.387V299.542H164.902V291.281H166.445ZM152.07 297.824C155.43 297.843 159.727 297.804 163.477 297.394L163.574 298.39C161.875 298.634 160.107 298.781 158.379 298.859V301.574H156.875V298.917C155.234 298.976 153.662 298.986 152.246 298.976L152.07 297.824ZM166.445 302.14V305.734H156.309V307.296H167.012V308.429H154.805V304.66H164.922V303.253H154.727V302.14H166.445ZM157.734 291.613C160.312 291.613 162.031 292.628 162.051 294.23C162.031 295.851 160.312 296.828 157.734 296.828C155.117 296.828 153.418 295.851 153.418 294.23C153.418 292.628 155.117 291.613 157.734 291.613ZM157.734 292.687C155.977 292.687 154.844 293.292 154.863 294.23C154.844 295.148 155.977 295.773 157.734 295.773C159.473 295.773 160.605 295.148 160.605 294.23C160.605 293.292 159.473 292.687 157.734 292.687ZM179.941 307.238C177.129 307.238 175.117 305.734 175.02 303.488H176.797C176.895 304.835 178.242 305.675 179.922 305.675C181.777 305.675 183.145 304.66 183.145 303.195C183.145 301.652 181.914 300.558 179.707 300.558H178.555V299.015H179.707C181.426 299.015 182.617 298.058 182.617 296.593C182.617 295.187 181.582 294.23 179.98 294.23C178.477 294.23 177.09 295.07 177.012 296.457H175.312C175.41 294.21 177.48 292.707 180 292.707C182.695 292.707 184.336 294.464 184.316 296.496C184.336 298.097 183.398 299.289 181.914 299.699V299.796C183.75 300.089 184.883 301.398 184.863 303.195C184.883 305.519 182.754 307.238 179.941 307.238ZM192.031 307.238C188.887 307.238 187.09 304.601 187.09 299.972C187.09 295.382 188.926 292.707 192.031 292.707C195.137 292.707 196.973 295.382 196.973 299.972C196.973 304.601 195.156 307.238 192.031 307.238ZM192.031 305.675C194.062 305.675 195.254 303.625 195.254 299.972C195.254 296.32 194.062 294.23 192.031 294.23C190 294.23 188.789 296.32 188.789 299.972C188.789 303.625 189.98 305.675 192.031 305.675ZM203.613 291.906C206.211 291.925 208.105 293.488 208.105 295.753C208.105 298.019 206.211 299.582 203.613 299.582C200.977 299.582 199.102 298.019 199.102 295.753C199.102 293.488 200.977 291.925 203.613 291.906ZM203.613 293.195C201.875 293.195 200.586 294.25 200.605 295.753C200.586 297.277 201.875 298.332 203.613 298.332C205.332 298.332 206.621 297.277 206.621 295.753C206.621 294.25 205.332 293.195 203.613 293.195ZM213.027 291.261V300.187H211.504V291.261H213.027ZM213.027 301.027V305.207H203.281V307.16H213.652V308.39H201.777V304.054H211.504V302.257H201.738V301.027H213.027ZM222.188 301.242C222.812 300.519 223.594 300.128 224.453 300.128C225.938 300.128 227.285 301.261 228.711 301.261C229.59 301.261 230.352 300.832 230.938 300.031V301.652C230.293 302.394 229.531 302.765 228.672 302.765C227.188 302.765 225.84 301.632 224.395 301.632C223.535 301.632 222.773 302.062 222.188 302.863V301.242ZM244.18 292.902V307.042H242.402V294.738H242.324L238.887 297.023V295.246L242.402 292.902H244.18ZM252.949 292.902V307.042H251.172V294.738H251.094L247.656 297.023V295.246L251.172 292.902H252.949ZM270.41 291.281V301.515H268.867V300.558H265.352V299.542H268.867V291.281H270.41ZM256.035 297.824C259.395 297.843 263.691 297.804 267.441 297.394L267.539 298.39C265.84 298.634 264.072 298.781 262.344 298.859V301.574H260.84V298.917C259.199 298.976 257.627 298.986 256.211 298.976L256.035 297.824ZM270.41 302.14V305.734H260.273V307.296H270.977V308.429H258.77V304.66H268.887V303.253H258.691V302.14H270.41ZM261.699 291.613C264.277 291.613 265.996 292.628 266.016 294.23C265.996 295.851 264.277 296.828 261.699 296.828C259.082 296.828 257.383 295.851 257.383 294.23C257.383 292.628 259.082 291.613 261.699 291.613ZM261.699 292.687C259.941 292.687 258.809 293.292 258.828 294.23C258.809 295.148 259.941 295.773 261.699 295.773C263.438 295.773 264.57 295.148 264.57 294.23C264.57 293.292 263.438 292.687 261.699 292.687ZM284.023 292.902V307.042H282.246V294.738H282.168L278.73 297.023V295.246L282.246 292.902H284.023ZM292.793 292.902V307.042H291.016V294.738H290.938L287.5 297.023V295.246L291.016 292.902H292.793ZM300.859 291.906C303.457 291.925 305.352 293.488 305.352 295.753C305.352 298.019 303.457 299.582 300.859 299.582C298.223 299.582 296.348 298.019 296.348 295.753C296.348 293.488 298.223 291.925 300.859 291.906ZM300.859 293.195C299.121 293.195 297.832 294.25 297.852 295.753C297.832 297.277 299.121 298.332 300.859 298.332C302.578 298.332 303.867 297.277 303.867 295.753C303.867 294.25 302.578 293.195 300.859 293.195ZM310.273 291.261V300.187H308.75V291.261H310.273ZM310.273 301.027V305.207H300.527V307.16H310.898V308.39H299.023V304.054H308.75V302.257H298.984V301.027H310.273ZM39.9219 331.41C38.8281 331.41 37.9297 330.511 37.9297 329.398C37.9297 328.304 38.8281 327.406 39.9219 327.406C41.0352 327.406 41.9336 328.304 41.9336 329.398C41.9336 330.511 41.0352 331.41 39.9219 331.41ZM64.4922 320.785V322.328H68.5547V319.281H70.0977V331.957H68.5547V327.328H64.4922V328.89H56.5234V320.785H64.4922ZM58.0469 322.054V327.66H62.9883V322.054H58.0469ZM70.4883 334.964V336.253H58.8672V330.824H60.4102V334.964H70.4883ZM64.4922 326.058H68.5547V323.617H64.4922V326.058ZM87.3633 319.261V328.695H85.8398V324.769H82.3242V323.48H85.8398V319.261H87.3633ZM77.7344 329.535V331.703H85.8398V329.535H87.3633V336.39H76.1914V329.535H77.7344ZM77.7344 335.14H85.8398V332.933H77.7344V335.14ZM79.0234 322.093C79.0234 324.32 80.7617 326.507 83.3008 327.386L82.5 328.578C80.5371 327.865 79.0234 326.41 78.2812 324.613C77.5293 326.625 75.9277 328.236 73.8672 328.988L73.0664 327.777C75.625 326.859 77.4805 324.554 77.4805 322.093V321.585H73.5547V320.316H82.9102V321.585H79.0234V322.093ZM110.137 319.261V336.625H108.672V327.523H106.113V335.726H104.707V319.652H106.113V326.253H108.672V319.261H110.137ZM102.441 321.39V322.66H97.4609V331.019C99.8535 331.009 101.514 330.921 103.438 330.531L103.574 331.82C101.484 332.25 99.707 332.328 97.0508 332.328H95.9375V321.39H102.441ZM118.379 322.074C118.379 324.437 120.176 326.605 122.695 327.464L121.855 328.675C119.932 327.972 118.418 326.537 117.656 324.73C116.914 326.771 115.371 328.382 113.34 329.164L112.52 327.933C115.117 326.957 116.855 324.632 116.875 321.957V320.16H118.379V322.074ZM126.152 319.261V323.792H128.77V325.082H126.152V329.828H124.629V319.261H126.152ZM120.586 330.277C124.16 330.277 126.309 331.429 126.309 333.421C126.309 335.453 124.16 336.585 120.586 336.585C117.012 336.585 114.824 335.453 114.824 333.421C114.824 331.429 117.012 330.277 120.586 330.277ZM120.586 331.507C117.969 331.507 116.348 332.23 116.367 333.421C116.348 334.652 117.969 335.355 120.586 335.375C123.223 335.355 124.824 334.652 124.824 333.421C124.824 332.23 123.223 331.507 120.586 331.507ZM135.742 324.593C135.723 327.386 137.734 330.453 140.254 331.644L139.375 332.855C137.422 331.908 135.771 329.837 135 327.484C134.199 330.042 132.451 332.289 130.508 333.285L129.57 332.074C132.07 330.863 134.219 327.562 134.238 324.593V322.328H130.195V321.058H139.648V322.328H135.742V324.593ZM143.301 319.261V326.292H146.211V327.601H143.301V336.625H141.777V319.261H143.301ZM160.02 330.238C163.75 330.238 166.113 331.41 166.113 333.421C166.113 335.414 163.75 336.585 160.02 336.585C156.309 336.585 153.945 335.414 153.945 333.421C153.945 331.41 156.309 330.238 160.02 330.238ZM160.02 331.41C157.246 331.429 155.449 332.191 155.469 333.421C155.449 334.632 157.246 335.375 160.02 335.375C162.793 335.375 164.57 334.632 164.59 333.421C164.57 332.191 162.793 331.429 160.02 331.41ZM165.977 320.16V321.625C165.977 323.031 165.977 324.437 165.488 326.234L163.984 326.058C164.453 324.261 164.453 322.992 164.453 321.625V321.41H154.062V320.16H165.977ZM167.988 327.367V328.617H152.188V327.367H158.73V324.007H160.234V327.367H167.988ZM175.664 324.593C175.664 327.542 177.812 330.531 180.371 331.644L179.512 332.855C177.48 331.927 175.723 329.925 174.922 327.523C174.102 330.072 172.354 332.289 170.371 333.285L169.453 332.074C171.934 330.882 174.102 327.601 174.121 324.593V322.328H170.02V321.058H179.805V322.328H175.664V324.593ZM183.77 319.261V336.625H182.227V319.261H183.77ZM193.594 335.16C192.91 335.16 192.324 334.593 192.344 333.89C192.324 333.207 192.91 332.64 193.594 332.64C194.277 332.64 194.844 333.207 194.844 333.89C194.844 334.593 194.277 335.16 193.594 335.16ZM193.594 327.308C192.91 327.308 192.324 326.742 192.344 326.039C192.324 325.355 192.91 324.789 193.594 324.789C194.277 324.789 194.844 325.355 194.844 326.039C194.844 326.742 194.277 327.308 193.594 327.308ZM207.48 320.902V335.042H205.703V322.738H205.625L202.188 325.023V323.246L205.703 320.902H207.48ZM216.25 320.902V335.042H214.473V322.738H214.395L210.957 325.023V323.246L214.473 320.902H216.25ZM233.711 319.281V329.515H232.168V328.558H228.652V327.542H232.168V319.281H233.711ZM219.336 325.824C222.695 325.843 226.992 325.804 230.742 325.394L230.84 326.39C229.141 326.634 227.373 326.781 225.645 326.859V329.574H224.141V326.917C222.5 326.976 220.928 326.986 219.512 326.976L219.336 325.824ZM233.711 330.14V333.734H223.574V335.296H234.277V336.429H222.07V332.66H232.188V331.253H221.992V330.14H233.711ZM225 319.613C227.578 319.613 229.297 320.628 229.316 322.23C229.297 323.851 227.578 324.828 225 324.828C222.383 324.828 220.684 323.851 220.684 322.23C220.684 320.628 222.383 319.613 225 319.613ZM225 320.687C223.242 320.687 222.109 321.292 222.129 322.23C222.109 323.148 223.242 323.773 225 323.773C226.738 323.773 227.871 323.148 227.871 322.23C227.871 321.292 226.738 320.687 225 320.687ZM247.324 320.902V335.042H245.547V322.738H245.469L242.031 325.023V323.246L245.547 320.902H247.324ZM251.094 335.042L251.074 333.753L255.898 328.675C257.578 326.898 258.379 325.941 258.379 324.632C258.379 323.187 257.148 322.23 255.566 322.23C253.887 322.23 252.812 323.304 252.812 324.886H251.152C251.133 322.386 253.066 320.707 255.625 320.707C258.184 320.707 260.02 322.425 260.02 324.632C260.02 326.214 259.277 327.445 256.777 330.023L253.535 333.363V333.48H260.273V335.042H251.094ZM267.129 319.906C269.727 319.925 271.621 321.488 271.621 323.753C271.621 326.019 269.727 327.582 267.129 327.582C264.492 327.582 262.617 326.019 262.617 323.753C262.617 321.488 264.492 319.925 267.129 319.906ZM267.129 321.195C265.391 321.195 264.102 322.25 264.121 323.753C264.102 325.277 265.391 326.332 267.129 326.332C268.848 326.332 270.137 325.277 270.137 323.753C270.137 322.25 268.848 321.195 267.129 321.195ZM276.543 319.261V328.187H275.02V319.261H276.543ZM276.543 329.027V333.207H266.797V335.16H277.168V336.39H265.293V332.054H275.02V330.257H265.254V329.027H276.543ZM39.9219 359.41C38.8281 359.41 37.9297 358.511 37.9297 357.398C37.9297 356.304 38.8281 355.406 39.9219 355.406C41.0352 355.406 41.9336 356.304 41.9336 357.398C41.9336 358.511 41.0352 359.41 39.9219 359.41ZM56.3281 363.042L56.3086 361.753L61.1328 356.675C62.8125 354.898 63.6133 353.941 63.6133 352.632C63.6133 351.187 62.3828 350.23 60.8008 350.23C59.1211 350.23 58.0469 351.304 58.0469 352.886H56.3867C56.3672 350.386 58.3008 348.707 60.8594 348.707C63.418 348.707 65.2539 350.425 65.2539 352.632C65.2539 354.214 64.5117 355.445 62.0117 358.023L58.7695 361.363V361.48H65.5078V363.042H56.3281ZM73.2227 352.925C73.2227 355.699 75.0391 358.55 77.5586 359.761L76.6602 360.953C74.7461 360.015 73.2324 358.121 72.5195 355.875C71.7578 358.287 70.1465 360.308 68.1641 361.265L67.2852 360.074C69.8242 358.882 71.7188 355.914 71.7383 352.925V351.539H67.7539V350.289H71.7188V347.593H73.2617V350.289H77.168V351.539H73.2227V352.925ZM80.8789 347.261V354.39H83.7891V355.699H80.8789V364.625H79.3555V347.261H80.8789ZM98.5352 348.785V350.328H102.598V347.281H104.141V359.957H102.598V355.328H98.5352V356.89H90.5664V348.785H98.5352ZM92.0898 350.054V355.66H97.0312V350.054H92.0898ZM104.531 362.964V364.253H92.9102V358.824H94.4531V362.964H104.531ZM98.5352 354.058H102.598V351.617H98.5352V354.058ZM121.406 347.261V356.695H119.883V352.769H116.367V351.48H119.883V347.261H121.406ZM111.777 357.535V359.703H119.883V357.535H121.406V364.39H110.234V357.535H111.777ZM111.777 363.14H119.883V360.933H111.777V363.14ZM113.066 350.093C113.066 352.32 114.805 354.507 117.344 355.386L116.543 356.578C114.58 355.865 113.066 354.41 112.324 352.613C111.572 354.625 109.971 356.236 107.91 356.988L107.109 355.777C109.668 354.859 111.523 352.554 111.523 350.093V349.585H107.598V348.316H116.953V349.585H113.066V350.093ZM126.152 363.16C125.469 363.16 124.883 362.593 124.902 361.89C124.883 361.207 125.469 360.64 126.152 360.64C126.836 360.64 127.402 361.207 127.402 361.89C127.402 362.593 126.836 363.16 126.152 363.16ZM126.152 355.308C125.469 355.308 124.883 354.742 124.902 354.039C124.883 353.355 125.469 352.789 126.152 352.789C126.836 352.789 127.402 353.355 127.402 354.039C127.402 354.742 126.836 355.308 126.152 355.308ZM140.039 348.902V363.042H138.262V350.738H138.184L134.746 353.023V351.246L138.262 348.902H140.039ZM148.809 348.902V363.042H147.031V350.738H146.953L143.516 353.023V351.246L147.031 348.902H148.809ZM166.27 347.281V357.515H164.727V356.558H161.211V355.542H164.727V347.281H166.27ZM151.895 353.824C155.254 353.843 159.551 353.804 163.301 353.394L163.398 354.39C161.699 354.634 159.932 354.781 158.203 354.859V357.574H156.699V354.917C155.059 354.976 153.486 354.986 152.07 354.976L151.895 353.824ZM166.27 358.14V361.734H156.133V363.296H166.836V364.429H154.629V360.66H164.746V359.253H154.551V358.14H166.27ZM157.559 347.613C160.137 347.613 161.855 348.628 161.875 350.23C161.855 351.851 160.137 352.828 157.559 352.828C154.941 352.828 153.242 351.851 153.242 350.23C153.242 348.628 154.941 347.613 157.559 347.613ZM157.559 348.687C155.801 348.687 154.668 349.292 154.688 350.23C154.668 351.148 155.801 351.773 157.559 351.773C159.297 351.773 160.43 351.148 160.43 350.23C160.43 349.292 159.297 348.687 157.559 348.687ZM179.883 348.902V363.042H178.105V350.738H178.027L174.59 353.023V351.246L178.105 348.902H179.883ZM188.535 363.238C185.723 363.238 183.711 361.734 183.613 359.488H185.391C185.488 360.835 186.836 361.675 188.516 361.675C190.371 361.675 191.738 360.66 191.738 359.195C191.738 357.652 190.508 356.558 188.301 356.558H187.148V355.015H188.301C190.02 355.015 191.211 354.058 191.211 352.593C191.211 351.187 190.176 350.23 188.574 350.23C187.07 350.23 185.684 351.07 185.605 352.457H183.906C184.004 350.21 186.074 348.707 188.594 348.707C191.289 348.707 192.93 350.464 192.91 352.496C192.93 354.097 191.992 355.289 190.508 355.699V355.796C192.344 356.089 193.477 357.398 193.457 359.195C193.477 361.519 191.348 363.238 188.535 363.238ZM200.293 347.906C202.891 347.925 204.785 349.488 204.785 351.753C204.785 354.019 202.891 355.582 200.293 355.582C197.656 355.582 195.781 354.019 195.781 351.753C195.781 349.488 197.656 347.925 200.293 347.906ZM200.293 349.195C198.555 349.195 197.266 350.25 197.285 351.753C197.266 353.277 198.555 354.332 200.293 354.332C202.012 354.332 203.301 353.277 203.301 351.753C203.301 350.25 202.012 349.195 200.293 349.195ZM209.707 347.261V356.187H208.184V347.261H209.707ZM209.707 357.027V361.207H199.961V363.16H210.332V364.39H198.457V360.054H208.184V358.257H198.418V357.027H209.707ZM218.867 357.242C219.492 356.519 220.273 356.128 221.133 356.128C222.617 356.128 223.965 357.261 225.391 357.261C226.27 357.261 227.031 356.832 227.617 356.031V357.652C226.973 358.394 226.211 358.765 225.352 358.765C223.867 358.765 222.52 357.632 221.074 357.632C220.215 357.632 219.453 358.062 218.867 358.863V357.242ZM240.859 348.902V363.042H239.082V350.738H239.004L235.566 353.023V351.246L239.082 348.902H240.859ZM249.629 348.902V363.042H247.852V350.738H247.773L244.336 353.023V351.246L247.852 348.902H249.629ZM267.09 347.281V357.515H265.547V356.558H262.031V355.542H265.547V347.281H267.09ZM252.715 353.824C256.074 353.843 260.371 353.804 264.121 353.394L264.219 354.39C262.52 354.634 260.752 354.781 259.023 354.859V357.574H257.52V354.917C255.879 354.976 254.307 354.986 252.891 354.976L252.715 353.824ZM267.09 358.14V361.734H256.953V363.296H267.656V364.429H255.449V360.66H265.566V359.253H255.371V358.14H267.09ZM258.379 347.613C260.957 347.613 262.676 348.628 262.695 350.23C262.676 351.851 260.957 352.828 258.379 352.828C255.762 352.828 254.062 351.851 254.062 350.23C254.062 348.628 255.762 347.613 258.379 347.613ZM258.379 348.687C256.621 348.687 255.488 349.292 255.508 350.23C255.488 351.148 256.621 351.773 258.379 351.773C260.117 351.773 261.25 351.148 261.25 350.23C261.25 349.292 260.117 348.687 258.379 348.687ZM280.703 348.902V363.042H278.926V350.738H278.848L275.41 353.023V351.246L278.926 348.902H280.703ZM284.922 363.042L291.406 350.562V350.464H283.926V348.902H293.223V350.542L286.758 363.042H284.922ZM299.805 347.906C302.402 347.925 304.297 349.488 304.297 351.753C304.297 354.019 302.402 355.582 299.805 355.582C297.168 355.582 295.293 354.019 295.293 351.753C295.293 349.488 297.168 347.925 299.805 347.906ZM299.805 349.195C298.066 349.195 296.777 350.25 296.797 351.753C296.777 353.277 298.066 354.332 299.805 354.332C301.523 354.332 302.812 353.277 302.812 351.753C302.812 350.25 301.523 349.195 299.805 349.195ZM309.219 347.261V356.187H307.695V347.261H309.219ZM309.219 357.027V361.207H299.473V363.16H309.844V364.39H297.969V360.054H307.695V358.257H297.93V357.027H309.219ZM39.9219 387.41C38.8281 387.41 37.9297 386.511 37.9297 385.398C37.9297 384.304 38.8281 383.406 39.9219 383.406C41.0352 383.406 41.9336 384.304 41.9336 385.398C41.9336 386.511 41.0352 387.41 39.9219 387.41ZM69.2773 375.261V379.714H71.8945V381.023H69.2773V385.359H67.7539V375.261H69.2773ZM59.8242 386.121V387.976H67.7539V386.121H69.2773V392.39H58.3008V386.121H59.8242ZM59.8242 391.16H67.7539V389.187H59.8242V391.16ZM66.0938 377.058V378.328H55.7422V377.058H60.1562V375.105H61.6797V377.058H66.0938ZM60.918 379.128C63.418 379.128 65.0781 380.32 65.0977 382.175C65.0781 384.031 63.418 385.222 60.918 385.222C58.3984 385.222 56.7188 384.031 56.7383 382.175C56.7188 380.32 58.3984 379.128 60.918 379.128ZM60.918 380.32C59.2773 380.3 58.1836 381.062 58.2031 382.175C58.1836 383.308 59.2773 384.05 60.918 384.05C62.5391 384.05 63.6328 383.308 63.6523 382.175C63.6328 381.062 62.5391 380.3 60.918 380.32ZM82.1484 376.453C82.1484 377.126 82.0703 377.771 81.9336 378.386H85.8398V375.281H87.3828V385.632H85.8398V383.328H81.2305V382.058H85.8398V379.656H81.5234C80.3418 382.39 77.627 384.363 73.8672 385.398L73.2617 384.167C77.5 382.996 80.1855 380.662 80.5078 377.703H74.1406V376.453H82.1484ZM87.3828 386.394V392.605H85.8398V387.625H75.7031V386.394H87.3828ZM96.1523 380.593C96.1328 383.386 98.1445 386.453 100.664 387.644L99.7852 388.855C97.832 387.908 96.1816 385.837 95.4102 383.484C94.6094 386.042 92.8613 388.289 90.918 389.285L89.9805 388.074C92.4805 386.863 94.6289 383.562 94.6484 380.593V378.328H90.6055V377.058H100.059V378.328H96.1523V380.593ZM103.711 375.261V382.292H106.621V383.601H103.711V392.625H102.188V375.261H103.711ZM114.824 376.003V378.503H119.883V376.003H121.406V383.562H113.32V376.003H114.824ZM114.824 382.312H119.883V379.695H114.824V382.312ZM126.152 375.261V379.031H128.77V380.32H126.152V384.246H124.629V375.261H126.152ZM126.152 385.066V389.265H116.621V391.179H126.797V392.429H115.117V388.093H124.629V386.296H115.078V385.066H126.152ZM145.762 389.226V390.496H129.863V389.226H134.297V385.085H131.309V383.816H134.023V378.152H131.27V376.882H144.238V378.152H141.484V383.816H144.199V385.085H141.211V389.226H145.762ZM135.547 383.816H139.98V378.152H135.547V383.816ZM135.84 389.226H139.688V385.085H135.84V389.226ZM148.984 391.16C148.301 391.16 147.715 390.593 147.734 389.89C147.715 389.207 148.301 388.64 148.984 388.64C149.668 388.64 150.234 389.207 150.234 389.89C150.234 390.593 149.668 391.16 148.984 391.16ZM148.984 383.308C148.301 383.308 147.715 382.742 147.734 382.039C147.715 381.355 148.301 380.789 148.984 380.789C149.668 380.789 150.234 381.355 150.234 382.039C150.234 382.742 149.668 383.308 148.984 383.308ZM162.871 376.902V391.042H161.094V378.738H161.016L157.578 381.023V379.246L161.094 376.902H162.871ZM171.641 376.902V391.042H169.863V378.738H169.785L166.348 381.023V379.246L169.863 376.902H171.641ZM189.102 375.281V385.515H187.559V384.558H184.043V383.542H187.559V375.281H189.102ZM174.727 381.824C178.086 381.843 182.383 381.804 186.133 381.394L186.23 382.39C184.531 382.634 182.764 382.781 181.035 382.859V385.574H179.531V382.917C177.891 382.976 176.318 382.986 174.902 382.976L174.727 381.824ZM189.102 386.14V389.734H178.965V391.296H189.668V392.429H177.461V388.66H187.578V387.253H177.383V386.14H189.102ZM180.391 375.613C182.969 375.613 184.688 376.628 184.707 378.23C184.688 379.851 182.969 380.828 180.391 380.828C177.773 380.828 176.074 379.851 176.074 378.23C176.074 376.628 177.773 375.613 180.391 375.613ZM180.391 376.687C178.633 376.687 177.5 377.292 177.52 378.23C177.5 379.148 178.633 379.773 180.391 379.773C182.129 379.773 183.262 379.148 183.262 378.23C183.262 377.292 182.129 376.687 180.391 376.687ZM202.715 376.902V391.042H200.938V378.738H200.859L197.422 381.023V379.246L200.938 376.902H202.715ZM211.191 376.707C213.633 376.726 216.328 378.191 216.328 383.406C216.328 388.425 214.277 391.238 210.957 391.238C208.477 391.238 206.719 389.714 206.367 387.468H208.105C208.418 388.738 209.375 389.675 210.957 389.675C213.262 389.675 214.668 387.683 214.688 384.246H214.492C213.672 385.417 212.383 386.121 210.879 386.121C208.34 386.121 206.25 384.187 206.25 381.453C206.25 378.816 208.184 376.687 211.191 376.707ZM211.191 378.25C209.336 378.25 207.949 379.695 207.969 381.433C207.969 383.191 209.277 384.578 211.133 384.578C212.969 384.578 214.414 383.054 214.414 381.394C214.414 379.773 213.066 378.25 211.191 378.25ZM223.047 375.906C225.645 375.925 227.539 377.488 227.539 379.753C227.539 382.019 225.645 383.582 223.047 383.582C220.41 383.582 218.535 382.019 218.535 379.753C218.535 377.488 220.41 375.925 223.047 375.906ZM223.047 377.195C221.309 377.195 220.02 378.25 220.039 379.753C220.02 381.277 221.309 382.332 223.047 382.332C224.766 382.332 226.055 381.277 226.055 379.753C226.055 378.25 224.766 377.195 223.047 377.195ZM232.461 375.261V384.187H230.938V375.261H232.461ZM232.461 385.027V389.207H222.715V391.16H233.086V392.39H221.211V388.054H230.938V386.257H221.172V385.027H232.461ZM39.9219 415.41C38.8281 415.41 37.9297 414.511 37.9297 413.398C37.9297 412.304 38.8281 411.406 39.9219 411.406C41.0352 411.406 41.9336 412.304 41.9336 413.398C41.9336 414.511 41.0352 415.41 39.9219 415.41ZM69.2773 403.261V407.714H71.8945V409.023H69.2773V413.359H67.7539V403.261H69.2773ZM59.8242 414.121V415.976H67.7539V414.121H69.2773V420.39H58.3008V414.121H59.8242ZM59.8242 419.16H67.7539V417.187H59.8242V419.16ZM66.0938 405.058V406.328H55.7422V405.058H60.1562V403.105H61.6797V405.058H66.0938ZM60.918 407.128C63.418 407.128 65.0781 408.32 65.0977 410.175C65.0781 412.031 63.418 413.222 60.918 413.222C58.3984 413.222 56.7188 412.031 56.7383 410.175C56.7188 408.32 58.3984 407.128 60.918 407.128ZM60.918 408.32C59.2773 408.3 58.1836 409.062 58.2031 410.175C58.1836 411.308 59.2773 412.05 60.918 412.05C62.5391 412.05 63.6328 411.308 63.6523 410.175C63.6328 409.062 62.5391 408.3 60.918 408.32ZM82.1484 404.453C82.1484 405.126 82.0703 405.771 81.9336 406.386H85.8398V403.281H87.3828V413.632H85.8398V411.328H81.2305V410.058H85.8398V407.656H81.5234C80.3418 410.39 77.627 412.363 73.8672 413.398L73.2617 412.167C77.5 410.996 80.1855 408.662 80.5078 405.703H74.1406V404.453H82.1484ZM87.3828 414.394V420.605H85.8398V415.625H75.7031V414.394H87.3828ZM96.1523 408.593C96.1328 411.386 98.1445 414.453 100.664 415.644L99.7852 416.855C97.832 415.908 96.1816 413.837 95.4102 411.484C94.6094 414.042 92.8613 416.289 90.918 417.285L89.9805 416.074C92.4805 414.863 94.6289 411.562 94.6484 408.593V406.328H90.6055V405.058H100.059V406.328H96.1523V408.593ZM103.711 403.261V410.292H106.621V411.601H103.711V420.625H102.188V403.261H103.711ZM126.973 403.261V413.613H125.43V409.062H121.934V407.792H125.43V403.261H126.973ZM121.211 414.16C124.824 414.16 127.031 415.332 127.031 417.382C127.031 419.433 124.824 420.605 121.211 420.625C117.598 420.605 115.391 419.433 115.391 417.382C115.391 415.332 117.598 414.16 121.211 414.16ZM121.211 415.351C118.555 415.351 116.895 416.113 116.914 417.382C116.895 418.632 118.555 419.394 121.211 419.394C123.867 419.394 125.508 418.632 125.508 417.382C125.508 416.113 123.867 415.351 121.211 415.351ZM118.613 406.445C118.613 408.71 120.352 410.859 122.891 411.738L122.09 412.968C120.137 412.265 118.623 410.81 117.891 409.003C117.129 411.044 115.518 412.675 113.457 413.457L112.656 412.226C115.234 411.289 117.07 408.945 117.07 406.464V405.82H113.145V404.531H122.5V405.82H118.613V406.445ZM145.762 417.109V418.398H129.863V417.109H137.012V412.871H131.738V404.726H143.789V412.871H138.516V417.109H145.762ZM133.242 405.957V411.64H142.305V405.957H133.242ZM157.09 403.906C159.688 403.925 161.582 405.488 161.582 407.753C161.582 410.019 159.688 411.582 157.09 411.582C154.453 411.582 152.578 410.019 152.578 407.753C152.578 405.488 154.453 403.925 157.09 403.906ZM157.09 405.195C155.352 405.195 154.062 406.25 154.082 407.753C154.062 409.277 155.352 410.332 157.09 410.332C158.809 410.332 160.098 409.277 160.098 407.753C160.098 406.25 158.809 405.195 157.09 405.195ZM166.504 403.261V412.187H164.98V403.261H166.504ZM166.504 413.027V417.207H156.758V419.16H167.129V420.39H155.254V416.054H164.98V414.257H155.215V413.027H166.504ZM183.848 403.261V413.613H182.305V409.062H178.809V407.792H182.305V403.261H183.848ZM178.086 414.16C181.699 414.16 183.906 415.332 183.906 417.382C183.906 419.433 181.699 420.605 178.086 420.625C174.473 420.605 172.266 419.433 172.266 417.382C172.266 415.332 174.473 414.16 178.086 414.16ZM178.086 415.351C175.43 415.351 173.77 416.113 173.789 417.382C173.77 418.632 175.43 419.394 178.086 419.394C180.742 419.394 182.383 418.632 182.383 417.382C182.383 416.113 180.742 415.351 178.086 415.351ZM175.488 406.445C175.488 408.71 177.227 410.859 179.766 411.738L178.965 412.968C177.012 412.265 175.498 410.81 174.766 409.003C174.004 411.044 172.393 412.675 170.332 413.457L169.531 412.226C172.109 411.289 173.945 408.945 173.945 406.464V405.82H170.02V404.531H179.375V405.82H175.488V406.445ZM193.594 419.16C192.91 419.16 192.324 418.593 192.344 417.89C192.324 417.207 192.91 416.64 193.594 416.64C194.277 416.64 194.844 417.207 194.844 417.89C194.844 418.593 194.277 419.16 193.594 419.16ZM193.594 411.308C192.91 411.308 192.324 410.742 192.344 410.039C192.324 409.355 192.91 408.789 193.594 408.789C194.277 408.789 194.844 409.355 194.844 410.039C194.844 410.742 194.277 411.308 193.594 411.308ZM207.48 404.902V419.042H205.703V406.738H205.625L202.188 409.023V407.246L205.703 404.902H207.48ZM210.898 416.152V414.707L217.266 404.902H219.434V414.609H221.406V416.152H219.434V419.042H217.754V416.152H210.898ZM212.793 414.609H217.754V407.128H217.578L212.793 414.492V414.609ZM231.875 405.722C231.855 408.046 234.961 410.019 237.988 410.468L237.422 411.679C234.707 411.22 232.07 409.775 231.016 407.675C229.961 409.775 227.314 411.22 224.648 411.679L224.043 410.468C227.051 410.019 230.156 408.046 230.156 405.722V405.605H224.59V404.355H237.422V405.605H231.875V405.722ZM238.926 413.164V414.433H231.738V420.625H230.234V414.433H223.105V413.164H238.926ZM246.172 408.925C246.172 411.699 247.988 414.55 250.508 415.761L249.609 416.953C247.695 416.015 246.182 414.121 245.469 411.875C244.707 414.287 243.096 416.308 241.113 417.265L240.234 416.074C242.773 414.882 244.668 411.914 244.688 408.925V407.539H240.703V406.289H244.668V403.593H246.211V406.289H250.117V407.539H246.172V408.925ZM253.828 403.261V410.39H256.738V411.699H253.828V420.625H252.305V403.261H253.828ZM278.516 411.386V412.656H271.348V414.511C274.629 414.648 276.562 415.722 276.582 417.558C276.562 419.492 274.336 420.585 270.605 420.585C266.836 420.585 264.609 419.492 264.609 417.558C264.609 415.722 266.533 414.648 269.844 414.511V412.656H262.695V411.386H278.516ZM270.605 415.683C267.812 415.703 266.152 416.386 266.172 417.558C266.152 418.71 267.812 419.394 270.605 419.394C273.359 419.394 275.039 418.71 275.039 417.558C275.039 416.386 273.359 415.703 270.605 415.683ZM277.109 404.082V405.332H271.602C271.699 407.285 274.57 408.798 277.637 409.121L277.07 410.332C274.229 409.99 271.562 408.72 270.605 406.777C269.658 408.72 267.002 409.99 264.141 410.332L263.594 409.121C266.602 408.798 269.492 407.285 269.609 405.332H264.141V404.082H277.109Z" fill="white"/>
<path d="M51.875 184.22V187.501H25.8438V184.22H36.8125V178.407H28.5938V164.47H48.9688V178.407H40.7812V184.22H51.875ZM32.5312 167.657V175.282H45.0312V167.657H32.5312ZM70.3125 163.939V167.126H64.625C64.8125 170.126 66.9531 173.126 71.4062 174.345L69.4062 177.439C66.1562 176.517 63.875 174.564 62.5938 172.064C61.2969 174.767 58.9688 176.907 55.5938 177.939L53.5938 174.814C58.125 173.501 60.3281 170.345 60.5312 167.126H54.6875V163.939H70.3125ZM77.3125 162.376V177.814H73.3125V162.376H77.3125ZM62.2188 179.001V181.657H73.3438V179.001H77.3125V190.501H58.2812V179.001H62.2188ZM62.2188 187.314H73.3438V184.751H62.2188V187.314Z" fill="white"/>
<path d="M325.75 162.376V190.814H321.719V162.376H325.75ZM317.219 165.345C317.219 173.97 314.188 181.126 304.031 185.939L301.938 182.751C309.281 179.282 312.516 174.782 313.156 168.47H303.469V165.345H317.219ZM352.062 162.376V170.345H355.906V173.626H352.062V182.751H348.031V162.376H352.062ZM344.312 164.501C344.312 172.189 339.5 177.564 330.969 179.97L329.312 176.814C335.672 175.032 339.281 171.736 339.938 167.751H330.562V164.501H344.312ZM353.031 187.126V190.314H333.562V180.657H337.594V187.126H353.031Z" fill="white"/>
<line x1="99" y1="174.182" x2="283" y2="174.182" stroke="url(#paint0_linear_862_140)"/>
<path d="M411.5 147.737C411.5 136.967 420.23 128.237 431 128.237H771C781.77 128.237 790.5 136.967 790.5 147.737V444C790.5 454.77 781.77 463.5 771 463.5H431C420.23 463.5 411.5 454.77 411.5 444V147.737Z" stroke="white"/>
<path d="M446.875 170.126C446.875 174.72 449.219 179.626 454 181.626L451.844 184.751C448.484 183.329 446.172 180.501 444.906 177.032C443.609 180.798 441.25 183.923 437.906 185.47L435.625 182.314C440.344 180.22 442.781 174.939 442.781 170.126V168.376H436.75V165.126H452.812V168.376H446.875V170.126ZM459.656 162.376V190.814H455.625V162.376H459.656ZM487.594 162.407V183.876H483.594V181.626H478.156V178.907H483.594V162.407H487.594ZM488.219 187.126V190.314H467.031V181.814H471V178.032C468.453 178.142 466.031 178.157 463.875 178.157L463.406 175.001C468.625 174.97 475.656 174.907 481.656 174.157L481.875 177.001C479.625 177.376 477.297 177.642 475 177.814V183.22H471V187.126H488.219ZM472.656 163.376C476.781 163.345 479.75 165.439 479.75 168.47C479.75 171.501 476.781 173.47 472.656 173.47C468.438 173.47 465.5 171.501 465.5 168.47C465.5 165.439 468.406 163.345 472.656 163.376ZM472.656 166.282C470.625 166.282 469.25 167.064 469.281 168.47C469.25 169.845 470.625 170.595 472.656 170.595C474.562 170.595 475.938 169.845 475.969 168.47C475.938 167.064 474.562 166.282 472.656 166.282Z" fill="white"/>
<path d="M722.344 170.126C722.312 174.47 724.625 179.47 729.312 181.626L727.094 184.751C723.922 183.298 721.656 180.392 720.406 176.97C719.125 180.736 716.797 183.923 713.5 185.47L711.188 182.314C715.938 180.095 718.312 174.814 718.344 170.126V168.376H712.312V165.126H728.062V168.376H722.344V170.126ZM734.281 162.376V173.22H738.469V176.564H734.281V190.814H730.281V162.376H734.281ZM754.719 164.157C754.719 165.142 754.641 166.095 754.5 167.001H759.5V162.407H763.469V179.282H759.5V176.189H753.031V173.001H759.5V170.126H753.562C751.641 174.532 747.438 177.626 741.312 179.251L739.812 176.064C746.219 174.423 749.812 171.236 750.438 167.376H741.438V164.157H754.719ZM763.469 180.439V190.751H759.5V183.564H743.938V180.439H763.469Z" fill="white"/>
<path d="M449.922 270.271C448.828 270.271 447.93 269.372 447.93 268.259C447.93 267.165 448.828 266.267 449.922 266.267C451.035 266.267 451.934 267.165 451.934 268.259C451.934 269.372 451.035 270.271 449.922 270.271ZM471.953 260.993C471.953 263.259 473.848 265.271 476.426 266.052L475.645 267.263C473.613 266.618 471.982 265.222 471.191 263.435C470.43 265.349 468.789 266.843 466.719 267.556L465.918 266.345C468.535 265.525 470.41 263.376 470.41 260.993V260.544H466.348V259.294H475.957V260.544H471.953V260.993ZM480.039 258.122V267.517H478.516V258.122H480.039ZM470.312 268.376V270.486H478.516V268.376H480.039V275.251H468.789V268.376H470.312ZM470.312 274.001H478.516V271.716H470.312V274.001ZM498.809 266.247V267.517H491.641V269.372C494.922 269.509 496.855 270.583 496.875 272.419C496.855 274.353 494.629 275.447 490.898 275.447C487.129 275.447 484.902 274.353 484.902 272.419C484.902 270.583 486.826 269.509 490.137 269.372V267.517H482.988V266.247H498.809ZM490.898 270.544C488.105 270.564 486.445 271.247 486.465 272.419C486.445 273.572 488.105 274.255 490.898 274.255C493.652 274.255 495.332 273.572 495.332 272.419C495.332 271.247 493.652 270.564 490.898 270.544ZM497.402 258.943V260.193H491.895C491.992 262.146 494.863 263.659 497.93 263.982L497.363 265.193C494.521 264.851 491.855 263.581 490.898 261.638C489.951 263.581 487.295 264.851 484.434 265.193L483.887 263.982C486.895 263.659 489.785 262.146 489.902 260.193H484.434V258.943H497.402ZM514.59 258.122V275.525H513.047V258.122H514.59ZM505.352 259.47C507.93 259.49 509.785 261.833 509.785 265.525C509.785 269.216 507.93 271.56 505.352 271.56C502.754 271.56 500.918 269.216 500.918 265.525C500.918 261.833 502.754 259.49 505.352 259.47ZM505.352 260.837C503.613 260.857 502.402 262.693 502.402 265.525C502.402 268.357 503.613 270.193 505.352 270.193C507.09 270.193 508.301 268.357 508.301 265.525C508.301 262.693 507.09 260.857 505.352 260.837ZM526.27 259.743C526.27 262.185 529.473 264.314 532.598 264.743L531.973 265.993C529.277 265.544 526.611 264.05 525.488 261.911C524.375 264.06 521.699 265.544 519.004 265.993L518.379 264.743C521.504 264.314 524.688 262.224 524.688 259.743V258.747H526.27V259.743ZM533.379 267.907V269.197H526.191V275.486H524.688V269.197H517.559V267.907H533.379ZM550.723 266.189V267.4H534.824V266.189H550.723ZM548.73 268.786V272.478H538.301V274.138H549.297V275.251H536.758V271.423H547.207V269.939H536.738V268.786H548.73ZM548.672 258.65V262.243H538.418V263.767H548.984V264.88H536.895V261.189H547.129V259.763H536.836V258.65H548.672ZM562.871 258.982C565.469 258.962 567.324 260.388 567.324 262.517C567.324 264.626 565.469 266.091 562.871 266.072C560.273 266.091 558.418 264.626 558.418 262.517C558.418 260.388 560.273 258.962 562.871 258.982ZM562.871 260.232C561.133 260.212 559.902 261.169 559.922 262.517C559.902 263.884 561.133 264.822 562.871 264.802C564.629 264.822 565.859 263.884 565.859 262.517C565.859 261.169 564.629 260.212 562.871 260.232ZM571.465 258.142V275.505H569.961V258.142H571.465ZM557.109 267.556C560.371 267.556 564.824 267.497 568.691 266.931L568.789 268.083C567.129 268.386 565.4 268.572 563.73 268.669V274.958H562.207V268.767C560.439 268.845 558.77 268.855 557.324 268.865L557.109 267.556ZM588.008 258.142V263.865H590.625V265.154H588.008V271.15H586.484V258.142H588.008ZM584.824 260.271V261.521H574.473V260.271H578.887V258.142H580.41V260.271H584.824ZM579.648 262.478C582.129 262.478 583.809 263.747 583.828 265.72C583.809 267.673 582.129 268.923 579.648 268.923C577.148 268.923 575.449 267.673 575.469 265.72C575.449 263.747 577.148 262.478 579.648 262.478ZM579.648 263.689C578.008 263.689 576.914 264.49 576.934 265.72C576.914 266.95 578.008 267.732 579.648 267.712C581.27 267.732 582.363 266.95 582.383 265.72C582.363 264.49 581.27 263.689 579.648 263.689ZM588.809 273.825V275.115H577.148V270.115H578.652V273.825H588.809ZM605.547 260.017C605.547 261.003 605.459 261.97 605.273 262.907H609.59V258.103H611.113V275.486H609.59V268.806H604.688V267.536H609.59V264.157H604.961C603.955 267.38 601.66 270.212 597.559 272.204L596.758 270.954C601.387 268.718 603.682 265.368 604.004 261.267H597.52V260.017H605.547ZM621.934 258.337C625.801 258.337 628.066 259.411 628.066 261.345C628.066 263.298 625.801 264.353 621.934 264.372C618.066 264.353 615.781 263.298 615.781 261.345C615.781 259.411 618.066 258.337 621.934 258.337ZM621.934 259.509C619.043 259.529 617.363 260.193 617.383 261.345C617.363 262.536 619.043 263.181 621.934 263.2C624.805 263.181 626.504 262.536 626.504 261.345C626.504 260.193 624.805 259.529 621.934 259.509ZM629.844 265.525V266.755H622.676V268.396H627.812V272.282H617.5V274.079H628.34V275.29H615.977V271.15H626.309V269.568H615.938V268.396H621.152V266.755H614.023V265.525H629.844ZM639.316 269.04C642.891 269.04 645.039 270.212 645.039 272.243C645.039 274.294 642.891 275.466 639.316 275.486C635.742 275.466 633.555 274.294 633.555 272.243C633.555 270.212 635.742 269.04 639.316 269.04ZM639.316 270.251C636.699 270.271 635.078 270.993 635.098 272.243C635.078 273.493 636.699 274.236 639.316 274.236C641.953 274.236 643.555 273.493 643.555 272.243C643.555 270.993 641.953 270.271 639.316 270.251ZM644.883 258.122V262.497H647.5V263.806H644.883V268.572H643.359V258.122H644.883ZM633.555 259.216V261.872H638.613V259.216H640.137V267.224H632.051V259.216H633.555ZM633.555 265.974H638.613V263.083H633.555V265.974ZM658.984 259.997V261.247H648.633V259.997H653.047V258.044H654.57V259.997H658.984ZM653.809 262.146C656.309 262.165 657.969 263.376 657.988 265.29C657.969 267.185 656.309 268.415 653.809 268.415C651.309 268.415 649.609 267.185 649.629 265.29C649.609 263.376 651.309 262.165 653.809 262.146ZM653.809 263.337C652.168 263.357 651.074 264.118 651.094 265.29C651.074 266.443 652.168 267.185 653.809 267.185C655.43 267.185 656.523 266.443 656.543 265.29C656.523 264.118 655.43 263.357 653.809 263.337ZM662.168 258.122V262.947H664.785V264.236H662.168V268.982H660.645V258.122H662.168ZM662.168 269.939V275.486H660.645V271.189H650.801V269.939H662.168ZM684.473 258.122V262.575H687.09V263.884H684.473V268.22H682.949V258.122H684.473ZM675.02 268.982V270.837H682.949V268.982H684.473V275.251H673.496V268.982H675.02ZM675.02 274.021H682.949V272.048H675.02V274.021ZM681.289 259.919V261.189H670.938V259.919H675.352V257.966H676.875V259.919H681.289ZM676.113 261.99C678.613 261.99 680.273 263.181 680.293 265.036C680.273 266.892 678.613 268.083 676.113 268.083C673.594 268.083 671.914 266.892 671.934 265.036C671.914 263.181 673.594 261.99 676.113 261.99ZM676.113 263.181C674.473 263.161 673.379 263.923 673.398 265.036C673.379 266.169 674.473 266.911 676.113 266.911C677.734 266.911 678.828 266.169 678.848 265.036C678.828 263.923 677.734 263.161 676.113 263.181ZM696.895 259.177C696.895 261.384 700.059 263.318 703.105 263.767L702.5 264.958C699.834 264.529 697.207 263.142 696.113 261.169C695 263.161 692.354 264.529 689.688 264.958L689.102 263.767C692.168 263.318 695.312 261.423 695.312 259.177V258.357H696.895V259.177ZM704.004 266.345V267.615H696.836V269.841H702.051V275.486H700.508V271.091H689.941V269.841H695.332V267.615H688.184V266.345H704.004ZM719.785 258.122V275.525H718.242V258.122H719.785ZM710.547 259.47C713.125 259.49 714.98 261.833 714.98 265.525C714.98 269.216 713.125 271.56 710.547 271.56C707.949 271.56 706.113 269.216 706.113 265.525C706.113 261.833 707.949 259.49 710.547 259.47ZM710.547 260.837C708.809 260.857 707.598 262.693 707.598 265.525C707.598 268.357 708.809 270.193 710.547 270.193C712.285 270.193 713.496 268.357 713.496 265.525C713.496 262.693 712.285 260.857 710.547 260.837ZM479.258 286.122V293.193H482.07V294.482H479.258V303.486H477.734V286.122H479.258ZM474.766 287.997C474.766 292.919 472.461 297.392 466.797 300.185L465.938 298.974C470.43 296.738 472.871 293.398 473.223 289.286H466.738V287.997H474.766ZM497.129 290.986V292.255H485.273V286.474H486.797V290.986H497.129ZM498.945 294.286V295.556H483.105V294.286H498.945ZM491.016 297.118C494.746 297.118 496.973 298.251 496.992 300.263C496.973 302.275 494.746 303.407 491.016 303.407C487.266 303.407 485.02 302.275 485.02 300.263C485.02 298.251 487.266 297.118 491.016 297.118ZM491.016 298.329C488.223 298.349 486.562 299.032 486.582 300.263C486.562 301.474 488.223 302.216 491.016 302.216C493.77 302.216 495.449 301.474 495.449 300.263C495.449 299.032 493.77 298.349 491.016 298.329ZM513.965 286.142V291.865H516.582V293.154H513.965V299.15H512.441V286.142H513.965ZM510.781 288.271V289.521H500.43V288.271H504.844V286.142H506.367V288.271H510.781ZM505.605 290.478C508.086 290.478 509.766 291.747 509.785 293.72C509.766 295.673 508.086 296.923 505.605 296.923C503.105 296.923 501.406 295.673 501.426 293.72C501.406 291.747 503.105 290.478 505.605 290.478ZM505.605 291.689C503.965 291.689 502.871 292.49 502.891 293.72C502.871 294.95 503.965 295.732 505.605 295.712C507.227 295.732 508.32 294.95 508.34 293.72C508.32 292.49 507.227 291.689 505.605 291.689ZM514.766 301.825V303.115H503.105V298.115H504.609V301.825H514.766ZM528.516 290.79C528.516 293.857 530.547 297.001 533.008 298.212L532.07 299.443C530.156 298.437 528.555 296.386 527.793 293.974C527.012 296.542 525.371 298.73 523.418 299.775L522.441 298.544C524.98 297.294 526.992 293.954 527.012 290.79V287.626H528.516V290.79ZM536.133 286.122V293.173H539.043V294.501H536.133V303.486H534.609V286.122H536.133ZM553.555 286.142V290.595H556.191V291.904H553.555V296.493H552.031V286.142H553.555ZM553.555 297.353V303.251H542.559V297.353H553.555ZM544.062 298.544V302.001H552.07V298.544H544.062ZM548.594 287.079V291.825H542.266V294.286C545.352 294.286 547.588 294.198 550.293 293.759L550.449 294.99C547.656 295.478 545.332 295.575 542.109 295.575H540.762V290.634H547.09V288.349H540.723V287.079H548.594ZM449.922 326.271C448.828 326.271 447.93 325.372 447.93 324.259C447.93 323.165 448.828 322.267 449.922 322.267C451.035 322.267 451.934 323.165 451.934 324.259C451.934 325.372 451.035 326.271 449.922 326.271ZM470.352 315.47C472.91 315.49 474.727 317.833 474.746 321.525C474.727 325.216 472.91 327.56 470.352 327.56C467.773 327.56 465.977 325.216 465.977 321.525C465.977 317.833 467.773 315.49 470.352 315.47ZM470.352 316.837C468.633 316.857 467.422 318.693 467.422 321.525C467.422 324.357 468.633 326.193 470.352 326.193C472.09 326.193 473.262 324.357 473.262 321.525C473.262 318.693 472.09 316.857 470.352 316.837ZM479.141 314.122V321.056H482.051V322.384H479.141V331.486H477.617V314.122H479.141ZM497.305 314.122V331.525H495.762V314.122H497.305ZM488.066 315.47C490.645 315.49 492.5 317.833 492.5 321.525C492.5 325.216 490.645 327.56 488.066 327.56C485.469 327.56 483.633 325.216 483.633 321.525C483.633 317.833 485.469 315.49 488.066 315.47ZM488.066 316.837C486.328 316.857 485.117 318.693 485.117 321.525C485.117 324.357 486.328 326.193 488.066 326.193C489.805 326.193 491.016 324.357 491.016 321.525C491.016 318.693 489.805 316.857 488.066 316.837ZM514.59 314.122V331.525H513.047V314.122H514.59ZM509.668 315.782V317.072H502.949V325.88C506.328 325.88 508.555 325.773 511.152 325.314L511.309 326.603C508.613 327.091 506.328 327.189 502.812 327.208H501.406V315.782H509.668ZM522.227 315.47C524.59 315.49 526.289 317.511 526.543 320.763H530.43V314.122H531.953V331.525H530.43V322.032H526.562C526.377 325.431 524.648 327.56 522.227 327.56C519.668 327.56 517.871 325.216 517.871 321.525C517.871 317.833 519.668 315.49 522.227 315.47ZM522.227 316.837C520.508 316.857 519.336 318.693 519.336 321.525C519.336 324.357 520.508 326.193 522.227 326.193C523.926 326.193 525.117 324.357 525.117 321.525C525.117 318.693 523.926 316.857 522.227 316.837ZM550.723 322.189V323.4H534.824V322.189H550.723ZM548.73 324.786V328.478H538.301V330.138H549.297V331.251H536.758V327.423H547.207V325.939H536.738V324.786H548.73ZM548.672 314.65V318.243H538.418V319.767H548.984V320.88H536.895V317.189H547.129V315.763H536.836V314.65H548.672ZM571.465 314.122V323.126H569.961V314.122H571.465ZM571.484 324.005V328.165H561.738V330.04H572.109V331.29H560.234V326.974H569.961V325.236H560.195V324.005H571.484ZM563.301 315.958C563.281 318.419 565.156 320.587 567.734 321.427L566.973 322.618C564.941 321.925 563.32 320.47 562.539 318.595C561.758 320.616 560.127 322.208 558.066 322.95L557.266 321.74C559.883 320.822 561.738 318.517 561.738 315.958V314.63H563.301V315.958ZM588.828 314.142V327.384H587.285V323.654H584.277V322.404H587.285V320.04H584.277V318.771H587.285V314.142H588.828ZM584.277 316.271V317.521H574.453V316.271H578.672V314.122H580.195V316.271H584.277ZM579.414 318.478C581.738 318.478 583.379 319.806 583.379 321.798C583.379 323.771 581.738 325.118 579.414 325.118C577.09 325.118 575.469 323.771 575.488 321.798C575.469 319.806 577.09 318.478 579.414 318.478ZM579.414 319.689C577.93 319.708 576.914 320.548 576.914 321.798C576.914 323.048 577.93 323.888 579.414 323.888C580.898 323.888 581.914 323.048 581.934 321.798C581.914 320.548 580.898 319.708 579.414 319.689ZM589.219 329.825V331.115H577.598V326.212H579.141V329.825H589.219ZM597.891 318.79C597.871 321.954 600.039 325.157 602.598 326.31L601.66 327.521C599.688 326.554 597.979 324.513 597.148 322.032C596.338 324.659 594.629 326.847 592.598 327.872L591.621 326.583C594.199 325.392 596.348 322.091 596.367 318.79V315.626H597.891V318.79ZM606.035 314.122V331.525H604.492V314.122H606.035ZM618.32 315.939C618.301 320.958 616.484 325.587 610.215 328.654L609.355 327.423C612.607 325.861 614.619 323.859 615.723 321.505L609.688 322.091L609.434 320.724L616.211 320.275C616.523 319.308 616.709 318.282 616.777 317.208H610.312V315.939H618.32ZM623.359 314.122V331.486H621.816V314.122H623.359ZM640.664 314.122V331.525H639.141V324.122H635.527V322.833H639.141V319.376H635.664V318.087H639.141V314.122H640.664ZM634.531 315.704V321.876H628.477V326.154C631.084 326.144 633.242 326.046 635.879 325.646L636.016 326.935C633.242 327.365 631.016 327.462 628.242 327.462H626.953V320.626H633.027V316.974H626.895V315.704H634.531ZM657.617 319.396V320.626H645.723V314.767H647.246V319.396H657.617ZM659.453 322.99V324.24H643.555V322.99H659.453ZM657.715 329.786V331.056H645.625V326.017H647.148V329.786H657.715ZM670.664 314.747C672.188 314.747 673.477 315.314 674.277 316.251H678.73V314.122H680.254V323.048H678.73V321.056H674.336C673.525 322.032 672.217 322.618 670.664 322.618C668.047 322.618 666.152 321.017 666.152 318.673C666.152 316.349 668.047 314.747 670.664 314.747ZM670.664 316.017C668.887 315.997 667.617 317.111 667.617 318.673C667.617 320.255 668.887 321.368 670.664 321.388C672.383 321.368 673.672 320.255 673.672 318.673C673.672 317.111 672.383 315.997 670.664 316.017ZM680.254 323.927V328.087H670.566V330.021H680.918V331.251H669.043V326.915H678.73V325.157H669.004V323.927H680.254ZM674.98 317.482C675.088 317.853 675.156 318.253 675.156 318.673C675.156 319.083 675.088 319.464 674.98 319.825H678.73V317.482H674.98ZM697.559 314.122V324.474H696.016V319.923H692.52V318.654H696.016V314.122H697.559ZM691.797 325.021C695.41 325.021 697.617 326.193 697.617 328.243C697.617 330.294 695.41 331.466 691.797 331.486C688.184 331.466 685.977 330.294 685.977 328.243C685.977 326.193 688.184 325.021 691.797 325.021ZM691.797 326.212C689.141 326.212 687.48 326.974 687.5 328.243C687.48 329.493 689.141 330.255 691.797 330.255C694.453 330.255 696.094 329.493 696.094 328.243C696.094 326.974 694.453 326.212 691.797 326.212ZM689.199 317.306C689.199 319.572 690.938 321.72 693.477 322.599L692.676 323.829C690.723 323.126 689.209 321.671 688.477 319.865C687.715 321.906 686.104 323.536 684.043 324.318L683.242 323.087C685.82 322.15 687.656 319.806 687.656 317.325V316.681H683.73V315.392H693.086V316.681H689.199V317.306ZM708.359 314.435C712.227 314.435 714.492 315.49 714.492 317.423C714.492 319.396 712.227 320.45 708.359 320.47C704.492 320.45 702.207 319.396 702.207 317.423C702.207 315.49 704.492 314.435 708.359 314.435ZM708.359 315.587C705.469 315.587 703.789 316.29 703.809 317.423C703.789 318.634 705.469 319.298 708.359 319.298C711.23 319.298 712.93 318.634 712.93 317.423C712.93 316.29 711.23 315.587 708.359 315.587ZM716.27 321.642V322.892H700.449V321.642H716.27ZM714.238 324.396V328.282H703.926V330.079H714.766V331.29H702.402V327.15H712.734V325.568H702.363V324.396H714.238ZM479.258 342.122V349.193H482.07V350.482H479.258V359.486H477.734V342.122H479.258ZM474.766 343.997C474.766 348.919 472.461 353.392 466.797 356.185L465.938 354.974C470.43 352.738 472.871 349.398 473.223 345.286H466.738V343.997H474.766ZM489.355 345.853C489.355 348.197 491.211 350.306 493.809 351.126L493.027 352.357C491.006 351.673 489.395 350.247 488.613 348.411C487.852 350.394 486.221 351.956 484.16 352.708L483.359 351.478C485.957 350.56 487.812 348.314 487.812 345.853V344.837H483.75V343.587H493.359V344.837H489.355V345.853ZM497.441 342.142V354.876H495.918V342.142H497.441ZM497.988 357.825V359.115H486.23V353.665H487.754V357.825H497.988ZM520.254 342.122V359.486H518.789V350.384H516.23V358.587H514.824V342.513H516.23V349.115H518.789V342.122H520.254ZM512.559 344.251V345.521H507.578V353.88C509.971 353.87 511.631 353.782 513.555 353.392L513.691 354.681C511.602 355.111 509.824 355.189 507.168 355.189H506.055V344.251H512.559ZM533.086 343.997V345.247H522.734V343.997H527.148V342.044H528.672V343.997H533.086ZM527.91 346.146C530.41 346.165 532.07 347.376 532.09 349.29C532.07 351.185 530.41 352.415 527.91 352.415C525.41 352.415 523.711 351.185 523.73 349.29C523.711 347.376 525.41 346.165 527.91 346.146ZM527.91 347.337C526.27 347.357 525.176 348.118 525.195 349.29C525.176 350.443 526.27 351.185 527.91 351.185C529.531 351.185 530.625 350.443 530.645 349.29C530.625 348.118 529.531 347.357 527.91 347.337ZM536.27 342.122V346.947H538.887V348.236H536.27V352.982H534.746V342.122H536.27ZM536.27 353.939V359.486H534.746V355.189H524.902V353.939H536.27ZM545.156 345.579C545.156 347.493 546.504 349.447 548.73 350.286L547.93 351.458C546.26 350.814 545.059 349.573 544.434 348.079C543.789 349.74 542.549 351.214 540.84 351.947L540 350.755C542.285 349.759 543.691 347.513 543.691 345.579V343.216H545.156V345.579ZM554.727 342.142V352.865H553.262V348.079H550.957V352.318H549.512V342.474H550.957V346.81H553.262V342.142H554.727ZM548.984 353.255C552.578 353.255 554.824 354.388 554.824 356.361C554.824 358.314 552.578 359.447 548.984 359.447C545.371 359.447 543.145 358.314 543.164 356.361C543.145 354.388 545.371 353.255 548.984 353.255ZM548.984 354.427C546.328 354.427 544.668 355.15 544.688 356.361C544.668 357.552 546.328 358.255 548.984 358.255C551.621 358.255 553.281 357.552 553.301 356.361C553.281 355.15 551.621 354.427 548.984 354.427ZM449.922 382.271C448.828 382.271 447.93 381.372 447.93 380.259C447.93 379.165 448.828 378.267 449.922 378.267C451.035 378.267 451.934 379.165 451.934 380.259C451.934 381.372 451.035 382.271 449.922 382.271ZM466.328 385.904L466.309 384.615L471.133 379.536C472.812 377.759 473.613 376.802 473.613 375.493C473.613 374.048 472.383 373.091 470.801 373.091C469.121 373.091 468.047 374.165 468.047 375.747H466.387C466.367 373.247 468.301 371.568 470.859 371.568C473.418 371.568 475.254 373.286 475.254 375.493C475.254 377.075 474.512 378.306 472.012 380.884L468.77 384.224V384.341H475.508V385.904H466.328ZM477.715 383.013V381.568L484.082 371.763H486.25V381.47H488.223V383.013H486.25V385.904H484.57V383.013H477.715ZM479.609 381.47H484.57V373.99H484.395L479.609 381.353V381.47ZM504.316 370.142V382.993H502.773V376.978H497.773V375.747H502.773V373.657H497.773V372.427H502.773V370.142H504.316ZM504.785 385.825V387.115H493.125V381.9H494.668V385.825H504.785ZM492.5 371.392V379.107C494.893 379.097 497.197 378.97 499.844 378.482L500 379.751C497.168 380.279 494.805 380.396 492.266 380.415H490.957V371.392H492.5ZM521.23 378.267V379.517H515.859V384.009H523.105V385.298H507.207V384.009H514.355V379.517H509.238V371.548H521.055V372.798H510.781V378.267H521.23ZM543.867 370.122V387.486H542.324V370.122H543.867ZM538.73 372.017C538.711 377.017 536.387 381.431 530.566 384.224L529.727 382.974C534.424 380.747 536.816 377.417 537.168 373.267H530.527V372.017H538.73ZM555.703 372.29C555.684 374.419 558.613 376.157 561.68 376.587L561.074 377.798C558.271 377.398 555.654 375.991 554.707 373.95C553.77 375.991 551.162 377.398 548.34 377.798L547.773 376.587C550.84 376.157 553.711 374.419 553.711 372.29V372.251H548.242V371.001H561.211V372.251H555.703V372.29ZM562.676 379.068V380.337H555.605V383.892H554.082V380.337H546.777V379.068H562.676ZM560.898 385.825V387.115H548.809V382.154H550.352V385.825H560.898ZM584.023 370.122V387.486H582.539V378.462H580.176V386.607H578.711V370.493H580.176V377.154H582.539V370.122H584.023ZM574.238 374.868C574.238 378.052 575.547 380.845 578.027 382.115L577.109 383.306C575.352 382.349 574.15 380.63 573.535 378.501C572.939 380.923 571.719 382.818 569.883 383.892L568.926 382.72C571.426 381.353 572.754 378.384 572.754 374.868V373.482H569.336V372.193H577.461V373.482H574.238V374.868ZM596.777 371.997V373.247H586.426V371.997H590.84V370.044H592.363V371.997H596.777ZM591.602 374.146C594.102 374.165 595.762 375.376 595.781 377.29C595.762 379.185 594.102 380.415 591.602 380.415C589.102 380.415 587.402 379.185 587.422 377.29C587.402 375.376 589.102 374.165 591.602 374.146ZM591.602 375.337C589.961 375.357 588.867 376.118 588.887 377.29C588.867 378.443 589.961 379.185 591.602 379.185C593.223 379.185 594.316 378.443 594.336 377.29C594.316 376.118 593.223 375.357 591.602 375.337ZM599.961 370.122V374.947H602.578V376.236H599.961V380.982H598.438V370.122H599.961ZM599.961 381.939V387.486H598.438V383.189H588.594V381.939H599.961ZM608.848 373.579C608.848 375.493 610.195 377.447 612.422 378.286L611.621 379.458C609.951 378.814 608.75 377.573 608.125 376.079C607.48 377.74 606.24 379.214 604.531 379.947L603.691 378.755C605.977 377.759 607.383 375.513 607.383 373.579V371.216H608.848V373.579ZM618.418 370.142V380.865H616.953V376.079H614.648V380.318H613.203V370.474H614.648V374.81H616.953V370.142H618.418ZM612.676 381.255C616.27 381.255 618.516 382.388 618.516 384.361C618.516 386.314 616.27 387.447 612.676 387.447C609.062 387.447 606.836 386.314 606.855 384.361C606.836 382.388 609.062 381.255 612.676 381.255ZM612.676 382.427C610.02 382.427 608.359 383.15 608.379 384.361C608.359 385.552 610.02 386.255 612.676 386.255C615.312 386.255 616.973 385.552 616.992 384.361C616.973 383.15 615.312 382.427 612.676 382.427ZM635.039 371.255V378.325H626.895V371.255H635.039ZM628.398 372.505V377.115H633.535V372.505H628.398ZM640.293 370.122V380.103H638.789V370.122H640.293ZM635.586 382.486C635.586 384.185 638.359 385.865 641.348 386.236L640.82 387.427C638.203 387.075 635.82 385.845 634.805 384.224C633.75 385.874 631.309 387.075 628.691 387.427L628.145 386.236C631.133 385.904 634.004 384.224 634.004 382.486H628.867V381.294H634.023V379.595H635.547V381.294H640.742V382.486H635.586ZM663.184 372.056V373.306H649.102V372.056H655.43V370.025H656.934V372.056H663.184ZM664.18 381.216V382.486H659.98V387.525H658.457V382.486H653.965V387.525H652.422V382.486H648.281V381.216H664.18ZM656.191 374.302C659.727 374.302 661.855 375.318 661.855 377.173C661.855 379.009 659.727 380.044 656.191 380.044C652.637 380.044 650.508 379.009 650.527 377.173C650.508 375.318 652.637 374.302 656.191 374.302ZM656.191 375.474C653.594 375.493 652.09 376.099 652.109 377.173C652.09 378.247 653.594 378.853 656.191 378.853C658.75 378.853 660.254 378.247 660.273 377.173C660.254 376.099 658.75 375.493 656.191 375.474ZM675.957 371.997V373.247H665.605V371.997H670.02V370.044H671.543V371.997H675.957ZM670.781 374.146C673.281 374.165 674.941 375.376 674.961 377.29C674.941 379.185 673.281 380.415 670.781 380.415C668.281 380.415 666.582 379.185 666.602 377.29C666.582 375.376 668.281 374.165 670.781 374.146ZM670.781 375.337C669.141 375.357 668.047 376.118 668.066 377.29C668.047 378.443 669.141 379.185 670.781 379.185C672.402 379.185 673.496 378.443 673.516 377.29C673.496 376.118 672.402 375.357 670.781 375.337ZM679.141 370.122V374.947H681.758V376.236H679.141V380.982H677.617V370.122H679.141ZM679.141 381.939V387.486H677.617V383.189H667.773V381.939H679.141ZM688.027 373.579C688.027 375.493 689.375 377.447 691.602 378.286L690.801 379.458C689.131 378.814 687.93 377.573 687.305 376.079C686.66 377.74 685.42 379.214 683.711 379.947L682.871 378.755C685.156 377.759 686.562 375.513 686.562 373.579V371.216H688.027V373.579ZM697.598 370.142V380.865H696.133V376.079H693.828V380.318H692.383V370.474H693.828V374.81H696.133V370.142H697.598ZM691.855 381.255C695.449 381.255 697.695 382.388 697.695 384.361C697.695 386.314 695.449 387.447 691.855 387.447C688.242 387.447 686.016 386.314 686.035 384.361C686.016 382.388 688.242 381.255 691.855 381.255ZM691.855 382.427C689.199 382.427 687.539 383.15 687.559 384.361C687.539 385.552 689.199 386.255 691.855 386.255C694.492 386.255 696.152 385.552 696.172 384.361C696.152 383.15 694.492 382.427 691.855 382.427ZM702.988 384.595L701.465 389.907H700.02L701.094 384.595H702.988ZM724.668 370.122V383.052H723.125V378.013H720.156V376.724H723.125V374.712H720.156V373.443H723.125V370.122H724.668ZM720.02 371.548V372.798H718.242V378.872C719.053 378.823 719.834 378.765 720.586 378.677L720.664 379.829C717.285 380.357 713.32 380.415 710.508 380.415L710.312 379.107C711.006 379.107 711.758 379.097 712.559 379.087V372.798H710.801V371.548H720.02ZM725.137 385.825V387.115H713.477V381.978H715.02V385.825H725.137ZM714.043 379.048C714.932 379.038 715.85 379.009 716.758 378.97V372.798H714.043V379.048ZM741.895 370.122V379.439H740.371V370.122H741.895ZM732.168 380.318V382.427H740.371V380.318H741.895V387.251H730.645V380.318H732.168ZM732.168 386.001H740.371V383.657H732.168V386.001ZM732.52 370.982C735.156 370.962 737.07 372.583 737.07 374.966C737.07 377.329 735.156 378.95 732.52 378.95C729.883 378.95 727.969 377.329 727.969 374.966C727.969 372.583 729.883 370.962 732.52 370.982ZM732.52 372.271C730.742 372.251 729.453 373.384 729.473 374.966C729.453 376.548 730.742 377.681 732.52 377.681C734.277 377.681 735.566 376.548 735.566 374.966C735.566 373.384 734.277 372.251 732.52 372.271ZM750.02 373.579C750.02 375.493 751.367 377.447 753.594 378.286L752.793 379.458C751.123 378.814 749.922 377.573 749.297 376.079C748.652 377.74 747.412 379.214 745.703 379.947L744.863 378.755C747.148 377.759 748.555 375.513 748.555 373.579V371.216H750.02V373.579ZM759.59 370.142V380.865H758.125V376.079H755.82V380.318H754.375V370.474H755.82V374.81H758.125V370.142H759.59ZM753.848 381.255C757.441 381.255 759.688 382.388 759.688 384.361C759.688 386.314 757.441 387.447 753.848 387.447C750.234 387.447 748.008 386.314 748.027 384.361C748.008 382.388 750.234 381.255 753.848 381.255ZM753.848 382.427C751.191 382.427 749.531 383.15 749.551 384.361C749.531 385.552 751.191 386.255 753.848 386.255C756.484 386.255 758.145 385.552 758.164 384.361C758.145 383.15 756.484 382.427 753.848 382.427ZM466.777 408.513C466.797 404.822 467.793 401.755 469.59 399.157H471.074C469.746 401.091 468.516 405.036 468.516 408.513C468.516 411.99 469.746 415.954 471.074 417.888H469.59C467.793 415.271 466.797 412.204 466.777 408.513ZM481.172 403.63V405.759H488.34V406.99H472.52V405.759H479.668V403.63H481.172ZM486.309 408.435V412.38H475.996V414.079H486.836V415.29H474.473V411.247H484.805V409.607H474.434V408.435H486.309ZM486.934 398.689V399.939H481.445C481.592 401.765 484.492 403.093 487.5 403.357L486.992 404.548C484.102 404.245 481.377 403.064 480.449 401.189C479.502 403.064 476.777 404.245 473.887 404.548L473.359 403.357C476.348 403.093 479.248 401.765 479.434 399.939H473.965V398.689H486.934ZM494.59 398.943C496.924 398.923 498.691 400.281 499.023 402.282H502.656V398.122H504.199V407.439H502.656V403.552H499.043C498.73 405.603 496.943 406.97 494.59 406.97C491.953 406.97 490.078 405.329 490.078 402.947C490.078 400.583 491.953 398.923 494.59 398.943ZM494.59 400.251C492.812 400.232 491.543 401.345 491.543 402.947C491.543 404.529 492.812 405.681 494.59 405.681C496.348 405.681 497.598 404.529 497.598 402.947C497.598 401.345 496.348 400.232 494.59 400.251ZM494.551 408.318V410.525H502.656V408.318H504.199V415.251H493.008V408.318H494.551ZM494.551 414.001H502.656V411.755H494.551V414.001ZM512.969 403.454C512.949 406.247 514.961 409.314 517.48 410.505L516.602 411.716C514.648 410.769 512.998 408.698 512.227 406.345C511.426 408.904 509.678 411.15 507.734 412.146L506.797 410.935C509.297 409.724 511.445 406.423 511.465 403.454V401.189H507.422V399.919H516.875V401.189H512.969V403.454ZM520.527 398.122V405.154H523.438V406.462H520.527V415.486H519.004V398.122H520.527ZM527.227 412.595L525.703 417.907H524.258L525.332 412.595H527.227ZM543.418 399.704V400.993H536.816V404.587H543.027V405.837H536.816V410.036C539.941 410.036 542.139 409.909 544.746 409.47L544.922 410.74C542.207 411.189 539.922 411.286 536.641 411.306H535.273V399.704H543.418ZM547.949 398.122V405.115H550.859V406.423H547.949V415.486H546.426V398.122H547.949ZM566.641 398.122V415.486H565.176V406.384H562.617V414.587H561.211V398.513H562.617V405.115H565.176V398.122H566.641ZM558.945 400.251V401.521H553.965V409.88C556.357 409.87 558.018 409.782 559.941 409.392L560.078 410.681C557.988 411.111 556.211 411.189 553.555 411.189H552.441V400.251H558.945ZM574.258 401.579C574.258 403.493 575.605 405.447 577.832 406.286L577.031 407.458C575.361 406.814 574.16 405.573 573.535 404.079C572.891 405.74 571.65 407.214 569.941 407.947L569.102 406.755C571.387 405.759 572.793 403.513 572.793 401.579V399.216H574.258V401.579ZM583.828 398.142V408.865H582.363V404.079H580.059V408.318H578.613V398.474H580.059V402.81H582.363V398.142H583.828ZM578.086 409.255C581.68 409.255 583.926 410.388 583.926 412.361C583.926 414.314 581.68 415.447 578.086 415.447C574.473 415.447 572.246 414.314 572.266 412.361C572.246 410.388 574.473 409.255 578.086 409.255ZM578.086 410.427C575.43 410.427 573.77 411.15 573.789 412.361C573.77 413.552 575.43 414.255 578.086 414.255C580.723 414.255 582.383 413.552 582.402 412.361C582.383 411.15 580.723 410.427 578.086 410.427ZM597.305 401.736C597.305 403.865 599.062 405.759 601.621 406.521L600.898 407.732C598.896 407.107 597.334 405.808 596.582 404.138C595.82 405.984 594.209 407.39 592.148 408.064L591.387 406.853C593.965 406.072 595.801 404.06 595.801 401.736V401.423H591.875V400.193H595.801V398.044H597.344V400.193H601.23V401.423H597.305V401.736ZM604.961 398.122V402.536H607.578V403.825H604.961V408.415H603.438V398.122H604.961ZM604.961 409.216V415.251H594.004V409.216H604.961ZM595.508 410.427V414.001H603.438V410.427H595.508ZM613.34 399.47C614.932 399.48 616.221 400.407 616.973 402.009H621.543V398.122H623.066V415.525H621.543V408.786H617.09C616.357 410.544 615.02 411.56 613.34 411.56C610.781 411.56 608.984 409.216 608.984 405.525C608.984 401.833 610.781 399.49 613.34 399.47ZM613.34 400.837C611.621 400.857 610.449 402.693 610.449 405.525C610.449 408.357 611.621 410.193 613.34 410.193C615.039 410.193 616.23 408.357 616.23 405.525C616.23 402.693 615.039 400.857 613.34 400.837ZM617.422 403.298C617.578 403.972 617.676 404.714 617.676 405.525C617.676 406.238 617.598 406.911 617.48 407.517H621.543V403.298H617.422ZM634.609 398.415V400.075H643.203V398.415H644.727V404.118H633.086V398.415H634.609ZM634.609 402.927H643.203V401.247H634.609V402.927ZM646.797 405.564V406.833H639.629V408.532H644.766V412.38H634.453V414.079H645.293V415.29H632.93V411.247H643.262V409.704H632.891V408.532H638.105V406.833H630.977V405.564H646.797ZM661.699 398.122V405.193H664.512V406.482H661.699V415.486H660.176V398.122H661.699ZM657.207 399.997C657.207 404.919 654.902 409.392 649.238 412.185L648.379 410.974C652.871 408.738 655.312 405.398 655.664 401.286H649.18V399.997H657.207ZM669.883 408.513C669.863 412.204 668.867 415.271 667.07 417.888H665.586C666.914 415.954 668.145 411.99 668.145 408.513C668.145 405.036 666.914 401.091 665.586 399.157H667.07C668.867 401.755 669.863 404.822 669.883 408.513Z" fill="white"/>
<line x1="509" y1="174.182" x2="693" y2="174.182" stroke="url(#paint1_linear_862_140)"/>
<path d="M821.5 147.737C821.5 136.967 830.23 128.237 841 128.237H1181C1191.77 128.237 1200.5 136.967 1200.5 147.737V444C1200.5 454.77 1191.77 463.5 1181 463.5H841C830.23 463.5 821.5 454.77 821.5 444V147.737Z" stroke="white"/>
<path d="M856.875 170.126C856.875 174.72 859.219 179.626 864 181.626L861.844 184.751C858.484 183.329 856.172 180.501 854.906 177.032C853.609 180.798 851.25 183.923 847.906 185.47L845.625 182.314C850.344 180.22 852.781 174.939 852.781 170.126V168.376H846.75V165.126H862.812V168.376H856.875V170.126ZM869.656 162.376V190.814H865.625V162.376H869.656ZM897.594 162.407V183.876H893.594V181.626H888.156V178.907H893.594V162.407H897.594ZM898.219 187.126V190.314H877.031V181.814H881V178.032C878.453 178.142 876.031 178.157 873.875 178.157L873.406 175.001C878.625 174.97 885.656 174.907 891.656 174.157L891.875 177.001C889.625 177.376 887.297 177.642 885 177.814V183.22H881V187.126H898.219ZM882.656 163.376C886.781 163.345 889.75 165.439 889.75 168.47C889.75 171.501 886.781 173.47 882.656 173.47C878.438 173.47 875.5 171.501 875.5 168.47C875.5 165.439 878.406 163.345 882.656 163.376ZM882.656 166.282C880.625 166.282 879.25 167.064 879.281 168.47C879.25 169.845 880.625 170.595 882.656 170.595C884.562 170.595 885.938 169.845 885.969 168.47C885.938 167.064 884.562 166.282 882.656 166.282Z" fill="white"/>
<path d="M1135.09 179.782C1141 179.782 1144.69 181.814 1144.69 185.282C1144.69 188.814 1141 190.845 1135.09 190.845C1129.06 190.845 1125.34 188.814 1125.34 185.282C1125.34 181.814 1129.06 179.782 1135.09 179.782ZM1135.09 182.876C1131.34 182.876 1129.31 183.657 1129.34 185.282C1129.31 186.907 1131.34 187.751 1135.09 187.751C1138.78 187.751 1140.75 186.907 1140.75 185.282C1140.75 183.657 1138.78 182.876 1135.09 182.876ZM1144.41 162.376V168.97H1148.25V172.314H1144.41V179.157H1140.41V162.376H1144.41ZM1126.66 164.157V167.751H1132.47V164.157H1136.47V177.532H1122.69V164.157H1126.66ZM1126.66 174.376H1132.47V170.845H1126.66V174.376ZM1154.72 163.814V167.47H1160.31V163.814H1164.25V168.876H1169.5V162.376H1173.47V177.939H1169.5V172.126H1164.25V177.126H1150.72V163.814H1154.72ZM1154.72 173.939H1160.31V170.532H1154.72V173.939ZM1158.44 179.126V181.751H1169.5V179.126H1173.47V190.439H1154.5V179.126H1158.44ZM1158.44 187.251H1169.5V184.814H1158.44V187.251Z" fill="white"/>
<path d="M859.922 399.649C858.828 399.649 857.93 398.751 857.93 397.638C857.93 396.544 858.828 395.646 859.922 395.646C861.035 395.646 861.934 396.544 861.934 397.638C861.934 398.751 861.035 399.649 859.922 399.649ZM881.328 389.142V403.282H879.551V390.978H879.473L876.035 393.263V391.485L879.551 389.142H881.328ZM890.254 393.165C890.254 395.938 892.07 398.79 894.59 400.001L893.691 401.192C891.777 400.255 890.264 398.36 889.551 396.114C888.789 398.526 887.178 400.548 885.195 401.505L884.316 400.313C886.855 399.122 888.75 396.153 888.77 393.165V391.778H884.785V390.528H888.75V387.833H890.293V390.528H894.199V391.778H890.254V393.165ZM897.91 387.501V394.63H900.82V395.938H897.91V404.864H896.387V387.501H897.91ZM912.988 392.833C912.988 395.782 915.137 398.771 917.695 399.884L916.836 401.095C914.805 400.167 913.047 398.165 912.246 395.763C911.426 398.312 909.678 400.528 907.695 401.524L906.777 400.313C909.258 399.122 911.426 395.841 911.445 392.833V390.567H907.344V389.298H917.129V390.567H912.988V392.833ZM921.094 387.501V404.864H919.551V387.501H921.094ZM938.379 387.521V400.704H936.836V398.907H933.242V397.794H936.836V387.521H938.379ZM938.809 403.204V404.493H926.465V399.415H928.008V403.204H938.809ZM923.965 395.567C927.207 395.548 931.543 395.528 935.273 395.06L935.371 396.173C933.818 396.417 932.197 396.573 930.605 396.661V400.099H929.062V396.739C927.305 396.817 925.635 396.827 924.18 396.817L923.965 395.567ZM929.668 388.224C932.207 388.224 933.945 389.435 933.965 391.251C933.945 393.106 932.207 394.259 929.668 394.259C927.109 394.259 925.371 393.106 925.371 391.251C925.371 389.435 927.109 388.224 929.668 388.224ZM929.668 389.396C927.969 389.376 926.816 390.138 926.836 391.251C926.816 392.384 927.969 393.126 929.668 393.126C931.309 393.126 932.48 392.384 932.5 391.251C932.48 390.138 931.309 389.376 929.668 389.396ZM947.461 392.169C947.461 395.313 949.473 398.478 951.992 399.63L951.074 400.88C949.102 399.864 947.471 397.784 946.699 395.313C945.928 397.911 944.297 400.138 942.324 401.192L941.328 399.962C943.867 398.712 945.898 395.372 945.898 392.169V389.005H947.461V392.169ZM955.742 387.501V404.903H954.219V394.688H950.098V393.438H954.219V387.501H955.742ZM978.496 387.501V404.864H977.031V387.501H978.496ZM974.98 387.931V403.966H973.535V395.021H970.605V393.771H973.535V387.931H974.98ZM968.75 392.462C968.75 395.47 970.098 398.458 972.5 399.845L971.562 400.978C969.854 399.952 968.643 398.077 968.047 395.86C967.412 398.253 966.152 400.294 964.414 401.388L963.438 400.235C965.859 398.79 967.266 395.626 967.266 392.462V390.821H963.926V389.552H971.934V390.821H968.75V392.462ZM996.758 395.235V396.427H989.59V398.048H994.727V401.798H984.414V403.497H995.254V404.669H982.891V400.704H993.223V399.2H982.852V398.048H988.086V396.427H980.957V395.235H996.758ZM989.59 387.403V389.024H995.156V390.235H989.707C989.99 391.964 992.705 393.058 995.898 393.263L995.43 394.435C992.529 394.19 989.912 393.292 988.848 391.642C987.783 393.292 985.166 394.19 982.246 394.435L981.797 393.263C984.971 393.058 987.686 391.964 987.988 390.235H982.578V389.024H988.086V387.403H989.59ZM1012.3 388.634V395.704H1004.16V388.634H1012.3ZM1005.66 389.884V394.493H1010.8V389.884H1005.66ZM1017.56 387.501V397.481H1016.05V387.501H1017.56ZM1012.85 399.864C1012.85 401.563 1015.62 403.243 1018.61 403.614L1018.09 404.806C1015.47 404.454 1013.09 403.224 1012.07 401.603C1011.02 403.253 1008.57 404.454 1005.96 404.806L1005.41 403.614C1008.4 403.282 1011.27 401.603 1011.27 399.864H1006.13V398.673H1011.29V396.974H1012.81V398.673H1018.01V399.864H1012.85ZM1031.66 392.169C1031.66 395.313 1033.67 398.478 1036.19 399.63L1035.27 400.88C1033.3 399.864 1031.67 397.784 1030.9 395.313C1030.13 397.911 1028.5 400.138 1026.52 401.192L1025.53 399.962C1028.07 398.712 1030.1 395.372 1030.1 392.169V389.005H1031.66V392.169ZM1039.94 387.501V404.903H1038.42V394.688H1034.3V393.438H1038.42V387.501H1039.94ZM1058.71 397.872V399.103H1054.53V404.864H1053.01V399.103H1048.52V404.864H1046.97V399.103H1042.81V397.872H1058.71ZM1056.78 388.185V392.638H1046.31V394.806H1057.15V396.075H1044.77V391.446H1055.21V389.454H1044.73V388.185H1056.78ZM1079.47 387.521V397.384H1077.95V387.521H1079.47ZM1079.47 398.38V404.63H1068.18V398.38H1079.47ZM1069.69 399.63V403.38H1077.97V399.63H1069.69ZM1071.29 389.903C1071.27 392.364 1073.14 394.532 1075.7 395.431L1074.92 396.603C1072.91 395.909 1071.31 394.444 1070.53 392.54C1069.76 394.571 1068.13 396.173 1066.05 396.935L1065.27 395.724C1067.91 394.806 1069.73 392.462 1069.73 389.903V388.204H1071.29V389.903ZM1088.24 392.169C1088.24 395.235 1090.27 398.38 1092.73 399.591L1091.8 400.821C1089.88 399.815 1088.28 397.765 1087.52 395.353C1086.74 397.921 1085.1 400.108 1083.14 401.153L1082.17 399.923C1084.71 398.673 1086.72 395.333 1086.74 392.169V389.005H1088.24V392.169ZM1095.86 387.501V394.552H1098.77V395.88H1095.86V404.864H1094.34V387.501H1095.86ZM859.922 423.649C858.828 423.649 857.93 422.751 857.93 421.638C857.93 420.544 858.828 419.646 859.922 419.646C861.035 419.646 861.934 420.544 861.934 421.638C861.934 422.751 861.035 423.649 859.922 423.649ZM876.328 427.282L876.309 425.993L881.133 420.915C882.812 419.138 883.613 418.181 883.613 416.872C883.613 415.427 882.383 414.47 880.801 414.47C879.121 414.47 878.047 415.544 878.047 417.126H876.387C876.367 414.626 878.301 412.946 880.859 412.946C883.418 412.946 885.254 414.665 885.254 416.872C885.254 418.454 884.512 419.685 882.012 422.263L878.77 425.603V425.72H885.508V427.282H876.328ZM893.223 417.165C893.223 419.938 895.039 422.79 897.559 424.001L896.66 425.192C894.746 424.255 893.232 422.36 892.52 420.114C891.758 422.526 890.146 424.548 888.164 425.505L887.285 424.313C889.824 423.122 891.719 420.153 891.738 417.165V415.778H887.754V414.528H891.719V411.833H893.262V414.528H897.168V415.778H893.223V417.165ZM900.879 411.501V418.63H903.789V419.938H900.879V428.864H899.355V411.501H900.879ZM918.535 413.024V414.567H922.598V411.521H924.141V424.196H922.598V419.567H918.535V421.13H910.566V413.024H918.535ZM912.09 414.294V419.899H917.031V414.294H912.09ZM924.531 427.204V428.493H912.91V423.063H914.453V427.204H924.531ZM918.535 418.298H922.598V415.856H918.535V418.298ZM941.406 411.501V420.935H939.883V417.009H936.367V415.72H939.883V411.501H941.406ZM931.777 421.774V423.942H939.883V421.774H941.406V428.63H930.234V421.774H931.777ZM931.777 427.38H939.883V425.173H931.777V427.38ZM933.066 414.333C933.066 416.56 934.805 418.747 937.344 419.626L936.543 420.817C934.58 420.104 933.066 418.649 932.324 416.853C931.572 418.864 929.971 420.476 927.91 421.228L927.109 420.017C929.668 419.099 931.523 416.794 931.523 414.333V413.825H927.598V412.556H936.953V413.825H933.066V414.333ZM964.238 413.493V414.763H950.156V413.493H956.484V411.403H957.988V413.493H964.238ZM965.234 422.751V424.021H957.988V428.903H956.484V424.021H949.336V422.751H965.234ZM957.246 415.759C960.781 415.759 962.91 416.794 962.91 418.669C962.91 420.505 960.781 421.54 957.246 421.56C953.691 421.54 951.562 420.505 951.582 418.669C951.562 416.794 953.691 415.759 957.246 415.759ZM957.246 416.931C954.648 416.931 953.145 417.575 953.164 418.669C953.145 419.743 954.648 420.368 957.246 420.368C959.805 420.368 961.309 419.743 961.328 418.669C961.309 417.575 959.805 416.931 957.246 416.931ZM978.223 420.661V423.845C979.893 423.776 981.602 423.63 983.203 423.396L983.32 424.528C979.355 425.251 975.078 425.271 971.953 425.271L971.738 424.001C973.193 423.991 974.912 423.981 976.719 423.923V420.661H978.223ZM982.305 413.786V415.056H978.223C978.262 417.302 980.127 419.128 982.695 419.86L981.973 421.071C979.883 420.446 978.252 419.108 977.48 417.341C976.719 419.206 975.098 420.593 973.008 421.228L972.266 420.056C974.834 419.304 976.641 417.399 976.68 415.056H972.695V413.786H976.719V411.638H978.223V413.786H982.305ZM985.879 411.501V428.903H984.355V411.501H985.879ZM997.578 417.673V420.153H1004.75V421.423H988.926V420.153H996.074V417.673H997.578ZM996.836 422.849C1000.57 422.849 1002.79 423.903 1002.81 425.837C1002.79 427.771 1000.57 428.825 996.836 428.825C993.066 428.825 990.84 427.771 990.84 425.837C990.84 423.903 993.066 422.849 996.836 422.849ZM996.836 424.06C994.023 424.06 992.383 424.704 992.402 425.837C992.383 426.97 994.023 427.634 996.836 427.634C999.609 427.634 1001.27 426.97 1001.27 425.837C1001.27 424.704 999.609 424.06 996.836 424.06ZM1003.34 412.321V413.571H997.832C997.93 415.505 1000.84 416.999 1003.87 417.321L1003.3 418.532C1000.46 418.19 997.793 416.95 996.836 415.017C995.889 416.95 993.232 418.19 990.371 418.532L989.805 417.321C992.832 416.999 995.723 415.524 995.84 413.571H990.371V412.321H1003.34ZM1024.8 411.501V415.954H1027.42V417.263H1024.8V421.599H1023.28V411.501H1024.8ZM1015.35 422.36V424.216H1023.28V422.36H1024.8V428.63H1013.83V422.36H1015.35ZM1015.35 427.399H1023.28V425.427H1015.35V427.399ZM1021.62 413.298V414.567H1011.27V413.298H1015.68V411.345H1017.21V413.298H1021.62ZM1016.45 415.368C1018.95 415.368 1020.61 416.56 1020.62 418.415C1020.61 420.271 1018.95 421.462 1016.45 421.462C1013.93 421.462 1012.25 420.271 1012.27 418.415C1012.25 416.56 1013.93 415.368 1016.45 415.368ZM1016.45 416.56C1014.8 416.54 1013.71 417.302 1013.73 418.415C1013.71 419.548 1014.8 420.29 1016.45 420.29C1018.07 420.29 1019.16 419.548 1019.18 418.415C1019.16 417.302 1018.07 416.54 1016.45 416.56ZM1037.68 412.692C1037.68 413.366 1037.6 414.011 1037.46 414.626H1041.37V411.521H1042.91V421.872H1041.37V419.567H1036.76V418.298H1041.37V415.896H1037.05C1035.87 418.63 1033.15 420.603 1029.39 421.638L1028.79 420.407C1033.03 419.235 1035.71 416.901 1036.04 413.942H1029.67V412.692H1037.68ZM1042.91 422.634V428.845H1041.37V423.864H1031.23V422.634H1042.91Z" fill="white"/>
<line x1="919" y1="174.182" x2="1103" y2="174.182" stroke="url(#paint2_linear_862_140)"/>
<path d="M0.999984 59.5623L232 49.1904" stroke="#FF731D" stroke-width="6"/>
<path d="M9.19621 66.5955L219.099 63.5743" stroke="#FF731D" stroke-width="6"/>
<defs>
<linearGradient id="paint0_linear_862_140" x1="283" y1="175.626" x2="99" y2="175.626" gradientUnits="userSpaceOnUse">
<stop offset="0.3125" stop-color="#FF731D"/>
<stop offset="1" stop-color="white"/>
</linearGradient>
<linearGradient id="paint1_linear_862_140" x1="693" y1="175.626" x2="509" y2="175.626" gradientUnits="userSpaceOnUse">
<stop offset="0.3125" stop-color="#FF731D"/>
<stop offset="1" stop-color="white"/>
</linearGradient>
<linearGradient id="paint2_linear_862_140" x1="1103" y1="175.626" x2="919" y2="175.626" gradientUnits="userSpaceOnUse">
<stop offset="0.3125" stop-color="#FF731D"/>
<stop offset="1" stop-color="white"/>
</linearGradient>
</defs>
</svg>
