<svg width="1201" height="425" viewBox="0 0 1201 425" fill="none" xmlns="http://www.w3.org/2000/svg">
<path d="M22.1084 15.4555L23.9809 9.87434H35.6132V1.28796H2.13486V9.87434H10.6463L1 39.0681H14.3346L19.1578 24.4283L23.4135 39.0681H36.7481L29.9389 15.4555H22.1084ZM53.771 0H40.7201V39.0681H53.771V0Z" fill="white"/>
<path d="M110.514 0H97.4631V5.15183H93.0371C91.1079 2.18953 86.228 0 76.1845 0C62.3392 0 58.3104 4.12147 58.3104 8.80105C58.3104 13.4806 62.3392 17.6021 76.1845 17.6021C86.228 17.6021 91.1079 15.4555 93.0371 12.4503H97.4631V28.7644H110.514V0ZM82.9936 26.6178H94.6259V19.3194H57.743V26.6178H70.5102V28.3351H59.4453V40.356H110.514V33.0576H72.4962V30.4817H82.9936V26.6178ZM83.8448 8.80105C83.8448 10.0461 82.5964 10.733 76.1845 10.733C69.7725 10.733 68.5242 10.0461 68.5242 8.80105C68.5242 7.55602 69.7725 6.86911 76.1845 6.86911C82.5964 6.86911 83.8448 7.55602 83.8448 8.80105Z" fill="white"/>
<path d="M137.183 1.28796V4.93717H127.537V1.28796H115.621V24.0419L149.099 21.8953V1.28796H137.183ZM165.838 32.9288C165.838 27.777 159.086 24.8576 141.155 24.8576C123.224 24.8576 116.472 27.777 116.472 32.9288C116.472 38.0806 123.224 41 141.155 41C159.086 41 165.838 38.0806 165.838 32.9288ZM164.987 7.51309V0H151.936V24.0419H164.987V16.5288H169.527V7.51309H164.987ZM152.788 32.9288C152.788 33.9162 151.482 34.5602 141.155 34.5602C130.828 34.5602 129.523 33.9162 129.523 32.9288C129.523 31.9414 130.828 31.2974 141.155 31.2974C151.482 31.2974 152.788 31.9414 152.788 32.9288ZM127.537 12.2356H137.183V15.3696L127.537 15.9707V12.2356Z" fill="white"/>
<path d="M224 0H210.949V6.43979H205.842V1.28796H193.926V4.72251H184.28V1.28796H172.364V21.0366L205.842 19.3194V14.5969H210.949V21.0366H224V0ZM210.949 22.3246V25.9738H185.415V22.3246H172.364V40.356H224V22.3246H210.949ZM185.415 31.7696H210.949V34.1309H185.415V31.7696ZM184.28 10.733H193.926V13.5236L184.28 13.9958V10.733Z" fill="white"/>
<path d="M1.5 137C1.5 126.23 10.2304 117.5 21 117.5H361C371.77 117.5 380.5 126.23 380.5 137V405C380.5 415.77 371.77 424.5 361 424.5H21C10.2304 424.5 1.5 415.77 1.5 405V137Z" stroke="white"/>
<path d="M39.9219 271.367C38.8281 271.367 37.9297 270.469 37.9297 269.355C37.9297 268.262 38.8281 267.363 39.9219 267.363C41.0352 267.363 41.9336 268.262 41.9336 269.355C41.9336 270.469 41.0352 271.367 39.9219 271.367ZM61.3281 260.859V275H59.5508V262.695H59.4727L56.0352 264.98V263.203L59.5508 260.859H61.3281ZM70.2539 264.883C70.2539 267.656 72.0703 270.508 74.5898 271.719L73.6914 272.91C71.7773 271.973 70.2637 270.078 69.5508 267.832C68.7891 270.244 67.1777 272.266 65.1953 273.223L64.3164 272.031C66.8555 270.84 68.75 267.871 68.7695 264.883V263.496H64.7852V262.246H68.75V259.551H70.293V262.246H74.1992V263.496H70.2539V264.883ZM77.9102 259.219V266.348H80.8203V267.656H77.9102V276.582H76.3867V259.219H77.9102ZM92.8906 263.887C92.8906 267.031 94.9023 270.195 97.4219 271.348L96.5039 272.598C94.5312 271.582 92.9004 269.502 92.1289 267.031C91.3574 269.629 89.7266 271.855 87.7539 272.91L86.7578 271.68C89.2969 270.43 91.3281 267.09 91.3281 263.887V260.723H92.8906V263.887ZM101.172 259.219V276.621H99.6484V266.406H95.5273V265.156H99.6484V259.219H101.172ZM119.941 269.59V270.82H115.762V276.582H114.238V270.82H109.746V276.582H108.203V270.82H104.043V269.59H119.941ZM118.008 259.902V264.355H107.539V266.523H118.379V267.793H105.996V263.164H116.445V261.172H105.957V259.902H118.008ZM123.184 275.117C122.5 275.117 121.914 274.551 121.934 273.848C121.914 273.164 122.5 272.598 123.184 272.598C123.867 272.598 124.434 273.164 124.434 273.848C124.434 274.551 123.867 275.117 123.184 275.117ZM123.184 267.266C122.5 267.266 121.914 266.699 121.934 265.996C121.914 265.312 122.5 264.746 123.184 264.746C123.867 264.746 124.434 265.312 124.434 265.996C124.434 266.699 123.867 267.266 123.184 267.266ZM137.07 260.859V275H135.293V262.695H135.215L131.777 264.98V263.203L135.293 260.859H137.07ZM145.469 275.195C142.324 275.195 140.527 272.559 140.527 267.93C140.527 263.34 142.363 260.664 145.469 260.664C148.574 260.664 150.41 263.34 150.41 267.93C150.41 272.559 148.594 275.195 145.469 275.195ZM145.469 273.633C147.5 273.633 148.691 271.582 148.691 267.93C148.691 264.277 147.5 262.188 145.469 262.188C143.438 262.188 142.227 264.277 142.227 267.93C142.227 271.582 143.418 273.633 145.469 273.633ZM166.445 259.238V269.473H164.902V268.516H161.387V267.5H164.902V259.238H166.445ZM152.07 265.781C155.43 265.801 159.727 265.762 163.477 265.352L163.574 266.348C161.875 266.592 160.107 266.738 158.379 266.816V269.531H156.875V266.875C155.234 266.934 153.662 266.943 152.246 266.934L152.07 265.781ZM166.445 270.098V273.691H156.309V275.254H167.012V276.387H154.805V272.617H164.922V271.211H154.727V270.098H166.445ZM157.734 259.57C160.312 259.57 162.031 260.586 162.051 262.188C162.031 263.809 160.312 264.785 157.734 264.785C155.117 264.785 153.418 263.809 153.418 262.188C153.418 260.586 155.117 259.57 157.734 259.57ZM157.734 260.645C155.977 260.645 154.844 261.25 154.863 262.188C154.844 263.105 155.977 263.73 157.734 263.73C159.473 263.73 160.605 263.105 160.605 262.188C160.605 261.25 159.473 260.645 157.734 260.645ZM179.941 275.195C177.129 275.195 175.117 273.691 175.02 271.445H176.797C176.895 272.793 178.242 273.633 179.922 273.633C181.777 273.633 183.145 272.617 183.145 271.152C183.145 269.609 181.914 268.516 179.707 268.516H178.555V266.973H179.707C181.426 266.973 182.617 266.016 182.617 264.551C182.617 263.145 181.582 262.188 179.98 262.188C178.477 262.188 177.09 263.027 177.012 264.414H175.312C175.41 262.168 177.48 260.664 180 260.664C182.695 260.664 184.336 262.422 184.316 264.453C184.336 266.055 183.398 267.246 181.914 267.656V267.754C183.75 268.047 184.883 269.355 184.863 271.152C184.883 273.477 182.754 275.195 179.941 275.195ZM192.031 275.195C188.887 275.195 187.09 272.559 187.09 267.93C187.09 263.34 188.926 260.664 192.031 260.664C195.137 260.664 196.973 263.34 196.973 267.93C196.973 272.559 195.156 275.195 192.031 275.195ZM192.031 273.633C194.062 273.633 195.254 271.582 195.254 267.93C195.254 264.277 194.062 262.188 192.031 262.188C190 262.188 188.789 264.277 188.789 267.93C188.789 271.582 189.98 273.633 192.031 273.633ZM203.613 259.863C206.211 259.883 208.105 261.445 208.105 263.711C208.105 265.977 206.211 267.539 203.613 267.539C200.977 267.539 199.102 265.977 199.102 263.711C199.102 261.445 200.977 259.883 203.613 259.863ZM203.613 261.152C201.875 261.152 200.586 262.207 200.605 263.711C200.586 265.234 201.875 266.289 203.613 266.289C205.332 266.289 206.621 265.234 206.621 263.711C206.621 262.207 205.332 261.152 203.613 261.152ZM213.027 259.219V268.145H211.504V259.219H213.027ZM213.027 268.984V273.164H203.281V275.117H213.652V276.348H201.777V272.012H211.504V270.215H201.738V268.984H213.027ZM222.188 269.199C222.812 268.477 223.594 268.086 224.453 268.086C225.938 268.086 227.285 269.219 228.711 269.219C229.59 269.219 230.352 268.789 230.938 267.988V269.609C230.293 270.352 229.531 270.723 228.672 270.723C227.188 270.723 225.84 269.59 224.395 269.59C223.535 269.59 222.773 270.02 222.188 270.82V269.199ZM244.18 260.859V275H242.402V262.695H242.324L238.887 264.98V263.203L242.402 260.859H244.18ZM252.949 260.859V275H251.172V262.695H251.094L247.656 264.98V263.203L251.172 260.859H252.949ZM270.41 259.238V269.473H268.867V268.516H265.352V267.5H268.867V259.238H270.41ZM256.035 265.781C259.395 265.801 263.691 265.762 267.441 265.352L267.539 266.348C265.84 266.592 264.072 266.738 262.344 266.816V269.531H260.84V266.875C259.199 266.934 257.627 266.943 256.211 266.934L256.035 265.781ZM270.41 270.098V273.691H260.273V275.254H270.977V276.387H258.77V272.617H268.887V271.211H258.691V270.098H270.41ZM261.699 259.57C264.277 259.57 265.996 260.586 266.016 262.188C265.996 263.809 264.277 264.785 261.699 264.785C259.082 264.785 257.383 263.809 257.383 262.188C257.383 260.586 259.082 259.57 261.699 259.57ZM261.699 260.645C259.941 260.645 258.809 261.25 258.828 262.188C258.809 263.105 259.941 263.73 261.699 263.73C263.438 263.73 264.57 263.105 264.57 262.188C264.57 261.25 263.438 260.645 261.699 260.645ZM284.023 260.859V275H282.246V262.695H282.168L278.73 264.98V263.203L282.246 260.859H284.023ZM292.793 260.859V275H291.016V262.695H290.938L287.5 264.98V263.203L291.016 260.859H292.793ZM300.859 259.863C303.457 259.883 305.352 261.445 305.352 263.711C305.352 265.977 303.457 267.539 300.859 267.539C298.223 267.539 296.348 265.977 296.348 263.711C296.348 261.445 298.223 259.883 300.859 259.863ZM300.859 261.152C299.121 261.152 297.832 262.207 297.852 263.711C297.832 265.234 299.121 266.289 300.859 266.289C302.578 266.289 303.867 265.234 303.867 263.711C303.867 262.207 302.578 261.152 300.859 261.152ZM310.273 259.219V268.145H308.75V259.219H310.273ZM310.273 268.984V273.164H300.527V275.117H310.898V276.348H299.023V272.012H308.75V270.215H298.984V268.984H310.273ZM39.9219 299.367C38.8281 299.367 37.9297 298.469 37.9297 297.355C37.9297 296.262 38.8281 295.363 39.9219 295.363C41.0352 295.363 41.9336 296.262 41.9336 297.355C41.9336 298.469 41.0352 299.367 39.9219 299.367ZM64.4922 288.742V290.285H68.5547V287.238H70.0977V299.914H68.5547V295.285H64.4922V296.848H56.5234V288.742H64.4922ZM58.0469 290.012V295.617H62.9883V290.012H58.0469ZM70.4883 302.922V304.211H58.8672V298.781H60.4102V302.922H70.4883ZM64.4922 294.016H68.5547V291.574H64.4922V294.016ZM87.3633 287.219V296.652H85.8398V292.727H82.3242V291.438H85.8398V287.219H87.3633ZM77.7344 297.492V299.66H85.8398V297.492H87.3633V304.348H76.1914V297.492H77.7344ZM77.7344 303.098H85.8398V300.891H77.7344V303.098ZM79.0234 290.051C79.0234 292.277 80.7617 294.465 83.3008 295.344L82.5 296.535C80.5371 295.822 79.0234 294.367 78.2812 292.57C77.5293 294.582 75.9277 296.193 73.8672 296.945L73.0664 295.734C75.625 294.816 77.4805 292.512 77.4805 290.051V289.543H73.5547V288.273H82.9102V289.543H79.0234V290.051ZM110.137 287.219V304.582H108.672V295.48H106.113V303.684H104.707V287.609H106.113V294.211H108.672V287.219H110.137ZM102.441 289.348V290.617H97.4609V298.977C99.8535 298.967 101.514 298.879 103.438 298.488L103.574 299.777C101.484 300.207 99.707 300.285 97.0508 300.285H95.9375V289.348H102.441ZM118.379 290.031C118.379 292.395 120.176 294.562 122.695 295.422L121.855 296.633C119.932 295.93 118.418 294.494 117.656 292.688C116.914 294.729 115.371 296.34 113.34 297.121L112.52 295.891C115.117 294.914 116.855 292.59 116.875 289.914V288.117H118.379V290.031ZM126.152 287.219V291.75H128.77V293.039H126.152V297.785H124.629V287.219H126.152ZM120.586 298.234C124.16 298.234 126.309 299.387 126.309 301.379C126.309 303.41 124.16 304.543 120.586 304.543C117.012 304.543 114.824 303.41 114.824 301.379C114.824 299.387 117.012 298.234 120.586 298.234ZM120.586 299.465C117.969 299.465 116.348 300.188 116.367 301.379C116.348 302.609 117.969 303.312 120.586 303.332C123.223 303.312 124.824 302.609 124.824 301.379C124.824 300.188 123.223 299.465 120.586 299.465ZM135.742 292.551C135.723 295.344 137.734 298.41 140.254 299.602L139.375 300.812C137.422 299.865 135.771 297.795 135 295.441C134.199 298 132.451 300.246 130.508 301.242L129.57 300.031C132.07 298.82 134.219 295.52 134.238 292.551V290.285H130.195V289.016H139.648V290.285H135.742V292.551ZM143.301 287.219V294.25H146.211V295.559H143.301V304.582H141.777V287.219H143.301ZM160.02 298.195C163.75 298.195 166.113 299.367 166.113 301.379C166.113 303.371 163.75 304.543 160.02 304.543C156.309 304.543 153.945 303.371 153.945 301.379C153.945 299.367 156.309 298.195 160.02 298.195ZM160.02 299.367C157.246 299.387 155.449 300.148 155.469 301.379C155.449 302.59 157.246 303.332 160.02 303.332C162.793 303.332 164.57 302.59 164.59 301.379C164.57 300.148 162.793 299.387 160.02 299.367ZM165.977 288.117V289.582C165.977 290.988 165.977 292.395 165.488 294.191L163.984 294.016C164.453 292.219 164.453 290.949 164.453 289.582V289.367H154.062V288.117H165.977ZM167.988 295.324V296.574H152.188V295.324H158.73V291.965H160.234V295.324H167.988ZM175.664 292.551C175.664 295.5 177.812 298.488 180.371 299.602L179.512 300.812C177.48 299.885 175.723 297.883 174.922 295.48C174.102 298.029 172.354 300.246 170.371 301.242L169.453 300.031C171.934 298.84 174.102 295.559 174.121 292.551V290.285H170.02V289.016H179.805V290.285H175.664V292.551ZM183.77 287.219V304.582H182.227V287.219H183.77ZM193.594 303.117C192.91 303.117 192.324 302.551 192.344 301.848C192.324 301.164 192.91 300.598 193.594 300.598C194.277 300.598 194.844 301.164 194.844 301.848C194.844 302.551 194.277 303.117 193.594 303.117ZM193.594 295.266C192.91 295.266 192.324 294.699 192.344 293.996C192.324 293.312 192.91 292.746 193.594 292.746C194.277 292.746 194.844 293.312 194.844 293.996C194.844 294.699 194.277 295.266 193.594 295.266ZM207.48 288.859V303H205.703V290.695H205.625L202.188 292.98V291.203L205.703 288.859H207.48ZM216.25 288.859V303H214.473V290.695H214.395L210.957 292.98V291.203L214.473 288.859H216.25ZM233.711 287.238V297.473H232.168V296.516H228.652V295.5H232.168V287.238H233.711ZM219.336 293.781C222.695 293.801 226.992 293.762 230.742 293.352L230.84 294.348C229.141 294.592 227.373 294.738 225.645 294.816V297.531H224.141V294.875C222.5 294.934 220.928 294.943 219.512 294.934L219.336 293.781ZM233.711 298.098V301.691H223.574V303.254H234.277V304.387H222.07V300.617H232.188V299.211H221.992V298.098H233.711ZM225 287.57C227.578 287.57 229.297 288.586 229.316 290.188C229.297 291.809 227.578 292.785 225 292.785C222.383 292.785 220.684 291.809 220.684 290.188C220.684 288.586 222.383 287.57 225 287.57ZM225 288.645C223.242 288.645 222.109 289.25 222.129 290.188C222.109 291.105 223.242 291.73 225 291.73C226.738 291.73 227.871 291.105 227.871 290.188C227.871 289.25 226.738 288.645 225 288.645ZM247.324 288.859V303H245.547V290.695H245.469L242.031 292.98V291.203L245.547 288.859H247.324ZM251.094 303L251.074 301.711L255.898 296.633C257.578 294.855 258.379 293.898 258.379 292.59C258.379 291.145 257.148 290.188 255.566 290.188C253.887 290.188 252.812 291.262 252.812 292.844H251.152C251.133 290.344 253.066 288.664 255.625 288.664C258.184 288.664 260.02 290.383 260.02 292.59C260.02 294.172 259.277 295.402 256.777 297.98L253.535 301.32V301.438H260.273V303H251.094ZM267.129 287.863C269.727 287.883 271.621 289.445 271.621 291.711C271.621 293.977 269.727 295.539 267.129 295.539C264.492 295.539 262.617 293.977 262.617 291.711C262.617 289.445 264.492 287.883 267.129 287.863ZM267.129 289.152C265.391 289.152 264.102 290.207 264.121 291.711C264.102 293.234 265.391 294.289 267.129 294.289C268.848 294.289 270.137 293.234 270.137 291.711C270.137 290.207 268.848 289.152 267.129 289.152ZM276.543 287.219V296.145H275.02V287.219H276.543ZM276.543 296.984V301.164H266.797V303.117H277.168V304.348H265.293V300.012H275.02V298.215H265.254V296.984H276.543ZM39.9219 327.367C38.8281 327.367 37.9297 326.469 37.9297 325.355C37.9297 324.262 38.8281 323.363 39.9219 323.363C41.0352 323.363 41.9336 324.262 41.9336 325.355C41.9336 326.469 41.0352 327.367 39.9219 327.367ZM56.3281 331L56.3086 329.711L61.1328 324.633C62.8125 322.855 63.6133 321.898 63.6133 320.59C63.6133 319.145 62.3828 318.188 60.8008 318.188C59.1211 318.188 58.0469 319.262 58.0469 320.844H56.3867C56.3672 318.344 58.3008 316.664 60.8594 316.664C63.418 316.664 65.2539 318.383 65.2539 320.59C65.2539 322.172 64.5117 323.402 62.0117 325.98L58.7695 329.32V329.438H65.5078V331H56.3281ZM73.2227 320.883C73.2227 323.656 75.0391 326.508 77.5586 327.719L76.6602 328.91C74.7461 327.973 73.2324 326.078 72.5195 323.832C71.7578 326.244 70.1465 328.266 68.1641 329.223L67.2852 328.031C69.8242 326.84 71.7188 323.871 71.7383 320.883V319.496H67.7539V318.246H71.7188V315.551H73.2617V318.246H77.168V319.496H73.2227V320.883ZM80.8789 315.219V322.348H83.7891V323.656H80.8789V332.582H79.3555V315.219H80.8789ZM98.5352 316.742V318.285H102.598V315.238H104.141V327.914H102.598V323.285H98.5352V324.848H90.5664V316.742H98.5352ZM92.0898 318.012V323.617H97.0312V318.012H92.0898ZM104.531 330.922V332.211H92.9102V326.781H94.4531V330.922H104.531ZM98.5352 322.016H102.598V319.574H98.5352V322.016ZM121.406 315.219V324.652H119.883V320.727H116.367V319.438H119.883V315.219H121.406ZM111.777 325.492V327.66H119.883V325.492H121.406V332.348H110.234V325.492H111.777ZM111.777 331.098H119.883V328.891H111.777V331.098ZM113.066 318.051C113.066 320.277 114.805 322.465 117.344 323.344L116.543 324.535C114.58 323.822 113.066 322.367 112.324 320.57C111.572 322.582 109.971 324.193 107.91 324.945L107.109 323.734C109.668 322.816 111.523 320.512 111.523 318.051V317.543H107.598V316.273H116.953V317.543H113.066V318.051ZM126.152 331.117C125.469 331.117 124.883 330.551 124.902 329.848C124.883 329.164 125.469 328.598 126.152 328.598C126.836 328.598 127.402 329.164 127.402 329.848C127.402 330.551 126.836 331.117 126.152 331.117ZM126.152 323.266C125.469 323.266 124.883 322.699 124.902 321.996C124.883 321.312 125.469 320.746 126.152 320.746C126.836 320.746 127.402 321.312 127.402 321.996C127.402 322.699 126.836 323.266 126.152 323.266ZM140.039 316.859V331H138.262V318.695H138.184L134.746 320.98V319.203L138.262 316.859H140.039ZM148.809 316.859V331H147.031V318.695H146.953L143.516 320.98V319.203L147.031 316.859H148.809ZM166.27 315.238V325.473H164.727V324.516H161.211V323.5H164.727V315.238H166.27ZM151.895 321.781C155.254 321.801 159.551 321.762 163.301 321.352L163.398 322.348C161.699 322.592 159.932 322.738 158.203 322.816V325.531H156.699V322.875C155.059 322.934 153.486 322.943 152.07 322.934L151.895 321.781ZM166.27 326.098V329.691H156.133V331.254H166.836V332.387H154.629V328.617H164.746V327.211H154.551V326.098H166.27ZM157.559 315.57C160.137 315.57 161.855 316.586 161.875 318.188C161.855 319.809 160.137 320.785 157.559 320.785C154.941 320.785 153.242 319.809 153.242 318.188C153.242 316.586 154.941 315.57 157.559 315.57ZM157.559 316.645C155.801 316.645 154.668 317.25 154.688 318.188C154.668 319.105 155.801 319.73 157.559 319.73C159.297 319.73 160.43 319.105 160.43 318.188C160.43 317.25 159.297 316.645 157.559 316.645ZM179.883 316.859V331H178.105V318.695H178.027L174.59 320.98V319.203L178.105 316.859H179.883ZM188.535 331.195C185.723 331.195 183.711 329.691 183.613 327.445H185.391C185.488 328.793 186.836 329.633 188.516 329.633C190.371 329.633 191.738 328.617 191.738 327.152C191.738 325.609 190.508 324.516 188.301 324.516H187.148V322.973H188.301C190.02 322.973 191.211 322.016 191.211 320.551C191.211 319.145 190.176 318.188 188.574 318.188C187.07 318.188 185.684 319.027 185.605 320.414H183.906C184.004 318.168 186.074 316.664 188.594 316.664C191.289 316.664 192.93 318.422 192.91 320.453C192.93 322.055 191.992 323.246 190.508 323.656V323.754C192.344 324.047 193.477 325.355 193.457 327.152C193.477 329.477 191.348 331.195 188.535 331.195ZM200.293 315.863C202.891 315.883 204.785 317.445 204.785 319.711C204.785 321.977 202.891 323.539 200.293 323.539C197.656 323.539 195.781 321.977 195.781 319.711C195.781 317.445 197.656 315.883 200.293 315.863ZM200.293 317.152C198.555 317.152 197.266 318.207 197.285 319.711C197.266 321.234 198.555 322.289 200.293 322.289C202.012 322.289 203.301 321.234 203.301 319.711C203.301 318.207 202.012 317.152 200.293 317.152ZM209.707 315.219V324.145H208.184V315.219H209.707ZM209.707 324.984V329.164H199.961V331.117H210.332V332.348H198.457V328.012H208.184V326.215H198.418V324.984H209.707ZM218.867 325.199C219.492 324.477 220.273 324.086 221.133 324.086C222.617 324.086 223.965 325.219 225.391 325.219C226.27 325.219 227.031 324.789 227.617 323.988V325.609C226.973 326.352 226.211 326.723 225.352 326.723C223.867 326.723 222.52 325.59 221.074 325.59C220.215 325.59 219.453 326.02 218.867 326.82V325.199ZM240.859 316.859V331H239.082V318.695H239.004L235.566 320.98V319.203L239.082 316.859H240.859ZM249.629 316.859V331H247.852V318.695H247.773L244.336 320.98V319.203L247.852 316.859H249.629ZM267.09 315.238V325.473H265.547V324.516H262.031V323.5H265.547V315.238H267.09ZM252.715 321.781C256.074 321.801 260.371 321.762 264.121 321.352L264.219 322.348C262.52 322.592 260.752 322.738 259.023 322.816V325.531H257.52V322.875C255.879 322.934 254.307 322.943 252.891 322.934L252.715 321.781ZM267.09 326.098V329.691H256.953V331.254H267.656V332.387H255.449V328.617H265.566V327.211H255.371V326.098H267.09ZM258.379 315.57C260.957 315.57 262.676 316.586 262.695 318.188C262.676 319.809 260.957 320.785 258.379 320.785C255.762 320.785 254.062 319.809 254.062 318.188C254.062 316.586 255.762 315.57 258.379 315.57ZM258.379 316.645C256.621 316.645 255.488 317.25 255.508 318.188C255.488 319.105 256.621 319.73 258.379 319.73C260.117 319.73 261.25 319.105 261.25 318.188C261.25 317.25 260.117 316.645 258.379 316.645ZM280.703 316.859V331H278.926V318.695H278.848L275.41 320.98V319.203L278.926 316.859H280.703ZM284.922 331L291.406 318.52V318.422H283.926V316.859H293.223V318.5L286.758 331H284.922ZM299.805 315.863C302.402 315.883 304.297 317.445 304.297 319.711C304.297 321.977 302.402 323.539 299.805 323.539C297.168 323.539 295.293 321.977 295.293 319.711C295.293 317.445 297.168 315.883 299.805 315.863ZM299.805 317.152C298.066 317.152 296.777 318.207 296.797 319.711C296.777 321.234 298.066 322.289 299.805 322.289C301.523 322.289 302.812 321.234 302.812 319.711C302.812 318.207 301.523 317.152 299.805 317.152ZM309.219 315.219V324.145H307.695V315.219H309.219ZM309.219 324.984V329.164H299.473V331.117H309.844V332.348H297.969V328.012H307.695V326.215H297.93V324.984H309.219ZM39.9219 355.367C38.8281 355.367 37.9297 354.469 37.9297 353.355C37.9297 352.262 38.8281 351.363 39.9219 351.363C41.0352 351.363 41.9336 352.262 41.9336 353.355C41.9336 354.469 41.0352 355.367 39.9219 355.367ZM69.2773 343.219V347.672H71.8945V348.98H69.2773V353.316H67.7539V343.219H69.2773ZM59.8242 354.078V355.934H67.7539V354.078H69.2773V360.348H58.3008V354.078H59.8242ZM59.8242 359.117H67.7539V357.145H59.8242V359.117ZM66.0938 345.016V346.285H55.7422V345.016H60.1562V343.062H61.6797V345.016H66.0938ZM60.918 347.086C63.418 347.086 65.0781 348.277 65.0977 350.133C65.0781 351.988 63.418 353.18 60.918 353.18C58.3984 353.18 56.7188 351.988 56.7383 350.133C56.7188 348.277 58.3984 347.086 60.918 347.086ZM60.918 348.277C59.2773 348.258 58.1836 349.02 58.2031 350.133C58.1836 351.266 59.2773 352.008 60.918 352.008C62.5391 352.008 63.6328 351.266 63.6523 350.133C63.6328 349.02 62.5391 348.258 60.918 348.277ZM82.1484 344.41C82.1484 345.084 82.0703 345.729 81.9336 346.344H85.8398V343.238H87.3828V353.59H85.8398V351.285H81.2305V350.016H85.8398V347.613H81.5234C80.3418 350.348 77.627 352.32 73.8672 353.355L73.2617 352.125C77.5 350.953 80.1855 348.619 80.5078 345.66H74.1406V344.41H82.1484ZM87.3828 354.352V360.562H85.8398V355.582H75.7031V354.352H87.3828ZM96.1523 348.551C96.1328 351.344 98.1445 354.41 100.664 355.602L99.7852 356.812C97.832 355.865 96.1816 353.795 95.4102 351.441C94.6094 354 92.8613 356.246 90.918 357.242L89.9805 356.031C92.4805 354.82 94.6289 351.52 94.6484 348.551V346.285H90.6055V345.016H100.059V346.285H96.1523V348.551ZM103.711 343.219V350.25H106.621V351.559H103.711V360.582H102.188V343.219H103.711ZM114.824 343.961V346.461H119.883V343.961H121.406V351.52H113.32V343.961H114.824ZM114.824 350.27H119.883V347.652H114.824V350.27ZM126.152 343.219V346.988H128.77V348.277H126.152V352.203H124.629V343.219H126.152ZM126.152 353.023V357.223H116.621V359.137H126.797V360.387H115.117V356.051H124.629V354.254H115.078V353.023H126.152ZM145.762 357.184V358.453H129.863V357.184H134.297V353.043H131.309V351.773H134.023V346.109H131.27V344.84H144.238V346.109H141.484V351.773H144.199V353.043H141.211V357.184H145.762ZM135.547 351.773H139.98V346.109H135.547V351.773ZM135.84 357.184H139.688V353.043H135.84V357.184ZM148.984 359.117C148.301 359.117 147.715 358.551 147.734 357.848C147.715 357.164 148.301 356.598 148.984 356.598C149.668 356.598 150.234 357.164 150.234 357.848C150.234 358.551 149.668 359.117 148.984 359.117ZM148.984 351.266C148.301 351.266 147.715 350.699 147.734 349.996C147.715 349.312 148.301 348.746 148.984 348.746C149.668 348.746 150.234 349.312 150.234 349.996C150.234 350.699 149.668 351.266 148.984 351.266ZM162.871 344.859V359H161.094V346.695H161.016L157.578 348.98V347.203L161.094 344.859H162.871ZM171.641 344.859V359H169.863V346.695H169.785L166.348 348.98V347.203L169.863 344.859H171.641ZM189.102 343.238V353.473H187.559V352.516H184.043V351.5H187.559V343.238H189.102ZM174.727 349.781C178.086 349.801 182.383 349.762 186.133 349.352L186.23 350.348C184.531 350.592 182.764 350.738 181.035 350.816V353.531H179.531V350.875C177.891 350.934 176.318 350.943 174.902 350.934L174.727 349.781ZM189.102 354.098V357.691H178.965V359.254H189.668V360.387H177.461V356.617H187.578V355.211H177.383V354.098H189.102ZM180.391 343.57C182.969 343.57 184.688 344.586 184.707 346.188C184.688 347.809 182.969 348.785 180.391 348.785C177.773 348.785 176.074 347.809 176.074 346.188C176.074 344.586 177.773 343.57 180.391 343.57ZM180.391 344.645C178.633 344.645 177.5 345.25 177.52 346.188C177.5 347.105 178.633 347.73 180.391 347.73C182.129 347.73 183.262 347.105 183.262 346.188C183.262 345.25 182.129 344.645 180.391 344.645ZM202.715 344.859V359H200.938V346.695H200.859L197.422 348.98V347.203L200.938 344.859H202.715ZM211.367 359.195C208.555 359.195 206.543 357.691 206.445 355.445H208.223C208.32 356.793 209.668 357.633 211.348 357.633C213.203 357.633 214.57 356.617 214.57 355.152C214.57 353.609 213.34 352.516 211.133 352.516H209.98V350.973H211.133C212.852 350.973 214.043 350.016 214.043 348.551C214.043 347.145 213.008 346.188 211.406 346.188C209.902 346.188 208.516 347.027 208.438 348.414H206.738C206.836 346.168 208.906 344.664 211.426 344.664C214.121 344.664 215.762 346.422 215.742 348.453C215.762 350.055 214.824 351.246 213.34 351.656V351.754C215.176 352.047 216.309 353.355 216.289 355.152C216.309 357.477 214.18 359.195 211.367 359.195ZM223.125 343.863C225.723 343.883 227.617 345.445 227.617 347.711C227.617 349.977 225.723 351.539 223.125 351.539C220.488 351.539 218.613 349.977 218.613 347.711C218.613 345.445 220.488 343.883 223.125 343.863ZM223.125 345.152C221.387 345.152 220.098 346.207 220.117 347.711C220.098 349.234 221.387 350.289 223.125 350.289C224.844 350.289 226.133 349.234 226.133 347.711C226.133 346.207 224.844 345.152 223.125 345.152ZM232.539 343.219V352.145H231.016V343.219H232.539ZM232.539 352.984V357.164H222.793V359.117H233.164V360.348H221.289V356.012H231.016V354.215H221.25V352.984H232.539ZM39.9219 383.367C38.8281 383.367 37.9297 382.469 37.9297 381.355C37.9297 380.262 38.8281 379.363 39.9219 379.363C41.0352 379.363 41.9336 380.262 41.9336 381.355C41.9336 382.469 41.0352 383.367 39.9219 383.367ZM69.2773 371.219V375.672H71.8945V376.98H69.2773V381.316H67.7539V371.219H69.2773ZM59.8242 382.078V383.934H67.7539V382.078H69.2773V388.348H58.3008V382.078H59.8242ZM59.8242 387.117H67.7539V385.145H59.8242V387.117ZM66.0938 373.016V374.285H55.7422V373.016H60.1562V371.062H61.6797V373.016H66.0938ZM60.918 375.086C63.418 375.086 65.0781 376.277 65.0977 378.133C65.0781 379.988 63.418 381.18 60.918 381.18C58.3984 381.18 56.7188 379.988 56.7383 378.133C56.7188 376.277 58.3984 375.086 60.918 375.086ZM60.918 376.277C59.2773 376.258 58.1836 377.02 58.2031 378.133C58.1836 379.266 59.2773 380.008 60.918 380.008C62.5391 380.008 63.6328 379.266 63.6523 378.133C63.6328 377.02 62.5391 376.258 60.918 376.277ZM82.1484 372.41C82.1484 373.084 82.0703 373.729 81.9336 374.344H85.8398V371.238H87.3828V381.59H85.8398V379.285H81.2305V378.016H85.8398V375.613H81.5234C80.3418 378.348 77.627 380.32 73.8672 381.355L73.2617 380.125C77.5 378.953 80.1855 376.619 80.5078 373.66H74.1406V372.41H82.1484ZM87.3828 382.352V388.562H85.8398V383.582H75.7031V382.352H87.3828ZM96.1523 376.551C96.1328 379.344 98.1445 382.41 100.664 383.602L99.7852 384.812C97.832 383.865 96.1816 381.795 95.4102 379.441C94.6094 382 92.8613 384.246 90.918 385.242L89.9805 384.031C92.4805 382.82 94.6289 379.52 94.6484 376.551V374.285H90.6055V373.016H100.059V374.285H96.1523V376.551ZM103.711 371.219V378.25H106.621V379.559H103.711V388.582H102.188V371.219H103.711ZM126.973 371.219V381.57H125.43V377.02H121.934V375.75H125.43V371.219H126.973ZM121.211 382.117C124.824 382.117 127.031 383.289 127.031 385.34C127.031 387.391 124.824 388.562 121.211 388.582C117.598 388.562 115.391 387.391 115.391 385.34C115.391 383.289 117.598 382.117 121.211 382.117ZM121.211 383.309C118.555 383.309 116.895 384.07 116.914 385.34C116.895 386.59 118.555 387.352 121.211 387.352C123.867 387.352 125.508 386.59 125.508 385.34C125.508 384.07 123.867 383.309 121.211 383.309ZM118.613 374.402C118.613 376.668 120.352 378.816 122.891 379.695L122.09 380.926C120.137 380.223 118.623 378.768 117.891 376.961C117.129 379.002 115.518 380.633 113.457 381.414L112.656 380.184C115.234 379.246 117.07 376.902 117.07 374.422V373.777H113.145V372.488H122.5V373.777H118.613V374.402ZM145.762 385.066V386.355H129.863V385.066H137.012V380.828H131.738V372.684H143.789V380.828H138.516V385.066H145.762ZM133.242 373.914V379.598H142.305V373.914H133.242ZM157.09 371.863C159.688 371.883 161.582 373.445 161.582 375.711C161.582 377.977 159.688 379.539 157.09 379.539C154.453 379.539 152.578 377.977 152.578 375.711C152.578 373.445 154.453 371.883 157.09 371.863ZM157.09 373.152C155.352 373.152 154.062 374.207 154.082 375.711C154.062 377.234 155.352 378.289 157.09 378.289C158.809 378.289 160.098 377.234 160.098 375.711C160.098 374.207 158.809 373.152 157.09 373.152ZM166.504 371.219V380.145H164.98V371.219H166.504ZM166.504 380.984V385.164H156.758V387.117H167.129V388.348H155.254V384.012H164.98V382.215H155.215V380.984H166.504ZM183.848 371.219V381.57H182.305V377.02H178.809V375.75H182.305V371.219H183.848ZM178.086 382.117C181.699 382.117 183.906 383.289 183.906 385.34C183.906 387.391 181.699 388.562 178.086 388.582C174.473 388.562 172.266 387.391 172.266 385.34C172.266 383.289 174.473 382.117 178.086 382.117ZM178.086 383.309C175.43 383.309 173.77 384.07 173.789 385.34C173.77 386.59 175.43 387.352 178.086 387.352C180.742 387.352 182.383 386.59 182.383 385.34C182.383 384.07 180.742 383.309 178.086 383.309ZM175.488 374.402C175.488 376.668 177.227 378.816 179.766 379.695L178.965 380.926C177.012 380.223 175.498 378.768 174.766 376.961C174.004 379.002 172.393 380.633 170.332 381.414L169.531 380.184C172.109 379.246 173.945 376.902 173.945 374.422V373.777H170.02V372.488H179.375V373.777H175.488V374.402ZM193.594 387.117C192.91 387.117 192.324 386.551 192.344 385.848C192.324 385.164 192.91 384.598 193.594 384.598C194.277 384.598 194.844 385.164 194.844 385.848C194.844 386.551 194.277 387.117 193.594 387.117ZM193.594 379.266C192.91 379.266 192.324 378.699 192.344 377.996C192.324 377.312 192.91 376.746 193.594 376.746C194.277 376.746 194.844 377.312 194.844 377.996C194.844 378.699 194.277 379.266 193.594 379.266ZM207.48 372.859V387H205.703V374.695H205.625L202.188 376.98V375.203L205.703 372.859H207.48ZM216.25 372.859V387H214.473V374.695H214.395L210.957 376.98V375.203L214.473 372.859H216.25ZM233.711 371.238V381.473H232.168V380.516H228.652V379.5H232.168V371.238H233.711ZM219.336 377.781C222.695 377.801 226.992 377.762 230.742 377.352L230.84 378.348C229.141 378.592 227.373 378.738 225.645 378.816V381.531H224.141V378.875C222.5 378.934 220.928 378.943 219.512 378.934L219.336 377.781ZM233.711 382.098V385.691H223.574V387.254H234.277V388.387H222.07V384.617H232.188V383.211H221.992V382.098H233.711ZM225 371.57C227.578 371.57 229.297 372.586 229.316 374.188C229.297 375.809 227.578 376.785 225 376.785C222.383 376.785 220.684 375.809 220.684 374.188C220.684 372.586 222.383 371.57 225 371.57ZM225 372.645C223.242 372.645 222.109 373.25 222.129 374.188C222.109 375.105 223.242 375.73 225 375.73C226.738 375.73 227.871 375.105 227.871 374.188C227.871 373.25 226.738 372.645 225 372.645ZM242.324 387L242.305 385.711L247.129 380.633C248.809 378.855 249.609 377.898 249.609 376.59C249.609 375.145 248.379 374.188 246.797 374.188C245.117 374.188 244.043 375.262 244.043 376.844H242.383C242.363 374.344 244.297 372.664 246.855 372.664C249.414 372.664 251.25 374.383 251.25 376.59C251.25 378.172 250.508 379.402 248.008 381.98L244.766 385.32V385.438H251.504V387H242.324ZM258.945 387.195C256.133 387.195 254.121 385.691 254.023 383.445H255.801C255.898 384.793 257.246 385.633 258.926 385.633C260.781 385.633 262.148 384.617 262.148 383.152C262.148 381.609 260.918 380.516 258.711 380.516H257.559V378.973H258.711C260.43 378.973 261.621 378.016 261.621 376.551C261.621 375.145 260.586 374.188 258.984 374.188C257.48 374.188 256.094 375.027 256.016 376.414H254.316C254.414 374.168 256.484 372.664 259.004 372.664C261.699 372.664 263.34 374.422 263.32 376.453C263.34 378.055 262.402 379.246 260.918 379.656V379.754C262.754 380.047 263.887 381.355 263.867 383.152C263.887 385.477 261.758 387.195 258.945 387.195ZM270.703 371.863C273.301 371.883 275.195 373.445 275.195 375.711C275.195 377.977 273.301 379.539 270.703 379.539C268.066 379.539 266.191 377.977 266.191 375.711C266.191 373.445 268.066 371.883 270.703 371.863ZM270.703 373.152C268.965 373.152 267.676 374.207 267.695 375.711C267.676 377.234 268.965 378.289 270.703 378.289C272.422 378.289 273.711 377.234 273.711 375.711C273.711 374.207 272.422 373.152 270.703 373.152ZM280.117 371.219V380.145H278.594V371.219H280.117ZM280.117 380.984V385.164H270.371V387.117H280.742V388.348H268.867V384.012H278.594V382.215H268.828V380.984H280.117Z" fill="white"/>
<path d="M51.875 174.562H25.8438V171.281H36.8125V165.469H28.5938V151.531H48.9688V165.469H40.7812V171.281H51.875V174.562ZM45.0312 162.344V154.719H32.5312V162.344H45.0312ZM70.3125 154.188H64.6094C64.6719 155.229 64.9635 156.224 65.4844 157.172C66.0052 158.12 66.7656 158.964 67.7656 159.703C68.7656 160.443 69.9792 161.01 71.4062 161.406L69.4062 164.5C67.8229 164.042 66.4583 163.354 65.3125 162.438C64.1667 161.51 63.2604 160.411 62.5938 159.141C61.9375 160.526 61.0156 161.724 59.8281 162.734C58.651 163.745 57.2396 164.5 55.5938 165L53.5938 161.875C55.0521 161.458 56.2865 160.854 57.2969 160.062C58.3177 159.271 59.0938 158.37 59.625 157.359C60.1562 156.349 60.4531 155.292 60.5156 154.188H54.6875V151H70.3125V154.188ZM58.2812 166.062H62.2188V168.719H73.3438V166.062H77.3125V177.562H58.2812V166.062ZM73.3438 174.375V171.812H62.2188V174.375H73.3438ZM73.3125 149.438H77.3125V164.875H73.3125V149.438Z" fill="white"/>
<path d="M325.75 177.875H321.719V149.438H325.75V177.875ZM301.938 169.812C304.365 168.667 306.365 167.391 307.938 165.984C309.521 164.578 310.729 163.021 311.562 161.312C312.406 159.594 312.938 157.667 313.156 155.531H303.469V152.406H317.219C317.208 155.448 316.797 158.214 315.984 160.703C315.172 163.193 313.792 165.479 311.844 167.562C309.906 169.646 307.302 171.458 304.031 173L301.938 169.812ZM352.062 157.406H355.906V160.688H352.062V169.812H348.031V149.438H352.062V157.406ZM329.312 163.875C332.458 163 334.932 161.781 336.734 160.219C338.547 158.646 339.609 156.844 339.922 154.812H330.562V151.562H344.312C344.312 154.104 343.792 156.396 342.75 158.438C341.719 160.469 340.208 162.208 338.219 163.656C336.229 165.104 333.812 166.229 330.969 167.031L329.312 163.875ZM333.562 167.719H337.594V174.188H353.031V177.375H333.562V167.719Z" fill="white"/>
<line x1="99" y1="159.5" x2="283" y2="159.5" stroke="url(#paint0_linear_862_140)"/>
<path d="M411.5 137C411.5 126.23 420.23 117.5 431 117.5H771C781.77 117.5 790.5 126.23 790.5 137V405C790.5 415.77 781.77 424.5 771 424.5H431C420.23 424.5 411.5 415.77 411.5 405V137Z" stroke="white"/>
<path d="M446.875 157.188C446.865 158.76 447.13 160.307 447.672 161.828C448.214 163.339 449.021 164.703 450.094 165.922C451.167 167.13 452.469 168.052 454 168.688L451.844 171.812C450.219 171.125 448.823 170.12 447.656 168.797C446.49 167.464 445.573 165.906 444.906 164.125C444.24 166.052 443.312 167.75 442.125 169.219C440.948 170.677 439.542 171.781 437.906 172.531L435.625 169.375C437.146 168.698 438.443 167.714 439.516 166.422C440.599 165.13 441.411 163.682 441.953 162.078C442.505 160.464 442.781 158.833 442.781 157.188V155.438H436.75V152.188H452.812V155.438H446.875V157.188ZM455.625 149.438H459.656V177.875H455.625V149.438ZM487.594 170.938H483.594V168.688H478.156V165.969H483.594V149.469H487.594V170.938ZM463.406 162.062C466.979 162.042 470.25 161.979 473.219 161.875C476.188 161.76 479 161.542 481.656 161.219L481.875 164.062C479.708 164.427 477.417 164.698 475 164.875V170.281H471V174.188H488.219V177.375H467.031V168.875H471V165.109C469.021 165.182 466.646 165.219 463.875 165.219L463.406 162.062ZM465.5 155.531C465.5 154.531 465.802 153.646 466.406 152.875C467.01 152.104 467.854 151.505 468.938 151.078C470.021 150.651 471.26 150.438 472.656 150.438C474.021 150.438 475.24 150.651 476.312 151.078C477.385 151.505 478.224 152.104 478.828 152.875C479.443 153.646 479.75 154.531 479.75 155.531C479.75 156.531 479.443 157.411 478.828 158.172C478.224 158.932 477.385 159.516 476.312 159.922C475.24 160.328 474.021 160.531 472.656 160.531C471.25 160.531 470.005 160.328 468.922 159.922C467.849 159.516 467.01 158.932 466.406 158.172C465.802 157.411 465.5 156.531 465.5 155.531ZM469.281 155.531C469.271 156.208 469.573 156.734 470.188 157.109C470.812 157.474 471.656 157.656 472.719 157.656C473.677 157.656 474.453 157.469 475.047 157.094C475.651 156.719 475.958 156.198 475.969 155.531C475.958 154.844 475.646 154.307 475.031 153.922C474.427 153.536 473.635 153.344 472.656 153.344C471.625 153.344 470.802 153.536 470.188 153.922C469.573 154.307 469.271 154.844 469.281 155.531Z" fill="white"/>
<path d="M722.344 157.188C722.333 158.677 722.594 160.172 723.125 161.672C723.656 163.172 724.443 164.542 725.484 165.781C726.536 167.021 727.812 167.99 729.312 168.688L727.094 171.812C725.562 171.104 724.229 170.078 723.094 168.734C721.958 167.38 721.057 165.818 720.391 164.047C719.734 165.984 718.818 167.698 717.641 169.188C716.474 170.667 715.094 171.781 713.5 172.531L711.188 169.375C712.708 168.667 714.005 167.661 715.078 166.359C716.151 165.057 716.958 163.609 717.5 162.016C718.052 160.411 718.333 158.802 718.344 157.188V155.438H712.312V152.188H728.062V155.438H722.344V157.188ZM730.281 149.438H734.281V160.281H738.469V163.625H734.281V177.875H730.281V149.438ZM754.719 151.219C754.719 152.24 754.635 153.188 754.469 154.062H759.5V149.469H763.469V166.344H759.5V163.25H753.031V160.062H759.5V157.188H753.547C752.599 159.385 751.089 161.255 749.016 162.797C746.953 164.328 744.385 165.5 741.312 166.312L739.812 163.125C742.958 162.323 745.432 161.167 747.234 159.656C749.047 158.135 750.115 156.396 750.438 154.438H741.438V151.219H754.719ZM743.938 167.5H763.469V177.812H759.5V170.625H743.938V167.5Z" fill="white"/>
<path d="M449.922 278.367C448.828 278.367 447.93 277.469 447.93 276.355C447.93 275.262 448.828 274.363 449.922 274.363C451.035 274.363 451.934 275.262 451.934 276.355C451.934 277.469 451.035 278.367 449.922 278.367ZM480.527 266.219V283.582H479.023V274.5H476.621V282.723H475.156V266.688H476.621V273.23H479.023V266.219H480.527ZM473.184 268.484C473.164 272.898 471.621 277.078 466.621 279.852L465.723 278.777C469.756 276.531 471.426 273.348 471.68 269.754H466.387V268.484H473.184ZM485.234 266.961V269.461H490.293V266.961H491.816V274.52H483.73V266.961H485.234ZM485.234 273.27H490.293V270.652H485.234V273.27ZM496.562 266.219V269.988H499.18V271.277H496.562V275.203H495.039V266.219H496.562ZM496.562 276.023V280.223H487.031V282.137H497.207V283.387H485.527V279.051H495.039V277.254H485.488V276.023H496.562ZM505.957 267.195L501.387 284.129H499.863L504.414 267.195H505.957ZM512.871 269.969C512.871 272.098 514.629 274.012 517.188 274.754L516.465 275.984C514.463 275.359 512.92 274.061 512.148 272.391C511.396 274.285 509.795 275.73 507.754 276.434L506.973 275.223C509.57 274.422 511.367 272.352 511.367 269.969V269.617H507.441V268.348H511.367V266.141H512.91V268.348H516.797V269.617H512.871V269.969ZM520.527 266.219V270.75H523.145V272.02H520.527V276.883H519.004V266.219H520.527ZM514.961 277.312C518.535 277.312 520.684 278.445 520.684 280.418C520.684 282.41 518.535 283.523 514.961 283.523C511.367 283.523 509.199 282.41 509.199 280.418C509.199 278.445 511.367 277.312 514.961 277.312ZM514.961 278.523C512.324 278.523 510.723 279.207 510.742 280.418C510.723 281.629 512.324 282.332 514.961 282.332C517.598 282.332 519.199 281.629 519.199 280.418C519.199 279.207 517.598 278.523 514.961 278.523ZM529.023 267.039C531.357 267.02 533.125 268.377 533.457 270.379H537.09V266.219H538.633V275.535H537.09V271.648H533.477C533.164 273.699 531.377 275.066 529.023 275.066C526.387 275.066 524.512 273.426 524.512 271.043C524.512 268.68 526.387 267.02 529.023 267.039ZM529.023 268.348C527.246 268.328 525.977 269.441 525.977 271.043C525.977 272.625 527.246 273.777 529.023 273.777C530.781 273.777 532.031 272.625 532.031 271.043C532.031 269.441 530.781 268.328 529.023 268.348ZM528.984 276.414V278.621H537.09V276.414H538.633V283.348H527.441V276.414H528.984ZM528.984 282.098H537.09V279.852H528.984V282.098ZM556.406 266.219V283.582H554.922V266.219H556.406ZM552.91 266.59V282.703H551.445V274.266H549.219C549.053 277.645 547.617 279.754 545.469 279.754C543.203 279.754 541.738 277.41 541.738 273.719C541.738 270.027 543.203 267.684 545.469 267.684C547.578 267.684 549.004 269.725 549.199 272.996H551.445V266.59H552.91ZM545.469 269.129C544.062 269.129 543.164 270.887 543.184 273.719C543.164 276.531 544.062 278.309 545.469 278.289C546.875 278.309 547.773 276.531 547.773 273.719C547.773 270.887 546.875 269.129 545.469 269.129ZM577.852 274.363V275.613H572.48V280.105H579.727V281.395H563.828V280.105H570.977V275.613H565.859V267.645H577.676V268.895H567.402V274.363H577.852ZM595.508 266.238V278.973H593.965V272.312H590.391V271.043H593.965V266.238H595.508ZM595.996 281.922V283.211H584.355V277.82H585.898V281.922H595.996ZM587.148 269.812C587.148 272.059 588.887 274.246 591.426 275.105L590.625 276.336C588.662 275.633 587.148 274.168 586.406 272.371C585.654 274.373 584.053 275.975 581.992 276.746L581.191 275.496C583.75 274.598 585.605 272.312 585.605 269.812V268.914H581.68V267.645H591.035V268.914H587.148V269.812ZM611.836 266.219V273.387H614.746V274.656H611.836V283.582H610.312V266.219H611.836ZM608.633 269.012V270.281H598.301V269.012H602.773V266.434H604.297V269.012H608.633ZM603.555 271.727C606.016 271.727 607.793 273.367 607.812 275.711C607.793 278.055 606.016 279.695 603.555 279.695C601.074 279.695 599.277 278.055 599.297 275.711C599.277 273.367 601.074 271.727 603.555 271.727ZM603.555 273.016C601.934 273.016 600.742 274.148 600.762 275.711C600.742 277.293 601.934 278.406 603.555 278.387C605.156 278.406 606.328 277.293 606.348 275.711C606.328 274.148 605.156 273.016 603.555 273.016ZM629.609 267.977V269.715C629.59 271.844 629.59 274.227 628.965 277.723L627.402 277.547C628.066 274.227 628.066 271.785 628.066 269.715V269.246H617.363V267.977H629.609ZM631.504 279.852V281.121H615.684V279.852H621.895V273.641H623.398V279.852H631.504ZM652.324 266.238V275.887H650.801V266.238H652.324ZM644.141 268.582C644.121 270.984 645.996 273.152 648.574 273.992L647.832 275.203C645.781 274.51 644.16 273.064 643.379 271.18C642.598 273.201 640.957 274.783 638.887 275.516L638.105 274.305C640.723 273.387 642.578 271.102 642.578 268.582V266.883H644.141V268.582ZM652.441 276.922V278.172H650.039V282.098H652.617V283.348H640.605V282.098H643.203V278.172H640.762V276.922H652.441ZM644.707 282.098H648.516V278.172H644.707V282.098ZM671.094 275.379V276.629H655.273V275.379H671.094ZM669.336 281.922V283.211H657.324V278.152H658.867V281.922H669.336ZM663.184 266.844C666.914 266.824 669.316 268.113 669.316 270.281C669.316 272.449 666.914 273.738 663.184 273.738C659.414 273.738 657.031 272.449 657.031 270.281C657.031 268.113 659.414 266.824 663.184 266.844ZM663.184 268.074C660.391 268.074 658.594 268.914 658.613 270.281C658.594 271.648 660.391 272.488 663.184 272.488C665.957 272.488 667.754 271.648 667.754 270.281C667.754 268.914 665.957 268.074 663.184 268.074ZM692.422 266.219V283.582H690.957V274.48H688.398V282.684H686.992V266.609H688.398V273.211H690.957V266.219H692.422ZM684.727 268.348V269.617H679.746V277.977C682.139 277.967 683.799 277.879 685.723 277.488L685.859 278.777C683.77 279.207 681.992 279.285 679.336 279.285H678.223V268.348H684.727ZM705.254 268.094V269.344H694.902V268.094H699.316V266.141H700.84V268.094H705.254ZM700.078 270.242C702.578 270.262 704.238 271.473 704.258 273.387C704.238 275.281 702.578 276.512 700.078 276.512C697.578 276.512 695.879 275.281 695.898 273.387C695.879 271.473 697.578 270.262 700.078 270.242ZM700.078 271.434C698.438 271.453 697.344 272.215 697.363 273.387C697.344 274.539 698.438 275.281 700.078 275.281C701.699 275.281 702.793 274.539 702.812 273.387C702.793 272.215 701.699 271.453 700.078 271.434ZM708.438 266.219V271.043H711.055V272.332H708.438V277.078H706.914V266.219H708.438ZM708.438 278.035V283.582H706.914V279.285H697.07V278.035H708.438ZM717.324 269.676C717.324 271.59 718.672 273.543 720.898 274.383L720.098 275.555C718.428 274.91 717.227 273.67 716.602 272.176C715.957 273.836 714.717 275.311 713.008 276.043L712.168 274.852C714.453 273.855 715.859 271.609 715.859 269.676V267.312H717.324V269.676ZM726.895 266.238V276.961H725.43V272.176H723.125V276.414H721.68V266.57H723.125V270.906H725.43V266.238H726.895ZM721.152 277.352C724.746 277.352 726.992 278.484 726.992 280.457C726.992 282.41 724.746 283.543 721.152 283.543C717.539 283.543 715.312 282.41 715.332 280.457C715.312 278.484 717.539 277.352 721.152 277.352ZM721.152 278.523C718.496 278.523 716.836 279.246 716.855 280.457C716.836 281.648 718.496 282.352 721.152 282.352C723.789 282.352 725.449 281.648 725.469 280.457C725.449 279.246 723.789 278.523 721.152 278.523ZM449.922 306.367C448.828 306.367 447.93 305.469 447.93 304.355C447.93 303.262 448.828 302.363 449.922 302.363C451.035 302.363 451.934 303.262 451.934 304.355C451.934 305.469 451.035 306.367 449.922 306.367ZM470.352 295.566C472.91 295.586 474.727 297.93 474.746 301.621C474.727 305.312 472.91 307.656 470.352 307.656C467.773 307.656 465.977 305.312 465.977 301.621C465.977 297.93 467.773 295.586 470.352 295.566ZM470.352 296.934C468.633 296.953 467.422 298.789 467.422 301.621C467.422 304.453 468.633 306.289 470.352 306.289C472.09 306.289 473.262 304.453 473.262 301.621C473.262 298.789 472.09 296.953 470.352 296.934ZM479.141 294.219V301.152H482.051V302.48H479.141V311.582H477.617V294.219H479.141ZM497.305 294.219V311.621H495.762V294.219H497.305ZM488.066 295.566C490.645 295.586 492.5 297.93 492.5 301.621C492.5 305.312 490.645 307.656 488.066 307.656C485.469 307.656 483.633 305.312 483.633 301.621C483.633 297.93 485.469 295.586 488.066 295.566ZM488.066 296.934C486.328 296.953 485.117 298.789 485.117 301.621C485.117 304.453 486.328 306.289 488.066 306.289C489.805 306.289 491.016 304.453 491.016 301.621C491.016 298.789 489.805 296.953 488.066 296.934ZM514.59 294.219V311.621H513.047V294.219H514.59ZM509.668 295.879V297.168H502.949V305.977C506.328 305.977 508.555 305.869 511.152 305.41L511.309 306.699C508.613 307.188 506.328 307.285 502.812 307.305H501.406V295.879H509.668ZM522.227 295.566C524.59 295.586 526.289 297.607 526.543 300.859H530.43V294.219H531.953V311.621H530.43V302.129H526.562C526.377 305.527 524.648 307.656 522.227 307.656C519.668 307.656 517.871 305.312 517.871 301.621C517.871 297.93 519.668 295.586 522.227 295.566ZM522.227 296.934C520.508 296.953 519.336 298.789 519.336 301.621C519.336 304.453 520.508 306.289 522.227 306.289C523.926 306.289 525.117 304.453 525.117 301.621C525.117 298.789 523.926 296.953 522.227 296.934ZM550.723 302.285V303.496H534.824V302.285H550.723ZM548.73 304.883V308.574H538.301V310.234H549.297V311.348H536.758V307.52H547.207V306.035H536.738V304.883H548.73ZM548.672 294.746V298.34H538.418V299.863H548.984V300.977H536.895V297.285H547.129V295.859H536.836V294.746H548.672ZM571.465 294.219V303.223H569.961V294.219H571.465ZM571.484 304.102V308.262H561.738V310.137H572.109V311.387H560.234V307.07H569.961V305.332H560.195V304.102H571.484ZM563.301 296.055C563.281 298.516 565.156 300.684 567.734 301.523L566.973 302.715C564.941 302.021 563.32 300.566 562.539 298.691C561.758 300.713 560.127 302.305 558.066 303.047L557.266 301.836C559.883 300.918 561.738 298.613 561.738 296.055V294.727H563.301V296.055ZM588.828 294.238V307.48H587.285V303.75H584.277V302.5H587.285V300.137H584.277V298.867H587.285V294.238H588.828ZM584.277 296.367V297.617H574.453V296.367H578.672V294.219H580.195V296.367H584.277ZM579.414 298.574C581.738 298.574 583.379 299.902 583.379 301.895C583.379 303.867 581.738 305.215 579.414 305.215C577.09 305.215 575.469 303.867 575.488 301.895C575.469 299.902 577.09 298.574 579.414 298.574ZM579.414 299.785C577.93 299.805 576.914 300.645 576.914 301.895C576.914 303.145 577.93 303.984 579.414 303.984C580.898 303.984 581.914 303.145 581.934 301.895C581.914 300.645 580.898 299.805 579.414 299.785ZM589.219 309.922V311.211H577.598V306.309H579.141V309.922H589.219ZM597.891 298.887C597.871 302.051 600.039 305.254 602.598 306.406L601.66 307.617C599.688 306.65 597.979 304.609 597.148 302.129C596.338 304.756 594.629 306.943 592.598 307.969L591.621 306.68C594.199 305.488 596.348 302.188 596.367 298.887V295.723H597.891V298.887ZM606.035 294.219V311.621H604.492V294.219H606.035ZM618.32 296.035C618.301 301.055 616.484 305.684 610.215 308.75L609.355 307.52C612.607 305.957 614.619 303.955 615.723 301.602L609.688 302.188L609.434 300.82L616.211 300.371C616.523 299.404 616.709 298.379 616.777 297.305H610.312V296.035H618.32ZM623.359 294.219V311.582H621.816V294.219H623.359ZM640.664 294.219V311.621H639.141V304.219H635.527V302.93H639.141V299.473H635.664V298.184H639.141V294.219H640.664ZM634.531 295.801V301.973H628.477V306.25C631.084 306.24 633.242 306.143 635.879 305.742L636.016 307.031C633.242 307.461 631.016 307.559 628.242 307.559H626.953V300.723H633.027V297.07H626.895V295.801H634.531ZM657.617 299.492V300.723H645.723V294.863H647.246V299.492H657.617ZM659.453 303.086V304.336H643.555V303.086H659.453ZM657.715 309.883V311.152H645.625V306.113H647.148V309.883H657.715ZM470.605 322.844C472.129 322.844 473.418 323.41 474.219 324.348H478.672V322.219H480.195V331.145H478.672V329.152H474.277C473.467 330.129 472.158 330.715 470.605 330.715C467.988 330.715 466.094 329.113 466.094 326.77C466.094 324.445 467.988 322.844 470.605 322.844ZM470.605 324.113C468.828 324.094 467.559 325.207 467.559 326.77C467.559 328.352 468.828 329.465 470.605 329.484C472.324 329.465 473.613 328.352 473.613 326.77C473.613 325.207 472.324 324.094 470.605 324.113ZM480.195 332.023V336.184H470.508V338.117H480.859V339.348H468.984V335.012H478.672V333.254H468.945V332.023H480.195ZM474.922 325.578C475.029 325.949 475.098 326.35 475.098 326.77C475.098 327.18 475.029 327.561 474.922 327.922H478.672V325.578H474.922ZM497.5 322.219V332.57H495.957V328.02H492.461V326.75H495.957V322.219H497.5ZM491.738 333.117C495.352 333.117 497.559 334.289 497.559 336.34C497.559 338.391 495.352 339.562 491.738 339.582C488.125 339.562 485.918 338.391 485.918 336.34C485.918 334.289 488.125 333.117 491.738 333.117ZM491.738 334.309C489.082 334.309 487.422 335.07 487.441 336.34C487.422 337.59 489.082 338.352 491.738 338.352C494.395 338.352 496.035 337.59 496.035 336.34C496.035 335.07 494.395 334.309 491.738 334.309ZM489.141 325.402C489.141 327.668 490.879 329.816 493.418 330.695L492.617 331.926C490.664 331.223 489.15 329.768 488.418 327.961C487.656 330.002 486.045 331.633 483.984 332.414L483.184 331.184C485.762 330.246 487.598 327.902 487.598 325.422V324.777H483.672V323.488H493.027V324.777H489.141V325.402ZM508.301 322.531C512.168 322.531 514.434 323.586 514.434 325.52C514.434 327.492 512.168 328.547 508.301 328.566C504.434 328.547 502.148 327.492 502.148 325.52C502.148 323.586 504.434 322.531 508.301 322.531ZM508.301 323.684C505.41 323.684 503.73 324.387 503.75 325.52C503.73 326.73 505.41 327.395 508.301 327.395C511.172 327.395 512.871 326.73 512.871 325.52C512.871 324.387 511.172 323.684 508.301 323.684ZM516.211 329.738V330.988H500.391V329.738H516.211ZM514.18 332.492V336.379H503.867V338.176H514.707V339.387H502.344V335.246H512.676V333.664H502.305V332.492H514.18ZM536.133 322.219V329.289H538.945V330.578H536.133V339.582H534.609V322.219H536.133ZM531.641 324.094C531.641 329.016 529.336 333.488 523.672 336.281L522.812 335.07C527.305 332.834 529.746 329.494 530.098 325.383H523.613V324.094H531.641ZM546.23 325.949C546.23 328.293 548.086 330.402 550.684 331.223L549.902 332.453C547.881 331.77 546.27 330.344 545.488 328.508C544.727 330.49 543.096 332.053 541.035 332.805L540.234 331.574C542.832 330.656 544.688 328.41 544.688 325.949V324.934H540.625V323.684H550.234V324.934H546.23V325.949ZM554.316 322.238V334.973H552.793V322.238H554.316ZM554.863 337.922V339.211H543.105V333.762H544.629V337.922H554.863ZM577.129 322.219V339.582H575.664V330.48H573.105V338.684H571.699V322.609H573.105V329.211H575.664V322.219H577.129ZM569.434 324.348V325.617H564.453V333.977C566.846 333.967 568.506 333.879 570.43 333.488L570.566 334.777C568.477 335.207 566.699 335.285 564.043 335.285H562.93V324.348H569.434ZM589.961 324.094V325.344H579.609V324.094H584.023V322.141H585.547V324.094H589.961ZM584.785 326.242C587.285 326.262 588.945 327.473 588.965 329.387C588.945 331.281 587.285 332.512 584.785 332.512C582.285 332.512 580.586 331.281 580.605 329.387C580.586 327.473 582.285 326.262 584.785 326.242ZM584.785 327.434C583.145 327.453 582.051 328.215 582.07 329.387C582.051 330.539 583.145 331.281 584.785 331.281C586.406 331.281 587.5 330.539 587.52 329.387C587.5 328.215 586.406 327.453 584.785 327.434ZM593.145 322.219V327.043H595.762V328.332H593.145V333.078H591.621V322.219H593.145ZM593.145 334.035V339.582H591.621V335.285H581.777V334.035H593.145ZM602.031 325.676C602.031 327.59 603.379 329.543 605.605 330.383L604.805 331.555C603.135 330.91 601.934 329.67 601.309 328.176C600.664 329.836 599.424 331.311 597.715 332.043L596.875 330.852C599.16 329.855 600.566 327.609 600.566 325.676V323.312H602.031V325.676ZM611.602 322.238V332.961H610.137V328.176H607.832V332.414H606.387V322.57H607.832V326.906H610.137V322.238H611.602ZM605.859 333.352C609.453 333.352 611.699 334.484 611.699 336.457C611.699 338.41 609.453 339.543 605.859 339.543C602.246 339.543 600.02 338.41 600.039 336.457C600.02 334.484 602.246 333.352 605.859 333.352ZM605.859 334.523C603.203 334.523 601.543 335.246 601.562 336.457C601.543 337.648 603.203 338.352 605.859 338.352C608.496 338.352 610.156 337.648 610.176 336.457C610.156 335.246 608.496 334.523 605.859 334.523ZM449.922 362.367C448.828 362.367 447.93 361.469 447.93 360.355C447.93 359.262 448.828 358.363 449.922 358.363C451.035 358.363 451.934 359.262 451.934 360.355C451.934 361.469 451.035 362.367 449.922 362.367ZM466.328 366L466.309 364.711L471.133 359.633C472.812 357.855 473.613 356.898 473.613 355.59C473.613 354.145 472.383 353.188 470.801 353.188C469.121 353.188 468.047 354.262 468.047 355.844H466.387C466.367 353.344 468.301 351.664 470.859 351.664C473.418 351.664 475.254 353.383 475.254 355.59C475.254 357.172 474.512 358.402 472.012 360.98L468.77 364.32V364.438H475.508V366H466.328ZM477.715 363.109V361.664L484.082 351.859H486.25V361.566H488.223V363.109H486.25V366H484.57V363.109H477.715ZM479.609 361.566H484.57V354.086H484.395L479.609 361.449V361.566ZM504.316 350.238V363.09H502.773V357.074H497.773V355.844H502.773V353.754H497.773V352.523H502.773V350.238H504.316ZM504.785 365.922V367.211H493.125V361.996H494.668V365.922H504.785ZM492.5 351.488V359.203C494.893 359.193 497.197 359.066 499.844 358.578L500 359.848C497.168 360.375 494.805 360.492 492.266 360.512H490.957V351.488H492.5ZM521.23 358.363V359.613H515.859V364.105H523.105V365.395H507.207V364.105H514.355V359.613H509.238V351.645H521.055V352.895H510.781V358.363H521.23ZM543.867 350.219V367.582H542.324V350.219H543.867ZM538.73 352.113C538.711 357.113 536.387 361.527 530.566 364.32L529.727 363.07C534.424 360.844 536.816 357.514 537.168 353.363H530.527V352.113H538.73ZM555.703 352.387C555.684 354.516 558.613 356.254 561.68 356.684L561.074 357.895C558.271 357.494 555.654 356.088 554.707 354.047C553.77 356.088 551.162 357.494 548.34 357.895L547.773 356.684C550.84 356.254 553.711 354.516 553.711 352.387V352.348H548.242V351.098H561.211V352.348H555.703V352.387ZM562.676 359.164V360.434H555.605V363.988H554.082V360.434H546.777V359.164H562.676ZM560.898 365.922V367.211H548.809V362.25H550.352V365.922H560.898ZM584.023 350.219V367.582H582.539V358.559H580.176V366.703H578.711V350.59H580.176V357.25H582.539V350.219H584.023ZM574.238 354.965C574.238 358.148 575.547 360.941 578.027 362.211L577.109 363.402C575.352 362.445 574.15 360.727 573.535 358.598C572.939 361.02 571.719 362.914 569.883 363.988L568.926 362.816C571.426 361.449 572.754 358.48 572.754 354.965V353.578H569.336V352.289H577.461V353.578H574.238V354.965ZM596.777 352.094V353.344H586.426V352.094H590.84V350.141H592.363V352.094H596.777ZM591.602 354.242C594.102 354.262 595.762 355.473 595.781 357.387C595.762 359.281 594.102 360.512 591.602 360.512C589.102 360.512 587.402 359.281 587.422 357.387C587.402 355.473 589.102 354.262 591.602 354.242ZM591.602 355.434C589.961 355.453 588.867 356.215 588.887 357.387C588.867 358.539 589.961 359.281 591.602 359.281C593.223 359.281 594.316 358.539 594.336 357.387C594.316 356.215 593.223 355.453 591.602 355.434ZM599.961 350.219V355.043H602.578V356.332H599.961V361.078H598.438V350.219H599.961ZM599.961 362.035V367.582H598.438V363.285H588.594V362.035H599.961ZM608.848 353.676C608.848 355.59 610.195 357.543 612.422 358.383L611.621 359.555C609.951 358.91 608.75 357.67 608.125 356.176C607.48 357.836 606.24 359.311 604.531 360.043L603.691 358.852C605.977 357.855 607.383 355.609 607.383 353.676V351.312H608.848V353.676ZM618.418 350.238V360.961H616.953V356.176H614.648V360.414H613.203V350.57H614.648V354.906H616.953V350.238H618.418ZM612.676 361.352C616.27 361.352 618.516 362.484 618.516 364.457C618.516 366.41 616.27 367.543 612.676 367.543C609.062 367.543 606.836 366.41 606.855 364.457C606.836 362.484 609.062 361.352 612.676 361.352ZM612.676 362.523C610.02 362.523 608.359 363.246 608.379 364.457C608.359 365.648 610.02 366.352 612.676 366.352C615.312 366.352 616.973 365.648 616.992 364.457C616.973 363.246 615.312 362.523 612.676 362.523ZM635.039 351.352V358.422H626.895V351.352H635.039ZM628.398 352.602V357.211H633.535V352.602H628.398ZM640.293 350.219V360.199H638.789V350.219H640.293ZM635.586 362.582C635.586 364.281 638.359 365.961 641.348 366.332L640.82 367.523C638.203 367.172 635.82 365.941 634.805 364.32C633.75 365.971 631.309 367.172 628.691 367.523L628.145 366.332C631.133 366 634.004 364.32 634.004 362.582H628.867V361.391H634.023V359.691H635.547V361.391H640.742V362.582H635.586ZM663.184 352.152V353.402H649.102V352.152H655.43V350.121H656.934V352.152H663.184ZM664.18 361.312V362.582H659.98V367.621H658.457V362.582H653.965V367.621H652.422V362.582H648.281V361.312H664.18ZM656.191 354.398C659.727 354.398 661.855 355.414 661.855 357.27C661.855 359.105 659.727 360.141 656.191 360.141C652.637 360.141 650.508 359.105 650.527 357.27C650.508 355.414 652.637 354.398 656.191 354.398ZM656.191 355.57C653.594 355.59 652.09 356.195 652.109 357.27C652.09 358.344 653.594 358.949 656.191 358.949C658.75 358.949 660.254 358.344 660.273 357.27C660.254 356.195 658.75 355.59 656.191 355.57ZM675.957 352.094V353.344H665.605V352.094H670.02V350.141H671.543V352.094H675.957ZM670.781 354.242C673.281 354.262 674.941 355.473 674.961 357.387C674.941 359.281 673.281 360.512 670.781 360.512C668.281 360.512 666.582 359.281 666.602 357.387C666.582 355.473 668.281 354.262 670.781 354.242ZM670.781 355.434C669.141 355.453 668.047 356.215 668.066 357.387C668.047 358.539 669.141 359.281 670.781 359.281C672.402 359.281 673.496 358.539 673.516 357.387C673.496 356.215 672.402 355.453 670.781 355.434ZM679.141 350.219V355.043H681.758V356.332H679.141V361.078H677.617V350.219H679.141ZM679.141 362.035V367.582H677.617V363.285H667.773V362.035H679.141ZM688.027 353.676C688.027 355.59 689.375 357.543 691.602 358.383L690.801 359.555C689.131 358.91 687.93 357.67 687.305 356.176C686.66 357.836 685.42 359.311 683.711 360.043L682.871 358.852C685.156 357.855 686.562 355.609 686.562 353.676V351.312H688.027V353.676ZM697.598 350.238V360.961H696.133V356.176H693.828V360.414H692.383V350.57H693.828V354.906H696.133V350.238H697.598ZM691.855 361.352C695.449 361.352 697.695 362.484 697.695 364.457C697.695 366.41 695.449 367.543 691.855 367.543C688.242 367.543 686.016 366.41 686.035 364.457C686.016 362.484 688.242 361.352 691.855 361.352ZM691.855 362.523C689.199 362.523 687.539 363.246 687.559 364.457C687.539 365.648 689.199 366.352 691.855 366.352C694.492 366.352 696.152 365.648 696.172 364.457C696.152 363.246 694.492 362.523 691.855 362.523ZM702.988 364.691L701.465 370.004H700.02L701.094 364.691H702.988ZM724.668 350.219V363.148H723.125V358.109H720.156V356.82H723.125V354.809H720.156V353.539H723.125V350.219H724.668ZM720.02 351.645V352.895H718.242V358.969C719.053 358.92 719.834 358.861 720.586 358.773L720.664 359.926C717.285 360.453 713.32 360.512 710.508 360.512L710.312 359.203C711.006 359.203 711.758 359.193 712.559 359.184V352.895H710.801V351.645H720.02ZM725.137 365.922V367.211H713.477V362.074H715.02V365.922H725.137ZM714.043 359.145C714.932 359.135 715.85 359.105 716.758 359.066V352.895H714.043V359.145ZM741.895 350.219V359.535H740.371V350.219H741.895ZM732.168 360.414V362.523H740.371V360.414H741.895V367.348H730.645V360.414H732.168ZM732.168 366.098H740.371V363.754H732.168V366.098ZM732.52 351.078C735.156 351.059 737.07 352.68 737.07 355.062C737.07 357.426 735.156 359.047 732.52 359.047C729.883 359.047 727.969 357.426 727.969 355.062C727.969 352.68 729.883 351.059 732.52 351.078ZM732.52 352.367C730.742 352.348 729.453 353.48 729.473 355.062C729.453 356.645 730.742 357.777 732.52 357.777C734.277 357.777 735.566 356.645 735.566 355.062C735.566 353.48 734.277 352.348 732.52 352.367ZM750.02 353.676C750.02 355.59 751.367 357.543 753.594 358.383L752.793 359.555C751.123 358.91 749.922 357.67 749.297 356.176C748.652 357.836 747.412 359.311 745.703 360.043L744.863 358.852C747.148 357.855 748.555 355.609 748.555 353.676V351.312H750.02V353.676ZM759.59 350.238V360.961H758.125V356.176H755.82V360.414H754.375V350.57H755.82V354.906H758.125V350.238H759.59ZM753.848 361.352C757.441 361.352 759.688 362.484 759.688 364.457C759.688 366.41 757.441 367.543 753.848 367.543C750.234 367.543 748.008 366.41 748.027 364.457C748.008 362.484 750.234 361.352 753.848 361.352ZM753.848 362.523C751.191 362.523 749.531 363.246 749.551 364.457C749.531 365.648 751.191 366.352 753.848 366.352C756.484 366.352 758.145 365.648 758.164 364.457C758.145 363.246 756.484 362.523 753.848 362.523ZM466.777 388.609C466.797 384.918 467.793 381.852 469.59 379.254H471.074C469.746 381.188 468.516 385.133 468.516 388.609C468.516 392.086 469.746 396.051 471.074 397.984H469.59C467.793 395.367 466.797 392.301 466.777 388.609ZM481.172 383.727V385.855H488.34V387.086H472.52V385.855H479.668V383.727H481.172ZM486.309 388.531V392.477H475.996V394.176H486.836V395.387H474.473V391.344H484.805V389.703H474.434V388.531H486.309ZM486.934 378.785V380.035H481.445C481.592 381.861 484.492 383.189 487.5 383.453L486.992 384.645C484.102 384.342 481.377 383.16 480.449 381.285C479.502 383.16 476.777 384.342 473.887 384.645L473.359 383.453C476.348 383.189 479.248 381.861 479.434 380.035H473.965V378.785H486.934ZM494.59 379.039C496.924 379.02 498.691 380.377 499.023 382.379H502.656V378.219H504.199V387.535H502.656V383.648H499.043C498.73 385.699 496.943 387.066 494.59 387.066C491.953 387.066 490.078 385.426 490.078 383.043C490.078 380.68 491.953 379.02 494.59 379.039ZM494.59 380.348C492.812 380.328 491.543 381.441 491.543 383.043C491.543 384.625 492.812 385.777 494.59 385.777C496.348 385.777 497.598 384.625 497.598 383.043C497.598 381.441 496.348 380.328 494.59 380.348ZM494.551 388.414V390.621H502.656V388.414H504.199V395.348H493.008V388.414H494.551ZM494.551 394.098H502.656V391.852H494.551V394.098ZM512.969 383.551C512.949 386.344 514.961 389.41 517.48 390.602L516.602 391.812C514.648 390.865 512.998 388.795 512.227 386.441C511.426 389 509.678 391.246 507.734 392.242L506.797 391.031C509.297 389.82 511.445 386.52 511.465 383.551V381.285H507.422V380.016H516.875V381.285H512.969V383.551ZM520.527 378.219V385.25H523.438V386.559H520.527V395.582H519.004V378.219H520.527ZM527.227 392.691L525.703 398.004H524.258L525.332 392.691H527.227ZM543.418 379.801V381.09H536.816V384.684H543.027V385.934H536.816V390.133C539.941 390.133 542.139 390.006 544.746 389.566L544.922 390.836C542.207 391.285 539.922 391.383 536.641 391.402H535.273V379.801H543.418ZM547.949 378.219V385.211H550.859V386.52H547.949V395.582H546.426V378.219H547.949ZM566.641 378.219V395.582H565.176V386.48H562.617V394.684H561.211V378.609H562.617V385.211H565.176V378.219H566.641ZM558.945 380.348V381.617H553.965V389.977C556.357 389.967 558.018 389.879 559.941 389.488L560.078 390.777C557.988 391.207 556.211 391.285 553.555 391.285H552.441V380.348H558.945ZM574.258 381.676C574.258 383.59 575.605 385.543 577.832 386.383L577.031 387.555C575.361 386.91 574.16 385.67 573.535 384.176C572.891 385.836 571.65 387.311 569.941 388.043L569.102 386.852C571.387 385.855 572.793 383.609 572.793 381.676V379.312H574.258V381.676ZM583.828 378.238V388.961H582.363V384.176H580.059V388.414H578.613V378.57H580.059V382.906H582.363V378.238H583.828ZM578.086 389.352C581.68 389.352 583.926 390.484 583.926 392.457C583.926 394.41 581.68 395.543 578.086 395.543C574.473 395.543 572.246 394.41 572.266 392.457C572.246 390.484 574.473 389.352 578.086 389.352ZM578.086 390.523C575.43 390.523 573.77 391.246 573.789 392.457C573.77 393.648 575.43 394.352 578.086 394.352C580.723 394.352 582.383 393.648 582.402 392.457C582.383 391.246 580.723 390.523 578.086 390.523ZM597.305 381.832C597.305 383.961 599.062 385.855 601.621 386.617L600.898 387.828C598.896 387.203 597.334 385.904 596.582 384.234C595.82 386.08 594.209 387.486 592.148 388.16L591.387 386.949C593.965 386.168 595.801 384.156 595.801 381.832V381.52H591.875V380.289H595.801V378.141H597.344V380.289H601.23V381.52H597.305V381.832ZM604.961 378.219V382.633H607.578V383.922H604.961V388.512H603.438V378.219H604.961ZM604.961 389.312V395.348H594.004V389.312H604.961ZM595.508 390.523V394.098H603.438V390.523H595.508ZM613.34 379.566C614.932 379.576 616.221 380.504 616.973 382.105H621.543V378.219H623.066V395.621H621.543V388.883H617.09C616.357 390.641 615.02 391.656 613.34 391.656C610.781 391.656 608.984 389.312 608.984 385.621C608.984 381.93 610.781 379.586 613.34 379.566ZM613.34 380.934C611.621 380.953 610.449 382.789 610.449 385.621C610.449 388.453 611.621 390.289 613.34 390.289C615.039 390.289 616.23 388.453 616.23 385.621C616.23 382.789 615.039 380.953 613.34 380.934ZM617.422 383.395C617.578 384.068 617.676 384.811 617.676 385.621C617.676 386.334 617.598 387.008 617.48 387.613H621.543V383.395H617.422ZM634.609 378.512V380.172H643.203V378.512H644.727V384.215H633.086V378.512H634.609ZM634.609 383.023H643.203V381.344H634.609V383.023ZM646.797 385.66V386.93H639.629V388.629H644.766V392.477H634.453V394.176H645.293V395.387H632.93V391.344H643.262V389.801H632.891V388.629H638.105V386.93H630.977V385.66H646.797ZM661.699 378.219V385.289H664.512V386.578H661.699V395.582H660.176V378.219H661.699ZM657.207 380.094C657.207 385.016 654.902 389.488 649.238 392.281L648.379 391.07C652.871 388.834 655.312 385.494 655.664 381.383H649.18V380.094H657.207ZM669.883 388.609C669.863 392.301 668.867 395.367 667.07 397.984H665.586C666.914 396.051 668.145 392.086 668.145 388.609C668.145 385.133 666.914 381.188 665.586 379.254H667.07C668.867 381.852 669.863 384.918 669.883 388.609Z" fill="white"/>
<line x1="509" y1="159.5" x2="693" y2="159.5" stroke="url(#paint1_linear_862_140)"/>
<path d="M821.5 137C821.5 126.23 830.23 117.5 841 117.5H1181C1191.77 117.5 1200.5 126.23 1200.5 137V405C1200.5 415.77 1191.77 424.5 1181 424.5H841C830.23 424.5 821.5 415.77 821.5 405V137Z" stroke="white"/>
<path d="M856.875 157.188C856.865 158.76 857.13 160.307 857.672 161.828C858.214 163.339 859.021 164.703 860.094 165.922C861.167 167.13 862.469 168.052 864 168.688L861.844 171.812C860.219 171.125 858.823 170.12 857.656 168.797C856.49 167.464 855.573 165.906 854.906 164.125C854.24 166.052 853.312 167.75 852.125 169.219C850.948 170.677 849.542 171.781 847.906 172.531L845.625 169.375C847.146 168.698 848.443 167.714 849.516 166.422C850.599 165.13 851.411 163.682 851.953 162.078C852.505 160.464 852.781 158.833 852.781 157.188V155.438H846.75V152.188H862.812V155.438H856.875V157.188ZM865.625 149.438H869.656V177.875H865.625V149.438ZM897.594 170.938H893.594V168.688H888.156V165.969H893.594V149.469H897.594V170.938ZM873.406 162.062C876.979 162.042 880.25 161.979 883.219 161.875C886.188 161.76 889 161.542 891.656 161.219L891.875 164.062C889.708 164.427 887.417 164.698 885 164.875V170.281H881V174.188H898.219V177.375H877.031V168.875H881V165.109C879.021 165.182 876.646 165.219 873.875 165.219L873.406 162.062ZM875.5 155.531C875.5 154.531 875.802 153.646 876.406 152.875C877.01 152.104 877.854 151.505 878.938 151.078C880.021 150.651 881.26 150.438 882.656 150.438C884.021 150.438 885.24 150.651 886.312 151.078C887.385 151.505 888.224 152.104 888.828 152.875C889.443 153.646 889.75 154.531 889.75 155.531C889.75 156.531 889.443 157.411 888.828 158.172C888.224 158.932 887.385 159.516 886.312 159.922C885.24 160.328 884.021 160.531 882.656 160.531C881.25 160.531 880.005 160.328 878.922 159.922C877.849 159.516 877.01 158.932 876.406 158.172C875.802 157.411 875.5 156.531 875.5 155.531ZM879.281 155.531C879.271 156.208 879.573 156.734 880.188 157.109C880.812 157.474 881.656 157.656 882.719 157.656C883.677 157.656 884.453 157.469 885.047 157.094C885.651 156.719 885.958 156.198 885.969 155.531C885.958 154.844 885.646 154.307 885.031 153.922C884.427 153.536 883.635 153.344 882.656 153.344C881.625 153.344 880.802 153.536 880.188 153.922C879.573 154.307 879.271 154.844 879.281 155.531Z" fill="white"/>
<path d="M1135.09 166.844C1137.06 166.844 1138.77 167.062 1140.2 167.5C1141.64 167.938 1142.74 168.568 1143.52 169.391C1144.3 170.214 1144.69 171.198 1144.69 172.344C1144.69 173.5 1144.3 174.495 1143.52 175.328C1142.74 176.172 1141.64 176.812 1140.2 177.25C1138.77 177.688 1137.06 177.906 1135.09 177.906C1133.09 177.906 1131.36 177.688 1129.89 177.25C1128.42 176.812 1127.3 176.172 1126.52 175.328C1125.73 174.495 1125.34 173.5 1125.34 172.344C1125.34 171.198 1125.73 170.214 1126.52 169.391C1127.31 168.568 1128.43 167.938 1129.89 167.5C1131.36 167.062 1133.09 166.844 1135.09 166.844ZM1122.69 151.219H1126.66V154.812H1132.47V151.219H1136.47V164.594H1122.69V151.219ZM1132.47 161.438V157.906H1126.66V161.438H1132.47ZM1129.34 172.344C1129.33 173.156 1129.82 173.771 1130.8 174.188C1131.79 174.604 1133.22 174.812 1135.09 174.812C1136.94 174.812 1138.34 174.604 1139.3 174.188C1140.27 173.771 1140.75 173.156 1140.75 172.344C1140.75 170.76 1138.86 169.958 1135.09 169.938C1131.23 169.958 1129.31 170.76 1129.34 172.344ZM1140.41 149.438H1144.41V156.031H1148.25V159.375H1144.41V166.219H1140.41V149.438ZM1154.72 154.531H1160.31V150.875H1164.25V155.938H1169.5V149.438H1173.47V165H1169.5V159.188H1164.25V164.188H1150.72V150.875H1154.72V154.531ZM1154.5 166.188H1158.44V168.812H1169.5V166.188H1173.47V177.5H1154.5V166.188ZM1160.31 161V157.594H1154.72V161H1160.31ZM1169.5 174.312V171.875H1158.44V174.312H1169.5Z" fill="white"/>
<path d="M859.922 362.367C858.828 362.367 857.93 361.469 857.93 360.355C857.93 359.262 858.828 358.363 859.922 358.363C861.035 358.363 861.934 359.262 861.934 360.355C861.934 361.469 861.035 362.367 859.922 362.367ZM881.328 351.859V366H879.551V353.695H879.473L876.035 355.98V354.203L879.551 351.859H881.328ZM890.254 355.883C890.254 358.656 892.07 361.508 894.59 362.719L893.691 363.91C891.777 362.973 890.264 361.078 889.551 358.832C888.789 361.244 887.178 363.266 885.195 364.223L884.316 363.031C886.855 361.84 888.75 358.871 888.77 355.883V354.496H884.785V353.246H888.75V350.551H890.293V353.246H894.199V354.496H890.254V355.883ZM897.91 350.219V357.348H900.82V358.656H897.91V367.582H896.387V350.219H897.91ZM912.988 355.551C912.988 358.5 915.137 361.488 917.695 362.602L916.836 363.812C914.805 362.885 913.047 360.883 912.246 358.48C911.426 361.029 909.678 363.246 907.695 364.242L906.777 363.031C909.258 361.84 911.426 358.559 911.445 355.551V353.285H907.344V352.016H917.129V353.285H912.988V355.551ZM921.094 350.219V367.582H919.551V350.219H921.094ZM938.379 350.238V363.422H936.836V361.625H933.242V360.512H936.836V350.238H938.379ZM938.809 365.922V367.211H926.465V362.133H928.008V365.922H938.809ZM923.965 358.285C927.207 358.266 931.543 358.246 935.273 357.777L935.371 358.891C933.818 359.135 932.197 359.291 930.605 359.379V362.816H929.062V359.457C927.305 359.535 925.635 359.545 924.18 359.535L923.965 358.285ZM929.668 350.941C932.207 350.941 933.945 352.152 933.965 353.969C933.945 355.824 932.207 356.977 929.668 356.977C927.109 356.977 925.371 355.824 925.371 353.969C925.371 352.152 927.109 350.941 929.668 350.941ZM929.668 352.113C927.969 352.094 926.816 352.855 926.836 353.969C926.816 355.102 927.969 355.844 929.668 355.844C931.309 355.844 932.48 355.102 932.5 353.969C932.48 352.855 931.309 352.094 929.668 352.113ZM947.461 354.887C947.461 358.031 949.473 361.195 951.992 362.348L951.074 363.598C949.102 362.582 947.471 360.502 946.699 358.031C945.928 360.629 944.297 362.855 942.324 363.91L941.328 362.68C943.867 361.43 945.898 358.09 945.898 354.887V351.723H947.461V354.887ZM955.742 350.219V367.621H954.219V357.406H950.098V356.156H954.219V350.219H955.742ZM978.496 350.219V367.582H977.031V350.219H978.496ZM974.98 350.648V366.684H973.535V357.738H970.605V356.488H973.535V350.648H974.98ZM968.75 355.18C968.75 358.188 970.098 361.176 972.5 362.562L971.562 363.695C969.854 362.67 968.643 360.795 968.047 358.578C967.412 360.971 966.152 363.012 964.414 364.105L963.438 362.953C965.859 361.508 967.266 358.344 967.266 355.18V353.539H963.926V352.27H971.934V353.539H968.75V355.18ZM996.758 357.953V359.145H989.59V360.766H994.727V364.516H984.414V366.215H995.254V367.387H982.891V363.422H993.223V361.918H982.852V360.766H988.086V359.145H980.957V357.953H996.758ZM989.59 350.121V351.742H995.156V352.953H989.707C989.99 354.682 992.705 355.775 995.898 355.98L995.43 357.152C992.529 356.908 989.912 356.01 988.848 354.359C987.783 356.01 985.166 356.908 982.246 357.152L981.797 355.98C984.971 355.775 987.686 354.682 987.988 352.953H982.578V351.742H988.086V350.121H989.59ZM1012.3 351.352V358.422H1004.16V351.352H1012.3ZM1005.66 352.602V357.211H1010.8V352.602H1005.66ZM1017.56 350.219V360.199H1016.05V350.219H1017.56ZM1012.85 362.582C1012.85 364.281 1015.62 365.961 1018.61 366.332L1018.09 367.523C1015.47 367.172 1013.09 365.941 1012.07 364.32C1011.02 365.971 1008.57 367.172 1005.96 367.523L1005.41 366.332C1008.4 366 1011.27 364.32 1011.27 362.582H1006.13V361.391H1011.29V359.691H1012.81V361.391H1018.01V362.582H1012.85ZM1031.66 354.887C1031.66 358.031 1033.67 361.195 1036.19 362.348L1035.27 363.598C1033.3 362.582 1031.67 360.502 1030.9 358.031C1030.13 360.629 1028.5 362.855 1026.52 363.91L1025.53 362.68C1028.07 361.43 1030.1 358.09 1030.1 354.887V351.723H1031.66V354.887ZM1039.94 350.219V367.621H1038.42V357.406H1034.3V356.156H1038.42V350.219H1039.94ZM1058.71 360.59V361.82H1054.53V367.582H1053.01V361.82H1048.52V367.582H1046.97V361.82H1042.81V360.59H1058.71ZM1056.78 350.902V355.355H1046.31V357.523H1057.15V358.793H1044.77V354.164H1055.21V352.172H1044.73V350.902H1056.78ZM1079.47 350.238V360.102H1077.95V350.238H1079.47ZM1079.47 361.098V367.348H1068.18V361.098H1079.47ZM1069.69 362.348V366.098H1077.97V362.348H1069.69ZM1071.29 352.621C1071.27 355.082 1073.14 357.25 1075.7 358.148L1074.92 359.32C1072.91 358.627 1071.31 357.162 1070.53 355.258C1069.76 357.289 1068.13 358.891 1066.05 359.652L1065.27 358.441C1067.91 357.523 1069.73 355.18 1069.73 352.621V350.922H1071.29V352.621ZM1088.24 354.887C1088.24 357.953 1090.27 361.098 1092.73 362.309L1091.8 363.539C1089.88 362.533 1088.28 360.482 1087.52 358.07C1086.74 360.639 1085.1 362.826 1083.14 363.871L1082.17 362.641C1084.71 361.391 1086.72 358.051 1086.74 354.887V351.723H1088.24V354.887ZM1095.86 350.219V357.27H1098.77V358.598H1095.86V367.582H1094.34V350.219H1095.86ZM859.922 386.367C858.828 386.367 857.93 385.469 857.93 384.355C857.93 383.262 858.828 382.363 859.922 382.363C861.035 382.363 861.934 383.262 861.934 384.355C861.934 385.469 861.035 386.367 859.922 386.367ZM876.328 390L876.309 388.711L881.133 383.633C882.812 381.855 883.613 380.898 883.613 379.59C883.613 378.145 882.383 377.188 880.801 377.188C879.121 377.188 878.047 378.262 878.047 379.844H876.387C876.367 377.344 878.301 375.664 880.859 375.664C883.418 375.664 885.254 377.383 885.254 379.59C885.254 381.172 884.512 382.402 882.012 384.98L878.77 388.32V388.438H885.508V390H876.328ZM893.223 379.883C893.223 382.656 895.039 385.508 897.559 386.719L896.66 387.91C894.746 386.973 893.232 385.078 892.52 382.832C891.758 385.244 890.146 387.266 888.164 388.223L887.285 387.031C889.824 385.84 891.719 382.871 891.738 379.883V378.496H887.754V377.246H891.719V374.551H893.262V377.246H897.168V378.496H893.223V379.883ZM900.879 374.219V381.348H903.789V382.656H900.879V391.582H899.355V374.219H900.879ZM918.535 375.742V377.285H922.598V374.238H924.141V386.914H922.598V382.285H918.535V383.848H910.566V375.742H918.535ZM912.09 377.012V382.617H917.031V377.012H912.09ZM924.531 389.922V391.211H912.91V385.781H914.453V389.922H924.531ZM918.535 381.016H922.598V378.574H918.535V381.016ZM941.406 374.219V383.652H939.883V379.727H936.367V378.438H939.883V374.219H941.406ZM931.777 384.492V386.66H939.883V384.492H941.406V391.348H930.234V384.492H931.777ZM931.777 390.098H939.883V387.891H931.777V390.098ZM933.066 377.051C933.066 379.277 934.805 381.465 937.344 382.344L936.543 383.535C934.58 382.822 933.066 381.367 932.324 379.57C931.572 381.582 929.971 383.193 927.91 383.945L927.109 382.734C929.668 381.816 931.523 379.512 931.523 377.051V376.543H927.598V375.273H936.953V376.543H933.066V377.051ZM964.238 376.211V377.48H950.156V376.211H956.484V374.121H957.988V376.211H964.238ZM965.234 385.469V386.738H957.988V391.621H956.484V386.738H949.336V385.469H965.234ZM957.246 378.477C960.781 378.477 962.91 379.512 962.91 381.387C962.91 383.223 960.781 384.258 957.246 384.277C953.691 384.258 951.562 383.223 951.582 381.387C951.562 379.512 953.691 378.477 957.246 378.477ZM957.246 379.648C954.648 379.648 953.145 380.293 953.164 381.387C953.145 382.461 954.648 383.086 957.246 383.086C959.805 383.086 961.309 382.461 961.328 381.387C961.309 380.293 959.805 379.648 957.246 379.648ZM978.223 383.379V386.562C979.893 386.494 981.602 386.348 983.203 386.113L983.32 387.246C979.355 387.969 975.078 387.988 971.953 387.988L971.738 386.719C973.193 386.709 974.912 386.699 976.719 386.641V383.379H978.223ZM982.305 376.504V377.773H978.223C978.262 380.02 980.127 381.846 982.695 382.578L981.973 383.789C979.883 383.164 978.252 381.826 977.48 380.059C976.719 381.924 975.098 383.311 973.008 383.945L972.266 382.773C974.834 382.021 976.641 380.117 976.68 377.773H972.695V376.504H976.719V374.355H978.223V376.504H982.305ZM985.879 374.219V391.621H984.355V374.219H985.879ZM997.578 380.391V382.871H1004.75V384.141H988.926V382.871H996.074V380.391H997.578ZM996.836 385.566C1000.57 385.566 1002.79 386.621 1002.81 388.555C1002.79 390.488 1000.57 391.543 996.836 391.543C993.066 391.543 990.84 390.488 990.84 388.555C990.84 386.621 993.066 385.566 996.836 385.566ZM996.836 386.777C994.023 386.777 992.383 387.422 992.402 388.555C992.383 389.688 994.023 390.352 996.836 390.352C999.609 390.352 1001.27 389.688 1001.27 388.555C1001.27 387.422 999.609 386.777 996.836 386.777ZM1003.34 375.039V376.289H997.832C997.93 378.223 1000.84 379.717 1003.87 380.039L1003.3 381.25C1000.46 380.908 997.793 379.668 996.836 377.734C995.889 379.668 993.232 380.908 990.371 381.25L989.805 380.039C992.832 379.717 995.723 378.242 995.84 376.289H990.371V375.039H1003.34ZM1024.8 374.219V378.672H1027.42V379.98H1024.8V384.316H1023.28V374.219H1024.8ZM1015.35 385.078V386.934H1023.28V385.078H1024.8V391.348H1013.83V385.078H1015.35ZM1015.35 390.117H1023.28V388.145H1015.35V390.117ZM1021.62 376.016V377.285H1011.27V376.016H1015.68V374.062H1017.21V376.016H1021.62ZM1016.45 378.086C1018.95 378.086 1020.61 379.277 1020.62 381.133C1020.61 382.988 1018.95 384.18 1016.45 384.18C1013.93 384.18 1012.25 382.988 1012.27 381.133C1012.25 379.277 1013.93 378.086 1016.45 378.086ZM1016.45 379.277C1014.8 379.258 1013.71 380.02 1013.73 381.133C1013.71 382.266 1014.8 383.008 1016.45 383.008C1018.07 383.008 1019.16 382.266 1019.18 381.133C1019.16 380.02 1018.07 379.258 1016.45 379.277ZM1037.68 375.41C1037.68 376.084 1037.6 376.729 1037.46 377.344H1041.37V374.238H1042.91V384.59H1041.37V382.285H1036.76V381.016H1041.37V378.613H1037.05C1035.87 381.348 1033.15 383.32 1029.39 384.355L1028.79 383.125C1033.03 381.953 1035.71 379.619 1036.04 376.66H1029.67V375.41H1037.68ZM1042.91 385.352V391.562H1041.37V386.582H1031.23V385.352H1042.91Z" fill="white"/>
<line x1="919" y1="159.5" x2="1103" y2="159.5" stroke="url(#paint2_linear_862_140)"/>
<path d="M0.999984 54.5561L232 45.0559" stroke="#FF731D" stroke-width="6"/>
<path d="M9.19621 60.9981L219.099 58.2308" stroke="#FF731D" stroke-width="6"/>
<defs>
<linearGradient id="paint0_linear_862_140" x1="283" y1="160.944" x2="99" y2="160.944" gradientUnits="userSpaceOnUse">
<stop offset="0.3125" stop-color="#FF731D"/>
<stop offset="1" stop-color="white"/>
</linearGradient>
<linearGradient id="paint1_linear_862_140" x1="693" y1="160.944" x2="509" y2="160.944" gradientUnits="userSpaceOnUse">
<stop offset="0.3125" stop-color="#FF731D"/>
<stop offset="1" stop-color="white"/>
</linearGradient>
<linearGradient id="paint2_linear_862_140" x1="1103" y1="160.944" x2="919" y2="160.944" gradientUnits="userSpaceOnUse">
<stop offset="0.3125" stop-color="#FF731D"/>
<stop offset="1" stop-color="white"/>
</linearGradient>
</defs>
</svg>
