<svg width="1201" height="425" viewBox="0 0 1201 425" fill="none" xmlns="http://www.w3.org/2000/svg">
<path d="M22.1084 15.4555L23.9809 9.87434H35.6132V1.28796H2.13486V9.87434H10.6463L1 39.0681H14.3346L19.1578 24.4283L23.4135 39.0681H36.7481L29.9389 15.4555H22.1084ZM53.771 0H40.7201V39.0681H53.771V0Z" fill="white"/>
<path d="M110.514 0H97.4631V5.15183H93.0371C91.1079 2.18953 86.228 0 76.1845 0C62.3392 0 58.3104 4.12147 58.3104 8.80105C58.3104 13.4806 62.3392 17.6021 76.1845 17.6021C86.228 17.6021 91.1079 15.4555 93.0371 12.4503H97.4631V28.7644H110.514V0ZM82.9936 26.6178H94.6259V19.3194H57.743V26.6178H70.5102V28.3351H59.4453V40.356H110.514V33.0576H72.4962V30.4817H82.9936V26.6178ZM83.8448 8.80105C83.8448 10.0461 82.5964 10.733 76.1845 10.733C69.7725 10.733 68.5242 10.0461 68.5242 8.80105C68.5242 7.55602 69.7725 6.86911 76.1845 6.86911C82.5964 6.86911 83.8448 7.55602 83.8448 8.80105Z" fill="white"/>
<path d="M137.183 1.28796V4.93717H127.537V1.28796H115.621V24.0419L149.099 21.8953V1.28796H137.183ZM165.838 32.9288C165.838 27.777 159.086 24.8576 141.155 24.8576C123.224 24.8576 116.472 27.777 116.472 32.9288C116.472 38.0806 123.224 41 141.155 41C159.086 41 165.838 38.0806 165.838 32.9288ZM164.987 7.51309V0H151.936V24.0419H164.987V16.5288H169.527V7.51309H164.987ZM152.788 32.9288C152.788 33.9162 151.482 34.5602 141.155 34.5602C130.828 34.5602 129.523 33.9162 129.523 32.9288C129.523 31.9414 130.828 31.2974 141.155 31.2974C151.482 31.2974 152.788 31.9414 152.788 32.9288ZM127.537 12.2356H137.183V15.3696L127.537 15.9707V12.2356Z" fill="white"/>
<path d="M224 0H210.949V6.43979H205.842V1.28796H193.926V4.72251H184.28V1.28796H172.364V21.0366L205.842 19.3194V14.5969H210.949V21.0366H224V0ZM210.949 22.3246V25.9738H185.415V22.3246H172.364V40.356H224V22.3246H210.949ZM185.415 31.7696H210.949V34.1309H185.415V31.7696ZM184.28 10.733H193.926V13.5236L184.28 13.9958V10.733Z" fill="white"/>
<path d="M1.5 137C1.5 126.23 10.2304 117.5 21 117.5H361C371.77 117.5 380.5 126.23 380.5 137V405C380.5 415.77 371.77 424.5 361 424.5H21C10.2304 424.5 1.5 415.77 1.5 405V137Z" stroke="white"/>
<path d="M39.9219 328.367C38.8281 328.367 37.9297 327.469 37.9297 326.355C37.9297 325.262 38.8281 324.363 39.9219 324.363C41.0352 324.363 41.9336 325.262 41.9336 326.355C41.9336 327.469 41.0352 328.367 39.9219 328.367ZM61.3281 317.859V332H59.5508V319.695H59.4727L56.0352 321.98V320.203L59.5508 317.859H61.3281ZM70.2539 321.883C70.2637 324.666 72.0703 327.508 74.5898 328.719L73.6914 329.91C71.7773 328.973 70.2637 327.068 69.541 324.832C68.7793 327.254 67.168 329.266 65.1953 330.223L64.3164 329.031C66.8652 327.84 68.7598 324.871 68.7695 321.883V320.496H64.7852V319.246H68.75V316.551H70.293V319.246H74.1992V320.496H70.2539V321.883ZM76.3867 333.582V316.219H77.9102V323.348H80.8203V324.656H77.9102V333.582H76.3867ZM92.8906 320.887C92.8809 324.031 94.9023 327.195 97.4219 328.348L96.5039 329.598C94.5312 328.582 92.9004 326.512 92.1289 324.041C91.3574 326.639 89.7266 328.865 87.7539 329.91L86.7578 328.68C89.3066 327.43 91.3184 324.09 91.3281 320.887V317.723H92.8906V320.887ZM95.5273 323.406V322.156H99.6484V316.219H101.172V333.621H99.6484V323.406H95.5273ZM119.941 326.59V327.82H115.762V333.582H114.238V327.82H109.746V333.582H108.203V327.82H104.043V326.59H119.941ZM105.957 318.172V316.902H118.008V321.355H107.539V323.523H118.379V324.793H105.996V320.164H116.445V318.172H105.957ZM123.184 332.117C122.5 332.107 121.914 331.541 121.934 330.848C121.914 330.164 122.5 329.598 123.184 329.598C123.877 329.598 124.443 330.164 124.434 330.848C124.443 331.541 123.877 332.107 123.184 332.117ZM121.934 322.996C121.914 322.312 122.5 321.746 123.184 321.746C123.877 321.746 124.443 322.312 124.434 322.996C124.443 323.689 123.877 324.256 123.184 324.266C122.5 324.256 121.914 323.689 121.934 322.996ZM137.07 317.859V332H135.293V319.695H135.215L131.777 321.98V320.203L135.293 317.859H137.07ZM145.469 332.195C142.334 332.195 140.518 329.559 140.527 324.93C140.518 320.34 142.354 317.664 145.469 317.664C148.574 317.664 150.41 320.34 150.41 324.93C150.41 329.559 148.604 332.195 145.469 332.195ZM142.227 324.93C142.236 328.592 143.418 330.633 145.469 330.633C147.51 330.633 148.701 328.592 148.691 324.93C148.701 321.268 147.5 319.197 145.469 319.188C143.438 319.197 142.236 321.268 142.227 324.93ZM166.445 316.238V326.473H164.902V325.516H161.387V324.5H164.902V316.238H166.445ZM152.07 322.781C155.43 322.801 159.727 322.762 163.477 322.352L163.574 323.348C161.875 323.592 160.107 323.738 158.379 323.816V326.531H156.875V323.875C155.234 323.934 153.652 323.934 152.246 323.934L152.07 322.781ZM153.418 319.188C153.418 317.576 155.117 316.57 157.734 316.57C160.322 316.57 162.031 317.576 162.051 319.188C162.031 320.809 160.322 321.775 157.734 321.785C155.117 321.775 153.418 320.809 153.418 319.188ZM154.727 328.211V327.098H166.445V330.691H156.309V332.254H167.012V333.387H154.805V329.617H164.922V328.211H154.727ZM154.863 319.188C154.854 320.105 155.986 320.73 157.734 320.73C159.463 320.73 160.596 320.105 160.605 319.188C160.596 318.26 159.463 317.635 157.734 317.645C155.986 317.635 154.854 318.26 154.863 319.188ZM175.059 332L175.039 330.711L179.863 325.633C181.533 323.855 182.334 322.898 182.344 321.59C182.334 320.135 181.123 319.197 179.531 319.188C177.842 319.197 176.787 320.262 176.777 321.844H175.117C175.098 319.344 177.031 317.664 179.59 317.664C182.158 317.664 183.975 319.393 183.984 321.59C183.975 323.172 183.242 324.402 180.742 326.98L177.5 330.32V330.438H184.238V332H175.059ZM186.797 332L186.777 330.711L191.602 325.633C193.271 323.855 194.072 322.898 194.082 321.59C194.072 320.135 192.861 319.197 191.27 319.188C189.58 319.197 188.525 320.262 188.516 321.844H186.855C186.836 319.344 188.77 317.664 191.328 317.664C193.896 317.664 195.713 319.393 195.723 321.59C195.713 323.172 194.98 324.402 192.48 326.98L189.238 330.32V330.438H195.977V332H186.797ZM202.832 316.863C205.43 316.873 207.314 318.455 207.324 320.711C207.314 322.977 205.43 324.539 202.832 324.539C200.205 324.539 198.311 322.977 198.32 320.711C198.311 318.455 200.205 316.873 202.832 316.863ZM199.824 320.711C199.805 322.234 201.084 323.289 202.832 323.289C204.551 323.289 205.84 322.234 205.84 320.711C205.84 319.207 204.551 318.143 202.832 318.152C201.084 318.143 199.805 319.207 199.824 320.711ZM200.957 327.215V325.984H212.246V330.164H202.5V332.117H212.871V333.348H200.996V329.012H210.723V327.215H200.957ZM210.723 325.145V316.219H212.246V325.145H210.723ZM221.406 326.199C222.041 325.467 222.812 325.096 223.672 325.086C225.156 325.096 226.504 326.209 227.93 326.219C228.809 326.209 229.57 325.799 230.156 324.988V326.609C229.512 327.342 228.75 327.723 227.891 327.723C226.406 327.723 225.049 326.6 223.613 326.59C222.754 326.6 222.002 327.01 221.406 327.82V326.199ZM243.398 317.859V332H241.621V319.695H241.543L238.105 321.98V320.203L241.621 317.859H243.398ZM252.168 317.859V332H250.391V319.695H250.312L246.875 321.98V320.203L250.391 317.859H252.168ZM269.629 316.238V326.473H268.086V325.516H264.57V324.5H268.086V316.238H269.629ZM255.254 322.781C258.613 322.801 262.91 322.762 266.66 322.352L266.758 323.348C265.059 323.592 263.291 323.738 261.562 323.816V326.531H260.059V323.875C258.418 323.934 256.836 323.934 255.43 323.934L255.254 322.781ZM256.602 319.188C256.602 317.576 258.301 316.57 260.918 316.57C263.506 316.57 265.215 317.576 265.234 319.188C265.215 320.809 263.506 321.775 260.918 321.785C258.301 321.775 256.602 320.809 256.602 319.188ZM257.91 328.211V327.098H269.629V330.691H259.492V332.254H270.195V333.387H257.988V329.617H268.105V328.211H257.91ZM258.047 319.188C258.037 320.105 259.17 320.73 260.918 320.73C262.646 320.73 263.779 320.105 263.789 319.188C263.779 318.26 262.646 317.635 260.918 317.645C259.17 317.635 258.037 318.26 258.047 319.188ZM282.871 332.195C279.736 332.195 277.92 329.559 277.93 324.93C277.92 320.34 279.756 317.664 282.871 317.664C285.977 317.664 287.812 320.34 287.812 324.93C287.812 329.559 286.006 332.195 282.871 332.195ZM279.629 324.93C279.639 328.592 280.82 330.633 282.871 330.633C284.912 330.633 286.104 328.592 286.094 324.93C286.104 321.268 284.902 319.197 282.871 319.188C280.84 319.197 279.639 321.268 279.629 324.93ZM294.883 332.195C291.904 332.195 289.854 330.545 289.863 328.25C289.854 326.424 291.123 324.91 292.734 324.656V324.578C291.328 324.256 290.4 322.957 290.41 321.414C290.4 319.256 292.295 317.664 294.883 317.664C297.461 317.664 299.355 319.256 299.375 321.414C299.355 322.957 298.418 324.256 297.031 324.578V324.656C298.633 324.91 299.902 326.424 299.922 328.25C299.902 330.545 297.832 332.195 294.883 332.195ZM291.621 328.152C291.592 329.637 292.852 330.643 294.883 330.652C296.904 330.643 298.164 329.637 298.164 328.152C298.164 326.59 296.787 325.438 294.883 325.438C292.988 325.438 291.592 326.59 291.621 328.152ZM292.109 321.551C292.119 322.977 293.262 323.943 294.883 323.953C296.494 323.943 297.656 322.977 297.656 321.551C297.656 320.135 296.533 319.178 294.883 319.188C293.203 319.178 292.119 320.135 292.109 321.551ZM306.582 316.863C309.18 316.873 311.064 318.455 311.074 320.711C311.064 322.977 309.18 324.539 306.582 324.539C303.955 324.539 302.061 322.977 302.07 320.711C302.061 318.455 303.955 316.873 306.582 316.863ZM303.574 320.711C303.555 322.234 304.834 323.289 306.582 323.289C308.301 323.289 309.59 322.234 309.59 320.711C309.59 319.207 308.301 318.143 306.582 318.152C304.834 318.143 303.555 319.207 303.574 320.711ZM304.707 327.215V325.984H315.996V330.164H306.25V332.117H316.621V333.348H304.746V329.012H314.473V327.215H304.707ZM314.473 325.145V316.219H315.996V325.145H314.473ZM39.9219 356.367C38.8281 356.367 37.9297 355.469 37.9297 354.355C37.9297 353.262 38.8281 352.363 39.9219 352.363C41.0352 352.363 41.9336 353.262 41.9336 354.355C41.9336 355.469 41.0352 356.367 39.9219 356.367ZM56.3281 360L56.3086 358.711L61.1328 353.633C62.8027 351.855 63.6035 350.898 63.6133 349.59C63.6035 348.135 62.3926 347.197 60.8008 347.188C59.1113 347.197 58.0566 348.262 58.0469 349.844H56.3867C56.3672 347.344 58.3008 345.664 60.8594 345.664C63.4277 345.664 65.2441 347.393 65.2539 349.59C65.2441 351.172 64.5117 352.402 62.0117 354.98L58.7695 358.32V358.438H65.5078V360H56.3281ZM73.2227 349.883C73.2324 352.666 75.0391 355.508 77.5586 356.719L76.6602 357.91C74.7461 356.973 73.2324 355.068 72.5098 352.832C71.748 355.254 70.1367 357.266 68.1641 358.223L67.2852 357.031C69.834 355.84 71.7285 352.871 71.7383 349.883V348.496H67.7539V347.246H71.7188V344.551H73.2617V347.246H77.168V348.496H73.2227V349.883ZM79.3555 361.582V344.219H80.8789V351.348H83.7891V352.656H80.8789V361.582H79.3555ZM98.5352 345.742V347.285H102.598V344.238H104.141V356.914H102.598V352.285H98.5352V353.848H90.5664V345.742H98.5352ZM92.0898 352.617H97.0312V347.012H92.0898V352.617ZM92.9102 361.211V355.781H94.4531V359.922H104.531V361.211H92.9102ZM98.5352 351.016H102.598V348.574H98.5352V351.016ZM121.406 344.219V353.652H119.883V349.727H116.367V348.438H119.883V344.219H121.406ZM107.109 352.734C109.668 351.807 111.523 349.512 111.523 347.051V346.543H107.598V345.273H116.953V346.543H113.066V347.051C113.066 349.277 114.805 351.465 117.344 352.344L116.543 353.535C114.59 352.822 113.076 351.367 112.324 349.59C111.582 351.582 109.971 353.193 107.91 353.945L107.109 352.734ZM110.234 361.348V354.492H111.777V356.66H119.883V354.492H121.406V361.348H110.234ZM111.777 360.098H119.883V357.891H111.777V360.098ZM126.152 360.117C125.469 360.107 124.883 359.541 124.902 358.848C124.883 358.164 125.469 357.598 126.152 357.598C126.846 357.598 127.412 358.164 127.402 358.848C127.412 359.541 126.846 360.107 126.152 360.117ZM124.902 350.996C124.883 350.312 125.469 349.746 126.152 349.746C126.846 349.746 127.412 350.312 127.402 350.996C127.412 351.689 126.846 352.256 126.152 352.266C125.469 352.256 124.883 351.689 124.902 350.996ZM140.039 345.859V360H138.262V347.695H138.184L134.746 349.98V348.203L138.262 345.859H140.039ZM148.809 345.859V360H147.031V347.695H146.953L143.516 349.98V348.203L147.031 345.859H148.809ZM166.27 344.238V354.473H164.727V353.516H161.211V352.5H164.727V344.238H166.27ZM151.895 350.781C155.254 350.801 159.551 350.762 163.301 350.352L163.398 351.348C161.699 351.592 159.932 351.738 158.203 351.816V354.531H156.699V351.875C155.059 351.934 153.477 351.934 152.07 351.934L151.895 350.781ZM153.242 347.188C153.242 345.576 154.941 344.57 157.559 344.57C160.146 344.57 161.855 345.576 161.875 347.188C161.855 348.809 160.146 349.775 157.559 349.785C154.941 349.775 153.242 348.809 153.242 347.188ZM154.551 356.211V355.098H166.27V358.691H156.133V360.254H166.836V361.387H154.629V357.617H164.746V356.211H154.551ZM154.688 347.188C154.678 348.105 155.811 348.73 157.559 348.73C159.287 348.73 160.42 348.105 160.43 347.188C160.42 346.26 159.287 345.635 157.559 345.645C155.811 345.635 154.678 346.26 154.688 347.188ZM179.883 345.859V360H178.105V347.695H178.027L174.59 349.98V348.203L178.105 345.859H179.883ZM188.652 345.859V360H186.875V347.695H186.797L183.359 349.98V348.203L186.875 345.859H188.652ZM196.719 344.863C199.316 344.873 201.201 346.455 201.211 348.711C201.201 350.977 199.316 352.539 196.719 352.539C194.092 352.539 192.197 350.977 192.207 348.711C192.197 346.455 194.092 344.873 196.719 344.863ZM193.711 348.711C193.691 350.234 194.971 351.289 196.719 351.289C198.438 351.289 199.727 350.234 199.727 348.711C199.727 347.207 198.438 346.143 196.719 346.152C194.971 346.143 193.691 347.207 193.711 348.711ZM194.844 355.215V353.984H206.133V358.164H196.387V360.117H206.758V361.348H194.883V357.012H204.609V355.215H194.844ZM204.609 353.145V344.219H206.133V353.145H204.609ZM215.293 354.199C215.928 353.467 216.699 353.096 217.559 353.086C219.043 353.096 220.391 354.209 221.816 354.219C222.695 354.209 223.457 353.799 224.043 352.988V354.609C223.398 355.342 222.637 355.723 221.777 355.723C220.293 355.723 218.936 354.6 217.5 354.59C216.641 354.6 215.889 355.01 215.293 355.82V354.199ZM237.285 345.859V360H235.508V347.695H235.43L231.992 349.98V348.203L235.508 345.859H237.285ZM246.055 345.859V360H244.277V347.695H244.199L240.762 349.98V348.203L244.277 345.859H246.055ZM263.516 344.238V354.473H261.973V353.516H258.457V352.5H261.973V344.238H263.516ZM249.141 350.781C252.5 350.801 256.797 350.762 260.547 350.352L260.645 351.348C258.945 351.592 257.178 351.738 255.449 351.816V354.531H253.945V351.875C252.305 351.934 250.723 351.934 249.316 351.934L249.141 350.781ZM250.488 347.188C250.488 345.576 252.188 344.57 254.805 344.57C257.393 344.57 259.102 345.576 259.121 347.188C259.102 348.809 257.393 349.775 254.805 349.785C252.188 349.775 250.488 348.809 250.488 347.188ZM251.797 356.211V355.098H263.516V358.691H253.379V360.254H264.082V361.387H251.875V357.617H261.992V356.211H251.797ZM251.934 347.188C251.924 348.105 253.057 348.73 254.805 348.73C256.533 348.73 257.666 348.105 257.676 347.188C257.666 346.26 256.533 345.635 254.805 345.645C253.057 345.635 251.924 346.26 251.934 347.188ZM277.129 345.859V360H275.352V347.695H275.273L271.836 349.98V348.203L275.352 345.859H277.129ZM285.508 360.195C282.959 360.195 281.025 358.623 280.918 356.445H282.617C282.744 357.705 283.975 358.643 285.508 358.652C287.344 358.643 288.672 357.305 288.672 355.527C288.672 353.691 287.295 352.334 285.391 352.324C284.199 352.305 283.271 352.676 282.754 353.594H281.055L282.051 345.859H289.707V347.422H283.516L282.988 351.562H283.125C283.76 351.074 284.707 350.742 285.703 350.742C288.398 350.742 290.381 352.734 290.391 355.488C290.381 358.223 288.33 360.195 285.508 360.195ZM297.129 344.863C299.727 344.873 301.611 346.455 301.621 348.711C301.611 350.977 299.727 352.539 297.129 352.539C294.502 352.539 292.607 350.977 292.617 348.711C292.607 346.455 294.502 344.873 297.129 344.863ZM294.121 348.711C294.102 350.234 295.381 351.289 297.129 351.289C298.848 351.289 300.137 350.234 300.137 348.711C300.137 347.207 298.848 346.143 297.129 346.152C295.381 346.143 294.102 347.207 294.121 348.711ZM295.254 355.215V353.984H306.543V358.164H296.797V360.117H307.168V361.348H295.293V357.012H305.02V355.215H295.254ZM305.02 353.145V344.219H306.543V353.145H305.02ZM39.9219 384.367C38.8281 384.367 37.9297 383.469 37.9297 382.355C37.9297 381.262 38.8281 380.363 39.9219 380.363C41.0352 380.363 41.9336 381.262 41.9336 382.355C41.9336 383.469 41.0352 384.367 39.9219 384.367ZM69.2773 372.219V376.672H71.8945V377.98H69.2773V382.316H67.7539V372.219H69.2773ZM55.7422 375.285V374.016H60.1562V372.062H61.6797V374.016H66.0938V375.285H55.7422ZM56.7383 379.133C56.7285 377.277 58.3984 376.096 60.918 376.086C63.4082 376.096 65.0781 377.277 65.0977 379.133C65.0781 380.988 63.4082 382.189 60.918 382.18C58.3984 382.189 56.7285 380.988 56.7383 379.133ZM58.2031 379.133C58.1934 380.266 59.2773 381.008 60.918 381.008C62.5391 381.008 63.6328 380.266 63.6523 379.133C63.6328 378.01 62.5391 377.258 60.918 377.277C59.2773 377.258 58.1934 378.01 58.2031 379.133ZM58.3008 389.348V383.078H59.8242V384.934H67.7539V383.078H69.2773V389.348H58.3008ZM59.8242 388.117H67.7539V386.145H59.8242V388.117ZM82.1484 373.41C82.1484 374.084 82.0703 374.729 81.9336 375.344H85.8398V372.238H87.3828V382.59H85.8398V380.285H81.2305V379.016H85.8398V376.613H81.5137C80.3418 379.348 77.6172 381.33 73.8672 382.355L73.2617 381.125C77.5 379.953 80.1855 377.629 80.498 374.66H74.1406V373.41H82.1484ZM75.7031 384.582V383.352H87.3828V389.562H85.8398V384.582H75.7031ZM96.1523 377.551C96.1328 380.334 98.1445 383.4 100.664 384.602L99.7852 385.812C97.832 384.855 96.1816 382.805 95.4004 380.451C94.5996 383 92.8613 385.246 90.918 386.242L89.9805 385.031C92.4805 383.811 94.6289 380.51 94.6484 377.551V375.285H90.6055V374.016H100.059V375.285H96.1523V377.551ZM102.188 389.582V372.219H103.711V379.25H106.621V380.559H103.711V389.582H102.188ZM114.824 372.961V375.461H119.883V372.961H121.406V380.52H113.32V372.961H114.824ZM114.824 379.27H119.883V376.652H114.824V379.27ZM115.078 383.254V382.023H126.152V386.223H116.621V388.137H126.797V389.387H115.117V385.051H124.629V383.254H115.078ZM124.629 381.203V372.219H126.152V375.988H128.77V377.277H126.152V381.203H124.629ZM145.762 386.184V387.453H129.863V386.184H134.297V382.043H131.309V380.773H134.023V375.109H131.27V373.84H144.238V375.109H141.484V380.773H144.199V382.043H141.211V386.184H145.762ZM135.547 380.773H139.98V375.109H135.547V380.773ZM135.84 386.184H139.688V382.043H135.84V386.184ZM148.984 388.117C148.301 388.107 147.715 387.541 147.734 386.848C147.715 386.164 148.301 385.598 148.984 385.598C149.678 385.598 150.244 386.164 150.234 386.848C150.244 387.541 149.678 388.107 148.984 388.117ZM147.734 378.996C147.715 378.312 148.301 377.746 148.984 377.746C149.678 377.746 150.244 378.312 150.234 378.996C150.244 379.689 149.678 380.256 148.984 380.266C148.301 380.256 147.715 379.689 147.734 378.996ZM162.871 373.859V388H161.094V375.695H161.016L157.578 377.98V376.203L161.094 373.859H162.871ZM171.641 373.859V388H169.863V375.695H169.785L166.348 377.98V376.203L169.863 373.859H171.641ZM189.102 372.238V382.473H187.559V381.516H184.043V380.5H187.559V372.238H189.102ZM174.727 378.781C178.086 378.801 182.383 378.762 186.133 378.352L186.23 379.348C184.531 379.592 182.764 379.738 181.035 379.816V382.531H179.531V379.875C177.891 379.934 176.309 379.934 174.902 379.934L174.727 378.781ZM176.074 375.188C176.074 373.576 177.773 372.57 180.391 372.57C182.979 372.57 184.688 373.576 184.707 375.188C184.688 376.809 182.979 377.775 180.391 377.785C177.773 377.775 176.074 376.809 176.074 375.188ZM177.383 384.211V383.098H189.102V386.691H178.965V388.254H189.668V389.387H177.461V385.617H187.578V384.211H177.383ZM177.52 375.188C177.51 376.105 178.643 376.73 180.391 376.73C182.119 376.73 183.252 376.105 183.262 375.188C183.252 374.26 182.119 373.635 180.391 373.645C178.643 373.635 177.51 374.26 177.52 375.188ZM202.715 373.859V388H200.938V375.695H200.859L197.422 377.98V376.203L200.938 373.859H202.715ZM206.934 388L213.418 375.52V375.422H205.938V373.859H215.234V375.5L208.77 388H206.934ZM221.816 372.863C224.414 372.873 226.299 374.455 226.309 376.711C226.299 378.977 224.414 380.539 221.816 380.539C219.189 380.539 217.295 378.977 217.305 376.711C217.295 374.455 219.189 372.873 221.816 372.863ZM218.809 376.711C218.789 378.234 220.068 379.289 221.816 379.289C223.535 379.289 224.824 378.234 224.824 376.711C224.824 375.207 223.535 374.143 221.816 374.152C220.068 374.143 218.789 375.207 218.809 376.711ZM219.941 383.215V381.984H231.23V386.164H221.484V388.117H231.855V389.348H219.98V385.012H229.707V383.215H219.941ZM229.707 381.145V372.219H231.23V381.145H229.707Z" fill="white"/>
<path d="M51.875 174.562H25.8438V171.281H36.8125V165.469H28.5938V151.531H48.9688V165.469H40.7812V171.281H51.875V174.562ZM45.0312 162.344V154.719H32.5312V162.344H45.0312ZM70.3125 154.188H64.6094C64.6719 155.229 64.9635 156.224 65.4844 157.172C66.0052 158.12 66.7656 158.964 67.7656 159.703C68.7656 160.443 69.9792 161.01 71.4062 161.406L69.4062 164.5C67.8229 164.042 66.4583 163.354 65.3125 162.438C64.1667 161.51 63.2604 160.411 62.5938 159.141C61.9375 160.526 61.0156 161.724 59.8281 162.734C58.651 163.745 57.2396 164.5 55.5938 165L53.5938 161.875C55.0521 161.458 56.2865 160.854 57.2969 160.062C58.3177 159.271 59.0938 158.37 59.625 157.359C60.1562 156.349 60.4531 155.292 60.5156 154.188H54.6875V151H70.3125V154.188ZM58.2812 166.062H62.2188V168.719H73.3438V166.062H77.3125V177.562H58.2812V166.062ZM73.3438 174.375V171.812H62.2188V174.375H73.3438ZM73.3125 149.438H77.3125V164.875H73.3125V149.438Z" fill="white"/>
<path d="M325.75 177.875H321.719V149.438H325.75V177.875ZM301.938 169.812C304.365 168.667 306.365 167.391 307.938 165.984C309.521 164.578 310.729 163.021 311.562 161.312C312.406 159.594 312.938 157.667 313.156 155.531H303.469V152.406H317.219C317.208 155.448 316.797 158.214 315.984 160.703C315.172 163.193 313.792 165.479 311.844 167.562C309.906 169.646 307.302 171.458 304.031 173L301.938 169.812ZM352.062 157.406H355.906V160.688H352.062V169.812H348.031V149.438H352.062V157.406ZM329.312 163.875C332.458 163 334.932 161.781 336.734 160.219C338.547 158.646 339.609 156.844 339.922 154.812H330.562V151.562H344.312C344.312 154.104 343.792 156.396 342.75 158.438C341.719 160.469 340.208 162.208 338.219 163.656C336.229 165.104 333.812 166.229 330.969 167.031L329.312 163.875ZM333.562 167.719H337.594V174.188H353.031V177.375H333.562V167.719Z" fill="white"/>
<line x1="99" y1="159.5" x2="283" y2="159.5" stroke="url(#paint0_linear_5811_980)"/>
<path d="M411.5 137C411.5 126.23 420.23 117.5 431 117.5H771C781.77 117.5 790.5 126.23 790.5 137V405C790.5 415.77 781.77 424.5 771 424.5H431C420.23 424.5 411.5 415.77 411.5 405V137Z" stroke="white"/>
<path d="M446.875 157.188C446.865 158.76 447.13 160.307 447.672 161.828C448.214 163.339 449.021 164.703 450.094 165.922C451.167 167.13 452.469 168.052 454 168.688L451.844 171.812C450.219 171.125 448.823 170.12 447.656 168.797C446.49 167.464 445.573 165.906 444.906 164.125C444.24 166.052 443.312 167.75 442.125 169.219C440.948 170.677 439.542 171.781 437.906 172.531L435.625 169.375C437.146 168.698 438.443 167.714 439.516 166.422C440.599 165.13 441.411 163.682 441.953 162.078C442.505 160.464 442.781 158.833 442.781 157.188V155.438H436.75V152.188H452.812V155.438H446.875V157.188ZM455.625 149.438H459.656V177.875H455.625V149.438ZM487.594 170.938H483.594V168.688H478.156V165.969H483.594V149.469H487.594V170.938ZM463.406 162.062C466.979 162.042 470.25 161.979 473.219 161.875C476.188 161.76 479 161.542 481.656 161.219L481.875 164.062C479.708 164.427 477.417 164.698 475 164.875V170.281H471V174.188H488.219V177.375H467.031V168.875H471V165.109C469.021 165.182 466.646 165.219 463.875 165.219L463.406 162.062ZM465.5 155.531C465.5 154.531 465.802 153.646 466.406 152.875C467.01 152.104 467.854 151.505 468.938 151.078C470.021 150.651 471.26 150.438 472.656 150.438C474.021 150.438 475.24 150.651 476.312 151.078C477.385 151.505 478.224 152.104 478.828 152.875C479.443 153.646 479.75 154.531 479.75 155.531C479.75 156.531 479.443 157.411 478.828 158.172C478.224 158.932 477.385 159.516 476.312 159.922C475.24 160.328 474.021 160.531 472.656 160.531C471.25 160.531 470.005 160.328 468.922 159.922C467.849 159.516 467.01 158.932 466.406 158.172C465.802 157.411 465.5 156.531 465.5 155.531ZM469.281 155.531C469.271 156.208 469.573 156.734 470.188 157.109C470.812 157.474 471.656 157.656 472.719 157.656C473.677 157.656 474.453 157.469 475.047 157.094C475.651 156.719 475.958 156.198 475.969 155.531C475.958 154.844 475.646 154.307 475.031 153.922C474.427 153.536 473.635 153.344 472.656 153.344C471.625 153.344 470.802 153.536 470.188 153.922C469.573 154.307 469.271 154.844 469.281 155.531Z" fill="white"/>
<path d="M722.344 157.188C722.333 158.677 722.594 160.172 723.125 161.672C723.656 163.172 724.443 164.542 725.484 165.781C726.536 167.021 727.812 167.99 729.312 168.688L727.094 171.812C725.562 171.104 724.229 170.078 723.094 168.734C721.958 167.38 721.057 165.818 720.391 164.047C719.734 165.984 718.818 167.698 717.641 169.188C716.474 170.667 715.094 171.781 713.5 172.531L711.188 169.375C712.708 168.667 714.005 167.661 715.078 166.359C716.151 165.057 716.958 163.609 717.5 162.016C718.052 160.411 718.333 158.802 718.344 157.188V155.438H712.312V152.188H728.062V155.438H722.344V157.188ZM730.281 149.438H734.281V160.281H738.469V163.625H734.281V177.875H730.281V149.438ZM754.719 151.219C754.719 152.24 754.635 153.188 754.469 154.062H759.5V149.469H763.469V166.344H759.5V163.25H753.031V160.062H759.5V157.188H753.547C752.599 159.385 751.089 161.255 749.016 162.797C746.953 164.328 744.385 165.5 741.312 166.312L739.812 163.125C742.958 162.323 745.432 161.167 747.234 159.656C749.047 158.135 750.115 156.396 750.438 154.438H741.438V151.219H754.719ZM743.938 167.5H763.469V177.812H759.5V170.625H743.938V167.5Z" fill="white"/>
<path d="M449.922 278.367C448.828 278.367 447.93 277.469 447.93 276.355C447.93 275.262 448.828 274.363 449.922 274.363C451.035 274.363 451.934 275.262 451.934 276.355C451.934 277.469 451.035 278.367 449.922 278.367ZM480.527 266.219V283.582H479.023V274.5H476.621V282.723H475.156V266.688H476.621V273.23H479.023V266.219H480.527ZM465.723 278.777C469.756 276.521 471.416 273.348 471.68 269.754H466.387V268.484H473.184C473.164 272.898 471.611 277.068 466.621 279.852L465.723 278.777ZM485.234 266.961V269.461H490.293V266.961H491.816V274.52H483.73V266.961H485.234ZM485.234 273.27H490.293V270.652H485.234V273.27ZM485.488 277.254V276.023H496.562V280.223H487.031V282.137H497.207V283.387H485.527V279.051H495.039V277.254H485.488ZM495.039 275.203V266.219H496.562V269.988H499.18V271.277H496.562V275.203H495.039ZM505.957 267.195L501.387 284.129H499.863L504.414 267.195H505.957ZM512.871 269.969C512.881 272.098 514.619 274.002 517.188 274.754L516.465 275.984C514.473 275.369 512.92 274.07 512.148 272.4C511.406 274.285 509.805 275.73 507.754 276.434L506.973 275.223C509.561 274.422 511.357 272.342 511.367 269.969V269.617H507.441V268.348H511.367V266.141H512.91V268.348H516.797V269.617H512.871V269.969ZM509.199 280.418C509.209 278.436 511.377 277.303 514.961 277.312C518.545 277.303 520.684 278.436 520.684 280.418C520.684 282.4 518.545 283.533 514.961 283.523C511.377 283.533 509.209 282.4 509.199 280.418ZM510.742 280.418C510.723 281.629 512.324 282.332 514.961 282.332C517.588 282.332 519.189 281.629 519.199 280.418C519.189 279.207 517.588 278.523 514.961 278.523C512.324 278.523 510.723 279.207 510.742 280.418ZM519.004 276.883V266.219H520.527V270.75H523.145V272.02H520.527V276.883H519.004ZM529.023 267.039C531.348 267.029 533.125 268.387 533.457 270.379H537.09V266.219H538.633V275.535H537.09V271.648H533.467C533.164 273.699 531.377 275.066 529.023 275.066C526.377 275.066 524.502 273.426 524.512 271.043C524.502 268.689 526.377 267.029 529.023 267.039ZM525.977 271.043C525.977 272.625 527.236 273.768 529.023 273.777C530.771 273.768 532.031 272.625 532.031 271.043C532.031 269.441 530.771 268.328 529.023 268.348C527.236 268.328 525.977 269.441 525.977 271.043ZM527.441 283.348V276.414H528.984V278.621H537.09V276.414H538.633V283.348H527.441ZM528.984 282.098H537.09V279.852H528.984V282.098ZM556.406 266.219V283.582H554.922V266.219H556.406ZM541.738 273.719C541.748 270.027 543.213 267.693 545.469 267.684C547.578 267.693 549.004 269.725 549.199 272.996H551.445V266.59H552.91V282.703H551.445V274.266H549.209C549.062 277.645 547.607 279.764 545.469 279.754C543.213 279.764 541.748 277.41 541.738 273.719ZM543.184 273.719C543.164 276.531 544.062 278.309 545.469 278.289C546.885 278.309 547.783 276.531 547.773 273.719C547.783 270.896 546.885 269.129 545.469 269.129C544.062 269.129 543.164 270.896 543.184 273.719ZM577.852 274.363V275.613H572.48V280.105H579.727V281.395H563.828V280.105H570.977V275.613H565.859V267.645H577.676V268.895H567.402V274.363H577.852ZM595.508 266.238V278.973H593.965V272.312H590.391V271.043H593.965V266.238H595.508ZM581.191 275.496C583.75 274.598 585.605 272.303 585.605 269.812V268.914H581.68V267.645H591.035V268.914H587.148V269.812C587.148 272.059 588.887 274.236 591.426 275.105L590.625 276.336C588.672 275.623 587.158 274.168 586.406 272.371C585.654 274.383 584.053 275.975 581.992 276.746L581.191 275.496ZM584.355 283.211V277.82H585.898V281.922H595.996V283.211H584.355ZM611.836 266.219V273.387H614.746V274.656H611.836V283.582H610.312V266.219H611.836ZM598.301 270.281V269.012H602.773V266.434H604.297V269.012H608.633V270.281H598.301ZM599.297 275.711C599.287 273.367 601.084 271.727 603.555 271.727C606.006 271.727 607.793 273.367 607.812 275.711C607.793 278.064 606.006 279.695 603.555 279.695C601.084 279.695 599.287 278.064 599.297 275.711ZM600.762 275.711C600.752 277.293 601.934 278.406 603.555 278.387C605.156 278.406 606.328 277.293 606.348 275.711C606.328 274.139 605.156 273.006 603.555 273.016C601.934 273.006 600.752 274.139 600.762 275.711ZM629.609 267.977V269.715C629.59 271.844 629.59 274.227 628.965 277.723L627.402 277.547C628.057 274.227 628.057 271.795 628.066 269.715V269.246H617.363V267.977H629.609ZM615.684 281.121V279.852H621.895V273.641H623.398V279.852H631.504V281.121H615.684ZM652.324 266.238V275.887H650.801V266.238H652.324ZM638.105 274.305C640.723 273.396 642.578 271.102 642.578 268.582V266.883H644.141V268.582C644.121 270.994 645.996 273.143 648.574 273.992L647.832 275.203C645.791 274.51 644.16 273.055 643.379 271.189C642.598 273.191 640.957 274.773 638.887 275.516L638.105 274.305ZM640.605 283.348V282.098H643.203V278.172H640.762V276.922H652.441V278.172H650.039V282.098H652.617V283.348H640.605ZM644.707 282.098H648.516V278.172H644.707V282.098ZM671.094 275.379V276.629H655.273V275.379H671.094ZM657.031 270.281C657.031 268.104 659.414 266.824 663.184 266.844C666.914 266.824 669.307 268.104 669.316 270.281C669.307 272.439 666.914 273.738 663.184 273.738C659.414 273.738 657.031 272.439 657.031 270.281ZM657.324 283.211V278.152H658.867V281.922H669.336V283.211H657.324ZM658.613 270.281C658.604 271.658 660.381 272.488 663.184 272.488C665.967 272.488 667.744 271.658 667.754 270.281C667.744 268.924 665.967 268.074 663.184 268.074C660.381 268.074 658.604 268.924 658.613 270.281ZM692.422 266.219V283.582H690.957V274.48H688.398V282.684H686.992V266.609H688.398V273.211H690.957V266.219H692.422ZM678.223 279.285V268.348H684.727V269.617H679.746V277.977C682.139 277.967 683.789 277.879 685.723 277.488L685.859 278.777C683.77 279.207 682.002 279.275 679.336 279.285H678.223ZM705.254 268.094V269.344H694.902V268.094H699.316V266.141H700.84V268.094H705.254ZM695.898 273.387C695.889 271.473 697.568 270.262 700.078 270.242C702.568 270.262 704.238 271.473 704.258 273.387C704.238 275.271 702.568 276.502 700.078 276.512C697.568 276.502 695.889 275.271 695.898 273.387ZM697.07 279.285V278.035H708.438V283.582H706.914V279.285H697.07ZM697.363 273.387C697.354 274.539 698.438 275.291 700.078 275.281C701.699 275.291 702.793 274.539 702.812 273.387C702.793 272.205 701.699 271.443 700.078 271.434C698.438 271.443 697.354 272.205 697.363 273.387ZM706.914 277.078V266.219H708.438V271.043H711.055V272.332H708.438V277.078H706.914ZM717.324 269.676C717.334 271.6 718.672 273.543 720.898 274.383L720.098 275.555C718.428 274.91 717.227 273.67 716.602 272.176C715.967 273.826 714.717 275.301 713.008 276.043L712.168 274.852C714.453 273.855 715.85 271.609 715.859 269.676V267.312H717.324V269.676ZM715.332 280.457C715.312 278.494 717.539 277.342 721.152 277.352C724.746 277.342 726.982 278.494 726.992 280.457C726.982 282.4 724.746 283.543 721.152 283.543C717.539 283.543 715.312 282.4 715.332 280.457ZM716.855 280.457C716.836 281.639 718.486 282.361 721.152 282.352C723.789 282.361 725.449 281.639 725.469 280.457C725.449 279.256 723.789 278.533 721.152 278.523C718.486 278.533 716.836 279.256 716.855 280.457ZM721.68 276.414V266.57H723.125V270.906H725.43V266.238H726.895V276.961H725.43V272.176H723.125V276.414H721.68ZM449.922 306.367C448.828 306.367 447.93 305.469 447.93 304.355C447.93 303.262 448.828 302.363 449.922 302.363C451.035 302.363 451.934 303.262 451.934 304.355C451.934 305.469 451.035 306.367 449.922 306.367ZM470.352 295.566C472.91 295.576 474.727 297.93 474.746 301.621C474.727 305.322 472.91 307.666 470.352 307.656C467.773 307.666 465.967 305.322 465.977 301.621C465.967 297.93 467.773 295.576 470.352 295.566ZM467.422 301.621C467.432 304.443 468.633 306.299 470.352 306.289C472.09 306.299 473.262 304.443 473.262 301.621C473.262 298.799 472.09 296.943 470.352 296.934C468.633 296.943 467.432 298.799 467.422 301.621ZM477.617 311.582V294.219H479.141V301.152H482.051V302.48H479.141V311.582H477.617ZM497.305 294.219V311.621H495.762V294.219H497.305ZM483.633 301.621C483.643 297.93 485.479 295.576 488.066 295.566C490.645 295.576 492.51 297.93 492.5 301.621C492.51 305.322 490.645 307.666 488.066 307.656C485.479 307.666 483.643 305.322 483.633 301.621ZM485.117 301.621C485.117 304.443 486.328 306.299 488.066 306.289C489.814 306.299 491.016 304.443 491.016 301.621C491.016 298.799 489.814 296.943 488.066 296.934C486.328 296.943 485.117 298.799 485.117 301.621ZM514.59 294.219V311.621H513.047V294.219H514.59ZM501.406 307.305V295.879H509.668V297.168H502.949V305.977C506.328 305.977 508.545 305.879 511.152 305.41L511.309 306.699C508.613 307.178 506.328 307.295 502.812 307.305H501.406ZM522.227 295.566C524.59 295.576 526.299 297.607 526.533 300.859H530.43V294.219H531.953V311.621H530.43V302.129H526.553C526.387 305.537 524.648 307.666 522.227 307.656C519.658 307.666 517.861 305.322 517.871 301.621C517.861 297.93 519.658 295.576 522.227 295.566ZM519.336 301.621C519.346 304.443 520.518 306.299 522.227 306.289C523.926 306.299 525.117 304.443 525.117 301.621C525.117 298.799 523.926 296.943 522.227 296.934C520.518 296.943 519.346 298.799 519.336 301.621ZM550.723 302.285V303.496H534.824V302.285H550.723ZM536.738 306.035V304.883H548.73V308.574H538.301V310.234H549.297V311.348H536.758V307.52H547.207V306.035H536.738ZM536.836 295.859V294.746H548.672V298.34H538.418V299.863H548.984V300.977H536.895V297.285H547.129V295.859H536.836ZM571.465 294.219V303.223H569.961V294.219H571.465ZM557.266 301.836C559.883 300.928 561.738 298.604 561.738 296.055V294.727H563.301V296.055C563.281 298.506 565.156 300.674 567.734 301.523L566.973 302.715C564.932 302.021 563.32 300.566 562.539 298.691C561.758 300.713 560.127 302.305 558.066 303.047L557.266 301.836ZM560.195 305.332V304.102H571.484V308.262H561.738V310.137H572.109V311.387H560.234V307.07H569.961V305.332H560.195ZM588.828 294.238V307.48H587.285V303.75H584.277V302.5H587.285V300.137H584.277V298.867H587.285V294.238H588.828ZM574.453 297.617V296.367H578.672V294.219H580.195V296.367H584.277V297.617H574.453ZM575.488 301.895C575.469 299.902 577.09 298.574 579.414 298.574C581.738 298.574 583.369 299.902 583.379 301.895C583.369 303.867 581.738 305.205 579.414 305.215C577.09 305.205 575.469 303.867 575.488 301.895ZM576.914 301.895C576.904 303.145 577.93 303.994 579.414 303.984C580.898 303.994 581.924 303.145 581.934 301.895C581.924 300.645 580.898 299.805 579.414 299.785C577.93 299.805 576.904 300.645 576.914 301.895ZM577.598 311.211V306.309H579.141V309.922H589.219V311.211H577.598ZM597.891 298.887C597.881 302.061 600.039 305.244 602.598 306.406L601.66 307.617C599.678 306.66 597.969 304.6 597.139 302.129C596.338 304.746 594.629 306.943 592.598 307.969L591.621 306.68C594.209 305.498 596.348 302.178 596.367 298.887V295.723H597.891V298.887ZM604.492 311.621V294.219H606.035V311.621H604.492ZM618.32 296.035C618.301 301.045 616.494 305.674 610.215 308.75L609.355 307.52C612.617 305.957 614.629 303.955 615.723 301.602L609.688 302.188L609.434 300.82L616.211 300.371C616.523 299.404 616.709 298.379 616.787 297.305H610.312V296.035H618.32ZM621.816 311.582V294.219H623.359V311.582H621.816ZM640.664 294.219V311.621H639.141V304.219H635.527V302.93H639.141V299.473H635.664V298.184H639.141V294.219H640.664ZM626.895 297.07V295.801H634.531V301.973H628.477V306.25C631.084 306.25 633.242 306.152 635.879 305.742L636.016 307.031C633.242 307.461 631.016 307.559 628.242 307.559H626.953V300.723H633.027V297.07H626.895ZM657.617 299.492V300.723H645.723V294.863H647.246V299.492H657.617ZM643.555 304.336V303.086H659.453V304.336H643.555ZM645.625 311.152V306.113H647.148V309.883H657.715V311.152H645.625ZM470.605 322.844C472.139 322.834 473.428 323.4 474.229 324.348H478.672V322.219H480.195V331.145H478.672V329.152H474.268C473.477 330.139 472.168 330.725 470.605 330.715C467.988 330.725 466.084 329.123 466.094 326.77C466.084 324.436 467.988 322.834 470.605 322.844ZM467.559 326.77C467.559 328.342 468.828 329.465 470.605 329.484C472.324 329.465 473.613 328.342 473.613 326.77C473.613 325.207 472.324 324.094 470.605 324.113C468.828 324.094 467.559 325.207 467.559 326.77ZM468.945 333.254V332.023H480.195V336.184H470.508V338.117H480.859V339.348H468.984V335.012H478.672V333.254H468.945ZM474.912 325.578C475.029 325.949 475.098 326.35 475.098 326.77C475.098 327.18 475.039 327.561 474.922 327.922H478.672V325.578H474.912ZM497.5 322.219V332.57H495.957V328.02H492.461V326.75H495.957V322.219H497.5ZM483.184 331.184C485.762 330.256 487.598 327.902 487.598 325.422V324.777H483.672V323.488H493.027V324.777H489.141V325.402C489.141 327.668 490.879 329.826 493.418 330.695L492.617 331.926C490.674 331.223 489.16 329.758 488.408 327.971C487.666 330.002 486.055 331.623 483.984 332.414L483.184 331.184ZM485.918 336.34C485.908 334.299 488.125 333.107 491.738 333.117C495.342 333.107 497.559 334.299 497.559 336.34C497.559 338.391 495.342 339.562 491.738 339.582C488.125 339.562 485.908 338.391 485.918 336.34ZM487.441 336.34C487.432 337.6 489.072 338.361 491.738 338.352C494.395 338.361 496.035 337.6 496.035 336.34C496.035 335.07 494.395 334.309 491.738 334.309C489.072 334.309 487.432 335.07 487.441 336.34ZM508.301 322.531C512.158 322.531 514.424 323.596 514.434 325.52C514.424 327.492 512.158 328.557 508.301 328.566C504.424 328.557 502.148 327.492 502.148 325.52C502.148 323.596 504.424 322.531 508.301 322.531ZM500.391 330.988V329.738H516.211V330.988H500.391ZM502.305 333.664V332.492H514.18V336.379H503.867V338.176H514.707V339.387H502.344V335.246H512.676V333.664H502.305ZM503.75 325.52C503.73 326.73 505.42 327.395 508.301 327.395C511.182 327.395 512.861 326.73 512.871 325.52C512.861 324.377 511.182 323.693 508.301 323.684C505.42 323.693 503.73 324.377 503.75 325.52ZM536.133 322.219V329.289H538.945V330.578H536.133V339.582H534.609V322.219H536.133ZM522.812 335.07C527.295 332.844 529.736 329.494 530.088 325.383H523.613V324.094H531.641C531.631 329.006 529.326 333.488 523.672 336.281L522.812 335.07ZM546.23 325.949C546.24 328.293 548.086 330.402 550.684 331.223L549.902 332.453C547.881 331.76 546.279 330.334 545.488 328.508C544.736 330.48 543.105 332.043 541.035 332.805L540.234 331.574C542.842 330.666 544.678 328.41 544.688 325.949V324.934H540.625V323.684H550.234V324.934H546.23V325.949ZM543.105 339.211V333.762H544.629V337.922H554.863V339.211H543.105ZM552.793 334.973V322.238H554.316V334.973H552.793ZM577.129 322.219V339.582H575.664V330.48H573.105V338.684H571.699V322.609H573.105V329.211H575.664V322.219H577.129ZM562.93 335.285V324.348H569.434V325.617H564.453V333.977C566.846 333.967 568.496 333.879 570.43 333.488L570.566 334.777C568.477 335.207 566.709 335.275 564.043 335.285H562.93ZM589.961 324.094V325.344H579.609V324.094H584.023V322.141H585.547V324.094H589.961ZM580.605 329.387C580.596 327.473 582.275 326.262 584.785 326.242C587.275 326.262 588.945 327.473 588.965 329.387C588.945 331.271 587.275 332.502 584.785 332.512C582.275 332.502 580.596 331.271 580.605 329.387ZM581.777 335.285V334.035H593.145V339.582H591.621V335.285H581.777ZM582.07 329.387C582.061 330.539 583.145 331.291 584.785 331.281C586.406 331.291 587.5 330.539 587.52 329.387C587.5 328.205 586.406 327.443 584.785 327.434C583.145 327.443 582.061 328.205 582.07 329.387ZM591.621 333.078V322.219H593.145V327.043H595.762V328.332H593.145V333.078H591.621ZM602.031 325.676C602.041 327.6 603.379 329.543 605.605 330.383L604.805 331.555C603.135 330.91 601.934 329.67 601.309 328.176C600.674 329.826 599.424 331.301 597.715 332.043L596.875 330.852C599.16 329.855 600.557 327.609 600.566 325.676V323.312H602.031V325.676ZM600.039 336.457C600.02 334.494 602.246 333.342 605.859 333.352C609.453 333.342 611.689 334.494 611.699 336.457C611.689 338.4 609.453 339.543 605.859 339.543C602.246 339.543 600.02 338.4 600.039 336.457ZM601.562 336.457C601.543 337.639 603.193 338.361 605.859 338.352C608.496 338.361 610.156 337.639 610.176 336.457C610.156 335.256 608.496 334.533 605.859 334.523C603.193 334.533 601.543 335.256 601.562 336.457ZM606.387 332.414V322.57H607.832V326.906H610.137V322.238H611.602V332.961H610.137V328.176H607.832V332.414H606.387ZM449.922 362.367C448.828 362.367 447.93 361.469 447.93 360.355C447.93 359.262 448.828 358.363 449.922 358.363C451.035 358.363 451.934 359.262 451.934 360.355C451.934 361.469 451.035 362.367 449.922 362.367ZM466.328 366L466.309 364.711L471.133 359.633C472.803 357.855 473.604 356.898 473.613 355.59C473.604 354.135 472.393 353.197 470.801 353.188C469.111 353.197 468.057 354.262 468.047 355.844H466.387C466.367 353.344 468.301 351.664 470.859 351.664C473.428 351.664 475.244 353.393 475.254 355.59C475.244 357.172 474.512 358.402 472.012 360.98L468.77 364.32V364.438H475.508V366H466.328ZM477.402 363.109V361.664L483.77 351.859H485.938V361.566H487.91V363.109H485.938V366H484.258V363.109H477.402ZM479.297 361.566H484.258V354.086H484.082L479.297 361.449V361.566ZM504.004 350.238V363.09H502.461V357.074H497.461V355.844H502.461V353.754H497.461V352.523H502.461V350.238H504.004ZM490.645 360.512V351.488H492.188V359.203C494.58 359.193 496.885 359.057 499.531 358.578L499.688 359.848C496.865 360.375 494.502 360.492 491.953 360.512H490.645ZM492.812 367.211V361.996H494.355V365.922H504.473V367.211H492.812ZM520.918 358.363V359.613H515.547V364.105H522.793V365.395H506.895V364.105H514.043V359.613H508.926V351.645H520.742V352.895H510.469V358.363H520.918ZM543.555 350.219V367.582H542.012V350.219H543.555ZM529.414 363.07C534.111 360.844 536.514 357.514 536.855 353.363H530.215V352.113H538.418C538.398 357.104 536.074 361.527 530.254 364.32L529.414 363.07ZM555.391 352.387C555.381 354.525 558.291 356.264 561.367 356.684L560.762 357.895C557.959 357.484 555.332 356.088 554.395 354.057C553.447 356.088 550.84 357.484 548.027 357.895L547.461 356.684C550.518 356.264 553.408 354.525 553.398 352.387V352.348H547.93V351.098H560.898V352.348H555.391V352.387ZM546.465 360.434V359.164H562.363V360.434H555.293V363.988H553.77V360.434H546.465ZM548.496 367.211V362.25H550.039V365.922H560.586V367.211H548.496ZM583.711 350.219V367.582H582.227V358.559H579.863V366.703H578.398V350.59H579.863V357.25H582.227V350.219H583.711ZM568.613 362.816C571.113 361.439 572.451 358.49 572.441 354.965V353.578H569.023V352.289H577.148V353.578H573.926V354.965C573.926 358.139 575.244 360.941 577.715 362.211L576.797 363.402C575.049 362.445 573.838 360.736 573.223 358.617C572.627 361.029 571.396 362.924 569.57 363.988L568.613 362.816ZM596.465 352.094V353.344H586.113V352.094H590.527V350.141H592.051V352.094H596.465ZM587.109 357.387C587.1 355.473 588.779 354.262 591.289 354.242C593.779 354.262 595.449 355.473 595.469 357.387C595.449 359.271 593.779 360.502 591.289 360.512C588.779 360.502 587.1 359.271 587.109 357.387ZM588.281 363.285V362.035H599.648V367.582H598.125V363.285H588.281ZM588.574 357.387C588.564 358.539 589.648 359.291 591.289 359.281C592.91 359.291 594.004 358.539 594.023 357.387C594.004 356.205 592.91 355.443 591.289 355.434C589.648 355.443 588.564 356.205 588.574 357.387ZM598.125 361.078V350.219H599.648V355.043H602.266V356.332H599.648V361.078H598.125ZM608.535 353.676C608.545 355.6 609.883 357.543 612.109 358.383L611.309 359.555C609.639 358.91 608.438 357.67 607.812 356.176C607.178 357.826 605.928 359.301 604.219 360.043L603.379 358.852C605.664 357.855 607.061 355.609 607.07 353.676V351.312H608.535V353.676ZM606.543 364.457C606.523 362.494 608.75 361.342 612.363 361.352C615.957 361.342 618.193 362.494 618.203 364.457C618.193 366.4 615.957 367.543 612.363 367.543C608.75 367.543 606.523 366.4 606.543 364.457ZM608.066 364.457C608.047 365.639 609.697 366.361 612.363 366.352C615 366.361 616.66 365.639 616.68 364.457C616.66 363.256 615 362.533 612.363 362.523C609.697 362.533 608.047 363.256 608.066 364.457ZM612.891 360.414V350.57H614.336V354.906H616.641V350.238H618.105V360.961H616.641V356.176H614.336V360.414H612.891ZM634.727 351.352V358.422H626.582V351.352H634.727ZM627.832 366.332C630.82 366 633.691 364.311 633.691 362.582H628.555V361.391H633.711V359.691H635.234V361.391H640.43V362.582H635.273C635.264 364.271 638.057 365.961 641.035 366.332L640.508 367.523C637.9 367.162 635.518 365.932 634.482 364.33C633.438 365.971 630.996 367.162 628.379 367.523L627.832 366.332ZM628.086 357.211H633.223V352.602H628.086V357.211ZM638.477 360.199V350.219H639.98V360.199H638.477ZM662.871 352.152V353.402H648.789V352.152H655.117V350.121H656.621V352.152H662.871ZM647.969 362.582V361.312H663.867V362.582H659.668V367.621H658.145V362.582H653.652V367.621H652.109V362.582H647.969ZM650.215 357.27C650.195 355.424 652.324 354.398 655.879 354.398C659.404 354.398 661.533 355.424 661.543 357.27C661.533 359.105 659.404 360.141 655.879 360.141C652.324 360.141 650.195 359.105 650.215 357.27ZM651.797 357.27C651.777 358.334 653.291 358.959 655.879 358.949C658.438 358.959 659.941 358.334 659.961 357.27C659.941 356.195 658.438 355.59 655.879 355.57C653.291 355.59 651.777 356.195 651.797 357.27ZM675.645 352.094V353.344H665.293V352.094H669.707V350.141H671.23V352.094H675.645ZM666.289 357.387C666.279 355.473 667.959 354.262 670.469 354.242C672.959 354.262 674.629 355.473 674.648 357.387C674.629 359.271 672.959 360.502 670.469 360.512C667.959 360.502 666.279 359.271 666.289 357.387ZM667.461 363.285V362.035H678.828V367.582H677.305V363.285H667.461ZM667.754 357.387C667.744 358.539 668.828 359.291 670.469 359.281C672.09 359.291 673.184 358.539 673.203 357.387C673.184 356.205 672.09 355.443 670.469 355.434C668.828 355.443 667.744 356.205 667.754 357.387ZM677.305 361.078V350.219H678.828V355.043H681.445V356.332H678.828V361.078H677.305ZM687.715 353.676C687.725 355.6 689.062 357.543 691.289 358.383L690.488 359.555C688.818 358.91 687.617 357.67 686.992 356.176C686.357 357.826 685.107 359.301 683.398 360.043L682.559 358.852C684.844 357.855 686.24 355.609 686.25 353.676V351.312H687.715V353.676ZM685.723 364.457C685.703 362.494 687.93 361.342 691.543 361.352C695.137 361.342 697.373 362.494 697.383 364.457C697.373 366.4 695.137 367.543 691.543 367.543C687.93 367.543 685.703 366.4 685.723 364.457ZM687.246 364.457C687.227 365.639 688.877 366.361 691.543 366.352C694.18 366.361 695.84 365.639 695.859 364.457C695.84 363.256 694.18 362.533 691.543 362.523C688.877 362.533 687.227 363.256 687.246 364.457ZM692.07 360.414V350.57H693.516V354.906H695.82V350.238H697.285V360.961H695.82V356.176H693.516V360.414H692.07ZM702.676 364.691L701.152 370.004H699.707L700.781 364.691H702.676ZM724.355 350.219V363.148H722.812V358.109H719.844V356.82H722.812V354.809H719.844V353.539H722.812V350.219H724.355ZM710 359.203C710.693 359.203 711.445 359.193 712.246 359.184V352.895H710.488V351.645H719.707V352.895H717.93V358.979C718.73 358.93 719.521 358.861 720.273 358.773L720.352 359.926C716.982 360.443 713.018 360.502 710.195 360.512L710 359.203ZM713.164 367.211V362.074H714.707V365.922H724.824V367.211H713.164ZM713.73 359.154C714.619 359.135 715.537 359.105 716.445 359.066V352.895H713.73V359.154ZM741.582 350.219V359.535H740.059V350.219H741.582ZM727.656 355.062C727.646 352.689 729.57 351.059 732.207 351.078C734.844 351.059 736.748 352.689 736.758 355.062C736.748 357.426 734.844 359.057 732.207 359.047C729.57 359.057 727.646 357.426 727.656 355.062ZM729.16 355.062C729.141 356.645 730.42 357.768 732.207 357.777C733.975 357.768 735.254 356.645 735.254 355.062C735.254 353.471 733.975 352.357 732.207 352.367C730.42 352.357 729.141 353.471 729.16 355.062ZM730.332 367.348V360.414H731.855V362.523H740.059V360.414H741.582V367.348H730.332ZM731.855 366.098H740.059V363.754H731.855V366.098ZM749.707 353.676C749.717 355.6 751.055 357.543 753.281 358.383L752.48 359.555C750.811 358.91 749.609 357.67 748.984 356.176C748.35 357.826 747.1 359.301 745.391 360.043L744.551 358.852C746.836 357.855 748.232 355.609 748.242 353.676V351.312H749.707V353.676ZM747.715 364.457C747.695 362.494 749.922 361.342 753.535 361.352C757.129 361.342 759.365 362.494 759.375 364.457C759.365 366.4 757.129 367.543 753.535 367.543C749.922 367.543 747.695 366.4 747.715 364.457ZM749.238 364.457C749.219 365.639 750.869 366.361 753.535 366.352C756.172 366.361 757.832 365.639 757.852 364.457C757.832 363.256 756.172 362.533 753.535 362.523C750.869 362.533 749.219 363.256 749.238 364.457ZM754.062 360.414V350.57H755.508V354.906H757.812V350.238H759.277V360.961H757.812V356.176H755.508V360.414H754.062ZM466.777 388.609C466.797 384.928 467.793 381.861 469.59 379.254H471.074C469.756 381.178 468.525 385.133 468.516 388.609C468.525 392.096 469.756 396.041 471.074 397.984H469.59C467.793 395.367 466.797 392.301 466.777 388.609ZM481.172 383.727V385.855H488.34V387.086H472.52V385.855H479.668V383.727H481.172ZM473.359 383.453C476.348 383.18 479.258 381.861 479.424 380.035H473.965V378.785H486.934V380.035H481.436C481.602 381.861 484.492 383.18 487.5 383.453L486.992 384.645C484.102 384.342 481.377 383.15 480.439 381.285C479.512 383.16 476.777 384.342 473.887 384.645L473.359 383.453ZM474.434 389.703V388.531H486.309V392.477H475.996V394.176H486.836V395.387H474.473V391.344H484.805V389.703H474.434ZM494.59 379.039C496.914 379.029 498.691 380.387 499.023 382.379H502.656V378.219H504.199V387.535H502.656V383.648H499.033C498.73 385.699 496.943 387.066 494.59 387.066C491.943 387.066 490.068 385.426 490.078 383.043C490.068 380.689 491.943 379.029 494.59 379.039ZM491.543 383.043C491.543 384.625 492.803 385.768 494.59 385.777C496.338 385.768 497.598 384.625 497.598 383.043C497.598 381.441 496.338 380.328 494.59 380.348C492.803 380.328 491.543 381.441 491.543 383.043ZM493.008 395.348V388.414H494.551V390.621H502.656V388.414H504.199V395.348H493.008ZM494.551 394.098H502.656V391.852H494.551V394.098ZM512.969 383.551C512.949 386.334 514.961 389.4 517.48 390.602L516.602 391.812C514.648 390.855 512.998 388.805 512.217 386.451C511.416 389 509.678 391.246 507.734 392.242L506.797 391.031C509.297 389.811 511.445 386.51 511.465 383.551V381.285H507.422V380.016H516.875V381.285H512.969V383.551ZM519.004 395.582V378.219H520.527V385.25H523.438V386.559H520.527V395.582H519.004ZM527.227 392.691L525.703 398.004H524.258L525.332 392.691H527.227ZM543.418 379.801V381.09H536.816V384.684H543.027V385.934H536.816V390.133C539.951 390.133 542.148 390.016 544.746 389.566L544.922 390.836C542.207 391.295 539.932 391.393 536.641 391.402H535.273V379.801H543.418ZM546.426 395.582V378.219H547.949V385.211H550.859V386.52H547.949V395.582H546.426ZM566.641 378.219V395.582H565.176V386.48H562.617V394.684H561.211V378.609H562.617V385.211H565.176V378.219H566.641ZM552.441 391.285V380.348H558.945V381.617H553.965V389.977C556.357 389.967 558.008 389.879 559.941 389.488L560.078 390.777C557.988 391.207 556.221 391.275 553.555 391.285H552.441ZM574.258 381.676C574.268 383.6 575.605 385.543 577.832 386.383L577.031 387.555C575.361 386.91 574.16 385.67 573.535 384.176C572.9 385.826 571.65 387.301 569.941 388.043L569.102 386.852C571.387 385.855 572.783 383.609 572.793 381.676V379.312H574.258V381.676ZM572.266 392.457C572.246 390.494 574.473 389.342 578.086 389.352C581.68 389.342 583.916 390.494 583.926 392.457C583.916 394.4 581.68 395.543 578.086 395.543C574.473 395.543 572.246 394.4 572.266 392.457ZM573.789 392.457C573.77 393.639 575.42 394.361 578.086 394.352C580.723 394.361 582.383 393.639 582.402 392.457C582.383 391.256 580.723 390.533 578.086 390.523C575.42 390.533 573.77 391.256 573.789 392.457ZM578.613 388.414V378.57H580.059V382.906H582.363V378.238H583.828V388.961H582.363V384.176H580.059V388.414H578.613ZM597.305 381.832C597.314 383.961 599.053 385.855 601.621 386.617L600.898 387.828C598.896 387.203 597.344 385.904 596.572 384.234C595.82 386.07 594.219 387.496 592.148 388.16L591.387 386.949C593.975 386.168 595.791 384.156 595.801 381.832V381.52H591.875V380.289H595.801V378.141H597.344V380.289H601.23V381.52H597.305V381.832ZM594.004 395.348V389.312H604.961V395.348H594.004ZM595.508 394.098H603.438V390.523H595.508V394.098ZM603.438 388.512V378.219H604.961V382.633H607.578V383.922H604.961V388.512H603.438ZM613.34 379.566C614.932 379.576 616.23 380.504 616.982 382.105H621.543V378.219H623.066V395.621H621.543V388.883H617.09C616.367 390.641 615.02 391.666 613.34 391.656C610.771 391.666 608.975 389.322 608.984 385.621C608.975 381.93 610.771 379.576 613.34 379.566ZM610.449 385.621C610.459 388.443 611.631 390.299 613.34 390.289C615.039 390.299 616.23 388.443 616.23 385.621C616.23 382.799 615.039 380.943 613.34 380.934C611.631 380.943 610.459 382.799 610.449 385.621ZM617.422 383.395C617.588 384.068 617.676 384.811 617.676 385.621C617.676 386.334 617.607 387.008 617.48 387.613H621.543V383.395H617.422ZM634.609 378.512V380.172H643.203V378.512H644.727V384.215H633.086V378.512H634.609ZM630.977 386.93V385.66H646.797V386.93H639.629V388.629H644.766V392.477H634.453V394.176H645.293V395.387H632.93V391.344H643.262V389.801H632.891V388.629H638.105V386.93H630.977ZM634.609 383.023H643.203V381.344H634.609V383.023ZM661.699 378.219V385.289H664.512V386.578H661.699V395.582H660.176V378.219H661.699ZM648.379 391.07C652.861 388.844 655.303 385.494 655.654 381.383H649.18V380.094H657.207C657.197 385.006 654.893 389.488 649.238 392.281L648.379 391.07ZM669.883 388.609C669.863 392.301 668.867 395.367 667.07 397.984H665.586C666.904 396.041 668.135 392.096 668.145 388.609C668.135 385.133 666.904 381.178 665.586 379.254H667.07C668.867 381.861 669.863 384.928 669.883 388.609Z" fill="white"/>
<line x1="509" y1="159.5" x2="693" y2="159.5" stroke="url(#paint1_linear_5811_980)"/>
<path d="M821.5 137C821.5 126.23 830.23 117.5 841 117.5H1181C1191.77 117.5 1200.5 126.23 1200.5 137V405C1200.5 415.77 1191.77 424.5 1181 424.5H841C830.23 424.5 821.5 415.77 821.5 405V137Z" stroke="white"/>
<path d="M856.875 157.188C856.865 158.76 857.13 160.307 857.672 161.828C858.214 163.339 859.021 164.703 860.094 165.922C861.167 167.13 862.469 168.052 864 168.688L861.844 171.812C860.219 171.125 858.823 170.12 857.656 168.797C856.49 167.464 855.573 165.906 854.906 164.125C854.24 166.052 853.312 167.75 852.125 169.219C850.948 170.677 849.542 171.781 847.906 172.531L845.625 169.375C847.146 168.698 848.443 167.714 849.516 166.422C850.599 165.13 851.411 163.682 851.953 162.078C852.505 160.464 852.781 158.833 852.781 157.188V155.438H846.75V152.188H862.812V155.438H856.875V157.188ZM865.625 149.438H869.656V177.875H865.625V149.438ZM897.594 170.938H893.594V168.688H888.156V165.969H893.594V149.469H897.594V170.938ZM873.406 162.062C876.979 162.042 880.25 161.979 883.219 161.875C886.188 161.76 889 161.542 891.656 161.219L891.875 164.062C889.708 164.427 887.417 164.698 885 164.875V170.281H881V174.188H898.219V177.375H877.031V168.875H881V165.109C879.021 165.182 876.646 165.219 873.875 165.219L873.406 162.062ZM875.5 155.531C875.5 154.531 875.802 153.646 876.406 152.875C877.01 152.104 877.854 151.505 878.938 151.078C880.021 150.651 881.26 150.438 882.656 150.438C884.021 150.438 885.24 150.651 886.312 151.078C887.385 151.505 888.224 152.104 888.828 152.875C889.443 153.646 889.75 154.531 889.75 155.531C889.75 156.531 889.443 157.411 888.828 158.172C888.224 158.932 887.385 159.516 886.312 159.922C885.24 160.328 884.021 160.531 882.656 160.531C881.25 160.531 880.005 160.328 878.922 159.922C877.849 159.516 877.01 158.932 876.406 158.172C875.802 157.411 875.5 156.531 875.5 155.531ZM879.281 155.531C879.271 156.208 879.573 156.734 880.188 157.109C880.812 157.474 881.656 157.656 882.719 157.656C883.677 157.656 884.453 157.469 885.047 157.094C885.651 156.719 885.958 156.198 885.969 155.531C885.958 154.844 885.646 154.307 885.031 153.922C884.427 153.536 883.635 153.344 882.656 153.344C881.625 153.344 880.802 153.536 880.188 153.922C879.573 154.307 879.271 154.844 879.281 155.531Z" fill="white"/>
<path d="M1135.09 166.844C1137.06 166.844 1138.77 167.062 1140.2 167.5C1141.64 167.938 1142.74 168.568 1143.52 169.391C1144.3 170.214 1144.69 171.198 1144.69 172.344C1144.69 173.5 1144.3 174.495 1143.52 175.328C1142.74 176.172 1141.64 176.812 1140.2 177.25C1138.77 177.688 1137.06 177.906 1135.09 177.906C1133.09 177.906 1131.36 177.688 1129.89 177.25C1128.42 176.812 1127.3 176.172 1126.52 175.328C1125.73 174.495 1125.34 173.5 1125.34 172.344C1125.34 171.198 1125.73 170.214 1126.52 169.391C1127.31 168.568 1128.43 167.938 1129.89 167.5C1131.36 167.062 1133.09 166.844 1135.09 166.844ZM1122.69 151.219H1126.66V154.812H1132.47V151.219H1136.47V164.594H1122.69V151.219ZM1132.47 161.438V157.906H1126.66V161.438H1132.47ZM1129.34 172.344C1129.33 173.156 1129.82 173.771 1130.8 174.188C1131.79 174.604 1133.22 174.812 1135.09 174.812C1136.94 174.812 1138.34 174.604 1139.3 174.188C1140.27 173.771 1140.75 173.156 1140.75 172.344C1140.75 170.76 1138.86 169.958 1135.09 169.938C1131.23 169.958 1129.31 170.76 1129.34 172.344ZM1140.41 149.438H1144.41V156.031H1148.25V159.375H1144.41V166.219H1140.41V149.438ZM1154.72 154.531H1160.31V150.875H1164.25V155.938H1169.5V149.438H1173.47V165H1169.5V159.188H1164.25V164.188H1150.72V150.875H1154.72V154.531ZM1154.5 166.188H1158.44V168.812H1169.5V166.188H1173.47V177.5H1154.5V166.188ZM1160.31 161V157.594H1154.72V161H1160.31ZM1169.5 174.312V171.875H1158.44V174.312H1169.5Z" fill="white"/>
<path d="M859.922 338.367C859.564 338.367 859.232 338.279 858.926 338.104C858.62 337.921 858.376 337.677 858.193 337.371C858.018 337.059 857.93 336.72 857.93 336.355C857.93 335.997 858.018 335.665 858.193 335.359C858.376 335.053 858.62 334.812 858.926 334.637C859.232 334.454 859.564 334.363 859.922 334.363C860.286 334.363 860.622 334.454 860.928 334.637C861.24 334.812 861.484 335.053 861.66 335.359C861.842 335.665 861.934 335.997 861.934 336.355C861.934 336.72 861.842 337.059 861.66 337.371C861.484 337.677 861.24 337.921 860.928 338.104C860.622 338.279 860.286 338.367 859.922 338.367ZM881.328 342H879.551V329.695H879.473L876.035 331.98V330.203L879.551 327.859H881.328V342ZM890.254 331.883C890.254 332.801 890.439 333.709 890.811 334.607C891.188 335.506 891.706 336.316 892.363 337.039C893.021 337.762 893.763 338.322 894.59 338.719L893.691 339.91C892.741 339.448 891.901 338.768 891.172 337.869C890.449 336.971 889.906 335.958 889.541 334.832C889.157 336.043 888.581 337.127 887.812 338.084C887.051 339.035 886.178 339.747 885.195 340.223L884.316 339.031C885.156 338.641 885.915 338.071 886.592 337.322C887.269 336.574 887.799 335.727 888.184 334.783C888.574 333.833 888.77 332.866 888.77 331.883V330.496H884.785V329.246H888.75V326.551H890.293V329.246H894.199V330.496H890.254V331.883ZM896.387 326.219H897.91V333.348H900.82V334.656H897.91V343.582H896.387V326.219ZM912.891 330.887C912.891 331.915 913.089 332.931 913.486 333.934C913.89 334.936 914.437 335.828 915.127 336.609C915.824 337.384 916.589 337.964 917.422 338.348L916.504 339.598C915.514 339.09 914.632 338.348 913.857 337.371C913.089 336.388 912.513 335.278 912.129 334.041C911.738 335.35 911.156 336.525 910.381 337.566C909.613 338.608 908.737 339.389 907.754 339.91L906.758 338.68C907.598 338.27 908.366 337.654 909.062 336.834C909.759 336.007 910.309 335.073 910.713 334.031C911.123 332.983 911.328 331.935 911.328 330.887V327.723H912.891V330.887ZM915.527 332.156H919.648V326.219H921.172V343.621H919.648V333.406H915.527V332.156ZM939.941 337.82H935.762V343.582H934.238V337.82H929.746V343.582H928.203V337.82H924.043V336.59H939.941V337.82ZM925.957 326.902H938.008V331.355H927.539V333.523H938.379V334.793H925.996V330.164H936.445V328.172H925.957V326.902ZM859.922 362.367C859.564 362.367 859.232 362.279 858.926 362.104C858.62 361.921 858.376 361.677 858.193 361.371C858.018 361.059 857.93 360.72 857.93 360.355C857.93 359.997 858.018 359.665 858.193 359.359C858.376 359.053 858.62 358.812 858.926 358.637C859.232 358.454 859.564 358.363 859.922 358.363C860.286 358.363 860.622 358.454 860.928 358.637C861.24 358.812 861.484 359.053 861.66 359.359C861.842 359.665 861.934 359.997 861.934 360.355C861.934 360.72 861.842 361.059 861.66 361.371C861.484 361.677 861.24 361.921 860.928 362.104C860.622 362.279 860.286 362.367 859.922 362.367ZM881.914 355.551C881.914 356.508 882.126 357.462 882.549 358.412C882.979 359.363 883.551 360.209 884.268 360.951C884.99 361.687 885.775 362.237 886.621 362.602L885.762 363.812C884.74 363.35 883.818 362.647 882.998 361.703C882.184 360.759 881.576 359.688 881.172 358.49C880.768 359.76 880.156 360.912 879.336 361.947C878.522 362.976 877.617 363.741 876.621 364.242L875.703 363.031C876.53 362.634 877.298 362.035 878.008 361.234C878.724 360.434 879.297 359.532 879.727 358.529C880.156 357.52 880.371 356.527 880.371 355.551V353.285H876.27V352.016H886.055V353.285H881.914V355.551ZM888.477 350.219H890.02V367.582H888.477V350.219ZM907.305 363.422H905.762V361.625H902.168V360.512H905.762V350.238H907.305V363.422ZM892.891 358.285C895.215 358.272 897.272 358.236 899.062 358.178C900.853 358.113 902.565 357.979 904.199 357.777L904.297 358.891C902.884 359.112 901.296 359.278 899.531 359.389V362.816H897.988V359.467C896.816 359.512 895.189 359.535 893.105 359.535L892.891 358.285ZM894.297 353.969C894.297 353.37 894.476 352.842 894.834 352.387C895.192 351.924 895.697 351.57 896.348 351.322C896.999 351.068 897.747 350.941 898.594 350.941C899.434 350.941 900.179 351.068 900.83 351.322C901.481 351.57 901.986 351.924 902.344 352.387C902.708 352.842 902.891 353.37 902.891 353.969C902.891 354.581 902.708 355.115 902.344 355.57C901.986 356.02 901.481 356.368 900.83 356.615C900.186 356.856 899.44 356.977 898.594 356.977C897.741 356.977 896.989 356.856 896.338 356.615C895.687 356.368 895.182 356.02 894.824 355.57C894.473 355.115 894.297 354.581 894.297 353.969ZM895.391 362.133H896.934V365.922H907.734V367.211H895.391V362.133ZM895.762 353.969C895.755 354.34 895.869 354.669 896.104 354.955C896.338 355.235 896.67 355.453 897.1 355.609C897.536 355.766 898.034 355.844 898.594 355.844C899.141 355.844 899.626 355.766 900.049 355.609C900.479 355.453 900.814 355.235 901.055 354.955C901.302 354.669 901.426 354.34 901.426 353.969C901.426 353.604 901.302 353.282 901.055 353.002C900.814 352.715 900.479 352.494 900.049 352.338C899.626 352.182 899.141 352.107 898.594 352.113C898.034 352.107 897.539 352.182 897.109 352.338C896.68 352.494 896.344 352.715 896.104 353.002C895.869 353.282 895.755 353.604 895.762 353.969ZM916.387 354.887C916.387 355.915 916.585 356.931 916.982 357.934C917.386 358.936 917.933 359.828 918.623 360.609C919.32 361.384 920.085 361.964 920.918 362.348L920 363.598C919.01 363.09 918.128 362.348 917.354 361.371C916.585 360.388 916.009 359.278 915.625 358.041C915.234 359.35 914.652 360.525 913.877 361.566C913.109 362.608 912.233 363.389 911.25 363.91L910.254 362.68C911.094 362.27 911.862 361.654 912.559 360.834C913.255 360.007 913.805 359.073 914.209 358.031C914.619 356.983 914.824 355.935 914.824 354.887V351.723H916.387V354.887ZM919.023 356.156H923.145V350.219H924.668V367.621H923.145V357.406H919.023V356.156ZM938.457 353.441C938.457 354.203 938.636 354.936 938.994 355.639C939.352 356.342 939.854 356.964 940.498 357.504C941.143 358.044 941.888 358.461 942.734 358.754L941.953 359.945C940.964 359.594 940.101 359.079 939.365 358.402C938.636 357.725 938.086 356.934 937.715 356.029C937.344 357.012 936.777 357.875 936.016 358.617C935.254 359.353 934.362 359.906 933.34 360.277L932.52 359.086C933.379 358.78 934.144 358.344 934.814 357.777C935.485 357.204 936.006 356.544 936.377 355.795C936.755 355.046 936.947 354.262 936.953 353.441V352.699H932.988V351.449H942.363V352.699H938.457V353.441ZM934.785 361.605H946.152V367.582H944.629V362.855H934.785V361.605ZM944.629 350.219H946.152V354.809H948.77V356.117H946.152V360.688H944.629V350.219ZM955.84 352.953C955.833 353.767 956.009 354.542 956.367 355.277C956.732 356.013 957.24 356.661 957.891 357.221C958.542 357.774 959.29 358.194 960.137 358.48L959.277 359.672C958.32 359.314 957.48 358.793 956.758 358.109C956.035 357.426 955.485 356.628 955.107 355.717C954.736 356.758 954.167 357.667 953.398 358.441C952.637 359.216 951.732 359.802 950.684 360.199L949.844 358.949C950.729 358.637 951.507 358.188 952.178 357.602C952.855 357.009 953.379 356.319 953.75 355.531C954.121 354.737 954.31 353.897 954.316 353.012V351.215H955.84V352.953ZM952.676 364.301C952.676 363.611 952.907 363.021 953.369 362.533C953.838 362.038 954.508 361.664 955.381 361.41C956.253 361.15 957.292 361.02 958.496 361.02C959.694 361.02 960.729 361.15 961.602 361.41C962.474 361.664 963.145 362.038 963.613 362.533C964.082 363.021 964.316 363.611 964.316 364.301C964.316 364.984 964.082 365.567 963.613 366.049C963.145 366.537 962.474 366.908 961.602 367.162C960.729 367.416 959.694 367.543 958.496 367.543C957.292 367.543 956.253 367.416 955.381 367.162C954.508 366.908 953.838 366.537 953.369 366.049C952.907 365.567 952.676 364.984 952.676 364.301ZM954.199 364.301C954.199 364.711 954.368 365.069 954.707 365.375C955.046 365.674 955.534 365.906 956.172 366.068C956.816 366.231 957.575 366.312 958.447 366.312C959.339 366.312 960.111 366.231 960.762 366.068C961.413 365.912 961.914 365.684 962.266 365.385C962.617 365.079 962.793 364.717 962.793 364.301C962.793 363.871 962.62 363.503 962.275 363.197C961.93 362.885 961.432 362.647 960.781 362.484C960.137 362.315 959.375 362.23 958.496 362.23C957.611 362.23 956.842 362.315 956.191 362.484C955.547 362.647 955.052 362.885 954.707 363.197C954.368 363.503 954.199 363.871 954.199 364.301ZM958.848 353.949H962.715V350.219H964.258V360.512H962.715V355.219H958.848V353.949ZM859.922 386.367C859.564 386.367 859.232 386.279 858.926 386.104C858.62 385.921 858.376 385.677 858.193 385.371C858.018 385.059 857.93 384.72 857.93 384.355C857.93 383.997 858.018 383.665 858.193 383.359C858.376 383.053 858.62 382.812 858.926 382.637C859.232 382.454 859.564 382.363 859.922 382.363C860.286 382.363 860.622 382.454 860.928 382.637C861.24 382.812 861.484 383.053 861.66 383.359C861.842 383.665 861.934 383.997 861.934 384.355C861.934 384.72 861.842 385.059 861.66 385.371C861.484 385.677 861.24 385.921 860.928 386.104C860.622 386.279 860.286 386.367 859.922 386.367ZM876.309 388.711L881.133 383.633C881.764 382.956 882.246 382.412 882.578 382.002C882.917 381.585 883.174 381.185 883.35 380.801C883.525 380.417 883.613 380.013 883.613 379.59C883.613 379.115 883.49 378.698 883.242 378.34C882.995 377.975 882.656 377.692 882.227 377.49C881.803 377.288 881.328 377.188 880.801 377.188C880.247 377.188 879.762 377.301 879.346 377.529C878.929 377.751 878.607 378.06 878.379 378.457C878.158 378.854 878.047 379.316 878.047 379.844H876.387C876.38 379.023 876.569 378.298 876.953 377.666C877.344 377.035 877.881 376.543 878.564 376.191C879.248 375.84 880.013 375.664 880.859 375.664C881.699 375.664 882.451 375.837 883.115 376.182C883.786 376.527 884.31 376.999 884.688 377.598C885.065 378.197 885.254 378.861 885.254 379.59C885.247 380.13 885.146 380.648 884.951 381.143C884.762 381.631 884.437 382.174 883.975 382.773C883.512 383.372 882.858 384.108 882.012 384.98L878.77 388.32V388.438H885.508V390H876.328L876.309 388.711ZM893.223 379.883C893.223 380.801 893.408 381.709 893.779 382.607C894.157 383.506 894.674 384.316 895.332 385.039C895.99 385.762 896.732 386.322 897.559 386.719L896.66 387.91C895.71 387.448 894.87 386.768 894.141 385.869C893.418 384.971 892.874 383.958 892.51 382.832C892.126 384.043 891.549 385.127 890.781 386.084C890.02 387.035 889.147 387.747 888.164 388.223L887.285 387.031C888.125 386.641 888.883 386.071 889.561 385.322C890.238 384.574 890.768 383.727 891.152 382.783C891.543 381.833 891.738 380.866 891.738 379.883V378.496H887.754V377.246H891.719V374.551H893.262V377.246H897.168V378.496H893.223V379.883ZM899.355 374.219H900.879V381.348H903.789V382.656H900.879V391.582H899.355V374.219ZM918.535 377.285H922.598V374.238H924.141V386.914H922.598V382.285H918.535V383.848H910.566V375.742H918.535V377.285ZM917.031 382.617V377.012H912.09V382.617H917.031ZM912.91 385.781H914.453V389.922H924.531V391.211H912.91V385.781ZM922.598 381.016V378.574H918.535V381.016H922.598ZM941.406 383.652H939.883V379.727H936.367V378.438H939.883V374.219H941.406V383.652ZM927.109 382.734C927.956 382.428 928.714 381.986 929.385 381.406C930.055 380.82 930.579 380.15 930.957 379.395C931.335 378.639 931.523 377.858 931.523 377.051V376.543H927.598V375.273H936.953V376.543H933.066V377.051C933.066 377.786 933.245 378.506 933.604 379.209C933.968 379.912 934.473 380.54 935.117 381.094C935.768 381.641 936.51 382.057 937.344 382.344L936.543 383.535C935.573 383.184 934.72 382.663 933.984 381.973C933.255 381.283 932.702 380.488 932.324 379.59C931.953 380.592 931.38 381.475 930.605 382.236C929.837 382.998 928.939 383.568 927.91 383.945L927.109 382.734ZM930.234 384.492H931.777V386.66H939.883V384.492H941.406V391.348H930.234V384.492ZM939.883 390.098V387.891H931.777V390.098H939.883ZM964.238 377.48H950.156V376.211H956.484V374.121H957.988V376.211H964.238V377.48ZM949.336 385.469H965.234V386.738H957.988V391.621H956.484V386.738H949.336V385.469ZM951.582 381.387C951.576 380.768 951.797 380.241 952.246 379.805C952.695 379.368 953.343 379.04 954.189 378.818C955.042 378.59 956.061 378.477 957.246 378.477C958.418 378.477 959.427 378.59 960.273 378.818C961.126 379.04 961.777 379.368 962.227 379.805C962.682 380.241 962.91 380.768 962.91 381.387C962.91 381.992 962.682 382.51 962.227 382.939C961.777 383.369 961.126 383.698 960.273 383.926C959.427 384.154 958.418 384.271 957.246 384.277C956.061 384.271 955.042 384.154 954.189 383.926C953.343 383.698 952.695 383.369 952.246 382.939C951.797 382.51 951.576 381.992 951.582 381.387ZM953.164 381.387C953.158 381.738 953.311 382.041 953.623 382.295C953.942 382.549 954.404 382.744 955.01 382.881C955.615 383.018 956.341 383.086 957.188 383.086C958.49 383.086 959.502 382.939 960.225 382.646C960.954 382.347 961.322 381.927 961.328 381.387C961.322 380.84 960.96 380.417 960.244 380.117C959.528 379.811 958.529 379.655 957.246 379.648C955.951 379.655 954.945 379.811 954.229 380.117C953.512 380.417 953.158 380.84 953.164 381.387ZM978.223 386.582C980.156 386.478 981.816 386.322 983.203 386.113L983.32 387.246C981.673 387.546 979.974 387.744 978.223 387.842C976.471 387.939 974.626 387.988 972.686 387.988H971.953L971.738 386.719C973.9 386.706 975.56 386.68 976.719 386.641V383.379H978.223V386.582ZM972.266 382.773C973.125 382.52 973.883 382.148 974.541 381.66C975.205 381.165 975.723 380.586 976.094 379.922C976.471 379.251 976.667 378.535 976.68 377.773H972.695V376.504H976.719V374.355H978.223V376.504H982.305V377.773H978.223C978.236 378.503 978.434 379.189 978.818 379.834C979.202 380.472 979.73 381.029 980.4 381.504C981.071 381.973 981.836 382.331 982.695 382.578L981.973 383.789C980.931 383.477 980.016 382.998 979.229 382.354C978.447 381.702 977.861 380.941 977.471 380.068C977.1 380.993 976.523 381.79 975.742 382.461C974.967 383.132 974.056 383.626 973.008 383.945L972.266 382.773ZM984.355 374.219H985.879V391.621H984.355V374.219ZM997.578 382.871H1004.75V384.141H988.926V382.871H996.074V380.391H997.578V382.871ZM989.805 380.039C990.827 379.928 991.794 379.697 992.705 379.346C993.617 378.994 994.359 378.555 994.932 378.027C995.505 377.493 995.807 376.914 995.84 376.289H990.371V375.039H1003.34V376.289H997.832C997.865 376.908 998.167 377.484 998.74 378.018C999.313 378.551 1000.06 378.994 1000.97 379.346C1001.88 379.697 1002.85 379.928 1003.87 380.039L1003.3 381.25C1002.34 381.133 1001.42 380.918 1000.55 380.605C999.681 380.293 998.923 379.893 998.271 379.404C997.627 378.916 997.148 378.359 996.836 377.734C996.523 378.359 996.042 378.916 995.391 379.404C994.746 379.893 993.991 380.293 993.125 380.605C992.259 380.918 991.341 381.133 990.371 381.25L989.805 380.039ZM990.84 388.555C990.84 387.917 991.074 387.376 991.543 386.934C992.018 386.484 992.705 386.146 993.604 385.918C994.502 385.684 995.579 385.566 996.836 385.566C998.079 385.566 999.147 385.684 1000.04 385.918C1000.93 386.146 1001.61 386.484 1002.09 386.934C1002.57 387.376 1002.81 387.917 1002.81 388.555C1002.81 389.193 1002.57 389.733 1002.09 390.176C1001.61 390.625 1000.93 390.964 1000.04 391.191C999.147 391.426 998.079 391.543 996.836 391.543C995.579 391.543 994.502 391.426 993.604 391.191C992.705 390.964 992.018 390.625 991.543 390.176C991.074 389.733 990.84 389.193 990.84 388.555ZM992.402 388.555C992.396 388.932 992.565 389.255 992.91 389.521C993.255 389.788 993.757 389.993 994.414 390.137C995.072 390.28 995.859 390.352 996.777 390.352C998.19 390.352 999.29 390.195 1000.08 389.883C1000.87 389.57 1001.26 389.128 1001.27 388.555C1001.26 387.995 1000.88 387.559 1000.11 387.246C999.339 386.934 998.268 386.777 996.895 386.777C995.469 386.777 994.362 386.934 993.574 387.246C992.786 387.552 992.396 387.988 992.402 388.555ZM1024.8 378.672H1027.42V379.98H1024.8V384.316H1023.28V374.219H1024.8V378.672ZM1011.27 376.016H1015.68V374.062H1017.21V376.016H1021.62V377.285H1011.27V376.016ZM1012.27 381.133C1012.27 380.521 1012.44 379.987 1012.78 379.531C1013.13 379.069 1013.62 378.714 1014.25 378.467C1014.88 378.213 1015.61 378.086 1016.45 378.086C1017.27 378.086 1018 378.213 1018.62 378.467C1019.25 378.714 1019.74 379.069 1020.09 379.531C1020.44 379.987 1020.62 380.521 1020.62 381.133C1020.62 381.745 1020.44 382.282 1020.09 382.744C1019.74 383.206 1019.25 383.561 1018.62 383.809C1017.99 384.056 1017.27 384.18 1016.45 384.18C1015.61 384.18 1014.88 384.056 1014.25 383.809C1013.62 383.561 1013.13 383.206 1012.78 382.744C1012.44 382.282 1012.27 381.745 1012.27 381.133ZM1013.73 381.133C1013.73 381.504 1013.84 381.833 1014.06 382.119C1014.28 382.399 1014.6 382.617 1015.01 382.773C1015.43 382.93 1015.9 383.008 1016.45 383.008C1016.98 383.008 1017.45 382.93 1017.86 382.773C1018.28 382.617 1018.6 382.399 1018.83 382.119C1019.06 381.833 1019.17 381.504 1019.18 381.133C1019.17 380.762 1019.05 380.436 1018.82 380.156C1018.59 379.87 1018.27 379.652 1017.86 379.502C1017.45 379.346 1016.98 379.271 1016.45 379.277C1015.9 379.271 1015.43 379.346 1015.02 379.502C1014.61 379.652 1014.29 379.87 1014.06 380.156C1013.84 380.436 1013.73 380.762 1013.73 381.133ZM1013.83 385.078H1015.35V386.934H1023.28V385.078H1024.8V391.348H1013.83V385.078ZM1023.28 390.117V388.145H1015.35V390.117H1023.28ZM1037.68 375.41C1037.68 376.055 1037.6 376.699 1037.46 377.344H1041.37V374.238H1042.91V384.59H1041.37V382.285H1036.76V381.016H1041.37V378.613H1037.04C1036.46 379.967 1035.51 381.136 1034.2 382.119C1032.89 383.096 1031.29 383.841 1029.39 384.355L1028.79 383.125C1030.2 382.734 1031.43 382.223 1032.48 381.592C1033.53 380.954 1034.36 380.218 1034.96 379.385C1035.57 378.551 1035.92 377.643 1036.03 376.66H1029.67V375.41H1037.68ZM1031.23 385.352H1042.91V391.562H1041.37V386.582H1031.23V385.352Z" fill="white"/>
<line x1="919" y1="159.5" x2="1103" y2="159.5" stroke="url(#paint2_linear_5811_980)"/>
<path d="M0.999984 54.5561L232 45.0559" stroke="#FF731D" stroke-width="6"/>
<path d="M9.19633 60.9981L219.099 58.2308" stroke="#FF731D" stroke-width="6"/>
<defs>
<linearGradient id="paint0_linear_5811_980" x1="283" y1="160.944" x2="99" y2="160.944" gradientUnits="userSpaceOnUse">
<stop offset="0.3125" stop-color="#FF731D"/>
<stop offset="1" stop-color="white"/>
</linearGradient>
<linearGradient id="paint1_linear_5811_980" x1="693" y1="160.944" x2="509" y2="160.944" gradientUnits="userSpaceOnUse">
<stop offset="0.3125" stop-color="#FF731D"/>
<stop offset="1" stop-color="white"/>
</linearGradient>
<linearGradient id="paint2_linear_5811_980" x1="1103" y1="160.944" x2="919" y2="160.944" gradientUnits="userSpaceOnUse">
<stop offset="0.3125" stop-color="#FF731D"/>
<stop offset="1" stop-color="white"/>
</linearGradient>
</defs>
</svg>
