<svg width="1201" height="432" viewBox="0 0 1201 432" fill="none" xmlns="http://www.w3.org/2000/svg">
<path d="M0.999984 54.5561L232 45.0559" stroke="#FF731D" stroke-width="6"/>
<path d="M9 41L219.099 58.2309" stroke="#FF731D" stroke-width="6"/>
<path d="M660.729 309L660.709 307.711L665.533 302.633C667.213 300.855 668.014 299.898 668.014 298.59C668.014 297.145 666.783 296.188 665.201 296.188C663.521 296.188 662.447 297.262 662.447 298.844H660.787C660.768 296.344 662.701 294.664 665.26 294.664C667.818 294.664 669.654 296.383 669.654 298.59C669.654 300.172 668.912 301.402 666.412 303.98L663.17 307.32V307.438H669.908V309H660.729ZM677.096 309.195C673.951 309.195 672.154 306.559 672.154 301.93C672.154 297.34 673.99 294.664 677.096 294.664C680.201 294.664 682.037 297.34 682.037 301.93C682.037 306.559 680.221 309.195 677.096 309.195ZM677.096 307.633C679.127 307.633 680.318 305.582 680.318 301.93C680.318 298.277 679.127 296.188 677.096 296.188C675.064 296.188 673.854 298.277 673.854 301.93C673.854 305.582 675.045 307.633 677.096 307.633ZM684.381 309L684.361 307.711L689.186 302.633C690.865 300.855 691.666 299.898 691.666 298.59C691.666 297.145 690.436 296.188 688.854 296.188C687.174 296.188 686.1 297.262 686.1 298.844H684.439C684.42 296.344 686.354 294.664 688.912 294.664C691.471 294.664 693.307 296.383 693.307 298.59C693.307 300.172 692.564 301.402 690.064 303.98L686.822 307.32V307.438H693.561V309H684.381ZM701.002 309.195C698.189 309.195 696.178 307.691 696.08 305.445H697.857C697.955 306.793 699.303 307.633 700.982 307.633C702.838 307.633 704.205 306.617 704.205 305.152C704.205 303.609 702.975 302.516 700.768 302.516H699.615V300.973H700.768C702.486 300.973 703.678 300.016 703.678 298.551C703.678 297.145 702.643 296.188 701.041 296.188C699.537 296.188 698.15 297.027 698.072 298.414H696.373C696.471 296.168 698.541 294.664 701.061 294.664C703.756 294.664 705.396 296.422 705.377 298.453C705.396 300.055 704.459 301.246 702.975 301.656V301.754C704.811 302.047 705.943 303.355 705.924 305.152C705.943 307.477 703.814 309.195 701.002 309.195ZM722.232 293.238V306.09H720.689V300.074H715.689V298.844H720.689V296.754H715.689V295.523H720.689V293.238H722.232ZM722.701 308.922V310.211H711.041V304.996H712.584V308.922H722.701ZM710.416 294.488V302.203C712.809 302.193 715.113 302.066 717.76 301.578L717.916 302.848C715.084 303.375 712.721 303.492 710.182 303.512H708.873V294.488H710.416ZM735.768 294.859V309H733.99V296.695H733.912L730.475 298.98V297.203L733.99 294.859H735.768ZM744.537 294.859V309H742.76V296.695H742.682L739.244 298.98V297.203L742.76 294.859H744.537ZM761.998 293.238V303.473H760.455V302.516H756.939V301.5H760.455V293.238H761.998ZM747.623 299.781C750.982 299.801 755.279 299.762 759.029 299.352L759.127 300.348C757.428 300.592 755.66 300.738 753.932 300.816V303.531H752.428V300.875C750.787 300.934 749.215 300.943 747.799 300.934L747.623 299.781ZM761.998 304.098V307.691H751.861V309.254H762.564V310.387H750.357V306.617H760.475V305.211H750.279V304.098H761.998ZM753.287 293.57C755.865 293.57 757.584 294.586 757.604 296.188C757.584 297.809 755.865 298.785 753.287 298.785C750.67 298.785 748.971 297.809 748.971 296.188C748.971 294.586 750.67 293.57 753.287 293.57ZM753.287 294.645C751.529 294.645 750.396 295.25 750.416 296.188C750.396 297.105 751.529 297.73 753.287 297.73C755.025 297.73 756.158 297.105 756.158 296.188C756.158 295.25 755.025 294.645 753.287 294.645ZM775.611 294.859V309H773.834V296.695H773.756L770.318 298.98V297.203L773.834 294.859H775.611ZM784.264 309.195C781.451 309.195 779.439 307.691 779.342 305.445H781.119C781.217 306.793 782.564 307.633 784.244 307.633C786.1 307.633 787.467 306.617 787.467 305.152C787.467 303.609 786.236 302.516 784.029 302.516H782.877V300.973H784.029C785.748 300.973 786.939 300.016 786.939 298.551C786.939 297.145 785.904 296.188 784.303 296.188C782.799 296.188 781.412 297.027 781.334 298.414H779.635C779.732 296.168 781.803 294.664 784.322 294.664C787.018 294.664 788.658 296.422 788.639 298.453C788.658 300.055 787.721 301.246 786.236 301.656V301.754C788.072 302.047 789.205 303.355 789.186 305.152C789.205 307.477 787.076 309.195 784.264 309.195ZM796.021 293.863C798.619 293.883 800.514 295.445 800.514 297.711C800.514 299.977 798.619 301.539 796.021 301.539C793.385 301.539 791.51 299.977 791.51 297.711C791.51 295.445 793.385 293.883 796.021 293.863ZM796.021 295.152C794.283 295.152 792.994 296.207 793.014 297.711C792.994 299.234 794.283 300.289 796.021 300.289C797.74 300.289 799.029 299.234 799.029 297.711C799.029 296.207 797.74 295.152 796.021 295.152ZM805.436 293.219V302.145H803.912V293.219H805.436ZM805.436 302.984V307.164H795.689V309.117H806.061V310.348H794.186V306.012H803.912V304.215H794.146V302.984H805.436ZM809.459 303.609C809.479 299.918 810.475 296.852 812.271 294.254H813.756C812.428 296.188 811.197 300.133 811.197 303.609C811.197 307.086 812.428 311.051 813.756 312.984H812.271C810.475 310.367 809.479 307.301 809.459 303.609ZM829.518 293.238V303.473H827.975V302.516H824.459V301.5H827.975V293.238H829.518ZM815.143 299.781C818.502 299.801 822.799 299.762 826.549 299.352L826.646 300.348C824.947 300.592 823.18 300.738 821.451 300.816V303.531H819.947V300.875C818.307 300.934 816.734 300.943 815.318 300.934L815.143 299.781ZM829.518 304.098V307.691H819.381V309.254H830.084V310.387H817.877V306.617H827.994V305.211H817.799V304.098H829.518ZM820.807 293.57C823.385 293.57 825.104 294.586 825.123 296.188C825.104 297.809 823.385 298.785 820.807 298.785C818.189 298.785 816.49 297.809 816.49 296.188C816.49 294.586 818.189 293.57 820.807 293.57ZM820.807 294.645C819.049 294.645 817.916 295.25 817.936 296.188C817.916 297.105 819.049 297.73 820.807 297.73C822.545 297.73 823.678 297.105 823.678 296.188C823.678 295.25 822.545 294.645 820.807 294.645ZM836.822 303.609C836.803 307.301 835.807 310.367 834.01 312.984H832.525C833.854 311.051 835.084 307.086 835.084 303.609C835.084 300.133 833.854 296.188 832.525 294.254H834.01C835.807 296.852 836.803 299.918 836.822 303.609ZM653.17 327.199C653.795 326.477 654.576 326.086 655.436 326.086C656.92 326.086 658.268 327.219 659.693 327.219C660.572 327.219 661.334 326.789 661.92 325.988V327.609C661.275 328.352 660.514 328.723 659.654 328.723C658.17 328.723 656.822 327.59 655.377 327.59C654.518 327.59 653.756 328.02 653.17 328.82V327.199ZM670.162 333L670.143 331.711L674.967 326.633C676.646 324.855 677.447 323.898 677.447 322.59C677.447 321.145 676.217 320.188 674.635 320.188C672.955 320.188 671.881 321.262 671.881 322.844H670.221C670.201 320.344 672.135 318.664 674.693 318.664C677.252 318.664 679.088 320.383 679.088 322.59C679.088 324.172 678.346 325.402 675.846 327.98L672.604 331.32V331.438H679.342V333H670.162ZM686.529 333.195C683.385 333.195 681.588 330.559 681.588 325.93C681.588 321.34 683.424 318.664 686.529 318.664C689.635 318.664 691.471 321.34 691.471 325.93C691.471 330.559 689.654 333.195 686.529 333.195ZM686.529 331.633C688.561 331.633 689.752 329.582 689.752 325.93C689.752 322.277 688.561 320.188 686.529 320.188C684.498 320.188 683.287 322.277 683.287 325.93C683.287 329.582 684.479 331.633 686.529 331.633ZM693.814 333L693.795 331.711L698.619 326.633C700.299 324.855 701.1 323.898 701.1 322.59C701.1 321.145 699.869 320.188 698.287 320.188C696.607 320.188 695.533 321.262 695.533 322.844H693.873C693.854 320.344 695.787 318.664 698.346 318.664C700.904 318.664 702.74 320.383 702.74 322.59C702.74 324.172 701.998 325.402 699.498 327.98L696.256 331.32V331.438H702.994V333H693.814ZM710.436 333.195C707.623 333.195 705.611 331.691 705.514 329.445H707.291C707.389 330.793 708.736 331.633 710.416 331.633C712.271 331.633 713.639 330.617 713.639 329.152C713.639 327.609 712.408 326.516 710.201 326.516H709.049V324.973H710.201C711.92 324.973 713.111 324.016 713.111 322.551C713.111 321.145 712.076 320.188 710.475 320.188C708.971 320.188 707.584 321.027 707.506 322.414H705.807C705.904 320.168 707.975 318.664 710.494 318.664C713.189 318.664 714.83 320.422 714.811 322.453C714.83 324.055 713.893 325.246 712.408 325.656V325.754C714.244 326.047 715.377 327.355 715.357 329.152C715.377 331.477 713.248 333.195 710.436 333.195ZM731.666 317.238V330.09H730.123V324.074H725.123V322.844H730.123V320.754H725.123V319.523H730.123V317.238H731.666ZM732.135 332.922V334.211H720.475V328.996H722.018V332.922H732.135ZM719.85 318.488V326.203C722.242 326.193 724.547 326.066 727.193 325.578L727.35 326.848C724.518 327.375 722.154 327.492 719.615 327.512H718.307V318.488H719.85ZM745.201 318.859V333H743.424V320.695H743.346L739.908 322.98V321.203L743.424 318.859H745.201ZM753.971 318.859V333H752.193V320.695H752.115L748.678 322.98V321.203L752.193 318.859H753.971ZM771.432 317.238V327.473H769.889V326.516H766.373V325.5H769.889V317.238H771.432ZM757.057 323.781C760.416 323.801 764.713 323.762 768.463 323.352L768.561 324.348C766.861 324.592 765.094 324.738 763.365 324.816V327.531H761.861V324.875C760.221 324.934 758.648 324.943 757.232 324.934L757.057 323.781ZM771.432 328.098V331.691H761.295V333.254H771.998V334.387H759.791V330.617H769.908V329.211H759.713V328.098H771.432ZM762.721 317.57C765.299 317.57 767.018 318.586 767.037 320.188C767.018 321.809 765.299 322.785 762.721 322.785C760.104 322.785 758.404 321.809 758.404 320.188C758.404 318.586 760.104 317.57 762.721 317.57ZM762.721 318.645C760.963 318.645 759.83 319.25 759.85 320.188C759.83 321.105 760.963 321.73 762.721 321.73C764.459 321.73 765.592 321.105 765.592 320.188C765.592 319.25 764.459 318.645 762.721 318.645ZM785.045 318.859V333H783.268V320.695H783.189L779.752 322.98V321.203L783.268 318.859H785.045ZM789.264 333L795.748 320.52V320.422H788.268V318.859H797.564V320.5L791.1 333H789.264ZM804.146 317.863C806.744 317.883 808.639 319.445 808.639 321.711C808.639 323.977 806.744 325.539 804.146 325.539C801.51 325.539 799.635 323.977 799.635 321.711C799.635 319.445 801.51 317.883 804.146 317.863ZM804.146 319.152C802.408 319.152 801.119 320.207 801.139 321.711C801.119 323.234 802.408 324.289 804.146 324.289C805.865 324.289 807.154 323.234 807.154 321.711C807.154 320.207 805.865 319.152 804.146 319.152ZM813.561 317.219V326.145H812.037V317.219H813.561ZM813.561 326.984V331.164H803.814V333.117H814.186V334.348H802.311V330.012H812.037V328.215H802.271V326.984H813.561ZM817.584 327.609C817.604 323.918 818.6 320.852 820.396 318.254H821.881C820.553 320.188 819.322 324.133 819.322 327.609C819.322 331.086 820.553 335.051 821.881 336.984H820.396C818.6 334.367 817.604 331.301 817.584 327.609ZM837.135 318.156V319.445C837.135 320.793 837.135 322.375 836.686 324.543H839.225V325.812H823.326V324.543H835.143C835.611 322.365 835.611 320.793 835.611 319.445V319.426H825.338V318.156H837.135ZM837.213 328.215V334.348H825.279V328.215H837.213ZM826.803 329.426V333.098H835.689V329.426H826.803ZM844.947 327.609C844.928 331.301 843.932 334.367 842.135 336.984H840.65C841.979 335.051 843.209 331.086 843.209 327.609C843.209 324.133 841.979 320.188 840.65 318.254H842.135C843.932 320.852 844.928 323.918 844.947 327.609Z" fill="white"/>
<path d="M2.69682 1.27461V25.0674H51.3389V1.27461H2.69682ZM20.5134 30.5907H1V39.0881H53.0357V30.5907H33.5223V26.7668H20.5134V30.5907ZM15.7057 9.77202H38.3299V16.5699H15.7057V9.77202Z" fill="white"/>
<path d="M96.0217 22.5181V26.1295H70.5694V22.5181H57.5605V40.3627H109.031V22.5181H96.0217ZM75.9427 11.4715L77.1304 9.77202H90.9312V1.69948H57.5605V9.77202H63.8387L55.8071 21.2435H69.0989L74.359 13.7233L79.3363 21.2435H92.628L86.2367 11.4715H75.9427ZM109.031 0.42487H96.0217V21.2435H109.031V0.42487ZM70.5694 31.8653H96.0217V34.2021H70.5694V31.8653Z" fill="white"/>
<path d="M128.261 34.8394V33.5648H165.591V21.6684H114.121V27.1917H151.451V28.4663H114.121V40.3627H165.591V34.8394H128.261ZM146.926 9.98446C146.926 3.48394 140.987 0 129.675 0C118.363 0 112.424 3.48394 112.424 9.98446C112.424 16.485 118.363 19.9689 129.675 19.9689C140.987 19.9689 146.926 16.485 146.926 9.98446ZM165.591 0.42487H152.582V20.3938H165.591V0.42487ZM129.675 12.7461C125.15 12.7461 123.736 11.7264 123.736 9.98446C123.736 8.24249 125.15 7.2228 129.675 7.2228C134.2 7.2228 135.614 8.24249 135.614 9.98446C135.614 11.7264 134.2 12.7461 129.675 12.7461Z" fill="white"/>
<path d="M222.152 0.42487H209.143V8.07254H204.052V1.69948H170.682V10.1969H177.356L169.55 23.7927H182.842L187.65 15.4653L191.892 23.7927H205.183L199.358 12.3212H189.46L190.647 10.1969H203.487V16.5699H209.143V24.2176H222.152V0.42487ZM223 33.0124C223 27.914 217.118 25.0249 197.265 25.0249C177.412 25.0249 171.53 27.914 171.53 33.0124C171.53 38.1109 177.412 41 197.265 41C217.118 41 223 38.1109 223 33.0124ZM209.991 33.0124C209.991 33.9896 208.69 34.6269 197.265 34.6269C185.84 34.6269 184.539 33.9896 184.539 33.0124C184.539 32.0352 185.84 31.3979 197.265 31.3979C208.69 31.3979 209.991 32.0352 209.991 33.0124Z" fill="white"/>
<path d="M66.584 314L66.5645 312.711L71.3887 307.633C73.0684 305.855 73.8691 304.898 73.8691 303.59C73.8691 302.145 72.6387 301.188 71.0566 301.188C69.377 301.188 68.3027 302.262 68.3027 303.844H66.6426C66.623 301.344 68.5566 299.664 71.1152 299.664C73.6738 299.664 75.5098 301.383 75.5098 303.59C75.5098 305.172 74.7676 306.402 72.2676 308.98L69.0254 312.32V312.438H75.7637V314H66.584ZM82.9512 314.195C79.8066 314.195 78.0098 311.559 78.0098 306.93C78.0098 302.34 79.8457 299.664 82.9512 299.664C86.0566 299.664 87.8926 302.34 87.8926 306.93C87.8926 311.559 86.0762 314.195 82.9512 314.195ZM82.9512 312.633C84.9824 312.633 86.1738 310.582 86.1738 306.93C86.1738 303.277 84.9824 301.188 82.9512 301.188C80.9199 301.188 79.709 303.277 79.709 306.93C79.709 310.582 80.9004 312.633 82.9512 312.633ZM90.2363 314L90.2168 312.711L95.041 307.633C96.7207 305.855 97.5215 304.898 97.5215 303.59C97.5215 302.145 96.291 301.188 94.709 301.188C93.0293 301.188 91.9551 302.262 91.9551 303.844H90.2949C90.2754 301.344 92.209 299.664 94.7676 299.664C97.3262 299.664 99.1621 301.383 99.1621 303.59C99.1621 305.172 98.4199 306.402 95.9199 308.98L92.6777 312.32V312.438H99.416V314H90.2363ZM106.857 314.195C104.045 314.195 102.033 312.691 101.936 310.445H103.713C103.811 311.793 105.158 312.633 106.838 312.633C108.693 312.633 110.061 311.617 110.061 310.152C110.061 308.609 108.83 307.516 106.623 307.516H105.471V305.973H106.623C108.342 305.973 109.533 305.016 109.533 303.551C109.533 302.145 108.498 301.188 106.896 301.188C105.393 301.188 104.006 302.027 103.928 303.414H102.229C102.326 301.168 104.396 299.664 106.916 299.664C109.611 299.664 111.252 301.422 111.232 303.453C111.252 305.055 110.314 306.246 108.83 306.656V306.754C110.666 307.047 111.799 308.355 111.779 310.152C111.799 312.477 109.67 314.195 106.857 314.195ZM128.088 298.238V311.09H126.545V305.074H121.545V303.844H126.545V301.754H121.545V300.523H126.545V298.238H128.088ZM128.557 313.922V315.211H116.896V309.996H118.439V313.922H128.557ZM116.271 299.488V307.203C118.664 307.193 120.969 307.066 123.615 306.578L123.771 307.848C120.939 308.375 118.576 308.492 116.037 308.512H114.729V299.488H116.271ZM141.623 299.859V314H139.846V301.695H139.768L136.33 303.98V302.203L139.846 299.859H141.623ZM150.021 314.195C146.877 314.195 145.08 311.559 145.08 306.93C145.08 302.34 146.916 299.664 150.021 299.664C153.127 299.664 154.963 302.34 154.963 306.93C154.963 311.559 153.146 314.195 150.021 314.195ZM150.021 312.633C152.053 312.633 153.244 310.582 153.244 306.93C153.244 303.277 152.053 301.188 150.021 301.188C147.99 301.188 146.779 303.277 146.779 306.93C146.779 310.582 147.971 312.633 150.021 312.633ZM170.998 298.238V308.473H169.455V307.516H165.939V306.5H169.455V298.238H170.998ZM156.623 304.781C159.982 304.801 164.279 304.762 168.029 304.352L168.127 305.348C166.428 305.592 164.66 305.738 162.932 305.816V308.531H161.428V305.875C159.787 305.934 158.215 305.943 156.799 305.934L156.623 304.781ZM170.998 309.098V312.691H160.861V314.254H171.564V315.387H159.357V311.617H169.475V310.211H159.279V309.098H170.998ZM162.287 298.57C164.865 298.57 166.584 299.586 166.604 301.188C166.584 302.809 164.865 303.785 162.287 303.785C159.67 303.785 157.971 302.809 157.971 301.188C157.971 299.586 159.67 298.57 162.287 298.57ZM162.287 299.645C160.529 299.645 159.396 300.25 159.416 301.188C159.396 302.105 160.529 302.73 162.287 302.73C164.025 302.73 165.158 302.105 165.158 301.188C165.158 300.25 164.025 299.645 162.287 299.645ZM184.494 314.195C181.682 314.195 179.67 312.691 179.572 310.445H181.35C181.447 311.793 182.795 312.633 184.475 312.633C186.33 312.633 187.697 311.617 187.697 310.152C187.697 308.609 186.467 307.516 184.26 307.516H183.107V305.973H184.26C185.979 305.973 187.17 305.016 187.17 303.551C187.17 302.145 186.135 301.188 184.533 301.188C183.029 301.188 181.643 302.027 181.564 303.414H179.865C179.963 301.168 182.033 299.664 184.553 299.664C187.248 299.664 188.889 301.422 188.869 303.453C188.889 305.055 187.951 306.246 186.467 306.656V306.754C188.303 307.047 189.436 308.355 189.416 310.152C189.436 312.477 187.307 314.195 184.494 314.195ZM196.584 314.195C193.439 314.195 191.643 311.559 191.643 306.93C191.643 302.34 193.479 299.664 196.584 299.664C199.689 299.664 201.525 302.34 201.525 306.93C201.525 311.559 199.709 314.195 196.584 314.195ZM196.584 312.633C198.615 312.633 199.807 310.582 199.807 306.93C199.807 303.277 198.615 301.188 196.584 301.188C194.553 301.188 193.342 303.277 193.342 306.93C193.342 310.582 194.533 312.633 196.584 312.633ZM208.166 298.863C210.764 298.883 212.658 300.445 212.658 302.711C212.658 304.977 210.764 306.539 208.166 306.539C205.529 306.539 203.654 304.977 203.654 302.711C203.654 300.445 205.529 298.883 208.166 298.863ZM208.166 300.152C206.428 300.152 205.139 301.207 205.158 302.711C205.139 304.234 206.428 305.289 208.166 305.289C209.885 305.289 211.174 304.234 211.174 302.711C211.174 301.207 209.885 300.152 208.166 300.152ZM217.58 298.219V307.145H216.057V298.219H217.58ZM217.58 307.984V312.164H207.834V314.117H218.205V315.348H206.33V311.012H216.057V309.215H206.291V307.984H217.58ZM221.604 308.609C221.623 304.918 222.619 301.852 224.416 299.254H225.9C224.572 301.188 223.342 305.133 223.342 308.609C223.342 312.086 224.572 316.051 225.9 317.984H224.416C222.619 315.367 221.623 312.301 221.604 308.609ZM241.662 298.238V308.473H240.119V307.516H236.604V306.5H240.119V298.238H241.662ZM227.287 304.781C230.646 304.801 234.943 304.762 238.693 304.352L238.791 305.348C237.092 305.592 235.324 305.738 233.596 305.816V308.531H232.092V305.875C230.451 305.934 228.879 305.943 227.463 305.934L227.287 304.781ZM241.662 309.098V312.691H231.525V314.254H242.229V315.387H230.021V311.617H240.139V310.211H229.943V309.098H241.662ZM232.951 298.57C235.529 298.57 237.248 299.586 237.268 301.188C237.248 302.809 235.529 303.785 232.951 303.785C230.334 303.785 228.635 302.809 228.635 301.188C228.635 299.586 230.334 298.57 232.951 298.57ZM232.951 299.645C231.193 299.645 230.061 300.25 230.08 301.188C230.061 302.105 231.193 302.73 232.951 302.73C234.689 302.73 235.822 302.105 235.822 301.188C235.822 300.25 234.689 299.645 232.951 299.645ZM248.967 308.609C248.947 312.301 247.951 315.367 246.154 317.984H244.67C245.998 316.051 247.229 312.086 247.229 308.609C247.229 305.133 245.998 301.188 244.67 299.254H246.154C247.951 301.852 248.947 304.918 248.967 308.609ZM63.3027 332.199C63.9277 331.477 64.709 331.086 65.5684 331.086C67.0527 331.086 68.4004 332.219 69.8262 332.219C70.7051 332.219 71.4668 331.789 72.0527 330.988V332.609C71.4082 333.352 70.6465 333.723 69.7871 333.723C68.3027 333.723 66.9551 332.59 65.5098 332.59C64.6504 332.59 63.8887 333.02 63.3027 333.82V332.199ZM80.2949 338L80.2754 336.711L85.0996 331.633C86.7793 329.855 87.5801 328.898 87.5801 327.59C87.5801 326.145 86.3496 325.188 84.7676 325.188C83.0879 325.188 82.0137 326.262 82.0137 327.844H80.3535C80.334 325.344 82.2676 323.664 84.8262 323.664C87.3848 323.664 89.2207 325.383 89.2207 327.59C89.2207 329.172 88.4785 330.402 85.9785 332.98L82.7363 336.32V336.438H89.4746V338H80.2949ZM96.6621 338.195C93.5176 338.195 91.7207 335.559 91.7207 330.93C91.7207 326.34 93.5566 323.664 96.6621 323.664C99.7676 323.664 101.604 326.34 101.604 330.93C101.604 335.559 99.7871 338.195 96.6621 338.195ZM96.6621 336.633C98.6934 336.633 99.8848 334.582 99.8848 330.93C99.8848 327.277 98.6934 325.188 96.6621 325.188C94.6309 325.188 93.4199 327.277 93.4199 330.93C93.4199 334.582 94.6113 336.633 96.6621 336.633ZM103.947 338L103.928 336.711L108.752 331.633C110.432 329.855 111.232 328.898 111.232 327.59C111.232 326.145 110.002 325.188 108.42 325.188C106.74 325.188 105.666 326.262 105.666 327.844H104.006C103.986 325.344 105.92 323.664 108.479 323.664C111.037 323.664 112.873 325.383 112.873 327.59C112.873 329.172 112.131 330.402 109.631 332.98L106.389 336.32V336.438H113.127V338H103.947ZM120.568 338.195C117.756 338.195 115.744 336.691 115.646 334.445H117.424C117.521 335.793 118.869 336.633 120.549 336.633C122.404 336.633 123.771 335.617 123.771 334.152C123.771 332.609 122.541 331.516 120.334 331.516H119.182V329.973H120.334C122.053 329.973 123.244 329.016 123.244 327.551C123.244 326.145 122.209 325.188 120.607 325.188C119.104 325.188 117.717 326.027 117.639 327.414H115.939C116.037 325.168 118.107 323.664 120.627 323.664C123.322 323.664 124.963 325.422 124.943 327.453C124.963 329.055 124.025 330.246 122.541 330.656V330.754C124.377 331.047 125.51 332.355 125.49 334.152C125.51 336.477 123.381 338.195 120.568 338.195ZM141.799 322.238V335.09H140.256V329.074H135.256V327.844H140.256V325.754H135.256V324.523H140.256V322.238H141.799ZM142.268 337.922V339.211H130.607V333.996H132.15V337.922H142.268ZM129.982 323.488V331.203C132.375 331.193 134.68 331.066 137.326 330.578L137.482 331.848C134.65 332.375 132.287 332.492 129.748 332.512H128.439V323.488H129.982ZM155.334 323.859V338H153.557V325.695H153.479L150.041 327.98V326.203L153.557 323.859H155.334ZM164.104 323.859V338H162.326V325.695H162.248L158.811 327.98V326.203L162.326 323.859H164.104ZM181.564 322.238V332.473H180.021V331.516H176.506V330.5H180.021V322.238H181.564ZM167.189 328.781C170.549 328.801 174.846 328.762 178.596 328.352L178.693 329.348C176.994 329.592 175.227 329.738 173.498 329.816V332.531H171.994V329.875C170.354 329.934 168.781 329.943 167.365 329.934L167.189 328.781ZM181.564 333.098V336.691H171.428V338.254H182.131V339.387H169.924V335.617H180.041V334.211H169.846V333.098H181.564ZM172.854 322.57C175.432 322.57 177.15 323.586 177.17 325.188C177.15 326.809 175.432 327.785 172.854 327.785C170.236 327.785 168.537 326.809 168.537 325.188C168.537 323.586 170.236 322.57 172.854 322.57ZM172.854 323.645C171.096 323.645 169.963 324.25 169.982 325.188C169.963 326.105 171.096 326.73 172.854 326.73C174.592 326.73 175.725 326.105 175.725 325.188C175.725 324.25 174.592 323.645 172.854 323.645ZM195.178 323.859V338H193.4V325.695H193.322L189.885 327.98V326.203L193.4 323.859H195.178ZM203.947 323.859V338H202.17V325.695H202.092L198.654 327.98V326.203L202.17 323.859H203.947ZM212.014 322.863C214.611 322.883 216.506 324.445 216.506 326.711C216.506 328.977 214.611 330.539 212.014 330.539C209.377 330.539 207.502 328.977 207.502 326.711C207.502 324.445 209.377 322.883 212.014 322.863ZM212.014 324.152C210.275 324.152 208.986 325.207 209.006 326.711C208.986 328.234 210.275 329.289 212.014 329.289C213.732 329.289 215.021 328.234 215.021 326.711C215.021 325.207 213.732 324.152 212.014 324.152ZM221.428 322.219V331.145H219.904V322.219H221.428ZM221.428 331.984V336.164H211.682V338.117H222.053V339.348H210.178V335.012H219.904V333.215H210.139V331.984H221.428ZM225.451 332.609C225.471 328.918 226.467 325.852 228.264 323.254H229.748C228.42 325.188 227.189 329.133 227.189 332.609C227.189 336.086 228.42 340.051 229.748 341.984H228.264C226.467 339.367 225.471 336.301 225.451 332.609ZM245.256 331.262V332.512H239.865V336.145H247.092V337.414H231.193V336.145H238.342V332.512H233.244V323.645H245.061V324.914H234.807V327.395H244.689V328.645H234.807V331.262H245.256ZM252.814 332.609C252.795 336.301 251.799 339.367 250.002 341.984H248.518C249.846 340.051 251.076 336.086 251.076 332.609C251.076 329.133 249.846 325.188 248.518 323.254H250.002C251.799 325.852 252.795 328.918 252.814 332.609Z" fill="white"/>
<path d="M365.328 314L365.309 312.711L370.133 307.633C371.812 305.855 372.613 304.898 372.613 303.59C372.613 302.145 371.383 301.188 369.801 301.188C368.121 301.188 367.047 302.262 367.047 303.844H365.387C365.367 301.344 367.301 299.664 369.859 299.664C372.418 299.664 374.254 301.383 374.254 303.59C374.254 305.172 373.512 306.402 371.012 308.98L367.77 312.32V312.438H374.508V314H365.328ZM381.695 314.195C378.551 314.195 376.754 311.559 376.754 306.93C376.754 302.34 378.59 299.664 381.695 299.664C384.801 299.664 386.637 302.34 386.637 306.93C386.637 311.559 384.82 314.195 381.695 314.195ZM381.695 312.633C383.727 312.633 384.918 310.582 384.918 306.93C384.918 303.277 383.727 301.188 381.695 301.188C379.664 301.188 378.453 303.277 378.453 306.93C378.453 310.582 379.645 312.633 381.695 312.633ZM388.98 314L388.961 312.711L393.785 307.633C395.465 305.855 396.266 304.898 396.266 303.59C396.266 302.145 395.035 301.188 393.453 301.188C391.773 301.188 390.699 302.262 390.699 303.844H389.039C389.02 301.344 390.953 299.664 393.512 299.664C396.07 299.664 397.906 301.383 397.906 303.59C397.906 305.172 397.164 306.402 394.664 308.98L391.422 312.32V312.438H398.16V314H388.98ZM405.602 314.195C402.789 314.195 400.777 312.691 400.68 310.445H402.457C402.555 311.793 403.902 312.633 405.582 312.633C407.438 312.633 408.805 311.617 408.805 310.152C408.805 308.609 407.574 307.516 405.367 307.516H404.215V305.973H405.367C407.086 305.973 408.277 305.016 408.277 303.551C408.277 302.145 407.242 301.188 405.641 301.188C404.137 301.188 402.75 302.027 402.672 303.414H400.973C401.07 301.168 403.141 299.664 405.66 299.664C408.355 299.664 409.996 301.422 409.977 303.453C409.996 305.055 409.059 306.246 407.574 306.656V306.754C409.41 307.047 410.543 308.355 410.523 310.152C410.543 312.477 408.414 314.195 405.602 314.195ZM426.832 298.238V311.09H425.289V305.074H420.289V303.844H425.289V301.754H420.289V300.523H425.289V298.238H426.832ZM427.301 313.922V315.211H415.641V309.996H417.184V313.922H427.301ZM415.016 299.488V307.203C417.408 307.193 419.713 307.066 422.359 306.578L422.516 307.848C419.684 308.375 417.32 308.492 414.781 308.512H413.473V299.488H415.016ZM440.367 299.859V314H438.59V301.695H438.512L435.074 303.98V302.203L438.59 299.859H440.367ZM449.137 299.859V314H447.359V301.695H447.281L443.844 303.98V302.203L447.359 299.859H449.137ZM466.598 298.238V308.473H465.055V307.516H461.539V306.5H465.055V298.238H466.598ZM452.223 304.781C455.582 304.801 459.879 304.762 463.629 304.352L463.727 305.348C462.027 305.592 460.26 305.738 458.531 305.816V308.531H457.027V305.875C455.387 305.934 453.814 305.943 452.398 305.934L452.223 304.781ZM466.598 309.098V312.691H456.461V314.254H467.164V315.387H454.957V311.617H465.074V310.211H454.879V309.098H466.598ZM457.887 298.57C460.465 298.57 462.184 299.586 462.203 301.188C462.184 302.809 460.465 303.785 457.887 303.785C455.27 303.785 453.57 302.809 453.57 301.188C453.57 299.586 455.27 298.57 457.887 298.57ZM457.887 299.645C456.129 299.645 454.996 300.25 455.016 301.188C454.996 302.105 456.129 302.73 457.887 302.73C459.625 302.73 460.758 302.105 460.758 301.188C460.758 300.25 459.625 299.645 457.887 299.645ZM480.211 299.859V314H478.434V301.695H478.355L474.918 303.98V302.203L478.434 299.859H480.211ZM483.98 314L483.961 312.711L488.785 307.633C490.465 305.855 491.266 304.898 491.266 303.59C491.266 302.145 490.035 301.188 488.453 301.188C486.773 301.188 485.699 302.262 485.699 303.844H484.039C484.02 301.344 485.953 299.664 488.512 299.664C491.07 299.664 492.906 301.383 492.906 303.59C492.906 305.172 492.164 306.402 489.664 308.98L486.422 312.32V312.438H493.16V314H483.98ZM500.016 298.863C502.613 298.883 504.508 300.445 504.508 302.711C504.508 304.977 502.613 306.539 500.016 306.539C497.379 306.539 495.504 304.977 495.504 302.711C495.504 300.445 497.379 298.883 500.016 298.863ZM500.016 300.152C498.277 300.152 496.988 301.207 497.008 302.711C496.988 304.234 498.277 305.289 500.016 305.289C501.734 305.289 503.023 304.234 503.023 302.711C503.023 301.207 501.734 300.152 500.016 300.152ZM509.43 298.219V307.145H507.906V298.219H509.43ZM509.43 307.984V312.164H499.684V314.117H510.055V315.348H498.18V311.012H507.906V309.215H498.141V307.984H509.43ZM513.453 308.609C513.473 304.918 514.469 301.852 516.266 299.254H517.75C516.422 301.188 515.191 305.133 515.191 308.609C515.191 312.086 516.422 316.051 517.75 317.984H516.266C514.469 315.367 513.473 312.301 513.453 308.609ZM524.117 298.863C526.715 298.883 528.609 300.445 528.609 302.711C528.609 304.977 526.715 306.539 524.117 306.539C521.48 306.539 519.605 304.977 519.605 302.711C519.605 300.445 521.48 298.883 524.117 298.863ZM524.117 300.152C522.379 300.152 521.09 301.207 521.109 302.711C521.09 304.234 522.379 305.289 524.117 305.289C525.836 305.289 527.125 304.234 527.125 302.711C527.125 301.207 525.836 300.152 524.117 300.152ZM533.531 298.219V307.145H532.008V298.219H533.531ZM533.531 307.984V312.164H523.785V314.117H534.156V315.348H522.281V311.012H532.008V309.215H522.242V307.984H533.531ZM540.816 308.609C540.797 312.301 539.801 315.367 538.004 317.984H536.52C537.848 316.051 539.078 312.086 539.078 308.609C539.078 305.133 537.848 301.188 536.52 299.254H538.004C539.801 301.852 540.797 304.918 540.816 308.609Z" fill="white"/>
<path d="M967.328 314L967.309 312.711L972.133 307.633C973.812 305.855 974.613 304.898 974.613 303.59C974.613 302.145 973.383 301.188 971.801 301.188C970.121 301.188 969.047 302.262 969.047 303.844H967.387C967.367 301.344 969.301 299.664 971.859 299.664C974.418 299.664 976.254 301.383 976.254 303.59C976.254 305.172 975.512 306.402 973.012 308.98L969.77 312.32V312.438H976.508V314H967.328ZM983.695 314.195C980.551 314.195 978.754 311.559 978.754 306.93C978.754 302.34 980.59 299.664 983.695 299.664C986.801 299.664 988.637 302.34 988.637 306.93C988.637 311.559 986.82 314.195 983.695 314.195ZM983.695 312.633C985.727 312.633 986.918 310.582 986.918 306.93C986.918 303.277 985.727 301.188 983.695 301.188C981.664 301.188 980.453 303.277 980.453 306.93C980.453 310.582 981.645 312.633 983.695 312.633ZM990.98 314L990.961 312.711L995.785 307.633C997.465 305.855 998.266 304.898 998.266 303.59C998.266 302.145 997.035 301.188 995.453 301.188C993.773 301.188 992.699 302.262 992.699 303.844H991.039C991.02 301.344 992.953 299.664 995.512 299.664C998.07 299.664 999.906 301.383 999.906 303.59C999.906 305.172 999.164 306.402 996.664 308.98L993.422 312.32V312.438H1000.16V314H990.98ZM1007.6 314.195C1004.79 314.195 1002.78 312.691 1002.68 310.445H1004.46C1004.55 311.793 1005.9 312.633 1007.58 312.633C1009.44 312.633 1010.8 311.617 1010.8 310.152C1010.8 308.609 1009.57 307.516 1007.37 307.516H1006.21V305.973H1007.37C1009.09 305.973 1010.28 305.016 1010.28 303.551C1010.28 302.145 1009.24 301.188 1007.64 301.188C1006.14 301.188 1004.75 302.027 1004.67 303.414H1002.97C1003.07 301.168 1005.14 299.664 1007.66 299.664C1010.36 299.664 1012 301.422 1011.98 303.453C1012 305.055 1011.06 306.246 1009.57 306.656V306.754C1011.41 307.047 1012.54 308.355 1012.52 310.152C1012.54 312.477 1010.41 314.195 1007.6 314.195ZM1028.83 298.238V311.09H1027.29V305.074H1022.29V303.844H1027.29V301.754H1022.29V300.523H1027.29V298.238H1028.83ZM1029.3 313.922V315.211H1017.64V309.996H1019.18V313.922H1029.3ZM1017.02 299.488V307.203C1019.41 307.193 1021.71 307.066 1024.36 306.578L1024.52 307.848C1021.68 308.375 1019.32 308.492 1016.78 308.512H1015.47V299.488H1017.02ZM1042.37 299.859V314H1040.59V301.695H1040.51L1037.07 303.98V302.203L1040.59 299.859H1042.37ZM1051.14 299.859V314H1049.36V301.695H1049.28L1045.84 303.98V302.203L1049.36 299.859H1051.14ZM1068.6 298.238V308.473H1067.05V307.516H1063.54V306.5H1067.05V298.238H1068.6ZM1054.22 304.781C1057.58 304.801 1061.88 304.762 1065.63 304.352L1065.73 305.348C1064.03 305.592 1062.26 305.738 1060.53 305.816V308.531H1059.03V305.875C1057.39 305.934 1055.81 305.943 1054.4 305.934L1054.22 304.781ZM1068.6 309.098V312.691H1058.46V314.254H1069.16V315.387H1056.96V311.617H1067.07V310.211H1056.88V309.098H1068.6ZM1059.89 298.57C1062.46 298.57 1064.18 299.586 1064.2 301.188C1064.18 302.809 1062.46 303.785 1059.89 303.785C1057.27 303.785 1055.57 302.809 1055.57 301.188C1055.57 299.586 1057.27 298.57 1059.89 298.57ZM1059.89 299.645C1058.13 299.645 1057 300.25 1057.02 301.188C1057 302.105 1058.13 302.73 1059.89 302.73C1061.62 302.73 1062.76 302.105 1062.76 301.188C1062.76 300.25 1061.62 299.645 1059.89 299.645ZM1082.21 299.859V314H1080.43V301.695H1080.36L1076.92 303.98V302.203L1080.43 299.859H1082.21ZM1090.69 299.664C1093.13 299.684 1095.82 301.148 1095.82 306.363C1095.82 311.383 1093.77 314.195 1090.45 314.195C1087.97 314.195 1086.21 312.672 1085.86 310.426H1087.6C1087.91 311.695 1088.87 312.633 1090.45 312.633C1092.76 312.633 1094.16 310.641 1094.18 307.203H1093.99C1093.17 308.375 1091.88 309.078 1090.38 309.078C1087.84 309.078 1085.75 307.145 1085.75 304.41C1085.75 301.773 1087.68 299.645 1090.69 299.664ZM1090.69 301.207C1088.83 301.207 1087.45 302.652 1087.46 304.391C1087.46 306.148 1088.77 307.535 1090.63 307.535C1092.46 307.535 1093.91 306.012 1093.91 304.352C1093.91 302.73 1092.56 301.207 1090.69 301.207ZM1102.54 298.863C1105.14 298.883 1107.04 300.445 1107.04 302.711C1107.04 304.977 1105.14 306.539 1102.54 306.539C1099.91 306.539 1098.03 304.977 1098.03 302.711C1098.03 300.445 1099.91 298.883 1102.54 298.863ZM1102.54 300.152C1100.8 300.152 1099.52 301.207 1099.54 302.711C1099.52 304.234 1100.8 305.289 1102.54 305.289C1104.26 305.289 1105.55 304.234 1105.55 302.711C1105.55 301.207 1104.26 300.152 1102.54 300.152ZM1111.96 298.219V307.145H1110.43V298.219H1111.96ZM1111.96 307.984V312.164H1102.21V314.117H1112.58V315.348H1100.71V311.012H1110.43V309.215H1100.67V307.984H1111.96ZM1121 308.609C1121.02 304.918 1122.02 301.852 1123.81 299.254H1125.3C1123.97 301.188 1122.74 305.133 1122.74 308.609C1122.74 312.086 1123.97 316.051 1125.3 317.984H1123.81C1122.02 315.367 1121.02 312.301 1121 308.609ZM1131.66 298.863C1134.26 298.883 1136.16 300.445 1136.16 302.711C1136.16 304.977 1134.26 306.539 1131.66 306.539C1129.03 306.539 1127.15 304.977 1127.15 302.711C1127.15 300.445 1129.03 298.883 1131.66 298.863ZM1131.66 300.152C1129.93 300.152 1128.64 301.207 1128.66 302.711C1128.64 304.234 1129.93 305.289 1131.66 305.289C1133.38 305.289 1134.67 304.234 1134.67 302.711C1134.67 301.207 1133.38 300.152 1131.66 300.152ZM1141.08 298.219V307.145H1139.55V298.219H1141.08ZM1141.08 307.984V312.164H1131.33V314.117H1141.7V315.348H1129.83V311.012H1139.55V309.215H1129.79V307.984H1141.08ZM1148.36 308.609C1148.34 312.301 1147.35 315.367 1145.55 317.984H1144.07C1145.39 316.051 1146.62 312.086 1146.62 308.609C1146.62 305.133 1145.39 301.188 1144.07 299.254H1145.55C1147.35 301.852 1148.34 304.918 1148.36 308.609Z" fill="white"/>
<path d="M305.249 329C283.12 388.562 225.766 431 158.5 431C72.0674 431 2 360.933 2 274.5C2 188.067 72.0674 118 158.5 118C225.766 118 283.12 160.438 305.249 220H306.316C284.14 159.874 226.327 117 158.5 117C71.5152 117 1 187.515 1 274.5C1 361.485 71.5152 432 158.5 432C226.327 432 284.14 389.126 306.316 329H305.249Z" fill="white"/>
<path d="M600.249 329C578.12 388.562 520.766 431 453.5 431C386.234 431 328.88 388.562 306.751 329H305.684C327.86 389.126 385.673 432 453.5 432C521.327 432 579.14 389.126 601.316 329H600.249Z" fill="white"/>
<path d="M601.316 220C579.14 159.874 521.327 117 453.5 117C385.673 117 327.86 159.874 305.684 220H306.751C328.88 160.438 386.234 118 453.5 118C520.766 118 578.12 160.438 600.249 220H601.316Z" fill="white"/>
<path d="M1200 274.5C1200 360.933 1129.93 431 1043.5 431C976.234 431 918.88 388.562 896.751 329H895.684C917.86 389.126 975.673 432 1043.5 432C1130.48 432 1201 361.485 1201 274.5C1201 187.515 1130.48 117 1043.5 117C975.673 117 917.86 159.874 895.684 220H896.751C918.88 160.438 976.234 118 1043.5 118C1129.93 118 1200 188.067 1200 274.5Z" fill="white"/>
<path d="M895.249 329C873.12 388.562 815.766 431 748.5 431C681.234 431 623.88 388.562 601.751 329H600.684C622.86 389.126 680.673 432 748.5 432C816.327 432 874.14 389.126 896.316 329H895.249Z" fill="white"/>
<path d="M896.316 220C874.14 159.874 816.327 117 748.5 117C680.673 117 622.86 159.874 600.684 220H601.751C623.88 160.438 681.234 118 748.5 118C815.766 118 873.12 160.438 895.249 220H896.316Z" fill="white"/>
<path d="M111.594 220.875C111.604 222.708 111.859 224.458 112.359 226.125C112.859 227.792 113.625 229.271 114.656 230.562C115.698 231.844 116.979 232.812 118.5 233.469L116.062 236.656C114.521 235.906 113.208 234.859 112.125 233.516C111.052 232.161 110.208 230.578 109.594 228.766C108.958 230.703 108.083 232.396 106.969 233.844C105.854 235.281 104.51 236.385 102.938 237.156L100.438 233.906C102 233.198 103.312 232.167 104.375 230.812C105.448 229.458 106.245 227.927 106.766 226.219C107.286 224.5 107.552 222.719 107.562 220.875V216.625H111.594V220.875ZM115.312 223.375H120.906V214.438H124.844V242.938H120.906V226.594H115.312V223.375ZM154.5 234.25H148.5V242.875H144.469V234.25H138.531V242.875H134.562V234.25H128.469V231.125H154.5V234.25ZM131.469 215.281H151.5V223.562H135.594V225.875H152.156V229.062H131.562V220.656H147.406V218.531H131.469V215.281ZM187.5 230H183.531V224.062H179.031V220.812H183.531V214.438H187.5V230ZM163.375 227.375C164.812 226.896 166.031 226.224 167.031 225.359C168.031 224.484 168.792 223.5 169.312 222.406C169.833 221.312 170.13 220.167 170.203 218.969H164.5V215.719H179.938V218.969H174.297C174.359 220.062 174.635 221.125 175.125 222.156C175.625 223.177 176.354 224.099 177.312 224.922C178.271 225.745 179.438 226.385 180.812 226.844L178.844 229.906C177.312 229.406 175.995 228.672 174.891 227.703C173.797 226.734 172.932 225.594 172.297 224.281C171.641 225.75 170.734 227.021 169.578 228.094C168.432 229.167 167.042 229.969 165.406 230.5L163.375 227.375ZM168.531 231.094H172.469V233.781H183.531V231.094H187.5V242.562H168.531V231.094ZM183.531 239.375V236.844H172.469V239.375H183.531ZM206.281 216.656C206.271 217.812 206.651 218.948 207.422 220.062C208.203 221.167 209.344 222.125 210.844 222.938C212.344 223.74 214.135 224.271 216.219 224.531L214.656 227.75C212.219 227.396 210.099 226.688 208.297 225.625C206.505 224.552 205.135 223.229 204.188 221.656C203.229 223.229 201.854 224.552 200.062 225.625C198.281 226.688 196.188 227.396 193.781 227.75L192.188 224.531C194.25 224.271 196.026 223.74 197.516 222.938C199.016 222.125 200.151 221.167 200.922 220.062C201.693 218.948 202.083 217.812 202.094 216.656V215.281H206.281V216.656ZM191.188 229.906H217.125V233.156H206.062V242.875H202.125V233.156H191.188V229.906Z" fill="white"/>
<path d="M378.531 218.906H383.844V214.469H387.812V235.156H383.844V228.188H378.531V230.594H365.031V216.75H378.531V218.906ZM368.875 233.188H372.906V239.188H388.406V242.375H368.875V233.188ZM374.625 227.5V219.906H369V227.5H374.625ZM383.844 225.031V222.125H378.531V225.031H383.844ZM415.469 230H411.5V224.062H407V220.812H411.5V214.438H415.469V230ZM391.344 227.375C392.781 226.896 394 226.224 395 225.359C396 224.484 396.76 223.5 397.281 222.406C397.802 221.312 398.099 220.167 398.172 218.969H392.469V215.719H407.906V218.969H402.266C402.328 220.062 402.604 221.125 403.094 222.156C403.594 223.177 404.323 224.099 405.281 224.922C406.24 225.745 407.406 226.385 408.781 226.844L406.812 229.906C405.281 229.406 403.964 228.672 402.859 227.703C401.766 226.734 400.901 225.594 400.266 224.281C399.609 225.75 398.703 227.021 397.547 228.094C396.401 229.167 395.01 229.969 393.375 230.5L391.344 227.375ZM396.5 231.094H400.438V233.781H411.5V231.094H415.469V242.562H396.5V231.094ZM411.5 239.375V236.844H400.438V239.375H411.5ZM434.625 215.281C436.052 215.281 437.344 215.557 438.5 216.109C439.656 216.661 440.562 217.432 441.219 218.422C441.885 219.411 442.219 220.531 442.219 221.781C442.219 223.021 441.885 224.13 441.219 225.109C440.562 226.089 439.656 226.859 438.5 227.422C437.344 227.974 436.052 228.25 434.625 228.25C433.177 228.25 431.87 227.974 430.703 227.422C429.536 226.859 428.62 226.089 427.953 225.109C427.297 224.13 426.969 223.021 426.969 221.781C426.969 220.531 427.297 219.411 427.953 218.422C428.62 217.432 429.536 216.661 430.703 216.109C431.87 215.557 433.177 215.281 434.625 215.281ZM430.844 221.781C430.833 222.448 430.99 223.026 431.312 223.516C431.635 223.995 432.083 224.365 432.656 224.625C433.229 224.885 433.885 225.021 434.625 225.031C435.344 225.021 435.984 224.885 436.547 224.625C437.12 224.365 437.568 223.995 437.891 223.516C438.214 223.026 438.375 222.448 438.375 221.781C438.375 221.115 438.214 220.536 437.891 220.047C437.568 219.557 437.12 219.182 436.547 218.922C435.984 218.661 435.344 218.531 434.625 218.531C433.896 218.531 433.24 218.661 432.656 218.922C432.083 219.182 431.635 219.557 431.312 220.047C430.99 220.536 430.833 221.115 430.844 221.781ZM431.25 229.875H450.344V237.594H435.219V239.438H451.125V242.562H431.312V234.688H446.375V232.938H431.25V229.875ZM446.344 214.438H450.344V228.688H446.344V214.438ZM478.156 231.312H474.188V224.594H469.75V221.375H474.188V214.438H478.156V231.312ZM454 228.188C455.49 227.688 456.745 226.974 457.766 226.047C458.786 225.12 459.552 224.078 460.062 222.922C460.573 221.766 460.844 220.573 460.875 219.344H455.156V216.156H470.594V219.344H464.938C464.969 220.49 465.224 221.594 465.703 222.656C466.182 223.708 466.906 224.656 467.875 225.5C468.854 226.344 470.052 227 471.469 227.469L469.5 230.594C467.979 230.104 466.667 229.375 465.562 228.406C464.469 227.427 463.604 226.281 462.969 224.969C462.323 226.458 461.422 227.755 460.266 228.859C459.109 229.953 457.708 230.781 456.062 231.344L454 228.188ZM458.656 237.438C458.656 236.302 459.047 235.323 459.828 234.5C460.62 233.667 461.75 233.031 463.219 232.594C464.688 232.156 466.427 231.938 468.438 231.938C470.458 231.938 472.203 232.156 473.672 232.594C475.141 233.031 476.271 233.661 477.062 234.484C477.854 235.307 478.25 236.292 478.25 237.438C478.25 238.583 477.854 239.562 477.062 240.375C476.271 241.198 475.141 241.823 473.672 242.25C472.203 242.688 470.458 242.906 468.438 242.906C466.427 242.906 464.688 242.688 463.219 242.25C461.75 241.823 460.62 241.198 459.828 240.375C459.047 239.552 458.656 238.573 458.656 237.438ZM462.625 237.438C462.625 238.24 463.12 238.849 464.109 239.266C465.099 239.672 466.542 239.875 468.438 239.875C470.344 239.875 471.792 239.672 472.781 239.266C473.771 238.859 474.271 238.25 474.281 237.438C474.271 236.635 473.776 236.031 472.797 235.625C471.828 235.208 470.411 235 468.547 235C464.599 235 462.625 235.812 462.625 237.438ZM511.781 222.594H515.625V225.906H511.781V235.156H507.781V214.438H511.781V222.594ZM489.406 223.5C489.406 222.115 489.75 220.875 490.438 219.781C491.125 218.677 492.062 217.818 493.25 217.203C494.448 216.589 495.771 216.281 497.219 216.281C498.656 216.281 499.964 216.589 501.141 217.203C502.328 217.818 503.26 218.677 503.938 219.781C504.625 220.875 504.969 222.115 504.969 223.5C504.969 224.865 504.625 226.099 503.938 227.203C503.26 228.297 502.328 229.156 501.141 229.781C499.964 230.406 498.656 230.719 497.219 230.719C495.771 230.719 494.448 230.406 493.25 229.781C492.062 229.156 491.125 228.297 490.438 227.203C489.75 226.099 489.406 224.865 489.406 223.5ZM493.344 232.969H497.312V239.188H512.812V242.375H493.344V232.969ZM493.344 223.5C493.333 224.25 493.495 224.911 493.828 225.484C494.172 226.047 494.641 226.484 495.234 226.797C495.828 227.099 496.49 227.25 497.219 227.25C497.948 227.25 498.604 227.099 499.188 226.797C499.781 226.484 500.245 226.047 500.578 225.484C500.922 224.911 501.094 224.25 501.094 223.5C501.094 222.729 500.922 222.062 500.578 221.5C500.245 220.927 499.781 220.49 499.188 220.188C498.604 219.885 497.948 219.74 497.219 219.75C496.49 219.74 495.828 219.885 495.234 220.188C494.641 220.49 494.172 220.927 493.828 221.5C493.495 222.062 493.333 222.729 493.344 223.5ZM541.406 242.875H537.562V228.656H534.906V241.5H531.156V214.906H534.906V225.438H537.562V214.438H541.406V242.875ZM518.031 217.594H522.031V232.453C524.698 232.38 527.208 232.115 529.562 231.656L529.969 235.094C526.604 235.677 523.271 235.958 519.969 235.938H518.031V217.594Z" fill="white"/>
<path d="M736.531 218.906H741.844V214.469H745.812V235.156H741.844V228.188H736.531V230.594H723.031V216.75H736.531V218.906ZM726.875 233.188H730.906V239.188H746.406V242.375H726.875V233.188ZM732.625 227.5V219.906H727V227.5H732.625ZM741.844 225.031V222.125H736.531V225.031H741.844ZM773.469 230H769.5V224.062H765V220.812H769.5V214.438H773.469V230ZM749.344 227.375C750.781 226.896 752 226.224 753 225.359C754 224.484 754.76 223.5 755.281 222.406C755.802 221.312 756.099 220.167 756.172 218.969H750.469V215.719H765.906V218.969H760.266C760.328 220.062 760.604 221.125 761.094 222.156C761.594 223.177 762.323 224.099 763.281 224.922C764.24 225.745 765.406 226.385 766.781 226.844L764.812 229.906C763.281 229.406 761.964 228.672 760.859 227.703C759.766 226.734 758.901 225.594 758.266 224.281C757.609 225.75 756.703 227.021 755.547 228.094C754.401 229.167 753.01 229.969 751.375 230.5L749.344 227.375ZM754.5 231.094H758.438V233.781H769.5V231.094H773.469V242.562H754.5V231.094ZM769.5 239.375V236.844H758.438V239.375H769.5Z" fill="white"/>
<path d="M997.25 234.094C999.781 233.938 1002.08 233.708 1004.16 233.406L1004.47 236.312C1001.69 236.844 998.854 237.188 995.969 237.344C993.094 237.5 989.917 237.583 986.438 237.594L985.969 234.375C988.719 234.375 991.156 234.344 993.281 234.281V229.812H997.25V234.094ZM986.531 227.688C988.594 227.135 990.182 226.266 991.297 225.078C992.422 223.88 993.052 222.521 993.188 221H987.438V217.781H993.281V214.688H997.25V217.781H1003.12V221H997.312C997.406 221.948 997.714 222.844 998.234 223.688C998.755 224.521 999.5 225.26 1000.47 225.906C1001.44 226.552 1002.61 227.042 1004 227.375L1002.19 230.469C1000.56 230.062 999.167 229.427 998 228.562C996.844 227.688 995.932 226.641 995.266 225.422C994.63 226.703 993.734 227.797 992.578 228.703C991.432 229.609 990.042 230.271 988.406 230.688L986.531 227.688ZM1005.78 214.438H1009.75V242.938H1005.78V214.438ZM1028.41 228.031H1039.44V231.25H1013.5V228.031H1024.47V224.625H1028.41V228.031ZM1014.62 223.125C1016.32 222.969 1017.8 222.677 1019.05 222.25C1020.31 221.812 1021.31 221.297 1022.05 220.703C1022.8 220.099 1023.3 219.458 1023.55 218.781H1015.88V215.656H1037.09V218.781H1029.36C1029.6 219.458 1030.09 220.099 1030.84 220.703C1031.59 221.297 1032.6 221.812 1033.86 222.25C1035.12 222.677 1036.6 222.969 1038.31 223.125L1036.91 226.25C1034.28 225.99 1032.07 225.401 1030.28 224.484C1028.49 223.557 1027.21 222.391 1026.44 220.984C1025.67 222.391 1024.39 223.557 1022.61 224.484C1020.84 225.401 1018.65 225.99 1016.03 226.25L1014.62 223.125ZM1016.47 237.844C1016.47 236.771 1016.86 235.859 1017.66 235.109C1018.45 234.359 1019.59 233.792 1021.08 233.406C1022.58 233.01 1024.36 232.812 1026.44 232.812C1028.5 232.812 1030.27 233.01 1031.75 233.406C1033.23 233.792 1034.36 234.359 1035.14 235.109C1035.93 235.859 1036.33 236.771 1036.34 237.844C1036.33 238.917 1035.93 239.828 1035.14 240.578C1034.36 241.339 1033.23 241.911 1031.75 242.297C1030.27 242.682 1028.5 242.875 1026.44 242.875C1024.36 242.875 1022.58 242.682 1021.08 242.297C1019.59 241.911 1018.45 241.339 1017.66 240.578C1016.86 239.828 1016.47 238.917 1016.47 237.844ZM1020.53 237.844C1020.52 238.542 1021.01 239.062 1021.98 239.406C1022.96 239.74 1024.45 239.906 1026.44 239.906C1030.36 239.906 1032.33 239.219 1032.34 237.844C1032.33 236.51 1030.36 235.844 1026.44 235.844C1024.44 235.844 1022.95 236.01 1021.97 236.344C1021 236.667 1020.52 237.167 1020.53 237.844ZM1053.34 219.094H1059.16V215.719H1063.16V228.125H1049.38V215.719H1053.34V219.094ZM1052.22 229.969H1071.09V237.688H1056.19V239.531H1071.91V242.688H1052.28V234.844H1067.12V233.062H1052.22V229.969ZM1059.16 225V222.094H1053.34V225H1059.16ZM1067.09 214.438H1071.09V219.969H1074.94V223.188H1071.09V228.906H1067.09V214.438ZM1102.22 239.719H1076.19V236.531H1082.66V231.125H1078.34V227.906H1082.16V219.906H1078.22V216.719H1100.03V219.906H1096.03V227.906H1099.91V231.125H1095.62V236.531H1102.22V239.719ZM1092.09 227.906V219.906H1086.16V227.906H1092.09ZM1091.62 236.531V231.125H1086.66V236.531H1091.62Z" fill="white"/>
<path d="M1199.71 267.707C1200.1 267.316 1200.1 266.683 1199.71 266.293L1193.34 259.929C1192.95 259.538 1192.32 259.538 1191.93 259.929C1191.54 260.319 1191.54 260.953 1191.93 261.343L1197.59 267L1191.93 272.657C1191.54 273.047 1191.54 273.68 1191.93 274.071C1192.32 274.461 1192.95 274.461 1193.34 274.071L1199.71 267.707ZM2 268L1199 268L1199 266L2 266L2 268Z" fill="url(#paint0_linear_862_164)"/>
<defs>
<linearGradient id="paint0_linear_862_164" x1="1199" y1="267.944" x2="2" y2="267.944" gradientUnits="userSpaceOnUse">
<stop offset="0.3125" stop-color="#FF731D"/>
<stop offset="1" stop-color="white"/>
</linearGradient>
</defs>
</svg>
