<svg width="1201" height="432" viewBox="0 0 1201 432" fill="none" xmlns="http://www.w3.org/2000/svg">
<path d="M0.999984 54.5561L232 45.0559" stroke="#FF731D" stroke-width="6"/>
<path d="M9 40.9999L219.099 58.2308" stroke="#FF731D" stroke-width="6"/>
<path d="M2.69682 1.27461V25.0674H51.3389V1.27461H2.69682ZM20.5134 30.5907H1V39.0881H53.0357V30.5907H33.5223V26.7668H20.5134V30.5907ZM15.7057 9.77202H38.3299V16.5699H15.7057V9.77202Z" fill="white"/>
<path d="M96.0217 22.5181V26.1295H70.5694V22.5181H57.5605V40.3627H109.031V22.5181H96.0217ZM75.9427 11.4715L77.1304 9.77202H90.9312V1.69948H57.5605V9.77202H63.8387L55.8071 21.2435H69.0989L74.359 13.7233L79.3363 21.2435H92.628L86.2367 11.4715H75.9427ZM109.031 0.42487H96.0217V21.2435H109.031V0.42487ZM70.5694 31.8653H96.0217V34.2021H70.5694V31.8653Z" fill="white"/>
<path d="M128.261 34.8394V33.5648H165.591V21.6684H114.121V27.1917H151.451V28.4663H114.121V40.3627H165.591V34.8394H128.261ZM146.926 9.98446C146.926 3.48394 140.987 0 129.675 0C118.363 0 112.424 3.48394 112.424 9.98446C112.424 16.485 118.363 19.9689 129.675 19.9689C140.987 19.9689 146.926 16.485 146.926 9.98446ZM165.591 0.42487H152.582V20.3938H165.591V0.42487ZM129.675 12.7461C125.15 12.7461 123.736 11.7264 123.736 9.98446C123.736 8.24249 125.15 7.2228 129.675 7.2228C134.2 7.2228 135.614 8.24249 135.614 9.98446C135.614 11.7264 134.2 12.7461 129.675 12.7461Z" fill="white"/>
<path d="M222.152 0.42487H209.143V8.07254H204.052V1.69948H170.682V10.1969H177.356L169.55 23.7927H182.842L187.65 15.4653L191.892 23.7927H205.183L199.358 12.3212H189.46L190.647 10.1969H203.487V16.5699H209.143V24.2176H222.152V0.42487ZM223 33.0124C223 27.914 217.118 25.0249 197.265 25.0249C177.412 25.0249 171.53 27.914 171.53 33.0124C171.53 38.1109 177.412 41 197.265 41C217.118 41 223 38.1109 223 33.0124ZM209.991 33.0124C209.991 33.9896 208.69 34.6269 197.265 34.6269C185.84 34.6269 184.539 33.9896 184.539 33.0124C184.539 32.0352 185.84 31.3979 197.265 31.3979C208.69 31.3979 209.991 32.0352 209.991 33.0124Z" fill="white"/>
<path d="M67.1149 314V312.72L71.9149 307.64C73.5949 305.86 74.3949 304.9 74.3949 303.6C74.3949 302.14 73.1749 301.2 71.5949 301.2C69.9149 301.2 68.8549 302.26 68.8349 303.84H67.1949C67.1549 301.34 69.0949 299.66 71.6349 299.68C74.2149 299.66 76.0349 301.38 76.0749 303.6C76.0349 305.18 75.3149 306.4 72.7949 309L69.5549 312.32V312.44H76.3149V314H67.1149ZM83.5127 314.2C80.3727 314.2 78.5527 311.56 78.5527 306.92C78.5527 302.34 80.3927 299.66 83.5127 299.68C86.6127 299.66 88.4527 302.34 88.4327 306.92C88.4527 311.56 86.6327 314.2 83.5127 314.2ZM80.2727 306.92C80.2727 310.58 81.4527 312.64 83.5127 312.64C85.5527 312.64 86.7327 310.58 86.7527 306.92C86.7327 303.26 85.5327 301.2 83.5127 301.2C81.4727 301.2 80.2727 303.26 80.2727 306.92ZM90.7868 314V312.72L95.5868 307.64C97.2668 305.86 98.0668 304.9 98.0668 303.6C98.0668 302.14 96.8468 301.2 95.2668 301.2C93.5868 301.2 92.5268 302.26 92.5068 303.84H90.8668C90.8268 301.34 92.7668 299.66 95.3068 299.68C97.8868 299.66 99.7068 301.38 99.7468 303.6C99.7068 305.18 98.9868 306.4 96.4668 309L93.2268 312.32V312.44H99.9868V314H90.7868ZM107.425 314.2C104.625 314.2 102.605 312.68 102.505 310.44H104.305C104.385 311.8 105.725 312.64 107.425 312.64C109.285 312.64 110.625 311.62 110.625 310.16C110.625 308.62 109.405 307.52 107.185 307.52H106.065V305.96H107.185C108.925 305.98 110.125 305 110.105 303.56C110.125 302.14 109.085 301.2 107.465 301.2C105.965 301.2 104.585 302.02 104.505 303.4H102.825C102.905 301.16 104.985 299.66 107.505 299.68C110.185 299.66 111.825 301.44 111.825 303.48C111.825 305.06 110.885 306.24 109.425 306.64V306.76C111.245 307.04 112.365 308.36 112.345 310.16C112.365 312.48 110.265 314.2 107.425 314.2ZM128.629 298.24V311.08H127.109V305.08H122.109V303.84H127.109V301.76H122.109V300.52H127.109V298.24H128.629ZM115.309 308.52V299.48H116.829V307.2C119.229 307.2 121.509 307.06 124.189 306.56L124.349 307.84C121.509 308.38 119.149 308.48 116.589 308.52H115.309ZM117.469 315.2V310H118.989V313.92H129.109V315.2H117.469ZM142.154 299.84V314H140.394V301.68H140.314L136.874 303.96V302.2L140.394 299.84H142.154ZM150.564 314.2C147.424 314.2 145.604 311.56 145.604 306.92C145.604 302.34 147.444 299.66 150.564 299.68C153.664 299.66 155.504 302.34 155.484 306.92C155.504 311.56 153.684 314.2 150.564 314.2ZM147.324 306.92C147.324 310.58 148.504 312.64 150.564 312.64C152.604 312.64 153.784 310.58 153.804 306.92C153.784 303.26 152.584 301.2 150.564 301.2C148.524 301.2 147.324 303.26 147.324 306.92ZM171.518 298.24V308.48H169.998V307.52H166.478V306.48H169.998V298.24H171.518ZM157.158 304.8C160.518 304.8 164.818 304.76 168.558 304.36L168.678 305.36C166.978 305.6 165.198 305.74 163.478 305.82V308.52H161.958V305.88C160.318 305.92 158.758 305.92 157.358 305.92L157.158 304.8ZM158.518 301.2C158.498 299.58 160.198 298.58 162.838 298.56C165.418 298.58 167.118 299.58 167.158 301.2C167.118 302.82 165.418 303.78 162.838 303.76C160.198 303.78 158.498 302.82 158.518 301.2ZM159.838 310.2V309.08H171.518V312.68H161.398V314.24H172.118V315.4H159.878V311.64H169.998V310.2H159.838ZM159.958 301.2C159.938 302.1 161.078 302.72 162.838 302.72C164.558 302.72 165.698 302.1 165.678 301.2C165.698 300.26 164.558 299.64 162.838 299.64C161.078 299.64 159.938 300.26 159.958 301.2ZM185.003 314.2C182.203 314.2 180.183 312.68 180.083 310.44H181.883C181.963 311.8 183.303 312.64 185.003 312.64C186.863 312.64 188.203 311.62 188.203 310.16C188.203 308.62 186.983 307.52 184.763 307.52H183.643V305.96H184.763C186.503 305.98 187.703 305 187.683 303.56C187.703 302.14 186.663 301.2 185.043 301.2C183.543 301.2 182.163 302.02 182.083 303.4H180.403C180.483 301.16 182.563 299.66 185.083 299.68C187.763 299.66 189.403 301.44 189.403 303.48C189.403 305.06 188.463 306.24 187.003 306.64V306.76C188.823 307.04 189.943 308.36 189.923 310.16C189.943 312.48 187.843 314.2 185.003 314.2ZM197.087 314.2C193.947 314.2 192.127 311.56 192.127 306.92C192.127 302.34 193.967 299.66 197.087 299.68C200.187 299.66 202.027 302.34 202.007 306.92C202.027 311.56 200.207 314.2 197.087 314.2ZM193.847 306.92C193.847 310.58 195.027 312.64 197.087 312.64C199.127 312.64 200.307 310.58 200.327 306.92C200.307 303.26 199.107 301.2 197.087 301.2C195.047 301.2 193.847 303.26 193.847 306.92ZM208.681 298.88C211.261 298.88 213.161 300.46 213.161 302.72C213.161 304.98 211.261 306.54 208.681 306.56C206.041 306.54 204.141 304.98 204.161 302.72C204.141 300.46 206.041 298.88 208.681 298.88ZM205.641 302.72C205.641 304.24 206.921 305.28 208.681 305.28C210.381 305.28 211.681 304.24 211.681 302.72C211.681 301.2 210.381 300.14 208.681 300.16C206.921 300.14 205.641 301.2 205.641 302.72ZM206.801 309.24V307.96H218.081V312.16H208.321V314.12H218.721V315.36H206.841V311H216.561V309.24H206.801ZM216.561 307.12V298.24H218.081V307.12H216.561ZM222.246 308.04C222.246 304.56 223.186 301.66 224.886 299.2H226.366C225.046 301.04 223.986 304.76 224.006 308.04C223.986 311.34 225.046 315.06 226.366 316.88H224.886C223.186 314.42 222.246 311.52 222.246 308.04ZM242.123 298.24V308.48H240.603V307.52H237.083V306.48H240.603V298.24H242.123ZM227.763 304.8C231.123 304.8 235.423 304.76 239.163 304.36L239.283 305.36C237.583 305.6 235.803 305.74 234.083 305.82V308.52H232.563V305.88C230.923 305.92 229.363 305.92 227.963 305.92L227.763 304.8ZM229.123 301.2C229.103 299.58 230.803 298.58 233.443 298.56C236.023 298.58 237.723 299.58 237.763 301.2C237.723 302.82 236.023 303.78 233.443 303.76C230.803 303.78 229.103 302.82 229.123 301.2ZM230.443 310.2V309.08H242.123V312.68H232.003V314.24H242.723V315.4H230.483V311.64H240.603V310.2H230.443ZM230.563 301.2C230.543 302.1 231.683 302.72 233.443 302.72C235.163 302.72 236.303 302.1 236.283 301.2C236.303 300.26 235.163 299.64 233.443 299.64C231.683 299.64 230.543 300.26 230.563 301.2ZM249.288 308.04C249.288 311.52 248.348 314.42 246.648 316.88H245.168C246.488 315.04 247.548 311.32 247.528 308.04C247.548 304.74 246.488 301.02 245.168 299.2H246.648C248.348 301.66 249.288 304.56 249.288 308.04ZM61.8052 333.8C61.7652 331.5 63.1252 330.62 64.5652 330.6C65.4852 330.62 66.1652 331 67.1652 331.88C67.8452 332.44 68.1652 332.66 68.6852 332.68C69.4452 332.66 69.9452 332.08 69.9252 331H71.4452C71.5052 333.3 70.1252 334.2 68.7252 334.2C67.7652 334.2 67.0852 333.82 66.0852 332.92C65.4052 332.36 65.0852 332.12 64.6052 332.12C63.8652 332.12 63.3052 332.62 63.3252 333.8H61.8052ZM79.2438 338V336.72L84.0438 331.64C85.7238 329.86 86.5238 328.9 86.5238 327.6C86.5238 326.14 85.3038 325.2 83.7238 325.2C82.0438 325.2 80.9838 326.26 80.9638 327.84H79.3238C79.2838 325.34 81.2238 323.66 83.7638 323.68C86.3438 323.66 88.1638 325.38 88.2038 327.6C88.1638 329.18 87.4438 330.4 84.9238 333L81.6838 336.32V336.44H88.4438V338H79.2438ZM95.6416 338.2C92.5016 338.2 90.6816 335.56 90.6816 330.92C90.6816 326.34 92.5216 323.66 95.6416 323.68C98.7416 323.66 100.582 326.34 100.562 330.92C100.582 335.56 98.7616 338.2 95.6416 338.2ZM92.4016 330.92C92.4016 334.58 93.5816 336.64 95.6416 336.64C97.6816 336.64 98.8616 334.58 98.8816 330.92C98.8616 327.26 97.6616 325.2 95.6416 325.2C93.6016 325.2 92.4016 327.26 92.4016 330.92ZM102.916 338V336.72L107.716 331.64C109.396 329.86 110.196 328.9 110.196 327.6C110.196 326.14 108.976 325.2 107.396 325.2C105.716 325.2 104.656 326.26 104.636 327.84H102.996C102.956 325.34 104.896 323.66 107.436 323.68C110.016 323.66 111.836 325.38 111.876 327.6C111.836 329.18 111.116 330.4 108.596 333L105.356 336.32V336.44H112.116V338H102.916ZM119.554 338.2C116.754 338.2 114.734 336.68 114.634 334.44H116.434C116.514 335.8 117.854 336.64 119.554 336.64C121.414 336.64 122.754 335.62 122.754 334.16C122.754 332.62 121.534 331.52 119.314 331.52H118.194V329.96H119.314C121.054 329.98 122.254 329 122.234 327.56C122.254 326.14 121.214 325.2 119.594 325.2C118.094 325.2 116.714 326.02 116.634 327.4H114.954C115.034 325.16 117.114 323.66 119.634 323.68C122.314 323.66 123.954 325.44 123.954 327.48C123.954 329.06 123.014 330.24 121.554 330.64V330.76C123.374 331.04 124.494 332.36 124.474 334.16C124.494 336.48 122.394 338.2 119.554 338.2ZM140.758 322.24V335.08H139.238V329.08H134.238V327.84H139.238V325.76H134.238V324.52H139.238V322.24H140.758ZM127.438 332.52V323.48H128.958V331.2C131.358 331.2 133.638 331.06 136.318 330.56L136.478 331.84C133.638 332.38 131.278 332.48 128.718 332.52H127.438ZM129.598 339.2V334H131.118V337.92H141.238V339.2H129.598ZM154.283 323.84V338H152.523V325.68H152.443L149.003 327.96V326.2L152.523 323.84H154.283ZM163.052 323.84V338H161.292V325.68H161.212L157.772 327.96V326.2L161.292 323.84H163.052ZM180.502 322.24V332.48H178.982V331.52H175.462V330.48H178.982V322.24H180.502ZM166.142 328.8C169.502 328.8 173.802 328.76 177.542 328.36L177.662 329.36C175.962 329.6 174.182 329.74 172.462 329.82V332.52H170.942V329.88C169.302 329.92 167.742 329.92 166.342 329.92L166.142 328.8ZM167.502 325.2C167.482 323.58 169.182 322.58 171.822 322.56C174.402 322.58 176.102 323.58 176.142 325.2C176.102 326.82 174.402 327.78 171.822 327.76C169.182 327.78 167.482 326.82 167.502 325.2ZM168.822 334.2V333.08H180.502V336.68H170.382V338.24H181.102V339.4H168.862V335.64H178.982V334.2H168.822ZM168.942 325.2C168.922 326.1 170.062 326.72 171.822 326.72C173.542 326.72 174.682 326.1 174.662 325.2C174.682 324.26 173.542 323.64 171.822 323.64C170.062 323.64 168.922 324.26 168.942 325.2ZM194.107 323.84V338H192.347V325.68H192.267L188.827 327.96V326.2L192.347 323.84H194.107ZM202.517 338.2C199.377 338.2 197.557 335.56 197.557 330.92C197.557 326.34 199.397 323.66 202.517 323.68C205.617 323.66 207.457 326.34 207.437 330.92C207.457 335.56 205.637 338.2 202.517 338.2ZM199.277 330.92C199.277 334.58 200.457 336.64 202.517 336.64C204.557 336.64 205.737 334.58 205.757 330.92C205.737 327.26 204.537 325.2 202.517 325.2C200.477 325.2 199.277 327.26 199.277 330.92ZM214.111 322.88C216.691 322.88 218.591 324.46 218.591 326.72C218.591 328.98 216.691 330.54 214.111 330.56C211.471 330.54 209.571 328.98 209.591 326.72C209.571 324.46 211.471 322.88 214.111 322.88ZM211.071 326.72C211.071 328.24 212.351 329.28 214.111 329.28C215.811 329.28 217.111 328.24 217.111 326.72C217.111 325.2 215.811 324.14 214.111 324.16C212.351 324.14 211.071 325.2 211.071 326.72ZM212.231 333.24V331.96H223.511V336.16H213.751V338.12H224.151V339.36H212.271V335H221.991V333.24H212.231ZM221.991 331.12V322.24H223.511V331.12H221.991ZM227.676 332.04C227.676 328.56 228.616 325.66 230.316 323.2H231.796C230.476 325.04 229.416 328.76 229.436 332.04C229.416 335.34 230.476 339.06 231.796 340.88H230.316C228.616 338.42 227.676 335.52 227.676 332.04ZM247.073 323.16V324.44C247.073 325.78 247.073 327.38 246.593 329.56H249.153V330.8H233.273V329.56H245.033C245.553 327.38 245.553 325.8 245.553 324.44H235.273V323.16H247.073ZM235.233 339.36V333.2H247.153V339.36H235.233ZM236.713 338.08H245.633V334.44H236.713V338.08ZM254.718 332.04C254.718 335.52 253.778 338.42 252.078 340.88H250.598C251.918 339.04 252.978 335.32 252.958 332.04C252.978 328.74 251.918 325.02 250.598 323.2H252.078C253.778 325.66 254.718 328.56 254.718 332.04Z" fill="white"/>
<path d="M365.32 314V312.72L370.12 307.64C371.8 305.86 372.6 304.9 372.6 303.6C372.6 302.14 371.38 301.2 369.8 301.2C368.12 301.2 367.06 302.26 367.04 303.84H365.4C365.36 301.34 367.3 299.66 369.84 299.68C372.42 299.66 374.24 301.38 374.28 303.6C374.24 305.18 373.52 306.4 371 309L367.76 312.32V312.44H374.52V314H365.32ZM381.718 314.2C378.578 314.2 376.758 311.56 376.758 306.92C376.758 302.34 378.598 299.66 381.718 299.68C384.818 299.66 386.658 302.34 386.638 306.92C386.658 311.56 384.838 314.2 381.718 314.2ZM378.478 306.92C378.478 310.58 379.658 312.64 381.718 312.64C383.758 312.64 384.938 310.58 384.958 306.92C384.938 303.26 383.738 301.2 381.718 301.2C379.678 301.2 378.478 303.26 378.478 306.92ZM388.992 314V312.72L393.792 307.64C395.472 305.86 396.272 304.9 396.272 303.6C396.272 302.14 395.052 301.2 393.472 301.2C391.792 301.2 390.732 302.26 390.712 303.84H389.072C389.032 301.34 390.972 299.66 393.512 299.68C396.092 299.66 397.912 301.38 397.952 303.6C397.912 305.18 397.192 306.4 394.672 309L391.432 312.32V312.44H398.192V314H388.992ZM405.63 314.2C402.83 314.2 400.81 312.68 400.71 310.44H402.51C402.59 311.8 403.93 312.64 405.63 312.64C407.49 312.64 408.83 311.62 408.83 310.16C408.83 308.62 407.61 307.52 405.39 307.52H404.27V305.96H405.39C407.13 305.98 408.33 305 408.31 303.56C408.33 302.14 407.29 301.2 405.67 301.2C404.17 301.2 402.79 302.02 402.71 303.4H401.03C401.11 301.16 403.19 299.66 405.71 299.68C408.39 299.66 410.03 301.44 410.03 303.48C410.03 305.06 409.09 306.24 407.63 306.64V306.76C409.45 307.04 410.57 308.36 410.55 310.16C410.57 312.48 408.47 314.2 405.63 314.2ZM426.834 298.24V311.08H425.314V305.08H420.314V303.84H425.314V301.76H420.314V300.52H425.314V298.24H426.834ZM413.514 308.52V299.48H415.034V307.2C417.434 307.2 419.714 307.06 422.394 306.56L422.554 307.84C419.714 308.38 417.354 308.48 414.794 308.52H413.514ZM415.674 315.2V310H417.194V313.92H427.314V315.2H415.674ZM440.359 299.84V314H438.599V301.68H438.519L435.079 303.96V302.2L438.599 299.84H440.359ZM449.129 299.84V314H447.369V301.68H447.289L443.849 303.96V302.2L447.369 299.84H449.129ZM466.578 298.24V308.48H465.058V307.52H461.538V306.48H465.058V298.24H466.578ZM452.218 304.8C455.578 304.8 459.878 304.76 463.618 304.36L463.738 305.36C462.038 305.6 460.258 305.74 458.538 305.82V308.52H457.018V305.88C455.378 305.92 453.818 305.92 452.418 305.92L452.218 304.8ZM453.578 301.2C453.558 299.58 455.258 298.58 457.898 298.56C460.478 298.58 462.178 299.58 462.218 301.2C462.178 302.82 460.478 303.78 457.898 303.76C455.258 303.78 453.558 302.82 453.578 301.2ZM454.898 310.2V309.08H466.578V312.68H456.458V314.24H467.178V315.4H454.938V311.64H465.058V310.2H454.898ZM455.018 301.2C454.998 302.1 456.138 302.72 457.898 302.72C459.618 302.72 460.758 302.1 460.738 301.2C460.758 300.26 459.618 299.64 457.898 299.64C456.138 299.64 454.998 300.26 455.018 301.2ZM480.183 299.84V314H478.423V301.68H478.343L474.903 303.96V302.2L478.423 299.84H480.183ZM483.953 314V312.72L488.753 307.64C490.433 305.86 491.233 304.9 491.233 303.6C491.233 302.14 490.013 301.2 488.433 301.2C486.753 301.2 485.693 302.26 485.673 303.84H484.033C483.993 301.34 485.933 299.66 488.473 299.68C491.053 299.66 492.873 301.38 492.913 303.6C492.873 305.18 492.153 306.4 489.633 309L486.393 312.32V312.44H493.153V314H483.953ZM500.031 298.88C502.611 298.88 504.511 300.46 504.511 302.72C504.511 304.98 502.611 306.54 500.031 306.56C497.391 306.54 495.491 304.98 495.511 302.72C495.491 300.46 497.391 298.88 500.031 298.88ZM496.991 302.72C496.991 304.24 498.271 305.28 500.031 305.28C501.731 305.28 503.031 304.24 503.031 302.72C503.031 301.2 501.731 300.14 500.031 300.16C498.271 300.14 496.991 301.2 496.991 302.72ZM498.151 309.24V307.96H509.431V312.16H499.671V314.12H510.071V315.36H498.191V311H507.911V309.24H498.151ZM507.911 307.12V298.24H509.431V307.12H507.911ZM513.596 308.04C513.596 304.56 514.536 301.66 516.236 299.2H517.716C516.396 301.04 515.336 304.76 515.356 308.04C515.336 311.34 516.396 315.06 517.716 316.88H516.236C514.536 314.42 513.596 311.52 513.596 308.04ZM524.113 298.88C526.693 298.88 528.593 300.46 528.593 302.72C528.593 304.98 526.693 306.54 524.113 306.56C521.473 306.54 519.573 304.98 519.593 302.72C519.573 300.46 521.473 298.88 524.113 298.88ZM521.073 302.72C521.073 304.24 522.353 305.28 524.113 305.28C525.813 305.28 527.113 304.24 527.113 302.72C527.113 301.2 525.813 300.14 524.113 300.16C522.353 300.14 521.073 301.2 521.073 302.72ZM522.233 309.24V307.96H533.513V312.16H523.753V314.12H534.153V315.36H522.273V311H531.993V309.24H522.233ZM531.993 307.12V298.24H533.513V307.12H531.993ZM540.638 308.04C540.638 311.52 539.698 314.42 537.998 316.88H536.518C537.838 315.04 538.898 311.32 538.878 308.04C538.898 304.74 537.838 301.02 536.518 299.2H537.998C539.698 301.66 540.638 304.56 540.638 308.04Z" fill="white"/>
<path d="M657.759 314V312.72L662.559 307.64C664.239 305.86 665.039 304.9 665.039 303.6C665.039 302.14 663.819 301.2 662.239 301.2C660.559 301.2 659.499 302.26 659.479 303.84H657.839C657.799 301.34 659.739 299.66 662.279 299.68C664.859 299.66 666.679 301.38 666.719 303.6C666.679 305.18 665.959 306.4 663.439 309L660.199 312.32V312.44H666.959V314H657.759ZM674.157 314.2C671.017 314.2 669.197 311.56 669.197 306.92C669.197 302.34 671.037 299.66 674.157 299.68C677.257 299.66 679.097 302.34 679.077 306.92C679.097 311.56 677.277 314.2 674.157 314.2ZM670.917 306.92C670.917 310.58 672.097 312.64 674.157 312.64C676.197 312.64 677.377 310.58 677.397 306.92C677.377 303.26 676.177 301.2 674.157 301.2C672.117 301.2 670.917 303.26 670.917 306.92ZM681.431 314V312.72L686.231 307.64C687.911 305.86 688.711 304.9 688.711 303.6C688.711 302.14 687.491 301.2 685.911 301.2C684.231 301.2 683.171 302.26 683.151 303.84H681.511C681.471 301.34 683.411 299.66 685.951 299.68C688.531 299.66 690.351 301.38 690.391 303.6C690.351 305.18 689.631 306.4 687.111 309L683.871 312.32V312.44H690.631V314H681.431ZM698.069 314.2C695.269 314.2 693.249 312.68 693.149 310.44H694.949C695.029 311.8 696.369 312.64 698.069 312.64C699.929 312.64 701.269 311.62 701.269 310.16C701.269 308.62 700.049 307.52 697.829 307.52H696.709V305.96H697.829C699.569 305.98 700.769 305 700.749 303.56C700.769 302.14 699.729 301.2 698.109 301.2C696.609 301.2 695.229 302.02 695.149 303.4H693.469C693.549 301.16 695.629 299.66 698.149 299.68C700.829 299.66 702.469 301.44 702.469 303.48C702.469 305.06 701.529 306.24 700.069 306.64V306.76C701.889 307.04 703.009 308.36 702.989 310.16C703.009 312.48 700.909 314.2 698.069 314.2ZM719.273 298.24V311.08H717.753V305.08H712.753V303.84H717.753V301.76H712.753V300.52H717.753V298.24H719.273ZM705.953 308.52V299.48H707.473V307.2C709.873 307.2 712.153 307.06 714.833 306.56L714.993 307.84C712.153 308.38 709.793 308.48 707.233 308.52H705.953ZM708.113 315.2V310H709.633V313.92H719.753V315.2H708.113ZM732.799 299.84V314H731.039V301.68H730.959L727.519 303.96V302.2L731.039 299.84H732.799ZM741.568 299.84V314H739.808V301.68H739.728L736.288 303.96V302.2L739.808 299.84H741.568ZM759.018 298.24V308.48H757.498V307.52H753.978V306.48H757.498V298.24H759.018ZM744.658 304.8C748.018 304.8 752.318 304.76 756.058 304.36L756.178 305.36C754.478 305.6 752.698 305.74 750.978 305.82V308.52H749.458V305.88C747.818 305.92 746.258 305.92 744.858 305.92L744.658 304.8ZM746.018 301.2C745.998 299.58 747.698 298.58 750.338 298.56C752.918 298.58 754.618 299.58 754.658 301.2C754.618 302.82 752.918 303.78 750.338 303.76C747.698 303.78 745.998 302.82 746.018 301.2ZM747.338 310.2V309.08H759.018V312.68H748.898V314.24H759.618V315.4H747.378V311.64H757.498V310.2H747.338ZM747.458 301.2C747.438 302.1 748.578 302.72 750.338 302.72C752.058 302.72 753.198 302.1 753.178 301.2C753.198 300.26 752.058 299.64 750.338 299.64C748.578 299.64 747.438 300.26 747.458 301.2ZM772.623 299.84V314H770.863V301.68H770.783L767.343 303.96V302.2L770.863 299.84H772.623ZM781.272 314.2C778.472 314.2 776.452 312.68 776.352 310.44H778.152C778.232 311.8 779.572 312.64 781.272 312.64C783.132 312.64 784.472 311.62 784.472 310.16C784.472 308.62 783.252 307.52 781.032 307.52H779.912V305.96H781.032C782.772 305.98 783.972 305 783.952 303.56C783.972 302.14 782.932 301.2 781.312 301.2C779.812 301.2 778.432 302.02 778.352 303.4H776.672C776.752 301.16 778.832 299.66 781.352 299.68C784.032 299.66 785.672 301.44 785.672 303.48C785.672 305.06 784.732 306.24 783.272 306.64V306.76C785.092 307.04 786.212 308.36 786.192 310.16C786.212 312.48 784.112 314.2 781.272 314.2ZM793.036 298.88C795.616 298.88 797.516 300.46 797.516 302.72C797.516 304.98 795.616 306.54 793.036 306.56C790.396 306.54 788.496 304.98 788.516 302.72C788.496 300.46 790.396 298.88 793.036 298.88ZM789.996 302.72C789.996 304.24 791.276 305.28 793.036 305.28C794.736 305.28 796.036 304.24 796.036 302.72C796.036 301.2 794.736 300.14 793.036 300.16C791.276 300.14 789.996 301.2 789.996 302.72ZM791.156 309.24V307.96H802.436V312.16H792.676V314.12H803.076V315.36H791.196V311H800.916V309.24H791.156ZM800.916 307.12V298.24H802.436V307.12H800.916ZM811.602 308.04C811.602 304.56 812.542 301.66 814.242 299.2H815.722C814.402 301.04 813.342 304.76 813.362 308.04C813.342 311.34 814.402 315.06 815.722 316.88H814.242C812.542 314.42 811.602 311.52 811.602 308.04ZM831.479 298.24V308.48H829.959V307.52H826.439V306.48H829.959V298.24H831.479ZM817.119 304.8C820.479 304.8 824.779 304.76 828.519 304.36L828.639 305.36C826.939 305.6 825.159 305.74 823.439 305.82V308.52H821.919V305.88C820.279 305.92 818.719 305.92 817.319 305.92L817.119 304.8ZM818.479 301.2C818.459 299.58 820.159 298.58 822.799 298.56C825.379 298.58 827.079 299.58 827.119 301.2C827.079 302.82 825.379 303.78 822.799 303.76C820.159 303.78 818.459 302.82 818.479 301.2ZM819.799 310.2V309.08H831.479V312.68H821.359V314.24H832.079V315.4H819.839V311.64H829.959V310.2H819.799ZM819.919 301.2C819.899 302.1 821.039 302.72 822.799 302.72C824.519 302.72 825.659 302.1 825.639 301.2C825.659 300.26 824.519 299.64 822.799 299.64C821.039 299.64 819.899 300.26 819.919 301.2ZM838.644 308.04C838.644 311.52 837.704 314.42 836.004 316.88H834.524C835.844 315.04 836.904 311.32 836.884 308.04C836.904 304.74 835.844 301.02 834.524 299.2H836.004C837.704 301.66 838.644 304.56 838.644 308.04ZM649.745 333.8C649.705 331.5 651.065 330.62 652.505 330.6C653.425 330.62 654.105 331 655.105 331.88C655.785 332.44 656.105 332.66 656.625 332.68C657.385 332.66 657.885 332.08 657.865 331H659.385C659.445 333.3 658.065 334.2 656.665 334.2C655.705 334.2 655.025 333.82 654.025 332.92C653.345 332.36 653.025 332.12 652.545 332.12C651.805 332.12 651.245 332.62 651.265 333.8H649.745ZM667.183 338V336.72L671.983 331.64C673.663 329.86 674.463 328.9 674.463 327.6C674.463 326.14 673.243 325.2 671.663 325.2C669.983 325.2 668.923 326.26 668.903 327.84H667.263C667.223 325.34 669.163 323.66 671.703 323.68C674.283 323.66 676.103 325.38 676.143 327.6C676.103 329.18 675.383 330.4 672.863 333L669.623 336.32V336.44H676.383V338H667.183ZM683.581 338.2C680.441 338.2 678.621 335.56 678.621 330.92C678.621 326.34 680.461 323.66 683.581 323.68C686.681 323.66 688.521 326.34 688.501 330.92C688.521 335.56 686.701 338.2 683.581 338.2ZM680.341 330.92C680.341 334.58 681.521 336.64 683.581 336.64C685.621 336.64 686.801 334.58 686.821 330.92C686.801 327.26 685.601 325.2 683.581 325.2C681.541 325.2 680.341 327.26 680.341 330.92ZM690.855 338V336.72L695.655 331.64C697.335 329.86 698.135 328.9 698.135 327.6C698.135 326.14 696.915 325.2 695.335 325.2C693.655 325.2 692.595 326.26 692.575 327.84H690.935C690.895 325.34 692.835 323.66 695.375 323.68C697.955 323.66 699.775 325.38 699.815 327.6C699.775 329.18 699.055 330.4 696.535 333L693.295 336.32V336.44H700.055V338H690.855ZM707.493 338.2C704.693 338.2 702.673 336.68 702.573 334.44H704.373C704.453 335.8 705.793 336.64 707.493 336.64C709.353 336.64 710.693 335.62 710.693 334.16C710.693 332.62 709.473 331.52 707.253 331.52H706.133V329.96H707.253C708.993 329.98 710.193 329 710.173 327.56C710.193 326.14 709.153 325.2 707.533 325.2C706.033 325.2 704.653 326.02 704.573 327.4H702.893C702.973 325.16 705.053 323.66 707.573 323.68C710.253 323.66 711.893 325.44 711.893 327.48C711.893 329.06 710.953 330.24 709.493 330.64V330.76C711.313 331.04 712.433 332.36 712.413 334.16C712.433 336.48 710.333 338.2 707.493 338.2ZM728.697 322.24V335.08H727.177V329.08H722.177V327.84H727.177V325.76H722.177V324.52H727.177V322.24H728.697ZM715.377 332.52V323.48H716.897V331.2C719.297 331.2 721.577 331.06 724.257 330.56L724.417 331.84C721.577 332.38 719.217 332.48 716.657 332.52H715.377ZM717.537 339.2V334H719.057V337.92H729.177V339.2H717.537ZM742.222 323.84V338H740.462V325.68H740.382L736.942 327.96V326.2L740.462 323.84H742.222ZM750.992 323.84V338H749.232V325.68H749.152L745.712 327.96V326.2L749.232 323.84H750.992ZM768.441 322.24V332.48H766.921V331.52H763.401V330.48H766.921V322.24H768.441ZM754.081 328.8C757.441 328.8 761.741 328.76 765.481 328.36L765.601 329.36C763.901 329.6 762.121 329.74 760.401 329.82V332.52H758.881V329.88C757.241 329.92 755.681 329.92 754.281 329.92L754.081 328.8ZM755.441 325.2C755.421 323.58 757.121 322.58 759.761 322.56C762.341 322.58 764.041 323.58 764.081 325.2C764.041 326.82 762.341 327.78 759.761 327.76C757.121 327.78 755.421 326.82 755.441 325.2ZM756.761 334.2V333.08H768.441V336.68H758.321V338.24H769.041V339.4H756.801V335.64H766.921V334.2H756.761ZM756.881 325.2C756.861 326.1 758.001 326.72 759.761 326.72C761.481 326.72 762.621 326.1 762.601 325.2C762.621 324.26 761.481 323.64 759.761 323.64C758.001 323.64 756.861 324.26 756.881 325.2ZM782.047 323.84V338H780.287V325.68H780.207L776.767 327.96V326.2L780.287 323.84H782.047ZM786.256 338L792.736 325.52V325.4H785.296V323.84H794.576V325.48L788.096 338H786.256ZM801.171 322.88C803.751 322.88 805.651 324.46 805.651 326.72C805.651 328.98 803.751 330.54 801.171 330.56C798.531 330.54 796.631 328.98 796.651 326.72C796.631 324.46 798.531 322.88 801.171 322.88ZM798.131 326.72C798.131 328.24 799.411 329.28 801.171 329.28C802.871 329.28 804.171 328.24 804.171 326.72C804.171 325.2 802.871 324.14 801.171 324.16C799.411 324.14 798.131 325.2 798.131 326.72ZM799.291 333.24V331.96H810.571V336.16H800.811V338.12H811.211V339.36H799.331V335H809.051V333.24H799.291ZM809.051 331.12V322.24H810.571V331.12H809.051ZM819.736 332.04C819.736 328.56 820.676 325.66 822.376 323.2H823.856C822.536 325.04 821.476 328.76 821.496 332.04C821.476 335.34 822.536 339.06 823.856 340.88H822.376C820.676 338.42 819.736 335.52 819.736 332.04ZM839.133 323.16V324.44C839.133 325.78 839.133 327.38 838.653 329.56H841.213V330.8H825.333V329.56H837.093C837.613 327.38 837.613 325.8 837.613 324.44H827.333V323.16H839.133ZM827.293 339.36V333.2H839.213V339.36H827.293ZM828.773 338.08H837.693V334.44H828.773V338.08ZM846.778 332.04C846.778 335.52 845.838 338.42 844.138 340.88H842.658C843.978 339.04 845.038 335.32 845.018 332.04C845.038 328.74 843.978 325.02 842.658 323.2H844.138C845.838 325.66 846.778 328.56 846.778 332.04Z" fill="white"/>
<path d="M955.32 314V312.72L960.12 307.64C961.8 305.86 962.6 304.9 962.6 303.6C962.6 302.14 961.38 301.2 959.8 301.2C958.12 301.2 957.06 302.26 957.04 303.84H955.4C955.36 301.34 957.3 299.66 959.84 299.68C962.42 299.66 964.24 301.38 964.28 303.6C964.24 305.18 963.52 306.4 961 309L957.76 312.32V312.44H964.52V314H955.32ZM971.718 314.2C968.578 314.2 966.758 311.56 966.758 306.92C966.758 302.34 968.598 299.66 971.718 299.68C974.818 299.66 976.658 302.34 976.638 306.92C976.658 311.56 974.838 314.2 971.718 314.2ZM968.478 306.92C968.478 310.58 969.658 312.64 971.718 312.64C973.758 312.64 974.938 310.58 974.958 306.92C974.938 303.26 973.738 301.2 971.718 301.2C969.678 301.2 968.478 303.26 968.478 306.92ZM978.992 314V312.72L983.792 307.64C985.472 305.86 986.272 304.9 986.272 303.6C986.272 302.14 985.052 301.2 983.472 301.2C981.792 301.2 980.732 302.26 980.712 303.84H979.072C979.032 301.34 980.972 299.66 983.512 299.68C986.092 299.66 987.912 301.38 987.952 303.6C987.912 305.18 987.192 306.4 984.672 309L981.432 312.32V312.44H988.192V314H978.992ZM995.63 314.2C992.83 314.2 990.81 312.68 990.71 310.44H992.51C992.59 311.8 993.93 312.64 995.63 312.64C997.49 312.64 998.83 311.62 998.83 310.16C998.83 308.62 997.61 307.52 995.39 307.52H994.27V305.96H995.39C997.13 305.98 998.33 305 998.31 303.56C998.33 302.14 997.29 301.2 995.67 301.2C994.17 301.2 992.79 302.02 992.71 303.4H991.03C991.11 301.16 993.19 299.66 995.71 299.68C998.39 299.66 1000.03 301.44 1000.03 303.48C1000.03 305.06 999.09 306.24 997.63 306.64V306.76C999.45 307.04 1000.57 308.36 1000.55 310.16C1000.57 312.48 998.47 314.2 995.63 314.2ZM1016.83 298.24V311.08H1015.31V305.08H1010.31V303.84H1015.31V301.76H1010.31V300.52H1015.31V298.24H1016.83ZM1003.51 308.52V299.48H1005.03V307.2C1007.43 307.2 1009.71 307.06 1012.39 306.56L1012.55 307.84C1009.71 308.38 1007.35 308.48 1004.79 308.52H1003.51ZM1005.67 315.2V310H1007.19V313.92H1017.31V315.2H1005.67ZM1030.36 299.84V314H1028.6V301.68H1028.52L1025.08 303.96V302.2L1028.6 299.84H1030.36ZM1039.13 299.84V314H1037.37V301.68H1037.29L1033.85 303.96V302.2L1037.37 299.84H1039.13ZM1056.58 298.24V308.48H1055.06V307.52H1051.54V306.48H1055.06V298.24H1056.58ZM1042.22 304.8C1045.58 304.8 1049.88 304.76 1053.62 304.36L1053.74 305.36C1052.04 305.6 1050.26 305.74 1048.54 305.82V308.52H1047.02V305.88C1045.38 305.92 1043.82 305.92 1042.42 305.92L1042.22 304.8ZM1043.58 301.2C1043.56 299.58 1045.26 298.58 1047.9 298.56C1050.48 298.58 1052.18 299.58 1052.22 301.2C1052.18 302.82 1050.48 303.78 1047.9 303.76C1045.26 303.78 1043.56 302.82 1043.58 301.2ZM1044.9 310.2V309.08H1056.58V312.68H1046.46V314.24H1057.18V315.4H1044.94V311.64H1055.06V310.2H1044.9ZM1045.02 301.2C1045 302.1 1046.14 302.72 1047.9 302.72C1049.62 302.72 1050.76 302.1 1050.74 301.2C1050.76 300.26 1049.62 299.64 1047.9 299.64C1046.14 299.64 1045 300.26 1045.02 301.2ZM1070.18 299.84V314H1068.42V301.68H1068.34L1064.9 303.96V302.2L1068.42 299.84H1070.18ZM1078.67 299.68C1081.09 299.7 1083.81 301.16 1083.79 306.36C1083.81 311.38 1081.75 314.2 1078.43 314.2C1075.95 314.2 1074.19 312.68 1073.83 310.44H1075.59C1075.89 311.7 1076.85 312.64 1078.43 312.64C1080.73 312.64 1082.15 310.64 1082.15 307.2H1081.95C1081.15 308.38 1079.85 309.08 1078.35 309.08C1075.83 309.08 1073.73 307.14 1073.71 304.4C1073.73 301.78 1075.65 299.64 1078.67 299.68ZM1075.43 304.4C1075.43 306.14 1076.75 307.54 1078.63 307.52C1080.45 307.54 1081.89 306.02 1081.87 304.36C1081.89 302.72 1080.53 301.2 1078.67 301.2C1076.81 301.2 1075.43 302.64 1075.43 304.4ZM1090.56 298.88C1093.14 298.88 1095.04 300.46 1095.04 302.72C1095.04 304.98 1093.14 306.54 1090.56 306.56C1087.92 306.54 1086.02 304.98 1086.04 302.72C1086.02 300.46 1087.92 298.88 1090.56 298.88ZM1087.52 302.72C1087.52 304.24 1088.8 305.28 1090.56 305.28C1092.26 305.28 1093.56 304.24 1093.56 302.72C1093.56 301.2 1092.26 300.14 1090.56 300.16C1088.8 300.14 1087.52 301.2 1087.52 302.72ZM1088.68 309.24V307.96H1099.96V312.16H1090.2V314.12H1100.6V315.36H1088.72V311H1098.44V309.24H1088.68ZM1098.44 307.12V298.24H1099.96V307.12H1098.44ZM1104.12 308.04C1104.12 304.56 1105.06 301.66 1106.76 299.2H1108.24C1106.92 301.04 1105.86 304.76 1105.88 308.04C1105.86 311.34 1106.92 315.06 1108.24 316.88H1106.76C1105.06 314.42 1104.12 311.52 1104.12 308.04ZM1124 298.24V308.48H1122.48V307.52H1118.96V306.48H1122.48V298.24H1124ZM1109.64 304.8C1113 304.8 1117.3 304.76 1121.04 304.36L1121.16 305.36C1119.46 305.6 1117.68 305.74 1115.96 305.82V308.52H1114.44V305.88C1112.8 305.92 1111.24 305.92 1109.84 305.92L1109.64 304.8ZM1111 301.2C1110.98 299.58 1112.68 298.58 1115.32 298.56C1117.9 298.58 1119.6 299.58 1119.64 301.2C1119.6 302.82 1117.9 303.78 1115.32 303.76C1112.68 303.78 1110.98 302.82 1111 301.2ZM1112.32 310.2V309.08H1124V312.68H1113.88V314.24H1124.6V315.4H1112.36V311.64H1122.48V310.2H1112.32ZM1112.44 301.2C1112.42 302.1 1113.56 302.72 1115.32 302.72C1117.04 302.72 1118.18 302.1 1118.16 301.2C1118.18 300.26 1117.04 299.64 1115.32 299.64C1113.56 299.64 1112.42 300.26 1112.44 301.2ZM1131.17 308.04C1131.17 311.52 1130.23 314.42 1128.53 316.88H1127.05C1128.37 315.04 1129.43 311.32 1129.41 308.04C1129.43 304.74 1128.37 301.02 1127.05 299.2H1128.53C1130.23 301.66 1131.17 304.56 1131.17 308.04Z" fill="white"/>
<path d="M305.249 329C283.12 388.562 225.766 431 158.5 431C72.0674 431 2 360.933 2 274.5C2 188.067 72.0674 118 158.5 118C225.766 118 283.12 160.438 305.249 220H306.316C284.14 159.874 226.327 117 158.5 117C71.5152 117 1 187.515 1 274.5C1 361.485 71.5152 432 158.5 432C226.327 432 284.14 389.126 306.316 329H305.249Z" fill="white"/>
<path d="M600.249 329C578.12 388.562 520.766 431 453.5 431C386.234 431 328.88 388.562 306.751 329H305.684C327.86 389.126 385.673 432 453.5 432C521.327 432 579.14 389.126 601.316 329H600.249Z" fill="white"/>
<path d="M601.316 220C579.14 159.874 521.327 117 453.5 117C385.673 117 327.86 159.874 305.684 220H306.751C328.88 160.438 386.234 118 453.5 118C520.766 118 578.12 160.438 600.249 220H601.316Z" fill="white"/>
<path d="M1200 274.5C1200 360.933 1129.93 431 1043.5 431C976.234 431 918.88 388.562 896.751 329H895.684C917.86 389.126 975.673 432 1043.5 432C1130.48 432 1201 361.485 1201 274.5C1201 187.515 1130.48 117 1043.5 117C975.673 117 917.86 159.874 895.684 220H896.751C918.88 160.438 976.234 118 1043.5 118C1129.93 118 1200 188.067 1200 274.5Z" fill="white"/>
<path d="M895.249 329C873.12 388.562 815.766 431 748.5 431C681.234 431 623.88 388.562 601.751 329H600.684C622.86 389.126 680.673 432 748.5 432C816.327 432 874.14 389.126 896.316 329H895.249Z" fill="white"/>
<path d="M896.316 220C874.14 159.874 816.327 117 748.5 117C680.673 117 622.86 159.874 600.684 220H601.751C623.88 160.438 681.234 118 748.5 118C815.766 118 873.12 160.438 895.249 220H896.316Z" fill="white"/>
<path d="M111.594 220.875C111.604 222.708 111.859 224.458 112.359 226.125C112.859 227.792 113.625 229.271 114.656 230.562C115.698 231.844 116.979 232.812 118.5 233.469L116.062 236.656C114.521 235.906 113.208 234.859 112.125 233.516C111.052 232.161 110.208 230.578 109.594 228.766C108.958 230.703 108.083 232.396 106.969 233.844C105.854 235.281 104.51 236.385 102.938 237.156L100.438 233.906C102 233.198 103.312 232.167 104.375 230.812C105.448 229.458 106.245 227.927 106.766 226.219C107.286 224.5 107.552 222.719 107.562 220.875V216.625H111.594V220.875ZM115.312 223.375H120.906V214.438H124.844V242.938H120.906V226.594H115.312V223.375ZM154.5 234.25H148.5V242.875H144.469V234.25H138.531V242.875H134.562V234.25H128.469V231.125H154.5V234.25ZM131.469 215.281H151.5V223.562H135.594V225.875H152.156V229.062H131.562V220.656H147.406V218.531H131.469V215.281ZM187.5 230H183.531V224.062H179.031V220.812H183.531V214.438H187.5V230ZM163.375 227.375C164.812 226.896 166.031 226.224 167.031 225.359C168.031 224.484 168.792 223.5 169.312 222.406C169.833 221.312 170.13 220.167 170.203 218.969H164.5V215.719H179.938V218.969H174.297C174.359 220.062 174.635 221.125 175.125 222.156C175.625 223.177 176.354 224.099 177.312 224.922C178.271 225.745 179.438 226.385 180.812 226.844L178.844 229.906C177.312 229.406 175.995 228.672 174.891 227.703C173.797 226.734 172.932 225.594 172.297 224.281C171.641 225.75 170.734 227.021 169.578 228.094C168.432 229.167 167.042 229.969 165.406 230.5L163.375 227.375ZM168.531 231.094H172.469V233.781H183.531V231.094H187.5V242.562H168.531V231.094ZM183.531 239.375V236.844H172.469V239.375H183.531ZM206.281 216.656C206.271 217.812 206.651 218.948 207.422 220.062C208.203 221.167 209.344 222.125 210.844 222.938C212.344 223.74 214.135 224.271 216.219 224.531L214.656 227.75C212.219 227.396 210.099 226.688 208.297 225.625C206.505 224.552 205.135 223.229 204.188 221.656C203.229 223.229 201.854 224.552 200.062 225.625C198.281 226.688 196.188 227.396 193.781 227.75L192.188 224.531C194.25 224.271 196.026 223.74 197.516 222.938C199.016 222.125 200.151 221.167 200.922 220.062C201.693 218.948 202.083 217.812 202.094 216.656V215.281H206.281V216.656ZM191.188 229.906H217.125V233.156H206.062V242.875H202.125V233.156H191.188V229.906Z" fill="white"/>
<path d="M378.552 216.768V218.88H383.864V214.464H387.832V235.136H383.864V228.224H378.552V230.592H365.048V216.768H378.552ZM368.888 242.368V233.216H372.92V239.168H388.408V242.368H368.888ZM369.016 227.52H374.648V219.904H369.016V227.52ZM378.552 225.024H383.864V222.144H378.552V225.024ZM415.488 214.4V230.016H411.52V224.064H406.976V220.8H411.52V214.4H415.488ZM391.36 227.392C395.84 225.856 397.984 222.4 398.208 218.944H392.448V215.744H407.872V218.944H402.24C402.432 222.144 404.448 225.44 408.768 226.816L406.784 229.952C403.648 228.896 401.472 226.848 400.256 224.288C399.008 227.104 396.736 229.376 393.408 230.464L391.36 227.392ZM396.48 242.56V231.104H400.448V233.792H411.52V231.104H415.488V242.56H396.48ZM400.448 239.36H411.52V236.864H400.448V239.36ZM434.648 215.296C438.936 215.264 442.2 217.984 442.2 221.76C442.2 225.536 438.936 228.224 434.648 228.224C430.232 228.224 426.968 225.536 426.968 221.76C426.968 217.984 430.232 215.264 434.648 215.296ZM430.872 221.76C430.808 223.808 432.44 225.024 434.648 225.024C436.76 225.024 438.36 223.808 438.36 221.76C438.36 219.744 436.76 218.528 434.648 218.56C432.44 218.528 430.808 219.744 430.872 221.76ZM431.256 232.96V229.888H450.328V237.568H435.224V239.424H451.096V242.56H431.32V234.688H446.36V232.96H431.256ZM446.36 228.672V214.4H450.328V228.672H446.36ZM478.176 214.4V231.296H474.208V224.576H469.728V221.376H474.208V214.4H478.176ZM453.984 228.16C458.656 226.624 460.8 222.912 460.896 219.328H455.136V216.128H470.56V219.328H464.928C464.992 222.624 467.04 225.984 471.456 227.456L469.472 230.592C466.368 229.568 464.192 227.52 462.944 224.96C461.696 227.872 459.456 230.176 456.096 231.36L453.984 228.16ZM458.656 237.44C458.656 233.984 462.368 231.968 468.448 231.936C474.528 231.968 478.24 233.984 478.24 237.44C478.24 240.896 474.528 242.912 468.448 242.944C462.368 242.912 458.656 240.896 458.656 237.44ZM462.624 237.44C462.624 239.072 464.672 239.872 468.448 239.872C472.224 239.872 474.272 239.072 474.272 237.44C474.272 235.808 472.224 234.976 468.448 235.008C464.672 234.976 462.624 235.808 462.624 237.44ZM511.799 214.464V222.592H515.639V225.92H511.799V235.136H507.767V214.464H511.799ZM489.399 223.488C489.399 219.264 492.855 216.256 497.207 216.256C501.559 216.256 504.951 219.264 504.951 223.488C504.951 227.68 501.559 230.72 497.207 230.72C492.855 230.72 489.399 227.68 489.399 223.488ZM493.303 242.368V232.96H497.335V239.168H512.823V242.368H493.303ZM493.303 223.488C493.303 225.824 495.063 227.232 497.207 227.264C499.415 227.232 501.079 225.824 501.111 223.488C501.079 221.12 499.415 219.744 497.207 219.712C495.063 219.744 493.303 221.12 493.303 223.488ZM541.375 214.4V242.88H537.599V228.672H534.911V241.472H531.135V214.912H534.911V225.408H537.599V214.4H541.375ZM518.015 235.968V217.6H522.047V232.448C524.319 232.384 526.815 232.192 529.535 231.68L529.983 235.072C526.175 235.744 522.911 235.936 519.935 235.968H518.015Z" fill="white"/>
<path d="M736.531 218.906H741.844V214.469H745.812V235.156H741.844V228.188H736.531V230.594H723.031V216.75H736.531V218.906ZM726.875 233.188H730.906V239.188H746.406V242.375H726.875V233.188ZM732.625 227.5V219.906H727V227.5H732.625ZM741.844 225.031V222.125H736.531V225.031H741.844ZM773.469 230H769.5V224.062H765V220.812H769.5V214.438H773.469V230ZM749.344 227.375C750.781 226.896 752 226.224 753 225.359C754 224.484 754.76 223.5 755.281 222.406C755.802 221.312 756.099 220.167 756.172 218.969H750.469V215.719H765.906V218.969H760.266C760.328 220.062 760.604 221.125 761.094 222.156C761.594 223.177 762.323 224.099 763.281 224.922C764.24 225.745 765.406 226.385 766.781 226.844L764.812 229.906C763.281 229.406 761.964 228.672 760.859 227.703C759.766 226.734 758.901 225.594 758.266 224.281C757.609 225.75 756.703 227.021 755.547 228.094C754.401 229.167 753.01 229.969 751.375 230.5L749.344 227.375ZM754.5 231.094H758.438V233.781H769.5V231.094H773.469V242.562H754.5V231.094ZM769.5 239.375V236.844H758.438V239.375H769.5Z" fill="white"/>
<path d="M997.25 234.094C999.781 233.938 1002.08 233.708 1004.16 233.406L1004.47 236.312C1001.69 236.844 998.854 237.188 995.969 237.344C993.094 237.5 989.917 237.583 986.438 237.594L985.969 234.375C988.719 234.375 991.156 234.344 993.281 234.281V229.812H997.25V234.094ZM986.531 227.688C988.594 227.135 990.182 226.266 991.297 225.078C992.422 223.88 993.052 222.521 993.188 221H987.438V217.781H993.281V214.688H997.25V217.781H1003.12V221H997.312C997.406 221.948 997.714 222.844 998.234 223.688C998.755 224.521 999.5 225.26 1000.47 225.906C1001.44 226.552 1002.61 227.042 1004 227.375L1002.19 230.469C1000.56 230.062 999.167 229.427 998 228.562C996.844 227.688 995.932 226.641 995.266 225.422C994.63 226.703 993.734 227.797 992.578 228.703C991.432 229.609 990.042 230.271 988.406 230.688L986.531 227.688ZM1005.78 214.438H1009.75V242.938H1005.78V214.438ZM1028.41 228.031H1039.44V231.25H1013.5V228.031H1024.47V224.625H1028.41V228.031ZM1014.62 223.125C1016.32 222.969 1017.8 222.677 1019.05 222.25C1020.31 221.812 1021.31 221.297 1022.05 220.703C1022.8 220.099 1023.3 219.458 1023.55 218.781H1015.88V215.656H1037.09V218.781H1029.36C1029.6 219.458 1030.09 220.099 1030.84 220.703C1031.59 221.297 1032.6 221.812 1033.86 222.25C1035.12 222.677 1036.6 222.969 1038.31 223.125L1036.91 226.25C1034.28 225.99 1032.07 225.401 1030.28 224.484C1028.49 223.557 1027.21 222.391 1026.44 220.984C1025.67 222.391 1024.39 223.557 1022.61 224.484C1020.84 225.401 1018.65 225.99 1016.03 226.25L1014.62 223.125ZM1016.47 237.844C1016.47 236.771 1016.86 235.859 1017.66 235.109C1018.45 234.359 1019.59 233.792 1021.08 233.406C1022.58 233.01 1024.36 232.812 1026.44 232.812C1028.5 232.812 1030.27 233.01 1031.75 233.406C1033.23 233.792 1034.36 234.359 1035.14 235.109C1035.93 235.859 1036.33 236.771 1036.34 237.844C1036.33 238.917 1035.93 239.828 1035.14 240.578C1034.36 241.339 1033.23 241.911 1031.75 242.297C1030.27 242.682 1028.5 242.875 1026.44 242.875C1024.36 242.875 1022.58 242.682 1021.08 242.297C1019.59 241.911 1018.45 241.339 1017.66 240.578C1016.86 239.828 1016.47 238.917 1016.47 237.844ZM1020.53 237.844C1020.52 238.542 1021.01 239.062 1021.98 239.406C1022.96 239.74 1024.45 239.906 1026.44 239.906C1030.36 239.906 1032.33 239.219 1032.34 237.844C1032.33 236.51 1030.36 235.844 1026.44 235.844C1024.44 235.844 1022.95 236.01 1021.97 236.344C1021 236.667 1020.52 237.167 1020.53 237.844ZM1053.34 219.094H1059.16V215.719H1063.16V228.125H1049.38V215.719H1053.34V219.094ZM1052.22 229.969H1071.09V237.688H1056.19V239.531H1071.91V242.688H1052.28V234.844H1067.12V233.062H1052.22V229.969ZM1059.16 225V222.094H1053.34V225H1059.16ZM1067.09 214.438H1071.09V219.969H1074.94V223.188H1071.09V228.906H1067.09V214.438ZM1102.22 239.719H1076.19V236.531H1082.66V231.125H1078.34V227.906H1082.16V219.906H1078.22V216.719H1100.03V219.906H1096.03V227.906H1099.91V231.125H1095.62V236.531H1102.22V239.719ZM1092.09 227.906V219.906H1086.16V227.906H1092.09ZM1091.62 236.531V231.125H1086.66V236.531H1091.62Z" fill="white"/>
<path d="M1199.71 267.707C1200.1 267.316 1200.1 266.683 1199.71 266.293L1193.34 259.929C1192.95 259.538 1192.32 259.538 1191.93 259.929C1191.54 260.319 1191.54 260.953 1191.93 261.343L1197.59 267L1191.93 272.657C1191.54 273.047 1191.54 273.68 1191.93 274.071C1192.32 274.461 1192.95 274.461 1193.34 274.071L1199.71 267.707ZM2 268L1199 268L1199 266L2 266L2 268Z" fill="url(#paint0_linear_25_1062)"/>
<defs>
<linearGradient id="paint0_linear_25_1062" x1="1199" y1="267.944" x2="2" y2="267.944" gradientUnits="userSpaceOnUse">
<stop offset="0.3125" stop-color="#FF731D"/>
<stop offset="1" stop-color="white"/>
</linearGradient>
</defs>
</svg>
