<svg width="1201" height="432" viewBox="0 0 1201 432" fill="none" xmlns="http://www.w3.org/2000/svg">
<path d="M0.999984 54.5561L232 45.0559" stroke="#FF731D" stroke-width="6"/>
<path d="M9 41L219.099 58.2309" stroke="#FF731D" stroke-width="6"/>
<path d="M2.69682 1.27461V25.0674H51.3389V1.27461H2.69682ZM20.5134 30.5907H1V39.0881H53.0357V30.5907H33.5223V26.7668H20.5134V30.5907ZM15.7057 9.77202H38.3299V16.5699H15.7057V9.77202Z" fill="white"/>
<path d="M96.0217 22.5181V26.1295H70.5694V22.5181H57.5605V40.3627H109.031V22.5181H96.0217ZM75.9427 11.4715L77.1304 9.77202H90.9312V1.69948H57.5605V9.77202H63.8387L55.8071 21.2435H69.0989L74.359 13.7233L79.3363 21.2435H92.628L86.2367 11.4715H75.9427ZM109.031 0.42487H96.0217V21.2435H109.031V0.42487ZM70.5694 31.8653H96.0217V34.2021H70.5694V31.8653Z" fill="white"/>
<path d="M128.261 34.8394V33.5648H165.591V21.6684H114.121V27.1917H151.451V28.4663H114.121V40.3627H165.591V34.8394H128.261ZM146.926 9.98446C146.926 3.48394 140.987 0 129.675 0C118.363 0 112.424 3.48394 112.424 9.98446C112.424 16.485 118.363 19.9689 129.675 19.9689C140.987 19.9689 146.926 16.485 146.926 9.98446ZM165.591 0.42487H152.582V20.3938H165.591V0.42487ZM129.675 12.7461C125.15 12.7461 123.736 11.7264 123.736 9.98446C123.736 8.24249 125.15 7.2228 129.675 7.2228C134.2 7.2228 135.614 8.24249 135.614 9.98446C135.614 11.7264 134.2 12.7461 129.675 12.7461Z" fill="white"/>
<path d="M222.152 0.42487H209.143V8.07254H204.052V1.69948H170.682V10.1969H177.356L169.55 23.7927H182.842L187.65 15.4653L191.892 23.7927H205.183L199.358 12.3212H189.46L190.647 10.1969H203.487V16.5699H209.143V24.2176H222.152V0.42487ZM223 33.0124C223 27.914 217.118 25.0249 197.265 25.0249C177.412 25.0249 171.53 27.914 171.53 33.0124C171.53 38.1109 177.412 41 197.265 41C217.118 41 223 38.1109 223 33.0124ZM209.991 33.0124C209.991 33.9896 208.69 34.6269 197.265 34.6269C185.84 34.6269 184.539 33.9896 184.539 33.0124C184.539 32.0352 185.84 31.3979 197.265 31.3979C208.69 31.3979 209.991 32.0352 209.991 33.0124Z" fill="white"/>
<path d="M67.0625 314L67.043 312.711L71.8672 307.633C73.5371 305.855 74.3379 304.898 74.3477 303.59C74.3379 302.135 73.127 301.197 71.5352 301.188C69.8457 301.197 68.791 302.262 68.7812 303.844H67.1211C67.1016 301.344 69.0352 299.664 71.5938 299.664C74.1621 299.664 75.9785 301.393 75.9883 303.59C75.9785 305.172 75.2461 306.402 72.7461 308.98L69.5039 312.32V312.438H76.2422V314H67.0625ZM83.4297 314.195C80.2949 314.195 78.4785 311.559 78.4883 306.93C78.4785 302.34 80.3145 299.664 83.4297 299.664C86.5352 299.664 88.3711 302.34 88.3711 306.93C88.3711 311.559 86.5645 314.195 83.4297 314.195ZM80.1875 306.93C80.1973 310.592 81.3789 312.633 83.4297 312.633C85.4707 312.633 86.6621 310.592 86.6523 306.93C86.6621 303.268 85.4609 301.197 83.4297 301.188C81.3984 301.197 80.1973 303.268 80.1875 306.93ZM90.7148 314L90.6953 312.711L95.5195 307.633C97.1895 305.855 97.9902 304.898 98 303.59C97.9902 302.135 96.7793 301.197 95.1875 301.188C93.498 301.197 92.4434 302.262 92.4336 303.844H90.7734C90.7539 301.344 92.6875 299.664 95.2461 299.664C97.8145 299.664 99.6309 301.393 99.6406 303.59C99.6309 305.172 98.8984 306.402 96.3984 308.98L93.1562 312.32V312.438H99.8945V314H90.7148ZM101.789 311.109V309.664L108.156 299.859H110.324V309.566H112.297V311.109H110.324V314H108.645V311.109H101.789ZM103.684 309.566H108.645V302.086H108.469L103.684 309.449V309.566ZM128.391 298.238V311.09H126.848V305.074H121.848V303.844H126.848V301.754H121.848V300.523H126.848V298.238H128.391ZM115.031 308.512V299.488H116.574V307.203C118.967 307.193 121.271 307.057 123.918 306.578L124.074 307.848C121.252 308.375 118.889 308.492 116.34 308.512H115.031ZM117.199 315.211V309.996H118.742V313.922H128.859V315.211H117.199ZM141.926 299.859V314H140.148V301.695H140.07L136.633 303.98V302.203L140.148 299.859H141.926ZM150.324 314.195C147.189 314.195 145.373 311.559 145.383 306.93C145.373 302.34 147.209 299.664 150.324 299.664C153.43 299.664 155.266 302.34 155.266 306.93C155.266 311.559 153.459 314.195 150.324 314.195ZM147.082 306.93C147.092 310.592 148.273 312.633 150.324 312.633C152.365 312.633 153.557 310.592 153.547 306.93C153.557 303.268 152.355 301.197 150.324 301.188C148.293 301.197 147.092 303.268 147.082 306.93ZM171.301 298.238V308.473H169.758V307.516H166.242V306.5H169.758V298.238H171.301ZM156.926 304.781C160.285 304.801 164.582 304.762 168.332 304.352L168.43 305.348C166.73 305.592 164.963 305.738 163.234 305.816V308.531H161.73V305.875C160.09 305.934 158.508 305.934 157.102 305.934L156.926 304.781ZM158.273 301.188C158.273 299.576 159.973 298.57 162.59 298.57C165.178 298.57 166.887 299.576 166.906 301.188C166.887 302.809 165.178 303.775 162.59 303.785C159.973 303.775 158.273 302.809 158.273 301.188ZM159.582 310.211V309.098H171.301V312.691H161.164V314.254H171.867V315.387H159.66V311.617H169.777V310.211H159.582ZM159.719 301.188C159.709 302.105 160.842 302.73 162.59 302.73C164.318 302.73 165.451 302.105 165.461 301.188C165.451 300.26 164.318 299.635 162.59 299.645C160.842 299.635 159.709 300.26 159.719 301.188ZM179.914 314L179.895 312.711L184.719 307.633C186.389 305.855 187.189 304.898 187.199 303.59C187.189 302.135 185.979 301.197 184.387 301.188C182.697 301.197 181.643 302.262 181.633 303.844H179.973C179.953 301.344 181.887 299.664 184.445 299.664C187.014 299.664 188.83 301.393 188.84 303.59C188.83 305.172 188.098 306.402 185.598 308.98L182.355 312.32V312.438H189.094V314H179.914ZM191.652 314L191.633 312.711L196.457 307.633C198.127 305.855 198.928 304.898 198.938 303.59C198.928 302.135 197.717 301.197 196.125 301.188C194.436 301.197 193.381 302.262 193.371 303.844H191.711C191.691 301.344 193.625 299.664 196.184 299.664C198.752 299.664 200.568 301.393 200.578 303.59C200.568 305.172 199.836 306.402 197.336 308.98L194.094 312.32V312.438H200.832V314H191.652ZM207.688 298.863C210.285 298.873 212.17 300.455 212.18 302.711C212.17 304.977 210.285 306.539 207.688 306.539C205.061 306.539 203.166 304.977 203.176 302.711C203.166 300.455 205.061 298.873 207.688 298.863ZM204.68 302.711C204.66 304.234 205.939 305.289 207.688 305.289C209.406 305.289 210.695 304.234 210.695 302.711C210.695 301.207 209.406 300.143 207.688 300.152C205.939 300.143 204.66 301.207 204.68 302.711ZM205.812 309.215V307.984H217.102V312.164H207.355V314.117H217.727V315.348H205.852V311.012H215.578V309.215H205.812ZM215.578 307.145V298.219H217.102V307.145H215.578ZM221.125 308.609C221.145 304.928 222.141 301.861 223.938 299.254H225.422C224.104 301.178 222.873 305.133 222.863 308.609C222.873 312.096 224.104 316.041 225.422 317.984H223.938C222.141 315.367 221.145 312.301 221.125 308.609ZM240.344 298.219V305.621H243.117V306.91H240.344V315.582H238.801V298.219H240.344ZM226.652 310.953C228.068 310.953 229.719 310.943 231.438 310.895V308.98C229.416 308.746 228.098 307.555 228.117 305.836C228.098 303.873 229.758 302.604 232.219 302.613C234.641 302.604 236.33 303.873 236.34 305.836C236.33 307.564 234.992 308.746 232.98 308.98V310.836C234.592 310.758 236.232 310.621 237.746 310.406L237.844 311.578C234.055 312.223 229.953 312.262 226.906 312.262L226.652 310.953ZM226.965 301.598V300.348H231.438V298.258H232.98V300.348H237.434V301.598H226.965ZM229.543 305.836C229.553 307.037 230.607 307.828 232.219 307.809C233.801 307.828 234.865 307.037 234.875 305.836C234.865 304.625 233.801 303.805 232.219 303.805C230.607 303.805 229.553 304.625 229.543 305.836ZM248.488 308.609C248.469 312.301 247.473 315.367 245.676 317.984H244.191C245.51 316.041 246.74 312.096 246.75 308.609C246.74 305.133 245.51 301.178 244.191 299.254H245.676C247.473 301.861 248.469 304.928 248.488 308.609ZM60.1387 332.199C60.7734 331.467 61.5449 331.096 62.4043 331.086C63.8887 331.096 65.2363 332.209 66.6621 332.219C67.541 332.209 68.3027 331.799 68.8887 330.988V332.609C68.2441 333.342 67.4824 333.723 66.623 333.723C65.1387 333.723 63.7812 332.6 62.3457 332.59C61.4863 332.6 60.7344 333.01 60.1387 333.82V332.199ZM77.1309 338L77.1113 336.711L81.9355 331.633C83.6055 329.855 84.4062 328.898 84.416 327.59C84.4062 326.135 83.1953 325.197 81.6035 325.188C79.9141 325.197 78.8594 326.262 78.8496 327.844H77.1895C77.1699 325.344 79.1035 323.664 81.6621 323.664C84.2305 323.664 86.0469 325.393 86.0566 327.59C86.0469 329.172 85.3145 330.402 82.8145 332.98L79.5723 336.32V336.438H86.3105V338H77.1309ZM93.498 338.195C90.3633 338.195 88.5469 335.559 88.5566 330.93C88.5469 326.34 90.3828 323.664 93.498 323.664C96.6035 323.664 98.4395 326.34 98.4395 330.93C98.4395 335.559 96.6328 338.195 93.498 338.195ZM90.2559 330.93C90.2656 334.592 91.4473 336.633 93.498 336.633C95.5391 336.633 96.7305 334.592 96.7207 330.93C96.7305 327.268 95.5293 325.197 93.498 325.188C91.4668 325.197 90.2656 327.268 90.2559 330.93ZM100.783 338L100.764 336.711L105.588 331.633C107.258 329.855 108.059 328.898 108.068 327.59C108.059 326.135 106.848 325.197 105.256 325.188C103.566 325.197 102.512 326.262 102.502 327.844H100.842C100.822 325.344 102.756 323.664 105.314 323.664C107.883 323.664 109.699 325.393 109.709 327.59C109.699 329.172 108.967 330.402 106.467 332.98L103.225 336.32V336.438H109.963V338H100.783ZM111.857 335.109V333.664L118.225 323.859H120.393V333.566H122.365V335.109H120.393V338H118.713V335.109H111.857ZM113.752 333.566H118.713V326.086H118.537L113.752 333.449V333.566ZM138.459 322.238V335.09H136.916V329.074H131.916V327.844H136.916V325.754H131.916V324.523H136.916V322.238H138.459ZM125.1 332.512V323.488H126.643V331.203C129.035 331.193 131.34 331.057 133.986 330.578L134.143 331.848C131.32 332.375 128.957 332.492 126.408 332.512H125.1ZM127.268 339.211V333.996H128.811V337.922H138.928V339.211H127.268ZM151.994 323.859V338H150.217V325.695H150.139L146.701 327.98V326.203L150.217 323.859H151.994ZM160.764 323.859V338H158.986V325.695H158.908L155.471 327.98V326.203L158.986 323.859H160.764ZM178.225 322.238V332.473H176.682V331.516H173.166V330.5H176.682V322.238H178.225ZM163.85 328.781C167.209 328.801 171.506 328.762 175.256 328.352L175.354 329.348C173.654 329.592 171.887 329.738 170.158 329.816V332.531H168.654V329.875C167.014 329.934 165.432 329.934 164.025 329.934L163.85 328.781ZM165.197 325.188C165.197 323.576 166.896 322.57 169.514 322.57C172.102 322.57 173.811 323.576 173.83 325.188C173.811 326.809 172.102 327.775 169.514 327.785C166.896 327.775 165.197 326.809 165.197 325.188ZM166.506 334.211V333.098H178.225V336.691H168.088V338.254H178.791V339.387H166.584V335.617H176.701V334.211H166.506ZM166.643 325.188C166.633 326.105 167.766 326.73 169.514 326.73C171.242 326.73 172.375 326.105 172.385 325.188C172.375 324.26 171.242 323.635 169.514 323.645C167.766 323.635 166.633 324.26 166.643 325.188ZM191.467 338.195C188.332 338.195 186.516 335.559 186.525 330.93C186.516 326.34 188.352 323.664 191.467 323.664C194.572 323.664 196.408 326.34 196.408 330.93C196.408 335.559 194.602 338.195 191.467 338.195ZM188.225 330.93C188.234 334.592 189.416 336.633 191.467 336.633C193.508 336.633 194.699 334.592 194.689 330.93C194.699 327.268 193.498 325.197 191.467 325.188C189.436 325.197 188.234 327.268 188.225 330.93ZM203.479 338.195C200.5 338.195 198.449 336.545 198.459 334.25C198.449 332.424 199.719 330.91 201.33 330.656V330.578C199.924 330.256 198.996 328.957 199.006 327.414C198.996 325.256 200.891 323.664 203.479 323.664C206.057 323.664 207.951 325.256 207.971 327.414C207.951 328.957 207.014 330.256 205.627 330.578V330.656C207.229 330.91 208.498 332.424 208.518 334.25C208.498 336.545 206.428 338.195 203.479 338.195ZM200.217 334.152C200.188 335.637 201.447 336.643 203.479 336.652C205.5 336.643 206.76 335.637 206.76 334.152C206.76 332.59 205.383 331.438 203.479 331.438C201.584 331.438 200.188 332.59 200.217 334.152ZM200.705 327.551C200.715 328.977 201.857 329.943 203.479 329.953C205.09 329.943 206.252 328.977 206.252 327.551C206.252 326.135 205.129 325.178 203.479 325.188C201.799 325.178 200.715 326.135 200.705 327.551ZM215.178 322.863C217.775 322.873 219.66 324.455 219.67 326.711C219.66 328.977 217.775 330.539 215.178 330.539C212.551 330.539 210.656 328.977 210.666 326.711C210.656 324.455 212.551 322.873 215.178 322.863ZM212.17 326.711C212.15 328.234 213.43 329.289 215.178 329.289C216.896 329.289 218.186 328.234 218.186 326.711C218.186 325.207 216.896 324.143 215.178 324.152C213.43 324.143 212.15 325.207 212.17 326.711ZM213.303 333.215V331.984H224.592V336.164H214.846V338.117H225.217V339.348H213.342V335.012H223.068V333.215H213.303ZM223.068 331.145V322.219H224.592V331.145H223.068ZM228.615 332.609C228.635 328.928 229.631 325.861 231.428 323.254H232.912C231.594 325.178 230.363 329.133 230.354 332.609C230.363 336.096 231.594 340.041 232.912 341.984H231.428C229.631 339.367 228.635 336.301 228.615 332.609ZM248.166 323.156V324.445C248.166 325.793 248.166 327.375 247.707 329.543H250.256V330.812H234.357V329.543H246.164C246.652 327.355 246.652 325.793 246.643 324.445V324.426H236.369V323.156H248.166ZM236.311 339.348V333.215H248.244V339.348H236.311ZM237.834 338.098H246.721V334.426H237.834V338.098ZM255.979 332.609C255.959 336.301 254.963 339.367 253.166 341.984H251.682C253 340.041 254.23 336.096 254.24 332.609C254.23 329.133 253 325.178 251.682 323.254H253.166C254.963 325.861 255.959 328.928 255.979 332.609Z" fill="white"/>
<path d="M365.328 314L365.309 312.711L370.133 307.633C371.803 305.855 372.604 304.898 372.613 303.59C372.604 302.135 371.393 301.197 369.801 301.188C368.111 301.197 367.057 302.262 367.047 303.844H365.387C365.367 301.344 367.301 299.664 369.859 299.664C372.428 299.664 374.244 301.393 374.254 303.59C374.244 305.172 373.512 306.402 371.012 308.98L367.77 312.32V312.438H374.508V314H365.328ZM381.695 314.195C378.561 314.195 376.744 311.559 376.754 306.93C376.744 302.34 378.58 299.664 381.695 299.664C384.801 299.664 386.637 302.34 386.637 306.93C386.637 311.559 384.83 314.195 381.695 314.195ZM378.453 306.93C378.463 310.592 379.645 312.633 381.695 312.633C383.736 312.633 384.928 310.592 384.918 306.93C384.928 303.268 383.727 301.197 381.695 301.188C379.664 301.197 378.463 303.268 378.453 306.93ZM388.98 314L388.961 312.711L393.785 307.633C395.455 305.855 396.256 304.898 396.266 303.59C396.256 302.135 395.045 301.197 393.453 301.188C391.764 301.197 390.709 302.262 390.699 303.844H389.039C389.02 301.344 390.953 299.664 393.512 299.664C396.08 299.664 397.896 301.393 397.906 303.59C397.896 305.172 397.164 306.402 394.664 308.98L391.422 312.32V312.438H398.16V314H388.98ZM400.055 311.109V309.664L406.422 299.859H408.59V309.566H410.562V311.109H408.59V314H406.91V311.109H400.055ZM401.949 309.566H406.91V302.086H406.734L401.949 309.449V309.566ZM426.656 298.238V311.09H425.113V305.074H420.113V303.844H425.113V301.754H420.113V300.523H425.113V298.238H426.656ZM413.297 308.512V299.488H414.84V307.203C417.232 307.193 419.537 307.057 422.184 306.578L422.34 307.848C419.518 308.375 417.154 308.492 414.605 308.512H413.297ZM415.465 315.211V309.996H417.008V313.922H427.125V315.211H415.465ZM440.191 299.859V314H438.414V301.695H438.336L434.898 303.98V302.203L438.414 299.859H440.191ZM448.961 299.859V314H447.184V301.695H447.105L443.668 303.98V302.203L447.184 299.859H448.961ZM466.422 298.238V308.473H464.879V307.516H461.363V306.5H464.879V298.238H466.422ZM452.047 304.781C455.406 304.801 459.703 304.762 463.453 304.352L463.551 305.348C461.852 305.592 460.084 305.738 458.355 305.816V308.531H456.852V305.875C455.211 305.934 453.629 305.934 452.223 305.934L452.047 304.781ZM453.395 301.188C453.395 299.576 455.094 298.57 457.711 298.57C460.299 298.57 462.008 299.576 462.027 301.188C462.008 302.809 460.299 303.775 457.711 303.785C455.094 303.775 453.395 302.809 453.395 301.188ZM454.703 310.211V309.098H466.422V312.691H456.285V314.254H466.988V315.387H454.781V311.617H464.898V310.211H454.703ZM454.84 301.188C454.83 302.105 455.963 302.73 457.711 302.73C459.439 302.73 460.572 302.105 460.582 301.188C460.572 300.26 459.439 299.635 457.711 299.645C455.963 299.635 454.83 300.26 454.84 301.188ZM480.035 299.859V314H478.258V301.695H478.18L474.742 303.98V302.203L478.258 299.859H480.035ZM488.434 314.195C485.299 314.195 483.482 311.559 483.492 306.93C483.482 302.34 485.318 299.664 488.434 299.664C491.539 299.664 493.375 302.34 493.375 306.93C493.375 311.559 491.568 314.195 488.434 314.195ZM485.191 306.93C485.201 310.592 486.383 312.633 488.434 312.633C490.475 312.633 491.666 310.592 491.656 306.93C491.666 303.268 490.465 301.197 488.434 301.188C486.402 301.197 485.201 303.268 485.191 306.93ZM500.016 298.863C502.613 298.873 504.498 300.455 504.508 302.711C504.498 304.977 502.613 306.539 500.016 306.539C497.389 306.539 495.494 304.977 495.504 302.711C495.494 300.455 497.389 298.873 500.016 298.863ZM497.008 302.711C496.988 304.234 498.268 305.289 500.016 305.289C501.734 305.289 503.023 304.234 503.023 302.711C503.023 301.207 501.734 300.143 500.016 300.152C498.268 300.143 496.988 301.207 497.008 302.711ZM498.141 309.215V307.984H509.43V312.164H499.684V314.117H510.055V315.348H498.18V311.012H507.906V309.215H498.141ZM507.906 307.145V298.219H509.43V307.145H507.906ZM513.453 308.609C513.473 304.928 514.469 301.861 516.266 299.254H517.75C516.432 301.178 515.201 305.133 515.191 308.609C515.201 312.096 516.432 316.041 517.75 317.984H516.266C514.469 315.367 513.473 312.301 513.453 308.609ZM524.117 298.863C526.715 298.873 528.6 300.455 528.609 302.711C528.6 304.977 526.715 306.539 524.117 306.539C521.49 306.539 519.596 304.977 519.605 302.711C519.596 300.455 521.49 298.873 524.117 298.863ZM521.109 302.711C521.09 304.234 522.369 305.289 524.117 305.289C525.836 305.289 527.125 304.234 527.125 302.711C527.125 301.207 525.836 300.143 524.117 300.152C522.369 300.143 521.09 301.207 521.109 302.711ZM522.242 309.215V307.984H533.531V312.164H523.785V314.117H534.156V315.348H522.281V311.012H532.008V309.215H522.242ZM532.008 307.145V298.219H533.531V307.145H532.008ZM540.816 308.609C540.797 312.301 539.801 315.367 538.004 317.984H536.52C537.838 316.041 539.068 312.096 539.078 308.609C539.068 305.133 537.838 301.178 536.52 299.254H538.004C539.801 301.861 540.797 304.928 540.816 308.609Z" fill="white"/>
<path d="M662.104 314L662.084 312.711L666.908 307.633C668.578 305.855 669.379 304.898 669.389 303.59C669.379 302.135 668.168 301.197 666.576 301.188C664.887 301.197 663.832 302.262 663.822 303.844H662.162C662.143 301.344 664.076 299.664 666.635 299.664C669.203 299.664 671.02 301.393 671.029 303.59C671.02 305.172 670.287 306.402 667.787 308.98L664.545 312.32V312.438H671.283V314H662.104ZM678.471 314.195C675.336 314.195 673.52 311.559 673.529 306.93C673.52 302.34 675.355 299.664 678.471 299.664C681.576 299.664 683.412 302.34 683.412 306.93C683.412 311.559 681.605 314.195 678.471 314.195ZM675.229 306.93C675.238 310.592 676.42 312.633 678.471 312.633C680.512 312.633 681.703 310.592 681.693 306.93C681.703 303.268 680.502 301.197 678.471 301.188C676.439 301.197 675.238 303.268 675.229 306.93ZM685.756 314L685.736 312.711L690.561 307.633C692.23 305.855 693.031 304.898 693.041 303.59C693.031 302.135 691.82 301.197 690.229 301.188C688.539 301.197 687.484 302.262 687.475 303.844H685.814C685.795 301.344 687.729 299.664 690.287 299.664C692.855 299.664 694.672 301.393 694.682 303.59C694.672 305.172 693.939 306.402 691.439 308.98L688.197 312.32V312.438H694.936V314H685.756ZM696.83 311.109V309.664L703.197 299.859H705.365V309.566H707.338V311.109H705.365V314H703.686V311.109H696.83ZM698.725 309.566H703.686V302.086H703.51L698.725 309.449V309.566ZM723.432 298.238V311.09H721.889V305.074H716.889V303.844H721.889V301.754H716.889V300.523H721.889V298.238H723.432ZM710.072 308.512V299.488H711.615V307.203C714.008 307.193 716.312 307.057 718.959 306.578L719.115 307.848C716.293 308.375 713.93 308.492 711.381 308.512H710.072ZM712.24 315.211V309.996H713.783V313.922H723.9V315.211H712.24ZM736.967 299.859V314H735.189V301.695H735.111L731.674 303.98V302.203L735.189 299.859H736.967ZM745.736 299.859V314H743.959V301.695H743.881L740.443 303.98V302.203L743.959 299.859H745.736ZM763.197 298.238V308.473H761.654V307.516H758.139V306.5H761.654V298.238H763.197ZM748.822 304.781C752.182 304.801 756.479 304.762 760.229 304.352L760.326 305.348C758.627 305.592 756.859 305.738 755.131 305.816V308.531H753.627V305.875C751.986 305.934 750.404 305.934 748.998 305.934L748.822 304.781ZM750.17 301.188C750.17 299.576 751.869 298.57 754.486 298.57C757.074 298.57 758.783 299.576 758.803 301.188C758.783 302.809 757.074 303.775 754.486 303.785C751.869 303.775 750.17 302.809 750.17 301.188ZM751.479 310.211V309.098H763.197V312.691H753.061V314.254H763.764V315.387H751.557V311.617H761.674V310.211H751.479ZM751.615 301.188C751.605 302.105 752.738 302.73 754.486 302.73C756.215 302.73 757.348 302.105 757.357 301.188C757.348 300.26 756.215 299.635 754.486 299.645C752.738 299.635 751.605 300.26 751.615 301.188ZM776.811 299.859V314H775.033V301.695H774.955L771.518 303.98V302.203L775.033 299.859H776.811ZM785.58 299.859V314H783.803V301.695H783.725L780.287 303.98V302.203L783.803 299.859H785.58ZM793.646 298.863C796.244 298.873 798.129 300.455 798.139 302.711C798.129 304.977 796.244 306.539 793.646 306.539C791.02 306.539 789.125 304.977 789.135 302.711C789.125 300.455 791.02 298.873 793.646 298.863ZM790.639 302.711C790.619 304.234 791.898 305.289 793.646 305.289C795.365 305.289 796.654 304.234 796.654 302.711C796.654 301.207 795.365 300.143 793.646 300.152C791.898 300.143 790.619 301.207 790.639 302.711ZM791.771 309.215V307.984H803.061V312.164H793.314V314.117H803.686V315.348H791.811V311.012H801.537V309.215H791.771ZM801.537 307.145V298.219H803.061V307.145H801.537ZM807.084 308.609C807.104 304.928 808.1 301.861 809.896 299.254H811.381C810.062 301.178 808.832 305.133 808.822 308.609C808.832 312.096 810.062 316.041 811.381 317.984H809.896C808.1 315.367 807.104 312.301 807.084 308.609ZM827.143 298.238V308.473H825.6V307.516H822.084V306.5H825.6V298.238H827.143ZM812.768 304.781C816.127 304.801 820.424 304.762 824.174 304.352L824.271 305.348C822.572 305.592 820.805 305.738 819.076 305.816V308.531H817.572V305.875C815.932 305.934 814.35 305.934 812.943 305.934L812.768 304.781ZM814.115 301.188C814.115 299.576 815.814 298.57 818.432 298.57C821.02 298.57 822.729 299.576 822.748 301.188C822.729 302.809 821.02 303.775 818.432 303.785C815.814 303.775 814.115 302.809 814.115 301.188ZM815.424 310.211V309.098H827.143V312.691H817.006V314.254H827.709V315.387H815.502V311.617H825.619V310.211H815.424ZM815.561 301.188C815.551 302.105 816.684 302.73 818.432 302.73C820.16 302.73 821.293 302.105 821.303 301.188C821.293 300.26 820.16 299.635 818.432 299.645C816.684 299.635 815.551 300.26 815.561 301.188ZM834.447 308.609C834.428 312.301 833.432 315.367 831.635 317.984H830.15C831.469 316.041 832.699 312.096 832.709 308.609C832.699 305.133 831.469 301.178 830.15 299.254H831.635C833.432 301.861 834.428 304.928 834.447 308.609ZM652.309 332.199C652.943 331.467 653.715 331.096 654.574 331.086C656.059 331.096 657.406 332.209 658.832 332.219C659.711 332.209 660.473 331.799 661.059 330.988V332.609C660.414 333.342 659.652 333.723 658.793 333.723C657.309 333.723 655.951 332.6 654.516 332.59C653.656 332.6 652.904 333.01 652.309 333.82V332.199ZM669.301 338L669.281 336.711L674.105 331.633C675.775 329.855 676.576 328.898 676.586 327.59C676.576 326.135 675.365 325.197 673.773 325.188C672.084 325.197 671.029 326.262 671.02 327.844H669.359C669.34 325.344 671.273 323.664 673.832 323.664C676.4 323.664 678.217 325.393 678.227 327.59C678.217 329.172 677.484 330.402 674.984 332.98L671.742 336.32V336.438H678.48V338H669.301ZM685.668 338.195C682.533 338.195 680.717 335.559 680.727 330.93C680.717 326.34 682.553 323.664 685.668 323.664C688.773 323.664 690.609 326.34 690.609 330.93C690.609 335.559 688.803 338.195 685.668 338.195ZM682.426 330.93C682.436 334.592 683.617 336.633 685.668 336.633C687.709 336.633 688.9 334.592 688.891 330.93C688.9 327.268 687.699 325.197 685.668 325.188C683.637 325.197 682.436 327.268 682.426 330.93ZM692.953 338L692.934 336.711L697.758 331.633C699.428 329.855 700.229 328.898 700.238 327.59C700.229 326.135 699.018 325.197 697.426 325.188C695.736 325.197 694.682 326.262 694.672 327.844H693.012C692.992 325.344 694.926 323.664 697.484 323.664C700.053 323.664 701.869 325.393 701.879 327.59C701.869 329.172 701.137 330.402 698.637 332.98L695.395 336.32V336.438H702.133V338H692.953ZM704.027 335.109V333.664L710.395 323.859H712.562V333.566H714.535V335.109H712.562V338H710.883V335.109H704.027ZM705.922 333.566H710.883V326.086H710.707L705.922 333.449V333.566ZM730.629 322.238V335.09H729.086V329.074H724.086V327.844H729.086V325.754H724.086V324.523H729.086V322.238H730.629ZM717.27 332.512V323.488H718.812V331.203C721.205 331.193 723.51 331.057 726.156 330.578L726.312 331.848C723.49 332.375 721.127 332.492 718.578 332.512H717.27ZM719.438 339.211V333.996H720.98V337.922H731.098V339.211H719.438ZM744.164 323.859V338H742.387V325.695H742.309L738.871 327.98V326.203L742.387 323.859H744.164ZM752.934 323.859V338H751.156V325.695H751.078L747.641 327.98V326.203L751.156 323.859H752.934ZM770.395 322.238V332.473H768.852V331.516H765.336V330.5H768.852V322.238H770.395ZM756.02 328.781C759.379 328.801 763.676 328.762 767.426 328.352L767.523 329.348C765.824 329.592 764.057 329.738 762.328 329.816V332.531H760.824V329.875C759.184 329.934 757.602 329.934 756.195 329.934L756.02 328.781ZM757.367 325.188C757.367 323.576 759.066 322.57 761.684 322.57C764.271 322.57 765.98 323.576 766 325.188C765.98 326.809 764.271 327.775 761.684 327.785C759.066 327.775 757.367 326.809 757.367 325.188ZM758.676 334.211V333.098H770.395V336.691H760.258V338.254H770.961V339.387H758.754V335.617H768.871V334.211H758.676ZM758.812 325.188C758.803 326.105 759.936 326.73 761.684 326.73C763.412 326.73 764.545 326.105 764.555 325.188C764.545 324.26 763.412 323.635 761.684 323.645C759.936 323.635 758.803 324.26 758.812 325.188ZM784.008 323.859V338H782.23V325.695H782.152L778.715 327.98V326.203L782.23 323.859H784.008ZM792.387 338.195C789.838 338.195 787.904 336.623 787.797 334.445H789.496C789.623 335.705 790.854 336.643 792.387 336.652C794.223 336.643 795.551 335.305 795.551 333.527C795.551 331.691 794.174 330.334 792.27 330.324C791.078 330.305 790.15 330.676 789.633 331.594H787.934L788.93 323.859H796.586V325.422H790.395L789.867 329.562H790.004C790.639 329.074 791.586 328.742 792.582 328.742C795.277 328.742 797.26 330.734 797.27 333.488C797.26 336.223 795.209 338.195 792.387 338.195ZM804.008 322.863C806.605 322.873 808.49 324.455 808.5 326.711C808.49 328.977 806.605 330.539 804.008 330.539C801.381 330.539 799.486 328.977 799.496 326.711C799.486 324.455 801.381 322.873 804.008 322.863ZM801 326.711C800.98 328.234 802.26 329.289 804.008 329.289C805.727 329.289 807.016 328.234 807.016 326.711C807.016 325.207 805.727 324.143 804.008 324.152C802.26 324.143 800.98 325.207 801 326.711ZM802.133 333.215V331.984H813.422V336.164H803.676V338.117H814.047V339.348H802.172V335.012H811.898V333.215H802.133ZM811.898 331.145V322.219H813.422V331.145H811.898ZM817.445 332.609C817.465 328.928 818.461 325.861 820.258 323.254H821.742C820.424 325.178 819.193 329.133 819.184 332.609C819.193 336.096 820.424 340.041 821.742 341.984H820.258C818.461 339.367 817.465 336.301 817.445 332.609ZM836.996 323.156V324.445C836.996 325.793 836.996 327.375 836.537 329.543H839.086V330.812H823.188V329.543H834.994C835.482 327.355 835.482 325.793 835.473 324.445V324.426H825.199V323.156H836.996ZM825.141 339.348V333.215H837.074V339.348H825.141ZM826.664 338.098H835.551V334.426H826.664V338.098ZM844.809 332.609C844.789 336.301 843.793 339.367 841.996 341.984H840.512C841.83 340.041 843.061 336.096 843.07 332.609C843.061 329.133 841.83 325.178 840.512 323.254H841.996C843.793 325.861 844.789 328.928 844.809 332.609Z" fill="white"/>
<path d="M955.328 314L955.309 312.711L960.133 307.633C961.803 305.855 962.604 304.898 962.613 303.59C962.604 302.135 961.393 301.197 959.801 301.188C958.111 301.197 957.057 302.262 957.047 303.844H955.387C955.367 301.344 957.301 299.664 959.859 299.664C962.428 299.664 964.244 301.393 964.254 303.59C964.244 305.172 963.512 306.402 961.012 308.98L957.77 312.32V312.438H964.508V314H955.328ZM971.695 314.195C968.561 314.195 966.744 311.559 966.754 306.93C966.744 302.34 968.58 299.664 971.695 299.664C974.801 299.664 976.637 302.34 976.637 306.93C976.637 311.559 974.83 314.195 971.695 314.195ZM968.453 306.93C968.463 310.592 969.645 312.633 971.695 312.633C973.736 312.633 974.928 310.592 974.918 306.93C974.928 303.268 973.727 301.197 971.695 301.188C969.664 301.197 968.463 303.268 968.453 306.93ZM978.98 314L978.961 312.711L983.785 307.633C985.455 305.855 986.256 304.898 986.266 303.59C986.256 302.135 985.045 301.197 983.453 301.188C981.764 301.197 980.709 302.262 980.699 303.844H979.039C979.02 301.344 980.953 299.664 983.512 299.664C986.08 299.664 987.896 301.393 987.906 303.59C987.896 305.172 987.164 306.402 984.664 308.98L981.422 312.32V312.438H988.16V314H978.98ZM990.055 311.109V309.664L996.422 299.859H998.59V309.566H1000.56V311.109H998.59V314H996.91V311.109H990.055ZM991.949 309.566H996.91V302.086H996.734L991.949 309.449V309.566ZM1016.66 298.238V311.09H1015.11V305.074H1010.11V303.844H1015.11V301.754H1010.11V300.523H1015.11V298.238H1016.66ZM1003.3 308.512V299.488H1004.84V307.203C1007.23 307.193 1009.54 307.057 1012.18 306.578L1012.34 307.848C1009.52 308.375 1007.15 308.492 1004.61 308.512H1003.3ZM1005.46 315.211V309.996H1007.01V313.922H1017.12V315.211H1005.46ZM1030.19 299.859V314H1028.41V301.695H1028.34L1024.9 303.98V302.203L1028.41 299.859H1030.19ZM1038.96 299.859V314H1037.18V301.695H1037.11L1033.67 303.98V302.203L1037.18 299.859H1038.96ZM1056.42 298.238V308.473H1054.88V307.516H1051.36V306.5H1054.88V298.238H1056.42ZM1042.05 304.781C1045.41 304.801 1049.7 304.762 1053.45 304.352L1053.55 305.348C1051.85 305.592 1050.08 305.738 1048.36 305.816V308.531H1046.85V305.875C1045.21 305.934 1043.63 305.934 1042.22 305.934L1042.05 304.781ZM1043.39 301.188C1043.39 299.576 1045.09 298.57 1047.71 298.57C1050.3 298.57 1052.01 299.576 1052.03 301.188C1052.01 302.809 1050.3 303.775 1047.71 303.785C1045.09 303.775 1043.39 302.809 1043.39 301.188ZM1044.7 310.211V309.098H1056.42V312.691H1046.29V314.254H1056.99V315.387H1044.78V311.617H1054.9V310.211H1044.7ZM1044.84 301.188C1044.83 302.105 1045.96 302.73 1047.71 302.73C1049.44 302.73 1050.57 302.105 1050.58 301.188C1050.57 300.26 1049.44 299.635 1047.71 299.645C1045.96 299.635 1044.83 300.26 1044.84 301.188ZM1070.04 299.859V314H1068.26V301.695H1068.18L1064.74 303.98V302.203L1068.26 299.859H1070.04ZM1074.25 314L1080.74 301.52V301.422H1073.26V299.859H1082.55V301.5L1076.09 314H1074.25ZM1089.14 298.863C1091.73 298.873 1093.62 300.455 1093.63 302.711C1093.62 304.977 1091.73 306.539 1089.14 306.539C1086.51 306.539 1084.62 304.977 1084.62 302.711C1084.62 300.455 1086.51 298.873 1089.14 298.863ZM1086.13 302.711C1086.11 304.234 1087.39 305.289 1089.14 305.289C1090.86 305.289 1092.14 304.234 1092.14 302.711C1092.14 301.207 1090.86 300.143 1089.14 300.152C1087.39 300.143 1086.11 301.207 1086.13 302.711ZM1087.26 309.215V307.984H1098.55V312.164H1088.8V314.117H1099.18V315.348H1087.3V311.012H1097.03V309.215H1087.26ZM1097.03 307.145V298.219H1098.55V307.145H1097.03ZM1102.57 308.609C1102.59 304.928 1103.59 301.861 1105.39 299.254H1106.87C1105.55 301.178 1104.32 305.133 1104.31 308.609C1104.32 312.096 1105.55 316.041 1106.87 317.984H1105.39C1103.59 315.367 1102.59 312.301 1102.57 308.609ZM1113.24 298.863C1115.84 298.873 1117.72 300.455 1117.73 302.711C1117.72 304.977 1115.84 306.539 1113.24 306.539C1110.61 306.539 1108.72 304.977 1108.73 302.711C1108.72 300.455 1110.61 298.873 1113.24 298.863ZM1110.23 302.711C1110.21 304.234 1111.49 305.289 1113.24 305.289C1114.96 305.289 1116.25 304.234 1116.25 302.711C1116.25 301.207 1114.96 300.143 1113.24 300.152C1111.49 300.143 1110.21 301.207 1110.23 302.711ZM1111.36 309.215V307.984H1122.65V312.164H1112.91V314.117H1123.28V315.348H1111.4V311.012H1121.13V309.215H1111.36ZM1121.13 307.145V298.219H1122.65V307.145H1121.13ZM1129.94 308.609C1129.92 312.301 1128.92 315.367 1127.12 317.984H1125.64C1126.96 316.041 1128.19 312.096 1128.2 308.609C1128.19 305.133 1126.96 301.178 1125.64 299.254H1127.12C1128.92 301.861 1129.92 304.928 1129.94 308.609Z" fill="white"/>
<path d="M305.249 329C283.12 388.562 225.766 431 158.5 431C72.0674 431 2 360.933 2 274.5C2 188.067 72.0674 118 158.5 118C225.766 118 283.12 160.438 305.249 220H306.316C284.14 159.874 226.327 117 158.5 117C71.5152 117 1 187.515 1 274.5C1 361.485 71.5152 432 158.5 432C226.327 432 284.14 389.126 306.316 329H305.249Z" fill="white"/>
<path d="M600.249 329C578.12 388.562 520.766 431 453.5 431C386.234 431 328.88 388.562 306.751 329H305.684C327.86 389.126 385.673 432 453.5 432C521.327 432 579.14 389.126 601.316 329H600.249Z" fill="white"/>
<path d="M601.316 220C579.14 159.874 521.327 117 453.5 117C385.673 117 327.86 159.874 305.684 220H306.751C328.88 160.438 386.234 118 453.5 118C520.766 118 578.12 160.438 600.249 220H601.316Z" fill="white"/>
<path d="M1200 274.5C1200 360.933 1129.93 431 1043.5 431C976.234 431 918.88 388.562 896.751 329H895.684C917.86 389.126 975.673 432 1043.5 432C1130.48 432 1201 361.485 1201 274.5C1201 187.515 1130.48 117 1043.5 117C975.673 117 917.86 159.874 895.684 220H896.751C918.88 160.438 976.234 118 1043.5 118C1129.93 118 1200 188.067 1200 274.5Z" fill="white"/>
<path d="M895.249 329C873.12 388.562 815.766 431 748.5 431C681.234 431 623.88 388.562 601.751 329H600.684C622.86 389.126 680.673 432 748.5 432C816.327 432 874.14 389.126 896.316 329H895.249Z" fill="white"/>
<path d="M896.316 220C874.14 159.874 816.327 117 748.5 117C680.673 117 622.86 159.874 600.684 220H601.751C623.88 160.438 681.234 118 748.5 118C815.766 118 873.12 160.438 895.249 220H896.316Z" fill="white"/>
<path d="M111.594 220.875C111.604 222.708 111.859 224.458 112.359 226.125C112.859 227.792 113.625 229.271 114.656 230.562C115.698 231.844 116.979 232.812 118.5 233.469L116.062 236.656C114.521 235.906 113.208 234.859 112.125 233.516C111.052 232.161 110.208 230.578 109.594 228.766C108.958 230.703 108.083 232.396 106.969 233.844C105.854 235.281 104.51 236.385 102.938 237.156L100.438 233.906C102 233.198 103.312 232.167 104.375 230.812C105.448 229.458 106.245 227.927 106.766 226.219C107.286 224.5 107.552 222.719 107.562 220.875V216.625H111.594V220.875ZM115.312 223.375H120.906V214.438H124.844V242.938H120.906V226.594H115.312V223.375ZM154.5 234.25H148.5V242.875H144.469V234.25H138.531V242.875H134.562V234.25H128.469V231.125H154.5V234.25ZM131.469 215.281H151.5V223.562H135.594V225.875H152.156V229.062H131.562V220.656H147.406V218.531H131.469V215.281ZM187.5 230H183.531V224.062H179.031V220.812H183.531V214.438H187.5V230ZM163.375 227.375C164.812 226.896 166.031 226.224 167.031 225.359C168.031 224.484 168.792 223.5 169.312 222.406C169.833 221.312 170.13 220.167 170.203 218.969H164.5V215.719H179.938V218.969H174.297C174.359 220.062 174.635 221.125 175.125 222.156C175.625 223.177 176.354 224.099 177.312 224.922C178.271 225.745 179.438 226.385 180.812 226.844L178.844 229.906C177.312 229.406 175.995 228.672 174.891 227.703C173.797 226.734 172.932 225.594 172.297 224.281C171.641 225.75 170.734 227.021 169.578 228.094C168.432 229.167 167.042 229.969 165.406 230.5L163.375 227.375ZM168.531 231.094H172.469V233.781H183.531V231.094H187.5V242.562H168.531V231.094ZM183.531 239.375V236.844H172.469V239.375H183.531ZM206.281 216.656C206.271 217.812 206.651 218.948 207.422 220.062C208.203 221.167 209.344 222.125 210.844 222.938C212.344 223.74 214.135 224.271 216.219 224.531L214.656 227.75C212.219 227.396 210.099 226.688 208.297 225.625C206.505 224.552 205.135 223.229 204.188 221.656C203.229 223.229 201.854 224.552 200.062 225.625C198.281 226.688 196.188 227.396 193.781 227.75L192.188 224.531C194.25 224.271 196.026 223.74 197.516 222.938C199.016 222.125 200.151 221.167 200.922 220.062C201.693 218.948 202.083 217.812 202.094 216.656V215.281H206.281V216.656ZM191.188 229.906H217.125V233.156H206.062V242.875H202.125V233.156H191.188V229.906Z" fill="white"/>
<path d="M378.552 216.768V218.88H383.864V214.464H387.832V235.136H383.864V228.224H378.552V230.592H365.048V216.768H378.552ZM368.888 242.368V233.216H372.92V239.168H388.408V242.368H368.888ZM369.016 227.52H374.648V219.904H369.016V227.52ZM378.552 225.024H383.864V222.144H378.552V225.024ZM415.488 214.4V230.016H411.52V224.064H406.976V220.8H411.52V214.4H415.488ZM391.36 227.392C395.84 225.856 397.984 222.4 398.208 218.944H392.448V215.744H407.872V218.944H402.24C402.432 222.144 404.448 225.44 408.768 226.816L406.784 229.952C403.648 228.896 401.472 226.848 400.256 224.288C399.008 227.104 396.736 229.376 393.408 230.464L391.36 227.392ZM396.48 242.56V231.104H400.448V233.792H411.52V231.104H415.488V242.56H396.48ZM400.448 239.36H411.52V236.864H400.448V239.36ZM434.648 215.296C438.936 215.264 442.2 217.984 442.2 221.76C442.2 225.536 438.936 228.224 434.648 228.224C430.232 228.224 426.968 225.536 426.968 221.76C426.968 217.984 430.232 215.264 434.648 215.296ZM430.872 221.76C430.808 223.808 432.44 225.024 434.648 225.024C436.76 225.024 438.36 223.808 438.36 221.76C438.36 219.744 436.76 218.528 434.648 218.56C432.44 218.528 430.808 219.744 430.872 221.76ZM431.256 232.96V229.888H450.328V237.568H435.224V239.424H451.096V242.56H431.32V234.688H446.36V232.96H431.256ZM446.36 228.672V214.4H450.328V228.672H446.36ZM478.176 214.4V231.296H474.208V224.576H469.728V221.376H474.208V214.4H478.176ZM453.984 228.16C458.656 226.624 460.8 222.912 460.896 219.328H455.136V216.128H470.56V219.328H464.928C464.992 222.624 467.04 225.984 471.456 227.456L469.472 230.592C466.368 229.568 464.192 227.52 462.944 224.96C461.696 227.872 459.456 230.176 456.096 231.36L453.984 228.16ZM458.656 237.44C458.656 233.984 462.368 231.968 468.448 231.936C474.528 231.968 478.24 233.984 478.24 237.44C478.24 240.896 474.528 242.912 468.448 242.944C462.368 242.912 458.656 240.896 458.656 237.44ZM462.624 237.44C462.624 239.072 464.672 239.872 468.448 239.872C472.224 239.872 474.272 239.072 474.272 237.44C474.272 235.808 472.224 234.976 468.448 235.008C464.672 234.976 462.624 235.808 462.624 237.44ZM511.799 214.464V222.592H515.639V225.92H511.799V235.136H507.767V214.464H511.799ZM489.399 223.488C489.399 219.264 492.855 216.256 497.207 216.256C501.559 216.256 504.951 219.264 504.951 223.488C504.951 227.68 501.559 230.72 497.207 230.72C492.855 230.72 489.399 227.68 489.399 223.488ZM493.303 242.368V232.96H497.335V239.168H512.823V242.368H493.303ZM493.303 223.488C493.303 225.824 495.063 227.232 497.207 227.264C499.415 227.232 501.079 225.824 501.111 223.488C501.079 221.12 499.415 219.744 497.207 219.712C495.063 219.744 493.303 221.12 493.303 223.488ZM541.375 214.4V242.88H537.599V228.672H534.911V241.472H531.135V214.912H534.911V225.408H537.599V214.4H541.375ZM518.015 235.968V217.6H522.047V232.448C524.319 232.384 526.815 232.192 529.535 231.68L529.983 235.072C526.175 235.744 522.911 235.936 519.935 235.968H518.015Z" fill="white"/>
<path d="M736.531 218.906H741.844V214.469H745.812V235.156H741.844V228.188H736.531V230.594H723.031V216.75H736.531V218.906ZM726.875 233.188H730.906V239.188H746.406V242.375H726.875V233.188ZM732.625 227.5V219.906H727V227.5H732.625ZM741.844 225.031V222.125H736.531V225.031H741.844ZM773.469 230H769.5V224.062H765V220.812H769.5V214.438H773.469V230ZM749.344 227.375C750.781 226.896 752 226.224 753 225.359C754 224.484 754.76 223.5 755.281 222.406C755.802 221.312 756.099 220.167 756.172 218.969H750.469V215.719H765.906V218.969H760.266C760.328 220.062 760.604 221.125 761.094 222.156C761.594 223.177 762.323 224.099 763.281 224.922C764.24 225.745 765.406 226.385 766.781 226.844L764.812 229.906C763.281 229.406 761.964 228.672 760.859 227.703C759.766 226.734 758.901 225.594 758.266 224.281C757.609 225.75 756.703 227.021 755.547 228.094C754.401 229.167 753.01 229.969 751.375 230.5L749.344 227.375ZM754.5 231.094H758.438V233.781H769.5V231.094H773.469V242.562H754.5V231.094ZM769.5 239.375V236.844H758.438V239.375H769.5Z" fill="white"/>
<path d="M997.25 234.094C999.781 233.938 1002.08 233.708 1004.16 233.406L1004.47 236.312C1001.69 236.844 998.854 237.188 995.969 237.344C993.094 237.5 989.917 237.583 986.438 237.594L985.969 234.375C988.719 234.375 991.156 234.344 993.281 234.281V229.812H997.25V234.094ZM986.531 227.688C988.594 227.135 990.182 226.266 991.297 225.078C992.422 223.88 993.052 222.521 993.188 221H987.438V217.781H993.281V214.688H997.25V217.781H1003.12V221H997.312C997.406 221.948 997.714 222.844 998.234 223.688C998.755 224.521 999.5 225.26 1000.47 225.906C1001.44 226.552 1002.61 227.042 1004 227.375L1002.19 230.469C1000.56 230.062 999.167 229.427 998 228.562C996.844 227.688 995.932 226.641 995.266 225.422C994.63 226.703 993.734 227.797 992.578 228.703C991.432 229.609 990.042 230.271 988.406 230.688L986.531 227.688ZM1005.78 214.438H1009.75V242.938H1005.78V214.438ZM1028.41 228.031H1039.44V231.25H1013.5V228.031H1024.47V224.625H1028.41V228.031ZM1014.62 223.125C1016.32 222.969 1017.8 222.677 1019.05 222.25C1020.31 221.812 1021.31 221.297 1022.05 220.703C1022.8 220.099 1023.3 219.458 1023.55 218.781H1015.88V215.656H1037.09V218.781H1029.36C1029.6 219.458 1030.09 220.099 1030.84 220.703C1031.59 221.297 1032.6 221.812 1033.86 222.25C1035.12 222.677 1036.6 222.969 1038.31 223.125L1036.91 226.25C1034.28 225.99 1032.07 225.401 1030.28 224.484C1028.49 223.557 1027.21 222.391 1026.44 220.984C1025.67 222.391 1024.39 223.557 1022.61 224.484C1020.84 225.401 1018.65 225.99 1016.03 226.25L1014.62 223.125ZM1016.47 237.844C1016.47 236.771 1016.86 235.859 1017.66 235.109C1018.45 234.359 1019.59 233.792 1021.08 233.406C1022.58 233.01 1024.36 232.812 1026.44 232.812C1028.5 232.812 1030.27 233.01 1031.75 233.406C1033.23 233.792 1034.36 234.359 1035.14 235.109C1035.93 235.859 1036.33 236.771 1036.34 237.844C1036.33 238.917 1035.93 239.828 1035.14 240.578C1034.36 241.339 1033.23 241.911 1031.75 242.297C1030.27 242.682 1028.5 242.875 1026.44 242.875C1024.36 242.875 1022.58 242.682 1021.08 242.297C1019.59 241.911 1018.45 241.339 1017.66 240.578C1016.86 239.828 1016.47 238.917 1016.47 237.844ZM1020.53 237.844C1020.52 238.542 1021.01 239.062 1021.98 239.406C1022.96 239.74 1024.45 239.906 1026.44 239.906C1030.36 239.906 1032.33 239.219 1032.34 237.844C1032.33 236.51 1030.36 235.844 1026.44 235.844C1024.44 235.844 1022.95 236.01 1021.97 236.344C1021 236.667 1020.52 237.167 1020.53 237.844ZM1053.34 219.094H1059.16V215.719H1063.16V228.125H1049.38V215.719H1053.34V219.094ZM1052.22 229.969H1071.09V237.688H1056.19V239.531H1071.91V242.688H1052.28V234.844H1067.12V233.062H1052.22V229.969ZM1059.16 225V222.094H1053.34V225H1059.16ZM1067.09 214.438H1071.09V219.969H1074.94V223.188H1071.09V228.906H1067.09V214.438ZM1102.22 239.719H1076.19V236.531H1082.66V231.125H1078.34V227.906H1082.16V219.906H1078.22V216.719H1100.03V219.906H1096.03V227.906H1099.91V231.125H1095.62V236.531H1102.22V239.719ZM1092.09 227.906V219.906H1086.16V227.906H1092.09ZM1091.62 236.531V231.125H1086.66V236.531H1091.62Z" fill="white"/>
<path d="M1199.71 267.707C1200.1 267.316 1200.1 266.683 1199.71 266.293L1193.34 259.929C1192.95 259.538 1192.32 259.538 1191.93 259.929C1191.54 260.319 1191.54 260.953 1191.93 261.343L1197.59 267L1191.93 272.657C1191.54 273.047 1191.54 273.68 1191.93 274.071C1192.32 274.461 1192.95 274.461 1193.34 274.071L1199.71 267.707ZM2 268L1199 268L1199 266L2 266L2 268Z" fill="url(#paint0_linear_5811_1093)"/>
<defs>
<linearGradient id="paint0_linear_5811_1093" x1="1199" y1="267.944" x2="2" y2="267.944" gradientUnits="userSpaceOnUse">
<stop offset="0.3125" stop-color="#FF731D"/>
<stop offset="1" stop-color="white"/>
</linearGradient>
</defs>
</svg>
