<svg width="956" height="355" viewBox="0 0 956 355" fill="none" xmlns="http://www.w3.org/2000/svg">
<path d="M433.7 309H452.9V285.3H476.7C484.9 285.3 487.5 288.4 487.5 295.2V309H506.7V295.2C506.7 288.3 505.6 281 495.2 278.6V278.4C504.3 275.7 507.1 269.3 507.1 262.7C507.1 250.9 499.5 243.2 475.1 243.2H433.7V309ZM452.9 274.1V257.4H474.3C485.4 257.4 488.9 260.8 488.9 265.5C488.9 270.6 485.5 274.1 476 274.1H452.9ZM518.27 309H581.47V294.8H537.47V281.5H570.47V270.3H537.47V257.4H580.47V243.2H518.27V309ZM659.034 309H681.334L645.534 243.2H622.734L586.934 309H606.734L613.534 295.6H652.234L659.034 309ZM619.134 284.4L632.734 257.6H632.834L646.534 284.4H619.134ZM689.071 309H747.271V293.8H708.271V243.2H689.071V309ZM755.977 309H775.177V243.2H755.977V309ZM809.818 309H829.018V257.4H854.918V243.2H783.918V257.4H809.818V309ZM896.071 309H915.271V282.3L951.071 243.2H928.671L907.571 267.1H907.271L885.971 243.2H860.371L896.071 282.3V309Z" fill="#FF731D"/>
<line x1="25" y1="281" x2="380" y2="281" stroke="#FF731D" stroke-width="4"/>
<line x1="380.273" y1="279.436" x2="351.656" y2="253.481" stroke="#FF731D" stroke-width="4"/>
<line x1="383.03" y1="279.368" x2="354.414" y2="307.985" stroke="#FF731D" stroke-width="4"/>
<path d="M5.7 202H24.9V182.6H44.8C68 182.6 77.7 174.8 77.7 159.8C77.7 144.1 67.8 136.2 45.3 136.2H5.7V202ZM24.9 170.4V150.4H44.5C55.2 150.4 59.5 153.9 59.5 160.4C59.5 167.2 54.7 170.4 44.4 170.4H24.9ZM126.876 203.2C157.576 203.2 170.076 187.5 170.076 168.8C170.076 150.6 156.576 135 126.876 135C97.1758 135 83.6758 150.6 83.6758 168.8C83.6758 188.5 97.0758 203.2 126.876 203.2ZM126.876 189C111.176 189 103.876 180.7 103.876 168.9C103.876 158.2 111.276 149.2 126.876 149.2C142.476 149.2 149.876 158.2 149.876 168.9C149.876 180.2 142.976 189 126.876 189ZM215.635 203.2C249.535 203.2 255.135 190.9 255.135 180.5C255.135 174.2 251.535 169 245.235 166.4C239.635 164.1 231.435 163.3 221.835 162.7C214.435 162.2 204.535 161.8 200.935 160.7C198.135 159.8 196.735 158.3 196.735 155.8C196.735 151.1 202.235 148.2 215.435 148.2C229.035 148.2 234.935 151.7 234.935 157.7H252.135C252.135 145.8 246.735 135 215.435 135C189.335 135 177.535 145 177.535 157.2C177.535 163.6 180.735 168.3 185.535 170.8C190.935 173.6 200.535 174.7 209.235 175.2C216.535 175.6 226.635 176 230.735 176.9C234.235 177.7 235.935 179.3 235.935 182C235.935 186.5 233.035 190 215.635 190C199.135 190 195.135 185.5 195.135 179.9H177.935C177.935 188.7 181.435 203.2 215.635 203.2ZM301.28 203.2C335.18 203.2 340.78 190.9 340.78 180.5C340.78 174.2 337.18 169 330.88 166.4C325.28 164.1 317.08 163.3 307.48 162.7C300.08 162.2 290.18 161.8 286.58 160.7C283.78 159.8 282.38 158.3 282.38 155.8C282.38 151.1 287.88 148.2 301.08 148.2C314.68 148.2 320.58 151.7 320.58 157.7H337.78C337.78 145.8 332.38 135 301.08 135C274.98 135 263.18 145 263.18 157.2C263.18 163.6 266.38 168.3 271.18 170.8C276.58 173.6 286.18 174.7 294.88 175.2C302.18 175.6 312.28 176 316.38 176.9C319.88 177.7 321.58 179.3 321.58 182C321.58 186.5 318.68 190 301.28 190C284.78 190 280.78 185.5 280.78 179.9H263.58C263.58 188.7 267.08 203.2 301.28 203.2ZM351.024 202H370.224V136.2H351.024V202ZM382.165 202H425.465C449.665 202 455.265 193.4 455.265 182.7C455.265 176.8 451.765 169.6 440.665 167.7V167.6C449.465 165.3 451.965 158.9 451.965 153.6C451.965 145.9 448.265 136.2 423.965 136.2H382.165V202ZM401.365 162.9V149.4H423.265C432.165 149.4 435.265 152.3 435.265 156.1C435.265 160.3 432.465 162.9 424.465 162.9H401.365ZM401.365 188.9V174.1H424.965C433.865 174.1 437.065 177.4 437.065 181C437.065 185.8 434.265 188.9 424.565 188.9H401.365ZM464.989 202H484.189V136.2H464.989V202ZM496.13 202H554.33V186.8H515.33V136.2H496.13V202ZM563.036 202H582.236V136.2H563.036V202ZM616.877 202H636.077V150.4H661.977V136.2H590.977V150.4H616.877V202ZM703.13 202H722.33V175.3L758.13 136.2H735.73L714.63 160.1H714.33L693.03 136.2H667.43L703.13 175.3V202ZM818.537 202H837.737V150.4H863.637V136.2H792.637V150.4H818.537V202ZM908.809 203.2C939.509 203.2 952.009 187.5 952.009 168.8C952.009 150.6 938.509 135 908.809 135C879.109 135 865.609 150.6 865.609 168.8C865.609 188.5 879.009 203.2 908.809 203.2ZM908.809 189C893.109 189 885.809 180.7 885.809 168.9C885.809 158.2 893.209 149.2 908.809 149.2C924.409 149.2 931.809 158.2 931.809 168.9C931.809 180.2 924.909 189 908.809 189Z" fill="#FF731D"/>
<path d="M5.7 98H63.9V82.8H24.9V32.2H5.7V98ZM72.6063 98H91.8063V32.2H72.6063V98ZM103.747 98H122.947V83.4L137.247 72.3L164.247 98H191.147L151.447 61.2L188.747 32.2H164.547L123.147 65.1H122.947V32.2H103.747V98ZM197.888 98H261.088V83.8H217.088V70.5H250.088V59.3H217.088V46.4H260.088V32.2H197.888V98Z" fill="#FF731D"/>
<path d="M895.975 40.8843L880.355 15L883.256 43.7851L858.264 36.8678L872.099 59.1818H848L872.099 68.5537L862.058 75.2479L850.231 81.9422L875.223 80.157L858.264 98.0083L883.256 86.6281V109.612L895.975 88.6364L897.76 112.512L908.248 88.6364L912.488 114.298L919.628 86.6281L936.14 101.802L929.669 78.595L948.636 90.8678L936.14 69.6694L956 52.9339L933.463 59.1818L949.975 36.8678L923.198 52.9339L928.107 19.9091L911.372 43.7851L908.248 16.1157L895.975 40.8843Z" fill="#FF731D"/>
<path d="M929.223 66.7686L911.595 50.033L891.512 47.3553L878.347 58.9587L886.38 79.4876L914.719 82.6115L929.223 66.7686Z" fill="black"/>
<circle cx="893.967" cy="66.3222" r="2.90083" fill="white"/>
<circle cx="905.124" cy="66.3222" r="2.90083" fill="white"/>
<circle cx="905.124" cy="66.3222" r="1.56198" fill="black"/>
<circle cx="893.967" cy="66.3222" r="1.56198" fill="black"/>
<rect x="2" y="243" width="407" height="79" rx="39.5" stroke="#FF731D" stroke-width="4"/>
<path d="M282 91L521 39" stroke="#FF731D" stroke-width="14"/>
<path d="M546.7 98H604.9V82.8H565.9V32.2H546.7V98ZM613.606 98H632.806V32.2H613.606V98ZM685.747 99.2C716.447 99.2 728.947 83.5 728.947 64.8C728.947 46.6 715.447 31 685.747 31C656.047 31 642.547 46.6 642.547 64.8C642.547 84.5 655.947 99.2 685.747 99.2ZM685.747 85C670.047 85 662.747 76.7 662.747 64.9C662.747 54.2 670.147 45.2 685.747 45.2C701.347 45.2 708.747 54.2 708.747 64.9C708.747 76.2 701.847 85 685.747 85ZM738.106 98H756.706V49.6H756.806L799.706 98H818.706V32.2H800.106V71.8H800.006L764.906 32.2H738.106V98Z" fill="#FF731D"/>
</svg>
